<?xml version="1.0" encoding="utf-8" standalone="no"?>
<!DOCTYPE svg PUBLIC "-//W3C//DTD SVG 1.1//EN"
  "http://www.w3.org/Graphics/SVG/1.1/DTD/svg11.dtd">
<svg xmlns:xlink="http://www.w3.org/1999/xlink" width="160.56pt" height="108pt" viewBox="0 0 160.56 108" xmlns="http://www.w3.org/2000/svg" version="1.1">
 <metadata>
  <rdf:RDF xmlns:dc="http://purl.org/dc/elements/1.1/" xmlns:cc="http://creativecommons.org/ns#" xmlns:rdf="http://www.w3.org/1999/02/22-rdf-syntax-ns#">
   <cc:Work>
    <dc:type rdf:resource="http://purl.org/dc/dcmitype/StillImage"/>
    <dc:date>2025-01-10T17:50:15.802408</dc:date>
    <dc:format>image/svg+xml</dc:format>
    <dc:creator>
     <cc:Agent>
      <dc:title>Matplotlib v3.6.3, https://matplotlib.org/</dc:title>
     </cc:Agent>
    </dc:creator>
   </cc:Work>
  </rdf:RDF>
 </metadata>
 <defs>
  <style type="text/css">*{stroke-linejoin: round; stroke-linecap: butt}</style>
 </defs>
 <g id="figure_1">
  <g id="patch_1">
   <path d="M 0 108 
L 160.56 108 
L 160.56 0 
L 0 0 
z
" style="fill: #ffffff"/>
  </g>
  <g id="axes_1">
   <g id="patch_2">
    <path d="M 30.160813 75.181443 
L 155.796077 75.181443 
L 155.796077 5.166495 
L 30.160813 5.166495 
z
" style="fill: #ffffff"/>
   </g>
   <g id="matplotlib.axis_1">
    <g id="xtick_1">
     <g id="line2d_1">
      <defs>
       <path id="m165ad5761b" d="M 0 0 
L 0 3.5 
" style="stroke: #000000; stroke-width: 0.8"/>
      </defs>
      <g>
       <use xlink:href="#m165ad5761b" x="35.871507" y="75.181443" style="stroke: #000000; stroke-width: 0.8"/>
      </g>
     </g>
     <g id="text_1">
      <!-- $\mathdefault{0}$ -->
      <g transform="translate(33.38084 89.099942) scale(0.1 -0.1)">
       <defs>
        <path id="CMR17-30" d="M 2688 2038 
C 2688 2430 2682 3099 2413 3613 
C 2176 4063 1798 4224 1466 4224 
C 1158 4224 768 4082 525 3620 
C 269 3137 243 2539 243 2038 
C 243 1671 250 1112 448 623 
C 723 -39 1216 -128 1466 -128 
C 1760 -128 2208 -7 2470 604 
C 2662 1048 2688 1568 2688 2038 
z
M 1466 -26 
C 1056 -26 813 328 723 816 
C 653 1196 653 1749 653 2109 
C 653 2604 653 3015 736 3407 
C 858 3954 1216 4121 1466 4121 
C 1728 4121 2067 3947 2189 3420 
C 2272 3054 2278 2623 2278 2109 
C 2278 1691 2278 1176 2202 797 
C 2067 96 1690 -26 1466 -26 
z
" transform="scale(0.015625)"/>
       </defs>
       <use xlink:href="#CMR17-30" transform="scale(0.996264)"/>
      </g>
     </g>
    </g>
    <g id="xtick_2">
     <g id="line2d_2">
      <g>
       <use xlink:href="#m165ad5761b" x="73.942799" y="75.181443" style="stroke: #000000; stroke-width: 0.8"/>
      </g>
     </g>
     <g id="text_2">
      <!-- $\mathdefault{120}$ -->
      <g transform="translate(66.470796 89.099942) scale(0.1 -0.1)">
       <defs>
        <path id="CMR17-31" d="M 1702 4083 
C 1702 4217 1696 4224 1606 4224 
C 1357 3927 979 3833 621 3820 
C 602 3820 570 3820 563 3808 
C 557 3795 557 3782 557 3648 
C 755 3648 1088 3686 1344 3839 
L 1344 467 
C 1344 243 1331 166 781 166 
L 589 166 
L 589 0 
C 896 6 1216 12 1523 12 
C 1830 12 2150 6 2458 0 
L 2458 166 
L 2266 166 
C 1715 166 1702 236 1702 467 
L 1702 4083 
z
" transform="scale(0.015625)"/>
        <path id="CMR17-32" d="M 2669 990 
L 2554 990 
C 2490 537 2438 460 2413 422 
C 2381 371 1920 371 1830 371 
L 602 371 
C 832 620 1280 1073 1824 1596 
C 2214 1966 2669 2400 2669 3033 
C 2669 3788 2067 4224 1395 4224 
C 691 4224 262 3603 262 3027 
C 262 2777 448 2745 525 2745 
C 589 2745 781 2783 781 3007 
C 781 3206 614 3264 525 3264 
C 486 3264 448 3257 422 3244 
C 544 3788 915 4057 1306 4057 
C 1862 4057 2227 3616 2227 3033 
C 2227 2477 1901 1998 1536 1583 
L 262 147 
L 262 0 
L 2515 0 
L 2669 990 
z
" transform="scale(0.015625)"/>
       </defs>
       <use xlink:href="#CMR17-31" transform="scale(0.996264)"/>
       <use xlink:href="#CMR17-32" transform="translate(45.690477 0) scale(0.996264)"/>
       <use xlink:href="#CMR17-30" transform="translate(91.380954 0) scale(0.996264)"/>
      </g>
     </g>
    </g>
    <g id="xtick_3">
     <g id="line2d_3">
      <g>
       <use xlink:href="#m165ad5761b" x="112.014091" y="75.181443" style="stroke: #000000; stroke-width: 0.8"/>
      </g>
     </g>
     <g id="text_3">
      <!-- $\mathdefault{240}$ -->
      <g transform="translate(104.542088 89.099942) scale(0.1 -0.1)">
       <defs>
        <path id="CMR17-34" d="M 2150 4147 
C 2150 4281 2144 4288 2029 4288 
L 128 1254 
L 128 1088 
L 1779 1088 
L 1779 460 
C 1779 230 1766 166 1318 166 
L 1197 166 
L 1197 0 
C 1402 12 1747 12 1965 12 
C 2182 12 2528 12 2733 0 
L 2733 166 
L 2611 166 
C 2163 166 2150 230 2150 460 
L 2150 1088 
L 2803 1088 
L 2803 1254 
L 2150 1254 
L 2150 4147 
z
M 1798 3723 
L 1798 1254 
L 256 1254 
L 1798 3723 
z
" transform="scale(0.015625)"/>
       </defs>
       <use xlink:href="#CMR17-32" transform="scale(0.996264)"/>
       <use xlink:href="#CMR17-34" transform="translate(45.690477 0) scale(0.996264)"/>
       <use xlink:href="#CMR17-30" transform="translate(91.380954 0) scale(0.996264)"/>
      </g>
     </g>
    </g>
    <g id="xtick_4">
     <g id="line2d_4">
      <g>
       <use xlink:href="#m165ad5761b" x="150.085383" y="75.181443" style="stroke: #000000; stroke-width: 0.8"/>
      </g>
     </g>
     <g id="text_4">
      <!-- $\mathdefault{360}$ -->
      <g transform="translate(142.61338 89.099942) scale(0.1 -0.1)">
       <defs>
        <path id="CMR17-33" d="M 1414 2176 
C 1984 2176 2234 1673 2234 1094 
C 2234 322 1824 25 1453 25 
C 1114 25 563 193 390 691 
C 422 678 454 678 486 678 
C 640 678 755 780 755 947 
C 755 1132 614 1216 486 1216 
C 378 1216 211 1164 211 927 
C 211 335 787 -128 1466 -128 
C 2176 -128 2720 432 2720 1087 
C 2720 1718 2208 2176 1600 2246 
C 2086 2347 2554 2776 2554 3353 
C 2554 3856 2048 4224 1472 4224 
C 890 4224 378 3862 378 3347 
C 378 3123 544 3084 627 3084 
C 762 3084 877 3167 877 3334 
C 877 3500 762 3584 627 3584 
C 602 3584 570 3584 544 3571 
C 730 3999 1235 4076 1459 4076 
C 1683 4076 2106 3966 2106 3347 
C 2106 3167 2080 2851 1862 2574 
C 1670 2329 1453 2316 1242 2297 
C 1210 2297 1062 2284 1037 2284 
C 992 2278 966 2272 966 2227 
C 966 2182 973 2176 1101 2176 
L 1414 2176 
z
" transform="scale(0.015625)"/>
        <path id="CMR17-36" d="M 678 2198 
C 678 3712 1395 4076 1811 4076 
C 1946 4076 2272 4049 2400 3782 
C 2298 3782 2106 3782 2106 3558 
C 2106 3385 2246 3328 2336 3328 
C 2394 3328 2566 3353 2566 3571 
C 2566 3987 2246 4224 1805 4224 
C 1043 4224 243 3411 243 2011 
C 243 257 966 -128 1478 -128 
C 2099 -128 2688 431 2688 1295 
C 2688 2101 2170 2688 1517 2688 
C 1126 2688 838 2430 678 1979 
L 678 2198 
z
M 1478 25 
C 691 25 691 1212 691 1450 
C 691 1914 909 2585 1504 2585 
C 1613 2585 1926 2585 2138 2140 
C 2253 1889 2253 1624 2253 1302 
C 2253 954 2253 696 2118 438 
C 1978 173 1773 25 1478 25 
z
" transform="scale(0.015625)"/>
       </defs>
       <use xlink:href="#CMR17-33" transform="scale(0.996264)"/>
       <use xlink:href="#CMR17-36" transform="translate(45.690477 0) scale(0.996264)"/>
       <use xlink:href="#CMR17-30" transform="translate(91.380954 0) scale(0.996264)"/>
      </g>
     </g>
    </g>
    <g id="text_5">
     <!-- $\phi (^o)$ -->
     <g transform="translate(83.920729 102.5091) scale(0.1 -0.1)">
      <defs>
       <path id="CMMI12-1e" d="M 2752 4358 
C 2752 4416 2707 4416 2688 4416 
C 2630 4416 2624 4403 2598 4294 
L 2253 2924 
C 2234 2841 2227 2835 2221 2828 
C 2214 2816 2170 2809 2157 2809 
C 1107 2720 301 1863 301 1071 
C 301 387 832 -32 1498 -71 
C 1446 -266 1402 -467 1350 -662 
C 1261 -995 1210 -1204 1210 -1229 
C 1210 -1242 1210 -1280 1274 -1280 
C 1293 -1280 1318 -1280 1331 -1255 
C 1344 -1242 1382 -1089 1408 -1008 
L 1645 -71 
C 2739 -13 3571 875 3571 1673 
C 3571 2313 3085 2771 2374 2816 
L 2752 4358 
z
M 2336 2688 
C 2758 2662 3181 2428 3181 1806 
C 3181 1090 2675 140 1677 64 
L 2336 2688 
z
M 1530 57 
C 1216 76 691 241 691 938 
C 691 1737 1274 2624 2195 2681 
L 1530 57 
z
" transform="scale(0.015625)"/>
       <path id="CMR17-28" d="M 1958 -1562 
C 1958 -1556 1958 -1543 1939 -1524 
C 1645 -1223 858 -403 858 1596 
C 858 3595 1632 4408 1946 4729 
C 1946 4735 1958 4748 1958 4767 
C 1958 4787 1939 4800 1914 4800 
C 1843 4800 1299 4325 986 3620 
C 666 2909 576 2218 576 1603 
C 576 1141 621 360 1005 -467 
C 1312 -1133 1837 -1600 1914 -1600 
C 1946 -1600 1958 -1588 1958 -1562 
z
" transform="scale(0.015625)"/>
       <path id="CMMI12-6f" d="M 2918 1755 
C 2918 2362 2522 2816 1939 2816 
C 1094 2816 262 1896 262 996 
C 262 389 659 -64 1242 -64 
C 2093 -64 2918 855 2918 1755 
z
M 1248 64 
C 928 64 691 319 691 766 
C 691 1060 845 1711 1024 2030 
C 1312 2522 1670 2687 1933 2687 
C 2246 2687 2490 2432 2490 1985 
C 2490 1730 2355 1047 2112 657 
C 1850 230 1498 64 1248 64 
z
" transform="scale(0.015625)"/>
       <path id="CMR17-29" d="M 1683 1596 
C 1683 2057 1638 2839 1254 3665 
C 947 4332 422 4800 346 4800 
C 326 4800 301 4793 301 4761 
C 301 4748 307 4742 314 4729 
C 621 4408 1402 3595 1402 1603 
C 1402 -396 627 -1210 314 -1530 
C 307 -1543 301 -1549 301 -1562 
C 301 -1594 326 -1600 346 -1600 
C 416 -1600 960 -1127 1274 -422 
C 1594 289 1683 981 1683 1596 
z
" transform="scale(0.015625)"/>
      </defs>
      <use xlink:href="#CMMI12-1e" transform="scale(0.996264)"/>
      <use xlink:href="#CMR17-28" transform="translate(57.73418 0) scale(0.996264)"/>
      <use xlink:href="#CMMI12-6f" transform="translate(93.014948 36.153639) scale(0.697382)"/>
      <use xlink:href="#CMR17-29" transform="translate(126.339642 0) scale(0.996264)"/>
     </g>
    </g>
   </g>
   <g id="matplotlib.axis_2">
    <g id="ytick_1">
     <g id="line2d_5">
      <defs>
       <path id="m803c6d7429" d="M 0 0 
L -3.5 0 
" style="stroke: #000000; stroke-width: 0.8"/>
      </defs>
      <g>
       <use xlink:href="#m803c6d7429" x="30.160813" y="46.248368" style="stroke: #000000; stroke-width: 0.8"/>
      </g>
     </g>
     <g id="text_6">
      <!-- $\mathdefault{10^{-1}}$ -->
      <g transform="translate(3.00024 49.707617) scale(0.1 -0.1)">
       <defs>
        <path id="CMSY10-0" d="M 4218 1472 
C 4326 1472 4442 1472 4442 1600 
C 4442 1728 4326 1728 4218 1728 
L 755 1728 
C 646 1728 531 1728 531 1600 
C 531 1472 646 1472 755 1472 
L 4218 1472 
z
" transform="scale(0.015625)"/>
       </defs>
       <use xlink:href="#CMR17-31" transform="scale(0.996264)"/>
       <use xlink:href="#CMR17-30" transform="translate(45.690477 0) scale(0.996264)"/>
       <use xlink:href="#CMSY10-0" transform="translate(91.380954 36.153639) scale(0.697382)"/>
       <use xlink:href="#CMR17-31" transform="translate(145.621947 36.153639) scale(0.697382)"/>
      </g>
     </g>
    </g>
    <g id="ytick_2">
     <g id="line2d_6">
      <g>
       <use xlink:href="#m803c6d7429" x="30.160813" y="6.455117" style="stroke: #000000; stroke-width: 0.8"/>
      </g>
     </g>
     <g id="text_7">
      <!-- $\mathdefault{10^{2}}$ -->
      <g transform="translate(9.226905 9.914366) scale(0.1 -0.1)">
       <use xlink:href="#CMR17-31" transform="scale(0.996264)"/>
       <use xlink:href="#CMR17-30" transform="translate(45.690477 0) scale(0.996264)"/>
       <use xlink:href="#CMR17-32" transform="translate(91.380954 36.153639) scale(0.697382)"/>
      </g>
     </g>
    </g>
   </g>
   <g id="line2d_7">
    <path d="M 35.871507 8.348993 
L 36.506029 8.414741 
L 37.14055 8.718919 
L 37.775072 9.279774 
L 38.409593 10.123991 
L 39.044115 11.290661 
L 39.678636 12.838167 
L 40.313158 14.856765 
L 40.947679 17.492768 
L 41.582201 20.995231 
L 42.216723 25.772298 
L 43.168505 33.750867 
L 43.485766 33.094836 
L 44.754809 24.210349 
L 45.38933 21.623325 
L 46.023852 20.011951 
L 46.658373 19.125488 
L 46.975634 18.909903 
L 47.292895 18.832576 
L 47.610156 18.887937 
L 47.927416 19.073452 
L 48.561938 19.839059 
L 49.196459 21.168429 
L 49.830981 23.164067 
L 50.465502 26.039529 
L 51.100024 30.25093 
L 51.734546 36.8505 
L 52.369067 45.017593 
L 52.686328 42.771018 
L 53.320849 34.883307 
L 53.955371 30.133049 
L 54.589892 27.243478 
L 55.224414 25.455836 
L 55.858935 24.429609 
L 56.493457 23.993641 
L 56.810718 23.966097 
L 57.445239 24.254023 
L 58.079761 24.964289 
L 58.714282 26.0551 
L 59.666065 28.221156 
L 60.617847 30.326046 
L 60.935108 30.765366 
L 61.252368 30.981286 
L 61.569629 30.956251 
L 61.88689 30.712062 
L 62.521412 29.783973 
L 63.790455 27.635855 
L 64.424976 26.854546 
L 65.059498 26.346317 
L 65.694019 26.102461 
L 66.328541 26.095004 
L 66.963062 26.284245 
L 67.914845 26.82286 
L 69.501148 27.836772 
L 70.452931 28.150395 
L 71.404713 28.135134 
L 72.673756 27.788376 
L 74.577321 27.254487 
L 76.163625 27.095909 
L 80.605275 26.913761 
L 84.412404 26.389362 
L 85.681448 26.50593 
L 86.63323 26.781258 
L 87.585012 27.251075 
L 88.536794 27.943526 
L 89.488577 28.884339 
L 90.440359 30.088586 
L 92.026663 32.569262 
L 92.978445 33.991897 
L 93.612967 34.597964 
L 93.930227 34.723819 
L 94.247488 34.709197 
L 94.564749 34.551179 
L 95.19927 33.854421 
L 96.151053 32.223908 
L 97.737357 29.393507 
L 98.689139 28.09906 
L 99.640921 27.222225 
L 100.275443 26.886396 
L 100.909964 26.75971 
L 101.544486 26.853749 
L 102.179007 27.185102 
L 102.813529 27.777912 
L 103.44805 28.667642 
L 104.082572 29.907499 
L 104.717093 31.580517 
L 105.351615 33.824826 
L 105.986137 36.894154 
L 106.620658 41.334978 
L 106.937919 44.461149 
L 107.25518 48.708697 
L 107.57244 55.108066 
L 107.889701 64.184356 
L 108.841483 46.572122 
L 109.476005 41.181365 
L 110.110527 37.996026 
L 110.745048 35.985438 
L 111.37957 34.75312 
L 112.014091 34.111364 
L 112.648613 33.962092 
L 113.283134 34.252891 
L 113.917656 34.957527 
L 114.552177 36.065634 
L 115.186699 37.575561 
L 116.138481 40.591154 
L 117.090263 44.45881 
L 118.359306 50.728597 
L 118.993828 54.536055 
L 119.62835 59.723584 
L 120.580132 70.189308 
L 121.531914 56.059182 
L 122.166436 50.254082 
L 122.800957 46.281045 
L 123.435479 43.444961 
L 124.07 41.439823 
L 124.704522 40.112206 
L 125.339043 39.380935 
L 125.656304 39.224539 
L 125.973565 39.202671 
L 126.290826 39.311966 
L 126.925347 39.903144 
L 127.559869 40.905577 
L 128.511651 42.463743 
L 128.828912 42.656341 
L 129.146173 42.526027 
L 129.463433 42.048552 
L 130.097955 40.313857 
L 131.684259 35.41935 
L 132.31878 34.04253 
L 132.953302 33.065198 
L 133.587823 32.46012 
L 134.222345 32.190054 
L 134.856866 32.210236 
L 135.491388 32.464013 
L 136.760431 33.350494 
L 137.712213 33.924643 
L 138.346735 34.046575 
L 138.981256 33.835648 
L 139.615778 33.186919 
L 140.250299 32.007042 
L 140.884821 30.276875 
L 141.836603 26.91449 
L 144.057429 18.623079 
L 145.326472 14.817776 
L 146.278254 12.54722 
L 147.230036 10.772189 
L 148.181818 9.482002 
L 148.81634 8.888513 
L 149.450862 8.509471 
L 150.085383 8.348993 
L 150.085383 8.348993 
" clip-path="url(#p99595ee479)" style="fill: none; stroke: #000000; stroke-width: 0.75; stroke-linecap: square"/>
   </g>
   <g id="line2d_8">
    <path d="M 35.871507 8.402694 
L 36.506029 8.481022 
L 37.14055 8.781913 
L 37.775072 9.327208 
L 38.409593 10.154289 
L 39.044115 11.313425 
L 39.678636 12.869605 
L 40.313158 14.912501 
L 40.947679 17.580236 
L 41.582201 21.10745 
L 42.216723 25.883126 
L 43.168505 33.787906 
L 43.485766 33.155052 
L 44.754809 24.336877 
L 45.38933 21.764144 
L 46.023852 20.160976 
L 46.658373 19.265433 
L 47.292895 18.947479 
L 47.610156 18.989405 
L 47.927416 19.164594 
L 48.561938 19.92675 
L 49.196459 21.275049 
L 49.830981 23.292545 
L 50.465502 26.168601 
L 51.100024 30.354488 
L 51.734546 36.911261 
L 52.369067 44.729436 
L 52.686328 42.379132 
L 53.320849 34.677343 
L 53.955371 30.028821 
L 54.589892 27.197535 
L 55.224414 25.440231 
L 55.858935 24.432968 
L 56.493457 24.021153 
L 56.810718 24.009533 
L 57.445239 24.33076 
L 58.079761 25.057121 
L 58.714282 26.120519 
L 60.935108 30.574404 
L 61.252368 30.849234 
L 61.569629 30.909976 
L 61.88689 30.75361 
L 62.521412 29.923842 
L 64.107715 27.236508 
L 64.742237 26.599577 
L 65.376758 26.284674 
L 66.01128 26.20341 
L 66.963062 26.307497 
L 67.914845 26.643506 
L 70.13567 27.881472 
L 71.087452 27.838167 
L 72.991017 27.603551 
L 74.577321 27.194699 
L 77.749928 27.322278 
L 79.018971 27.387042 
L 81.557058 27.012474 
L 84.095144 26.39692 
L 85.681448 26.396232 
L 86.63323 26.600229 
L 87.585012 27.122985 
L 88.854055 28.175916 
L 90.123098 29.499428 
L 91.074881 30.788271 
L 93.612967 34.683974 
L 93.930227 34.868864 
L 94.247488 34.904931 
L 94.564749 34.788232 
L 95.19927 34.147397 
L 96.151053 32.559998 
L 97.737357 29.795343 
L 99.0064 28.072675 
L 99.640921 27.461254 
L 100.275443 27.083706 
L 100.909964 26.943004 
L 101.544486 27.001695 
L 102.179007 27.241786 
L 102.813529 27.713813 
L 103.44805 28.506288 
L 104.082572 29.673782 
L 104.717093 31.228546 
L 105.351615 33.232956 
L 105.986137 35.933944 
L 106.620658 39.862269 
L 107.25518 46.076373 
L 107.889701 56.714834 
L 108.206962 58.437294 
L 108.841483 48.463705 
L 109.476005 42.442828 
L 110.110527 38.79608 
L 110.745048 36.536308 
L 111.37957 35.239908 
L 112.014091 34.583202 
L 112.648613 34.333198 
L 113.283134 34.429023 
L 113.917656 34.960927 
L 114.552177 36.031742 
L 115.186699 37.623996 
L 116.455742 41.705964 
L 117.724785 46.483683 
L 118.676567 51.333285 
L 119.311089 55.657551 
L 119.94561 61.877199 
L 120.580132 71.998946 
L 120.897393 70.132966 
L 121.531914 58.844493 
L 122.166436 52.040387 
L 122.800957 47.436473 
L 123.435479 44.112403 
L 124.07 41.737011 
L 124.704522 40.175952 
L 125.339043 39.361448 
L 125.656304 39.214467 
L 125.973565 39.225888 
L 126.608086 39.651806 
L 127.559869 40.900376 
L 128.511651 42.073423 
L 128.828912 42.221092 
L 129.146173 42.120858 
L 129.463433 41.713117 
L 130.097955 40.068182 
L 131.366998 36.134749 
L 132.31878 34.106281 
L 133.270562 32.6828 
L 133.905084 32.126883 
L 134.539606 31.998239 
L 135.174127 32.212429 
L 137.077692 33.265486 
L 138.029474 33.911177 
L 138.346735 33.964919 
L 138.663995 33.882581 
L 139.298517 33.374719 
L 139.933039 32.51265 
L 140.56756 31.114358 
L 141.202082 29.052963 
L 144.374689 17.481596 
L 145.326472 14.739294 
L 146.278254 12.537943 
L 147.230036 10.787337 
L 148.181818 9.487355 
L 148.81634 8.898983 
L 149.450862 8.53958 
L 150.085383 8.401769 
L 150.085383 8.401769 
" clip-path="url(#p99595ee479)" style="fill: none; stroke-dasharray: 2.775,1.2; stroke-dashoffset: 0; stroke: #000000; stroke-width: 0.75"/>
   </g>
   <g id="line2d_9">
    <path d="M 35.871507 12.55805 
L 36.506029 12.263612 
L 37.14055 12.202761 
L 37.775072 12.385609 
L 38.409593 12.829668 
L 39.044115 13.562097 
L 39.678636 14.623922 
L 40.313158 16.077897 
L 40.947679 18.023955 
L 41.582201 20.632303 
L 42.216723 24.223473 
L 42.851244 29.489745 
L 43.803026 41.90156 
L 44.120287 40.056026 
L 44.754809 31.947055 
L 45.38933 27.083472 
L 46.023852 24.14679 
L 46.658373 22.34614 
L 47.292895 21.34164 
L 47.610156 21.085249 
L 47.927416 20.978072 
L 48.244677 21.014865 
L 48.561938 21.19425 
L 49.196459 21.9942 
L 49.830981 23.449469 
L 50.465502 25.73627 
L 51.100024 29.258544 
L 51.734546 35.130756 
L 52.051806 40.064413 
L 52.369067 49.032341 
L 52.686328 64.826419 
L 53.003589 45.229386 
L 53.320849 38.261108 
L 53.955371 31.077115 
L 54.589892 27.06337 
L 55.224414 24.500433 
L 55.858935 22.829366 
L 56.493457 21.803446 
L 57.127979 21.298955 
L 57.7625 21.253642 
L 58.397022 21.643104 
L 59.031543 22.472137 
L 59.666065 23.773853 
L 60.300586 25.613507 
L 60.935108 28.089933 
L 61.88689 33.114693 
L 62.521412 36.375686 
L 62.838672 36.981182 
L 63.155933 36.497233 
L 63.790455 33.633265 
L 64.742237 29.35339 
L 65.376758 27.35223 
L 66.01128 25.948519 
L 66.645802 25.031376 
L 67.280323 24.518678 
L 67.914845 24.351745 
L 68.549366 24.486128 
L 69.183888 24.882928 
L 70.13567 25.873381 
L 72.356495 28.550808 
L 72.991017 28.828186 
L 73.625538 28.733207 
L 74.26006 28.338102 
L 77.115407 26.046044 
L 78.067189 25.746225 
L 79.018971 25.730099 
L 79.970754 25.942057 
L 81.557058 26.578261 
L 83.460622 27.298001 
L 84.729665 27.525412 
L 85.998708 27.519961 
L 87.585012 27.241716 
L 89.171316 26.731394 
L 94.564749 24.699982 
L 95.833792 24.553519 
L 97.102835 24.661654 
L 98.054617 24.934586 
L 99.32366 25.565899 
L 100.592704 26.463424 
L 102.813529 28.109512 
L 103.765311 28.455615 
L 104.399833 28.466768 
L 105.351615 28.171846 
L 108.524223 26.618628 
L 109.158744 26.579463 
L 109.793266 26.706911 
L 110.427787 27.021422 
L 111.062309 27.539846 
L 111.69683 28.273795 
L 112.648613 29.772247 
L 114.552177 33.181795 
L 114.869438 33.470284 
L 115.186699 33.574236 
L 115.50396 33.479678 
L 115.82122 33.198887 
L 116.455742 32.22802 
L 118.359306 28.872445 
L 118.993828 28.172588 
L 119.62835 27.778555 
L 120.262871 27.711717 
L 120.897393 27.994441 
L 121.531914 28.657865 
L 122.166436 29.747239 
L 122.800957 31.324091 
L 123.435479 33.452706 
L 125.021783 39.600241 
L 125.339043 39.732012 
L 125.656304 39.119852 
L 126.290826 36.634088 
L 127.242608 32.855677 
L 127.877129 31.034302 
L 128.511651 29.786703 
L 129.146173 29.062141 
L 129.780694 28.827203 
L 130.097955 28.890003 
L 130.732476 29.384936 
L 131.366998 30.407384 
L 132.001519 32.032942 
L 132.636041 34.376888 
L 133.587823 39.3188 
L 134.222345 42.081713 
L 134.539606 42.066154 
L 134.856866 40.95921 
L 136.44317 33.114985 
L 137.077692 31.184093 
L 137.712213 29.924894 
L 138.346735 29.253617 
L 138.663995 29.12566 
L 138.981256 29.135306 
L 139.298517 29.285706 
L 139.615778 29.583313 
L 140.250299 30.664937 
L 140.884821 32.512498 
L 141.519342 35.286328 
L 142.153864 38.608788 
L 142.471125 39.560379 
L 142.788385 39.091677 
L 143.422907 34.822518 
L 144.374689 28.040051 
L 145.326472 23.11538 
L 146.278254 19.515058 
L 147.230036 16.82748 
L 148.181818 14.83669 
L 149.133601 13.431121 
L 149.768122 12.79145 
L 150.085383 12.55805 
L 150.085383 12.55805 
" clip-path="url(#p99595ee479)" style="fill: none; stroke: #ff0000; stroke-width: 0.75; stroke-linecap: square"/>
   </g>
   <g id="line2d_10">
    <path d="M 35.871507 12.590777 
L 36.506029 12.30327 
L 37.14055 12.233809 
L 37.775072 12.390138 
L 38.409593 12.799738 
L 39.044115 13.503723 
L 39.678636 14.555044 
L 40.313158 16.021957 
L 40.947679 18.001533 
L 41.582201 20.655274 
L 42.216723 24.299449 
L 42.851244 29.655966 
L 43.485766 38.386801 
L 43.803026 42.729428 
L 44.120287 40.457654 
L 44.754809 31.961816 
L 45.38933 27.071172 
L 46.023852 24.132079 
L 46.658373 22.312854 
L 47.292895 21.274872 
L 47.610156 21.002093 
L 47.927416 20.882428 
L 48.244677 20.912395 
L 48.561938 21.090931 
L 49.196459 21.900529 
L 49.830981 23.359542 
L 50.465502 25.621368 
L 51.100024 29.086531 
L 51.734546 34.877427 
L 52.051806 39.748662 
L 52.369067 48.569357 
L 52.686328 67.031848 
L 53.003589 45.365258 
L 53.320849 38.272471 
L 53.955371 31.051381 
L 54.589892 27.042239 
L 55.224414 24.48719 
L 55.858935 22.827014 
L 56.493457 21.816902 
L 57.127979 21.327289 
L 57.7625 21.284914 
L 58.397022 21.656219 
L 59.031543 22.442375 
L 59.666065 23.678259 
L 60.300586 25.438057 
L 60.935108 27.845539 
L 61.569629 31.045238 
L 62.521412 36.421115 
L 62.838672 37.084786 
L 63.155933 36.537785 
L 65.059498 28.278124 
L 65.694019 26.673764 
L 66.328541 25.511182 
L 66.963062 24.710944 
L 67.597584 24.280767 
L 68.232105 24.244207 
L 68.866627 24.568375 
L 69.818409 25.470016 
L 71.404713 27.303113 
L 72.356495 28.388552 
L 72.991017 28.688203 
L 73.625538 28.517039 
L 74.894581 27.652072 
L 77.432668 25.858411 
L 78.38445 25.746072 
L 79.653493 25.868061 
L 80.605275 26.182312 
L 82.191579 26.844107 
L 84.412404 27.369901 
L 85.364187 27.376645 
L 88.854055 26.938695 
L 90.123098 26.435422 
L 92.343924 25.514855 
L 95.19927 24.752421 
L 96.151053 24.670387 
L 97.102835 24.826737 
L 99.32366 25.526476 
L 100.275443 26.126516 
L 102.179007 27.515747 
L 103.44805 28.076051 
L 104.399833 28.263126 
L 105.034354 28.146057 
L 105.986137 27.656897 
L 107.25518 26.97673 
L 108.524223 26.574252 
L 109.158744 26.52885 
L 109.793266 26.661377 
L 110.427787 27.005948 
L 111.062309 27.560657 
L 112.014091 28.769641 
L 112.965873 30.423371 
L 114.234916 32.829127 
L 114.869438 33.581704 
L 115.186699 33.707554 
L 115.50396 33.631846 
L 115.82122 33.356053 
L 116.455742 32.334651 
L 118.042046 29.284887 
L 118.676567 28.47454 
L 119.311089 27.967211 
L 119.94561 27.751001 
L 120.580132 27.840104 
L 121.214653 28.282663 
L 121.849175 29.147364 
L 122.483696 30.505206 
L 123.118218 32.408803 
L 124.07 36.191028 
L 124.704522 38.678632 
L 125.021783 39.419979 
L 125.339043 39.53669 
L 125.656304 38.990252 
L 126.290826 36.662837 
L 127.242608 32.889277 
L 127.877129 31.03581 
L 128.511651 29.79883 
L 129.146173 29.112307 
L 129.780694 28.897023 
L 130.097955 28.954145 
L 130.732476 29.420764 
L 131.366998 30.440901 
L 132.001519 32.128794 
L 132.636041 34.548102 
L 134.222345 42.073308 
L 134.539606 42.304675 
L 134.856866 41.429518 
L 136.44317 33.351468 
L 137.077692 31.457563 
L 137.712213 30.268131 
L 138.346735 29.581898 
L 138.663995 29.414338 
L 138.981256 29.379891 
L 139.298517 29.497919 
L 139.615778 29.787548 
L 140.250299 30.93653 
L 140.884821 32.875859 
L 141.836603 37.04956 
L 142.153864 38.440405 
L 142.471125 39.258845 
L 142.788385 38.911986 
L 143.105646 37.300067 
L 144.69195 26.27003 
L 145.643732 21.89242 
L 146.595515 18.677305 
L 147.547297 16.187646 
L 148.499079 14.332668 
L 149.450862 13.098214 
L 150.085383 12.586198 
L 150.085383 12.586198 
" clip-path="url(#p99595ee479)" style="fill: none; stroke-dasharray: 2.775,1.2; stroke-dashoffset: 0; stroke: #ff0000; stroke-width: 0.75"/>
   </g>
   <g id="patch_3">
    <path d="M 30.160813 75.181443 
L 30.160813 5.166495 
" style="fill: none; stroke: #000000; stroke-width: 0.8; stroke-linejoin: miter; stroke-linecap: square"/>
   </g>
   <g id="patch_4">
    <path d="M 155.796077 75.181443 
L 155.796077 5.166495 
" style="fill: none; stroke: #000000; stroke-width: 0.8; stroke-linejoin: miter; stroke-linecap: square"/>
   </g>
   <g id="patch_5">
    <path d="M 30.160813 75.181443 
L 155.796077 75.181443 
" style="fill: none; stroke: #000000; stroke-width: 0.8; stroke-linejoin: miter; stroke-linecap: square"/>
   </g>
   <g id="patch_6">
    <path d="M 30.160813 5.166495 
L 155.796077 5.166495 
" style="fill: none; stroke: #000000; stroke-width: 0.8; stroke-linejoin: miter; stroke-linecap: square"/>
   </g>
  </g>
 </g>
 <defs>
  <clipPath id="p99595ee479">
   <rect x="30.160813" y="5.166495" width="125.635263" height="70.014948"/>
  </clipPath>
 </defs>
</svg>
