<?xml version="1.0" encoding="utf-8" standalone="no"?>
<!DOCTYPE svg PUBLIC "-//W3C//DTD SVG 1.1//EN"
  "http://www.w3.org/Graphics/SVG/1.1/DTD/svg11.dtd">
<svg xmlns:xlink="http://www.w3.org/1999/xlink" width="241.2pt" height="133.2pt" viewBox="0 0 241.2 133.2" xmlns="http://www.w3.org/2000/svg" version="1.1">
 <metadata>
  <rdf:RDF xmlns:dc="http://purl.org/dc/elements/1.1/" xmlns:cc="http://creativecommons.org/ns#" xmlns:rdf="http://www.w3.org/1999/02/22-rdf-syntax-ns#">
   <cc:Work>
    <dc:type rdf:resource="http://purl.org/dc/dcmitype/StillImage"/>
    <dc:date>2025-01-22T11:33:33.971411</dc:date>
    <dc:format>image/svg+xml</dc:format>
    <dc:creator>
     <cc:Agent>
      <dc:title>Matplotlib v3.6.3, https://matplotlib.org/</dc:title>
     </cc:Agent>
    </dc:creator>
   </cc:Work>
  </rdf:RDF>
 </metadata>
 <defs>
  <style type="text/css">*{stroke-linejoin: round; stroke-linecap: butt}</style>
 </defs>
 <g id="figure_1">
  <g id="patch_1">
   <path d="M 0 133.2 
L 241.2 133.2 
L 241.2 0 
L 0 0 
z
" style="fill: #ffffff"/>
  </g>
  <g id="axes_1">
   <g id="patch_2">
    <path d="M 44.123453 100.381443 
L 238.19976 100.381443 
L 238.19976 3.00024 
L 44.123453 3.00024 
z
" style="fill: #ffffff"/>
   </g>
   <g id="matplotlib.axis_1">
    <g id="xtick_1">
     <g id="line2d_1">
      <defs>
       <path id="m6213ad4e8b" d="M 0 0 
L 0 3.5 
" style="stroke: #000000; stroke-width: 0.8"/>
      </defs>
      <g>
       <use xlink:href="#m6213ad4e8b" x="52.945104" y="100.381443" style="stroke: #000000; stroke-width: 0.8"/>
      </g>
     </g>
     <g id="text_1">
      <!-- $\mathdefault{0}$ -->
      <g transform="translate(50.454436 114.299942) scale(0.1 -0.1)">
       <defs>
        <path id="CMR17-30" d="M 2688 2038 
C 2688 2430 2682 3099 2413 3613 
C 2176 4063 1798 4224 1466 4224 
C 1158 4224 768 4082 525 3620 
C 269 3137 243 2539 243 2038 
C 243 1671 250 1112 448 623 
C 723 -39 1216 -128 1466 -128 
C 1760 -128 2208 -7 2470 604 
C 2662 1048 2688 1568 2688 2038 
z
M 1466 -26 
C 1056 -26 813 328 723 816 
C 653 1196 653 1749 653 2109 
C 653 2604 653 3015 736 3407 
C 858 3954 1216 4121 1466 4121 
C 1728 4121 2067 3947 2189 3420 
C 2272 3054 2278 2623 2278 2109 
C 2278 1691 2278 1176 2202 797 
C 2067 96 1690 -26 1466 -26 
z
" transform="scale(0.015625)"/>
       </defs>
       <use xlink:href="#CMR17-30" transform="scale(0.996264)"/>
      </g>
     </g>
    </g>
    <g id="xtick_2">
     <g id="line2d_2">
      <g>
       <use xlink:href="#m6213ad4e8b" x="82.350605" y="100.381443" style="stroke: #000000; stroke-width: 0.8"/>
      </g>
     </g>
     <g id="text_2">
      <!-- $\mathdefault{60}$ -->
      <g transform="translate(77.36927 114.299942) scale(0.1 -0.1)">
       <defs>
        <path id="CMR17-36" d="M 678 2198 
C 678 3712 1395 4076 1811 4076 
C 1946 4076 2272 4049 2400 3782 
C 2298 3782 2106 3782 2106 3558 
C 2106 3385 2246 3328 2336 3328 
C 2394 3328 2566 3353 2566 3571 
C 2566 3987 2246 4224 1805 4224 
C 1043 4224 243 3411 243 2011 
C 243 257 966 -128 1478 -128 
C 2099 -128 2688 431 2688 1295 
C 2688 2101 2170 2688 1517 2688 
C 1126 2688 838 2430 678 1979 
L 678 2198 
z
M 1478 25 
C 691 25 691 1212 691 1450 
C 691 1914 909 2585 1504 2585 
C 1613 2585 1926 2585 2138 2140 
C 2253 1889 2253 1624 2253 1302 
C 2253 954 2253 696 2118 438 
C 1978 173 1773 25 1478 25 
z
" transform="scale(0.015625)"/>
       </defs>
       <use xlink:href="#CMR17-36" transform="scale(0.996264)"/>
       <use xlink:href="#CMR17-30" transform="translate(45.690477 0) scale(0.996264)"/>
      </g>
     </g>
    </g>
    <g id="xtick_3">
     <g id="line2d_3">
      <g>
       <use xlink:href="#m6213ad4e8b" x="111.756106" y="100.381443" style="stroke: #000000; stroke-width: 0.8"/>
      </g>
     </g>
     <g id="text_3">
      <!-- $\mathdefault{120}$ -->
      <g transform="translate(104.284103 114.299942) scale(0.1 -0.1)">
       <defs>
        <path id="CMR17-31" d="M 1702 4083 
C 1702 4217 1696 4224 1606 4224 
C 1357 3927 979 3833 621 3820 
C 602 3820 570 3820 563 3808 
C 557 3795 557 3782 557 3648 
C 755 3648 1088 3686 1344 3839 
L 1344 467 
C 1344 243 1331 166 781 166 
L 589 166 
L 589 0 
C 896 6 1216 12 1523 12 
C 1830 12 2150 6 2458 0 
L 2458 166 
L 2266 166 
C 1715 166 1702 236 1702 467 
L 1702 4083 
z
" transform="scale(0.015625)"/>
        <path id="CMR17-32" d="M 2669 990 
L 2554 990 
C 2490 537 2438 460 2413 422 
C 2381 371 1920 371 1830 371 
L 602 371 
C 832 620 1280 1073 1824 1596 
C 2214 1966 2669 2400 2669 3033 
C 2669 3788 2067 4224 1395 4224 
C 691 4224 262 3603 262 3027 
C 262 2777 448 2745 525 2745 
C 589 2745 781 2783 781 3007 
C 781 3206 614 3264 525 3264 
C 486 3264 448 3257 422 3244 
C 544 3788 915 4057 1306 4057 
C 1862 4057 2227 3616 2227 3033 
C 2227 2477 1901 1998 1536 1583 
L 262 147 
L 262 0 
L 2515 0 
L 2669 990 
z
" transform="scale(0.015625)"/>
       </defs>
       <use xlink:href="#CMR17-31" transform="scale(0.996264)"/>
       <use xlink:href="#CMR17-32" transform="translate(45.690477 0) scale(0.996264)"/>
       <use xlink:href="#CMR17-30" transform="translate(91.380954 0) scale(0.996264)"/>
      </g>
     </g>
    </g>
    <g id="xtick_4">
     <g id="line2d_4">
      <g>
       <use xlink:href="#m6213ad4e8b" x="141.161607" y="100.381443" style="stroke: #000000; stroke-width: 0.8"/>
      </g>
     </g>
     <g id="text_4">
      <!-- $\mathdefault{180}$ -->
      <g transform="translate(133.689604 114.299942) scale(0.1 -0.1)">
       <defs>
        <path id="CMR17-38" d="M 1741 2289 
C 2144 2494 2554 2803 2554 3298 
C 2554 3884 1990 4224 1472 4224 
C 890 4224 378 3800 378 3215 
C 378 3054 416 2777 666 2533 
C 730 2469 998 2276 1171 2154 
C 883 2006 211 1652 211 945 
C 211 282 838 -128 1459 -128 
C 2144 -128 2720 366 2720 1022 
C 2720 1607 2330 1877 2074 2051 
L 1741 2289 
z
M 902 2855 
C 851 2887 595 3086 595 3388 
C 595 3781 998 4076 1459 4076 
C 1965 4076 2336 3716 2336 3298 
C 2336 2700 1670 2359 1638 2359 
C 1632 2359 1626 2359 1574 2398 
L 902 2855 
z
M 2080 1536 
C 2176 1466 2483 1253 2483 861 
C 2483 385 2010 25 1472 25 
C 890 25 448 443 448 951 
C 448 1459 838 1884 1280 2083 
L 2080 1536 
z
" transform="scale(0.015625)"/>
       </defs>
       <use xlink:href="#CMR17-31" transform="scale(0.996264)"/>
       <use xlink:href="#CMR17-38" transform="translate(45.690477 0) scale(0.996264)"/>
       <use xlink:href="#CMR17-30" transform="translate(91.380954 0) scale(0.996264)"/>
      </g>
     </g>
    </g>
    <g id="xtick_5">
     <g id="line2d_5">
      <g>
       <use xlink:href="#m6213ad4e8b" x="170.567108" y="100.381443" style="stroke: #000000; stroke-width: 0.8"/>
      </g>
     </g>
     <g id="text_5">
      <!-- $\mathdefault{240}$ -->
      <g transform="translate(163.095105 114.299942) scale(0.1 -0.1)">
       <defs>
        <path id="CMR17-34" d="M 2150 4147 
C 2150 4281 2144 4288 2029 4288 
L 128 1254 
L 128 1088 
L 1779 1088 
L 1779 460 
C 1779 230 1766 166 1318 166 
L 1197 166 
L 1197 0 
C 1402 12 1747 12 1965 12 
C 2182 12 2528 12 2733 0 
L 2733 166 
L 2611 166 
C 2163 166 2150 230 2150 460 
L 2150 1088 
L 2803 1088 
L 2803 1254 
L 2150 1254 
L 2150 4147 
z
M 1798 3723 
L 1798 1254 
L 256 1254 
L 1798 3723 
z
" transform="scale(0.015625)"/>
       </defs>
       <use xlink:href="#CMR17-32" transform="scale(0.996264)"/>
       <use xlink:href="#CMR17-34" transform="translate(45.690477 0) scale(0.996264)"/>
       <use xlink:href="#CMR17-30" transform="translate(91.380954 0) scale(0.996264)"/>
      </g>
     </g>
    </g>
    <g id="xtick_6">
     <g id="line2d_6">
      <g>
       <use xlink:href="#m6213ad4e8b" x="199.972609" y="100.381443" style="stroke: #000000; stroke-width: 0.8"/>
      </g>
     </g>
     <g id="text_6">
      <!-- $\mathdefault{300}$ -->
      <g transform="translate(192.500606 114.299942) scale(0.1 -0.1)">
       <defs>
        <path id="CMR17-33" d="M 1414 2176 
C 1984 2176 2234 1673 2234 1094 
C 2234 322 1824 25 1453 25 
C 1114 25 563 193 390 691 
C 422 678 454 678 486 678 
C 640 678 755 780 755 947 
C 755 1132 614 1216 486 1216 
C 378 1216 211 1164 211 927 
C 211 335 787 -128 1466 -128 
C 2176 -128 2720 432 2720 1087 
C 2720 1718 2208 2176 1600 2246 
C 2086 2347 2554 2776 2554 3353 
C 2554 3856 2048 4224 1472 4224 
C 890 4224 378 3862 378 3347 
C 378 3123 544 3084 627 3084 
C 762 3084 877 3167 877 3334 
C 877 3500 762 3584 627 3584 
C 602 3584 570 3584 544 3571 
C 730 3999 1235 4076 1459 4076 
C 1683 4076 2106 3966 2106 3347 
C 2106 3167 2080 2851 1862 2574 
C 1670 2329 1453 2316 1242 2297 
C 1210 2297 1062 2284 1037 2284 
C 992 2278 966 2272 966 2227 
C 966 2182 973 2176 1101 2176 
L 1414 2176 
z
" transform="scale(0.015625)"/>
       </defs>
       <use xlink:href="#CMR17-33" transform="scale(0.996264)"/>
       <use xlink:href="#CMR17-30" transform="translate(45.690477 0) scale(0.996264)"/>
       <use xlink:href="#CMR17-30" transform="translate(91.380954 0) scale(0.996264)"/>
      </g>
     </g>
    </g>
    <g id="xtick_7">
     <g id="line2d_7">
      <g>
       <use xlink:href="#m6213ad4e8b" x="229.37811" y="100.381443" style="stroke: #000000; stroke-width: 0.8"/>
      </g>
     </g>
     <g id="text_7">
      <!-- $\mathdefault{360}$ -->
      <g transform="translate(221.906107 114.299942) scale(0.1 -0.1)">
       <use xlink:href="#CMR17-33" transform="scale(0.996264)"/>
       <use xlink:href="#CMR17-36" transform="translate(45.690477 0) scale(0.996264)"/>
       <use xlink:href="#CMR17-30" transform="translate(91.380954 0) scale(0.996264)"/>
      </g>
     </g>
    </g>
    <g id="text_8">
     <!-- $\phi (^o)$ -->
     <g transform="translate(132.103891 127.7091) scale(0.1 -0.1)">
      <defs>
       <path id="CMMI12-1e" d="M 2752 4358 
C 2752 4416 2707 4416 2688 4416 
C 2630 4416 2624 4403 2598 4294 
L 2253 2924 
C 2234 2841 2227 2835 2221 2828 
C 2214 2816 2170 2809 2157 2809 
C 1107 2720 301 1863 301 1071 
C 301 387 832 -32 1498 -71 
C 1446 -266 1402 -467 1350 -662 
C 1261 -995 1210 -1204 1210 -1229 
C 1210 -1242 1210 -1280 1274 -1280 
C 1293 -1280 1318 -1280 1331 -1255 
C 1344 -1242 1382 -1089 1408 -1008 
L 1645 -71 
C 2739 -13 3571 875 3571 1673 
C 3571 2313 3085 2771 2374 2816 
L 2752 4358 
z
M 2336 2688 
C 2758 2662 3181 2428 3181 1806 
C 3181 1090 2675 140 1677 64 
L 2336 2688 
z
M 1530 57 
C 1216 76 691 241 691 938 
C 691 1737 1274 2624 2195 2681 
L 1530 57 
z
" transform="scale(0.015625)"/>
       <path id="CMR17-28" d="M 1958 -1562 
C 1958 -1556 1958 -1543 1939 -1524 
C 1645 -1223 858 -403 858 1596 
C 858 3595 1632 4408 1946 4729 
C 1946 4735 1958 4748 1958 4767 
C 1958 4787 1939 4800 1914 4800 
C 1843 4800 1299 4325 986 3620 
C 666 2909 576 2218 576 1603 
C 576 1141 621 360 1005 -467 
C 1312 -1133 1837 -1600 1914 -1600 
C 1946 -1600 1958 -1588 1958 -1562 
z
" transform="scale(0.015625)"/>
       <path id="CMMI12-6f" d="M 2918 1755 
C 2918 2362 2522 2816 1939 2816 
C 1094 2816 262 1896 262 996 
C 262 389 659 -64 1242 -64 
C 2093 -64 2918 855 2918 1755 
z
M 1248 64 
C 928 64 691 319 691 766 
C 691 1060 845 1711 1024 2030 
C 1312 2522 1670 2687 1933 2687 
C 2246 2687 2490 2432 2490 1985 
C 2490 1730 2355 1047 2112 657 
C 1850 230 1498 64 1248 64 
z
" transform="scale(0.015625)"/>
       <path id="CMR17-29" d="M 1683 1596 
C 1683 2057 1638 2839 1254 3665 
C 947 4332 422 4800 346 4800 
C 326 4800 301 4793 301 4761 
C 301 4748 307 4742 314 4729 
C 621 4408 1402 3595 1402 1603 
C 1402 -396 627 -1210 314 -1530 
C 307 -1543 301 -1549 301 -1562 
C 301 -1594 326 -1600 346 -1600 
C 416 -1600 960 -1127 1274 -422 
C 1594 289 1683 981 1683 1596 
z
" transform="scale(0.015625)"/>
      </defs>
      <use xlink:href="#CMMI12-1e" transform="scale(0.996264)"/>
      <use xlink:href="#CMR17-28" transform="translate(57.73418 0) scale(0.996264)"/>
      <use xlink:href="#CMMI12-6f" transform="translate(93.014948 36.153639) scale(0.697382)"/>
      <use xlink:href="#CMR17-29" transform="translate(126.339642 0) scale(0.996264)"/>
     </g>
    </g>
   </g>
   <g id="matplotlib.axis_2">
    <g id="ytick_1">
     <g id="line2d_8">
      <defs>
       <path id="m100769b59f" d="M 0 0 
L -3.5 0 
" style="stroke: #000000; stroke-width: 0.8"/>
      </defs>
      <g>
       <use xlink:href="#m100769b59f" x="44.123453" y="66.400181" style="stroke: #000000; stroke-width: 0.8"/>
      </g>
     </g>
     <g id="text_9">
      <!-- $\mathdefault{10^{-1}}$ -->
      <g transform="translate(16.96288 69.85943) scale(0.1 -0.1)">
       <defs>
        <path id="CMSY10-0" d="M 4218 1472 
C 4326 1472 4442 1472 4442 1600 
C 4442 1728 4326 1728 4218 1728 
L 755 1728 
C 646 1728 531 1728 531 1600 
C 531 1472 646 1472 755 1472 
L 4218 1472 
z
" transform="scale(0.015625)"/>
       </defs>
       <use xlink:href="#CMR17-31" transform="scale(0.996264)"/>
       <use xlink:href="#CMR17-30" transform="translate(45.690477 0) scale(0.996264)"/>
       <use xlink:href="#CMSY10-0" transform="translate(91.380954 36.153639) scale(0.697382)"/>
       <use xlink:href="#CMR17-31" transform="translate(145.621947 36.153639) scale(0.697382)"/>
      </g>
     </g>
    </g>
    <g id="ytick_2">
     <g id="line2d_9">
      <g>
       <use xlink:href="#m100769b59f" x="44.123453" y="19.889036" style="stroke: #000000; stroke-width: 0.8"/>
      </g>
     </g>
     <g id="text_10">
      <!-- $\mathdefault{10^{1}}$ -->
      <g transform="translate(23.189545 23.348286) scale(0.1 -0.1)">
       <use xlink:href="#CMR17-31" transform="scale(0.996264)"/>
       <use xlink:href="#CMR17-30" transform="translate(45.690477 0) scale(0.996264)"/>
       <use xlink:href="#CMR17-31" transform="translate(91.380954 36.153639) scale(0.697382)"/>
      </g>
     </g>
    </g>
    <g id="text_11">
     <!-- $\sigma / \lambda$ -->
     <g transform="translate(10.47222 60.112401) rotate(-90) scale(0.1 -0.1)">
      <defs>
       <path id="CMMI12-1b" d="M 3251 2406 
C 3334 2406 3546 2406 3546 2611 
C 3546 2752 3424 2752 3309 2752 
L 1894 2752 
C 934 2752 243 1685 243 932 
C 243 389 595 -64 1171 -64 
C 1926 -64 2752 746 2752 1704 
C 2752 1953 2694 2195 2541 2406 
L 3251 2406 
z
M 1178 64 
C 851 64 614 312 614 753 
C 614 1136 845 2406 1786 2406 
C 2061 2406 2368 2272 2368 1780 
C 2368 1557 2266 1021 2042 651 
C 1811 274 1466 64 1178 64 
z
" transform="scale(0.015625)"/>
       <path id="CMMI12-3d" d="M 2746 4563 
C 2746 4569 2784 4665 2784 4678 
C 2784 4755 2720 4800 2669 4800 
C 2637 4800 2579 4800 2528 4659 
L 384 -1364 
C 384 -1370 346 -1466 346 -1479 
C 346 -1556 410 -1600 461 -1600 
C 499 -1600 557 -1594 602 -1460 
L 2746 4563 
z
" transform="scale(0.015625)"/>
       <path id="CMMI12-15" d="M 1978 3963 
C 1818 4416 1312 4416 1229 4416 
C 1190 4416 1120 4416 1120 4351 
C 1120 4300 1158 4294 1190 4287 
C 1286 4275 1363 4262 1466 4078 
C 1530 3957 2189 2055 2189 2042 
C 2189 2036 2182 2029 2131 1978 
L 467 305 
C 390 229 339 178 339 95 
C 339 6 416 -71 518 -71 
C 544 -71 614 -58 653 -20 
C 755 76 1670 1190 2253 1877 
C 2419 1380 2624 795 2822 261 
C 2854 165 2886 76 2976 -7 
C 3040 -64 3053 -64 3232 -64 
L 3354 -64 
C 3379 -64 3424 -64 3424 -13 
C 3424 12 3418 19 3392 44 
C 3334 114 3290 229 3264 305 
L 1978 3963 
z
" transform="scale(0.015625)"/>
      </defs>
      <use xlink:href="#CMMI12-1b" transform="scale(0.996264)"/>
      <use xlink:href="#CMMI12-3d" transform="translate(59.020054 0) scale(0.996264)"/>
      <use xlink:href="#CMMI12-15" transform="translate(107.794972 0) scale(0.996264)"/>
     </g>
    </g>
   </g>
   <g id="line2d_10">
    <path d="M 52.945104 7.695178 
L 53.435195 7.767 
L 53.925287 7.982976 
L 54.415379 8.344638 
L 55.395562 9.51655 
L 56.375746 11.317665 
L 57.355929 13.804371 
L 58.336112 17.057951 
L 59.316296 21.181636 
L 60.296479 26.260232 
L 62.256846 37.698794 
L 62.746937 39.438879 
L 63.237029 39.992526 
L 63.727121 39.41843 
L 64.707304 36.541703 
L 65.687488 33.552124 
L 66.667671 31.362839 
L 67.647854 30.01181 
L 68.628038 29.330065 
L 69.608221 29.112374 
L 71.078496 29.227773 
L 74.019046 29.748893 
L 74.99923 30.140621 
L 75.979413 30.883622 
L 76.959596 32.163574 
L 77.93978 34.190029 
L 78.919963 37.238149 
L 79.900146 41.753488 
L 80.390238 44.809577 
L 80.88033 48.645942 
L 81.370421 53.622749 
L 81.860513 60.459964 
L 82.350605 70.898055 
L 82.840696 88.923368 
L 83.330788 81.747615 
L 83.82088 66.762628 
L 84.310972 57.945058 
L 84.801063 51.917903 
L 85.781247 43.923345 
L 86.76143 38.800208 
L 87.741613 35.327398 
L 88.721797 32.970632 
L 89.70198 31.450865 
L 90.682163 30.610304 
L 91.172255 30.415423 
L 91.662347 30.361902 
L 92.152438 30.446657 
L 92.64253 30.669325 
L 93.132622 31.032281 
L 94.112805 32.203098 
L 95.092989 34.040482 
L 96.073172 36.690644 
L 97.053355 40.38734 
L 98.033539 45.452629 
L 99.993905 57.223369 
L 100.483997 56.839315 
L 100.974089 54.194516 
L 102.444364 43.524595 
L 103.424547 38.042454 
L 104.404731 33.992444 
L 105.384914 31.076595 
L 106.365097 29.080406 
L 107.345281 27.861376 
L 107.835372 27.511104 
L 108.325464 27.319594 
L 108.815556 27.276998 
L 109.305647 27.373163 
L 110.285831 27.934738 
L 111.266014 28.883892 
L 113.226381 31.11834 
L 114.206564 31.818556 
L 114.696656 31.946517 
L 115.186748 31.911019 
L 115.676839 31.72236 
L 116.657023 30.997792 
L 118.617389 29.190471 
L 119.597573 28.581753 
L 120.577756 28.342916 
L 121.557939 28.522077 
L 122.538123 29.127872 
L 123.518306 30.139847 
L 124.49849 31.509554 
L 125.968765 34.043483 
L 127.929131 37.532505 
L 128.909315 38.862603 
L 129.399406 39.330972 
L 129.889498 39.641695 
L 130.37959 39.783013 
L 130.869681 39.750753 
L 131.359773 39.548303 
L 131.849865 39.185899 
L 132.830048 38.049081 
L 133.810231 36.509692 
L 137.240873 30.57192 
L 138.221057 29.28543 
L 139.20124 28.330458 
L 140.181423 27.744333 
L 141.161607 27.546897 
L 142.14179 27.744333 
L 143.121973 28.330458 
L 144.102157 29.28543 
L 145.08234 30.57192 
L 146.552615 32.98157 
L 149.003074 37.317734 
L 149.983257 38.679443 
L 150.96344 39.548303 
L 151.453532 39.750753 
L 151.943624 39.783013 
L 152.433715 39.641695 
L 152.923807 39.330972 
L 153.903991 38.255156 
L 154.884174 36.721877 
L 158.314816 30.784229 
L 159.294999 29.585418 
L 160.275182 28.772294 
L 161.255366 28.378955 
L 162.235549 28.411971 
L 163.215732 28.844934 
L 164.195916 29.602714 
L 166.156283 31.406118 
L 167.136466 31.911019 
L 167.626558 31.946517 
L 168.116649 31.818556 
L 168.606741 31.534591 
L 169.586924 30.604996 
L 171.547291 28.370567 
L 172.527474 27.596834 
L 173.017566 27.373163 
L 173.507658 27.276998 
L 173.99775 27.319594 
L 174.487841 27.511104 
L 174.977933 27.861376 
L 175.468025 28.380681 
L 176.448208 29.973768 
L 177.428391 32.40821 
L 178.408575 35.858665 
L 179.388758 40.584613 
L 180.368941 46.876711 
L 181.349125 54.194516 
L 181.839216 56.839315 
L 182.329308 57.223369 
L 182.8194 55.202468 
L 184.779767 42.728117 
L 185.75995 38.389535 
L 186.740133 35.251704 
L 187.720317 33.031084 
L 188.7005 31.540761 
L 189.680683 30.669325 
L 190.170775 30.446657 
L 190.660867 30.361902 
L 191.150958 30.415423 
L 191.64105 30.610304 
L 192.131142 30.952457 
L 192.621233 31.450865 
L 193.601417 32.970632 
L 194.5816 35.327398 
L 195.561784 38.800208 
L 196.541967 43.923345 
L 197.032059 47.42987 
L 197.52215 51.917903 
L 198.012242 57.945058 
L 198.502334 66.762628 
L 198.992425 81.747615 
L 199.482517 88.923368 
L 199.972609 70.898055 
L 200.4627 60.459964 
L 200.952792 53.622749 
L 201.442884 48.645942 
L 202.423067 41.753488 
L 203.40325 37.238149 
L 204.383434 34.190029 
L 205.363617 32.163574 
L 206.343801 30.883622 
L 207.323984 30.140621 
L 208.304167 29.748893 
L 210.264534 29.384429 
L 212.224901 29.114177 
L 213.205084 29.17613 
L 214.185268 29.599927 
L 214.675359 30.01181 
L 215.165451 30.591404 
L 215.655543 31.362839 
L 216.635726 33.552124 
L 218.596093 39.41843 
L 219.086184 39.992526 
L 219.576276 39.438879 
L 220.066368 37.698794 
L 221.046551 32.149089 
L 222.516826 23.60031 
L 223.49701 19.004256 
L 224.477193 15.329217 
L 225.457376 12.470851 
L 226.43756 10.335481 
L 227.417743 8.854586 
L 228.397926 7.982976 
L 228.888018 7.767 
L 229.37811 7.695178 
L 229.37811 7.695178 
" clip-path="url(#p872edf31e3)" style="fill: none; stroke: #000000; stroke-width: 0.75; stroke-linecap: square"/>
   </g>
   <g id="line2d_11">
    <path d="M 52.945104 7.426695 
L 53.435195 7.499963 
L 53.925287 7.716526 
L 54.415379 8.078689 
L 55.395562 9.256622 
L 56.375746 11.081217 
L 57.355929 13.621891 
L 58.336112 16.971667 
L 59.316296 21.244451 
L 60.296479 26.532121 
L 62.256846 38.293026 
L 62.746937 39.887424 
L 63.237029 40.182038 
L 63.727121 39.341334 
L 66.177579 31.939325 
L 67.157763 30.288947 
L 67.647854 29.781458 
L 68.137946 29.448618 
L 69.118129 29.179736 
L 70.098313 29.232651 
L 74.019046 29.977893 
L 74.99923 30.306274 
L 75.979413 30.9474 
L 76.469505 31.458152 
L 76.959596 32.137369 
L 77.449688 33.016897 
L 78.429871 35.512975 
L 79.410055 39.281559 
L 79.900146 41.810017 
L 80.390238 44.92521 
L 80.88033 48.840034 
L 81.370421 53.939328 
L 81.860513 61.024577 
L 82.350605 72.229316 
L 82.840696 95.955025 
L 83.330788 82.823694 
L 83.82088 66.595988 
L 84.310972 57.692796 
L 84.801063 51.678142 
L 85.781247 43.743925 
L 86.76143 38.674453 
L 87.741613 35.228899 
L 88.721797 32.866635 
L 89.70198 31.31375 
L 90.682163 30.42446 
L 91.172255 30.203702 
L 91.662347 30.125569 
L 92.152438 30.188554 
L 92.64253 30.393671 
L 93.132622 30.744337 
L 93.622713 31.246339 
L 94.602897 32.740132 
L 95.58308 34.978604 
L 96.563264 38.140891 
L 97.543447 42.537845 
L 98.52363 48.626845 
L 99.503814 56.09964 
L 99.993905 58.614037 
L 100.483997 58.132324 
L 100.974089 54.830532 
L 102.444364 42.779789 
L 103.424547 37.07591 
L 104.404731 33.009896 
L 105.384914 30.12977 
L 106.365097 28.152029 
L 107.345281 26.939999 
L 107.835372 26.604085 
L 108.325464 26.442735 
L 108.815556 26.449625 
L 109.305647 26.614489 
L 110.285831 27.353788 
L 111.266014 28.493434 
L 113.226381 31.085469 
L 114.206564 31.920297 
L 114.696656 32.063641 
L 115.186748 31.994887 
L 115.676839 31.728918 
L 116.657023 30.78934 
L 118.617389 28.716647 
L 119.597573 28.065543 
L 120.577756 27.811383 
L 121.067848 27.855423 
L 121.557939 28.021945 
L 122.538123 28.727247 
L 123.518306 29.89925 
L 124.49849 31.467586 
L 125.968765 34.37382 
L 128.419223 39.417897 
L 129.399406 40.733503 
L 129.889498 41.112317 
L 130.37959 41.287919 
L 130.869681 41.259976 
L 131.359773 41.035609 
L 131.849865 40.627449 
L 132.830048 39.33203 
L 133.810231 37.554182 
L 137.240873 30.611974 
L 138.221057 29.132033 
L 139.20124 28.059064 
L 140.181423 27.42652 
L 141.161607 27.237965 
L 142.14179 27.477716 
L 143.121973 28.124889 
L 144.102157 29.166036 
L 145.08234 30.594394 
L 146.062524 32.384251 
L 149.493165 39.385749 
L 150.473349 40.652527 
L 150.96344 41.057414 
L 151.453532 41.293857 
L 151.943624 41.347563 
L 152.433715 41.203561 
L 152.923807 40.851251 
L 153.413899 40.291079 
L 154.394082 38.629845 
L 158.314816 30.644315 
L 159.294999 29.278485 
L 160.275182 28.315952 
L 161.255366 27.833384 
L 161.745457 27.784115 
L 162.235549 27.859337 
L 163.215732 28.345993 
L 164.195916 29.194265 
L 166.646374 31.724317 
L 167.136466 31.976531 
L 167.626558 32.038854 
L 168.116649 31.898244 
L 168.606741 31.56924 
L 169.586924 30.496779 
L 172.037383 27.334834 
L 173.017566 26.578599 
L 173.507658 26.412261 
L 173.99775 26.408004 
L 174.487841 26.574631 
L 174.977933 26.916772 
L 175.468025 27.43707 
L 176.448208 29.029346 
L 177.428391 31.436522 
L 178.408575 34.867985 
L 179.388758 39.691897 
L 180.368941 46.400332 
L 181.839216 58.083287 
L 182.329308 58.585119 
L 182.8194 56.105555 
L 184.289675 45.368276 
L 185.269858 40.172974 
L 186.250042 36.437431 
L 187.230225 33.763281 
L 188.210408 31.90745 
L 189.190592 30.734338 
L 189.680683 30.380414 
L 190.170775 30.174892 
L 190.660867 30.115214 
L 191.150958 30.200263 
L 191.64105 30.430245 
L 192.131142 30.806957 
L 193.111325 32.020549 
L 194.091509 33.926684 
L 195.071692 36.730162 
L 196.051875 40.848425 
L 196.541967 43.63489 
L 197.032059 47.126969 
L 197.52215 51.626613 
L 198.012242 57.709389 
L 198.502334 66.722094 
L 198.992425 83.182435 
L 199.482517 95.44075 
L 199.972609 72.088775 
L 200.4627 60.994842 
L 200.952792 53.942256 
L 201.442884 48.838863 
L 202.423067 41.752986 
L 203.40325 37.109003 
L 204.383434 34.041378 
L 205.363617 32.096289 
L 206.343801 30.926763 
L 207.323984 30.256589 
L 208.304167 29.900976 
L 210.264534 29.599506 
L 213.205084 29.117714 
L 213.695176 29.217368 
L 214.185268 29.435504 
L 214.675359 29.792835 
L 215.165451 30.310742 
L 215.655543 31.013402 
L 216.145634 31.927514 
L 217.125818 34.473632 
L 218.596093 39.319163 
L 219.086184 40.181588 
L 219.576276 39.867791 
L 220.066368 38.227369 
L 221.046551 32.569739 
L 222.516826 23.767169 
L 223.49701 19.026176 
L 224.477193 15.221999 
L 225.457376 12.266688 
L 226.43756 10.077049 
L 227.417743 8.578488 
L 228.397926 7.708906 
L 228.888018 7.495979 
L 229.37811 7.426658 
L 229.37811 7.426658 
" clip-path="url(#p872edf31e3)" style="fill: none; stroke-dasharray: 2.775,1.2; stroke-dashoffset: 0; stroke: #ff0000; stroke-width: 0.75"/>
   </g>
   <g id="patch_3">
    <path d="M 44.123453 100.381443 
L 44.123453 3.00024 
" style="fill: none; stroke: #000000; stroke-width: 0.8; stroke-linejoin: miter; stroke-linecap: square"/>
   </g>
   <g id="patch_4">
    <path d="M 238.19976 100.381443 
L 238.19976 3.00024 
" style="fill: none; stroke: #000000; stroke-width: 0.8; stroke-linejoin: miter; stroke-linecap: square"/>
   </g>
   <g id="patch_5">
    <path d="M 44.123453 100.381443 
L 238.19976 100.381443 
" style="fill: none; stroke: #000000; stroke-width: 0.8; stroke-linejoin: miter; stroke-linecap: square"/>
   </g>
   <g id="patch_6">
    <path d="M 44.123453 3.00024 
L 238.19976 3.00024 
" style="fill: none; stroke: #000000; stroke-width: 0.8; stroke-linejoin: miter; stroke-linecap: square"/>
   </g>
   <g id="legend_1">
    <g id="patch_7">
     <path d="M 102.745606 95.381443 
L 179.577608 95.381443 
Q 181.577608 95.381443 181.577608 93.381443 
L 181.577608 66.507087 
Q 181.577608 64.507087 179.577608 64.507087 
L 102.745606 64.507087 
Q 100.745606 64.507087 100.745606 66.507087 
L 100.745606 93.381443 
Q 100.745606 95.381443 102.745606 95.381443 
z
" style="fill: #ffffff; opacity: 0.8; stroke: #cccccc; stroke-linejoin: miter"/>
    </g>
    <g id="line2d_12">
     <path d="M 104.745606 72.007087 
L 114.745606 72.007087 
L 124.745606 72.007087 
" style="fill: none; stroke: #000000; stroke-width: 0.75; stroke-linecap: square"/>
    </g>
    <g id="text_12">
     <!-- Analytical -->
     <g transform="translate(132.745606 75.507087) scale(0.1 -0.1)">
      <defs>
       <path id="CMR17-41" d="M 2323 4441 
C 2291 4524 2278 4544 2214 4544 
C 2150 4544 2138 4524 2106 4441 
L 749 580 
C 627 236 371 166 147 166 
L 147 0 
C 262 12 518 12 640 12 
C 800 12 1056 12 1210 0 
L 1210 166 
C 909 179 864 382 864 459 
C 864 516 877 548 890 586 
L 1229 1536 
L 2906 1536 
L 3290 453 
C 3322 376 3322 363 3322 338 
C 3322 166 3046 166 2925 166 
L 2925 0 
C 3110 12 3443 12 3642 12 
C 3808 12 4128 12 4282 0 
L 4282 166 
C 3942 166 3827 166 3744 402 
L 2323 4441 
z
M 2067 3924 
L 2848 1702 
L 1286 1702 
L 2067 3924 
z
" transform="scale(0.015625)"/>
       <path id="CMR17-6e" d="M 2656 1954 
C 2656 2282 2592 2816 1837 2816 
C 1331 2816 1069 2424 973 2166 
L 966 2166 
L 966 2816 
L 211 2745 
L 211 2578 
C 589 2578 646 2540 646 2231 
L 646 443 
C 646 198 621 166 211 166 
L 211 0 
C 365 12 646 12 813 12 
C 979 12 1267 12 1421 0 
L 1421 166 
C 1011 166 986 192 986 443 
L 986 1678 
C 986 2269 1344 2713 1792 2713 
C 2266 2713 2317 2289 2317 1980 
L 2317 443 
C 2317 198 2291 166 1882 166 
L 1882 0 
C 2035 12 2317 12 2483 12 
C 2650 12 2938 12 3091 0 
L 3091 166 
C 2682 166 2656 192 2656 443 
L 2656 1954 
z
" transform="scale(0.015625)"/>
       <path id="CMR17-61" d="M 2304 1656 
C 2304 2048 2304 2275 2035 2534 
C 1798 2751 1523 2816 1306 2816 
C 800 2816 435 2408 435 1977 
C 435 1740 627 1728 666 1728 
C 749 1728 896 1779 896 1958 
C 896 2118 774 2188 666 2188 
C 640 2188 608 2182 589 2176 
C 723 2594 1069 2713 1293 2713 
C 1613 2713 1965 2421 1965 1875 
L 1965 1632 
C 1587 1619 1133 1568 774 1373 
C 371 1147 256 822 256 576 
C 256 77 832 -64 1171 -64 
C 1523 -64 1850 135 1990 505 
C 2003 219 2182 -39 2464 -39 
C 2598 -39 2938 51 2938 563 
L 2938 926 
L 2822 926 
L 2822 557 
C 2822 161 2650 109 2566 109 
C 2304 109 2304 446 2304 732 
L 2304 1656 
z
M 1965 887 
C 1965 323 1568 38 1216 38 
C 896 38 646 278 646 576 
C 646 771 730 1114 1101 1322 
C 1408 1497 1760 1523 1965 1536 
L 1965 887 
z
" transform="scale(0.015625)"/>
       <path id="CMR17-6c" d="M 979 4416 
L 218 4345 
L 218 4179 
C 595 4179 653 4141 653 3835 
L 653 439 
C 653 198 627 166 218 166 
L 218 0 
C 371 12 653 12 813 12 
C 979 12 1261 12 1414 0 
L 1414 166 
C 1005 166 979 191 979 439 
L 979 4416 
z
" transform="scale(0.015625)"/>
       <path id="CMR17-79" d="M 2496 2183 
C 2656 2579 2944 2585 3034 2585 
L 3034 2752 
C 2912 2745 2752 2739 2630 2739 
C 2496 2739 2285 2739 2157 2752 
L 2157 2585 
C 2400 2566 2406 2384 2406 2332 
C 2406 2268 2394 2235 2362 2158 
L 1664 409 
L 902 2300 
C 870 2378 870 2423 870 2430 
C 870 2572 1018 2585 1171 2585 
L 1171 2752 
C 1018 2739 742 2739 582 2739 
C 410 2739 205 2739 64 2752 
L 64 2585 
C 410 2585 448 2553 531 2345 
L 1485 -31 
C 1197 -795 1030 -1242 627 -1242 
C 557 -1242 397 -1223 282 -1106 
C 429 -1093 493 -1002 493 -892 
C 493 -782 416 -685 288 -685 
C 147 -685 77 -782 77 -899 
C 77 -1158 339 -1344 627 -1344 
C 998 -1344 1229 -983 1357 -659 
L 2496 2183 
z
" transform="scale(0.015625)"/>
       <path id="CMR17-74" d="M 966 2585 
L 1862 2585 
L 1862 2752 
L 966 2752 
L 966 3968 
L 851 3968 
C 838 3292 614 2700 70 2687 
L 70 2585 
L 627 2585 
L 627 778 
C 627 655 627 -64 1370 -64 
C 1747 -64 1965 308 1965 784 
L 1965 1151 
L 1850 1151 
L 1850 790 
C 1850 347 1677 51 1408 51 
C 1222 51 966 179 966 765 
L 966 2585 
z
" transform="scale(0.015625)"/>
       <path id="CMR17-69" d="M 992 3961 
C 992 4102 877 4224 730 4224 
C 589 4224 467 4108 467 3961 
C 467 3820 582 3699 730 3699 
C 870 3699 992 3814 992 3961 
z
M 243 2745 
L 243 2579 
C 602 2579 653 2540 653 2231 
L 653 443 
C 653 198 627 166 218 166 
L 218 0 
C 371 12 646 12 806 12 
C 960 12 1222 12 1370 0 
L 1370 166 
C 992 166 979 205 979 436 
L 979 2816 
L 243 2745 
z
" transform="scale(0.015625)"/>
       <path id="CMR17-63" d="M 2234 2240 
C 2112 2240 1933 2240 1933 2015 
C 1933 1836 2080 1785 2163 1785 
C 2208 1785 2394 1804 2394 2028 
C 2394 2476 1958 2816 1466 2816 
C 787 2816 211 2201 211 1379 
C 211 521 813 -64 1466 -64 
C 2259 -64 2458 676 2458 747 
C 2458 773 2451 792 2406 792 
C 2362 792 2355 786 2330 702 
C 2163 180 1798 51 1523 51 
C 1114 51 621 431 621 1385 
C 621 2358 1094 2700 1472 2700 
C 1722 2700 2093 2582 2234 2240 
z
" transform="scale(0.015625)"/>
      </defs>
      <use xlink:href="#CMR17-41" transform="scale(0.996264)"/>
      <use xlink:href="#CMR17-6e" transform="translate(69.07243 0) scale(0.996264)"/>
      <use xlink:href="#CMR17-61" transform="translate(119.9678 0) scale(0.996264)"/>
      <use xlink:href="#CMR17-6c" transform="translate(165.658277 0) scale(0.996264)"/>
      <use xlink:href="#CMR17-79" transform="translate(190.529335 0) scale(0.996264)"/>
      <use xlink:href="#CMR17-74" transform="translate(238.822251 0) scale(0.996264)"/>
      <use xlink:href="#CMR17-69" transform="translate(274.103019 0) scale(0.996264)"/>
      <use xlink:href="#CMR17-63" transform="translate(298.974077 0) scale(0.996264)"/>
      <use xlink:href="#CMR17-61" transform="translate(339.459738 0) scale(0.996264)"/>
      <use xlink:href="#CMR17-6c" transform="translate(385.150215 0) scale(0.996264)"/>
     </g>
    </g>
    <g id="line2d_13">
     <path d="M 104.745606 85.944265 
L 114.745606 85.944265 
L 124.745606 85.944265 
" style="fill: none; stroke-dasharray: 2.775,1.2; stroke-dashoffset: 0; stroke: #ff0000; stroke-width: 0.75"/>
    </g>
    <g id="text_13">
     <!-- LBM -->
     <g transform="translate(132.745606 89.444265) scale(0.1 -0.1)">
      <defs>
       <path id="CMR17-4c" d="M 3469 1612 
L 3354 1612 
C 3302 981 3219 166 2125 166 
L 1530 166 
C 1274 166 1261 198 1261 414 
L 1261 3892 
C 1261 4121 1274 4185 1760 4185 
L 1901 4185 
L 1901 4352 
C 1638 4339 1331 4339 1069 4339 
C 870 4339 512 4339 326 4352 
L 326 4185 
C 768 4185 838 4185 838 3898 
L 838 453 
C 838 166 768 166 326 166 
L 326 0 
L 3315 0 
L 3469 1612 
z
" transform="scale(0.015625)"/>
       <path id="CMR17-42" d="M 333 4352 
L 333 4185 
C 774 4185 845 4185 845 3897 
L 845 451 
C 845 166 774 166 333 166 
L 333 0 
L 2534 0 
C 3354 0 3885 578 3885 1155 
C 3885 1726 3360 2214 2675 2259 
C 3290 2380 3718 2790 3718 3276 
C 3718 3808 3194 4352 2368 4352 
L 333 4352 
z
M 1248 2304 
L 1248 3936 
C 1248 4153 1261 4185 1517 4185 
L 2336 4185 
C 2970 4185 3251 3673 3251 3276 
C 3251 2790 2861 2304 2170 2304 
L 1248 2304 
z
M 1517 166 
C 1261 166 1248 198 1248 413 
L 1248 2201 
L 2432 2201 
C 3091 2201 3411 1624 3411 1161 
C 3411 698 3046 166 2349 166 
L 1517 166 
z
" transform="scale(0.015625)"/>
       <path id="CMR17-4d" d="M 1338 4249 
C 1299 4345 1293 4352 1158 4352 
L 339 4352 
L 339 4185 
C 781 4185 851 4185 851 3898 
L 851 624 
C 851 465 851 166 339 166 
L 339 0 
C 486 12 755 12 915 12 
C 1075 12 1344 12 1491 0 
L 1491 166 
C 979 166 979 465 979 624 
L 979 4159 
L 986 4159 
L 2490 102 
C 2515 38 2528 0 2579 0 
C 2630 0 2643 38 2669 102 
L 4186 4191 
L 4192 4191 
L 4192 453 
C 4192 166 4122 166 3680 166 
L 3680 0 
C 3853 12 4198 12 4384 12 
C 4570 12 4922 12 5094 0 
L 5094 166 
C 4653 166 4582 166 4582 453 
L 4582 3898 
C 4582 4185 4653 4185 5094 4185 
L 5094 4352 
L 4282 4352 
C 4147 4352 4141 4345 4102 4249 
L 2720 516 
L 1338 4249 
z
" transform="scale(0.015625)"/>
      </defs>
      <use xlink:href="#CMR17-4c" transform="scale(0.996264)"/>
      <use xlink:href="#CMR17-42" transform="translate(57.381408 0) scale(0.996264)"/>
      <use xlink:href="#CMR17-4d" transform="translate(122.570162 0) scale(0.996264)"/>
     </g>
    </g>
   </g>
  </g>
 </g>
 <defs>
  <clipPath id="p872edf31e3">
   <rect x="44.123453" y="3.00024" width="194.076307" height="97.381203"/>
  </clipPath>
 </defs>
</svg>
