<?xml version="1.0" encoding="utf-8" standalone="no"?>
<!DOCTYPE svg PUBLIC "-//W3C//DTD SVG 1.1//EN"
  "http://www.w3.org/Graphics/SVG/1.1/DTD/svg11.dtd">
<svg xmlns:xlink="http://www.w3.org/1999/xlink" width="241.2pt" height="176.4pt" viewBox="0 0 241.2 176.4" xmlns="http://www.w3.org/2000/svg" version="1.1">
 <metadata>
  <rdf:RDF xmlns:dc="http://purl.org/dc/elements/1.1/" xmlns:cc="http://creativecommons.org/ns#" xmlns:rdf="http://www.w3.org/1999/02/22-rdf-syntax-ns#">
   <cc:Work>
    <dc:type rdf:resource="http://purl.org/dc/dcmitype/StillImage"/>
    <dc:date>2024-08-21T09:51:37.549354</dc:date>
    <dc:format>image/svg+xml</dc:format>
    <dc:creator>
     <cc:Agent>
      <dc:title>Matplotlib v3.8.4, https://matplotlib.org/</dc:title>
     </cc:Agent>
    </dc:creator>
   </cc:Work>
  </rdf:RDF>
 </metadata>
 <defs>
  <style type="text/css">*{stroke-linejoin: round; stroke-linecap: butt}</style>
 </defs>
 <g id="figure_1">
  <g id="patch_1">
   <path d="M 0 176.4 
L 241.2 176.4 
L 241.2 0 
L 0 0 
z
" style="fill: #ffffff"/>
  </g>
  <g id="axes_1">
   <g id="patch_2">
    <path d="M 42.435721 144.688407 
L 238.19976 144.688407 
L 238.19976 3.00024 
L 42.435721 3.00024 
z
" style="fill: #ffffff"/>
   </g>
   <g id="matplotlib.axis_1">
    <g id="xtick_1">
     <g id="line2d_1">
      <defs>
       <path id="m85f4046a60" d="M 0 0 
L 0 3.5 
" style="stroke: #000000; stroke-width: 0.8"/>
      </defs>
      <g>
       <use xlink:href="#m85f4046a60" x="55.812145" y="144.688407" style="stroke: #000000; stroke-width: 0.8"/>
      </g>
     </g>
     <g id="text_1">
      <!-- $\mathdefault{0}$ -->
      <g transform="translate(53.321477 158.606905) scale(0.1 -0.1)">
       <defs>
        <path id="CMR17-30" d="M 2688 2025 
C 2688 2416 2682 3080 2413 3591 
C 2176 4039 1798 4198 1466 4198 
C 1158 4198 768 4058 525 3597 
C 269 3118 243 2524 243 2025 
C 243 1661 250 1106 448 619 
C 723 -39 1216 -128 1466 -128 
C 1760 -128 2208 -7 2470 600 
C 2662 1042 2688 1559 2688 2025 
z
M 1466 -26 
C 1056 -26 813 325 723 812 
C 653 1188 653 1738 653 2096 
C 653 2588 653 2997 736 3387 
C 858 3929 1216 4096 1466 4096 
C 1728 4096 2067 3923 2189 3400 
C 2272 3036 2278 2607 2278 2096 
C 2278 1680 2278 1169 2202 792 
C 2067 95 1690 -26 1466 -26 
z
" transform="scale(0.015625)"/>
       </defs>
       <use xlink:href="#CMR17-30" transform="scale(0.996264)"/>
      </g>
     </g>
    </g>
    <g id="xtick_2">
     <g id="line2d_2">
      <g>
       <use xlink:href="#m85f4046a60" x="90.488626" y="144.688407" style="stroke: #000000; stroke-width: 0.8"/>
      </g>
     </g>
     <g id="text_2">
      <!-- $\mathdefault{1}$ -->
      <g transform="translate(87.997958 158.606905) scale(0.1 -0.1)">
       <defs>
        <path id="CMR17-31" d="M 1702 4058 
C 1702 4192 1696 4192 1606 4192 
C 1357 3916 979 3827 621 3827 
C 602 3827 570 3827 563 3808 
C 557 3795 557 3782 557 3648 
C 755 3648 1088 3686 1344 3839 
L 1344 461 
C 1344 236 1331 160 781 160 
L 589 160 
L 589 0 
C 896 0 1216 0 1523 0 
C 1830 0 2150 0 2458 0 
L 2458 160 
L 2266 160 
C 1715 160 1702 230 1702 458 
L 1702 4058 
z
" transform="scale(0.015625)"/>
       </defs>
       <use xlink:href="#CMR17-31" transform="scale(0.996264)"/>
      </g>
     </g>
    </g>
    <g id="xtick_3">
     <g id="line2d_3">
      <g>
       <use xlink:href="#m85f4046a60" x="125.165106" y="144.688407" style="stroke: #000000; stroke-width: 0.8"/>
      </g>
     </g>
     <g id="text_3">
      <!-- $\mathdefault{2}$ -->
      <g transform="translate(122.674439 158.606905) scale(0.1 -0.1)">
       <defs>
        <path id="CMR17-32" d="M 2669 989 
L 2554 989 
C 2490 536 2438 459 2413 420 
C 2381 369 1920 369 1830 369 
L 602 369 
C 832 619 1280 1072 1824 1597 
C 2214 1967 2669 2402 2669 3035 
C 2669 3790 2067 4224 1395 4224 
C 691 4224 262 3604 262 3030 
C 262 2780 448 2748 525 2748 
C 589 2748 781 2787 781 3010 
C 781 3207 614 3264 525 3264 
C 486 3264 448 3258 422 3245 
C 544 3790 915 4058 1306 4058 
C 1862 4058 2227 3617 2227 3035 
C 2227 2479 1901 2000 1536 1584 
L 262 146 
L 262 0 
L 2515 0 
L 2669 989 
z
" transform="scale(0.015625)"/>
       </defs>
       <use xlink:href="#CMR17-32" transform="scale(0.996264)"/>
      </g>
     </g>
    </g>
    <g id="xtick_4">
     <g id="line2d_4">
      <g>
       <use xlink:href="#m85f4046a60" x="159.841587" y="144.688407" style="stroke: #000000; stroke-width: 0.8"/>
      </g>
     </g>
     <g id="text_4">
      <!-- $\mathdefault{3}$ -->
      <g transform="translate(157.35092 158.606905) scale(0.1 -0.1)">
       <defs>
        <path id="CMR17-33" d="M 1414 2157 
C 1984 2157 2234 1662 2234 1090 
C 2234 320 1824 25 1453 25 
C 1114 25 563 194 390 693 
C 422 680 454 680 486 680 
C 640 680 755 782 755 948 
C 755 1133 614 1216 486 1216 
C 378 1216 211 1165 211 926 
C 211 335 787 -128 1466 -128 
C 2176 -128 2720 430 2720 1085 
C 2720 1707 2208 2157 1600 2227 
C 2086 2328 2554 2756 2554 3329 
C 2554 3820 2048 4179 1472 4179 
C 890 4179 378 3829 378 3329 
C 378 3110 544 3072 627 3072 
C 762 3072 877 3155 877 3321 
C 877 3486 762 3569 627 3569 
C 602 3569 570 3569 544 3557 
C 730 3959 1235 4032 1459 4032 
C 1683 4032 2106 3925 2106 3320 
C 2106 3143 2080 2828 1862 2550 
C 1670 2304 1453 2304 1242 2284 
C 1210 2284 1062 2269 1037 2269 
C 992 2263 966 2257 966 2208 
C 966 2163 973 2157 1101 2157 
L 1414 2157 
z
" transform="scale(0.015625)"/>
       </defs>
       <use xlink:href="#CMR17-33" transform="scale(0.996264)"/>
      </g>
     </g>
    </g>
    <g id="xtick_5">
     <g id="line2d_5">
      <g>
       <use xlink:href="#m85f4046a60" x="194.518068" y="144.688407" style="stroke: #000000; stroke-width: 0.8"/>
      </g>
     </g>
     <g id="text_5">
      <!-- $\mathdefault{4}$ -->
      <g transform="translate(192.0274 158.606905) scale(0.1 -0.1)">
       <defs>
        <path id="CMR17-34" d="M 2150 4122 
C 2150 4256 2144 4256 2029 4256 
L 128 1254 
L 128 1088 
L 1779 1088 
L 1779 457 
C 1779 224 1766 160 1318 160 
L 1197 160 
L 1197 0 
C 1402 0 1747 0 1965 0 
C 2182 0 2528 0 2733 0 
L 2733 160 
L 2611 160 
C 2163 160 2150 224 2150 457 
L 2150 1088 
L 2803 1088 
L 2803 1254 
L 2150 1254 
L 2150 4122 
z
M 1798 3703 
L 1798 1254 
L 256 1254 
L 1798 3703 
z
" transform="scale(0.015625)"/>
       </defs>
       <use xlink:href="#CMR17-34" transform="scale(0.996264)"/>
      </g>
     </g>
    </g>
    <g id="xtick_6">
     <g id="line2d_6">
      <g>
       <use xlink:href="#m85f4046a60" x="229.194549" y="144.688407" style="stroke: #000000; stroke-width: 0.8"/>
      </g>
     </g>
     <g id="text_6">
      <!-- $\mathdefault{5}$ -->
      <g transform="translate(226.703881 158.606905) scale(0.1 -0.1)">
       <defs>
        <path id="CMR17-35" d="M 730 3692 
C 794 3666 1056 3584 1325 3584 
C 1920 3584 2246 3911 2432 4100 
C 2432 4157 2432 4192 2394 4192 
C 2387 4192 2374 4192 2323 4163 
C 2099 4058 1837 3973 1517 3973 
C 1325 3973 1037 3999 723 4139 
C 653 4171 640 4171 634 4171 
C 602 4171 595 4164 595 4037 
L 595 2203 
C 595 2089 595 2057 659 2057 
C 691 2057 704 2070 736 2114 
C 941 2401 1222 2522 1542 2522 
C 1766 2522 2246 2382 2246 1289 
C 2246 1085 2246 715 2054 421 
C 1894 159 1645 25 1370 25 
C 947 25 518 320 403 814 
C 429 807 480 795 506 795 
C 589 795 749 840 749 1038 
C 749 1210 627 1280 506 1280 
C 358 1280 262 1190 262 1011 
C 262 454 704 -128 1382 -128 
C 2042 -128 2669 440 2669 1264 
C 2669 2030 2170 2624 1549 2624 
C 1222 2624 947 2503 730 2274 
L 730 3692 
z
" transform="scale(0.015625)"/>
       </defs>
       <use xlink:href="#CMR17-35" transform="scale(0.996264)"/>
      </g>
     </g>
    </g>
    <g id="text_7">
     <!-- $k b$ -->
     <g transform="translate(135.42982 171.462582) scale(0.1 -0.1)">
      <defs>
       <path id="CMMI12-6b" d="M 1798 4257 
C 1805 4283 1818 4321 1818 4352 
C 1818 4416 1754 4416 1741 4416 
C 1734 4416 1504 4393 1389 4377 
C 1280 4377 1184 4358 1069 4358 
C 915 4345 870 4339 870 4224 
C 870 4160 934 4160 998 4160 
C 1325 4160 1325 4103 1325 4040 
C 1325 4015 1325 4002 1293 3888 
L 378 248 
C 352 152 352 140 352 101 
C 352 -38 461 -64 525 -64 
C 704 -64 742 77 794 275 
L 1094 1469 
C 1555 1418 1830 1226 1830 920 
C 1830 881 1830 856 1811 760 
C 1786 664 1786 588 1786 556 
C 1786 185 2029 -64 2355 -64 
C 2650 -64 2803 204 2854 294 
C 2989 530 3072 888 3072 913 
C 3072 945 3046 971 3008 971 
C 2950 971 2944 945 2918 843 
C 2829 511 2694 64 2368 64 
C 2240 64 2157 128 2157 370 
C 2157 492 2182 632 2208 728 
C 2234 843 2234 849 2234 926 
C 2234 1303 1894 1514 1306 1590 
C 1536 1731 1766 1980 1856 2076 
C 2221 2484 2470 2689 2765 2689 
C 2912 2689 2950 2650 2995 2612 
C 2758 2586 2669 2420 2669 2293 
C 2669 2139 2790 2088 2880 2088 
C 3053 2088 3206 2235 3206 2440 
C 3206 2625 3059 2816 2771 2816 
C 2419 2816 2131 2567 1677 2056 
C 1613 1980 1376 1737 1139 1648 
L 1798 4257 
z
" transform="scale(0.015625)"/>
       <path id="CMMI12-62" d="M 1478 4257 
C 1485 4283 1498 4321 1498 4352 
C 1498 4416 1434 4416 1421 4416 
C 1414 4416 1184 4393 1069 4377 
C 960 4377 864 4358 749 4358 
C 595 4345 550 4339 550 4224 
C 550 4160 614 4160 678 4160 
C 1005 4160 1005 4103 1005 4040 
C 1005 3996 954 3811 928 3696 
L 774 3085 
C 710 2831 346 1387 320 1272 
C 288 1114 288 1005 288 922 
C 288 274 653 -64 1069 -64 
C 1811 -64 2579 888 2579 1814 
C 2579 2401 2246 2816 1766 2816 
C 1434 2816 1133 2542 1011 2414 
L 1478 4257 
z
M 1075 64 
C 870 64 646 217 646 715 
C 646 926 666 1047 781 1494 
C 800 1577 902 1986 928 2069 
C 941 2120 1318 2689 1754 2689 
C 2035 2689 2163 2408 2163 2076 
C 2163 1769 1984 1047 1824 715 
C 1664 370 1370 64 1075 64 
z
" transform="scale(0.015625)"/>
      </defs>
      <use xlink:href="#CMMI12-6b" transform="scale(0.996264)"/>
      <use xlink:href="#CMMI12-62" transform="translate(54.079201 0) scale(0.996264)"/>
     </g>
    </g>
   </g>
   <g id="matplotlib.axis_2">
    <g id="ytick_1">
     <g id="line2d_7">
      <defs>
       <path id="me0e2ef6661" d="M 0 0 
L -3.5 0 
" style="stroke: #000000; stroke-width: 0.8"/>
      </defs>
      <g>
       <use xlink:href="#me0e2ef6661" x="42.435721" y="137.326585" style="stroke: #000000; stroke-width: 0.8"/>
      </g>
     </g>
     <g id="text_8">
      <!-- $\mathdefault{0.0}$ -->
      <g transform="translate(22.705642 140.785834) scale(0.1 -0.1)">
       <defs>
        <path id="CMMI12-3a" d="M 1178 307 
C 1178 492 1024 619 870 619 
C 685 619 557 466 557 313 
C 557 128 710 0 864 0 
C 1050 0 1178 153 1178 307 
z
" transform="scale(0.015625)"/>
       </defs>
       <use xlink:href="#CMR17-30" transform="scale(0.996264)"/>
       <use xlink:href="#CMMI12-3a" transform="translate(45.690477 0) scale(0.996264)"/>
       <use xlink:href="#CMR17-30" transform="translate(72.787654 0) scale(0.996264)"/>
      </g>
     </g>
    </g>
    <g id="ytick_2">
     <g id="line2d_8">
      <g>
       <use xlink:href="#me0e2ef6661" x="42.435721" y="116.010952" style="stroke: #000000; stroke-width: 0.8"/>
      </g>
     </g>
     <g id="text_9">
      <!-- $\mathdefault{0.5}$ -->
      <g transform="translate(22.705642 119.470201) scale(0.1 -0.1)">
       <use xlink:href="#CMR17-30" transform="scale(0.996264)"/>
       <use xlink:href="#CMMI12-3a" transform="translate(45.690477 0) scale(0.996264)"/>
       <use xlink:href="#CMR17-35" transform="translate(72.787654 0) scale(0.996264)"/>
      </g>
     </g>
    </g>
    <g id="ytick_3">
     <g id="line2d_9">
      <g>
       <use xlink:href="#me0e2ef6661" x="42.435721" y="94.695319" style="stroke: #000000; stroke-width: 0.8"/>
      </g>
     </g>
     <g id="text_10">
      <!-- $\mathdefault{1.0}$ -->
      <g transform="translate(22.705642 98.154569) scale(0.1 -0.1)">
       <use xlink:href="#CMR17-31" transform="scale(0.996264)"/>
       <use xlink:href="#CMMI12-3a" transform="translate(45.690477 0) scale(0.996264)"/>
       <use xlink:href="#CMR17-30" transform="translate(72.787654 0) scale(0.996264)"/>
      </g>
     </g>
    </g>
    <g id="ytick_4">
     <g id="line2d_10">
      <g>
       <use xlink:href="#me0e2ef6661" x="42.435721" y="73.379687" style="stroke: #000000; stroke-width: 0.8"/>
      </g>
     </g>
     <g id="text_11">
      <!-- $\mathdefault{1.5}$ -->
      <g transform="translate(22.705642 76.838936) scale(0.1 -0.1)">
       <use xlink:href="#CMR17-31" transform="scale(0.996264)"/>
       <use xlink:href="#CMMI12-3a" transform="translate(45.690477 0) scale(0.996264)"/>
       <use xlink:href="#CMR17-35" transform="translate(72.787654 0) scale(0.996264)"/>
      </g>
     </g>
    </g>
    <g id="ytick_5">
     <g id="line2d_11">
      <g>
       <use xlink:href="#me0e2ef6661" x="42.435721" y="52.064054" style="stroke: #000000; stroke-width: 0.8"/>
      </g>
     </g>
     <g id="text_12">
      <!-- $\mathdefault{2.0}$ -->
      <g transform="translate(22.705642 55.523303) scale(0.1 -0.1)">
       <use xlink:href="#CMR17-32" transform="scale(0.996264)"/>
       <use xlink:href="#CMMI12-3a" transform="translate(45.690477 0) scale(0.996264)"/>
       <use xlink:href="#CMR17-30" transform="translate(72.787654 0) scale(0.996264)"/>
      </g>
     </g>
    </g>
    <g id="ytick_6">
     <g id="line2d_12">
      <g>
       <use xlink:href="#me0e2ef6661" x="42.435721" y="30.748421" style="stroke: #000000; stroke-width: 0.8"/>
      </g>
     </g>
     <g id="text_13">
      <!-- $\mathdefault{2.5}$ -->
      <g transform="translate(22.705642 34.20767) scale(0.1 -0.1)">
       <use xlink:href="#CMR17-32" transform="scale(0.996264)"/>
       <use xlink:href="#CMMI12-3a" transform="translate(45.690477 0) scale(0.996264)"/>
       <use xlink:href="#CMR17-35" transform="translate(72.787654 0) scale(0.996264)"/>
      </g>
     </g>
    </g>
    <g id="ytick_7">
     <g id="line2d_13">
      <g>
       <use xlink:href="#me0e2ef6661" x="42.435721" y="9.432789" style="stroke: #000000; stroke-width: 0.8"/>
      </g>
     </g>
     <g id="text_14">
      <!-- $\mathdefault{3.0}$ -->
      <g transform="translate(22.705642 12.892038) scale(0.1 -0.1)">
       <use xlink:href="#CMR17-33" transform="scale(0.996264)"/>
       <use xlink:href="#CMMI12-3a" transform="translate(45.690477 0) scale(0.996264)"/>
       <use xlink:href="#CMR17-30" transform="translate(72.787654 0) scale(0.996264)"/>
      </g>
     </g>
    </g>
    <g id="text_15">
     <!-- $\frac{\left&lt; F_x \right&gt;/L}{b \varepsilon_0 E_0^2}$ -->
     <g transform="translate(13.062482 86.589292) rotate(-90) scale(0.1 -0.1)">
      <defs>
       <path id="CMSY10-68" d="M 2099 4557 
C 2131 4627 2131 4640 2131 4672 
C 2131 4742 2074 4800 2003 4800 
C 1946 4800 1901 4768 1856 4653 
L 736 1715 
C 723 1677 704 1638 704 1600 
C 704 1581 704 1568 736 1491 
L 1856 -1446 
C 1882 -1517 1914 -1600 2003 -1600 
C 2074 -1600 2131 -1542 2131 -1472 
C 2131 -1453 2131 -1440 2099 -1370 
L 966 1600 
L 2099 4557 
z
" transform="scale(0.015625)"/>
       <path id="CMMI12-46" d="M 1901 2055 
L 2515 2055 
C 3002 2055 3040 1946 3040 1761 
C 3040 1678 3027 1589 2995 1448 
C 2982 1423 2976 1391 2976 1378 
C 2976 1333 3002 1308 3046 1308 
C 3098 1308 3104 1333 3130 1435 
L 3501 2935 
C 3501 2961 3482 2999 3437 2999 
C 3379 2999 3373 2974 3347 2863 
C 3213 2376 3085 2240 2528 2240 
L 1946 2240 
L 2362 3926 
C 2419 4154 2432 4154 2694 4154 
L 3552 4154 
C 4352 4154 4467 3918 4467 3464 
C 4467 3426 4467 3285 4448 3119 
C 4442 3094 4429 3011 4429 2985 
C 4429 2934 4461 2915 4499 2915 
C 4544 2915 4570 2941 4582 3055 
L 4717 4174 
C 4717 4195 4730 4263 4730 4277 
C 4730 4352 4672 4352 4557 4352 
L 1523 4352 
C 1402 4352 1338 4352 1338 4229 
C 1338 4154 1382 4154 1491 4154 
C 1888 4154 1888 4113 1888 4050 
C 1888 4018 1882 3992 1862 3922 
L 998 473 
C 941 249 928 185 480 185 
C 358 185 294 185 294 70 
C 294 0 352 0 390 0 
C 512 0 640 0 762 0 
L 1594 0 
C 1734 0 1888 0 2029 0 
C 2086 0 2163 0 2163 115 
C 2163 185 2125 185 1984 185 
C 1478 185 1466 229 1466 324 
C 1466 356 1478 406 1491 449 
L 1901 2055 
z
" transform="scale(0.015625)"/>
       <path id="CMMI12-78" d="M 3034 2606 
C 2829 2567 2752 2414 2752 2293 
C 2752 2139 2874 2088 2963 2088 
C 3155 2088 3290 2254 3290 2427 
C 3290 2695 2982 2816 2714 2816 
C 2323 2816 2106 2433 2048 2312 
C 1901 2816 1504 2816 1389 2816 
C 736 2816 390 1980 390 1839 
C 390 1814 416 1782 461 1782 
C 512 1782 525 1820 538 1846 
C 755 2555 1184 2689 1370 2689 
C 1658 2689 1715 2420 1715 2267 
C 1715 2127 1677 1980 1600 1673 
L 1382 798 
C 1286 415 1101 64 762 64 
C 730 64 570 64 435 147 
C 666 192 717 383 717 460 
C 717 588 621 664 499 664 
C 346 664 179 530 179 326 
C 179 57 480 -64 755 -64 
C 1062 -64 1280 179 1414 441 
C 1517 64 1837 -64 2074 -64 
C 2726 -64 3072 773 3072 913 
C 3072 945 3046 971 3008 971 
C 2950 971 2944 939 2925 888 
C 2752 326 2381 64 2093 64 
C 1869 64 1747 230 1747 492 
C 1747 632 1773 734 1875 1156 
L 2099 2024 
C 2195 2408 2413 2689 2707 2689 
C 2720 2689 2899 2689 3034 2606 
z
" transform="scale(0.015625)"/>
       <path id="CMSY10-69" d="M 1747 1491 
C 1779 1568 1779 1581 1779 1600 
C 1779 1619 1779 1632 1747 1709 
L 627 4653 
C 589 4762 550 4800 480 4800 
C 410 4800 352 4742 352 4672 
C 352 4653 352 4640 384 4570 
L 1517 1600 
L 384 -1357 
C 352 -1427 352 -1440 352 -1472 
C 352 -1542 410 -1600 480 -1600 
C 563 -1600 589 -1536 614 -1472 
L 1747 1491 
z
" transform="scale(0.015625)"/>
       <path id="CMMI12-3d" d="M 2746 4562 
C 2746 4569 2784 4666 2784 4678 
C 2784 4755 2720 4800 2669 4800 
C 2637 4800 2579 4800 2528 4659 
L 384 -1363 
C 384 -1370 346 -1465 346 -1478 
C 346 -1555 410 -1600 461 -1600 
C 499 -1600 557 -1593 602 -1459 
L 2746 4562 
z
" transform="scale(0.015625)"/>
       <path id="CMMI12-4c" d="M 2349 3861 
C 2406 4103 2426 4167 2989 4167 
C 3162 4167 3206 4167 3206 4288 
C 3206 4352 3136 4352 3110 4352 
C 2982 4352 2835 4352 2707 4352 
L 1850 4352 
C 1728 4352 1587 4352 1466 4352 
C 1414 4352 1344 4352 1344 4231 
C 1344 4167 1402 4167 1498 4167 
C 1888 4167 1888 4116 1888 4046 
C 1888 4034 1888 3995 1862 3899 
L 998 472 
C 941 249 928 185 480 185 
C 358 185 294 185 294 70 
C 294 0 333 0 461 0 
L 3328 0 
C 3469 0 3475 6 3520 121 
L 4013 1478 
C 4026 1510 4038 1548 4038 1567 
C 4038 1605 4006 1631 3974 1631 
C 3968 1631 3936 1631 3923 1605 
C 3910 1599 3910 1586 3859 1465 
C 3654 905 3366 185 2285 185 
L 1670 185 
C 1581 185 1568 185 1530 192 
C 1459 198 1453 211 1453 262 
C 1453 307 1466 345 1478 401 
L 2349 3861 
z
" transform="scale(0.015625)"/>
       <path id="CMMI12-22" d="M 890 1427 
C 1094 1345 1312 1345 1434 1345 
C 1600 1345 1933 1345 1933 1550 
C 1933 1678 1811 1728 1485 1728 
C 1325 1728 1133 1709 909 1613 
C 710 1708 634 1852 634 1990 
C 634 2379 1261 2606 1830 2606 
C 1939 2606 2170 2606 2438 2411 
C 2477 2387 2496 2367 2541 2367 
C 2618 2367 2701 2449 2701 2526 
C 2701 2639 2330 2880 1888 2880 
C 1171 2880 493 2449 493 1972 
C 493 1734 646 1586 755 1509 
C 384 1301 166 961 166 652 
C 166 219 563 -128 1178 -128 
C 2022 -128 2362 424 2362 512 
C 2362 543 2336 568 2304 568 
C 2272 568 2259 549 2234 512 
C 2163 395 1997 146 1235 146 
C 838 146 314 245 314 686 
C 314 898 474 1214 890 1427 
z
M 1088 1518 
C 1261 1600 1427 1600 1472 1600 
C 1651 1600 1683 1583 1786 1545 
C 1677 1472 1664 1472 1434 1472 
C 1318 1472 1216 1472 1088 1518 
z
" transform="scale(0.015625)"/>
       <path id="CMMI12-45" d="M 4448 1489 
C 4454 1508 4474 1554 4474 1579 
C 4474 1611 4448 1643 4410 1643 
C 4384 1643 4371 1637 4352 1617 
C 4339 1611 4339 1598 4282 1469 
C 3904 570 3629 185 2605 185 
L 1670 185 
C 1581 185 1568 185 1530 192 
C 1459 198 1453 211 1453 262 
C 1453 307 1466 345 1478 403 
L 1920 2176 
L 2554 2176 
C 3053 2176 3091 2066 3091 1874 
C 3091 1810 3091 1752 3046 1560 
C 3034 1534 3027 1508 3027 1489 
C 3027 1444 3059 1425 3098 1425 
C 3155 1425 3162 1469 3187 1559 
L 3552 3042 
C 3552 3073 3526 3105 3488 3105 
C 3430 3105 3424 3080 3398 2990 
C 3270 2501 3142 2361 2573 2361 
L 1965 2361 
L 2362 3930 
C 2419 4154 2432 4154 2694 4154 
L 3610 4154 
C 4397 4154 4557 3943 4557 3458 
C 4557 3451 4557 3273 4531 3062 
C 4525 3036 4518 2998 4518 2985 
C 4518 2934 4550 2915 4589 2915 
C 4634 2915 4659 2941 4672 3055 
L 4806 4174 
C 4806 4195 4819 4263 4819 4277 
C 4819 4352 4762 4352 4646 4352 
L 1523 4352 
C 1402 4352 1338 4352 1338 4229 
C 1338 4154 1382 4154 1491 4154 
C 1888 4154 1888 4114 1888 4052 
C 1888 4020 1882 3994 1862 3924 
L 998 473 
C 941 249 928 185 480 185 
C 358 185 294 185 294 70 
C 294 0 333 0 461 0 
L 3674 0 
C 3814 0 3821 6 3866 110 
L 4448 1489 
z
" transform="scale(0.015625)"/>
      </defs>
      <use xlink:href="#CMSY10-68" transform="translate(0 48.318576) scale(0.697382)"/>
      <use xlink:href="#CMMI12-46" transform="translate(27.120497 48.318576) scale(0.697382)"/>
      <use xlink:href="#CMMI12-78" transform="translate(71.324042 37.85788) scale(0.498132)"/>
      <use xlink:href="#CMSY10-69" transform="translate(99.539204 48.318576) scale(0.697382)"/>
      <use xlink:href="#CMMI12-3d" transform="translate(126.6597 48.318576) scale(0.697382)"/>
      <use xlink:href="#CMMI12-4c" transform="translate(160.801991 48.318576) scale(0.697382)"/>
      <use xlink:href="#CMMI12-62" transform="translate(22.475394 -37.201863) scale(0.697382)"/>
      <use xlink:href="#CMMI12-22" transform="translate(51.508382 -37.201863) scale(0.697382)"/>
      <use xlink:href="#CMR17-30" transform="translate(83.463364 -47.662559) scale(0.498132)"/>
      <use xlink:href="#CMMI12-45" transform="translate(106.806735 -37.201863) scale(0.697382)"/>
      <use xlink:href="#CMR17-32" transform="translate(161.44264 -13.180964) scale(0.498132)"/>
      <use xlink:href="#CMR17-30" transform="translate(157.354364 -56.448915) scale(0.498132)"/>
      <path d="M 0 22.914133 
L 207.261405 22.914133 
L 207.261405 26.899083 
L 0 26.899083 
L 0 22.914133 
z
"/>
     </g>
    </g>
   </g>
   <g id="line2d_14">
    <path d="M 51.334087 137.24839 
L 55.715578 137.299705 
L 57.980169 137.131764 
L 60.687832 136.890737 
L 63.395495 135.918854 
L 65.857007 134.254991 
L 67.703141 132.330663 
L 69.056972 130.491861 
L 70.164652 128.738584 
L 71.149257 126.8784 
L 72.133862 124.91131 
L 72.995391 122.937092 
L 73.733845 121.226578 
L 74.472298 119.230979 
L 75.210752 117.320905 
L 75.949205 115.125746 
L 76.810734 112.659755 
L 77.549188 110.507359 
L 78.287642 108.027114 
L 79.026095 105.632394 
L 79.739934 103.192061 
L 80.281466 101.105235 
L 80.995305 98.776085 
L 81.709143 96.281586 
L 82.226061 94.357258 
L 82.742978 92.39872 
L 83.456816 89.995448 
L 84.19527 87.443932 
L 84.909108 85.180352 
L 85.450641 83.07642 
L 86.102942 81.015251 
L 86.779857 78.634786 
L 87.518311 76.382609 
L 88.256765 74.301484 
L 88.995218 72.191851 
L 89.733672 70.395811 
L 90.472125 68.457229 
L 91.333654 66.518647 
L 92.318259 64.530175 
L 93.42594 62.447624 
L 94.656695 60.514744 
L 96.133603 58.589194 
L 98.102812 56.67369 
L 100.564324 55.159281 
L 103.271987 54.4051 
L 105.97965 54.381774 
L 108.687313 54.887154 
L 111.394976 55.68021 
L 114.102639 56.620992 
L 116.810302 57.6162 
L 119.517965 58.572533 
L 122.225628 59.45889 
L 124.933291 60.213071 
L 127.640954 60.881727 
L 130.348618 61.449306 
L 133.056281 61.939135 
L 135.763944 62.351213 
L 138.471607 62.747742 
L 141.17927 63.082069 
L 143.886933 63.416397 
L 146.594596 63.735175 
L 149.302259 63.983977 
L 152.009922 64.248329 
L 154.717585 64.458255 
L 157.425248 64.652632 
L 160.132911 64.823683 
L 162.840574 64.916984 
L 165.548237 65.010285 
L 168.2559 65.06471 
L 170.963563 65.06471 
L 173.671226 65.06471 
L 176.378889 65.06471 
L 179.086553 65.06471 
L 181.794216 65.06471 
L 184.501879 65.041385 
L 187.209542 64.901434 
L 189.917205 64.800358 
L 192.624868 64.660407 
L 195.332531 64.46603 
L 198.040194 64.217228 
L 200.747857 63.929551 
L 203.45552 63.571898 
L 206.163183 63.19092 
L 208.870846 62.833267 
L 211.578509 62.475614 
L 214.286172 62.117962 
L 216.993835 61.806959 
L 219.701498 61.581482 
L 222.409161 61.394881 
L 225.116824 61.28603 
L 227.824487 61.216054 
L 229.301395 61.216054 
" clip-path="url(#p1dabdf0cca)" style="fill: none; stroke: #000000; stroke-width: 0.75; stroke-linecap: square"/>
   </g>
   <g id="line2d_15">
    <defs>
     <path id="md3a5d7eee4" d="M 0 1 
C 0.265203 1 0.51958 0.894634 0.707107 0.707107 
C 0.894634 0.51958 1 0.265203 1 0 
C 1 -0.265203 0.894634 -0.51958 0.707107 -0.707107 
C 0.51958 -0.894634 0.265203 -1 0 -1 
C -0.265203 -1 -0.51958 -0.894634 -0.707107 -0.707107 
C -0.894634 -0.51958 -1 -0.265203 -1 0 
C -1 0.265203 -0.894634 0.51958 -0.707107 0.707107 
C -0.51958 0.894634 -0.265203 1 0 1 
z
" style="stroke: #000000"/>
    </defs>
    <g clip-path="url(#p1dabdf0cca)">
     <use xlink:href="#md3a5d7eee4" x="64.527295" y="134.512452" style="stroke: #000000"/>
     <use xlink:href="#md3a5d7eee4" x="77.60002" y="108.118626" style="stroke: #000000"/>
     <use xlink:href="#md3a5d7eee4" x="90.672745" y="67.560519" style="stroke: #000000"/>
     <use xlink:href="#md3a5d7eee4" x="103.745471" y="56.028762" style="stroke: #000000"/>
     <use xlink:href="#md3a5d7eee4" x="116.818196" y="57.832064" style="stroke: #000000"/>
     <use xlink:href="#md3a5d7eee4" x="129.890921" y="60.884463" style="stroke: #000000"/>
     <use xlink:href="#md3a5d7eee4" x="142.963647" y="66.03432" style="stroke: #000000"/>
     <use xlink:href="#md3a5d7eee4" x="156.036372" y="66.972208" style="stroke: #000000"/>
     <use xlink:href="#md3a5d7eee4" x="169.109097" y="64.661593" style="stroke: #000000"/>
     <use xlink:href="#md3a5d7eee4" x="182.181822" y="63.715179" style="stroke: #000000"/>
     <use xlink:href="#md3a5d7eee4" x="195.254548" y="65.122011" style="stroke: #000000"/>
     <use xlink:href="#md3a5d7eee4" x="208.327273" y="64.593383" style="stroke: #000000"/>
     <use xlink:href="#md3a5d7eee4" x="221.399998" y="62.615292" style="stroke: #000000"/>
    </g>
   </g>
   <g id="line2d_16">
    <path d="M 57.154551 137.436964 
L 59.853382 137.026531 
L 62.42954 135.530404 
L 64.392326 133.355434 
L 65.741742 131.155381 
L 66.968484 128.683009 
L 68.072551 126.054771 
L 69.053944 123.555525 
L 70.035338 120.653176 
L 70.894057 118.091225 
L 71.630102 115.726348 
L 72.366147 113.325639 
L 73.102192 110.781604 
L 73.838237 108.165907 
L 74.574282 105.657703 
L 75.310327 103.006174 
L 76.046372 100.569634 
L 76.782417 98.097262 
L 77.641136 95.391986 
L 78.499855 92.830035 
L 79.358574 90.420368 
L 80.339967 87.894249 
L 81.444035 85.427252 
L 82.793451 82.797222 
L 84.510889 80.315892 
L 86.841698 78.266169 
L 89.54053 77.52348 
L 92.239361 78.05118 
L 94.938193 79.302025 
L 97.637024 80.806947 
L 100.335856 82.106652 
L 103.034687 82.97638 
L 105.733519 83.259774 
L 108.432351 82.97638 
L 111.131182 82.302096 
L 113.830014 81.471458 
L 116.528845 80.709224 
L 119.227677 80.093574 
L 121.926508 79.741775 
L 124.62534 79.63428 
L 127.324172 79.702686 
L 130.023003 79.839497 
L 132.721835 80.025169 
L 135.420666 80.07403 
L 138.119498 79.849269 
L 140.818329 79.585419 
L 143.517161 79.174986 
L 146.215993 78.725464 
L 148.914824 78.31503 
L 151.613656 77.933914 
L 154.312487 77.582114 
L 157.011319 77.269403 
L 159.710151 76.878514 
L 162.408982 76.370358 
L 165.107814 75.578809 
L 167.806645 74.435459 
L 170.505477 72.969626 
L 173.204308 71.112904 
L 175.90314 68.992332 
L 178.601972 66.637227 
L 181.178129 64.347596 
L 183.754286 62.014967 
L 186.453118 59.630545 
L 189.15195 57.343845 
L 191.850781 55.16464 
L 194.549613 53.14179 
L 197.248444 51.226435 
L 199.947276 49.467435 
L 202.646107 47.806158 
L 205.344939 46.311008 
L 208.043771 44.923353 
L 210.742602 43.692053 
L 213.441434 42.587792 
L 216.140265 41.669203 
L 218.839097 40.90697 
L 221.537929 40.340181 
L 224.23676 39.959065 
L 226.935592 39.714759 
L 228.65303 39.656126 
" clip-path="url(#p1dabdf0cca)" style="fill: none; stroke: #ff0000; stroke-width: 0.75; stroke-linecap: square"/>
   </g>
   <g id="line2d_17">
    <defs>
     <path id="m4aae12291e" d="M 0 1 
C 0.265203 1 0.51958 0.894634 0.707107 0.707107 
C 0.894634 0.51958 1 0.265203 1 0 
C 1 -0.265203 0.894634 -0.51958 0.707107 -0.707107 
C 0.51958 -0.894634 0.265203 -1 0 -1 
C -0.265203 -1 -0.51958 -0.894634 -0.707107 -0.707107 
C -0.894634 -0.51958 -1 -0.265203 -1 0 
C -1 0.265203 -0.894634 0.51958 -0.707107 0.707107 
C -0.51958 0.894634 -0.265203 1 0 1 
z
" style="stroke: #ff0000"/>
    </defs>
    <g clip-path="url(#p1dabdf0cca)">
     <use xlink:href="#m4aae12291e" x="64.527295" y="131.447307" style="fill: #ff0000; stroke: #ff0000"/>
     <use xlink:href="#m4aae12291e" x="77.60002" y="93.028437" style="fill: #ff0000; stroke: #ff0000"/>
     <use xlink:href="#m4aae12291e" x="90.672745" y="76.197613" style="fill: #ff0000; stroke: #ff0000"/>
     <use xlink:href="#m4aae12291e" x="103.745471" y="83.287193" style="fill: #ff0000; stroke: #ff0000"/>
     <use xlink:href="#m4aae12291e" x="116.818196" y="80.482056" style="fill: #ff0000; stroke: #ff0000"/>
     <use xlink:href="#m4aae12291e" x="129.890921" y="77.834654" style="fill: #ff0000; stroke: #ff0000"/>
     <use xlink:href="#m4aae12291e" x="142.963647" y="76.287139" style="fill: #ff0000; stroke: #ff0000"/>
     <use xlink:href="#m4aae12291e" x="156.036372" y="76.909555" style="fill: #ff0000; stroke: #ff0000"/>
     <use xlink:href="#m4aae12291e" x="169.109097" y="74.304785" style="fill: #ff0000; stroke: #ff0000"/>
     <use xlink:href="#m4aae12291e" x="182.181822" y="64.653067" style="fill: #ff0000; stroke: #ff0000"/>
     <use xlink:href="#m4aae12291e" x="195.254548" y="52.490367" style="fill: #ff0000; stroke: #ff0000"/>
     <use xlink:href="#m4aae12291e" x="208.327273" y="42.958016" style="fill: #ff0000; stroke: #ff0000"/>
     <use xlink:href="#m4aae12291e" x="221.399998" y="39.530462" style="fill: #ff0000; stroke: #ff0000"/>
    </g>
   </g>
   <g id="line2d_18">
    <path d="M 51.560498 138.248035 
L 57.192584 137.31253 
L 59.886191 136.564125 
L 62.212487 134.260443 
L 63.9266 131.344784 
L 65.273403 128.266191 
L 66.375333 125.320518 
L 67.354826 122.361981 
L 68.334319 119.242655 
L 69.191376 116.294838 
L 70.048432 113.422056 
L 71.027926 110.109782 
L 72.007419 106.990455 
L 72.986912 103.967603 
L 74.088842 100.996203 
L 75.435645 97.921898 
L 77.272195 94.856168 
L 79.720928 92.92279 
L 82.414534 93.133279 
L 85.10814 94.957515 
L 87.801747 97.23781 
L 90.495353 99.120515 
L 93.188959 99.822144 
L 95.882565 99.225759 
L 98.576172 97.565237 
L 101.269778 95.588981 
L 103.963384 93.846602 
L 106.65699 92.782464 
L 109.350597 92.583669 
L 112.044203 92.946178 
L 114.737809 93.659501 
L 117.431416 94.232498 
L 120.125022 94.290967 
L 122.818628 93.554256 
L 125.512234 92.267936 
L 128.205841 90.455394 
L 130.899447 88.642852 
L 133.593053 87.052493 
L 136.28666 85.918192 
L 138.980266 85.39197 
L 141.673872 85.39197 
L 144.367478 85.801254 
L 147.061085 86.350863 
L 149.754691 86.818616 
L 152.448297 86.783535 
L 155.141903 85.848029 
L 157.713073 83.810966 
L 159.794496 81.13542 
L 161.263736 78.537053 
L 162.488102 75.784328 
L 163.590032 73.031603 
L 164.569525 70.298172 
L 165.549019 67.178846 
L 166.528512 64.027362 
L 167.508005 60.457823 
L 168.365062 57.295619 
L 169.099681 54.251328 
L 169.834301 51.550056 
L 170.568921 48.505765 
L 171.303541 45.590106 
L 172.038161 42.631569 
L 172.772781 39.630156 
L 173.507401 36.886006 
L 174.242021 34.098979 
L 175.099077 31.001091 
L 176.07857 27.624501 
L 177.058064 24.601648 
L 178.159993 21.450164 
L 179.38436 18.440175 
L 180.8536 15.477963 
L 182.812586 12.574555 
L 185.261319 10.399504 
L 187.954925 9.440611 
L 190.648532 9.616019 
L 193.342138 10.457974 
L 196.035744 11.720906 
L 198.72935 13.322959 
L 201.422957 15.018563 
L 204.116563 16.690779 
L 206.810169 18.362996 
L 209.503776 19.988437 
L 212.197382 21.532021 
L 214.890988 22.982054 
L 217.584594 24.432088 
L 220.278201 25.823653 
L 222.971807 27.145054 
L 225.665413 28.466456 
L 228.236583 29.721203 
" clip-path="url(#p1dabdf0cca)" style="fill: none; stroke: #0000ff; stroke-width: 0.75; stroke-linecap: square"/>
   </g>
   <g id="line2d_19">
    <defs>
     <path id="m761dc52413" d="M 0 1 
C 0.265203 1 0.51958 0.894634 0.707107 0.707107 
C 0.894634 0.51958 1 0.265203 1 0 
C 1 -0.265203 0.894634 -0.51958 0.707107 -0.707107 
C 0.51958 -0.894634 0.265203 -1 0 -1 
C -0.265203 -1 -0.51958 -0.894634 -0.707107 -0.707107 
C -0.894634 -0.51958 -1 -0.265203 -1 0 
C -1 0.265203 -0.894634 0.51958 -0.707107 0.707107 
C -0.51958 0.894634 -0.265203 1 0 1 
z
" style="stroke: #0000ff"/>
    </defs>
    <g clip-path="url(#p1dabdf0cca)">
     <use xlink:href="#m761dc52413" x="64.527295" y="126.465417" style="fill: #0000ff; stroke: #0000ff"/>
     <use xlink:href="#m761dc52413" x="77.60002" y="92.393231" style="fill: #0000ff; stroke: #0000ff"/>
     <use xlink:href="#m761dc52413" x="90.672745" y="97.78097" style="fill: #0000ff; stroke: #0000ff"/>
     <use xlink:href="#m761dc52413" x="103.745471" y="91.122819" style="fill: #0000ff; stroke: #0000ff"/>
     <use xlink:href="#m761dc52413" x="116.818196" y="91.284818" style="fill: #0000ff; stroke: #0000ff"/>
     <use xlink:href="#m761dc52413" x="129.890921" y="88.044842" style="fill: #0000ff; stroke: #0000ff"/>
     <use xlink:href="#m761dc52413" x="142.963647" y="82.3152" style="fill: #0000ff; stroke: #0000ff"/>
     <use xlink:href="#m761dc52413" x="156.036372" y="80.443687" style="fill: #0000ff; stroke: #0000ff"/>
     <use xlink:href="#m761dc52413" x="169.109097" y="49.037234" style="fill: #0000ff; stroke: #0000ff"/>
     <use xlink:href="#m761dc52413" x="182.181822" y="18.248934" style="fill: #0000ff; stroke: #0000ff"/>
     <use xlink:href="#m761dc52413" x="195.254548" y="14.335384" style="fill: #0000ff; stroke: #0000ff"/>
     <use xlink:href="#m761dc52413" x="208.327273" y="20.998651" style="fill: #0000ff; stroke: #0000ff"/>
     <use xlink:href="#m761dc52413" x="221.399998" y="29.350116" style="fill: #0000ff; stroke: #0000ff"/>
    </g>
   </g>
   <g id="patch_3">
    <path d="M 42.435721 144.688407 
L 42.435721 3.00024 
" style="fill: none; stroke: #000000; stroke-width: 0.8; stroke-linejoin: miter; stroke-linecap: square"/>
   </g>
   <g id="patch_4">
    <path d="M 238.19976 144.688407 
L 238.19976 3.00024 
" style="fill: none; stroke: #000000; stroke-width: 0.8; stroke-linejoin: miter; stroke-linecap: square"/>
   </g>
   <g id="patch_5">
    <path d="M 42.435721 144.688407 
L 238.19976 144.688407 
" style="fill: none; stroke: #000000; stroke-width: 0.8; stroke-linejoin: miter; stroke-linecap: square"/>
   </g>
   <g id="patch_6">
    <path d="M 42.435721 3.00024 
L 238.19976 3.00024 
" style="fill: none; stroke: #000000; stroke-width: 0.8; stroke-linejoin: miter; stroke-linecap: square"/>
   </g>
   <g id="legend_1">
    <g id="patch_7">
     <path d="M 49.435721 52.811775 
L 114.921204 52.811775 
Q 116.921204 52.811775 116.921204 50.811775 
L 116.921204 10.00024 
Q 116.921204 8.00024 114.921204 8.00024 
L 49.435721 8.00024 
Q 47.435721 8.00024 47.435721 10.00024 
L 47.435721 50.811775 
Q 47.435721 52.811775 49.435721 52.811775 
z
" style="fill: #ffffff; opacity: 0.8; stroke: #cccccc; stroke-linejoin: miter"/>
    </g>
    <g id="patch_8">
     <path d="M 51.435721 19.00024 
L 71.435721 19.00024 
L 71.435721 12.00024 
L 51.435721 12.00024 
z
" style="stroke: #000000; stroke-linejoin: miter"/>
    </g>
    <g id="text_16">
     <!-- $A = 0.5$ -->
     <g transform="translate(79.435721 19.00024) scale(0.1 -0.1)">
      <defs>
       <path id="CMMI12-41" d="M 1088 691 
C 864 314 646 186 339 186 
C 269 180 218 180 218 58 
C 218 24 250 0 294 0 
C 410 0 698 0 813 0 
C 998 0 1203 0 1382 0 
C 1421 0 1498 0 1498 122 
C 1498 180 1446 186 1408 186 
C 1261 186 1139 236 1139 388 
C 1139 476 1178 546 1261 685 
L 1747 1479 
L 3379 1479 
C 3386 1423 3386 1373 3392 1316 
C 3411 1152 3488 495 3488 376 
C 3488 186 3162 186 3059 186 
C 2989 186 2918 186 2918 70 
C 2918 0 2976 0 3014 0 
C 3123 0 3251 0 3360 0 
L 3725 0 
C 4115 0 4397 0 4403 0 
C 4448 0 4518 0 4518 122 
C 4518 186 4461 186 4365 186 
C 4013 186 4006 244 3987 434 
L 3597 4404 
C 3584 4531 3558 4544 3488 4544 
C 3424 4544 3386 4531 3328 4435 
L 1088 691 
z
M 1856 1664 
L 3142 3819 
L 3360 1664 
L 1856 1664 
z
" transform="scale(0.015625)"/>
       <path id="CMR17-3d" d="M 4115 2017 
C 4211 2017 4307 2017 4307 2125 
C 4307 2240 4198 2240 4090 2240 
L 512 2240 
C 403 2240 294 2240 294 2125 
C 294 2017 390 2017 486 2017 
L 4115 2017 
z
M 4090 896 
C 4198 896 4307 896 4307 1011 
C 4307 1119 4211 1119 4115 1119 
L 486 1119 
C 390 1119 294 1119 294 1011 
C 294 896 403 896 512 896 
L 4090 896 
z
" transform="scale(0.015625)"/>
      </defs>
      <use xlink:href="#CMMI12-41" transform="scale(0.996264)"/>
      <use xlink:href="#CMR17-3d" transform="translate(100.801894 0) scale(0.996264)"/>
      <use xlink:href="#CMR17-30" transform="translate(200.190691 0) scale(0.996264)"/>
      <use xlink:href="#CMMI12-3a" transform="translate(245.881168 0) scale(0.996264)"/>
      <use xlink:href="#CMR17-35" transform="translate(272.978345 0) scale(0.996264)"/>
     </g>
    </g>
    <g id="patch_9">
     <path d="M 51.435721 32.937418 
L 71.435721 32.937418 
L 71.435721 25.937418 
L 51.435721 25.937418 
z
" style="fill: #ff0000; stroke: #ff0000; stroke-linejoin: miter"/>
    </g>
    <g id="text_17">
     <!-- $A = 1.0$ -->
     <g transform="translate(79.435721 32.937418) scale(0.1 -0.1)">
      <use xlink:href="#CMMI12-41" transform="scale(0.996264)"/>
      <use xlink:href="#CMR17-3d" transform="translate(100.801894 0) scale(0.996264)"/>
      <use xlink:href="#CMR17-31" transform="translate(200.190691 0) scale(0.996264)"/>
      <use xlink:href="#CMMI12-3a" transform="translate(245.881168 0) scale(0.996264)"/>
      <use xlink:href="#CMR17-30" transform="translate(272.978345 0) scale(0.996264)"/>
     </g>
    </g>
    <g id="patch_10">
     <path d="M 51.435721 46.874597 
L 71.435721 46.874597 
L 71.435721 39.874597 
L 51.435721 39.874597 
z
" style="fill: #0000ff; stroke: #0000ff; stroke-linejoin: miter"/>
    </g>
    <g id="text_18">
     <!-- $A = 1.5$ -->
     <g transform="translate(79.435721 46.874597) scale(0.1 -0.1)">
      <use xlink:href="#CMMI12-41" transform="scale(0.996264)"/>
      <use xlink:href="#CMR17-3d" transform="translate(100.801894 0) scale(0.996264)"/>
      <use xlink:href="#CMR17-31" transform="translate(200.190691 0) scale(0.996264)"/>
      <use xlink:href="#CMMI12-3a" transform="translate(245.881168 0) scale(0.996264)"/>
      <use xlink:href="#CMR17-35" transform="translate(272.978345 0) scale(0.996264)"/>
     </g>
    </g>
   </g>
   <g id="legend_2">
    <g id="patch_11">
     <path d="M 49.435721 52.811775 
L 114.921204 52.811775 
Q 116.921204 52.811775 116.921204 50.811775 
L 116.921204 10.00024 
Q 116.921204 8.00024 114.921204 8.00024 
L 49.435721 8.00024 
Q 47.435721 8.00024 47.435721 10.00024 
L 47.435721 50.811775 
Q 47.435721 52.811775 49.435721 52.811775 
z
" style="fill: #ffffff; opacity: 0.8; stroke: #cccccc; stroke-linejoin: miter"/>
    </g>
    <g id="patch_12">
     <path d="M 51.435721 19.00024 
L 71.435721 19.00024 
L 71.435721 12.00024 
L 51.435721 12.00024 
z
" style="stroke: #000000; stroke-linejoin: miter"/>
    </g>
    <g id="text_19">
     <!-- $A = 0.5$ -->
     <g transform="translate(79.435721 19.00024) scale(0.1 -0.1)">
      <use xlink:href="#CMMI12-41" transform="scale(0.996264)"/>
      <use xlink:href="#CMR17-3d" transform="translate(100.801894 0) scale(0.996264)"/>
      <use xlink:href="#CMR17-30" transform="translate(200.190691 0) scale(0.996264)"/>
      <use xlink:href="#CMMI12-3a" transform="translate(245.881168 0) scale(0.996264)"/>
      <use xlink:href="#CMR17-35" transform="translate(272.978345 0) scale(0.996264)"/>
     </g>
    </g>
    <g id="patch_13">
     <path d="M 51.435721 32.937418 
L 71.435721 32.937418 
L 71.435721 25.937418 
L 51.435721 25.937418 
z
" style="fill: #ff0000; stroke: #ff0000; stroke-linejoin: miter"/>
    </g>
    <g id="text_20">
     <!-- $A = 1.0$ -->
     <g transform="translate(79.435721 32.937418) scale(0.1 -0.1)">
      <use xlink:href="#CMMI12-41" transform="scale(0.996264)"/>
      <use xlink:href="#CMR17-3d" transform="translate(100.801894 0) scale(0.996264)"/>
      <use xlink:href="#CMR17-31" transform="translate(200.190691 0) scale(0.996264)"/>
      <use xlink:href="#CMMI12-3a" transform="translate(245.881168 0) scale(0.996264)"/>
      <use xlink:href="#CMR17-30" transform="translate(272.978345 0) scale(0.996264)"/>
     </g>
    </g>
    <g id="patch_14">
     <path d="M 51.435721 46.874597 
L 71.435721 46.874597 
L 71.435721 39.874597 
L 51.435721 39.874597 
z
" style="fill: #0000ff; stroke: #0000ff; stroke-linejoin: miter"/>
    </g>
    <g id="text_21">
     <!-- $A = 1.5$ -->
     <g transform="translate(79.435721 46.874597) scale(0.1 -0.1)">
      <use xlink:href="#CMMI12-41" transform="scale(0.996264)"/>
      <use xlink:href="#CMR17-3d" transform="translate(100.801894 0) scale(0.996264)"/>
      <use xlink:href="#CMR17-31" transform="translate(200.190691 0) scale(0.996264)"/>
      <use xlink:href="#CMMI12-3a" transform="translate(245.881168 0) scale(0.996264)"/>
      <use xlink:href="#CMR17-35" transform="translate(272.978345 0) scale(0.996264)"/>
     </g>
    </g>
   </g>
  </g>
 </g>
 <defs>
  <clipPath id="p1dabdf0cca">
   <rect x="42.435721" y="3.00024" width="195.764039" height="141.688167"/>
  </clipPath>
 </defs>
</svg>
