<?xml version="1.0" encoding="utf-8" standalone="no"?>
<!DOCTYPE svg PUBLIC "-//W3C//DTD SVG 1.1//EN"
  "http://www.w3.org/Graphics/SVG/1.1/DTD/svg11.dtd">
<svg xmlns:xlink="http://www.w3.org/1999/xlink" width="241.2pt" height="144pt" viewBox="0 0 241.2 144" xmlns="http://www.w3.org/2000/svg" version="1.1">
 <metadata>
  <rdf:RDF xmlns:dc="http://purl.org/dc/elements/1.1/" xmlns:cc="http://creativecommons.org/ns#" xmlns:rdf="http://www.w3.org/1999/02/22-rdf-syntax-ns#">
   <cc:Work>
    <dc:type rdf:resource="http://purl.org/dc/dcmitype/StillImage"/>
    <dc:date>2024-08-25T14:29:44.192631</dc:date>
    <dc:format>image/svg+xml</dc:format>
    <dc:creator>
     <cc:Agent>
      <dc:title>Matplotlib v3.8.4, https://matplotlib.org/</dc:title>
     </cc:Agent>
    </dc:creator>
   </cc:Work>
  </rdf:RDF>
 </metadata>
 <defs>
  <style type="text/css">*{stroke-linejoin: round; stroke-linecap: butt}</style>
 </defs>
 <g id="figure_1">
  <g id="patch_1">
   <path d="M 0 144 
L 241.2 144 
L 241.2 0 
L 0 0 
z
" style="fill: #ffffff"/>
  </g>
  <g id="axes_1">
   <g id="patch_2">
    <path d="M 44.123453 111.181443 
L 238.19976 111.181443 
L 238.19976 3.00024 
L 44.123453 3.00024 
z
" style="fill: #ffffff"/>
   </g>
   <g id="matplotlib.axis_1">
    <g id="xtick_1">
     <g id="line2d_1">
      <defs>
       <path id="ma6e9a64b94" d="M 0 0 
L 0 3.5 
" style="stroke: #000000; stroke-width: 0.8"/>
      </defs>
      <g>
       <use xlink:href="#ma6e9a64b94" x="52.945104" y="111.181443" style="stroke: #000000; stroke-width: 0.8"/>
      </g>
     </g>
     <g id="text_1">
      <!-- $\mathdefault{0}$ -->
      <g transform="translate(50.454436 125.099942) scale(0.1 -0.1)">
       <defs>
        <path id="CMR17-30" d="M 2688 2025 
C 2688 2416 2682 3080 2413 3591 
C 2176 4039 1798 4198 1466 4198 
C 1158 4198 768 4058 525 3597 
C 269 3118 243 2524 243 2025 
C 243 1661 250 1106 448 619 
C 723 -39 1216 -128 1466 -128 
C 1760 -128 2208 -7 2470 600 
C 2662 1042 2688 1559 2688 2025 
z
M 1466 -26 
C 1056 -26 813 325 723 812 
C 653 1188 653 1738 653 2096 
C 653 2588 653 2997 736 3387 
C 858 3929 1216 4096 1466 4096 
C 1728 4096 2067 3923 2189 3400 
C 2272 3036 2278 2607 2278 2096 
C 2278 1680 2278 1169 2202 792 
C 2067 95 1690 -26 1466 -26 
z
" transform="scale(0.015625)"/>
       </defs>
       <use xlink:href="#CMR17-30" transform="scale(0.996264)"/>
      </g>
     </g>
    </g>
    <g id="xtick_2">
     <g id="line2d_2">
      <g>
       <use xlink:href="#ma6e9a64b94" x="82.350605" y="111.181443" style="stroke: #000000; stroke-width: 0.8"/>
      </g>
     </g>
     <g id="text_2">
      <!-- $\mathdefault{30}$ -->
      <g transform="translate(77.36927 125.099942) scale(0.1 -0.1)">
       <defs>
        <path id="CMR17-33" d="M 1414 2157 
C 1984 2157 2234 1662 2234 1090 
C 2234 320 1824 25 1453 25 
C 1114 25 563 194 390 693 
C 422 680 454 680 486 680 
C 640 680 755 782 755 948 
C 755 1133 614 1216 486 1216 
C 378 1216 211 1165 211 926 
C 211 335 787 -128 1466 -128 
C 2176 -128 2720 430 2720 1085 
C 2720 1707 2208 2157 1600 2227 
C 2086 2328 2554 2756 2554 3329 
C 2554 3820 2048 4179 1472 4179 
C 890 4179 378 3829 378 3329 
C 378 3110 544 3072 627 3072 
C 762 3072 877 3155 877 3321 
C 877 3486 762 3569 627 3569 
C 602 3569 570 3569 544 3557 
C 730 3959 1235 4032 1459 4032 
C 1683 4032 2106 3925 2106 3320 
C 2106 3143 2080 2828 1862 2550 
C 1670 2304 1453 2304 1242 2284 
C 1210 2284 1062 2269 1037 2269 
C 992 2263 966 2257 966 2208 
C 966 2163 973 2157 1101 2157 
L 1414 2157 
z
" transform="scale(0.015625)"/>
       </defs>
       <use xlink:href="#CMR17-33" transform="scale(0.996264)"/>
       <use xlink:href="#CMR17-30" transform="translate(45.690477 0) scale(0.996264)"/>
      </g>
     </g>
    </g>
    <g id="xtick_3">
     <g id="line2d_3">
      <g>
       <use xlink:href="#ma6e9a64b94" x="111.756106" y="111.181443" style="stroke: #000000; stroke-width: 0.8"/>
      </g>
     </g>
     <g id="text_3">
      <!-- $\mathdefault{60}$ -->
      <g transform="translate(106.774771 125.099942) scale(0.1 -0.1)">
       <defs>
        <path id="CMR17-36" d="M 678 2176 
C 678 3690 1395 4032 1811 4032 
C 1946 4032 2272 4009 2400 3776 
C 2298 3776 2106 3776 2106 3553 
C 2106 3381 2246 3323 2336 3323 
C 2394 3323 2566 3348 2566 3560 
C 2566 3954 2246 4179 1805 4179 
C 1043 4179 243 3390 243 1984 
C 243 253 966 -128 1478 -128 
C 2099 -128 2688 427 2688 1283 
C 2688 2081 2170 2662 1517 2662 
C 1126 2662 838 2407 678 1960 
L 678 2176 
z
M 1478 25 
C 691 25 691 1200 691 1436 
C 691 1896 909 2560 1504 2560 
C 1613 2560 1926 2560 2138 2120 
C 2253 1870 2253 1609 2253 1289 
C 2253 944 2253 690 2118 434 
C 1978 171 1773 25 1478 25 
z
" transform="scale(0.015625)"/>
       </defs>
       <use xlink:href="#CMR17-36" transform="scale(0.996264)"/>
       <use xlink:href="#CMR17-30" transform="translate(45.690477 0) scale(0.996264)"/>
      </g>
     </g>
    </g>
    <g id="xtick_4">
     <g id="line2d_4">
      <g>
       <use xlink:href="#ma6e9a64b94" x="141.161607" y="111.181443" style="stroke: #000000; stroke-width: 0.8"/>
      </g>
     </g>
     <g id="text_4">
      <!-- $\mathdefault{90}$ -->
      <g transform="translate(136.180271 125.099942) scale(0.1 -0.1)">
       <defs>
        <path id="CMR17-39" d="M 2253 1864 
C 2253 464 1670 31 1190 31 
C 1043 31 685 31 538 294 
C 704 268 826 357 826 518 
C 826 692 685 749 595 749 
C 538 749 365 723 365 506 
C 365 71 742 -128 1203 -128 
C 1939 -128 2688 674 2688 2073 
C 2688 3817 1971 4179 1485 4179 
C 851 4179 243 3628 243 2778 
C 243 1991 762 1408 1414 1408 
C 1952 1408 2189 1903 2253 2112 
L 2253 1864 
z
M 1427 1510 
C 1254 1510 1011 1542 813 1922 
C 678 2169 678 2461 678 2771 
C 678 3146 678 3405 858 3684 
C 947 3817 1114 4032 1485 4032 
C 2240 4032 2240 2885 2240 2632 
C 2240 2182 2035 1510 1427 1510 
z
" transform="scale(0.015625)"/>
       </defs>
       <use xlink:href="#CMR17-39" transform="scale(0.996264)"/>
       <use xlink:href="#CMR17-30" transform="translate(45.690477 0) scale(0.996264)"/>
      </g>
     </g>
    </g>
    <g id="xtick_5">
     <g id="line2d_5">
      <g>
       <use xlink:href="#ma6e9a64b94" x="170.567108" y="111.181443" style="stroke: #000000; stroke-width: 0.8"/>
      </g>
     </g>
     <g id="text_5">
      <!-- $\mathdefault{120}$ -->
      <g transform="translate(163.095105 125.099942) scale(0.1 -0.1)">
       <defs>
        <path id="CMR17-31" d="M 1702 4058 
C 1702 4192 1696 4192 1606 4192 
C 1357 3916 979 3827 621 3827 
C 602 3827 570 3827 563 3808 
C 557 3795 557 3782 557 3648 
C 755 3648 1088 3686 1344 3839 
L 1344 461 
C 1344 236 1331 160 781 160 
L 589 160 
L 589 0 
C 896 0 1216 0 1523 0 
C 1830 0 2150 0 2458 0 
L 2458 160 
L 2266 160 
C 1715 160 1702 230 1702 458 
L 1702 4058 
z
" transform="scale(0.015625)"/>
        <path id="CMR17-32" d="M 2669 989 
L 2554 989 
C 2490 536 2438 459 2413 420 
C 2381 369 1920 369 1830 369 
L 602 369 
C 832 619 1280 1072 1824 1597 
C 2214 1967 2669 2402 2669 3035 
C 2669 3790 2067 4224 1395 4224 
C 691 4224 262 3604 262 3030 
C 262 2780 448 2748 525 2748 
C 589 2748 781 2787 781 3010 
C 781 3207 614 3264 525 3264 
C 486 3264 448 3258 422 3245 
C 544 3790 915 4058 1306 4058 
C 1862 4058 2227 3617 2227 3035 
C 2227 2479 1901 2000 1536 1584 
L 262 146 
L 262 0 
L 2515 0 
L 2669 989 
z
" transform="scale(0.015625)"/>
       </defs>
       <use xlink:href="#CMR17-31" transform="scale(0.996264)"/>
       <use xlink:href="#CMR17-32" transform="translate(45.690477 0) scale(0.996264)"/>
       <use xlink:href="#CMR17-30" transform="translate(91.380954 0) scale(0.996264)"/>
      </g>
     </g>
    </g>
    <g id="xtick_6">
     <g id="line2d_6">
      <g>
       <use xlink:href="#ma6e9a64b94" x="199.972609" y="111.181443" style="stroke: #000000; stroke-width: 0.8"/>
      </g>
     </g>
     <g id="text_6">
      <!-- $\mathdefault{150}$ -->
      <g transform="translate(192.500606 125.099942) scale(0.1 -0.1)">
       <defs>
        <path id="CMR17-35" d="M 730 3692 
C 794 3666 1056 3584 1325 3584 
C 1920 3584 2246 3911 2432 4100 
C 2432 4157 2432 4192 2394 4192 
C 2387 4192 2374 4192 2323 4163 
C 2099 4058 1837 3973 1517 3973 
C 1325 3973 1037 3999 723 4139 
C 653 4171 640 4171 634 4171 
C 602 4171 595 4164 595 4037 
L 595 2203 
C 595 2089 595 2057 659 2057 
C 691 2057 704 2070 736 2114 
C 941 2401 1222 2522 1542 2522 
C 1766 2522 2246 2382 2246 1289 
C 2246 1085 2246 715 2054 421 
C 1894 159 1645 25 1370 25 
C 947 25 518 320 403 814 
C 429 807 480 795 506 795 
C 589 795 749 840 749 1038 
C 749 1210 627 1280 506 1280 
C 358 1280 262 1190 262 1011 
C 262 454 704 -128 1382 -128 
C 2042 -128 2669 440 2669 1264 
C 2669 2030 2170 2624 1549 2624 
C 1222 2624 947 2503 730 2274 
L 730 3692 
z
" transform="scale(0.015625)"/>
       </defs>
       <use xlink:href="#CMR17-31" transform="scale(0.996264)"/>
       <use xlink:href="#CMR17-35" transform="translate(45.690477 0) scale(0.996264)"/>
       <use xlink:href="#CMR17-30" transform="translate(91.380954 0) scale(0.996264)"/>
      </g>
     </g>
    </g>
    <g id="xtick_7">
     <g id="line2d_7">
      <g>
       <use xlink:href="#ma6e9a64b94" x="229.37811" y="111.181443" style="stroke: #000000; stroke-width: 0.8"/>
      </g>
     </g>
     <g id="text_7">
      <!-- $\mathdefault{180}$ -->
      <g transform="translate(221.906107 125.099942) scale(0.1 -0.1)">
       <defs>
        <path id="CMR17-38" d="M 1741 2264 
C 2144 2467 2554 2773 2554 3263 
C 2554 3841 1990 4179 1472 4179 
C 890 4179 378 3759 378 3180 
C 378 3021 416 2747 666 2505 
C 730 2442 998 2251 1171 2130 
C 883 1983 211 1634 211 934 
C 211 279 838 -128 1459 -128 
C 2144 -128 2720 362 2720 1010 
C 2720 1590 2330 1857 2074 2029 
L 1741 2264 
z
M 902 2822 
C 851 2854 595 3051 595 3351 
C 595 3739 998 4032 1459 4032 
C 1965 4032 2336 3676 2336 3262 
C 2336 2669 1670 2331 1638 2331 
C 1632 2331 1626 2331 1574 2370 
L 902 2822 
z
M 2080 1519 
C 2176 1449 2483 1240 2483 851 
C 2483 381 2010 25 1472 25 
C 890 25 448 438 448 940 
C 448 1443 838 1862 1280 2060 
L 2080 1519 
z
" transform="scale(0.015625)"/>
       </defs>
       <use xlink:href="#CMR17-31" transform="scale(0.996264)"/>
       <use xlink:href="#CMR17-38" transform="translate(45.690477 0) scale(0.996264)"/>
       <use xlink:href="#CMR17-30" transform="translate(91.380954 0) scale(0.996264)"/>
      </g>
     </g>
    </g>
    <g id="text_8">
     <!-- $\phi (^o)$ -->
     <g transform="translate(132.103891 138.5091) scale(0.1 -0.1)">
      <defs>
       <path id="CMMI12-1e" d="M 2752 4390 
C 2752 4448 2707 4448 2688 4448 
C 2630 4448 2624 4435 2598 4326 
L 2253 2939 
C 2234 2856 2227 2849 2221 2843 
C 2214 2830 2170 2824 2157 2824 
C 1107 2734 301 1864 301 1057 
C 301 361 832 -64 1498 -64 
C 1446 -261 1402 -463 1350 -659 
C 1261 -995 1210 -1204 1210 -1229 
C 1210 -1241 1210 -1280 1274 -1280 
C 1293 -1280 1318 -1280 1331 -1254 
C 1344 -1241 1382 -1089 1408 -1008 
L 1645 -64 
C 2739 -64 3571 854 3571 1680 
C 3571 2343 3085 2816 2374 2816 
L 2752 4390 
z
M 2336 2701 
C 2758 2701 3181 2463 3181 1828 
C 3181 1097 2675 128 1677 50 
L 2336 2701 
z
M 1530 50 
C 1216 50 691 220 691 938 
C 691 1761 1274 2676 2195 2676 
L 1530 50 
z
" transform="scale(0.015625)"/>
       <path id="CMR17-28" d="M 1958 -1561 
C 1958 -1555 1958 -1542 1939 -1523 
C 1645 -1224 858 -407 858 1581 
C 858 3569 1632 4379 1946 4697 
C 1946 4704 1958 4717 1958 4736 
C 1958 4755 1939 4768 1914 4768 
C 1843 4768 1299 4296 986 3594 
C 666 2887 576 2199 576 1588 
C 576 1128 621 351 1005 -471 
C 1312 -1135 1837 -1600 1914 -1600 
C 1946 -1600 1958 -1587 1958 -1561 
z
" transform="scale(0.015625)"/>
       <path id="CMMI12-6f" d="M 2918 1756 
C 2918 2363 2522 2816 1939 2816 
C 1094 2816 262 1897 262 996 
C 262 390 659 -64 1242 -64 
C 2093 -64 2918 856 2918 1756 
z
M 1248 64 
C 928 64 691 319 691 766 
C 691 1060 845 1712 1024 2031 
C 1312 2523 1670 2689 1933 2689 
C 2246 2689 2490 2433 2490 1986 
C 2490 1731 2355 1047 2112 658 
C 1850 230 1498 64 1248 64 
z
" transform="scale(0.015625)"/>
       <path id="CMR17-29" d="M 1683 1581 
C 1683 2040 1638 2817 1254 3639 
C 947 4303 422 4768 346 4768 
C 326 4768 301 4761 301 4729 
C 301 4717 307 4710 314 4697 
C 621 4378 1402 3568 1402 1584 
C 1402 -407 627 -1217 314 -1537 
C 307 -1549 301 -1556 301 -1568 
C 301 -1600 326 -1600 346 -1600 
C 416 -1600 960 -1128 1274 -426 
C 1594 281 1683 969 1683 1581 
z
" transform="scale(0.015625)"/>
      </defs>
      <use xlink:href="#CMMI12-1e" transform="scale(0.996264)"/>
      <use xlink:href="#CMR17-28" transform="translate(57.73418 0) scale(0.996264)"/>
      <use xlink:href="#CMMI12-6f" transform="translate(93.014948 36.153639) scale(0.697382)"/>
      <use xlink:href="#CMR17-29" transform="translate(126.339642 0) scale(0.996264)"/>
     </g>
    </g>
   </g>
   <g id="matplotlib.axis_2">
    <g id="ytick_1">
     <g id="line2d_8">
      <defs>
       <path id="m40a2aed93b" d="M 0 0 
L -3.5 0 
" style="stroke: #000000; stroke-width: 0.8"/>
      </defs>
      <g>
       <use xlink:href="#m40a2aed93b" x="44.123453" y="96.94423" style="stroke: #000000; stroke-width: 0.8"/>
      </g>
     </g>
     <g id="text_9">
      <!-- $\mathdefault{10^{-2}}$ -->
      <g transform="translate(16.96288 100.403479) scale(0.1 -0.1)">
       <defs>
        <path id="CMSY10-0" d="M 4218 1472 
C 4326 1472 4442 1472 4442 1600 
C 4442 1728 4326 1728 4218 1728 
L 755 1728 
C 646 1728 531 1728 531 1600 
C 531 1472 646 1472 755 1472 
L 4218 1472 
z
" transform="scale(0.015625)"/>
       </defs>
       <use xlink:href="#CMR17-31" transform="scale(0.996264)"/>
       <use xlink:href="#CMR17-30" transform="translate(45.690477 0) scale(0.996264)"/>
       <use xlink:href="#CMSY10-0" transform="translate(91.380954 36.153639) scale(0.697382)"/>
       <use xlink:href="#CMR17-32" transform="translate(145.621947 36.153639) scale(0.697382)"/>
      </g>
     </g>
    </g>
    <g id="ytick_2">
     <g id="line2d_9">
      <g>
       <use xlink:href="#m40a2aed93b" x="44.123453" y="76.608717" style="stroke: #000000; stroke-width: 0.8"/>
      </g>
     </g>
     <g id="text_10">
      <!-- $\mathdefault{10^{-1}}$ -->
      <g transform="translate(16.96288 80.067966) scale(0.1 -0.1)">
       <use xlink:href="#CMR17-31" transform="scale(0.996264)"/>
       <use xlink:href="#CMR17-30" transform="translate(45.690477 0) scale(0.996264)"/>
       <use xlink:href="#CMSY10-0" transform="translate(91.380954 36.153639) scale(0.697382)"/>
       <use xlink:href="#CMR17-31" transform="translate(145.621947 36.153639) scale(0.697382)"/>
      </g>
     </g>
    </g>
    <g id="ytick_3">
     <g id="line2d_10">
      <g>
       <use xlink:href="#m40a2aed93b" x="44.123453" y="56.273203" style="stroke: #000000; stroke-width: 0.8"/>
      </g>
     </g>
     <g id="text_11">
      <!-- $\mathdefault{10^{0}}$ -->
      <g transform="translate(23.189545 59.732453) scale(0.1 -0.1)">
       <use xlink:href="#CMR17-31" transform="scale(0.996264)"/>
       <use xlink:href="#CMR17-30" transform="translate(45.690477 0) scale(0.996264)"/>
       <use xlink:href="#CMR17-30" transform="translate(91.380954 36.153639) scale(0.697382)"/>
      </g>
     </g>
    </g>
    <g id="ytick_4">
     <g id="line2d_11">
      <g>
       <use xlink:href="#m40a2aed93b" x="44.123453" y="35.93769" style="stroke: #000000; stroke-width: 0.8"/>
      </g>
     </g>
     <g id="text_12">
      <!-- $\mathdefault{10^{1}}$ -->
      <g transform="translate(23.189545 39.396939) scale(0.1 -0.1)">
       <use xlink:href="#CMR17-31" transform="scale(0.996264)"/>
       <use xlink:href="#CMR17-30" transform="translate(45.690477 0) scale(0.996264)"/>
       <use xlink:href="#CMR17-31" transform="translate(91.380954 36.153639) scale(0.697382)"/>
      </g>
     </g>
    </g>
    <g id="ytick_5">
     <g id="line2d_12">
      <g>
       <use xlink:href="#m40a2aed93b" x="44.123453" y="15.602176" style="stroke: #000000; stroke-width: 0.8"/>
      </g>
     </g>
     <g id="text_13">
      <!-- $\mathdefault{10^{2}}$ -->
      <g transform="translate(23.189545 19.061426) scale(0.1 -0.1)">
       <use xlink:href="#CMR17-31" transform="scale(0.996264)"/>
       <use xlink:href="#CMR17-30" transform="translate(45.690477 0) scale(0.996264)"/>
       <use xlink:href="#CMR17-32" transform="translate(91.380954 36.153639) scale(0.697382)"/>
      </g>
     </g>
    </g>
    <g id="ytick_6">
     <g id="line2d_13">
      <defs>
       <path id="m71cd0cfb87" d="M 0 0 
L -2 0 
" style="stroke: #000000; stroke-width: 0.6"/>
      </defs>
      <g>
       <use xlink:href="#m71cd0cfb87" x="44.123453" y="111.158144" style="stroke: #000000; stroke-width: 0.6"/>
      </g>
     </g>
    </g>
    <g id="ytick_7">
     <g id="line2d_14">
      <g>
       <use xlink:href="#m71cd0cfb87" x="44.123453" y="107.577238" style="stroke: #000000; stroke-width: 0.6"/>
      </g>
     </g>
    </g>
    <g id="ytick_8">
     <g id="line2d_15">
      <g>
       <use xlink:href="#m71cd0cfb87" x="44.123453" y="105.036545" style="stroke: #000000; stroke-width: 0.6"/>
      </g>
     </g>
    </g>
    <g id="ytick_9">
     <g id="line2d_16">
      <g>
       <use xlink:href="#m71cd0cfb87" x="44.123453" y="103.06583" style="stroke: #000000; stroke-width: 0.6"/>
      </g>
     </g>
    </g>
    <g id="ytick_10">
     <g id="line2d_17">
      <g>
       <use xlink:href="#m71cd0cfb87" x="44.123453" y="101.455638" style="stroke: #000000; stroke-width: 0.6"/>
      </g>
     </g>
    </g>
    <g id="ytick_11">
     <g id="line2d_18">
      <g>
       <use xlink:href="#m71cd0cfb87" x="44.123453" y="100.094241" style="stroke: #000000; stroke-width: 0.6"/>
      </g>
     </g>
    </g>
    <g id="ytick_12">
     <g id="line2d_19">
      <g>
       <use xlink:href="#m71cd0cfb87" x="44.123453" y="98.914945" style="stroke: #000000; stroke-width: 0.6"/>
      </g>
     </g>
    </g>
    <g id="ytick_13">
     <g id="line2d_20">
      <g>
       <use xlink:href="#m71cd0cfb87" x="44.123453" y="97.874732" style="stroke: #000000; stroke-width: 0.6"/>
      </g>
     </g>
    </g>
    <g id="ytick_14">
     <g id="line2d_21">
      <g>
       <use xlink:href="#m71cd0cfb87" x="44.123453" y="90.822631" style="stroke: #000000; stroke-width: 0.6"/>
      </g>
     </g>
    </g>
    <g id="ytick_15">
     <g id="line2d_22">
      <g>
       <use xlink:href="#m71cd0cfb87" x="44.123453" y="87.241725" style="stroke: #000000; stroke-width: 0.6"/>
      </g>
     </g>
    </g>
    <g id="ytick_16">
     <g id="line2d_23">
      <g>
       <use xlink:href="#m71cd0cfb87" x="44.123453" y="84.701031" style="stroke: #000000; stroke-width: 0.6"/>
      </g>
     </g>
    </g>
    <g id="ytick_17">
     <g id="line2d_24">
      <g>
       <use xlink:href="#m71cd0cfb87" x="44.123453" y="82.730316" style="stroke: #000000; stroke-width: 0.6"/>
      </g>
     </g>
    </g>
    <g id="ytick_18">
     <g id="line2d_25">
      <g>
       <use xlink:href="#m71cd0cfb87" x="44.123453" y="81.120125" style="stroke: #000000; stroke-width: 0.6"/>
      </g>
     </g>
    </g>
    <g id="ytick_19">
     <g id="line2d_26">
      <g>
       <use xlink:href="#m71cd0cfb87" x="44.123453" y="79.758728" style="stroke: #000000; stroke-width: 0.6"/>
      </g>
     </g>
    </g>
    <g id="ytick_20">
     <g id="line2d_27">
      <g>
       <use xlink:href="#m71cd0cfb87" x="44.123453" y="78.579432" style="stroke: #000000; stroke-width: 0.6"/>
      </g>
     </g>
    </g>
    <g id="ytick_21">
     <g id="line2d_28">
      <g>
       <use xlink:href="#m71cd0cfb87" x="44.123453" y="77.539219" style="stroke: #000000; stroke-width: 0.6"/>
      </g>
     </g>
    </g>
    <g id="ytick_22">
     <g id="line2d_29">
      <g>
       <use xlink:href="#m71cd0cfb87" x="44.123453" y="70.487117" style="stroke: #000000; stroke-width: 0.6"/>
      </g>
     </g>
    </g>
    <g id="ytick_23">
     <g id="line2d_30">
      <g>
       <use xlink:href="#m71cd0cfb87" x="44.123453" y="66.906211" style="stroke: #000000; stroke-width: 0.6"/>
      </g>
     </g>
    </g>
    <g id="ytick_24">
     <g id="line2d_31">
      <g>
       <use xlink:href="#m71cd0cfb87" x="44.123453" y="64.365518" style="stroke: #000000; stroke-width: 0.6"/>
      </g>
     </g>
    </g>
    <g id="ytick_25">
     <g id="line2d_32">
      <g>
       <use xlink:href="#m71cd0cfb87" x="44.123453" y="62.394803" style="stroke: #000000; stroke-width: 0.6"/>
      </g>
     </g>
    </g>
    <g id="ytick_26">
     <g id="line2d_33">
      <g>
       <use xlink:href="#m71cd0cfb87" x="44.123453" y="60.784612" style="stroke: #000000; stroke-width: 0.6"/>
      </g>
     </g>
    </g>
    <g id="ytick_27">
     <g id="line2d_34">
      <g>
       <use xlink:href="#m71cd0cfb87" x="44.123453" y="59.423214" style="stroke: #000000; stroke-width: 0.6"/>
      </g>
     </g>
    </g>
    <g id="ytick_28">
     <g id="line2d_35">
      <g>
       <use xlink:href="#m71cd0cfb87" x="44.123453" y="58.243918" style="stroke: #000000; stroke-width: 0.6"/>
      </g>
     </g>
    </g>
    <g id="ytick_29">
     <g id="line2d_36">
      <g>
       <use xlink:href="#m71cd0cfb87" x="44.123453" y="57.203705" style="stroke: #000000; stroke-width: 0.6"/>
      </g>
     </g>
    </g>
    <g id="ytick_30">
     <g id="line2d_37">
      <g>
       <use xlink:href="#m71cd0cfb87" x="44.123453" y="50.151604" style="stroke: #000000; stroke-width: 0.6"/>
      </g>
     </g>
    </g>
    <g id="ytick_31">
     <g id="line2d_38">
      <g>
       <use xlink:href="#m71cd0cfb87" x="44.123453" y="46.570698" style="stroke: #000000; stroke-width: 0.6"/>
      </g>
     </g>
    </g>
    <g id="ytick_32">
     <g id="line2d_39">
      <g>
       <use xlink:href="#m71cd0cfb87" x="44.123453" y="44.030004" style="stroke: #000000; stroke-width: 0.6"/>
      </g>
     </g>
    </g>
    <g id="ytick_33">
     <g id="line2d_40">
      <g>
       <use xlink:href="#m71cd0cfb87" x="44.123453" y="42.059289" style="stroke: #000000; stroke-width: 0.6"/>
      </g>
     </g>
    </g>
    <g id="ytick_34">
     <g id="line2d_41">
      <g>
       <use xlink:href="#m71cd0cfb87" x="44.123453" y="40.449098" style="stroke: #000000; stroke-width: 0.6"/>
      </g>
     </g>
    </g>
    <g id="ytick_35">
     <g id="line2d_42">
      <g>
       <use xlink:href="#m71cd0cfb87" x="44.123453" y="39.087701" style="stroke: #000000; stroke-width: 0.6"/>
      </g>
     </g>
    </g>
    <g id="ytick_36">
     <g id="line2d_43">
      <g>
       <use xlink:href="#m71cd0cfb87" x="44.123453" y="37.908405" style="stroke: #000000; stroke-width: 0.6"/>
      </g>
     </g>
    </g>
    <g id="ytick_37">
     <g id="line2d_44">
      <g>
       <use xlink:href="#m71cd0cfb87" x="44.123453" y="36.868192" style="stroke: #000000; stroke-width: 0.6"/>
      </g>
     </g>
    </g>
    <g id="ytick_38">
     <g id="line2d_45">
      <g>
       <use xlink:href="#m71cd0cfb87" x="44.123453" y="29.81609" style="stroke: #000000; stroke-width: 0.6"/>
      </g>
     </g>
    </g>
    <g id="ytick_39">
     <g id="line2d_46">
      <g>
       <use xlink:href="#m71cd0cfb87" x="44.123453" y="26.235184" style="stroke: #000000; stroke-width: 0.6"/>
      </g>
     </g>
    </g>
    <g id="ytick_40">
     <g id="line2d_47">
      <g>
       <use xlink:href="#m71cd0cfb87" x="44.123453" y="23.694491" style="stroke: #000000; stroke-width: 0.6"/>
      </g>
     </g>
    </g>
    <g id="ytick_41">
     <g id="line2d_48">
      <g>
       <use xlink:href="#m71cd0cfb87" x="44.123453" y="21.723776" style="stroke: #000000; stroke-width: 0.6"/>
      </g>
     </g>
    </g>
    <g id="ytick_42">
     <g id="line2d_49">
      <g>
       <use xlink:href="#m71cd0cfb87" x="44.123453" y="20.113585" style="stroke: #000000; stroke-width: 0.6"/>
      </g>
     </g>
    </g>
    <g id="ytick_43">
     <g id="line2d_50">
      <g>
       <use xlink:href="#m71cd0cfb87" x="44.123453" y="18.752187" style="stroke: #000000; stroke-width: 0.6"/>
      </g>
     </g>
    </g>
    <g id="ytick_44">
     <g id="line2d_51">
      <g>
       <use xlink:href="#m71cd0cfb87" x="44.123453" y="17.572891" style="stroke: #000000; stroke-width: 0.6"/>
      </g>
     </g>
    </g>
    <g id="ytick_45">
     <g id="line2d_52">
      <g>
       <use xlink:href="#m71cd0cfb87" x="44.123453" y="16.532679" style="stroke: #000000; stroke-width: 0.6"/>
      </g>
     </g>
    </g>
    <g id="ytick_46">
     <g id="line2d_53">
      <g>
       <use xlink:href="#m71cd0cfb87" x="44.123453" y="9.480577" style="stroke: #000000; stroke-width: 0.6"/>
      </g>
     </g>
    </g>
    <g id="ytick_47">
     <g id="line2d_54">
      <g>
       <use xlink:href="#m71cd0cfb87" x="44.123453" y="5.899671" style="stroke: #000000; stroke-width: 0.6"/>
      </g>
     </g>
    </g>
    <g id="ytick_48">
     <g id="line2d_55">
      <g>
       <use xlink:href="#m71cd0cfb87" x="44.123453" y="3.358977" style="stroke: #000000; stroke-width: 0.6"/>
      </g>
     </g>
    </g>
    <g id="text_14">
     <!-- $\sigma / \lambda$ -->
     <g transform="translate(10.47222 65.512401) rotate(-90) scale(0.1 -0.1)">
      <defs>
       <path id="CMMI12-1b" d="M 3251 2408 
C 3334 2408 3546 2408 3546 2612 
C 3546 2752 3424 2752 3309 2752 
L 1894 2752 
C 934 2752 243 1686 243 932 
C 243 390 595 -64 1171 -64 
C 1926 -64 2752 747 2752 1705 
C 2752 1954 2694 2196 2541 2408 
L 3251 2408 
z
M 1178 64 
C 851 64 614 313 614 754 
C 614 1137 845 2408 1786 2408 
C 2061 2408 2368 2274 2368 1781 
C 2368 1558 2266 1021 2042 652 
C 1811 275 1466 64 1178 64 
z
" transform="scale(0.015625)"/>
       <path id="CMMI12-3d" d="M 2746 4562 
C 2746 4569 2784 4666 2784 4678 
C 2784 4755 2720 4800 2669 4800 
C 2637 4800 2579 4800 2528 4659 
L 384 -1363 
C 384 -1370 346 -1465 346 -1478 
C 346 -1555 410 -1600 461 -1600 
C 499 -1600 557 -1593 602 -1459 
L 2746 4562 
z
" transform="scale(0.015625)"/>
       <path id="CMMI12-15" d="M 1978 3965 
C 1818 4416 1312 4416 1229 4416 
C 1190 4416 1120 4416 1120 4352 
C 1120 4302 1158 4295 1190 4289 
C 1286 4276 1363 4263 1466 4080 
C 1530 3959 2189 2059 2189 2046 
C 2189 2040 2182 2033 2131 1982 
L 467 311 
C 390 234 339 183 339 102 
C 339 12 416 -64 518 -64 
C 544 -64 614 -51 653 -13 
C 755 82 1670 1194 2253 1881 
C 2419 1383 2624 797 2822 261 
C 2854 166 2886 76 2976 -6 
C 3040 -64 3053 -64 3232 -64 
L 3354 -64 
C 3379 -64 3424 -64 3424 -13 
C 3424 13 3418 19 3392 45 
C 3334 115 3290 229 3264 306 
L 1978 3965 
z
" transform="scale(0.015625)"/>
      </defs>
      <use xlink:href="#CMMI12-1b" transform="scale(0.996264)"/>
      <use xlink:href="#CMMI12-3d" transform="translate(59.020054 0) scale(0.996264)"/>
      <use xlink:href="#CMMI12-15" transform="translate(107.794972 0) scale(0.996264)"/>
     </g>
    </g>
   </g>
   <g id="line2d_56">
    <path d="M 52.945104 8.526729 
L 53.925287 8.618248 
L 54.905471 8.893799 
L 55.885654 9.356453 
L 56.865837 10.011652 
L 57.846021 10.867729 
L 58.826204 11.936734 
L 59.806387 13.235686 
L 60.786571 14.788464 
L 61.766754 16.628728 
L 62.746937 18.80459 
L 63.727121 21.386461 
L 64.707304 24.481138 
L 65.687488 28.25913 
L 66.667671 33.013116 
L 67.647854 39.297294 
L 68.628038 48.265188 
L 69.608221 60.755143 
L 70.588404 57.72134 
L 71.568588 47.323788 
L 72.548771 40.763575 
L 73.528954 36.490878 
L 74.509138 33.613115 
L 75.489321 31.706008 
L 76.469505 30.552277 
L 77.449688 30.038155 
L 78.429871 30.110432 
L 79.410055 30.758645 
L 80.390238 32.010313 
L 81.370421 33.936097 
L 82.350605 36.667036 
L 83.330788 40.431558 
L 84.310972 45.62134 
L 86.271338 60.647215 
L 87.251522 59.08996 
L 88.231705 51.554663 
L 89.211888 45.742369 
L 90.192072 41.775495 
L 91.172255 39.141372 
L 92.152438 37.522485 
L 93.132622 36.74694 
L 94.112805 36.733749 
L 95.092989 37.467757 
L 96.073172 38.995808 
L 97.053355 41.443823 
L 98.033539 45.069641 
L 99.013722 50.40572 
L 99.993905 58.681913 
L 100.974089 72.37985 
L 101.954272 71.10729 
L 102.934455 58.604246 
L 103.914639 51.360189 
L 104.894822 46.891661 
L 105.875006 44.085654 
L 106.855189 42.461099 
L 107.835372 41.793373 
L 108.815556 41.988736 
L 109.795739 43.042502 
L 110.775922 45.037349 
L 111.756106 48.181158 
L 112.736289 52.928903 
L 113.716472 60.398297 
L 114.696656 74.534228 
L 115.676839 93.123293 
L 116.657023 67.764829 
L 117.637206 58.170428 
L 118.617389 52.801321 
L 119.597573 49.544854 
L 120.577756 47.673765 
L 121.557939 46.876417 
L 122.538123 47.02299 
L 123.518306 48.094921 
L 124.49849 50.175416 
L 125.478673 53.489499 
L 126.458856 58.542075 
L 127.43904 66.589585 
L 128.419223 81.665117 
L 129.399406 85.468444 
L 130.37959 69.248614 
L 131.359773 61.166498 
L 132.339956 56.423157 
L 133.32014 53.536118 
L 134.300323 51.925173 
L 135.280507 51.326979 
L 136.26069 51.627173 
L 137.240873 52.805112 
L 138.221057 54.923948 
L 139.20124 58.155142 
L 140.181423 62.85816 
L 141.161607 69.788545 
L 142.14179 80.376716 
L 143.121973 88.111603 
L 144.102157 77.970837 
L 145.08234 70.140771 
L 146.062524 65.445492 
L 147.042707 62.654033 
L 148.02289 61.171895 
L 149.003074 60.703858 
L 149.983257 61.096867 
L 150.96344 62.274796 
L 151.943624 64.208258 
L 152.923807 66.896865 
L 153.903991 70.350035 
L 154.884174 74.546256 
L 156.844541 84.179865 
L 157.824724 88.093612 
L 158.804907 90.321937 
L 160.765274 92.325822 
L 161.745457 93.373208 
L 162.725641 93.953142 
L 163.705824 93.142514 
L 164.686008 90.874145 
L 168.606741 79.182049 
L 170.567108 72.476788 
L 172.527474 65.627084 
L 173.507658 62.628423 
L 174.487841 60.066273 
L 175.468025 57.992713 
L 176.448208 56.436906 
L 177.428391 55.421858 
L 178.408575 54.976429 
L 179.388758 55.145967 
L 180.368941 56.00575 
L 181.349125 57.683948 
L 182.329308 60.409571 
L 183.309491 64.632243 
L 184.289675 71.403113 
L 185.269858 84.241027 
L 186.250042 106.264116 
L 187.230225 78.719528 
L 188.210408 68.028942 
L 189.190592 61.732611 
L 190.170775 57.508643 
L 191.150958 54.541375 
L 192.131142 52.43861 
L 193.111325 50.968891 
L 194.091509 49.970141 
L 195.071692 49.311286 
L 196.051875 48.876675 
L 198.992425 48.027717 
L 200.952792 47.534795 
L 201.932975 47.420884 
L 202.913159 47.499746 
L 203.893342 47.853938 
L 204.873526 48.563315 
L 205.853709 49.706869 
L 206.833892 51.367848 
L 207.814076 53.639162 
L 208.794259 56.621894 
L 209.774442 60.389119 
L 211.734809 68.908276 
L 212.714992 70.390921 
L 213.695176 68.521498 
L 214.675359 65.588543 
L 215.655543 63.181885 
L 216.635726 61.717356 
L 217.615909 61.248621 
L 218.596093 61.793916 
L 219.576276 63.435539 
L 220.556459 66.38873 
L 221.536643 71.148986 
L 222.516826 78.99662 
L 223.49701 94.965137 
L 224.477193 106.013274 
L 225.457376 83.800095 
L 226.43756 75.237698 
L 227.417743 70.673009 
L 228.397926 68.310604 
L 229.37811 67.57226 
L 229.37811 67.57226 
" clip-path="url(#pd099800029)" style="fill: none; stroke: #0000ff; stroke-width: 0.75; stroke-linecap: square"/>
   </g>
   <g id="line2d_57">
    <path d="M 52.945104 19.840768 
L 53.925287 19.916919 
L 54.905471 19.805064 
L 55.885654 18.756854 
L 56.865837 16.491618 
L 58.826204 10.984691 
L 59.806387 9.02492 
L 60.786571 7.966455 
L 61.766754 7.923141 
L 62.746937 9.01317 
L 63.727121 11.435128 
L 64.707304 15.579829 
L 65.687488 22.314929 
L 66.667671 33.906013 
L 67.647854 47.076089 
L 68.628038 33.125068 
L 69.608221 24.863247 
L 70.588404 20.961708 
L 71.568588 19.692845 
L 72.548771 20.528935 
L 73.528954 23.498122 
L 74.509138 29.16193 
L 75.489321 38.831125 
L 76.469505 47.267831 
L 77.449688 37.857506 
L 78.429871 30.576596 
L 79.410055 27.112722 
L 80.390238 26.380019 
L 81.370421 28.062066 
L 82.350605 32.368638 
L 83.330788 39.668524 
L 84.310972 45.49183 
L 86.271338 33.808937 
L 87.251522 30.775781 
L 88.231705 30.461987 
L 89.211888 32.761831 
L 90.192072 38.05145 
L 91.172255 46.256345 
L 92.152438 47.756513 
L 93.132622 40.163709 
L 94.112805 34.98438 
L 95.092989 32.899287 
L 96.073172 33.493547 
L 97.053355 36.882571 
L 98.033539 43.871955 
L 99.013722 54.017296 
L 99.993905 50.250069 
L 100.974089 41.682544 
L 101.954272 37.32564 
L 102.934455 36.300544 
L 103.914639 38.317645 
L 104.894822 44.080738 
L 105.875006 56.039624 
L 106.855189 60.23971 
L 107.835372 47.008596 
L 108.815556 40.555507 
L 109.795739 38.391806 
L 110.775922 39.630853 
L 111.756106 44.85034 
L 112.736289 57.984925 
L 113.716472 80.707634 
L 114.696656 50.971057 
L 115.676839 42.41784 
L 116.657023 39.211019 
L 117.637206 39.442411 
L 118.617389 43.028924 
L 119.597573 51.296046 
L 120.577756 65.760619 
L 122.538123 46.413005 
L 123.518306 42.120056 
L 124.49849 41.3102 
L 125.478673 43.482611 
L 126.458856 49.061937 
L 127.43904 59.220702 
L 128.419223 64.153779 
L 129.399406 54.38642 
L 130.37959 48.53474 
L 131.359773 46.509793 
L 132.339956 47.497867 
L 133.32014 51.600547 
L 134.300323 60.22159 
L 135.280507 79.194829 
L 136.26069 72.918871 
L 137.240873 60.50002 
L 138.221057 55.670685 
L 139.20124 54.506291 
L 140.181423 55.917946 
L 141.161607 59.605288 
L 142.14179 65.703374 
L 144.102157 84.014486 
L 145.08234 77.560913 
L 146.062524 68.487082 
L 147.042707 62.436917 
L 148.02289 58.848906 
L 149.003074 57.493365 
L 149.983257 58.545403 
L 150.96344 62.745336 
L 152.923807 82.101868 
L 153.903991 67.485279 
L 154.884174 58.492298 
L 155.864357 53.995972 
L 156.844541 52.417413 
L 157.824724 53.256022 
L 158.804907 56.348024 
L 159.785091 60.741138 
L 160.765274 61.750903 
L 162.725641 52.785275 
L 163.705824 50.192649 
L 164.686008 49.504858 
L 165.666191 50.331242 
L 166.646374 51.856244 
L 167.626558 52.656671 
L 168.606741 51.917559 
L 169.586924 50.669308 
L 170.567108 50.275855 
L 171.547291 51.346626 
L 172.527474 53.678867 
L 173.507658 55.701274 
L 174.487841 55.110042 
L 175.468025 52.834051 
L 176.448208 51.41909 
L 177.428391 52.110331 
L 178.408575 55.573386 
L 179.388758 62.627755 
L 180.368941 71.797049 
L 181.349125 69.211771 
L 182.329308 63.436666 
L 183.309491 61.426045 
L 184.289675 60.487725 
L 185.269858 56.003374 
L 186.250042 49.377559 
L 187.230225 44.067208 
L 188.210408 40.908459 
L 189.190592 39.9516 
L 190.170775 41.311155 
L 191.150958 45.385233 
L 192.131142 52.555955 
L 193.111325 57.052088 
L 195.071692 43.746189 
L 196.051875 40.261875 
L 197.032059 38.974928 
L 198.012242 39.189947 
L 199.972609 40.97729 
L 201.932975 41.498688 
L 202.913159 42.55645 
L 203.893342 45.2647 
L 204.873526 50.563216 
L 205.853709 60.515283 
L 206.833892 84.67255 
L 208.794259 61.233767 
L 209.774442 57.875594 
L 210.754626 58.767465 
L 211.734809 63.257687 
L 212.714992 70.884533 
L 213.695176 75.038245 
L 214.675359 71.069544 
L 215.655543 68.621673 
L 216.635726 68.516618 
L 217.615909 65.62465 
L 219.576276 51.362227 
L 220.556459 46.452079 
L 221.536643 43.477246 
L 222.516826 42.225863 
L 223.49701 42.57787 
L 224.477193 44.510705 
L 225.457376 48.075436 
L 226.43756 53.331292 
L 228.397926 67.058078 
L 229.37811 70.414446 
L 229.37811 70.414446 
" clip-path="url(#pd099800029)" style="fill: none; stroke: #00bfbf; stroke-width: 0.75; stroke-linecap: square"/>
   </g>
   <g id="line2d_58">
    <path d="M 52.945104 8.574295 
L 53.925287 8.64318 
L 54.905471 8.87651 
L 55.885654 9.312326 
L 56.865837 9.975569 
L 57.846021 10.865922 
L 58.826204 11.9628 
L 59.806387 13.255595 
L 60.786571 14.768872 
L 61.766754 16.563282 
L 62.746937 18.727556 
L 63.727121 21.354719 
L 64.707304 24.542237 
L 65.687488 28.437872 
L 66.667671 33.311425 
L 67.647854 39.702672 
L 68.628038 48.7517 
L 69.608221 60.855194 
L 70.588404 57.52768 
L 71.568588 47.667968 
L 72.548771 41.256636 
L 73.528954 36.901353 
L 74.509138 33.811143 
L 75.489321 31.658689 
L 76.469505 30.331645 
L 77.449688 29.778174 
L 78.429871 29.937244 
L 79.410055 30.750726 
L 80.390238 32.195998 
L 81.370421 34.287465 
L 82.350605 37.088672 
L 83.330788 40.749747 
L 84.310972 45.564853 
L 85.291155 52.026492 
L 86.271338 59.452307 
L 87.251522 58.93074 
L 88.231705 51.386821 
L 89.211888 45.494741 
L 90.192072 41.741227 
L 91.172255 39.441142 
L 92.152438 38.019553 
L 93.132622 37.143765 
L 94.112805 36.790163 
L 95.092989 37.181562 
L 96.073172 38.619597 
L 97.053355 41.337325 
L 98.033539 45.472166 
L 99.013722 51.22233 
L 99.993905 59.339358 
L 100.974089 71.605206 
L 101.954272 70.580851 
L 102.934455 57.898465 
L 103.914639 50.34331 
L 104.894822 45.988735 
L 105.875006 43.595396 
L 106.855189 42.370503 
L 107.835372 41.778842 
L 108.815556 41.690994 
L 109.795739 42.376782 
L 110.775922 44.232548 
L 111.756106 47.623253 
L 112.736289 52.943769 
L 113.716472 61.016734 
L 115.676839 90.034399 
L 116.657023 66.057991 
L 117.637206 56.789202 
L 118.617389 52.003774 
L 119.597573 49.55036 
L 120.577756 48.336325 
L 121.557939 47.578438 
L 122.538123 47.150037 
L 123.518306 47.639691 
L 124.49849 49.663587 
L 125.478673 53.56112 
L 126.458856 59.429442 
L 127.43904 66.912252 
L 128.419223 76.125151 
L 129.399406 87.029974 
L 130.37959 72.722037 
L 131.359773 61.368824 
L 132.339956 55.389219 
L 133.32014 52.530558 
L 134.300323 51.627825 
L 135.280507 51.786757 
L 136.26069 52.203686 
L 137.240873 52.757255 
L 138.221057 54.201766 
L 139.20124 57.393732 
L 140.181423 62.950929 
L 141.161607 71.436431 
L 142.14179 81.932899 
L 143.121973 84.58521 
L 144.102157 79.127116 
L 146.062524 66.729069 
L 147.042707 62.576533 
L 148.02289 60.26639 
L 149.003074 59.613367 
L 149.983257 60.405099 
L 150.96344 62.313187 
L 153.903991 69.848492 
L 154.884174 72.713228 
L 155.864357 76.672267 
L 157.824724 86.613844 
L 158.804907 91.05266 
L 159.785091 96.590952 
L 160.765274 94.871859 
L 161.745457 88.161067 
L 162.725641 84.956587 
L 163.705824 86.023808 
L 164.686008 91.946505 
L 165.666191 91.501746 
L 166.646374 81.436857 
L 167.626558 76.311523 
L 168.606741 75.43378 
L 169.586924 76.175216 
L 170.567108 74.432565 
L 172.527474 64.814163 
L 173.507658 61.378066 
L 174.487841 58.974572 
L 175.468025 57.139503 
L 176.448208 55.783594 
L 177.428391 55.048011 
L 178.408575 54.998638 
L 179.388758 55.47506 
L 180.368941 56.163584 
L 181.349125 57.087158 
L 182.329308 58.828994 
L 183.309491 62.199106 
L 184.289675 68.314106 
L 185.269858 80.16107 
L 186.250042 103.986867 
L 187.230225 79.096889 
L 188.210408 68.336752 
L 189.190592 61.902231 
L 190.170775 57.391047 
L 191.150958 54.179616 
L 192.131142 52.045826 
L 193.111325 50.847497 
L 194.091509 50.343908 
L 195.071692 50.127265 
L 196.051875 49.779629 
L 198.012242 48.46368 
L 198.992425 48.098829 
L 199.972609 48.184134 
L 200.952792 48.447221 
L 201.932975 48.462015 
L 203.893342 47.780447 
L 204.873526 47.967068 
L 205.853709 48.971881 
L 206.833892 50.781251 
L 207.814076 53.223693 
L 208.794259 56.208027 
L 209.774442 59.896249 
L 211.734809 69.606271 
L 212.714992 71.551073 
L 213.695176 68.797759 
L 214.675359 65.216771 
L 215.655543 62.60297 
L 216.635726 61.079076 
L 217.615909 60.609359 
L 218.596093 61.28575 
L 219.576276 63.283161 
L 220.556459 66.79983 
L 221.536643 72.198918 
L 222.516826 80.709636 
L 223.49701 98.485189 
L 224.477193 101.462491 
L 225.457376 82.028078 
L 226.43756 73.869086 
L 227.417743 69.535067 
L 228.397926 67.364802 
L 229.37811 66.712728 
L 229.37811 66.712728 
" clip-path="url(#pd099800029)" style="fill: none; stroke-dasharray: 2.775,1.2; stroke-dashoffset: 0; stroke: #0000ff; stroke-width: 0.75"/>
   </g>
   <g id="line2d_59">
    <path d="M 52.945104 20.88951 
L 54.905471 20.329361 
L 55.885654 19.413924 
L 56.865837 16.994655 
L 57.846021 14.021156 
L 58.826204 11.460595 
L 59.806387 9.370749 
L 60.786571 8.059747 
L 61.766754 7.917567 
L 62.746937 8.822971 
L 63.727121 10.963501 
L 64.707304 15.103165 
L 65.687488 21.834679 
L 66.667671 33.178282 
L 67.647854 47.053035 
L 68.628038 32.616901 
L 69.608221 24.276217 
L 70.588404 19.989693 
L 71.568588 18.953071 
L 72.548771 20.41531 
L 73.528954 23.790491 
L 74.509138 30.443788 
L 75.489321 41.449522 
L 76.469505 46.841952 
L 77.449688 36.920617 
L 78.429871 30.101446 
L 79.410055 27.459127 
L 80.390238 27.087705 
L 81.370421 28.837375 
L 82.350605 33.418836 
L 83.330788 40.796459 
L 84.310972 45.654138 
L 85.291155 40.439698 
L 86.271338 34.238189 
L 87.251522 30.876033 
L 88.231705 31.030676 
L 89.211888 34.068131 
L 90.192072 38.327039 
L 91.172255 43.700248 
L 92.152438 45.628758 
L 93.132622 40.252449 
L 94.112805 35.901117 
L 95.092989 33.173302 
L 96.073172 33.164683 
L 97.053355 36.862953 
L 98.033539 43.238648 
L 99.013722 50.983307 
L 99.993905 49.045882 
L 100.974089 41.090861 
L 101.954272 37.280433 
L 102.934455 35.347549 
L 103.914639 36.303667 
L 104.894822 42.569066 
L 105.875006 54.574674 
L 106.855189 58.293311 
L 107.835372 45.04381 
L 108.815556 39.298573 
L 109.795739 37.191243 
L 110.775922 37.738431 
L 111.756106 44.338642 
L 112.736289 58.627662 
L 113.716472 78.041544 
L 114.696656 47.09638 
L 115.676839 40.455096 
L 116.657023 39.059654 
L 117.637206 38.224008 
L 118.617389 43.840731 
L 119.597573 53.277005 
L 120.577756 59.546867 
L 121.557939 53.554551 
L 122.538123 43.545984 
L 123.518306 42.428356 
L 124.49849 41.48116 
L 125.478673 45.030604 
L 126.458856 53.815606 
L 127.43904 57.409468 
L 128.419223 63.804863 
L 129.399406 52.804096 
L 131.359773 49.136001 
L 132.339956 50.021056 
L 133.32014 58.590327 
L 134.300323 61.249408 
L 135.280507 74.357563 
L 136.26069 76.019485 
L 137.240873 65.179606 
L 138.221057 68.647692 
L 139.20124 60.299288 
L 140.181423 57.151372 
L 141.161607 60.818086 
L 142.14179 62.340315 
L 143.121973 64.641176 
L 144.102157 80.867208 
L 145.08234 90.718856 
L 146.062524 81.963589 
L 147.042707 62.320046 
L 148.02289 56.064068 
L 149.003074 55.611063 
L 149.983257 54.994439 
L 150.96344 58.941775 
L 151.943624 73.316253 
L 152.923807 78.798128 
L 153.903991 69.271669 
L 154.884174 61.10352 
L 155.864357 55.325249 
L 156.844541 53.520887 
L 157.824724 54.932178 
L 158.804907 55.726663 
L 159.785091 58.796972 
L 160.765274 71.384532 
L 162.725641 56.507255 
L 164.686008 47.964496 
L 165.666191 47.994582 
L 166.646374 51.015404 
L 167.626558 52.196031 
L 168.606741 53.179908 
L 169.586924 51.646028 
L 170.567108 49.883241 
L 171.547291 48.743762 
L 172.527474 49.889792 
L 173.507658 54.041533 
L 174.487841 53.692165 
L 176.448208 52.003115 
L 177.428391 52.016959 
L 178.408575 55.265534 
L 179.388758 61.492251 
L 180.368941 70.181632 
L 181.349125 65.28519 
L 182.329308 61.251994 
L 183.309491 59.925443 
L 184.289675 61.537034 
L 185.269858 58.99547 
L 187.230225 43.908837 
L 188.210408 39.349124 
L 189.190592 38.79972 
L 190.170775 40.502869 
L 191.150958 44.671248 
L 192.131142 53.070476 
L 193.111325 56.903219 
L 194.091509 48.597183 
L 195.071692 41.765819 
L 196.051875 38.946518 
L 197.032059 38.733102 
L 199.972609 40.724019 
L 200.952792 41.145222 
L 201.932975 40.607163 
L 202.913159 41.843238 
L 203.893342 46.661319 
L 204.873526 53.096675 
L 205.853709 65.020568 
L 206.833892 100.307324 
L 207.814076 68.947773 
L 208.794259 63.781737 
L 209.774442 60.189273 
L 210.754626 61.84281 
L 211.734809 68.242456 
L 212.714992 69.673817 
L 213.695176 66.782074 
L 214.675359 68.677939 
L 215.655543 74.454429 
L 216.635726 75.010582 
L 217.615909 63.772162 
L 218.596093 56.3713 
L 220.556459 46.95341 
L 221.536643 44.510087 
L 222.516826 43.869306 
L 223.49701 44.064511 
L 224.477193 46.177368 
L 226.43756 53.350917 
L 227.417743 58.638853 
L 228.397926 63.025144 
L 229.37811 63.573428 
L 229.37811 63.573428 
" clip-path="url(#pd099800029)" style="fill: none; stroke-dasharray: 2.775,1.2; stroke-dashoffset: 0; stroke: #00bfbf; stroke-width: 0.75"/>
   </g>
   <g id="patch_3">
    <path d="M 44.123453 111.181443 
L 44.123453 3.00024 
" style="fill: none; stroke: #000000; stroke-width: 0.8; stroke-linejoin: miter; stroke-linecap: square"/>
   </g>
   <g id="patch_4">
    <path d="M 238.19976 111.181443 
L 238.19976 3.00024 
" style="fill: none; stroke: #000000; stroke-width: 0.8; stroke-linejoin: miter; stroke-linecap: square"/>
   </g>
   <g id="patch_5">
    <path d="M 44.123453 111.181443 
L 238.19976 111.181443 
" style="fill: none; stroke: #000000; stroke-width: 0.8; stroke-linejoin: miter; stroke-linecap: square"/>
   </g>
   <g id="patch_6">
    <path d="M 44.123453 3.00024 
L 238.19976 3.00024 
" style="fill: none; stroke: #000000; stroke-width: 0.8; stroke-linejoin: miter; stroke-linecap: square"/>
   </g>
   <g id="axes_2">
    <g id="patch_7">
     <path d="M 154.746948 26.800105 
L 232.377471 26.800105 
L 232.377471 5.163864 
L 154.746948 5.163864 
z
" style="fill: #ffffff"/>
    </g>
    <g id="matplotlib.axis_3">
     <g id="xtick_8">
      <g id="line2d_60">
       <g>
        <use xlink:href="#ma6e9a64b94" x="158.275608" y="26.800105" style="stroke: #000000; stroke-width: 0.8"/>
       </g>
      </g>
      <g id="text_15">
       <!-- $\mathdefault{2}$ -->
       <g transform="translate(155.784941 40.718603) scale(0.1 -0.1)">
        <use xlink:href="#CMR17-32" transform="scale(0.996264)"/>
       </g>
      </g>
     </g>
     <g id="xtick_9">
      <g id="line2d_61">
       <g>
        <use xlink:href="#ma6e9a64b94" x="205.32441" y="26.800105" style="stroke: #000000; stroke-width: 0.8"/>
       </g>
      </g>
      <g id="text_16">
       <!-- $\mathdefault{4}$ -->
       <g transform="translate(202.833742 40.718603) scale(0.1 -0.1)">
        <defs>
         <path id="CMR17-34" d="M 2150 4122 
C 2150 4256 2144 4256 2029 4256 
L 128 1254 
L 128 1088 
L 1779 1088 
L 1779 457 
C 1779 224 1766 160 1318 160 
L 1197 160 
L 1197 0 
C 1402 0 1747 0 1965 0 
C 2182 0 2528 0 2733 0 
L 2733 160 
L 2611 160 
C 2163 160 2150 224 2150 457 
L 2150 1088 
L 2803 1088 
L 2803 1254 
L 2150 1254 
L 2150 4122 
z
M 1798 3703 
L 1798 1254 
L 256 1254 
L 1798 3703 
z
" transform="scale(0.015625)"/>
        </defs>
        <use xlink:href="#CMR17-34" transform="scale(0.996264)"/>
       </g>
      </g>
     </g>
     <g id="text_17">
      <!-- $r/a$ -->
      <g transform="translate(186.052734 54.127761) scale(0.1 -0.1)">
       <defs>
        <path id="CMMI12-72" d="M 2490 2612 
C 2291 2574 2189 2433 2189 2293 
C 2189 2139 2310 2088 2400 2088 
C 2579 2088 2726 2242 2726 2433 
C 2726 2638 2528 2816 2208 2816 
C 1952 2816 1658 2701 1389 2312 
C 1344 2650 1088 2816 832 2816 
C 582 2816 454 2625 378 2484 
C 269 2254 173 1871 173 1839 
C 173 1814 198 1782 243 1782 
C 294 1782 301 1788 339 1935 
C 435 2318 557 2689 813 2689 
C 966 2689 1011 2580 1011 2395 
C 1011 2254 947 2005 902 1807 
L 723 1118 
C 698 996 627 709 595 594 
C 550 428 480 128 480 96 
C 480 6 550 -64 646 -64 
C 717 -64 838 -19 877 109 
C 896 160 1133 1124 1171 1271 
C 1203 1411 1242 1546 1274 1686 
C 1299 1775 1325 1878 1344 1961 
C 1363 2018 1536 2331 1696 2472 
C 1773 2542 1939 2689 2202 2689 
C 2304 2689 2406 2670 2490 2612 
z
" transform="scale(0.015625)"/>
        <path id="CMMI12-61" d="M 1926 760 
C 1894 651 1894 639 1805 517 
C 1664 338 1382 64 1082 64 
C 819 64 672 300 672 677 
C 672 1028 870 1743 992 2012 
C 1210 2459 1510 2689 1760 2689 
C 2182 2689 2266 2165 2266 2114 
C 2266 2108 2246 2024 2240 2012 
L 1926 760 
z
M 2336 2395 
C 2266 2561 2093 2816 1760 2816 
C 1037 2816 256 1884 256 939 
C 256 307 627 -64 1062 -64 
C 1414 -64 1715 211 1894 422 
C 1958 45 2259 -64 2451 -64 
C 2643 -64 2797 51 2912 281 
C 3014 498 3104 888 3104 913 
C 3104 945 3078 971 3040 971 
C 2982 971 2976 939 2950 843 
C 2854 466 2733 64 2470 64 
C 2285 64 2272 230 2272 358 
C 2272 505 2291 575 2349 824 
C 2394 984 2426 1124 2477 1309 
C 2714 2267 2771 2497 2771 2535 
C 2771 2625 2701 2695 2605 2695 
C 2400 2695 2349 2472 2336 2395 
z
" transform="scale(0.015625)"/>
       </defs>
       <use xlink:href="#CMMI12-72" transform="scale(0.996264)"/>
       <use xlink:href="#CMMI12-3d" transform="translate(46.670612 0) scale(0.996264)"/>
       <use xlink:href="#CMMI12-61" transform="translate(95.445531 0) scale(0.996264)"/>
      </g>
     </g>
    </g>
    <g id="matplotlib.axis_4">
     <g id="ytick_49">
      <g id="line2d_62">
       <g>
        <use xlink:href="#m40a2aed93b" x="154.746948" y="15.995578" style="stroke: #000000; stroke-width: 0.8"/>
       </g>
      </g>
      <g id="text_18">
       <!-- $\mathdefault{10^{0}}$ -->
       <g transform="translate(133.81304 19.454827) scale(0.1 -0.1)">
        <use xlink:href="#CMR17-31" transform="scale(0.996264)"/>
        <use xlink:href="#CMR17-30" transform="translate(45.690477 0) scale(0.996264)"/>
        <use xlink:href="#CMR17-30" transform="translate(91.380954 36.153639) scale(0.697382)"/>
       </g>
      </g>
     </g>
     <g id="ytick_50">
      <g id="line2d_63">
       <g>
        <use xlink:href="#m71cd0cfb87" x="154.746948" y="25.867109" style="stroke: #000000; stroke-width: 0.6"/>
       </g>
      </g>
     </g>
     <g id="ytick_51">
      <g id="line2d_64">
       <g>
        <use xlink:href="#m71cd0cfb87" x="154.746948" y="23.380178" style="stroke: #000000; stroke-width: 0.6"/>
       </g>
      </g>
     </g>
     <g id="ytick_52">
      <g id="line2d_65">
       <g>
        <use xlink:href="#m71cd0cfb87" x="154.746948" y="21.615672" style="stroke: #000000; stroke-width: 0.6"/>
       </g>
      </g>
     </g>
     <g id="ytick_53">
      <g id="line2d_66">
       <g>
        <use xlink:href="#m71cd0cfb87" x="154.746948" y="20.247015" style="stroke: #000000; stroke-width: 0.6"/>
       </g>
      </g>
     </g>
     <g id="ytick_54">
      <g id="line2d_67">
       <g>
        <use xlink:href="#m71cd0cfb87" x="154.746948" y="19.128741" style="stroke: #000000; stroke-width: 0.6"/>
       </g>
      </g>
     </g>
     <g id="ytick_55">
      <g id="line2d_68">
       <g>
        <use xlink:href="#m71cd0cfb87" x="154.746948" y="18.183254" style="stroke: #000000; stroke-width: 0.6"/>
       </g>
      </g>
     </g>
     <g id="ytick_56">
      <g id="line2d_69">
       <g>
        <use xlink:href="#m71cd0cfb87" x="154.746948" y="17.364235" style="stroke: #000000; stroke-width: 0.6"/>
       </g>
      </g>
     </g>
     <g id="ytick_57">
      <g id="line2d_70">
       <g>
        <use xlink:href="#m71cd0cfb87" x="154.746948" y="16.64181" style="stroke: #000000; stroke-width: 0.6"/>
       </g>
      </g>
     </g>
     <g id="ytick_58">
      <g id="line2d_71">
       <g>
        <use xlink:href="#m71cd0cfb87" x="154.746948" y="11.744141" style="stroke: #000000; stroke-width: 0.6"/>
       </g>
      </g>
     </g>
     <g id="ytick_59">
      <g id="line2d_72">
       <g>
        <use xlink:href="#m71cd0cfb87" x="154.746948" y="9.25721" style="stroke: #000000; stroke-width: 0.6"/>
       </g>
      </g>
     </g>
     <g id="ytick_60">
      <g id="line2d_73">
       <g>
        <use xlink:href="#m71cd0cfb87" x="154.746948" y="7.492704" style="stroke: #000000; stroke-width: 0.6"/>
       </g>
      </g>
     </g>
     <g id="ytick_61">
      <g id="line2d_74">
       <g>
        <use xlink:href="#m71cd0cfb87" x="154.746948" y="6.124047" style="stroke: #000000; stroke-width: 0.6"/>
       </g>
      </g>
     </g>
    </g>
    <g id="line2d_75">
     <path d="M 158.275608 22.03446 
L 160.628048 21.825094 
L 162.980488 21.717351 
L 165.332929 21.68215 
L 167.685369 21.69922 
L 170.037809 21.754007 
L 172.390249 21.835804 
L 174.742689 21.93657 
L 177.095129 22.050168 
L 179.447569 22.17186 
L 181.800009 22.297949 
L 184.152449 22.425539 
L 186.504889 22.552358 
L 188.857329 22.676626 
L 191.209769 22.796955 
L 193.56221 22.912284 
L 195.91465 23.02181 
L 198.26709 23.124948 
L 200.61953 23.221293 
L 202.97197 23.31059 
L 205.32441 23.392704 
L 207.67685 23.467604 
L 210.02929 23.535344 
L 212.38173 23.596041 
L 214.73417 23.649873 
L 217.08661 23.697056 
L 219.43905 23.737842 
L 221.79149 23.772506 
L 224.143931 23.801342 
L 226.496371 23.824652 
L 228.848811 23.842747 
" clip-path="url(#p8dab3386b8)" style="fill: none; stroke: #0000ff; stroke-width: 0.75; stroke-linecap: square"/>
    </g>
    <g id="line2d_76">
     <path d="M 158.275608 11.004163 
L 160.628048 8.75357 
L 162.980488 7.402427 
L 165.332929 6.627018 
L 167.685369 6.245569 
L 170.037809 6.14733 
L 172.390249 6.260576 
L 174.742689 6.536732 
L 177.095129 6.941798 
L 179.447569 7.451404 
L 181.800009 8.047787 
L 184.152449 8.717853 
L 186.504889 9.451892 
L 188.857329 10.242683 
L 191.209769 11.084841 
L 193.56221 11.974321 
L 195.91465 12.907997 
L 198.26709 13.883266 
L 200.61953 14.897634 
L 202.97197 15.948214 
L 205.32441 17.03108 
L 207.67685 18.140395 
L 210.02929 19.267233 
L 212.38173 20.398036 
L 214.73417 21.512772 
L 217.08661 22.583116 
L 219.43905 23.57148 
L 221.79149 24.432358 
L 224.143931 25.11767 
L 226.496371 25.586524 
L 228.848811 25.816639 
" clip-path="url(#p8dab3386b8)" style="fill: none; stroke: #00bfbf; stroke-width: 0.75; stroke-linecap: square"/>
    </g>
    <g id="line2d_77">
     <defs>
      <path id="m30173dba77" d="M 0 1 
C 0.265203 1 0.51958 0.894634 0.707107 0.707107 
C 0.894634 0.51958 1 0.265203 1 0 
C 1 -0.265203 0.894634 -0.51958 0.707107 -0.707107 
C 0.51958 -0.894634 0.265203 -1 0 -1 
C -0.265203 -1 -0.51958 -0.894634 -0.707107 -0.707107 
C -0.894634 -0.51958 -1 -0.265203 -1 0 
C -1 0.265203 -0.894634 0.51958 -0.707107 0.707107 
C -0.51958 0.894634 -0.265203 1 0 1 
z
" style="stroke: #0000ff"/>
     </defs>
     <g clip-path="url(#p8dab3386b8)">
      <use xlink:href="#m30173dba77" x="158.275608" y="21.773391" style="fill: #0000ff; stroke: #0000ff"/>
      <use xlink:href="#m30173dba77" x="181.800009" y="20.485219" style="fill: #0000ff; stroke: #0000ff"/>
      <use xlink:href="#m30173dba77" x="205.32441" y="23.98058" style="fill: #0000ff; stroke: #0000ff"/>
      <use xlink:href="#m30173dba77" x="228.848811" y="23.245804" style="fill: #0000ff; stroke: #0000ff"/>
     </g>
    </g>
    <g id="line2d_78">
     <defs>
      <path id="m1414f42fa0" d="M 0 1 
C 0.265203 1 0.51958 0.894634 0.707107 0.707107 
C 0.894634 0.51958 1 0.265203 1 0 
C 1 -0.265203 0.894634 -0.51958 0.707107 -0.707107 
C 0.51958 -0.894634 0.265203 -1 0 -1 
C -0.265203 -1 -0.51958 -0.894634 -0.707107 -0.707107 
C -0.894634 -0.51958 -1 -0.265203 -1 0 
C -1 0.265203 -0.894634 0.51958 -0.707107 0.707107 
C -0.51958 0.894634 -0.265203 1 0 1 
z
" style="stroke: #00bfbf"/>
     </defs>
     <g clip-path="url(#p8dab3386b8)">
      <use xlink:href="#m1414f42fa0" x="158.275608" y="9.127782" style="fill: #00bfbf; stroke: #00bfbf"/>
      <use xlink:href="#m1414f42fa0" x="181.800009" y="9.479882" style="fill: #00bfbf; stroke: #00bfbf"/>
      <use xlink:href="#m1414f42fa0" x="205.32441" y="21.096349" style="fill: #00bfbf; stroke: #00bfbf"/>
      <use xlink:href="#m1414f42fa0" x="228.848811" y="21.065568" style="fill: #00bfbf; stroke: #00bfbf"/>
     </g>
    </g>
    <g id="patch_8">
     <path d="M 154.746948 26.800105 
L 154.746948 5.163864 
" style="fill: none; stroke: #000000; stroke-width: 0.8; stroke-linejoin: miter; stroke-linecap: square"/>
    </g>
    <g id="patch_9">
     <path d="M 232.377471 26.800105 
L 232.377471 5.163864 
" style="fill: none; stroke: #000000; stroke-width: 0.8; stroke-linejoin: miter; stroke-linecap: square"/>
    </g>
    <g id="patch_10">
     <path d="M 154.746948 26.800105 
L 232.377471 26.800105 
" style="fill: none; stroke: #000000; stroke-width: 0.8; stroke-linejoin: miter; stroke-linecap: square"/>
    </g>
    <g id="patch_11">
     <path d="M 154.746948 5.163864 
L 232.377471 5.163864 
" style="fill: none; stroke: #000000; stroke-width: 0.8; stroke-linejoin: miter; stroke-linecap: square"/>
    </g>
   </g>
  </g>
 </g>
 <defs>
  <clipPath id="pd099800029">
   <rect x="44.123453" y="3.00024" width="194.076307" height="108.181203"/>
  </clipPath>
  <clipPath id="p8dab3386b8">
   <rect x="154.746948" y="5.163864" width="77.630523" height="21.636241"/>
  </clipPath>
 </defs>
</svg>
