<?xml version="1.0" encoding="utf-8" standalone="no"?>
<!DOCTYPE svg PUBLIC "-//W3C//DTD SVG 1.1//EN"
  "http://www.w3.org/Graphics/SVG/1.1/DTD/svg11.dtd">
<svg xmlns:xlink="http://www.w3.org/1999/xlink" width="241.2pt" height="342pt" viewBox="0 0 241.2 342" xmlns="http://www.w3.org/2000/svg" version="1.1">
 <metadata>
  <rdf:RDF xmlns:dc="http://purl.org/dc/elements/1.1/" xmlns:cc="http://creativecommons.org/ns#" xmlns:rdf="http://www.w3.org/1999/02/22-rdf-syntax-ns#">
   <cc:Work>
    <dc:type rdf:resource="http://purl.org/dc/dcmitype/StillImage"/>
    <dc:date>2024-07-02T15:14:51.960723</dc:date>
    <dc:format>image/svg+xml</dc:format>
    <dc:creator>
     <cc:Agent>
      <dc:title>Matplotlib v3.8.4, https://matplotlib.org/</dc:title>
     </cc:Agent>
    </dc:creator>
   </cc:Work>
  </rdf:RDF>
 </metadata>
 <defs>
  <style type="text/css">*{stroke-linejoin: round; stroke-linecap: butt}</style>
 </defs>
 <g id="figure_1">
  <g id="patch_1">
   <path d="M 0 342 
L 241.2 342 
L 241.2 0 
L 0 0 
z
" style="fill: #ffffff"/>
  </g>
  <g id="axes_1">
   <g id="patch_2">
    <path d="M 37.896788 309.181443 
L 238.19976 309.181443 
L 238.19976 55.94869 
L 37.896788 55.94869 
z
" style="fill: #ffffff"/>
   </g>
   <g id="matplotlib.axis_1">
    <g id="xtick_1">
     <g id="line2d_1">
      <defs>
       <path id="m226baea214" d="M 0 0 
L 0 3.5 
" style="stroke: #000000; stroke-width: 0.8"/>
      </defs>
      <g>
       <use xlink:href="#m226baea214" x="47.001469" y="309.181443" style="stroke: #000000; stroke-width: 0.8"/>
      </g>
     </g>
     <g id="text_1">
      <!-- $\mathdefault{0}$ -->
      <g transform="translate(44.510801 323.099942) scale(0.1 -0.1)">
       <defs>
        <path id="CMR17-30" d="M 2688 2025 
C 2688 2416 2682 3080 2413 3591 
C 2176 4039 1798 4198 1466 4198 
C 1158 4198 768 4058 525 3597 
C 269 3118 243 2524 243 2025 
C 243 1661 250 1106 448 619 
C 723 -39 1216 -128 1466 -128 
C 1760 -128 2208 -7 2470 600 
C 2662 1042 2688 1559 2688 2025 
z
M 1466 -26 
C 1056 -26 813 325 723 812 
C 653 1188 653 1738 653 2096 
C 653 2588 653 2997 736 3387 
C 858 3929 1216 4096 1466 4096 
C 1728 4096 2067 3923 2189 3400 
C 2272 3036 2278 2607 2278 2096 
C 2278 1680 2278 1169 2202 792 
C 2067 95 1690 -26 1466 -26 
z
" transform="scale(0.015625)"/>
       </defs>
       <use xlink:href="#CMR17-30" transform="scale(0.996264)"/>
      </g>
     </g>
    </g>
    <g id="xtick_2">
     <g id="line2d_2">
      <g>
       <use xlink:href="#m226baea214" x="77.350404" y="309.181443" style="stroke: #000000; stroke-width: 0.8"/>
      </g>
     </g>
     <g id="text_2">
      <!-- $\mathdefault{30}$ -->
      <g transform="translate(72.369069 323.099942) scale(0.1 -0.1)">
       <defs>
        <path id="CMR17-33" d="M 1414 2157 
C 1984 2157 2234 1662 2234 1090 
C 2234 320 1824 25 1453 25 
C 1114 25 563 194 390 693 
C 422 680 454 680 486 680 
C 640 680 755 782 755 948 
C 755 1133 614 1216 486 1216 
C 378 1216 211 1165 211 926 
C 211 335 787 -128 1466 -128 
C 2176 -128 2720 430 2720 1085 
C 2720 1707 2208 2157 1600 2227 
C 2086 2328 2554 2756 2554 3329 
C 2554 3820 2048 4179 1472 4179 
C 890 4179 378 3829 378 3329 
C 378 3110 544 3072 627 3072 
C 762 3072 877 3155 877 3321 
C 877 3486 762 3569 627 3569 
C 602 3569 570 3569 544 3557 
C 730 3959 1235 4032 1459 4032 
C 1683 4032 2106 3925 2106 3320 
C 2106 3143 2080 2828 1862 2550 
C 1670 2304 1453 2304 1242 2284 
C 1210 2284 1062 2269 1037 2269 
C 992 2263 966 2257 966 2208 
C 966 2163 973 2157 1101 2157 
L 1414 2157 
z
" transform="scale(0.015625)"/>
       </defs>
       <use xlink:href="#CMR17-33" transform="scale(0.996264)"/>
       <use xlink:href="#CMR17-30" transform="translate(45.690477 0) scale(0.996264)"/>
      </g>
     </g>
    </g>
    <g id="xtick_3">
     <g id="line2d_3">
      <g>
       <use xlink:href="#m226baea214" x="107.699339" y="309.181443" style="stroke: #000000; stroke-width: 0.8"/>
      </g>
     </g>
     <g id="text_3">
      <!-- $\mathdefault{60}$ -->
      <g transform="translate(102.718004 323.099942) scale(0.1 -0.1)">
       <defs>
        <path id="CMR17-36" d="M 678 2176 
C 678 3690 1395 4032 1811 4032 
C 1946 4032 2272 4009 2400 3776 
C 2298 3776 2106 3776 2106 3553 
C 2106 3381 2246 3323 2336 3323 
C 2394 3323 2566 3348 2566 3560 
C 2566 3954 2246 4179 1805 4179 
C 1043 4179 243 3390 243 1984 
C 243 253 966 -128 1478 -128 
C 2099 -128 2688 427 2688 1283 
C 2688 2081 2170 2662 1517 2662 
C 1126 2662 838 2407 678 1960 
L 678 2176 
z
M 1478 25 
C 691 25 691 1200 691 1436 
C 691 1896 909 2560 1504 2560 
C 1613 2560 1926 2560 2138 2120 
C 2253 1870 2253 1609 2253 1289 
C 2253 944 2253 690 2118 434 
C 1978 171 1773 25 1478 25 
z
" transform="scale(0.015625)"/>
       </defs>
       <use xlink:href="#CMR17-36" transform="scale(0.996264)"/>
       <use xlink:href="#CMR17-30" transform="translate(45.690477 0) scale(0.996264)"/>
      </g>
     </g>
    </g>
    <g id="xtick_4">
     <g id="line2d_4">
      <g>
       <use xlink:href="#m226baea214" x="138.048274" y="309.181443" style="stroke: #000000; stroke-width: 0.8"/>
      </g>
     </g>
     <g id="text_4">
      <!-- $\mathdefault{90}$ -->
      <g transform="translate(133.066939 323.099942) scale(0.1 -0.1)">
       <defs>
        <path id="CMR17-39" d="M 2253 1864 
C 2253 464 1670 31 1190 31 
C 1043 31 685 31 538 294 
C 704 268 826 357 826 518 
C 826 692 685 749 595 749 
C 538 749 365 723 365 506 
C 365 71 742 -128 1203 -128 
C 1939 -128 2688 674 2688 2073 
C 2688 3817 1971 4179 1485 4179 
C 851 4179 243 3628 243 2778 
C 243 1991 762 1408 1414 1408 
C 1952 1408 2189 1903 2253 2112 
L 2253 1864 
z
M 1427 1510 
C 1254 1510 1011 1542 813 1922 
C 678 2169 678 2461 678 2771 
C 678 3146 678 3405 858 3684 
C 947 3817 1114 4032 1485 4032 
C 2240 4032 2240 2885 2240 2632 
C 2240 2182 2035 1510 1427 1510 
z
" transform="scale(0.015625)"/>
       </defs>
       <use xlink:href="#CMR17-39" transform="scale(0.996264)"/>
       <use xlink:href="#CMR17-30" transform="translate(45.690477 0) scale(0.996264)"/>
      </g>
     </g>
    </g>
    <g id="xtick_5">
     <g id="line2d_5">
      <g>
       <use xlink:href="#m226baea214" x="168.397209" y="309.181443" style="stroke: #000000; stroke-width: 0.8"/>
      </g>
     </g>
     <g id="text_5">
      <!-- $\mathdefault{120}$ -->
      <g transform="translate(160.925206 323.099942) scale(0.1 -0.1)">
       <defs>
        <path id="CMR17-31" d="M 1702 4058 
C 1702 4192 1696 4192 1606 4192 
C 1357 3916 979 3827 621 3827 
C 602 3827 570 3827 563 3808 
C 557 3795 557 3782 557 3648 
C 755 3648 1088 3686 1344 3839 
L 1344 461 
C 1344 236 1331 160 781 160 
L 589 160 
L 589 0 
C 896 0 1216 0 1523 0 
C 1830 0 2150 0 2458 0 
L 2458 160 
L 2266 160 
C 1715 160 1702 230 1702 458 
L 1702 4058 
z
" transform="scale(0.015625)"/>
        <path id="CMR17-32" d="M 2669 989 
L 2554 989 
C 2490 536 2438 459 2413 420 
C 2381 369 1920 369 1830 369 
L 602 369 
C 832 619 1280 1072 1824 1597 
C 2214 1967 2669 2402 2669 3035 
C 2669 3790 2067 4224 1395 4224 
C 691 4224 262 3604 262 3030 
C 262 2780 448 2748 525 2748 
C 589 2748 781 2787 781 3010 
C 781 3207 614 3264 525 3264 
C 486 3264 448 3258 422 3245 
C 544 3790 915 4058 1306 4058 
C 1862 4058 2227 3617 2227 3035 
C 2227 2479 1901 2000 1536 1584 
L 262 146 
L 262 0 
L 2515 0 
L 2669 989 
z
" transform="scale(0.015625)"/>
       </defs>
       <use xlink:href="#CMR17-31" transform="scale(0.996264)"/>
       <use xlink:href="#CMR17-32" transform="translate(45.690477 0) scale(0.996264)"/>
       <use xlink:href="#CMR17-30" transform="translate(91.380954 0) scale(0.996264)"/>
      </g>
     </g>
    </g>
    <g id="xtick_6">
     <g id="line2d_6">
      <g>
       <use xlink:href="#m226baea214" x="198.746144" y="309.181443" style="stroke: #000000; stroke-width: 0.8"/>
      </g>
     </g>
     <g id="text_6">
      <!-- $\mathdefault{150}$ -->
      <g transform="translate(191.274141 323.099942) scale(0.1 -0.1)">
       <defs>
        <path id="CMR17-35" d="M 730 3692 
C 794 3666 1056 3584 1325 3584 
C 1920 3584 2246 3911 2432 4100 
C 2432 4157 2432 4192 2394 4192 
C 2387 4192 2374 4192 2323 4163 
C 2099 4058 1837 3973 1517 3973 
C 1325 3973 1037 3999 723 4139 
C 653 4171 640 4171 634 4171 
C 602 4171 595 4164 595 4037 
L 595 2203 
C 595 2089 595 2057 659 2057 
C 691 2057 704 2070 736 2114 
C 941 2401 1222 2522 1542 2522 
C 1766 2522 2246 2382 2246 1289 
C 2246 1085 2246 715 2054 421 
C 1894 159 1645 25 1370 25 
C 947 25 518 320 403 814 
C 429 807 480 795 506 795 
C 589 795 749 840 749 1038 
C 749 1210 627 1280 506 1280 
C 358 1280 262 1190 262 1011 
C 262 454 704 -128 1382 -128 
C 2042 -128 2669 440 2669 1264 
C 2669 2030 2170 2624 1549 2624 
C 1222 2624 947 2503 730 2274 
L 730 3692 
z
" transform="scale(0.015625)"/>
       </defs>
       <use xlink:href="#CMR17-31" transform="scale(0.996264)"/>
       <use xlink:href="#CMR17-35" transform="translate(45.690477 0) scale(0.996264)"/>
       <use xlink:href="#CMR17-30" transform="translate(91.380954 0) scale(0.996264)"/>
      </g>
     </g>
    </g>
    <g id="xtick_7">
     <g id="line2d_7">
      <g>
       <use xlink:href="#m226baea214" x="229.095079" y="309.181443" style="stroke: #000000; stroke-width: 0.8"/>
      </g>
     </g>
     <g id="text_7">
      <!-- $\mathdefault{180}$ -->
      <g transform="translate(221.623077 323.099942) scale(0.1 -0.1)">
       <defs>
        <path id="CMR17-38" d="M 1741 2264 
C 2144 2467 2554 2773 2554 3263 
C 2554 3841 1990 4179 1472 4179 
C 890 4179 378 3759 378 3180 
C 378 3021 416 2747 666 2505 
C 730 2442 998 2251 1171 2130 
C 883 1983 211 1634 211 934 
C 211 279 838 -128 1459 -128 
C 2144 -128 2720 362 2720 1010 
C 2720 1590 2330 1857 2074 2029 
L 1741 2264 
z
M 902 2822 
C 851 2854 595 3051 595 3351 
C 595 3739 998 4032 1459 4032 
C 1965 4032 2336 3676 2336 3262 
C 2336 2669 1670 2331 1638 2331 
C 1632 2331 1626 2331 1574 2370 
L 902 2822 
z
M 2080 1519 
C 2176 1449 2483 1240 2483 851 
C 2483 381 2010 25 1472 25 
C 890 25 448 438 448 940 
C 448 1443 838 1862 1280 2060 
L 2080 1519 
z
" transform="scale(0.015625)"/>
       </defs>
       <use xlink:href="#CMR17-31" transform="scale(0.996264)"/>
       <use xlink:href="#CMR17-38" transform="translate(45.690477 0) scale(0.996264)"/>
       <use xlink:href="#CMR17-30" transform="translate(91.380954 0) scale(0.996264)"/>
      </g>
     </g>
    </g>
    <g id="text_8">
     <!-- $\phi (^o)$ -->
     <g transform="translate(128.990558 336.5091) scale(0.1 -0.1)">
      <defs>
       <path id="CMMI12-1e" d="M 2752 4390 
C 2752 4448 2707 4448 2688 4448 
C 2630 4448 2624 4435 2598 4326 
L 2253 2939 
C 2234 2856 2227 2849 2221 2843 
C 2214 2830 2170 2824 2157 2824 
C 1107 2734 301 1864 301 1057 
C 301 361 832 -64 1498 -64 
C 1446 -261 1402 -463 1350 -659 
C 1261 -995 1210 -1204 1210 -1229 
C 1210 -1241 1210 -1280 1274 -1280 
C 1293 -1280 1318 -1280 1331 -1254 
C 1344 -1241 1382 -1089 1408 -1008 
L 1645 -64 
C 2739 -64 3571 854 3571 1680 
C 3571 2343 3085 2816 2374 2816 
L 2752 4390 
z
M 2336 2701 
C 2758 2701 3181 2463 3181 1828 
C 3181 1097 2675 128 1677 50 
L 2336 2701 
z
M 1530 50 
C 1216 50 691 220 691 938 
C 691 1761 1274 2676 2195 2676 
L 1530 50 
z
" transform="scale(0.015625)"/>
       <path id="CMR17-28" d="M 1958 -1561 
C 1958 -1555 1958 -1542 1939 -1523 
C 1645 -1224 858 -407 858 1581 
C 858 3569 1632 4379 1946 4697 
C 1946 4704 1958 4717 1958 4736 
C 1958 4755 1939 4768 1914 4768 
C 1843 4768 1299 4296 986 3594 
C 666 2887 576 2199 576 1588 
C 576 1128 621 351 1005 -471 
C 1312 -1135 1837 -1600 1914 -1600 
C 1946 -1600 1958 -1587 1958 -1561 
z
" transform="scale(0.015625)"/>
       <path id="CMMI12-6f" d="M 2918 1756 
C 2918 2363 2522 2816 1939 2816 
C 1094 2816 262 1897 262 996 
C 262 390 659 -64 1242 -64 
C 2093 -64 2918 856 2918 1756 
z
M 1248 64 
C 928 64 691 319 691 766 
C 691 1060 845 1712 1024 2031 
C 1312 2523 1670 2689 1933 2689 
C 2246 2689 2490 2433 2490 1986 
C 2490 1731 2355 1047 2112 658 
C 1850 230 1498 64 1248 64 
z
" transform="scale(0.015625)"/>
       <path id="CMR17-29" d="M 1683 1581 
C 1683 2040 1638 2817 1254 3639 
C 947 4303 422 4768 346 4768 
C 326 4768 301 4761 301 4729 
C 301 4717 307 4710 314 4697 
C 621 4378 1402 3568 1402 1584 
C 1402 -407 627 -1217 314 -1537 
C 307 -1549 301 -1556 301 -1568 
C 301 -1600 326 -1600 346 -1600 
C 416 -1600 960 -1128 1274 -426 
C 1594 281 1683 969 1683 1581 
z
" transform="scale(0.015625)"/>
      </defs>
      <use xlink:href="#CMMI12-1e" transform="scale(0.996264)"/>
      <use xlink:href="#CMR17-28" transform="translate(57.73418 0) scale(0.996264)"/>
      <use xlink:href="#CMMI12-6f" transform="translate(93.014948 36.153639) scale(0.697382)"/>
      <use xlink:href="#CMR17-29" transform="translate(126.339642 0) scale(0.996264)"/>
     </g>
    </g>
   </g>
   <g id="matplotlib.axis_2">
    <g id="ytick_1">
     <g id="line2d_8">
      <defs>
       <path id="m4bc6db3efc" d="M 0 0 
L -3.5 0 
" style="stroke: #000000; stroke-width: 0.8"/>
      </defs>
      <g>
       <use xlink:href="#m4bc6db3efc" x="37.896788" y="256.325169" style="stroke: #000000; stroke-width: 0.8"/>
      </g>
     </g>
     <g id="text_9">
      <!-- $\mathdefault{10^{0}}$ -->
      <g transform="translate(16.96288 259.784419) scale(0.1 -0.1)">
       <use xlink:href="#CMR17-31" transform="scale(0.996264)"/>
       <use xlink:href="#CMR17-30" transform="translate(45.690477 0) scale(0.996264)"/>
       <use xlink:href="#CMR17-30" transform="translate(91.380954 36.153639) scale(0.697382)"/>
      </g>
     </g>
    </g>
    <g id="ytick_2">
     <g id="line2d_9">
      <g>
       <use xlink:href="#m4bc6db3efc" x="37.896788" y="171.81891" style="stroke: #000000; stroke-width: 0.8"/>
      </g>
     </g>
     <g id="text_10">
      <!-- $\mathdefault{10^{1}}$ -->
      <g transform="translate(16.96288 175.278159) scale(0.1 -0.1)">
       <use xlink:href="#CMR17-31" transform="scale(0.996264)"/>
       <use xlink:href="#CMR17-30" transform="translate(45.690477 0) scale(0.996264)"/>
       <use xlink:href="#CMR17-31" transform="translate(91.380954 36.153639) scale(0.697382)"/>
      </g>
     </g>
    </g>
    <g id="ytick_3">
     <g id="line2d_10">
      <g>
       <use xlink:href="#m4bc6db3efc" x="37.896788" y="87.31265" style="stroke: #000000; stroke-width: 0.8"/>
      </g>
     </g>
     <g id="text_11">
      <!-- $\mathdefault{10^{2}}$ -->
      <g transform="translate(16.96288 90.771899) scale(0.1 -0.1)">
       <use xlink:href="#CMR17-31" transform="scale(0.996264)"/>
       <use xlink:href="#CMR17-30" transform="translate(45.690477 0) scale(0.996264)"/>
       <use xlink:href="#CMR17-32" transform="translate(91.380954 36.153639) scale(0.697382)"/>
      </g>
     </g>
    </g>
    <g id="ytick_4">
     <g id="line2d_11">
      <defs>
       <path id="mcd342e6f49" d="M 0 0 
L -2 0 
" style="stroke: #000000; stroke-width: 0.6"/>
      </defs>
      <g>
       <use xlink:href="#mcd342e6f49" x="37.896788" y="300.511696" style="stroke: #000000; stroke-width: 0.6"/>
      </g>
     </g>
    </g>
    <g id="ytick_5">
     <g id="line2d_12">
      <g>
       <use xlink:href="#mcd342e6f49" x="37.896788" y="289.953591" style="stroke: #000000; stroke-width: 0.6"/>
      </g>
     </g>
    </g>
    <g id="ytick_6">
     <g id="line2d_13">
      <g>
       <use xlink:href="#mcd342e6f49" x="37.896788" y="281.764088" style="stroke: #000000; stroke-width: 0.6"/>
      </g>
     </g>
    </g>
    <g id="ytick_7">
     <g id="line2d_14">
      <g>
       <use xlink:href="#mcd342e6f49" x="37.896788" y="275.072777" style="stroke: #000000; stroke-width: 0.6"/>
      </g>
     </g>
    </g>
    <g id="ytick_8">
     <g id="line2d_15">
      <g>
       <use xlink:href="#mcd342e6f49" x="37.896788" y="269.415355" style="stroke: #000000; stroke-width: 0.6"/>
      </g>
     </g>
    </g>
    <g id="ytick_9">
     <g id="line2d_16">
      <g>
       <use xlink:href="#mcd342e6f49" x="37.896788" y="264.514672" style="stroke: #000000; stroke-width: 0.6"/>
      </g>
     </g>
    </g>
    <g id="ytick_10">
     <g id="line2d_17">
      <g>
       <use xlink:href="#mcd342e6f49" x="37.896788" y="260.191964" style="stroke: #000000; stroke-width: 0.6"/>
      </g>
     </g>
    </g>
    <g id="ytick_11">
     <g id="line2d_18">
      <g>
       <use xlink:href="#mcd342e6f49" x="37.896788" y="230.88625" style="stroke: #000000; stroke-width: 0.6"/>
      </g>
     </g>
    </g>
    <g id="ytick_12">
     <g id="line2d_19">
      <g>
       <use xlink:href="#mcd342e6f49" x="37.896788" y="216.005437" style="stroke: #000000; stroke-width: 0.6"/>
      </g>
     </g>
    </g>
    <g id="ytick_13">
     <g id="line2d_20">
      <g>
       <use xlink:href="#mcd342e6f49" x="37.896788" y="205.447332" style="stroke: #000000; stroke-width: 0.6"/>
      </g>
     </g>
    </g>
    <g id="ytick_14">
     <g id="line2d_21">
      <g>
       <use xlink:href="#mcd342e6f49" x="37.896788" y="197.257829" style="stroke: #000000; stroke-width: 0.6"/>
      </g>
     </g>
    </g>
    <g id="ytick_15">
     <g id="line2d_22">
      <g>
       <use xlink:href="#mcd342e6f49" x="37.896788" y="190.566518" style="stroke: #000000; stroke-width: 0.6"/>
      </g>
     </g>
    </g>
    <g id="ytick_16">
     <g id="line2d_23">
      <g>
       <use xlink:href="#mcd342e6f49" x="37.896788" y="184.909095" style="stroke: #000000; stroke-width: 0.6"/>
      </g>
     </g>
    </g>
    <g id="ytick_17">
     <g id="line2d_24">
      <g>
       <use xlink:href="#mcd342e6f49" x="37.896788" y="180.008413" style="stroke: #000000; stroke-width: 0.6"/>
      </g>
     </g>
    </g>
    <g id="ytick_18">
     <g id="line2d_25">
      <g>
       <use xlink:href="#mcd342e6f49" x="37.896788" y="175.685704" style="stroke: #000000; stroke-width: 0.6"/>
      </g>
     </g>
    </g>
    <g id="ytick_19">
     <g id="line2d_26">
      <g>
       <use xlink:href="#mcd342e6f49" x="37.896788" y="146.379991" style="stroke: #000000; stroke-width: 0.6"/>
      </g>
     </g>
    </g>
    <g id="ytick_20">
     <g id="line2d_27">
      <g>
       <use xlink:href="#mcd342e6f49" x="37.896788" y="131.499177" style="stroke: #000000; stroke-width: 0.6"/>
      </g>
     </g>
    </g>
    <g id="ytick_21">
     <g id="line2d_28">
      <g>
       <use xlink:href="#mcd342e6f49" x="37.896788" y="120.941072" style="stroke: #000000; stroke-width: 0.6"/>
      </g>
     </g>
    </g>
    <g id="ytick_22">
     <g id="line2d_29">
      <g>
       <use xlink:href="#mcd342e6f49" x="37.896788" y="112.751569" style="stroke: #000000; stroke-width: 0.6"/>
      </g>
     </g>
    </g>
    <g id="ytick_23">
     <g id="line2d_30">
      <g>
       <use xlink:href="#mcd342e6f49" x="37.896788" y="106.060258" style="stroke: #000000; stroke-width: 0.6"/>
      </g>
     </g>
    </g>
    <g id="ytick_24">
     <g id="line2d_31">
      <g>
       <use xlink:href="#mcd342e6f49" x="37.896788" y="100.402835" style="stroke: #000000; stroke-width: 0.6"/>
      </g>
     </g>
    </g>
    <g id="ytick_25">
     <g id="line2d_32">
      <g>
       <use xlink:href="#mcd342e6f49" x="37.896788" y="95.502153" style="stroke: #000000; stroke-width: 0.6"/>
      </g>
     </g>
    </g>
    <g id="ytick_26">
     <g id="line2d_33">
      <g>
       <use xlink:href="#mcd342e6f49" x="37.896788" y="91.179445" style="stroke: #000000; stroke-width: 0.6"/>
      </g>
     </g>
    </g>
    <g id="ytick_27">
     <g id="line2d_34">
      <g>
       <use xlink:href="#mcd342e6f49" x="37.896788" y="61.873731" style="stroke: #000000; stroke-width: 0.6"/>
      </g>
     </g>
    </g>
    <g id="text_12">
     <!-- $\sigma / \lambda$ -->
     <g transform="translate(10.47222 190.986626) rotate(-90) scale(0.1 -0.1)">
      <defs>
       <path id="CMMI12-1b" d="M 3251 2408 
C 3334 2408 3546 2408 3546 2612 
C 3546 2752 3424 2752 3309 2752 
L 1894 2752 
C 934 2752 243 1686 243 932 
C 243 390 595 -64 1171 -64 
C 1926 -64 2752 747 2752 1705 
C 2752 1954 2694 2196 2541 2408 
L 3251 2408 
z
M 1178 64 
C 851 64 614 313 614 754 
C 614 1137 845 2408 1786 2408 
C 2061 2408 2368 2274 2368 1781 
C 2368 1558 2266 1021 2042 652 
C 1811 275 1466 64 1178 64 
z
" transform="scale(0.015625)"/>
       <path id="CMMI12-3d" d="M 2746 4562 
C 2746 4569 2784 4666 2784 4678 
C 2784 4755 2720 4800 2669 4800 
C 2637 4800 2579 4800 2528 4659 
L 384 -1363 
C 384 -1370 346 -1465 346 -1478 
C 346 -1555 410 -1600 461 -1600 
C 499 -1600 557 -1593 602 -1459 
L 2746 4562 
z
" transform="scale(0.015625)"/>
       <path id="CMMI12-15" d="M 1978 3965 
C 1818 4416 1312 4416 1229 4416 
C 1190 4416 1120 4416 1120 4352 
C 1120 4302 1158 4295 1190 4289 
C 1286 4276 1363 4263 1466 4080 
C 1530 3959 2189 2059 2189 2046 
C 2189 2040 2182 2033 2131 1982 
L 467 311 
C 390 234 339 183 339 102 
C 339 12 416 -64 518 -64 
C 544 -64 614 -51 653 -13 
C 755 82 1670 1194 2253 1881 
C 2419 1383 2624 797 2822 261 
C 2854 166 2886 76 2976 -6 
C 3040 -64 3053 -64 3232 -64 
L 3354 -64 
C 3379 -64 3424 -64 3424 -13 
C 3424 13 3418 19 3392 45 
C 3334 115 3290 229 3264 306 
L 1978 3965 
z
" transform="scale(0.015625)"/>
      </defs>
      <use xlink:href="#CMMI12-1b" transform="scale(0.996264)"/>
      <use xlink:href="#CMMI12-3d" transform="translate(59.020054 0) scale(0.996264)"/>
      <use xlink:href="#CMMI12-15" transform="translate(107.794972 0) scale(0.996264)"/>
     </g>
    </g>
   </g>
   <g id="line2d_35">
    <path d="M 47.001469 285.278968 
L 57.11778 285.389145 
L 67.234092 285.715311 
L 78.362035 286.307879 
L 90.501609 287.200659 
L 103.652814 288.399992 
L 121.862175 290.312987 
L 155.246004 293.870173 
L 170.420472 295.231471 
L 183.571677 296.192346 
L 196.722882 296.921413 
L 208.862456 297.378054 
L 221.00203 297.62403 
L 229.095079 297.670863 
L 229.095079 297.670863 
" clip-path="url(#pdc87bf03dc)" style="fill: none; stroke: #000000; stroke-width: 0.75; stroke-linecap: square"/>
   </g>
   <g id="line2d_36">
    <path d="M 47.001469 258.150613 
L 53.071256 258.266278 
L 59.141043 258.611179 
L 65.21083 259.179024 
L 71.280617 259.95931 
L 78.362035 261.118273 
L 85.443453 262.515625 
L 93.536503 264.355388 
L 103.652814 266.918743 
L 135.013381 275.104491 
L 143.10643 276.892953 
L 151.199479 278.438999 
L 158.280898 279.575238 
L 165.362316 280.508081 
L 173.455365 281.339057 
L 181.548414 281.947616 
L 190.653095 282.413584 
L 201.781038 282.749096 
L 215.943874 282.940113 
L 229.095079 282.984947 
L 229.095079 282.984947 
" clip-path="url(#pdc87bf03dc)" style="fill: none; stroke: #ff0000; stroke-width: 0.75; stroke-linecap: square"/>
   </g>
   <g id="line2d_37">
    <path d="M 47.001469 176.780301 
L 49.024731 176.966756 
L 51.047993 177.525739 
L 53.071256 178.456056 
L 55.094518 179.755516 
L 57.11778 181.420635 
L 59.141043 183.446167 
L 61.164305 185.824455 
L 63.187567 188.544558 
L 65.21083 191.591095 
L 67.234092 194.942775 
L 70.268986 200.476356 
L 73.303879 206.487147 
L 82.40856 224.921857 
L 84.431822 228.456288 
L 86.455084 231.556954 
L 88.478347 234.150186 
L 90.501609 236.200537 
L 92.524871 237.716087 
L 94.548134 238.745317 
L 96.571396 239.366672 
L 98.594658 239.674438 
L 100.617921 239.765053 
L 104.664445 239.632675 
L 109.722601 239.482581 
L 112.757495 239.580913 
L 116.80402 239.961522 
L 122.873807 240.856269 
L 127.931962 241.568981 
L 131.978487 241.926454 
L 136.025012 242.017724 
L 140.071536 241.840937 
L 144.118061 241.444751 
L 150.187848 240.601869 
L 164.350685 238.53577 
L 173.455365 237.493722 
L 185.594939 236.354058 
L 199.757776 235.237541 
L 210.885718 234.587404 
L 219.990399 234.265036 
L 229.095079 234.155605 
L 229.095079 234.155605 
" clip-path="url(#pdc87bf03dc)" style="fill: none; stroke: #0000ff; stroke-width: 0.75; stroke-linecap: square"/>
   </g>
   <g id="line2d_38">
    <path d="M 47.001469 136.076543 
L 48.0131 136.231819 
L 49.024731 136.697585 
L 50.036362 137.473632 
L 51.047993 138.559522 
L 52.059625 139.954443 
L 53.071256 141.656998 
L 54.082887 143.664903 
L 55.094518 145.974566 
L 57.11778 151.474821 
L 59.141043 158.077445 
L 61.164305 165.625082 
L 65.21083 182.240903 
L 67.234092 190.184803 
L 69.257355 196.911297 
L 70.268986 199.621428 
L 71.280617 201.843557 
L 72.292248 203.583851 
L 73.303879 204.884548 
L 74.31551 205.816315 
L 75.327142 206.466924 
L 77.350404 207.292641 
L 79.373666 208.01727 
L 81.396929 209.084624 
L 82.40856 209.82048 
L 84.431822 211.729992 
L 86.455084 214.144723 
L 91.51324 220.812581 
L 93.536503 222.922972 
L 94.548134 223.731526 
L 95.559765 224.357743 
L 96.571396 224.802022 
L 97.583027 225.075246 
L 98.594658 225.197048 
L 100.617921 225.093624 
L 103.652814 224.513164 
L 106.687708 224.001953 
L 108.71097 223.874331 
L 110.734233 223.932996 
L 114.780757 224.383257 
L 117.815651 224.682874 
L 119.838913 224.728704 
L 121.862175 224.611868 
L 124.897069 224.149193 
L 128.943594 223.197973 
L 135.013381 221.746799 
L 140.071536 220.813001 
L 150.187848 219.051445 
L 170.420472 215.091893 
L 180.536783 213.540552 
L 190.653095 212.195772 
L 198.746144 211.330716 
L 206.839194 210.6763 
L 214.932243 210.22385 
L 223.025292 209.96994 
L 229.095079 209.912346 
L 229.095079 209.912346 
" clip-path="url(#pdc87bf03dc)" style="fill: none; stroke: #00bfbf; stroke-width: 0.75; stroke-linecap: square"/>
   </g>
   <g id="line2d_39">
    <path d="M 47.001469 96.39572 
L 48.0131 96.895763 
L 49.024731 98.391184 
L 50.036362 100.866324 
L 51.047993 104.289722 
L 52.059625 108.605328 
L 53.071256 113.71901 
L 55.094518 125.66332 
L 57.11778 137.963516 
L 58.129412 143.296422 
L 59.141043 147.658095 
L 60.152674 150.970362 
L 61.164305 153.406326 
L 64.199199 159.150209 
L 65.21083 161.678094 
L 66.222461 164.830743 
L 67.234092 168.620547 
L 69.257355 177.55831 
L 71.280617 186.27507 
L 72.292248 189.602666 
L 73.303879 191.914117 
L 74.31551 193.247248 
L 75.327142 193.860738 
L 77.350404 194.386821 
L 78.362035 194.916618 
L 79.373666 195.855634 
L 80.385297 197.230387 
L 82.40856 200.897451 
L 84.431822 204.499736 
L 85.443453 205.76521 
L 86.455084 206.525237 
L 87.466716 206.804762 
L 88.478347 206.724989 
L 91.51324 206.016708 
L 92.524871 206.056131 
L 93.536503 206.313755 
L 95.559765 207.303399 
L 97.583027 208.337671 
L 98.594658 208.649551 
L 99.60629 208.759291 
L 100.617921 208.669599 
L 102.641183 208.074831 
L 104.664445 207.362016 
L 106.687708 206.917773 
L 108.71097 206.788154 
L 111.745864 206.670665 
L 113.769126 206.30273 
L 115.792388 205.672299 
L 119.838913 204.272328 
L 122.873807 203.503695 
L 126.920331 202.534182 
L 130.966856 201.251217 
L 136.025012 199.657338 
L 156.257635 194.104764 
L 166.373947 191.700043 
L 174.466996 190.051781 
L 182.560046 188.614124 
L 190.653095 187.418594 
L 198.746144 186.45052 
L 206.839194 185.713494 
L 214.932243 185.205482 
L 223.025292 184.923098 
L 229.095079 184.859646 
L 229.095079 184.859646 
" clip-path="url(#pdc87bf03dc)" style="fill: none; stroke: #bf00bf; stroke-width: 0.75; stroke-linecap: square"/>
   </g>
   <g id="line2d_40">
    <path d="M 47.001469 67.45927 
L 48.0131 68.552436 
L 49.024731 71.596623 
L 52.059625 84.104346 
L 55.094518 92.585024 
L 56.106149 97.604486 
L 57.11778 104.615625 
L 59.141043 121.555192 
L 60.152674 128.328193 
L 61.164305 132.722963 
L 62.175936 135.858158 
L 63.187567 139.524488 
L 64.199199 144.805334 
L 66.222461 158.321791 
L 67.234092 163.286747 
L 68.245723 165.72991 
L 69.257355 166.871587 
L 70.268986 168.50982 
L 71.280617 171.566113 
L 73.303879 179.564556 
L 74.31551 181.864081 
L 75.327142 182.454912 
L 76.338773 182.445603 
L 77.350404 183.046179 
L 78.362035 184.686327 
L 79.373666 186.895032 
L 80.385297 188.713758 
L 81.396929 189.455719 
L 82.40856 189.272605 
L 83.420191 188.923309 
L 84.431822 189.07319 
L 85.443453 189.851459 
L 86.455084 190.864577 
L 87.466716 191.539116 
L 88.478347 191.57439 
L 90.501609 190.718896 
L 91.51324 190.614044 
L 94.548134 191.26562 
L 95.559765 191.006167 
L 97.583027 190.062818 
L 98.594658 189.794135 
L 101.629552 189.461177 
L 103.652814 188.596263 
L 105.676077 187.758359 
L 108.71097 186.92018 
L 128.943594 178.705425 
L 143.10643 173.499529 
L 151.199479 170.892971 
L 159.292529 168.570895 
L 166.373947 166.772967 
L 173.455365 165.188853 
L 180.536783 163.811751 
L 187.618201 162.635662 
L 195.711251 161.530741 
L 203.8043 160.673332 
L 211.89735 160.057118 
L 219.990399 159.677589 
L 228.083448 159.532017 
L 229.095079 159.530198 
L 229.095079 159.530198 
" clip-path="url(#pdc87bf03dc)" style="fill: none; stroke: #696969; stroke-width: 0.75; stroke-linecap: square"/>
   </g>
   <g id="line2d_41">
    <path d="M 47.001469 284.875212 
L 58.129412 285.006448 
L 68.245723 285.331059 
L 79.373666 285.936407 
L 90.501609 286.766237 
L 102.641183 287.901147 
L 117.815651 289.546354 
L 147.152955 292.808207 
L 159.292529 293.89321 
L 169.40884 294.588055 
L 180.536783 295.108937 
L 192.676357 295.438922 
L 210.885718 295.642028 
L 229.095079 295.65083 
L 229.095079 295.65083 
" clip-path="url(#pdc87bf03dc)" style="fill: none; stroke-dasharray: 2.775,1.2; stroke-dashoffset: 0; stroke: #000000; stroke-width: 0.75"/>
   </g>
   <g id="line2d_42">
    <path d="M 47.001469 257.238878 
L 56.106149 257.354629 
L 64.199199 257.717827 
L 70.268986 258.196184 
L 76.338773 258.91126 
L 81.396929 259.701179 
L 86.455084 260.699096 
L 92.524871 262.169736 
L 98.594658 263.900297 
L 106.687708 266.526978 
L 126.920331 273.313889 
L 135.013381 275.617869 
L 140.071536 276.883586 
L 147.152955 278.443225 
L 154.234373 279.789859 
L 163.339053 281.2716 
L 171.432103 282.292987 
L 178.513521 282.984887 
L 189.641464 283.790346 
L 205.827563 284.701962 
L 225.048555 285.463097 
L 229.095079 285.522719 
L 229.095079 285.522719 
" clip-path="url(#pdc87bf03dc)" style="fill: none; stroke-dasharray: 2.775,1.2; stroke-dashoffset: 0; stroke: #ff0000; stroke-width: 0.75"/>
   </g>
   <g id="line2d_43">
    <path d="M 47.001469 176.646721 
L 48.0131 176.706284 
L 49.024731 176.878955 
L 51.047993 177.596421 
L 53.071256 178.718882 
L 55.094518 180.181786 
L 57.11778 181.967731 
L 59.141043 184.06578 
L 61.164305 186.449798 
L 63.187567 189.092898 
L 65.21083 192.006042 
L 67.234092 195.209697 
L 69.257355 198.696643 
L 72.292248 204.464044 
L 75.327142 210.694174 
L 81.396929 223.615481 
L 83.420191 227.619135 
L 85.443453 231.256389 
L 87.466716 234.303788 
L 88.478347 235.543032 
L 89.489978 236.574251 
L 90.501609 237.375711 
L 91.51324 237.952358 
L 92.524871 238.351618 
L 94.548134 238.667016 
L 100.617921 238.720554 
L 102.641183 239.103777 
L 106.687708 240.278688 
L 108.71097 240.803778 
L 110.734233 241.042929 
L 112.757495 241.003725 
L 113.769126 240.974807 
L 116.80402 240.474981 
L 118.827282 240.418744 
L 120.850544 240.457402 
L 124.897069 241.271013 
L 129.955225 242.530104 
L 131.978487 242.613561 
L 135.013381 242.329808 
L 138.048274 242.1267 
L 141.083168 241.980121 
L 145.129692 241.639237 
L 148.164586 241.099647 
L 153.222742 240.033156 
L 156.257635 239.758722 
L 164.350685 239.555651 
L 166.373947 239.173292 
L 169.40884 238.277416 
L 174.466996 236.689929 
L 176.490259 236.333693 
L 178.513521 236.234504 
L 181.548414 236.521812 
L 184.583308 236.929872 
L 186.60657 237.066249 
L 189.641464 236.952211 
L 197.734513 236.238044 
L 199.757776 236.25442 
L 205.827563 236.199997 
L 208.862456 235.772214 
L 212.908981 235.066333 
L 215.943874 234.795502 
L 217.967137 234.759062 
L 219.990399 234.851933 
L 223.025292 235.131254 
L 227.071817 235.562323 
L 229.095079 235.608816 
L 229.095079 235.608816 
" clip-path="url(#pdc87bf03dc)" style="fill: none; stroke-dasharray: 2.775,1.2; stroke-dashoffset: 0; stroke: #0000ff; stroke-width: 0.75"/>
   </g>
   <g id="line2d_44">
    <path d="M 47.001469 136.280439 
L 48.0131 136.441595 
L 49.024731 136.92186 
L 50.036362 137.723792 
L 51.047993 138.8582 
L 52.059625 140.254757 
L 53.071256 141.95608 
L 54.082887 143.993187 
L 56.106149 148.99036 
L 58.129412 155.166992 
L 60.152674 162.351174 
L 63.187567 174.631486 
L 67.234092 191.357122 
L 68.245723 194.957545 
L 69.257355 198.099751 
L 70.268986 200.731467 
L 71.280617 202.903583 
L 72.292248 204.49034 
L 73.303879 205.700235 
L 74.31551 206.542585 
L 76.338773 207.649168 
L 79.373666 209.060814 
L 81.396929 210.128665 
L 83.420191 211.670755 
L 85.443453 213.665318 
L 86.455084 214.906195 
L 91.51324 222.354807 
L 92.524871 223.448608 
L 93.536503 224.333515 
L 94.548134 224.934086 
L 95.559765 225.324088 
L 96.571396 225.532038 
L 101.629552 225.723766 
L 102.641183 225.673348 
L 103.652814 225.814387 
L 106.687708 225.701534 
L 111.745864 225.0506 
L 113.769126 224.833292 
L 122.873807 224.607544 
L 123.885438 224.554151 
L 125.9087 224.154935 
L 128.943594 223.425609 
L 130.966856 223.024627 
L 136.025012 221.744064 
L 145.129692 219.865598 
L 155.246004 217.760542 
L 157.269266 217.507969 
L 159.292529 217.085399 
L 161.315791 216.89137 
L 163.339053 216.927922 
L 166.373947 216.710801 
L 171.432103 215.489762 
L 173.455365 215.336138 
L 174.466996 215.47231 
L 175.478627 215.745887 
L 177.50189 216.009086 
L 178.513521 216.010036 
L 180.536783 215.619603 
L 185.594939 214.131549 
L 187.618201 214.001538 
L 193.687988 213.868065 
L 196.722882 213.498013 
L 199.757776 212.650369 
L 202.792669 211.622854 
L 203.8043 211.408802 
L 214.932243 210.933778 
L 219.990399 210.387841 
L 227.071817 210.065109 
L 229.095079 210.032695 
L 229.095079 210.032695 
" clip-path="url(#pdc87bf03dc)" style="fill: none; stroke-dasharray: 2.775,1.2; stroke-dashoffset: 0; stroke: #00bfbf; stroke-width: 0.75"/>
   </g>
   <g id="line2d_45">
    <path d="M 47.001469 96.514726 
L 48.0131 97.023006 
L 49.024731 98.554392 
L 50.036362 101.143847 
L 51.047993 104.582654 
L 52.059625 109.007899 
L 53.071256 114.231854 
L 55.094518 126.315804 
L 57.11778 138.649132 
L 58.129412 143.913009 
L 59.141043 148.159243 
L 60.152674 151.384368 
L 61.164305 153.823686 
L 63.187567 157.592162 
L 64.199199 159.751059 
L 65.21083 162.443478 
L 66.222461 165.729568 
L 67.234092 169.676513 
L 71.280617 187.468315 
L 72.292248 190.693316 
L 73.303879 192.888699 
L 74.31551 194.194966 
L 75.327142 194.753619 
L 77.350404 195.326061 
L 78.362035 195.880016 
L 79.373666 196.87692 
L 80.385297 198.348929 
L 81.396929 200.024998 
L 83.420191 203.898459 
L 84.431822 205.639368 
L 85.443453 206.923404 
L 86.455084 207.655444 
L 87.466716 208.011265 
L 88.478347 207.967897 
L 91.51324 207.260774 
L 92.524871 207.334763 
L 93.536503 207.529038 
L 95.559765 208.496075 
L 96.571396 209.054965 
L 98.594658 209.859334 
L 99.60629 210.027588 
L 100.617921 209.986107 
L 102.641183 209.455741 
L 105.676077 208.27443 
L 107.699339 207.908008 
L 110.734233 207.466366 
L 113.769126 207.333569 
L 115.792388 206.675679 
L 120.850544 204.032456 
L 121.862175 203.624955 
L 122.873807 203.385835 
L 123.885438 203.002155 
L 127.931962 201.969467 
L 137.036643 198.632721 
L 145.129692 195.964334 
L 146.141323 195.523377 
L 151.199479 194.151305 
L 152.21111 194.138835 
L 153.222742 193.770684 
L 155.246004 193.52792 
L 156.257635 193.34514 
L 157.269266 193.027102 
L 162.327422 192.279305 
L 168.397209 191.708698 
L 172.443734 191.829907 
L 174.466996 191.655159 
L 177.50189 191.669142 
L 181.548414 191.384205 
L 185.594939 190.70569 
L 189.641464 189.980235 
L 191.664726 189.30938 
L 192.676357 189.075091 
L 196.722882 188.856049 
L 197.734513 188.570593 
L 199.757776 187.663724 
L 200.769407 187.315224 
L 206.839194 186.44351 
L 207.850825 186.149484 
L 208.862456 185.603559 
L 210.885718 185.048002 
L 212.908981 184.698517 
L 213.920612 184.657742 
L 214.932243 184.73712 
L 215.943874 184.624876 
L 217.967137 184.802968 
L 218.978768 184.761258 
L 221.00203 184.872832 
L 226.060186 185.124716 
L 229.095079 185.178551 
L 229.095079 185.178551 
" clip-path="url(#pdc87bf03dc)" style="fill: none; stroke-dasharray: 2.775,1.2; stroke-dashoffset: 0; stroke: #bf00bf; stroke-width: 0.75"/>
   </g>
   <g id="line2d_46">
    <path d="M 47.001469 67.935943 
L 48.0131 69.077168 
L 49.024731 72.11464 
L 51.047993 80.627125 
L 52.059625 84.146262 
L 54.082887 89.188269 
L 55.094518 92.67958 
L 56.106149 98.032682 
L 57.11778 105.306146 
L 59.141043 122.310397 
L 60.152674 128.769352 
L 61.164305 132.910751 
L 62.175936 136.089564 
L 63.187567 140.129528 
L 64.199199 145.885766 
L 66.222461 159.53322 
L 67.234092 164.036314 
L 68.245723 166.123242 
L 69.257355 167.313105 
L 70.268986 169.257136 
L 71.280617 172.663888 
L 72.292248 176.925031 
L 73.303879 180.621667 
L 74.31551 182.665794 
L 75.327142 183.034112 
L 76.338773 183.080206 
L 77.350404 183.862135 
L 78.362035 185.709582 
L 79.373666 187.913331 
L 80.385297 189.6567 
L 81.396929 190.2975 
L 83.420191 189.78654 
L 84.431822 190.00223 
L 85.443453 190.843731 
L 86.455084 191.883532 
L 87.466716 192.505866 
L 88.478347 192.516904 
L 90.501609 191.63975 
L 91.51324 191.499448 
L 94.548134 192.154725 
L 95.559765 191.922531 
L 97.583027 190.926051 
L 98.594658 190.610767 
L 101.629552 190.250659 
L 102.641183 189.915612 
L 105.676077 188.414146 
L 108.71097 187.644909 
L 110.734233 186.796006 
L 112.757495 185.823329 
L 116.80402 184.372237 
L 122.873807 181.937047 
L 125.9087 180.454353 
L 128.943594 178.917276 
L 135.013381 176.309476 
L 136.025012 176.012439 
L 140.071536 173.847843 
L 144.118061 172.333904 
L 148.164586 171.460396 
L 150.187848 171.019466 
L 153.222742 170.302311 
L 154.234373 169.907293 
L 155.246004 169.651187 
L 156.257635 169.262664 
L 159.292529 168.491734 
L 160.30416 168.450963 
L 161.315791 168.293563 
L 164.350685 168.308941 
L 166.373947 167.806378 
L 168.397209 167.022844 
L 169.40884 166.376128 
L 172.443734 164.979853 
L 174.466996 164.685551 
L 176.490259 164.822619 
L 177.50189 165.036767 
L 183.571677 165.594487 
L 185.594939 165.534272 
L 186.60657 165.367744 
L 188.629833 164.619 
L 193.687988 161.917901 
L 194.69962 161.649192 
L 195.711251 161.573568 
L 199.757776 161.817815 
L 200.769407 161.711176 
L 202.792669 160.944884 
L 204.815931 159.910004 
L 206.839194 159.272317 
L 207.850825 159.135372 
L 208.862456 159.144676 
L 210.885718 159.679181 
L 211.89735 160.063921 
L 212.908981 160.313086 
L 213.920612 160.358925 
L 215.943874 159.891202 
L 218.978768 159.024032 
L 219.990399 158.795756 
L 222.013661 159.014852 
L 223.025292 159.32585 
L 225.048555 160.34468 
L 227.071817 161.404037 
L 228.083448 161.703581 
L 229.095079 161.826557 
L 229.095079 161.826557 
" clip-path="url(#pdc87bf03dc)" style="fill: none; stroke-dasharray: 2.775,1.2; stroke-dashoffset: 0; stroke: #696969; stroke-width: 0.75"/>
   </g>
   <g id="patch_3">
    <path d="M 37.896788 309.181443 
L 37.896788 55.94869 
" style="fill: none; stroke: #000000; stroke-width: 0.8; stroke-linejoin: miter; stroke-linecap: square"/>
   </g>
   <g id="patch_4">
    <path d="M 238.19976 309.181443 
L 238.19976 55.94869 
" style="fill: none; stroke: #000000; stroke-width: 0.8; stroke-linejoin: miter; stroke-linecap: square"/>
   </g>
   <g id="patch_5">
    <path d="M 37.896788 309.181443 
L 238.19976 309.181443 
" style="fill: none; stroke: #000000; stroke-width: 0.8; stroke-linejoin: miter; stroke-linecap: square"/>
   </g>
   <g id="patch_6">
    <path d="M 37.896788 55.94869 
L 238.19976 55.94869 
" style="fill: none; stroke: #000000; stroke-width: 0.8; stroke-linejoin: miter; stroke-linecap: square"/>
   </g>
   <g id="axes_2">
    <g id="patch_7">
     <path d="M 87.972531 131.918516 
L 230.187641 131.918516 
L 230.187641 63.545673 
L 87.972531 63.545673 
z
" style="fill: #ffffff"/>
    </g>
    <g id="matplotlib.axis_3">
     <g id="xtick_8">
      <g id="line2d_47">
       <g>
        <use xlink:href="#m226baea214" x="94.436854" y="131.918516" style="stroke: #000000; stroke-width: 0.8"/>
       </g>
      </g>
      <g id="text_13">
       <!-- $\mathdefault{2}$ -->
       <g transform="translate(91.946187 145.837014) scale(0.1 -0.1)">
        <use xlink:href="#CMR17-32" transform="scale(0.996264)"/>
       </g>
      </g>
     </g>
     <g id="xtick_9">
      <g id="line2d_48">
       <g>
        <use xlink:href="#m226baea214" x="137.532342" y="131.918516" style="stroke: #000000; stroke-width: 0.8"/>
       </g>
      </g>
      <g id="text_14">
       <!-- $\mathdefault{3}$ -->
       <g transform="translate(135.041675 145.837014) scale(0.1 -0.1)">
        <use xlink:href="#CMR17-33" transform="scale(0.996264)"/>
       </g>
      </g>
     </g>
     <g id="xtick_10">
      <g id="line2d_49">
       <g>
        <use xlink:href="#m226baea214" x="180.62783" y="131.918516" style="stroke: #000000; stroke-width: 0.8"/>
       </g>
      </g>
      <g id="text_15">
       <!-- $\mathdefault{4}$ -->
       <g transform="translate(178.137162 145.837014) scale(0.1 -0.1)">
        <defs>
         <path id="CMR17-34" d="M 2150 4122 
C 2150 4256 2144 4256 2029 4256 
L 128 1254 
L 128 1088 
L 1779 1088 
L 1779 457 
C 1779 224 1766 160 1318 160 
L 1197 160 
L 1197 0 
C 1402 0 1747 0 1965 0 
C 2182 0 2528 0 2733 0 
L 2733 160 
L 2611 160 
C 2163 160 2150 224 2150 457 
L 2150 1088 
L 2803 1088 
L 2803 1254 
L 2150 1254 
L 2150 4122 
z
M 1798 3703 
L 1798 1254 
L 256 1254 
L 1798 3703 
z
" transform="scale(0.015625)"/>
        </defs>
        <use xlink:href="#CMR17-34" transform="scale(0.996264)"/>
       </g>
      </g>
     </g>
     <g id="xtick_11">
      <g id="line2d_50">
       <g>
        <use xlink:href="#m226baea214" x="223.723318" y="131.918516" style="stroke: #000000; stroke-width: 0.8"/>
       </g>
      </g>
      <g id="text_16">
       <!-- $\mathdefault{5}$ -->
       <g transform="translate(221.23265 145.837014) scale(0.1 -0.1)">
        <use xlink:href="#CMR17-35" transform="scale(0.996264)"/>
       </g>
      </g>
     </g>
     <g id="text_17">
      <!-- $r/a$ -->
      <g transform="translate(151.570611 159.246173) scale(0.1 -0.1)">
       <defs>
        <path id="CMMI12-72" d="M 2490 2612 
C 2291 2574 2189 2433 2189 2293 
C 2189 2139 2310 2088 2400 2088 
C 2579 2088 2726 2242 2726 2433 
C 2726 2638 2528 2816 2208 2816 
C 1952 2816 1658 2701 1389 2312 
C 1344 2650 1088 2816 832 2816 
C 582 2816 454 2625 378 2484 
C 269 2254 173 1871 173 1839 
C 173 1814 198 1782 243 1782 
C 294 1782 301 1788 339 1935 
C 435 2318 557 2689 813 2689 
C 966 2689 1011 2580 1011 2395 
C 1011 2254 947 2005 902 1807 
L 723 1118 
C 698 996 627 709 595 594 
C 550 428 480 128 480 96 
C 480 6 550 -64 646 -64 
C 717 -64 838 -19 877 109 
C 896 160 1133 1124 1171 1271 
C 1203 1411 1242 1546 1274 1686 
C 1299 1775 1325 1878 1344 1961 
C 1363 2018 1536 2331 1696 2472 
C 1773 2542 1939 2689 2202 2689 
C 2304 2689 2406 2670 2490 2612 
z
" transform="scale(0.015625)"/>
        <path id="CMMI12-61" d="M 1926 760 
C 1894 651 1894 639 1805 517 
C 1664 338 1382 64 1082 64 
C 819 64 672 300 672 677 
C 672 1028 870 1743 992 2012 
C 1210 2459 1510 2689 1760 2689 
C 2182 2689 2266 2165 2266 2114 
C 2266 2108 2246 2024 2240 2012 
L 1926 760 
z
M 2336 2395 
C 2266 2561 2093 2816 1760 2816 
C 1037 2816 256 1884 256 939 
C 256 307 627 -64 1062 -64 
C 1414 -64 1715 211 1894 422 
C 1958 45 2259 -64 2451 -64 
C 2643 -64 2797 51 2912 281 
C 3014 498 3104 888 3104 913 
C 3104 945 3078 971 3040 971 
C 2982 971 2976 939 2950 843 
C 2854 466 2733 64 2470 64 
C 2285 64 2272 230 2272 358 
C 2272 505 2291 575 2349 824 
C 2394 984 2426 1124 2477 1309 
C 2714 2267 2771 2497 2771 2535 
C 2771 2625 2701 2695 2605 2695 
C 2400 2695 2349 2472 2336 2395 
z
" transform="scale(0.015625)"/>
       </defs>
       <use xlink:href="#CMMI12-72" transform="scale(0.996264)"/>
       <use xlink:href="#CMMI12-3d" transform="translate(46.670612 0) scale(0.996264)"/>
       <use xlink:href="#CMMI12-61" transform="translate(95.445531 0) scale(0.996264)"/>
      </g>
     </g>
    </g>
    <g id="matplotlib.axis_4">
     <g id="ytick_28">
      <g id="line2d_51">
       <g>
        <use xlink:href="#m4bc6db3efc" x="87.972531" y="110.987951" style="stroke: #000000; stroke-width: 0.8"/>
       </g>
      </g>
      <g id="text_18">
       <!-- $\mathdefault{10^{0}}$ -->
       <g transform="translate(67.038623 114.4472) scale(0.1 -0.1)">
        <use xlink:href="#CMR17-31" transform="scale(0.996264)"/>
        <use xlink:href="#CMR17-30" transform="translate(45.690477 0) scale(0.996264)"/>
        <use xlink:href="#CMR17-30" transform="translate(91.380954 36.153639) scale(0.697382)"/>
       </g>
      </g>
     </g>
     <g id="ytick_29">
      <g id="line2d_52">
       <g>
        <use xlink:href="#m4bc6db3efc" x="87.972531" y="74.786603" style="stroke: #000000; stroke-width: 0.8"/>
       </g>
      </g>
      <g id="text_19">
       <!-- $\mathdefault{10^{1}}$ -->
       <g transform="translate(67.038623 78.245852) scale(0.1 -0.1)">
        <use xlink:href="#CMR17-31" transform="scale(0.996264)"/>
        <use xlink:href="#CMR17-30" transform="translate(45.690477 0) scale(0.996264)"/>
        <use xlink:href="#CMR17-31" transform="translate(91.380954 36.153639) scale(0.697382)"/>
       </g>
      </g>
     </g>
     <g id="ytick_30">
      <g id="line2d_53">
       <g>
        <use xlink:href="#mcd342e6f49" x="87.972531" y="129.916866" style="stroke: #000000; stroke-width: 0.6"/>
       </g>
      </g>
     </g>
     <g id="ytick_31">
      <g id="line2d_54">
       <g>
        <use xlink:href="#mcd342e6f49" x="87.972531" y="125.393915" style="stroke: #000000; stroke-width: 0.6"/>
       </g>
      </g>
     </g>
     <g id="ytick_32">
      <g id="line2d_55">
       <g>
        <use xlink:href="#mcd342e6f49" x="87.972531" y="121.885642" style="stroke: #000000; stroke-width: 0.6"/>
       </g>
      </g>
     </g>
     <g id="ytick_33">
      <g id="line2d_56">
       <g>
        <use xlink:href="#mcd342e6f49" x="87.972531" y="119.019174" style="stroke: #000000; stroke-width: 0.6"/>
       </g>
      </g>
     </g>
     <g id="ytick_34">
      <g id="line2d_57">
       <g>
        <use xlink:href="#mcd342e6f49" x="87.972531" y="116.59561" style="stroke: #000000; stroke-width: 0.6"/>
       </g>
      </g>
     </g>
     <g id="ytick_35">
      <g id="line2d_58">
       <g>
        <use xlink:href="#mcd342e6f49" x="87.972531" y="114.496224" style="stroke: #000000; stroke-width: 0.6"/>
       </g>
      </g>
     </g>
     <g id="ytick_36">
      <g id="line2d_59">
       <g>
        <use xlink:href="#mcd342e6f49" x="87.972531" y="112.644434" style="stroke: #000000; stroke-width: 0.6"/>
       </g>
      </g>
     </g>
     <g id="ytick_37">
      <g id="line2d_60">
       <g>
        <use xlink:href="#mcd342e6f49" x="87.972531" y="100.090259" style="stroke: #000000; stroke-width: 0.6"/>
       </g>
      </g>
     </g>
     <g id="ytick_38">
      <g id="line2d_61">
       <g>
        <use xlink:href="#mcd342e6f49" x="87.972531" y="93.715518" style="stroke: #000000; stroke-width: 0.6"/>
       </g>
      </g>
     </g>
     <g id="ytick_39">
      <g id="line2d_62">
       <g>
        <use xlink:href="#mcd342e6f49" x="87.972531" y="89.192567" style="stroke: #000000; stroke-width: 0.6"/>
       </g>
      </g>
     </g>
     <g id="ytick_40">
      <g id="line2d_63">
       <g>
        <use xlink:href="#mcd342e6f49" x="87.972531" y="85.684294" style="stroke: #000000; stroke-width: 0.6"/>
       </g>
      </g>
     </g>
     <g id="ytick_41">
      <g id="line2d_64">
       <g>
        <use xlink:href="#mcd342e6f49" x="87.972531" y="82.817827" style="stroke: #000000; stroke-width: 0.6"/>
       </g>
      </g>
     </g>
     <g id="ytick_42">
      <g id="line2d_65">
       <g>
        <use xlink:href="#mcd342e6f49" x="87.972531" y="80.394263" style="stroke: #000000; stroke-width: 0.6"/>
       </g>
      </g>
     </g>
     <g id="ytick_43">
      <g id="line2d_66">
       <g>
        <use xlink:href="#mcd342e6f49" x="87.972531" y="78.294876" style="stroke: #000000; stroke-width: 0.6"/>
       </g>
      </g>
     </g>
     <g id="ytick_44">
      <g id="line2d_67">
       <g>
        <use xlink:href="#mcd342e6f49" x="87.972531" y="76.443086" style="stroke: #000000; stroke-width: 0.6"/>
       </g>
      </g>
     </g>
     <g id="ytick_45">
      <g id="line2d_68">
       <g>
        <use xlink:href="#mcd342e6f49" x="87.972531" y="63.888911" style="stroke: #000000; stroke-width: 0.6"/>
       </g>
      </g>
     </g>
    </g>
    <g id="line2d_69">
     <path d="M 94.436854 128.742092 
L 98.746403 128.72449 
L 103.055952 128.709504 
L 107.365501 128.696812 
L 111.675049 128.686138 
L 115.984598 128.677242 
L 120.294147 128.669917 
L 124.603696 128.663982 
L 128.913245 128.659279 
L 133.222793 128.655669 
L 137.532342 128.653029 
L 141.841891 128.651253 
L 146.15144 128.650245 
L 150.460989 128.649921 
L 154.770537 128.650207 
L 159.080086 128.651036 
L 163.389635 128.652349 
L 167.699184 128.654093 
L 172.008733 128.656221 
L 176.318281 128.658691 
L 180.62783 128.661465 
L 184.937379 128.664508 
L 189.246928 128.667792 
L 193.556476 128.671287 
L 197.866025 128.67497 
L 202.175574 128.678817 
L 206.485123 128.68281 
L 210.794672 128.686929 
L 215.10422 128.691159 
L 219.413769 128.695484 
L 223.723318 128.699891 
" clip-path="url(#p75caba7a40)" style="fill: none; stroke: #000000; stroke-width: 0.75; stroke-linecap: square"/>
    </g>
    <g id="line2d_70">
     <path d="M 94.436854 120.374388 
L 98.746403 120.505908 
L 103.055952 120.629097 
L 107.365501 120.744741 
L 111.675049 120.853529 
L 115.984598 120.956065 
L 120.294147 121.052882 
L 124.603696 121.144453 
L 128.913245 121.231197 
L 133.222793 121.313492 
L 137.532342 121.391673 
L 141.841891 121.466045 
L 146.15144 121.536879 
L 150.460989 121.604425 
L 154.770537 121.668906 
L 159.080086 121.730527 
L 163.389635 121.789474 
L 167.699184 121.845918 
L 172.008733 121.900014 
L 176.318281 121.951906 
L 180.62783 122.001726 
L 184.937379 122.049595 
L 189.246928 122.095625 
L 193.556476 122.139919 
L 197.866025 122.182574 
L 202.175574 122.223679 
L 206.485123 122.263315 
L 210.794672 122.30156 
L 215.10422 122.338486 
L 219.413769 122.374159 
L 223.723318 122.408642 
" clip-path="url(#p75caba7a40)" style="fill: none; stroke: #ff0000; stroke-width: 0.75; stroke-linecap: square"/>
    </g>
    <g id="line2d_71">
     <path d="M 94.436854 98.59413 
L 98.746403 98.838295 
L 103.055952 99.058158 
L 107.365501 99.257136 
L 111.675049 99.438044 
L 115.984598 99.603217 
L 120.294147 99.754607 
L 124.603696 99.893859 
L 128.913245 100.022369 
L 133.222793 100.141328 
L 137.532342 100.251757 
L 141.841891 100.354538 
L 146.15144 100.450436 
L 150.460989 100.540118 
L 154.770537 100.624168 
L 159.080086 100.703098 
L 163.389635 100.777362 
L 167.699184 100.84736 
L 172.008733 100.91345 
L 176.318281 100.975948 
L 180.62783 101.03514 
L 184.937379 101.09128 
L 189.246928 101.144599 
L 193.556476 101.195303 
L 197.866025 101.243581 
L 202.175574 101.289601 
L 206.485123 101.33352 
L 210.794672 101.375476 
L 215.10422 101.4156 
L 219.413769 101.454007 
L 223.723318 101.490807 
" clip-path="url(#p75caba7a40)" style="fill: none; stroke: #0000ff; stroke-width: 0.75; stroke-linecap: square"/>
    </g>
    <g id="line2d_72">
     <path d="M 94.436854 88.214752 
L 98.746403 88.46291 
L 103.055952 88.685487 
L 107.365501 88.886244 
L 111.675049 89.068238 
L 115.984598 89.233984 
L 120.294147 89.385564 
L 124.603696 89.524721 
L 128.913245 89.652924 
L 133.222793 89.771416 
L 137.532342 89.881263 
L 141.841891 89.983377 
L 146.15144 90.078548 
L 150.460989 90.167461 
L 154.770537 90.250714 
L 159.080086 90.328831 
L 163.389635 90.402274 
L 167.699184 90.471451 
L 172.008733 90.536722 
L 176.318281 90.598409 
L 180.62783 90.656801 
L 184.937379 90.712154 
L 189.246928 90.7647 
L 193.556476 90.814647 
L 197.866025 90.862183 
L 202.175574 90.90748 
L 206.485123 90.950691 
L 210.794672 90.991957 
L 215.10422 91.031408 
L 219.413769 91.069159 
L 223.723318 91.10532 
" clip-path="url(#p75caba7a40)" style="fill: none; stroke: #00bfbf; stroke-width: 0.75; stroke-linecap: square"/>
    </g>
    <g id="line2d_73">
     <path d="M 94.436854 77.498537 
L 98.746403 77.746521 
L 103.055952 77.968696 
L 107.365501 78.168903 
L 111.675049 78.350257 
L 115.984598 78.515308 
L 120.294147 78.666166 
L 124.603696 78.804591 
L 128.913245 78.932063 
L 133.222793 79.049834 
L 137.532342 79.158974 
L 141.841891 79.2604 
L 146.15144 79.354904 
L 150.460989 79.443171 
L 154.770537 79.525801 
L 159.080086 79.603318 
L 163.389635 79.676182 
L 167.699184 79.744801 
L 172.008733 79.809536 
L 176.318281 79.870709 
L 180.62783 79.928605 
L 184.937379 79.983481 
L 189.246928 80.035568 
L 193.556476 80.085074 
L 197.866025 80.132185 
L 202.175574 80.177073 
L 206.485123 80.21989 
L 210.794672 80.260776 
L 215.10422 80.299861 
L 219.413769 80.337259 
L 223.723318 80.373079 
" clip-path="url(#p75caba7a40)" style="fill: none; stroke: #bf00bf; stroke-width: 0.75; stroke-linecap: square"/>
    </g>
    <g id="line2d_74">
     <path d="M 94.436854 66.653529 
L 98.746403 66.901249 
L 103.055952 67.12313 
L 107.365501 67.323032 
L 111.675049 67.50408 
L 115.984598 67.668831 
L 120.294147 67.819398 
L 124.603696 67.957543 
L 128.913245 68.084747 
L 133.222793 68.202263 
L 137.532342 68.31116 
L 141.841891 68.412356 
L 146.15144 68.50664 
L 150.460989 68.5947 
L 154.770537 68.677133 
L 159.080086 68.754463 
L 163.389635 68.82715 
L 167.699184 68.8956 
L 172.008733 68.960175 
L 176.318281 69.021195 
L 180.62783 69.078946 
L 184.937379 69.133684 
L 189.246928 69.18564 
L 193.556476 69.235019 
L 197.866025 69.282011 
L 202.175574 69.326783 
L 206.485123 69.36949 
L 210.794672 69.410271 
L 215.10422 69.449255 
L 219.413769 69.486557 
L 223.723318 69.522284 
" clip-path="url(#p75caba7a40)" style="fill: none; stroke: #696969; stroke-width: 0.75; stroke-linecap: square"/>
    </g>
    <g id="line2d_75">
     <defs>
      <path id="m2c86fa4555" d="M 0 1 
C 0.265203 1 0.51958 0.894634 0.707107 0.707107 
C 0.894634 0.51958 1 0.265203 1 0 
C 1 -0.265203 0.894634 -0.51958 0.707107 -0.707107 
C 0.51958 -0.894634 0.265203 -1 0 -1 
C -0.265203 -1 -0.51958 -0.894634 -0.707107 -0.707107 
C -0.894634 -0.51958 -1 -0.265203 -1 0 
C -1 0.265203 -0.894634 0.51958 -0.707107 0.707107 
C -0.51958 0.894634 -0.265203 1 0 1 
z
" style="stroke: #000000"/>
     </defs>
     <g clip-path="url(#p75caba7a40)">
      <use xlink:href="#m2c86fa4555" x="94.436854" y="128.810659" style="stroke: #000000"/>
      <use xlink:href="#m2c86fa4555" x="137.532342" y="128.650033" style="stroke: #000000"/>
      <use xlink:href="#m2c86fa4555" x="180.62783" y="128.349786" style="stroke: #000000"/>
      <use xlink:href="#m2c86fa4555" x="223.723318" y="127.834536" style="stroke: #000000"/>
     </g>
    </g>
    <g id="line2d_76">
     <defs>
      <path id="md475fe3855" d="M 0 1 
C 0.265203 1 0.51958 0.894634 0.707107 0.707107 
C 0.894634 0.51958 1 0.265203 1 0 
C 1 -0.265203 0.894634 -0.51958 0.707107 -0.707107 
C 0.51958 -0.894634 0.265203 -1 0 -1 
C -0.265203 -1 -0.51958 -0.894634 -0.707107 -0.707107 
C -0.894634 -0.51958 -1 -0.265203 -1 0 
C -1 0.265203 -0.894634 0.51958 -0.707107 0.707107 
C -0.51958 0.894634 -0.265203 1 0 1 
z
" style="stroke: #ff0000"/>
     </defs>
     <g clip-path="url(#p75caba7a40)">
      <use xlink:href="#md475fe3855" x="94.436854" y="120.2423" style="fill: #ff0000; stroke: #ff0000"/>
      <use xlink:href="#md475fe3855" x="137.532342" y="121.686769" style="fill: #ff0000; stroke: #ff0000"/>
      <use xlink:href="#md475fe3855" x="180.62783" y="123.018689" style="fill: #ff0000; stroke: #ff0000"/>
      <use xlink:href="#md475fe3855" x="223.723318" y="123.495789" style="fill: #ff0000; stroke: #ff0000"/>
     </g>
    </g>
    <g id="line2d_77">
     <defs>
      <path id="m9c84b39deb" d="M 0 1 
C 0.265203 1 0.51958 0.894634 0.707107 0.707107 
C 0.894634 0.51958 1 0.265203 1 0 
C 1 -0.265203 0.894634 -0.51958 0.707107 -0.707107 
C 0.51958 -0.894634 0.265203 -1 0 -1 
C -0.265203 -1 -0.51958 -0.894634 -0.707107 -0.707107 
C -0.894634 -0.51958 -1 -0.265203 -1 0 
C -1 0.265203 -0.894634 0.51958 -0.707107 0.707107 
C -0.51958 0.894634 -0.265203 1 0 1 
z
" style="stroke: #0000ff"/>
     </defs>
     <g clip-path="url(#p75caba7a40)">
      <use xlink:href="#m9c84b39deb" x="94.436854" y="98.769084" style="fill: #0000ff; stroke: #0000ff"/>
      <use xlink:href="#m9c84b39deb" x="137.532342" y="100.491085" style="fill: #0000ff; stroke: #0000ff"/>
      <use xlink:href="#m9c84b39deb" x="180.62783" y="101.351266" style="fill: #0000ff; stroke: #0000ff"/>
      <use xlink:href="#m9c84b39deb" x="223.723318" y="102.113343" style="fill: #0000ff; stroke: #0000ff"/>
     </g>
    </g>
    <g id="line2d_78">
     <defs>
      <path id="m76d3c1f892" d="M 0 1 
C 0.265203 1 0.51958 0.894634 0.707107 0.707107 
C 0.894634 0.51958 1 0.265203 1 0 
C 1 -0.265203 0.894634 -0.51958 0.707107 -0.707107 
C 0.51958 -0.894634 0.265203 -1 0 -1 
C -0.265203 -1 -0.51958 -0.894634 -0.707107 -0.707107 
C -0.894634 -0.51958 -1 -0.265203 -1 0 
C -1 0.265203 -0.894634 0.51958 -0.707107 0.707107 
C -0.51958 0.894634 -0.265203 1 0 1 
z
" style="stroke: #00bfbf"/>
     </defs>
     <g clip-path="url(#p75caba7a40)">
      <use xlink:href="#m76d3c1f892" x="94.436854" y="88.096645" style="fill: #00bfbf; stroke: #00bfbf"/>
      <use xlink:href="#m76d3c1f892" x="137.532342" y="89.836161" style="fill: #00bfbf; stroke: #00bfbf"/>
      <use xlink:href="#m76d3c1f892" x="180.62783" y="90.655887" style="fill: #00bfbf; stroke: #00bfbf"/>
      <use xlink:href="#m76d3c1f892" x="223.723318" y="91.156876" style="fill: #00bfbf; stroke: #00bfbf"/>
     </g>
    </g>
    <g id="line2d_79">
     <defs>
      <path id="mb991a22d29" d="M 0 1 
C 0.265203 1 0.51958 0.894634 0.707107 0.707107 
C 0.894634 0.51958 1 0.265203 1 0 
C 1 -0.265203 0.894634 -0.51958 0.707107 -0.707107 
C 0.51958 -0.894634 0.265203 -1 0 -1 
C -0.265203 -1 -0.51958 -0.894634 -0.707107 -0.707107 
C -0.894634 -0.51958 -1 -0.265203 -1 0 
C -1 0.265203 -0.894634 0.51958 -0.707107 0.707107 
C -0.51958 0.894634 -0.265203 1 0 1 
z
" style="stroke: #bf00bf"/>
     </defs>
     <g clip-path="url(#p75caba7a40)">
      <use xlink:href="#mb991a22d29" x="94.436854" y="77.564817" style="fill: #bf00bf; stroke: #bf00bf"/>
      <use xlink:href="#mb991a22d29" x="137.532342" y="79.271017" style="fill: #bf00bf; stroke: #bf00bf"/>
      <use xlink:href="#mb991a22d29" x="180.62783" y="80.050372" style="fill: #bf00bf; stroke: #bf00bf"/>
      <use xlink:href="#mb991a22d29" x="223.723318" y="80.509694" style="fill: #bf00bf; stroke: #bf00bf"/>
     </g>
    </g>
    <g id="line2d_80">
     <defs>
      <path id="m50ecd1137e" d="M 0 1 
C 0.265203 1 0.51958 0.894634 0.707107 0.707107 
C 0.894634 0.51958 1 0.265203 1 0 
C 1 -0.265203 0.894634 -0.51958 0.707107 -0.707107 
C 0.51958 -0.894634 0.265203 -1 0 -1 
C -0.265203 -1 -0.51958 -0.894634 -0.707107 -0.707107 
C -0.894634 -0.51958 -1 -0.265203 -1 0 
C -1 0.265203 -0.894634 0.51958 -0.707107 0.707107 
C -0.51958 0.894634 -0.265203 1 0 1 
z
" style="stroke: #696969"/>
     </defs>
     <g clip-path="url(#p75caba7a40)">
      <use xlink:href="#m50ecd1137e" x="94.436854" y="66.748258" style="fill: #696969; stroke: #696969"/>
      <use xlink:href="#m50ecd1137e" x="137.532342" y="68.877548" style="fill: #696969; stroke: #696969"/>
      <use xlink:href="#m50ecd1137e" x="180.62783" y="69.958009" style="fill: #696969; stroke: #696969"/>
      <use xlink:href="#m50ecd1137e" x="223.723318" y="70.506013" style="fill: #696969; stroke: #696969"/>
     </g>
    </g>
    <g id="patch_8">
     <path d="M 87.972531 131.918516 
L 87.972531 63.545673 
" style="fill: none; stroke: #000000; stroke-width: 0.8; stroke-linejoin: miter; stroke-linecap: square"/>
    </g>
    <g id="patch_9">
     <path d="M 230.187641 131.918516 
L 230.187641 63.545673 
" style="fill: none; stroke: #000000; stroke-width: 0.8; stroke-linejoin: miter; stroke-linecap: square"/>
    </g>
    <g id="patch_10">
     <path d="M 87.972531 131.918516 
L 230.187641 131.918516 
" style="fill: none; stroke: #000000; stroke-width: 0.8; stroke-linejoin: miter; stroke-linecap: square"/>
    </g>
    <g id="patch_11">
     <path d="M 87.972531 63.545673 
L 230.187641 63.545673 
" style="fill: none; stroke: #000000; stroke-width: 0.8; stroke-linejoin: miter; stroke-linecap: square"/>
    </g>
   </g>
   <g id="legend_1">
    <g id="patch_12">
     <path d="M 43.902848 50.884035 
L 230.205819 50.884035 
Q 232.205819 50.884035 232.205819 48.884035 
L 232.205819 4.996115 
Q 232.205819 2.996115 230.205819 2.996115 
L 43.902848 2.996115 
Q 41.902848 2.996115 41.902848 4.996115 
L 41.902848 48.884035 
Q 41.902848 50.884035 43.902848 50.884035 
z
" style="fill: #ffffff; opacity: 0.8; stroke: #cccccc; stroke-linejoin: miter"/>
    </g>
    <g id="patch_13">
     <path d="M 45.902848 14.468095 
L 65.902848 14.468095 
L 65.902848 7.468095 
L 45.902848 7.468095 
z
" style="stroke: #000000; stroke-linejoin: miter"/>
    </g>
    <g id="text_20">
     <!-- $a/ \lambda = 0.05$ -->
     <g transform="translate(73.902848 14.468095) scale(0.1 -0.1)">
      <defs>
       <path id="CMR17-3d" d="M 4115 2017 
C 4211 2017 4307 2017 4307 2125 
C 4307 2240 4198 2240 4090 2240 
L 512 2240 
C 403 2240 294 2240 294 2125 
C 294 2017 390 2017 486 2017 
L 4115 2017 
z
M 4090 896 
C 4198 896 4307 896 4307 1011 
C 4307 1119 4211 1119 4115 1119 
L 486 1119 
C 390 1119 294 1119 294 1011 
C 294 896 403 896 512 896 
L 4090 896 
z
" transform="scale(0.015625)"/>
       <path id="CMMI12-3a" d="M 1178 307 
C 1178 492 1024 619 870 619 
C 685 619 557 466 557 313 
C 557 128 710 0 864 0 
C 1050 0 1178 153 1178 307 
z
" transform="scale(0.015625)"/>
      </defs>
      <use xlink:href="#CMMI12-61" transform="scale(0.996264)"/>
      <use xlink:href="#CMMI12-3d" transform="translate(51.207858 0) scale(0.996264)"/>
      <use xlink:href="#CMMI12-15" transform="translate(99.982776 0) scale(0.996264)"/>
      <use xlink:href="#CMR17-3d" transform="translate(184.560857 0) scale(0.996264)"/>
      <use xlink:href="#CMR17-30" transform="translate(283.949654 0) scale(0.996264)"/>
      <use xlink:href="#CMMI12-3a" transform="translate(329.640131 0) scale(0.996264)"/>
      <use xlink:href="#CMR17-30" transform="translate(356.737308 0) scale(0.996264)"/>
      <use xlink:href="#CMR17-35" transform="translate(402.427785 0) scale(0.996264)"/>
     </g>
    </g>
    <g id="patch_14">
     <path d="M 45.902848 29.430735 
L 65.902848 29.430735 
L 65.902848 22.430735 
L 45.902848 22.430735 
z
" style="fill: #ff0000; stroke: #ff0000; stroke-linejoin: miter"/>
    </g>
    <g id="text_21">
     <!-- $a/ \lambda = 0.1$ -->
     <g transform="translate(73.902848 29.430735) scale(0.1 -0.1)">
      <use xlink:href="#CMMI12-61" transform="scale(0.996264)"/>
      <use xlink:href="#CMMI12-3d" transform="translate(51.207858 0) scale(0.996264)"/>
      <use xlink:href="#CMMI12-15" transform="translate(99.982776 0) scale(0.996264)"/>
      <use xlink:href="#CMR17-3d" transform="translate(184.560857 0) scale(0.996264)"/>
      <use xlink:href="#CMR17-30" transform="translate(283.949654 0) scale(0.996264)"/>
      <use xlink:href="#CMMI12-3a" transform="translate(329.640131 0) scale(0.996264)"/>
      <use xlink:href="#CMR17-31" transform="translate(356.737308 0) scale(0.996264)"/>
     </g>
    </g>
    <g id="patch_15">
     <path d="M 45.902848 44.393375 
L 65.902848 44.393375 
L 65.902848 37.393375 
L 45.902848 37.393375 
z
" style="fill: #0000ff; stroke: #0000ff; stroke-linejoin: miter"/>
    </g>
    <g id="text_22">
     <!-- $a/ \lambda = 0.5$ -->
     <g transform="translate(73.902848 44.393375) scale(0.1 -0.1)">
      <use xlink:href="#CMMI12-61" transform="scale(0.996264)"/>
      <use xlink:href="#CMMI12-3d" transform="translate(51.207858 0) scale(0.996264)"/>
      <use xlink:href="#CMMI12-15" transform="translate(99.982776 0) scale(0.996264)"/>
      <use xlink:href="#CMR17-3d" transform="translate(184.560857 0) scale(0.996264)"/>
      <use xlink:href="#CMR17-30" transform="translate(283.949654 0) scale(0.996264)"/>
      <use xlink:href="#CMMI12-3a" transform="translate(329.640131 0) scale(0.996264)"/>
      <use xlink:href="#CMR17-35" transform="translate(356.737308 0) scale(0.996264)"/>
     </g>
    </g>
    <g id="patch_16">
     <path d="M 165.882034 14.468095 
L 185.882034 14.468095 
L 185.882034 7.468095 
L 165.882034 7.468095 
z
" style="fill: #00bfbf; stroke: #00bfbf; stroke-linejoin: miter"/>
    </g>
    <g id="text_23">
     <!-- $a/ \lambda = 1$ -->
     <g transform="translate(193.882034 14.468095) scale(0.1 -0.1)">
      <use xlink:href="#CMMI12-61" transform="scale(0.996264)"/>
      <use xlink:href="#CMMI12-3d" transform="translate(51.207858 0) scale(0.996264)"/>
      <use xlink:href="#CMMI12-15" transform="translate(99.982776 0) scale(0.996264)"/>
      <use xlink:href="#CMR17-3d" transform="translate(184.560857 0) scale(0.996264)"/>
      <use xlink:href="#CMR17-31" transform="translate(283.949654 0) scale(0.996264)"/>
     </g>
    </g>
    <g id="patch_17">
     <path d="M 165.882034 29.430735 
L 185.882034 29.430735 
L 185.882034 22.430735 
L 165.882034 22.430735 
z
" style="fill: #bf00bf; stroke: #bf00bf; stroke-linejoin: miter"/>
    </g>
    <g id="text_24">
     <!-- $a/ \lambda = 2$ -->
     <g transform="translate(193.882034 29.430735) scale(0.1 -0.1)">
      <use xlink:href="#CMMI12-61" transform="scale(0.996264)"/>
      <use xlink:href="#CMMI12-3d" transform="translate(51.207858 0) scale(0.996264)"/>
      <use xlink:href="#CMMI12-15" transform="translate(99.982776 0) scale(0.996264)"/>
      <use xlink:href="#CMR17-3d" transform="translate(184.560857 0) scale(0.996264)"/>
      <use xlink:href="#CMR17-32" transform="translate(283.949654 0) scale(0.996264)"/>
     </g>
    </g>
    <g id="patch_18">
     <path d="M 165.882034 44.393375 
L 185.882034 44.393375 
L 185.882034 37.393375 
L 165.882034 37.393375 
z
" style="fill: #696969; stroke: #696969; stroke-linejoin: miter"/>
    </g>
    <g id="text_25">
     <!-- $a/ \lambda = 4$ -->
     <g transform="translate(193.882034 44.393375) scale(0.1 -0.1)">
      <use xlink:href="#CMMI12-61" transform="scale(0.996264)"/>
      <use xlink:href="#CMMI12-3d" transform="translate(51.207858 0) scale(0.996264)"/>
      <use xlink:href="#CMMI12-15" transform="translate(99.982776 0) scale(0.996264)"/>
      <use xlink:href="#CMR17-3d" transform="translate(184.560857 0) scale(0.996264)"/>
      <use xlink:href="#CMR17-34" transform="translate(283.949654 0) scale(0.996264)"/>
     </g>
    </g>
   </g>
  </g>
 </g>
 <defs>
  <clipPath id="pdc87bf03dc">
   <rect x="37.896788" y="55.94869" width="200.302972" height="253.232753"/>
  </clipPath>
  <clipPath id="p75caba7a40">
   <rect x="87.972531" y="63.545673" width="142.21511" height="68.372843"/>
  </clipPath>
 </defs>
</svg>
