<?xml version="1.0" encoding="utf-8" standalone="no"?>
<!DOCTYPE svg PUBLIC "-//W3C//DTD SVG 1.1//EN"
  "http://www.w3.org/Graphics/SVG/1.1/DTD/svg11.dtd">
<svg xmlns:xlink="http://www.w3.org/1999/xlink" width="241.2pt" height="144pt" viewBox="0 0 241.2 144" xmlns="http://www.w3.org/2000/svg" version="1.1">
 <metadata>
  <rdf:RDF xmlns:dc="http://purl.org/dc/elements/1.1/" xmlns:cc="http://creativecommons.org/ns#" xmlns:rdf="http://www.w3.org/1999/02/22-rdf-syntax-ns#">
   <cc:Work>
    <dc:type rdf:resource="http://purl.org/dc/dcmitype/StillImage"/>
    <dc:date>2024-08-22T09:41:25.849360</dc:date>
    <dc:format>image/svg+xml</dc:format>
    <dc:creator>
     <cc:Agent>
      <dc:title>Matplotlib v3.8.4, https://matplotlib.org/</dc:title>
     </cc:Agent>
    </dc:creator>
   </cc:Work>
  </rdf:RDF>
 </metadata>
 <defs>
  <style type="text/css">*{stroke-linejoin: round; stroke-linecap: butt}</style>
 </defs>
 <g id="figure_1">
  <g id="patch_1">
   <path d="M 0 144 
L 241.2 144 
L 241.2 0 
L 0 0 
z
" style="fill: #ffffff"/>
  </g>
  <g id="axes_1">
   <g id="patch_2">
    <path d="M 44.123453 111.181443 
L 238.19976 111.181443 
L 238.19976 3.00024 
L 44.123453 3.00024 
z
" style="fill: #ffffff"/>
   </g>
   <g id="matplotlib.axis_1">
    <g id="xtick_1">
     <g id="line2d_1">
      <defs>
       <path id="m0fc20e96d6" d="M 0 0 
L 0 3.5 
" style="stroke: #000000; stroke-width: 0.8"/>
      </defs>
      <g>
       <use xlink:href="#m0fc20e96d6" x="52.945104" y="111.181443" style="stroke: #000000; stroke-width: 0.8"/>
      </g>
     </g>
     <g id="text_1">
      <!-- $\mathdefault{0}$ -->
      <g transform="translate(50.454436 125.099942) scale(0.1 -0.1)">
       <defs>
        <path id="CMR17-30" d="M 2688 2025 
C 2688 2416 2682 3080 2413 3591 
C 2176 4039 1798 4198 1466 4198 
C 1158 4198 768 4058 525 3597 
C 269 3118 243 2524 243 2025 
C 243 1661 250 1106 448 619 
C 723 -39 1216 -128 1466 -128 
C 1760 -128 2208 -7 2470 600 
C 2662 1042 2688 1559 2688 2025 
z
M 1466 -26 
C 1056 -26 813 325 723 812 
C 653 1188 653 1738 653 2096 
C 653 2588 653 2997 736 3387 
C 858 3929 1216 4096 1466 4096 
C 1728 4096 2067 3923 2189 3400 
C 2272 3036 2278 2607 2278 2096 
C 2278 1680 2278 1169 2202 792 
C 2067 95 1690 -26 1466 -26 
z
" transform="scale(0.015625)"/>
       </defs>
       <use xlink:href="#CMR17-30" transform="scale(0.996264)"/>
      </g>
     </g>
    </g>
    <g id="xtick_2">
     <g id="line2d_2">
      <g>
       <use xlink:href="#m0fc20e96d6" x="82.350605" y="111.181443" style="stroke: #000000; stroke-width: 0.8"/>
      </g>
     </g>
     <g id="text_2">
      <!-- $\mathdefault{30}$ -->
      <g transform="translate(77.36927 125.099942) scale(0.1 -0.1)">
       <defs>
        <path id="CMR17-33" d="M 1414 2157 
C 1984 2157 2234 1662 2234 1090 
C 2234 320 1824 25 1453 25 
C 1114 25 563 194 390 693 
C 422 680 454 680 486 680 
C 640 680 755 782 755 948 
C 755 1133 614 1216 486 1216 
C 378 1216 211 1165 211 926 
C 211 335 787 -128 1466 -128 
C 2176 -128 2720 430 2720 1085 
C 2720 1707 2208 2157 1600 2227 
C 2086 2328 2554 2756 2554 3329 
C 2554 3820 2048 4179 1472 4179 
C 890 4179 378 3829 378 3329 
C 378 3110 544 3072 627 3072 
C 762 3072 877 3155 877 3321 
C 877 3486 762 3569 627 3569 
C 602 3569 570 3569 544 3557 
C 730 3959 1235 4032 1459 4032 
C 1683 4032 2106 3925 2106 3320 
C 2106 3143 2080 2828 1862 2550 
C 1670 2304 1453 2304 1242 2284 
C 1210 2284 1062 2269 1037 2269 
C 992 2263 966 2257 966 2208 
C 966 2163 973 2157 1101 2157 
L 1414 2157 
z
" transform="scale(0.015625)"/>
       </defs>
       <use xlink:href="#CMR17-33" transform="scale(0.996264)"/>
       <use xlink:href="#CMR17-30" transform="translate(45.690477 0) scale(0.996264)"/>
      </g>
     </g>
    </g>
    <g id="xtick_3">
     <g id="line2d_3">
      <g>
       <use xlink:href="#m0fc20e96d6" x="111.756106" y="111.181443" style="stroke: #000000; stroke-width: 0.8"/>
      </g>
     </g>
     <g id="text_3">
      <!-- $\mathdefault{60}$ -->
      <g transform="translate(106.774771 125.099942) scale(0.1 -0.1)">
       <defs>
        <path id="CMR17-36" d="M 678 2176 
C 678 3690 1395 4032 1811 4032 
C 1946 4032 2272 4009 2400 3776 
C 2298 3776 2106 3776 2106 3553 
C 2106 3381 2246 3323 2336 3323 
C 2394 3323 2566 3348 2566 3560 
C 2566 3954 2246 4179 1805 4179 
C 1043 4179 243 3390 243 1984 
C 243 253 966 -128 1478 -128 
C 2099 -128 2688 427 2688 1283 
C 2688 2081 2170 2662 1517 2662 
C 1126 2662 838 2407 678 1960 
L 678 2176 
z
M 1478 25 
C 691 25 691 1200 691 1436 
C 691 1896 909 2560 1504 2560 
C 1613 2560 1926 2560 2138 2120 
C 2253 1870 2253 1609 2253 1289 
C 2253 944 2253 690 2118 434 
C 1978 171 1773 25 1478 25 
z
" transform="scale(0.015625)"/>
       </defs>
       <use xlink:href="#CMR17-36" transform="scale(0.996264)"/>
       <use xlink:href="#CMR17-30" transform="translate(45.690477 0) scale(0.996264)"/>
      </g>
     </g>
    </g>
    <g id="xtick_4">
     <g id="line2d_4">
      <g>
       <use xlink:href="#m0fc20e96d6" x="141.161607" y="111.181443" style="stroke: #000000; stroke-width: 0.8"/>
      </g>
     </g>
     <g id="text_4">
      <!-- $\mathdefault{90}$ -->
      <g transform="translate(136.180271 125.099942) scale(0.1 -0.1)">
       <defs>
        <path id="CMR17-39" d="M 2253 1864 
C 2253 464 1670 31 1190 31 
C 1043 31 685 31 538 294 
C 704 268 826 357 826 518 
C 826 692 685 749 595 749 
C 538 749 365 723 365 506 
C 365 71 742 -128 1203 -128 
C 1939 -128 2688 674 2688 2073 
C 2688 3817 1971 4179 1485 4179 
C 851 4179 243 3628 243 2778 
C 243 1991 762 1408 1414 1408 
C 1952 1408 2189 1903 2253 2112 
L 2253 1864 
z
M 1427 1510 
C 1254 1510 1011 1542 813 1922 
C 678 2169 678 2461 678 2771 
C 678 3146 678 3405 858 3684 
C 947 3817 1114 4032 1485 4032 
C 2240 4032 2240 2885 2240 2632 
C 2240 2182 2035 1510 1427 1510 
z
" transform="scale(0.015625)"/>
       </defs>
       <use xlink:href="#CMR17-39" transform="scale(0.996264)"/>
       <use xlink:href="#CMR17-30" transform="translate(45.690477 0) scale(0.996264)"/>
      </g>
     </g>
    </g>
    <g id="xtick_5">
     <g id="line2d_5">
      <g>
       <use xlink:href="#m0fc20e96d6" x="170.567108" y="111.181443" style="stroke: #000000; stroke-width: 0.8"/>
      </g>
     </g>
     <g id="text_5">
      <!-- $\mathdefault{120}$ -->
      <g transform="translate(163.095105 125.099942) scale(0.1 -0.1)">
       <defs>
        <path id="CMR17-31" d="M 1702 4058 
C 1702 4192 1696 4192 1606 4192 
C 1357 3916 979 3827 621 3827 
C 602 3827 570 3827 563 3808 
C 557 3795 557 3782 557 3648 
C 755 3648 1088 3686 1344 3839 
L 1344 461 
C 1344 236 1331 160 781 160 
L 589 160 
L 589 0 
C 896 0 1216 0 1523 0 
C 1830 0 2150 0 2458 0 
L 2458 160 
L 2266 160 
C 1715 160 1702 230 1702 458 
L 1702 4058 
z
" transform="scale(0.015625)"/>
        <path id="CMR17-32" d="M 2669 989 
L 2554 989 
C 2490 536 2438 459 2413 420 
C 2381 369 1920 369 1830 369 
L 602 369 
C 832 619 1280 1072 1824 1597 
C 2214 1967 2669 2402 2669 3035 
C 2669 3790 2067 4224 1395 4224 
C 691 4224 262 3604 262 3030 
C 262 2780 448 2748 525 2748 
C 589 2748 781 2787 781 3010 
C 781 3207 614 3264 525 3264 
C 486 3264 448 3258 422 3245 
C 544 3790 915 4058 1306 4058 
C 1862 4058 2227 3617 2227 3035 
C 2227 2479 1901 2000 1536 1584 
L 262 146 
L 262 0 
L 2515 0 
L 2669 989 
z
" transform="scale(0.015625)"/>
       </defs>
       <use xlink:href="#CMR17-31" transform="scale(0.996264)"/>
       <use xlink:href="#CMR17-32" transform="translate(45.690477 0) scale(0.996264)"/>
       <use xlink:href="#CMR17-30" transform="translate(91.380954 0) scale(0.996264)"/>
      </g>
     </g>
    </g>
    <g id="xtick_6">
     <g id="line2d_6">
      <g>
       <use xlink:href="#m0fc20e96d6" x="199.972609" y="111.181443" style="stroke: #000000; stroke-width: 0.8"/>
      </g>
     </g>
     <g id="text_6">
      <!-- $\mathdefault{150}$ -->
      <g transform="translate(192.500606 125.099942) scale(0.1 -0.1)">
       <defs>
        <path id="CMR17-35" d="M 730 3692 
C 794 3666 1056 3584 1325 3584 
C 1920 3584 2246 3911 2432 4100 
C 2432 4157 2432 4192 2394 4192 
C 2387 4192 2374 4192 2323 4163 
C 2099 4058 1837 3973 1517 3973 
C 1325 3973 1037 3999 723 4139 
C 653 4171 640 4171 634 4171 
C 602 4171 595 4164 595 4037 
L 595 2203 
C 595 2089 595 2057 659 2057 
C 691 2057 704 2070 736 2114 
C 941 2401 1222 2522 1542 2522 
C 1766 2522 2246 2382 2246 1289 
C 2246 1085 2246 715 2054 421 
C 1894 159 1645 25 1370 25 
C 947 25 518 320 403 814 
C 429 807 480 795 506 795 
C 589 795 749 840 749 1038 
C 749 1210 627 1280 506 1280 
C 358 1280 262 1190 262 1011 
C 262 454 704 -128 1382 -128 
C 2042 -128 2669 440 2669 1264 
C 2669 2030 2170 2624 1549 2624 
C 1222 2624 947 2503 730 2274 
L 730 3692 
z
" transform="scale(0.015625)"/>
       </defs>
       <use xlink:href="#CMR17-31" transform="scale(0.996264)"/>
       <use xlink:href="#CMR17-35" transform="translate(45.690477 0) scale(0.996264)"/>
       <use xlink:href="#CMR17-30" transform="translate(91.380954 0) scale(0.996264)"/>
      </g>
     </g>
    </g>
    <g id="xtick_7">
     <g id="line2d_7">
      <g>
       <use xlink:href="#m0fc20e96d6" x="229.37811" y="111.181443" style="stroke: #000000; stroke-width: 0.8"/>
      </g>
     </g>
     <g id="text_7">
      <!-- $\mathdefault{180}$ -->
      <g transform="translate(221.906107 125.099942) scale(0.1 -0.1)">
       <defs>
        <path id="CMR17-38" d="M 1741 2264 
C 2144 2467 2554 2773 2554 3263 
C 2554 3841 1990 4179 1472 4179 
C 890 4179 378 3759 378 3180 
C 378 3021 416 2747 666 2505 
C 730 2442 998 2251 1171 2130 
C 883 1983 211 1634 211 934 
C 211 279 838 -128 1459 -128 
C 2144 -128 2720 362 2720 1010 
C 2720 1590 2330 1857 2074 2029 
L 1741 2264 
z
M 902 2822 
C 851 2854 595 3051 595 3351 
C 595 3739 998 4032 1459 4032 
C 1965 4032 2336 3676 2336 3262 
C 2336 2669 1670 2331 1638 2331 
C 1632 2331 1626 2331 1574 2370 
L 902 2822 
z
M 2080 1519 
C 2176 1449 2483 1240 2483 851 
C 2483 381 2010 25 1472 25 
C 890 25 448 438 448 940 
C 448 1443 838 1862 1280 2060 
L 2080 1519 
z
" transform="scale(0.015625)"/>
       </defs>
       <use xlink:href="#CMR17-31" transform="scale(0.996264)"/>
       <use xlink:href="#CMR17-38" transform="translate(45.690477 0) scale(0.996264)"/>
       <use xlink:href="#CMR17-30" transform="translate(91.380954 0) scale(0.996264)"/>
      </g>
     </g>
    </g>
    <g id="text_8">
     <!-- $\phi (^o)$ -->
     <g transform="translate(132.103891 138.5091) scale(0.1 -0.1)">
      <defs>
       <path id="CMMI12-1e" d="M 2752 4390 
C 2752 4448 2707 4448 2688 4448 
C 2630 4448 2624 4435 2598 4326 
L 2253 2939 
C 2234 2856 2227 2849 2221 2843 
C 2214 2830 2170 2824 2157 2824 
C 1107 2734 301 1864 301 1057 
C 301 361 832 -64 1498 -64 
C 1446 -261 1402 -463 1350 -659 
C 1261 -995 1210 -1204 1210 -1229 
C 1210 -1241 1210 -1280 1274 -1280 
C 1293 -1280 1318 -1280 1331 -1254 
C 1344 -1241 1382 -1089 1408 -1008 
L 1645 -64 
C 2739 -64 3571 854 3571 1680 
C 3571 2343 3085 2816 2374 2816 
L 2752 4390 
z
M 2336 2701 
C 2758 2701 3181 2463 3181 1828 
C 3181 1097 2675 128 1677 50 
L 2336 2701 
z
M 1530 50 
C 1216 50 691 220 691 938 
C 691 1761 1274 2676 2195 2676 
L 1530 50 
z
" transform="scale(0.015625)"/>
       <path id="CMR17-28" d="M 1958 -1561 
C 1958 -1555 1958 -1542 1939 -1523 
C 1645 -1224 858 -407 858 1581 
C 858 3569 1632 4379 1946 4697 
C 1946 4704 1958 4717 1958 4736 
C 1958 4755 1939 4768 1914 4768 
C 1843 4768 1299 4296 986 3594 
C 666 2887 576 2199 576 1588 
C 576 1128 621 351 1005 -471 
C 1312 -1135 1837 -1600 1914 -1600 
C 1946 -1600 1958 -1587 1958 -1561 
z
" transform="scale(0.015625)"/>
       <path id="CMMI12-6f" d="M 2918 1756 
C 2918 2363 2522 2816 1939 2816 
C 1094 2816 262 1897 262 996 
C 262 390 659 -64 1242 -64 
C 2093 -64 2918 856 2918 1756 
z
M 1248 64 
C 928 64 691 319 691 766 
C 691 1060 845 1712 1024 2031 
C 1312 2523 1670 2689 1933 2689 
C 2246 2689 2490 2433 2490 1986 
C 2490 1731 2355 1047 2112 658 
C 1850 230 1498 64 1248 64 
z
" transform="scale(0.015625)"/>
       <path id="CMR17-29" d="M 1683 1581 
C 1683 2040 1638 2817 1254 3639 
C 947 4303 422 4768 346 4768 
C 326 4768 301 4761 301 4729 
C 301 4717 307 4710 314 4697 
C 621 4378 1402 3568 1402 1584 
C 1402 -407 627 -1217 314 -1537 
C 307 -1549 301 -1556 301 -1568 
C 301 -1600 326 -1600 346 -1600 
C 416 -1600 960 -1128 1274 -426 
C 1594 281 1683 969 1683 1581 
z
" transform="scale(0.015625)"/>
      </defs>
      <use xlink:href="#CMMI12-1e" transform="scale(0.996264)"/>
      <use xlink:href="#CMR17-28" transform="translate(57.73418 0) scale(0.996264)"/>
      <use xlink:href="#CMMI12-6f" transform="translate(93.014948 36.153639) scale(0.697382)"/>
      <use xlink:href="#CMR17-29" transform="translate(126.339642 0) scale(0.996264)"/>
     </g>
    </g>
   </g>
   <g id="matplotlib.axis_2">
    <g id="ytick_1">
     <g id="line2d_8">
      <defs>
       <path id="mbe0783c0c4" d="M 0 0 
L -3.5 0 
" style="stroke: #000000; stroke-width: 0.8"/>
      </defs>
      <g>
       <use xlink:href="#mbe0783c0c4" x="44.123453" y="107.809195" style="stroke: #000000; stroke-width: 0.8"/>
      </g>
     </g>
     <g id="text_9">
      <!-- $\mathdefault{10^{-2}}$ -->
      <g transform="translate(16.96288 111.268444) scale(0.1 -0.1)">
       <defs>
        <path id="CMSY10-0" d="M 4218 1472 
C 4326 1472 4442 1472 4442 1600 
C 4442 1728 4326 1728 4218 1728 
L 755 1728 
C 646 1728 531 1728 531 1600 
C 531 1472 646 1472 755 1472 
L 4218 1472 
z
" transform="scale(0.015625)"/>
       </defs>
       <use xlink:href="#CMR17-31" transform="scale(0.996264)"/>
       <use xlink:href="#CMR17-30" transform="translate(45.690477 0) scale(0.996264)"/>
       <use xlink:href="#CMSY10-0" transform="translate(91.380954 36.153639) scale(0.697382)"/>
       <use xlink:href="#CMR17-32" transform="translate(145.621947 36.153639) scale(0.697382)"/>
      </g>
     </g>
    </g>
    <g id="ytick_2">
     <g id="line2d_9">
      <g>
       <use xlink:href="#mbe0783c0c4" x="44.123453" y="81.571736" style="stroke: #000000; stroke-width: 0.8"/>
      </g>
     </g>
     <g id="text_10">
      <!-- $\mathdefault{10^{-1}}$ -->
      <g transform="translate(16.96288 85.030986) scale(0.1 -0.1)">
       <use xlink:href="#CMR17-31" transform="scale(0.996264)"/>
       <use xlink:href="#CMR17-30" transform="translate(45.690477 0) scale(0.996264)"/>
       <use xlink:href="#CMSY10-0" transform="translate(91.380954 36.153639) scale(0.697382)"/>
       <use xlink:href="#CMR17-31" transform="translate(145.621947 36.153639) scale(0.697382)"/>
      </g>
     </g>
    </g>
    <g id="ytick_3">
     <g id="line2d_10">
      <g>
       <use xlink:href="#mbe0783c0c4" x="44.123453" y="55.334278" style="stroke: #000000; stroke-width: 0.8"/>
      </g>
     </g>
     <g id="text_11">
      <!-- $\mathdefault{10^{0}}$ -->
      <g transform="translate(23.189545 58.793527) scale(0.1 -0.1)">
       <use xlink:href="#CMR17-31" transform="scale(0.996264)"/>
       <use xlink:href="#CMR17-30" transform="translate(45.690477 0) scale(0.996264)"/>
       <use xlink:href="#CMR17-30" transform="translate(91.380954 36.153639) scale(0.697382)"/>
      </g>
     </g>
    </g>
    <g id="ytick_4">
     <g id="line2d_11">
      <g>
       <use xlink:href="#mbe0783c0c4" x="44.123453" y="29.09682" style="stroke: #000000; stroke-width: 0.8"/>
      </g>
     </g>
     <g id="text_12">
      <!-- $\mathdefault{10^{1}}$ -->
      <g transform="translate(23.189545 32.556069) scale(0.1 -0.1)">
       <use xlink:href="#CMR17-31" transform="scale(0.996264)"/>
       <use xlink:href="#CMR17-30" transform="translate(45.690477 0) scale(0.996264)"/>
       <use xlink:href="#CMR17-31" transform="translate(91.380954 36.153639) scale(0.697382)"/>
      </g>
     </g>
    </g>
    <g id="ytick_5">
     <g id="line2d_12">
      <defs>
       <path id="m5ee3499e20" d="M 0 0 
L -2 0 
" style="stroke: #000000; stroke-width: 0.6"/>
      </defs>
      <g>
       <use xlink:href="#m5ee3499e20" x="44.123453" y="110.351867" style="stroke: #000000; stroke-width: 0.6"/>
      </g>
     </g>
    </g>
    <g id="ytick_6">
     <g id="line2d_13">
      <g>
       <use xlink:href="#m5ee3499e20" x="44.123453" y="109.009755" style="stroke: #000000; stroke-width: 0.6"/>
      </g>
     </g>
    </g>
    <g id="ytick_7">
     <g id="line2d_14">
      <g>
       <use xlink:href="#m5ee3499e20" x="44.123453" y="99.910933" style="stroke: #000000; stroke-width: 0.6"/>
      </g>
     </g>
    </g>
    <g id="ytick_8">
     <g id="line2d_15">
      <g>
       <use xlink:href="#m5ee3499e20" x="44.123453" y="95.290746" style="stroke: #000000; stroke-width: 0.6"/>
      </g>
     </g>
    </g>
    <g id="ytick_9">
     <g id="line2d_16">
      <g>
       <use xlink:href="#m5ee3499e20" x="44.123453" y="92.012671" style="stroke: #000000; stroke-width: 0.6"/>
      </g>
     </g>
    </g>
    <g id="ytick_10">
     <g id="line2d_17">
      <g>
       <use xlink:href="#m5ee3499e20" x="44.123453" y="89.469998" style="stroke: #000000; stroke-width: 0.6"/>
      </g>
     </g>
    </g>
    <g id="ytick_11">
     <g id="line2d_18">
      <g>
       <use xlink:href="#m5ee3499e20" x="44.123453" y="87.392484" style="stroke: #000000; stroke-width: 0.6"/>
      </g>
     </g>
    </g>
    <g id="ytick_12">
     <g id="line2d_19">
      <g>
       <use xlink:href="#m5ee3499e20" x="44.123453" y="85.63597" style="stroke: #000000; stroke-width: 0.6"/>
      </g>
     </g>
    </g>
    <g id="ytick_13">
     <g id="line2d_20">
      <g>
       <use xlink:href="#m5ee3499e20" x="44.123453" y="84.114409" style="stroke: #000000; stroke-width: 0.6"/>
      </g>
     </g>
    </g>
    <g id="ytick_14">
     <g id="line2d_21">
      <g>
       <use xlink:href="#m5ee3499e20" x="44.123453" y="82.772297" style="stroke: #000000; stroke-width: 0.6"/>
      </g>
     </g>
    </g>
    <g id="ytick_15">
     <g id="line2d_22">
      <g>
       <use xlink:href="#m5ee3499e20" x="44.123453" y="73.673474" style="stroke: #000000; stroke-width: 0.6"/>
      </g>
     </g>
    </g>
    <g id="ytick_16">
     <g id="line2d_23">
      <g>
       <use xlink:href="#m5ee3499e20" x="44.123453" y="69.053287" style="stroke: #000000; stroke-width: 0.6"/>
      </g>
     </g>
    </g>
    <g id="ytick_17">
     <g id="line2d_24">
      <g>
       <use xlink:href="#m5ee3499e20" x="44.123453" y="65.775213" style="stroke: #000000; stroke-width: 0.6"/>
      </g>
     </g>
    </g>
    <g id="ytick_18">
     <g id="line2d_25">
      <g>
       <use xlink:href="#m5ee3499e20" x="44.123453" y="63.23254" style="stroke: #000000; stroke-width: 0.6"/>
      </g>
     </g>
    </g>
    <g id="ytick_19">
     <g id="line2d_26">
      <g>
       <use xlink:href="#m5ee3499e20" x="44.123453" y="61.155025" style="stroke: #000000; stroke-width: 0.6"/>
      </g>
     </g>
    </g>
    <g id="ytick_20">
     <g id="line2d_27">
      <g>
       <use xlink:href="#m5ee3499e20" x="44.123453" y="59.398512" style="stroke: #000000; stroke-width: 0.6"/>
      </g>
     </g>
    </g>
    <g id="ytick_21">
     <g id="line2d_28">
      <g>
       <use xlink:href="#m5ee3499e20" x="44.123453" y="57.876951" style="stroke: #000000; stroke-width: 0.6"/>
      </g>
     </g>
    </g>
    <g id="ytick_22">
     <g id="line2d_29">
      <g>
       <use xlink:href="#m5ee3499e20" x="44.123453" y="56.534838" style="stroke: #000000; stroke-width: 0.6"/>
      </g>
     </g>
    </g>
    <g id="ytick_23">
     <g id="line2d_30">
      <g>
       <use xlink:href="#m5ee3499e20" x="44.123453" y="47.436016" style="stroke: #000000; stroke-width: 0.6"/>
      </g>
     </g>
    </g>
    <g id="ytick_24">
     <g id="line2d_31">
      <g>
       <use xlink:href="#m5ee3499e20" x="44.123453" y="42.815829" style="stroke: #000000; stroke-width: 0.6"/>
      </g>
     </g>
    </g>
    <g id="ytick_25">
     <g id="line2d_32">
      <g>
       <use xlink:href="#m5ee3499e20" x="44.123453" y="39.537754" style="stroke: #000000; stroke-width: 0.6"/>
      </g>
     </g>
    </g>
    <g id="ytick_26">
     <g id="line2d_33">
      <g>
       <use xlink:href="#m5ee3499e20" x="44.123453" y="36.995082" style="stroke: #000000; stroke-width: 0.6"/>
      </g>
     </g>
    </g>
    <g id="ytick_27">
     <g id="line2d_34">
      <g>
       <use xlink:href="#m5ee3499e20" x="44.123453" y="34.917567" style="stroke: #000000; stroke-width: 0.6"/>
      </g>
     </g>
    </g>
    <g id="ytick_28">
     <g id="line2d_35">
      <g>
       <use xlink:href="#m5ee3499e20" x="44.123453" y="33.161054" style="stroke: #000000; stroke-width: 0.6"/>
      </g>
     </g>
    </g>
    <g id="ytick_29">
     <g id="line2d_36">
      <g>
       <use xlink:href="#m5ee3499e20" x="44.123453" y="31.639492" style="stroke: #000000; stroke-width: 0.6"/>
      </g>
     </g>
    </g>
    <g id="ytick_30">
     <g id="line2d_37">
      <g>
       <use xlink:href="#m5ee3499e20" x="44.123453" y="30.29738" style="stroke: #000000; stroke-width: 0.6"/>
      </g>
     </g>
    </g>
    <g id="ytick_31">
     <g id="line2d_38">
      <g>
       <use xlink:href="#m5ee3499e20" x="44.123453" y="21.198558" style="stroke: #000000; stroke-width: 0.6"/>
      </g>
     </g>
    </g>
    <g id="ytick_32">
     <g id="line2d_39">
      <g>
       <use xlink:href="#m5ee3499e20" x="44.123453" y="16.578371" style="stroke: #000000; stroke-width: 0.6"/>
      </g>
     </g>
    </g>
    <g id="ytick_33">
     <g id="line2d_40">
      <g>
       <use xlink:href="#m5ee3499e20" x="44.123453" y="13.300296" style="stroke: #000000; stroke-width: 0.6"/>
      </g>
     </g>
    </g>
    <g id="ytick_34">
     <g id="line2d_41">
      <g>
       <use xlink:href="#m5ee3499e20" x="44.123453" y="10.757623" style="stroke: #000000; stroke-width: 0.6"/>
      </g>
     </g>
    </g>
    <g id="ytick_35">
     <g id="line2d_42">
      <g>
       <use xlink:href="#m5ee3499e20" x="44.123453" y="8.680109" style="stroke: #000000; stroke-width: 0.6"/>
      </g>
     </g>
    </g>
    <g id="ytick_36">
     <g id="line2d_43">
      <g>
       <use xlink:href="#m5ee3499e20" x="44.123453" y="6.923595" style="stroke: #000000; stroke-width: 0.6"/>
      </g>
     </g>
    </g>
    <g id="ytick_37">
     <g id="line2d_44">
      <g>
       <use xlink:href="#m5ee3499e20" x="44.123453" y="5.402034" style="stroke: #000000; stroke-width: 0.6"/>
      </g>
     </g>
    </g>
    <g id="ytick_38">
     <g id="line2d_45">
      <g>
       <use xlink:href="#m5ee3499e20" x="44.123453" y="4.059922" style="stroke: #000000; stroke-width: 0.6"/>
      </g>
     </g>
    </g>
    <g id="text_13">
     <!-- $\sigma / \lambda$ -->
     <g transform="translate(10.47222 65.512401) rotate(-90) scale(0.1 -0.1)">
      <defs>
       <path id="CMMI12-1b" d="M 3251 2408 
C 3334 2408 3546 2408 3546 2612 
C 3546 2752 3424 2752 3309 2752 
L 1894 2752 
C 934 2752 243 1686 243 932 
C 243 390 595 -64 1171 -64 
C 1926 -64 2752 747 2752 1705 
C 2752 1954 2694 2196 2541 2408 
L 3251 2408 
z
M 1178 64 
C 851 64 614 313 614 754 
C 614 1137 845 2408 1786 2408 
C 2061 2408 2368 2274 2368 1781 
C 2368 1558 2266 1021 2042 652 
C 1811 275 1466 64 1178 64 
z
" transform="scale(0.015625)"/>
       <path id="CMMI12-3d" d="M 2746 4562 
C 2746 4569 2784 4666 2784 4678 
C 2784 4755 2720 4800 2669 4800 
C 2637 4800 2579 4800 2528 4659 
L 384 -1363 
C 384 -1370 346 -1465 346 -1478 
C 346 -1555 410 -1600 461 -1600 
C 499 -1600 557 -1593 602 -1459 
L 2746 4562 
z
" transform="scale(0.015625)"/>
       <path id="CMMI12-15" d="M 1978 3965 
C 1818 4416 1312 4416 1229 4416 
C 1190 4416 1120 4416 1120 4352 
C 1120 4302 1158 4295 1190 4289 
C 1286 4276 1363 4263 1466 4080 
C 1530 3959 2189 2059 2189 2046 
C 2189 2040 2182 2033 2131 1982 
L 467 311 
C 390 234 339 183 339 102 
C 339 12 416 -64 518 -64 
C 544 -64 614 -51 653 -13 
C 755 82 1670 1194 2253 1881 
C 2419 1383 2624 797 2822 261 
C 2854 166 2886 76 2976 -6 
C 3040 -64 3053 -64 3232 -64 
L 3354 -64 
C 3379 -64 3424 -64 3424 -13 
C 3424 13 3418 19 3392 45 
C 3334 115 3290 229 3264 306 
L 1978 3965 
z
" transform="scale(0.015625)"/>
      </defs>
      <use xlink:href="#CMMI12-1b" transform="scale(0.996264)"/>
      <use xlink:href="#CMMI12-3d" transform="translate(59.020054 0) scale(0.996264)"/>
      <use xlink:href="#CMMI12-15" transform="translate(107.794972 0) scale(0.996264)"/>
     </g>
    </g>
   </g>
   <g id="line2d_46">
    <path d="M 52.945104 19.675458 
L 55.885654 19.791784 
L 58.826204 20.141904 
L 61.766754 20.72931 
L 64.707304 21.560027 
L 67.647854 22.642956 
L 70.588404 23.9904 
L 73.528954 25.618854 
L 76.469505 27.55017 
L 79.410055 29.813279 
L 82.350605 32.446784 
L 85.291155 35.502955 
L 87.251522 37.809804 
L 89.211888 40.3643 
L 91.172255 43.202582 
L 93.132622 46.371432 
L 95.092989 49.932058 
L 97.053355 53.964747 
L 99.013722 58.57232 
L 100.974089 63.872034 
L 102.934455 69.929971 
L 105.875006 79.480583 
L 106.855189 81.844132 
L 107.835372 83.070819 
L 108.815556 82.927961 
L 109.795739 81.627171 
L 110.775922 79.639694 
L 113.716472 73.037318 
L 115.676839 69.382252 
L 117.637206 66.482847 
L 119.597573 64.236004 
L 121.557939 62.532151 
L 123.518306 61.283123 
L 125.478673 60.422396 
L 127.43904 59.900595 
L 129.399406 59.681234 
L 131.359773 59.737462 
L 133.32014 60.049729 
L 135.280507 60.604117 
L 137.240873 61.391117 
L 139.20124 62.404685 
L 141.161607 63.641412 
L 143.121973 65.099657 
L 145.08234 66.778408 
L 147.042707 68.675555 
L 149.983257 71.91525 
L 152.923807 75.564257 
L 158.804907 83.103599 
L 160.765274 85.0848 
L 161.745457 85.843715 
L 162.725641 86.41463 
L 163.705824 86.783726 
L 164.686008 86.949311 
L 165.666191 86.92199 
L 166.646374 86.722624 
L 168.606741 85.920909 
L 170.567108 84.779133 
L 178.408575 79.786857 
L 182.329308 77.697768 
L 198.012242 69.859682 
L 206.833892 65.139678 
L 210.754626 63.28968 
L 214.675359 61.717787 
L 217.615909 60.754807 
L 220.556459 59.993875 
L 223.49701 59.444632 
L 226.43756 59.112989 
L 229.37811 59.002111 
L 229.37811 59.002111 
" clip-path="url(#p16466f770f)" style="fill: none; stroke: #0000ff; stroke-width: 0.75; stroke-linecap: square"/>
   </g>
   <g id="line2d_47">
    <path d="M 52.945104 8.280101 
L 53.925287 8.346838 
L 54.905471 8.547554 
L 55.885654 8.883778 
L 56.865837 9.358116 
L 57.846021 9.974338 
L 58.826204 10.737518 
L 59.806387 11.654215 
L 60.786571 12.73273 
L 61.766754 13.983446 
L 62.746937 15.41928 
L 63.727121 17.056274 
L 64.707304 18.914378 
L 65.687488 21.018445 
L 66.667671 23.399459 
L 67.647854 26.095868 
L 68.628038 29.154503 
L 69.608221 32.62925 
L 70.588404 36.571749 
L 73.528954 50.324921 
L 74.509138 53.307803 
L 75.489321 53.293884 
L 76.469505 50.697586 
L 78.429871 43.657113 
L 79.410055 40.614719 
L 80.390238 38.068323 
L 81.370421 35.984758 
L 82.350605 34.3122 
L 83.330788 33.001997 
L 84.310972 32.013868 
L 85.291155 31.316078 
L 86.271338 30.884345 
L 87.251522 30.700629 
L 88.231705 30.752129 
L 89.211888 31.030547 
L 90.192072 31.531609 
L 91.172255 32.25482 
L 92.152438 33.203434 
L 93.132622 34.384637 
L 94.112805 35.80996 
L 95.092989 37.495947 
L 96.073172 39.4651 
L 97.053355 41.747102 
L 98.033539 44.38012 
L 99.013722 47.4115 
L 99.993905 50.895401 
L 100.974089 54.879652 
L 103.914639 68.405722 
L 104.894822 70.636452 
L 105.875006 69.690734 
L 106.855189 66.551471 
L 108.815556 59.366147 
L 109.795739 56.385518 
L 110.775922 53.907146 
L 111.756106 51.885124 
L 112.736289 50.265286 
L 113.716472 48.999965 
L 114.696656 48.050859 
L 115.676839 47.388522 
L 116.657023 46.991135 
L 117.637206 46.843369 
L 118.617389 46.93555 
L 119.597573 47.263147 
L 120.577756 47.8266 
L 121.557939 48.631496 
L 122.538123 49.68914 
L 123.518306 51.017647 
L 124.49849 52.643766 
L 125.478673 54.605852 
L 126.458856 56.958712 
L 127.43904 59.781769 
L 128.419223 63.193396 
L 129.399406 67.377518 
L 130.37959 72.635953 
L 131.359773 79.49399 
L 132.339956 88.851535 
L 133.32014 100.743678 
L 134.300323 101.579322 
L 135.280507 90.067856 
L 136.26069 80.854479 
L 137.240873 74.213002 
L 138.221057 69.222038 
L 139.20124 65.337914 
L 140.181423 62.249937 
L 141.161607 59.770211 
L 142.14179 57.778889 
L 143.121973 56.196468 
L 144.102157 54.968948 
L 145.08234 54.059463 
L 146.062524 53.443371 
L 147.042707 53.105343 
L 148.02289 53.037699 
L 149.003074 53.239591 
L 149.983257 53.71687 
L 150.96344 54.48262 
L 151.943624 55.558447 
L 152.923807 56.976843 
L 153.903991 58.785196 
L 154.884174 61.052608 
L 155.864357 63.881857 
L 156.844541 67.431477 
L 157.824724 71.959332 
L 158.804907 77.914719 
L 159.785091 86.131688 
L 160.765274 97.844394 
L 161.745457 106.264116 
L 163.705824 83.844795 
L 164.686008 75.990667 
L 165.666191 70.185463 
L 166.646374 65.693752 
L 167.626558 62.115776 
L 168.606741 59.218435 
L 169.586924 56.856379 
L 170.567108 54.93418 
L 171.547291 53.386853 
L 172.527474 52.169148 
L 173.507658 51.249326 
L 174.487841 50.605426 
L 175.468025 50.222965 
L 176.448208 50.093557 
L 177.428391 50.214147 
L 178.408575 50.586702 
L 179.388758 51.218324 
L 180.368941 52.121764 
L 181.349125 53.316432 
L 182.329308 54.830045 
L 183.309491 56.701169 
L 184.289675 58.983053 
L 185.269858 61.749229 
L 186.250042 65.101012 
L 187.230225 69.174246 
L 188.210408 74.127658 
L 190.170775 86.156799 
L 191.150958 89.387159 
L 192.131142 86.49478 
L 194.091509 74.914363 
L 195.071692 70.164961 
L 196.051875 66.298385 
L 197.032059 63.155619 
L 198.012242 60.599485 
L 198.992425 58.527115 
L 199.972609 56.863202 
L 200.952792 55.552323 
L 201.932975 54.553095 
L 202.913159 53.834032 
L 203.893342 53.370575 
L 204.873526 53.142872 
L 205.853709 53.133963 
L 206.833892 53.32812 
L 207.814076 53.709132 
L 208.794259 54.258343 
L 210.754626 55.759963 
L 213.695176 58.381267 
L 214.675359 59.095117 
L 215.655543 59.598229 
L 216.635726 59.826504 
L 217.615909 59.748426 
L 218.596093 59.374595 
L 219.576276 58.754053 
L 221.536643 57.070537 
L 223.49701 55.283987 
L 225.457376 53.808253 
L 226.43756 53.260693 
L 227.417743 52.861228 
L 228.397926 52.618482 
L 229.37811 52.537083 
L 229.37811 52.537083 
" clip-path="url(#p16466f770f)" style="fill: none; stroke: #00bfbf; stroke-width: 0.75; stroke-linecap: square"/>
   </g>
   <g id="line2d_48">
    <path d="M 52.945104 19.541528 
L 55.885654 19.672993 
L 58.826204 20.059702 
L 61.766754 20.692813 
L 64.707304 21.56255 
L 67.647854 22.683488 
L 70.588404 24.069581 
L 73.528954 25.727411 
L 76.469505 27.656746 
L 79.410055 29.861221 
L 82.350605 32.365457 
L 85.291155 35.270262 
L 87.251522 37.517787 
L 89.211888 40.102203 
L 91.172255 43.116975 
L 93.132622 46.666787 
L 95.092989 50.856935 
L 97.053355 55.785796 
L 99.013722 61.533091 
L 100.974089 68.124697 
L 105.875006 85.867997 
L 106.855189 87.637076 
L 107.835372 87.708377 
L 108.815556 86.200234 
L 109.795739 83.689891 
L 112.736289 75.081159 
L 114.696656 70.255407 
L 116.657023 66.449954 
L 117.637206 64.905363 
L 118.617389 63.590234 
L 119.597573 62.479217 
L 120.577756 61.579731 
L 121.557939 60.872442 
L 122.538123 60.349967 
L 123.518306 60.00562 
L 124.49849 59.828804 
L 125.478673 59.805383 
L 126.458856 59.906496 
L 128.419223 60.418167 
L 132.339956 61.732782 
L 134.300323 62.111211 
L 137.240873 62.318081 
L 139.20124 62.489477 
L 141.161607 62.907284 
L 143.121973 63.676816 
L 145.08234 64.87871 
L 147.042707 66.581106 
L 148.02289 67.644148 
L 149.003074 68.872636 
L 150.96344 71.883026 
L 152.923807 75.688232 
L 154.884174 80.287673 
L 158.804907 90.321494 
L 159.785091 92.340357 
L 160.765274 93.844153 
L 161.745457 94.723655 
L 162.725641 94.937684 
L 163.705824 94.542001 
L 164.686008 93.65459 
L 165.666191 92.416906 
L 168.606741 87.906668 
L 170.567108 85.051633 
L 172.527474 82.614352 
L 174.487841 80.580144 
L 176.448208 78.861481 
L 178.408575 77.421646 
L 180.368941 76.287455 
L 182.329308 75.502225 
L 184.289675 75.056133 
L 187.230225 74.825961 
L 189.190592 74.69473 
L 191.150958 74.343025 
L 193.111325 73.625742 
L 195.071692 72.507929 
L 197.032059 71.067957 
L 203.893342 65.570826 
L 205.853709 64.324616 
L 207.814076 63.299561 
L 209.774442 62.486633 
L 212.714992 61.600649 
L 215.655543 61.005099 
L 223.49701 59.828474 
L 227.417743 59.391324 
L 229.37811 59.323596 
L 229.37811 59.323596 
" clip-path="url(#p16466f770f)" style="fill: none; stroke-dasharray: 2.775,1.2; stroke-dashoffset: 0; stroke: #0000ff; stroke-width: 0.75"/>
   </g>
   <g id="line2d_49">
    <path d="M 52.945104 7.917567 
L 53.925287 7.984647 
L 54.905471 8.189581 
L 55.885654 8.520408 
L 56.865837 8.993624 
L 57.846021 9.617254 
L 58.826204 10.39999 
L 59.806387 11.351789 
L 60.786571 12.482616 
L 61.766754 13.803956 
L 63.727121 17.052789 
L 64.707304 18.985802 
L 66.667671 23.610967 
L 67.647854 26.357235 
L 68.628038 29.439652 
L 69.608221 32.965934 
L 70.588404 37.032705 
L 72.548771 46.781871 
L 73.528954 51.594753 
L 74.509138 54.197975 
L 75.489321 53.134192 
L 78.429871 42.746858 
L 79.410055 40.07633 
L 80.390238 37.959554 
L 81.370421 36.232224 
L 82.350605 34.822589 
L 84.310972 32.619466 
L 85.291155 31.779561 
L 86.271338 31.095344 
L 87.251522 30.637801 
L 88.231705 30.445447 
L 89.211888 30.535945 
L 90.192072 30.986578 
L 91.172255 31.756398 
L 92.152438 32.904945 
L 93.132622 34.355106 
L 95.092989 38.1216 
L 97.053355 42.710859 
L 99.013722 47.925061 
L 100.974089 54.13865 
L 103.914639 65.016062 
L 104.894822 66.411716 
L 105.875006 65.098356 
L 108.815556 56.4819 
L 109.795739 54.5036 
L 110.775922 53.008987 
L 112.736289 50.838928 
L 116.657023 46.783497 
L 117.637206 46.01982 
L 118.617389 45.61551 
L 119.597573 45.616256 
L 120.577756 46.088901 
L 121.557939 47.051144 
L 122.538123 48.48705 
L 123.518306 50.361644 
L 124.49849 52.608531 
L 126.458856 57.967714 
L 128.419223 64.171442 
L 129.399406 67.748662 
L 130.37959 72.007386 
L 131.359773 77.556051 
L 132.339956 85.120335 
L 133.32014 94.441426 
L 134.300323 96.966736 
L 136.26069 79.353255 
L 137.240873 72.886501 
L 138.221057 68.08588 
L 139.20124 64.367536 
L 140.181423 61.439301 
L 141.161607 59.063207 
L 142.14179 57.128737 
L 143.121973 55.549556 
L 144.102157 54.309279 
L 145.08234 53.398765 
L 146.062524 52.81151 
L 147.042707 52.558152 
L 148.02289 52.655046 
L 149.003074 53.076738 
L 149.983257 53.746128 
L 150.96344 54.681215 
L 151.943624 55.797904 
L 152.923807 57.169612 
L 153.903991 58.85333 
L 154.884174 60.964723 
L 155.864357 63.699402 
L 156.844541 67.351293 
L 157.824724 72.395999 
L 158.804907 79.563622 
L 159.785091 90.144166 
L 160.765274 103.118164 
L 161.745457 97.551109 
L 162.725641 85.685722 
L 163.705824 77.688503 
L 164.686008 72.224111 
L 165.666191 68.228933 
L 166.646374 65.067791 
L 168.606741 59.871097 
L 170.567108 55.279457 
L 171.547291 53.226644 
L 172.527474 51.447797 
L 173.507658 50.036273 
L 174.487841 49.068234 
L 175.468025 48.589389 
L 176.448208 48.596516 
L 177.428391 49.030106 
L 178.408575 49.885403 
L 179.388758 51.044133 
L 181.349125 54.121687 
L 183.309491 57.843616 
L 184.289675 60.002407 
L 185.269858 62.526454 
L 186.250042 65.599457 
L 187.230225 69.576894 
L 188.210408 74.789402 
L 190.170775 89.129085 
L 191.150958 91.559112 
L 192.131142 85.849877 
L 193.111325 78.961481 
L 194.091509 73.491972 
L 195.071692 69.36306 
L 196.051875 66.165693 
L 197.032059 63.602347 
L 198.012242 61.427532 
L 199.972609 57.800519 
L 200.952792 56.279556 
L 201.932975 54.984291 
L 202.913159 53.96177 
L 203.893342 53.225128 
L 204.873526 52.850136 
L 205.853709 52.753836 
L 206.833892 52.957199 
L 207.814076 53.38381 
L 209.774442 54.63552 
L 212.714992 56.95369 
L 215.655543 59.349181 
L 216.635726 59.858007 
L 217.615909 60.032605 
L 218.596093 59.731707 
L 219.576276 59.037721 
L 223.49701 54.900936 
L 224.477193 54.261639 
L 225.457376 53.880528 
L 226.43756 53.731404 
L 228.397926 53.77462 
L 229.37811 53.870753 
L 229.37811 53.870753 
" clip-path="url(#p16466f770f)" style="fill: none; stroke-dasharray: 2.775,1.2; stroke-dashoffset: 0; stroke: #00bfbf; stroke-width: 0.75"/>
   </g>
   <g id="patch_3">
    <path d="M 44.123453 111.181443 
L 44.123453 3.00024 
" style="fill: none; stroke: #000000; stroke-width: 0.8; stroke-linejoin: miter; stroke-linecap: square"/>
   </g>
   <g id="patch_4">
    <path d="M 238.19976 111.181443 
L 238.19976 3.00024 
" style="fill: none; stroke: #000000; stroke-width: 0.8; stroke-linejoin: miter; stroke-linecap: square"/>
   </g>
   <g id="patch_5">
    <path d="M 44.123453 111.181443 
L 238.19976 111.181443 
" style="fill: none; stroke: #000000; stroke-width: 0.8; stroke-linejoin: miter; stroke-linecap: square"/>
   </g>
   <g id="patch_6">
    <path d="M 44.123453 3.00024 
L 238.19976 3.00024 
" style="fill: none; stroke: #000000; stroke-width: 0.8; stroke-linejoin: miter; stroke-linecap: square"/>
   </g>
   <g id="axes_2">
    <g id="patch_7">
     <path d="M 154.746948 26.800105 
L 232.377471 26.800105 
L 232.377471 5.163864 
L 154.746948 5.163864 
z
" style="fill: #ffffff"/>
    </g>
    <g id="matplotlib.axis_3">
     <g id="xtick_8">
      <g id="line2d_50">
       <g>
        <use xlink:href="#m0fc20e96d6" x="158.275608" y="26.800105" style="stroke: #000000; stroke-width: 0.8"/>
       </g>
      </g>
      <g id="text_14">
       <!-- $\mathdefault{2}$ -->
       <g transform="translate(155.784941 40.718603) scale(0.1 -0.1)">
        <use xlink:href="#CMR17-32" transform="scale(0.996264)"/>
       </g>
      </g>
     </g>
     <g id="xtick_9">
      <g id="line2d_51">
       <g>
        <use xlink:href="#m0fc20e96d6" x="205.32441" y="26.800105" style="stroke: #000000; stroke-width: 0.8"/>
       </g>
      </g>
      <g id="text_15">
       <!-- $\mathdefault{4}$ -->
       <g transform="translate(202.833742 40.718603) scale(0.1 -0.1)">
        <defs>
         <path id="CMR17-34" d="M 2150 4122 
C 2150 4256 2144 4256 2029 4256 
L 128 1254 
L 128 1088 
L 1779 1088 
L 1779 457 
C 1779 224 1766 160 1318 160 
L 1197 160 
L 1197 0 
C 1402 0 1747 0 1965 0 
C 2182 0 2528 0 2733 0 
L 2733 160 
L 2611 160 
C 2163 160 2150 224 2150 457 
L 2150 1088 
L 2803 1088 
L 2803 1254 
L 2150 1254 
L 2150 4122 
z
M 1798 3703 
L 1798 1254 
L 256 1254 
L 1798 3703 
z
" transform="scale(0.015625)"/>
        </defs>
        <use xlink:href="#CMR17-34" transform="scale(0.996264)"/>
       </g>
      </g>
     </g>
     <g id="text_16">
      <!-- $r/a$ -->
      <g transform="translate(186.052734 54.127761) scale(0.1 -0.1)">
       <defs>
        <path id="CMMI12-72" d="M 2490 2612 
C 2291 2574 2189 2433 2189 2293 
C 2189 2139 2310 2088 2400 2088 
C 2579 2088 2726 2242 2726 2433 
C 2726 2638 2528 2816 2208 2816 
C 1952 2816 1658 2701 1389 2312 
C 1344 2650 1088 2816 832 2816 
C 582 2816 454 2625 378 2484 
C 269 2254 173 1871 173 1839 
C 173 1814 198 1782 243 1782 
C 294 1782 301 1788 339 1935 
C 435 2318 557 2689 813 2689 
C 966 2689 1011 2580 1011 2395 
C 1011 2254 947 2005 902 1807 
L 723 1118 
C 698 996 627 709 595 594 
C 550 428 480 128 480 96 
C 480 6 550 -64 646 -64 
C 717 -64 838 -19 877 109 
C 896 160 1133 1124 1171 1271 
C 1203 1411 1242 1546 1274 1686 
C 1299 1775 1325 1878 1344 1961 
C 1363 2018 1536 2331 1696 2472 
C 1773 2542 1939 2689 2202 2689 
C 2304 2689 2406 2670 2490 2612 
z
" transform="scale(0.015625)"/>
        <path id="CMMI12-61" d="M 1926 760 
C 1894 651 1894 639 1805 517 
C 1664 338 1382 64 1082 64 
C 819 64 672 300 672 677 
C 672 1028 870 1743 992 2012 
C 1210 2459 1510 2689 1760 2689 
C 2182 2689 2266 2165 2266 2114 
C 2266 2108 2246 2024 2240 2012 
L 1926 760 
z
M 2336 2395 
C 2266 2561 2093 2816 1760 2816 
C 1037 2816 256 1884 256 939 
C 256 307 627 -64 1062 -64 
C 1414 -64 1715 211 1894 422 
C 1958 45 2259 -64 2451 -64 
C 2643 -64 2797 51 2912 281 
C 3014 498 3104 888 3104 913 
C 3104 945 3078 971 3040 971 
C 2982 971 2976 939 2950 843 
C 2854 466 2733 64 2470 64 
C 2285 64 2272 230 2272 358 
C 2272 505 2291 575 2349 824 
C 2394 984 2426 1124 2477 1309 
C 2714 2267 2771 2497 2771 2535 
C 2771 2625 2701 2695 2605 2695 
C 2400 2695 2349 2472 2336 2395 
z
" transform="scale(0.015625)"/>
       </defs>
       <use xlink:href="#CMMI12-72" transform="scale(0.996264)"/>
       <use xlink:href="#CMMI12-3d" transform="translate(46.670612 0) scale(0.996264)"/>
       <use xlink:href="#CMMI12-61" transform="translate(95.445531 0) scale(0.996264)"/>
      </g>
     </g>
    </g>
    <g id="matplotlib.axis_4">
     <g id="ytick_39">
      <g id="line2d_52">
       <g>
        <use xlink:href="#mbe0783c0c4" x="154.746948" y="24.214779" style="stroke: #000000; stroke-width: 0.8"/>
       </g>
      </g>
      <g id="text_17">
       <!-- $\mathdefault{10^{-1}}$ -->
       <g transform="translate(127.586375 27.674028) scale(0.1 -0.1)">
        <use xlink:href="#CMR17-31" transform="scale(0.996264)"/>
        <use xlink:href="#CMR17-30" transform="translate(45.690477 0) scale(0.996264)"/>
        <use xlink:href="#CMSY10-0" transform="translate(91.380954 36.153639) scale(0.697382)"/>
        <use xlink:href="#CMR17-31" transform="translate(145.621947 36.153639) scale(0.697382)"/>
       </g>
      </g>
     </g>
     <g id="ytick_40">
      <g id="line2d_53">
       <g>
        <use xlink:href="#mbe0783c0c4" x="154.746948" y="7.887946" style="stroke: #000000; stroke-width: 0.8"/>
       </g>
      </g>
      <g id="text_18">
       <!-- $\mathdefault{10^{0}}$ -->
       <g transform="translate(133.81304 11.347195) scale(0.1 -0.1)">
        <use xlink:href="#CMR17-31" transform="scale(0.996264)"/>
        <use xlink:href="#CMR17-30" transform="translate(45.690477 0) scale(0.996264)"/>
        <use xlink:href="#CMR17-30" transform="translate(91.380954 36.153639) scale(0.697382)"/>
       </g>
      </g>
     </g>
     <g id="ytick_41">
      <g id="line2d_54">
       <g>
        <use xlink:href="#m5ee3499e20" x="154.746948" y="26.743837" style="stroke: #000000; stroke-width: 0.6"/>
       </g>
      </g>
     </g>
     <g id="ytick_42">
      <g id="line2d_55">
       <g>
        <use xlink:href="#m5ee3499e20" x="154.746948" y="25.797012" style="stroke: #000000; stroke-width: 0.6"/>
       </g>
      </g>
     </g>
     <g id="ytick_43">
      <g id="line2d_56">
       <g>
        <use xlink:href="#m5ee3499e20" x="154.746948" y="24.961854" style="stroke: #000000; stroke-width: 0.6"/>
       </g>
      </g>
     </g>
     <g id="ytick_44">
      <g id="line2d_57">
       <g>
        <use xlink:href="#m5ee3499e20" x="154.746948" y="19.299912" style="stroke: #000000; stroke-width: 0.6"/>
       </g>
      </g>
     </g>
     <g id="ytick_45">
      <g id="line2d_58">
       <g>
        <use xlink:href="#m5ee3499e20" x="154.746948" y="16.4249" style="stroke: #000000; stroke-width: 0.6"/>
       </g>
      </g>
     </g>
     <g id="ytick_46">
      <g id="line2d_59">
       <g>
        <use xlink:href="#m5ee3499e20" x="154.746948" y="14.385046" style="stroke: #000000; stroke-width: 0.6"/>
       </g>
      </g>
     </g>
     <g id="ytick_47">
      <g id="line2d_60">
       <g>
        <use xlink:href="#m5ee3499e20" x="154.746948" y="12.802812" style="stroke: #000000; stroke-width: 0.6"/>
       </g>
      </g>
     </g>
     <g id="ytick_48">
      <g id="line2d_61">
       <g>
        <use xlink:href="#m5ee3499e20" x="154.746948" y="11.510033" style="stroke: #000000; stroke-width: 0.6"/>
       </g>
      </g>
     </g>
     <g id="ytick_49">
      <g id="line2d_62">
       <g>
        <use xlink:href="#m5ee3499e20" x="154.746948" y="10.417004" style="stroke: #000000; stroke-width: 0.6"/>
       </g>
      </g>
     </g>
     <g id="ytick_50">
      <g id="line2d_63">
       <g>
        <use xlink:href="#m5ee3499e20" x="154.746948" y="9.470179" style="stroke: #000000; stroke-width: 0.6"/>
       </g>
      </g>
     </g>
     <g id="ytick_51">
      <g id="line2d_64">
       <g>
        <use xlink:href="#m5ee3499e20" x="154.746948" y="8.635021" style="stroke: #000000; stroke-width: 0.6"/>
       </g>
      </g>
     </g>
    </g>
    <g id="line2d_65">
     <path d="M 158.275608 12.531574 
L 160.628048 12.320826 
L 162.980488 12.133455 
L 165.332929 11.965712 
L 167.685369 11.81462 
L 170.037809 11.677777 
L 172.390249 11.55323 
L 174.742689 11.439367 
L 177.095129 11.334851 
L 179.447569 11.238561 
L 181.800009 11.14955 
L 184.152449 11.067012 
L 186.504889 10.990257 
L 188.857329 10.918689 
L 191.209769 10.851796 
L 193.56221 10.789127 
L 195.91465 10.730291 
L 198.26709 10.674943 
L 200.61953 10.622778 
L 202.97197 10.573527 
L 205.32441 10.52695 
L 207.67685 10.482834 
L 210.02929 10.440985 
L 212.38173 10.401233 
L 214.73417 10.363422 
L 217.08661 10.327413 
L 219.43905 10.293079 
L 221.79149 10.260304 
L 224.143931 10.228984 
L 226.496371 10.199023 
L 228.848811 10.170335 
" clip-path="url(#pe87476e40f)" style="fill: none; stroke: #0000ff; stroke-width: 0.75; stroke-linecap: square"/>
    </g>
    <g id="line2d_66">
     <path d="M 158.275608 23.760928 
L 160.628048 21.020016 
L 162.980488 18.941919 
L 165.332929 17.296801 
L 167.685369 15.95436 
L 170.037809 14.833866 
L 172.390249 13.882026 
L 174.742689 13.061939 
L 177.095129 12.347085 
L 179.447569 11.717824 
L 181.800009 11.15925 
L 184.152449 10.659813 
L 186.504889 10.210406 
L 188.857329 9.803738 
L 191.209769 9.433898 
L 193.56221 9.096031 
L 195.91465 8.786116 
L 198.26709 8.500786 
L 200.61953 8.237202 
L 202.97197 7.992951 
L 205.32441 7.765966 
L 207.67685 7.554469 
L 210.02929 7.35692 
L 212.38173 7.171977 
L 214.73417 6.998468 
L 217.08661 6.83536 
L 219.43905 6.681743 
L 221.79149 6.536812 
L 224.143931 6.399848 
L 226.496371 6.270211 
L 228.848811 6.14733 
" clip-path="url(#pe87476e40f)" style="fill: none; stroke: #00bfbf; stroke-width: 0.75; stroke-linecap: square"/>
    </g>
    <g id="line2d_67">
     <defs>
      <path id="m399ca28c24" d="M 0 1 
C 0.265203 1 0.51958 0.894634 0.707107 0.707107 
C 0.894634 0.51958 1 0.265203 1 0 
C 1 -0.265203 0.894634 -0.51958 0.707107 -0.707107 
C 0.51958 -0.894634 0.265203 -1 0 -1 
C -0.265203 -1 -0.51958 -0.894634 -0.707107 -0.707107 
C -0.894634 -0.51958 -1 -0.265203 -1 0 
C -1 0.265203 -0.894634 0.51958 -0.707107 0.707107 
C -0.51958 0.894634 -0.265203 1 0 1 
z
" style="stroke: #0000ff"/>
     </defs>
     <g clip-path="url(#pe87476e40f)">
      <use xlink:href="#m399ca28c24" x="158.275608" y="12.212795" style="fill: #0000ff; stroke: #0000ff"/>
      <use xlink:href="#m399ca28c24" x="181.800009" y="10.845071" style="fill: #0000ff; stroke: #0000ff"/>
      <use xlink:href="#m399ca28c24" x="205.32441" y="10.263266" style="fill: #0000ff; stroke: #0000ff"/>
      <use xlink:href="#m399ca28c24" x="228.848811" y="10.370386" style="fill: #0000ff; stroke: #0000ff"/>
     </g>
    </g>
    <g id="line2d_68">
     <defs>
      <path id="m0581544415" d="M 0 1 
C 0.265203 1 0.51958 0.894634 0.707107 0.707107 
C 0.894634 0.51958 1 0.265203 1 0 
C 1 -0.265203 0.894634 -0.51958 0.707107 -0.707107 
C 0.51958 -0.894634 0.265203 -1 0 -1 
C -0.265203 -1 -0.51958 -0.894634 -0.707107 -0.707107 
C -0.894634 -0.51958 -1 -0.265203 -1 0 
C -1 0.265203 -0.894634 0.51958 -0.707107 0.707107 
C -0.51958 0.894634 -0.265203 1 0 1 
z
" style="stroke: #00bfbf"/>
     </defs>
     <g clip-path="url(#pe87476e40f)">
      <use xlink:href="#m0581544415" x="158.275608" y="25.816639" style="fill: #00bfbf; stroke: #00bfbf"/>
      <use xlink:href="#m0581544415" x="181.800009" y="12.58657" style="fill: #00bfbf; stroke: #00bfbf"/>
      <use xlink:href="#m0581544415" x="205.32441" y="8.614304" style="fill: #00bfbf; stroke: #00bfbf"/>
      <use xlink:href="#m0581544415" x="228.848811" y="6.977235" style="fill: #00bfbf; stroke: #00bfbf"/>
     </g>
    </g>
    <g id="patch_8">
     <path d="M 154.746948 26.800105 
L 154.746948 5.163864 
" style="fill: none; stroke: #000000; stroke-width: 0.8; stroke-linejoin: miter; stroke-linecap: square"/>
    </g>
    <g id="patch_9">
     <path d="M 232.377471 26.800105 
L 232.377471 5.163864 
" style="fill: none; stroke: #000000; stroke-width: 0.8; stroke-linejoin: miter; stroke-linecap: square"/>
    </g>
    <g id="patch_10">
     <path d="M 154.746948 26.800105 
L 232.377471 26.800105 
" style="fill: none; stroke: #000000; stroke-width: 0.8; stroke-linejoin: miter; stroke-linecap: square"/>
    </g>
    <g id="patch_11">
     <path d="M 154.746948 5.163864 
L 232.377471 5.163864 
" style="fill: none; stroke: #000000; stroke-width: 0.8; stroke-linejoin: miter; stroke-linecap: square"/>
    </g>
   </g>
  </g>
 </g>
 <defs>
  <clipPath id="p16466f770f">
   <rect x="44.123453" y="3.00024" width="194.076307" height="108.181203"/>
  </clipPath>
  <clipPath id="pe87476e40f">
   <rect x="154.746948" y="5.163864" width="77.630523" height="21.636241"/>
  </clipPath>
 </defs>
</svg>
