<?xml version="1.0" encoding="utf-8" standalone="no"?>
<!DOCTYPE svg PUBLIC "-//W3C//DTD SVG 1.1//EN"
  "http://www.w3.org/Graphics/SVG/1.1/DTD/svg11.dtd">
<svg xmlns:xlink="http://www.w3.org/1999/xlink" width="241.1316pt" height="165.834pt" viewBox="0 0 241.1316 165.834" xmlns="http://www.w3.org/2000/svg" version="1.1">
 <metadata>
  <rdf:RDF xmlns:dc="http://purl.org/dc/elements/1.1/" xmlns:cc="http://creativecommons.org/ns#" xmlns:rdf="http://www.w3.org/1999/02/22-rdf-syntax-ns#">
   <cc:Work>
    <dc:type rdf:resource="http://purl.org/dc/dcmitype/StillImage"/>
    <dc:date>2025-01-20T22:19:46.659582</dc:date>
    <dc:format>image/svg+xml</dc:format>
    <dc:creator>
     <cc:Agent>
      <dc:title>Matplotlib v3.6.3, https://matplotlib.org/</dc:title>
     </cc:Agent>
    </dc:creator>
   </cc:Work>
  </rdf:RDF>
 </metadata>
 <defs>
  <style type="text/css">*{stroke-linejoin: round; stroke-linecap: butt}</style>
 </defs>
 <g id="figure_1">
  <g id="patch_1">
   <path d="M 0 165.834 
L 241.1316 165.834 
L 241.1316 0 
L 0 0 
z
" style="fill: #ffffff"/>
  </g>
  <g id="axes_1">
   <g id="patch_2">
    <path d="M 30.530079 125.215683 
L 230.3316 125.215683 
L 230.3316 10.8 
L 30.530079 10.8 
z
" style="fill: #ffffff"/>
   </g>
   <g id="matplotlib.axis_1">
    <g id="xtick_1">
     <g id="line2d_1">
      <defs>
       <path id="m2d2f6004f6" d="M 0 0 
L 0 3.5 
" style="stroke: #000000; stroke-width: 0.8"/>
      </defs>
      <g>
       <use xlink:href="#m2d2f6004f6" x="39.611966" y="125.215683" style="stroke: #000000; stroke-width: 0.8"/>
      </g>
     </g>
     <g id="text_1">
      <!-- $\mathdefault{0}$ -->
      <g transform="translate(37.121299 139.134182) scale(0.1 -0.1)">
       <defs>
        <path id="CMR17-30" d="M 2688 2038 
C 2688 2430 2682 3099 2413 3613 
C 2176 4063 1798 4224 1466 4224 
C 1158 4224 768 4082 525 3620 
C 269 3137 243 2539 243 2038 
C 243 1671 250 1112 448 623 
C 723 -39 1216 -128 1466 -128 
C 1760 -128 2208 -7 2470 604 
C 2662 1048 2688 1568 2688 2038 
z
M 1466 -26 
C 1056 -26 813 328 723 816 
C 653 1196 653 1749 653 2109 
C 653 2604 653 3015 736 3407 
C 858 3954 1216 4121 1466 4121 
C 1728 4121 2067 3947 2189 3420 
C 2272 3054 2278 2623 2278 2109 
C 2278 1691 2278 1176 2202 797 
C 2067 96 1690 -26 1466 -26 
z
" transform="scale(0.015625)"/>
       </defs>
       <use xlink:href="#CMR17-30" transform="scale(0.996264)"/>
      </g>
     </g>
    </g>
    <g id="xtick_2">
     <g id="line2d_2">
      <g>
       <use xlink:href="#m2d2f6004f6" x="100.157882" y="125.215683" style="stroke: #000000; stroke-width: 0.8"/>
      </g>
     </g>
     <g id="text_2">
      <!-- $\mathdefault{120}$ -->
      <g transform="translate(92.685879 139.134182) scale(0.1 -0.1)">
       <defs>
        <path id="CMR17-31" d="M 1702 4083 
C 1702 4217 1696 4224 1606 4224 
C 1357 3927 979 3833 621 3820 
C 602 3820 570 3820 563 3808 
C 557 3795 557 3782 557 3648 
C 755 3648 1088 3686 1344 3839 
L 1344 467 
C 1344 243 1331 166 781 166 
L 589 166 
L 589 0 
C 896 6 1216 12 1523 12 
C 1830 12 2150 6 2458 0 
L 2458 166 
L 2266 166 
C 1715 166 1702 236 1702 467 
L 1702 4083 
z
" transform="scale(0.015625)"/>
        <path id="CMR17-32" d="M 2669 990 
L 2554 990 
C 2490 537 2438 460 2413 422 
C 2381 371 1920 371 1830 371 
L 602 371 
C 832 620 1280 1073 1824 1596 
C 2214 1966 2669 2400 2669 3033 
C 2669 3788 2067 4224 1395 4224 
C 691 4224 262 3603 262 3027 
C 262 2777 448 2745 525 2745 
C 589 2745 781 2783 781 3007 
C 781 3206 614 3264 525 3264 
C 486 3264 448 3257 422 3244 
C 544 3788 915 4057 1306 4057 
C 1862 4057 2227 3616 2227 3033 
C 2227 2477 1901 1998 1536 1583 
L 262 147 
L 262 0 
L 2515 0 
L 2669 990 
z
" transform="scale(0.015625)"/>
       </defs>
       <use xlink:href="#CMR17-31" transform="scale(0.996264)"/>
       <use xlink:href="#CMR17-32" transform="translate(45.690477 0) scale(0.996264)"/>
       <use xlink:href="#CMR17-30" transform="translate(91.380954 0) scale(0.996264)"/>
      </g>
     </g>
    </g>
    <g id="xtick_3">
     <g id="line2d_3">
      <g>
       <use xlink:href="#m2d2f6004f6" x="160.703797" y="125.215683" style="stroke: #000000; stroke-width: 0.8"/>
      </g>
     </g>
     <g id="text_3">
      <!-- $\mathdefault{240}$ -->
      <g transform="translate(153.231794 139.134182) scale(0.1 -0.1)">
       <defs>
        <path id="CMR17-34" d="M 2150 4147 
C 2150 4281 2144 4288 2029 4288 
L 128 1254 
L 128 1088 
L 1779 1088 
L 1779 460 
C 1779 230 1766 166 1318 166 
L 1197 166 
L 1197 0 
C 1402 12 1747 12 1965 12 
C 2182 12 2528 12 2733 0 
L 2733 166 
L 2611 166 
C 2163 166 2150 230 2150 460 
L 2150 1088 
L 2803 1088 
L 2803 1254 
L 2150 1254 
L 2150 4147 
z
M 1798 3723 
L 1798 1254 
L 256 1254 
L 1798 3723 
z
" transform="scale(0.015625)"/>
       </defs>
       <use xlink:href="#CMR17-32" transform="scale(0.996264)"/>
       <use xlink:href="#CMR17-34" transform="translate(45.690477 0) scale(0.996264)"/>
       <use xlink:href="#CMR17-30" transform="translate(91.380954 0) scale(0.996264)"/>
      </g>
     </g>
    </g>
    <g id="xtick_4">
     <g id="line2d_4">
      <g>
       <use xlink:href="#m2d2f6004f6" x="221.249713" y="125.215683" style="stroke: #000000; stroke-width: 0.8"/>
      </g>
     </g>
     <g id="text_4">
      <!-- $\mathdefault{360}$ -->
      <g transform="translate(213.77771 139.134182) scale(0.1 -0.1)">
       <defs>
        <path id="CMR17-33" d="M 1414 2176 
C 1984 2176 2234 1673 2234 1094 
C 2234 322 1824 25 1453 25 
C 1114 25 563 193 390 691 
C 422 678 454 678 486 678 
C 640 678 755 780 755 947 
C 755 1132 614 1216 486 1216 
C 378 1216 211 1164 211 927 
C 211 335 787 -128 1466 -128 
C 2176 -128 2720 432 2720 1087 
C 2720 1718 2208 2176 1600 2246 
C 2086 2347 2554 2776 2554 3353 
C 2554 3856 2048 4224 1472 4224 
C 890 4224 378 3862 378 3347 
C 378 3123 544 3084 627 3084 
C 762 3084 877 3167 877 3334 
C 877 3500 762 3584 627 3584 
C 602 3584 570 3584 544 3571 
C 730 3999 1235 4076 1459 4076 
C 1683 4076 2106 3966 2106 3347 
C 2106 3167 2080 2851 1862 2574 
C 1670 2329 1453 2316 1242 2297 
C 1210 2297 1062 2284 1037 2284 
C 992 2278 966 2272 966 2227 
C 966 2182 973 2176 1101 2176 
L 1414 2176 
z
" transform="scale(0.015625)"/>
        <path id="CMR17-36" d="M 678 2198 
C 678 3712 1395 4076 1811 4076 
C 1946 4076 2272 4049 2400 3782 
C 2298 3782 2106 3782 2106 3558 
C 2106 3385 2246 3328 2336 3328 
C 2394 3328 2566 3353 2566 3571 
C 2566 3987 2246 4224 1805 4224 
C 1043 4224 243 3411 243 2011 
C 243 257 966 -128 1478 -128 
C 2099 -128 2688 431 2688 1295 
C 2688 2101 2170 2688 1517 2688 
C 1126 2688 838 2430 678 1979 
L 678 2198 
z
M 1478 25 
C 691 25 691 1212 691 1450 
C 691 1914 909 2585 1504 2585 
C 1613 2585 1926 2585 2138 2140 
C 2253 1889 2253 1624 2253 1302 
C 2253 954 2253 696 2118 438 
C 1978 173 1773 25 1478 25 
z
" transform="scale(0.015625)"/>
       </defs>
       <use xlink:href="#CMR17-33" transform="scale(0.996264)"/>
       <use xlink:href="#CMR17-36" transform="translate(45.690477 0) scale(0.996264)"/>
       <use xlink:href="#CMR17-30" transform="translate(91.380954 0) scale(0.996264)"/>
      </g>
     </g>
    </g>
    <g id="text_5">
     <!-- $\phi (^o)$ -->
     <g transform="translate(121.373123 152.54334) scale(0.1 -0.1)">
      <defs>
       <path id="CMMI12-1e" d="M 2752 4358 
C 2752 4416 2707 4416 2688 4416 
C 2630 4416 2624 4403 2598 4294 
L 2253 2924 
C 2234 2841 2227 2835 2221 2828 
C 2214 2816 2170 2809 2157 2809 
C 1107 2720 301 1863 301 1071 
C 301 387 832 -32 1498 -71 
C 1446 -266 1402 -467 1350 -662 
C 1261 -995 1210 -1204 1210 -1229 
C 1210 -1242 1210 -1280 1274 -1280 
C 1293 -1280 1318 -1280 1331 -1255 
C 1344 -1242 1382 -1089 1408 -1008 
L 1645 -71 
C 2739 -13 3571 875 3571 1673 
C 3571 2313 3085 2771 2374 2816 
L 2752 4358 
z
M 2336 2688 
C 2758 2662 3181 2428 3181 1806 
C 3181 1090 2675 140 1677 64 
L 2336 2688 
z
M 1530 57 
C 1216 76 691 241 691 938 
C 691 1737 1274 2624 2195 2681 
L 1530 57 
z
" transform="scale(0.015625)"/>
       <path id="CMR17-28" d="M 1958 -1562 
C 1958 -1556 1958 -1543 1939 -1524 
C 1645 -1223 858 -403 858 1596 
C 858 3595 1632 4408 1946 4729 
C 1946 4735 1958 4748 1958 4767 
C 1958 4787 1939 4800 1914 4800 
C 1843 4800 1299 4325 986 3620 
C 666 2909 576 2218 576 1603 
C 576 1141 621 360 1005 -467 
C 1312 -1133 1837 -1600 1914 -1600 
C 1946 -1600 1958 -1588 1958 -1562 
z
" transform="scale(0.015625)"/>
       <path id="CMMI12-6f" d="M 2918 1755 
C 2918 2362 2522 2816 1939 2816 
C 1094 2816 262 1896 262 996 
C 262 389 659 -64 1242 -64 
C 2093 -64 2918 855 2918 1755 
z
M 1248 64 
C 928 64 691 319 691 766 
C 691 1060 845 1711 1024 2030 
C 1312 2522 1670 2687 1933 2687 
C 2246 2687 2490 2432 2490 1985 
C 2490 1730 2355 1047 2112 657 
C 1850 230 1498 64 1248 64 
z
" transform="scale(0.015625)"/>
       <path id="CMR17-29" d="M 1683 1596 
C 1683 2057 1638 2839 1254 3665 
C 947 4332 422 4800 346 4800 
C 326 4800 301 4793 301 4761 
C 301 4748 307 4742 314 4729 
C 621 4408 1402 3595 1402 1603 
C 1402 -396 627 -1210 314 -1530 
C 307 -1543 301 -1549 301 -1562 
C 301 -1594 326 -1600 346 -1600 
C 416 -1600 960 -1127 1274 -422 
C 1594 289 1683 981 1683 1596 
z
" transform="scale(0.015625)"/>
      </defs>
      <use xlink:href="#CMMI12-1e" transform="scale(0.996264)"/>
      <use xlink:href="#CMR17-28" transform="translate(57.73418 0) scale(0.996264)"/>
      <use xlink:href="#CMMI12-6f" transform="translate(93.014948 36.153639) scale(0.697382)"/>
      <use xlink:href="#CMR17-29" transform="translate(126.339642 0) scale(0.996264)"/>
     </g>
    </g>
   </g>
   <g id="matplotlib.axis_2">
    <g id="ytick_1">
     <g id="line2d_5">
      <defs>
       <path id="m412ab9d7c4" d="M 0 0 
L -3.5 0 
" style="stroke: #000000; stroke-width: 0.8"/>
      </defs>
      <g>
       <use xlink:href="#m412ab9d7c4" x="30.530079" y="117.816254" style="stroke: #000000; stroke-width: 0.8"/>
      </g>
     </g>
     <g id="text_6">
      <!-- $\mathdefault{−2}$ -->
      <g transform="translate(10.8 121.275503) scale(0.1 -0.1)">
       <defs>
        <path id="CMSY10-0" d="M 4218 1472 
C 4326 1472 4442 1472 4442 1600 
C 4442 1728 4326 1728 4218 1728 
L 755 1728 
C 646 1728 531 1728 531 1600 
C 531 1472 646 1472 755 1472 
L 4218 1472 
z
" transform="scale(0.015625)"/>
       </defs>
       <use xlink:href="#CMSY10-0" transform="scale(0.996264)"/>
       <use xlink:href="#CMR17-32" transform="translate(77.487468 0) scale(0.996264)"/>
      </g>
     </g>
    </g>
    <g id="ytick_2">
     <g id="line2d_6">
      <g>
       <use xlink:href="#m412ab9d7c4" x="30.530079" y="80.542532" style="stroke: #000000; stroke-width: 0.8"/>
      </g>
     </g>
     <g id="text_7">
      <!-- $\mathdefault{−1}$ -->
      <g transform="translate(10.8 84.001781) scale(0.1 -0.1)">
       <use xlink:href="#CMSY10-0" transform="scale(0.996264)"/>
       <use xlink:href="#CMR17-31" transform="translate(77.487468 0) scale(0.996264)"/>
      </g>
     </g>
    </g>
    <g id="ytick_3">
     <g id="line2d_7">
      <g>
       <use xlink:href="#m412ab9d7c4" x="30.530079" y="43.268809" style="stroke: #000000; stroke-width: 0.8"/>
      </g>
     </g>
     <g id="text_8">
      <!-- $\mathdefault{0}$ -->
      <g transform="translate(18.548744 46.728059) scale(0.1 -0.1)">
       <use xlink:href="#CMR17-30" transform="scale(0.996264)"/>
      </g>
     </g>
    </g>
   </g>
   <g id="line2d_8">
    <path d="M 39.611966 119.987291 
L 39.813786 119.892654 
L 40.066061 119.509135 
L 40.419245 118.484045 
L 40.87334 116.357856 
L 41.428344 112.611638 
L 42.185168 105.751781 
L 43.194266 94.32296 
L 46.423382 56.132431 
L 47.331571 48.542208 
L 48.138849 43.570749 
L 48.845218 40.561882 
L 49.450678 38.888947 
L 49.955227 38.05307 
L 50.409321 37.671494 
L 50.863416 37.583908 
L 51.31751 37.735111 
L 51.872514 38.167027 
L 52.679793 39.110234 
L 55.757544 43.00013 
L 56.665732 43.684888 
L 57.523466 44.058962 
L 58.330745 44.176758 
L 59.188479 44.079509 
L 60.197578 43.733406 
L 62.013955 42.813456 
L 63.376238 42.24757 
L 64.334882 42.077638 
L 65.243071 42.137939 
L 66.252169 42.442746 
L 67.664907 43.138203 
L 69.53174 44.017417 
L 70.591293 44.261903 
L 71.600392 44.261087 
L 72.7104 44.025401 
L 74.324958 43.422994 
L 77.099979 42.398263 
L 79.319996 41.855405 
L 82.044562 41.408596 
L 84.012304 41.301964 
L 87.695514 41.203003 
L 88.704613 40.885833 
L 89.663256 40.358424 
L 90.72281 39.509833 
L 92.135548 38.051069 
L 94.2042 35.918827 
L 95.112389 35.300825 
L 95.869213 35.043899 
L 96.575582 35.044643 
L 97.281951 35.275375 
L 98.139685 35.816386 
L 100.914706 37.813521 
L 101.46971 37.845145 
L 101.974259 37.657445 
L 102.478809 37.232308 
L 103.033813 36.466891 
L 103.689727 35.148987 
L 104.446551 33.100173 
L 105.455649 29.660011 
L 108.43249 18.983562 
L 109.189314 17.262556 
L 109.794773 16.398915 
L 110.299323 16.049588 
L 110.702962 16.010634 
L 111.157056 16.209419 
L 111.661606 16.703478 
L 112.31752 17.702681 
L 113.276163 19.644473 
L 115.344816 23.931629 
L 116.152094 25.057543 
L 116.808009 25.627961 
L 117.413468 25.879557 
L 118.018927 25.894089 
L 118.725296 25.672769 
L 119.734394 25.088841 
L 121.500317 24.05423 
L 122.408506 23.789818 
L 123.316694 23.766836 
L 124.325793 23.975624 
L 126.293535 24.680264 
L 127.958548 25.148495 
L 129.522651 25.346546 
L 131.339028 25.346546 
L 132.953586 25.138298 
L 134.467234 24.715487 
L 137.49453 23.772103 
L 138.402718 23.782309 
L 139.260452 24.01311 
L 140.269551 24.532985 
L 142.590478 25.840481 
L 143.246392 25.908825 
L 143.851851 25.740263 
L 144.45731 25.314427 
L 145.113224 24.550555 
L 145.870048 23.307592 
L 146.980056 20.992596 
L 148.645069 17.526834 
L 149.351438 16.52737 
L 149.906442 16.090563 
L 150.360537 16.003894 
L 150.764176 16.148743 
L 151.21827 16.569734 
L 151.72282 17.355893 
L 152.378734 18.848513 
L 153.186013 21.302827 
L 154.447386 25.981322 
L 156.263763 32.62949 
L 157.171952 35.148987 
L 157.928776 36.629899 
L 158.534235 37.386188 
L 159.089239 37.759534 
L 159.644244 37.859027 
L 160.199248 37.729632 
L 160.905617 37.320127 
L 162.217445 36.225761 
L 163.377908 35.379834 
L 164.185187 35.06394 
L 164.891556 35.029524 
L 165.597925 35.229063 
L 166.354749 35.679986 
L 167.313393 36.524992 
L 169.33159 38.707694 
L 170.693873 39.987453 
L 171.753427 40.692162 
L 172.762525 41.102869 
L 173.872534 41.306648 
L 175.386182 41.334035 
L 178.363023 41.364073 
L 180.532585 41.66213 
L 183.307606 42.269471 
L 185.325803 42.9332 
L 188.958558 44.218499 
L 190.018111 44.283099 
L 191.02721 44.111891 
L 192.137218 43.685035 
L 195.669063 42.128917 
L 196.577252 42.080726 
L 197.535896 42.262626 
L 198.696359 42.737942 
L 201.622745 44.067513 
L 202.530934 44.176758 
L 203.338213 44.058962 
L 204.145492 43.71424 
L 205.003225 43.090598 
L 205.961869 42.097378 
L 207.273697 40.366235 
L 208.888255 38.268252 
L 209.544169 37.735111 
L 210.048718 37.580849 
L 210.452358 37.671494 
L 210.855997 37.994427 
L 211.310092 38.683739 
L 211.814641 39.916658 
L 212.369645 41.915991 
L 212.975104 44.944102 
L 213.681473 49.662105 
L 214.488752 56.613522 
L 215.497851 67.37397 
L 217.162863 88.041526 
L 218.676511 105.751781 
L 219.534245 113.380669 
L 220.190159 117.412123 
L 220.694708 119.273871 
L 221.047893 119.892654 
L 221.249713 119.987291 
L 221.249713 119.987291 
" clip-path="url(#p4838ace3ab)" style="fill: none; stroke: #000000; stroke-linecap: square"/>
   </g>
   <g id="line2d_9">
    <path d="M 39.611966 120.01497 
L 39.813786 119.926815 
L 40.066061 119.561708 
L 40.419245 118.575562 
L 40.87334 116.498218 
L 41.428344 112.726817 
L 42.033803 107.007126 
L 44.35473 78.836468 
L 44.859279 72.777721 
L 45.464738 66.237915 
L 46.473837 55.736998 
L 47.83612 45.669825 
L 48.693854 41.222241 
L 49.097493 39.854647 
L 49.501132 38.733296 
L 50.106592 37.934522 
L 51.11569 37.715087 
L 51.771604 38.156708 
L 53.386162 40.051134 
L 54.89981 41.993749 
L 56.110728 43.178509 
L 57.069372 43.817765 
L 57.826196 44.075823 
L 58.734385 44.146595 
L 59.793938 43.949457 
L 60.550762 43.659294 
L 63.678968 42.279835 
L 64.688066 42.14253 
L 65.697165 42.296488 
L 66.807173 42.695794 
L 68.320821 43.455046 
L 69.481285 43.922953 
L 70.339018 44.112241 
L 71.903121 44.093524 
L 73.063585 43.766355 
L 78.008168 42.002217 
L 80.530914 41.443647 
L 81.741832 41.206995 
L 82.347292 41.091808 
L 83.406845 41.109947 
L 88.200063 40.934412 
L 90.117351 39.83211 
L 91.883273 38.026667 
L 93.497831 36.244815 
L 95.263754 35.014323 
L 96.071032 34.786583 
L 97.635135 35.277517 
L 99.602878 37.063143 
L 100.914706 37.838375 
L 101.46971 37.875056 
L 101.974259 37.701656 
L 102.428354 37.320647 
L 103.084268 36.395216 
L 103.740182 35.141746 
L 104.74928 32.204337 
L 105.808834 28.569436 
L 107.524301 22.033829 
L 108.482945 19.124514 
L 109.189314 17.571605 
L 109.794773 16.685898 
L 110.248868 16.35584 
L 110.753417 16.287088 
L 111.207511 16.46993 
L 111.712061 16.937879 
L 112.367975 17.869934 
L 113.377073 19.771425 
L 115.243906 23.400623 
L 116.202549 24.696521 
L 116.908918 25.190683 
L 117.463923 25.367159 
L 118.422566 25.3439 
L 119.07848 25.128439 
L 121.399407 23.844506 
L 122.206686 23.635578 
L 123.468059 23.68347 
L 124.678978 24.022416 
L 125.536711 24.270114 
L 126.14217 24.583444 
L 127.201724 24.958514 
L 128.210823 25.168711 
L 129.774925 25.40771 
L 131.238118 25.395237 
L 132.701311 25.157344 
L 134.769963 24.565006 
L 135.829517 24.174859 
L 137.948624 23.586419 
L 139.209997 23.752038 
L 140.67319 24.522906 
L 142.237293 25.317224 
L 142.792297 25.357559 
L 143.801396 25.284669 
L 144.406855 24.936081 
L 144.961859 24.391887 
L 145.668228 23.357681 
L 146.778237 21.28199 
L 148.645069 17.686758 
L 149.401893 16.735567 
L 149.906442 16.403291 
L 150.360537 16.352685 
L 150.814631 16.526263 
L 151.21827 16.930278 
L 151.82373 17.902976 
L 152.429189 19.301848 
L 153.337378 22.065916 
L 154.548296 26.559102 
L 156.011489 31.893397 
L 157.272862 35.495362 
L 157.979231 36.71019 
L 158.6856 37.564639 
L 159.190149 37.826531 
L 159.694699 37.873606 
L 160.249703 37.712005 
L 161.309256 37.023495 
L 161.914716 36.457878 
L 162.822904 35.604555 
L 163.832003 34.96904 
L 165.143831 34.770827 
L 166.758389 35.669191 
L 170.996603 40.005943 
L 172.157066 40.663981 
L 173.21662 41.063407 
L 179.170301 41.22199 
L 180.28031 41.442089 
L 181.390318 41.670829 
L 184.669889 42.523379 
L 187.394455 43.607251 
L 188.807193 44.058546 
L 189.715382 44.164368 
L 191.178575 43.995699 
L 192.086763 43.663876 
L 193.095862 43.201369 
L 194.458145 42.554759 
L 195.568154 42.22286 
L 196.526797 42.162544 
L 197.636806 42.406383 
L 198.898179 42.935121 
L 201.320016 43.994984 
L 202.430024 44.149141 
L 203.237303 44.023797 
L 203.943672 43.733193 
L 205.05368 42.940191 
L 205.760049 42.22299 
L 207.324152 40.261735 
L 208.585525 38.653544 
L 209.645079 37.753006 
L 210.048718 37.642097 
L 210.855997 37.975155 
L 211.209182 38.466597 
L 211.562366 39.143323 
L 212.369645 41.820969 
L 212.72283 43.724435 
L 213.479654 47.963794 
L 213.832838 50.618881 
L 215.598761 68.447917 
L 216.961044 85.271144 
L 218.071052 98.00006 
L 218.525146 103.080817 
L 219.181061 110.490031 
L 219.836975 115.566695 
L 220.391979 118.36694 
L 220.846073 119.646556 
L 221.148803 119.990982 
L 221.249713 120.01497 
L 221.249713 120.01497 
" clip-path="url(#p4838ace3ab)" style="fill: none; stroke-dasharray: 3.7,1.6; stroke-dashoffset: 0; stroke: #ff0000"/>
   </g>
   <g id="patch_3">
    <path d="M 30.530079 125.215683 
L 30.530079 10.8 
" style="fill: none; stroke: #000000; stroke-width: 0.8; stroke-linejoin: miter; stroke-linecap: square"/>
   </g>
   <g id="patch_4">
    <path d="M 230.3316 125.215683 
L 230.3316 10.8 
" style="fill: none; stroke: #000000; stroke-width: 0.8; stroke-linejoin: miter; stroke-linecap: square"/>
   </g>
   <g id="patch_5">
    <path d="M 30.530079 125.215683 
L 230.3316 125.215683 
" style="fill: none; stroke: #000000; stroke-width: 0.8; stroke-linejoin: miter; stroke-linecap: square"/>
   </g>
   <g id="patch_6">
    <path d="M 30.530079 10.8 
L 230.3316 10.8 
" style="fill: none; stroke: #000000; stroke-width: 0.8; stroke-linejoin: miter; stroke-linecap: square"/>
   </g>
  </g>
 </g>
 <defs>
  <clipPath id="p4838ace3ab">
   <rect x="30.530079" y="10.8" width="199.801521" height="114.415683"/>
  </clipPath>
 </defs>
</svg>
