<?xml version="1.0" encoding="utf-8" standalone="no"?>
<!DOCTYPE svg PUBLIC "-//W3C//DTD SVG 1.1//EN"
  "http://www.w3.org/Graphics/SVG/1.1/DTD/svg11.dtd">
<svg xmlns:xlink="http://www.w3.org/1999/xlink" width="241.2pt" height="147.6pt" viewBox="0 0 241.2 147.6" xmlns="http://www.w3.org/2000/svg" version="1.1">
 <metadata>
  <rdf:RDF xmlns:dc="http://purl.org/dc/elements/1.1/" xmlns:cc="http://creativecommons.org/ns#" xmlns:rdf="http://www.w3.org/1999/02/22-rdf-syntax-ns#">
   <cc:Work>
    <dc:type rdf:resource="http://purl.org/dc/dcmitype/StillImage"/>
    <dc:date>2025-05-31T11:26:38.596011</dc:date>
    <dc:format>image/svg+xml</dc:format>
    <dc:creator>
     <cc:Agent>
      <dc:title>Matplotlib v3.6.3, https://matplotlib.org/</dc:title>
     </cc:Agent>
    </dc:creator>
   </cc:Work>
  </rdf:RDF>
 </metadata>
 <defs>
  <style type="text/css">*{stroke-linejoin: round; stroke-linecap: butt}</style>
 </defs>
 <g id="figure_1">
  <g id="patch_1">
   <path d="M 0 147.6 
L 241.2 147.6 
L 241.2 0 
L 0 0 
z
" style="fill: #ffffff"/>
  </g>
  <g id="axes_1">
   <g id="patch_2">
    <path d="M 44.761092 114.781443 
L 238.19976 114.781443 
L 238.19976 3.00024 
L 44.761092 3.00024 
z
" style="fill: #ffffff"/>
   </g>
   <g id="matplotlib.axis_1">
    <g id="xtick_1">
     <g id="line2d_1">
      <defs>
       <path id="mc4e4afd6a1" d="M 0 0 
L 0 3.5 
" style="stroke: #000000; stroke-width: 0.8"/>
      </defs>
      <g>
       <use xlink:href="#mc4e4afd6a1" x="53.553759" y="114.781443" style="stroke: #000000; stroke-width: 0.8"/>
      </g>
     </g>
     <g id="text_1">
      <!-- $\mathdefault{0}$ -->
      <g transform="translate(51.063091 128.699942) scale(0.1 -0.1)">
       <defs>
        <path id="CMR17-30" d="M 2688 2038 
C 2688 2430 2682 3099 2413 3613 
C 2176 4063 1798 4224 1466 4224 
C 1158 4224 768 4082 525 3620 
C 269 3137 243 2539 243 2038 
C 243 1671 250 1112 448 623 
C 723 -39 1216 -128 1466 -128 
C 1760 -128 2208 -7 2470 604 
C 2662 1048 2688 1568 2688 2038 
z
M 1466 -26 
C 1056 -26 813 328 723 816 
C 653 1196 653 1749 653 2109 
C 653 2604 653 3015 736 3407 
C 858 3954 1216 4121 1466 4121 
C 1728 4121 2067 3947 2189 3420 
C 2272 3054 2278 2623 2278 2109 
C 2278 1691 2278 1176 2202 797 
C 2067 96 1690 -26 1466 -26 
z
" transform="scale(0.015625)"/>
       </defs>
       <use xlink:href="#CMR17-30" transform="scale(0.996264)"/>
      </g>
     </g>
    </g>
    <g id="xtick_2">
     <g id="line2d_2">
      <g>
       <use xlink:href="#mc4e4afd6a1" x="82.862648" y="114.781443" style="stroke: #000000; stroke-width: 0.8"/>
      </g>
     </g>
     <g id="text_2">
      <!-- $\mathdefault{60}$ -->
      <g transform="translate(77.881313 128.699942) scale(0.1 -0.1)">
       <defs>
        <path id="CMR17-36" d="M 678 2198 
C 678 3712 1395 4076 1811 4076 
C 1946 4076 2272 4049 2400 3782 
C 2298 3782 2106 3782 2106 3558 
C 2106 3385 2246 3328 2336 3328 
C 2394 3328 2566 3353 2566 3571 
C 2566 3987 2246 4224 1805 4224 
C 1043 4224 243 3411 243 2011 
C 243 257 966 -128 1478 -128 
C 2099 -128 2688 431 2688 1295 
C 2688 2101 2170 2688 1517 2688 
C 1126 2688 838 2430 678 1979 
L 678 2198 
z
M 1478 25 
C 691 25 691 1212 691 1450 
C 691 1914 909 2585 1504 2585 
C 1613 2585 1926 2585 2138 2140 
C 2253 1889 2253 1624 2253 1302 
C 2253 954 2253 696 2118 438 
C 1978 173 1773 25 1478 25 
z
" transform="scale(0.015625)"/>
       </defs>
       <use xlink:href="#CMR17-36" transform="scale(0.996264)"/>
       <use xlink:href="#CMR17-30" transform="translate(45.690477 0) scale(0.996264)"/>
      </g>
     </g>
    </g>
    <g id="xtick_3">
     <g id="line2d_3">
      <g>
       <use xlink:href="#mc4e4afd6a1" x="112.171537" y="114.781443" style="stroke: #000000; stroke-width: 0.8"/>
      </g>
     </g>
     <g id="text_3">
      <!-- $\mathdefault{120}$ -->
      <g transform="translate(104.699534 128.699942) scale(0.1 -0.1)">
       <defs>
        <path id="CMR17-31" d="M 1702 4083 
C 1702 4217 1696 4224 1606 4224 
C 1357 3927 979 3833 621 3820 
C 602 3820 570 3820 563 3808 
C 557 3795 557 3782 557 3648 
C 755 3648 1088 3686 1344 3839 
L 1344 467 
C 1344 243 1331 166 781 166 
L 589 166 
L 589 0 
C 896 6 1216 12 1523 12 
C 1830 12 2150 6 2458 0 
L 2458 166 
L 2266 166 
C 1715 166 1702 236 1702 467 
L 1702 4083 
z
" transform="scale(0.015625)"/>
        <path id="CMR17-32" d="M 2669 990 
L 2554 990 
C 2490 537 2438 460 2413 422 
C 2381 371 1920 371 1830 371 
L 602 371 
C 832 620 1280 1073 1824 1596 
C 2214 1966 2669 2400 2669 3033 
C 2669 3788 2067 4224 1395 4224 
C 691 4224 262 3603 262 3027 
C 262 2777 448 2745 525 2745 
C 589 2745 781 2783 781 3007 
C 781 3206 614 3264 525 3264 
C 486 3264 448 3257 422 3244 
C 544 3788 915 4057 1306 4057 
C 1862 4057 2227 3616 2227 3033 
C 2227 2477 1901 1998 1536 1583 
L 262 147 
L 262 0 
L 2515 0 
L 2669 990 
z
" transform="scale(0.015625)"/>
       </defs>
       <use xlink:href="#CMR17-31" transform="scale(0.996264)"/>
       <use xlink:href="#CMR17-32" transform="translate(45.690477 0) scale(0.996264)"/>
       <use xlink:href="#CMR17-30" transform="translate(91.380954 0) scale(0.996264)"/>
      </g>
     </g>
    </g>
    <g id="xtick_4">
     <g id="line2d_4">
      <g>
       <use xlink:href="#mc4e4afd6a1" x="141.480426" y="114.781443" style="stroke: #000000; stroke-width: 0.8"/>
      </g>
     </g>
     <g id="text_4">
      <!-- $\mathdefault{180}$ -->
      <g transform="translate(134.008423 128.699942) scale(0.1 -0.1)">
       <defs>
        <path id="CMR17-38" d="M 1741 2289 
C 2144 2494 2554 2803 2554 3298 
C 2554 3884 1990 4224 1472 4224 
C 890 4224 378 3800 378 3215 
C 378 3054 416 2777 666 2533 
C 730 2469 998 2276 1171 2154 
C 883 2006 211 1652 211 945 
C 211 282 838 -128 1459 -128 
C 2144 -128 2720 366 2720 1022 
C 2720 1607 2330 1877 2074 2051 
L 1741 2289 
z
M 902 2855 
C 851 2887 595 3086 595 3388 
C 595 3781 998 4076 1459 4076 
C 1965 4076 2336 3716 2336 3298 
C 2336 2700 1670 2359 1638 2359 
C 1632 2359 1626 2359 1574 2398 
L 902 2855 
z
M 2080 1536 
C 2176 1466 2483 1253 2483 861 
C 2483 385 2010 25 1472 25 
C 890 25 448 443 448 951 
C 448 1459 838 1884 1280 2083 
L 2080 1536 
z
" transform="scale(0.015625)"/>
       </defs>
       <use xlink:href="#CMR17-31" transform="scale(0.996264)"/>
       <use xlink:href="#CMR17-38" transform="translate(45.690477 0) scale(0.996264)"/>
       <use xlink:href="#CMR17-30" transform="translate(91.380954 0) scale(0.996264)"/>
      </g>
     </g>
    </g>
    <g id="xtick_5">
     <g id="line2d_5">
      <g>
       <use xlink:href="#mc4e4afd6a1" x="170.789315" y="114.781443" style="stroke: #000000; stroke-width: 0.8"/>
      </g>
     </g>
     <g id="text_5">
      <!-- $\mathdefault{240}$ -->
      <g transform="translate(163.317312 128.699942) scale(0.1 -0.1)">
       <defs>
        <path id="CMR17-34" d="M 2150 4147 
C 2150 4281 2144 4288 2029 4288 
L 128 1254 
L 128 1088 
L 1779 1088 
L 1779 460 
C 1779 230 1766 166 1318 166 
L 1197 166 
L 1197 0 
C 1402 12 1747 12 1965 12 
C 2182 12 2528 12 2733 0 
L 2733 166 
L 2611 166 
C 2163 166 2150 230 2150 460 
L 2150 1088 
L 2803 1088 
L 2803 1254 
L 2150 1254 
L 2150 4147 
z
M 1798 3723 
L 1798 1254 
L 256 1254 
L 1798 3723 
z
" transform="scale(0.015625)"/>
       </defs>
       <use xlink:href="#CMR17-32" transform="scale(0.996264)"/>
       <use xlink:href="#CMR17-34" transform="translate(45.690477 0) scale(0.996264)"/>
       <use xlink:href="#CMR17-30" transform="translate(91.380954 0) scale(0.996264)"/>
      </g>
     </g>
    </g>
    <g id="xtick_6">
     <g id="line2d_6">
      <g>
       <use xlink:href="#mc4e4afd6a1" x="200.098204" y="114.781443" style="stroke: #000000; stroke-width: 0.8"/>
      </g>
     </g>
     <g id="text_6">
      <!-- $\mathdefault{300}$ -->
      <g transform="translate(192.626201 128.699942) scale(0.1 -0.1)">
       <defs>
        <path id="CMR17-33" d="M 1414 2176 
C 1984 2176 2234 1673 2234 1094 
C 2234 322 1824 25 1453 25 
C 1114 25 563 193 390 691 
C 422 678 454 678 486 678 
C 640 678 755 780 755 947 
C 755 1132 614 1216 486 1216 
C 378 1216 211 1164 211 927 
C 211 335 787 -128 1466 -128 
C 2176 -128 2720 432 2720 1087 
C 2720 1718 2208 2176 1600 2246 
C 2086 2347 2554 2776 2554 3353 
C 2554 3856 2048 4224 1472 4224 
C 890 4224 378 3862 378 3347 
C 378 3123 544 3084 627 3084 
C 762 3084 877 3167 877 3334 
C 877 3500 762 3584 627 3584 
C 602 3584 570 3584 544 3571 
C 730 3999 1235 4076 1459 4076 
C 1683 4076 2106 3966 2106 3347 
C 2106 3167 2080 2851 1862 2574 
C 1670 2329 1453 2316 1242 2297 
C 1210 2297 1062 2284 1037 2284 
C 992 2278 966 2272 966 2227 
C 966 2182 973 2176 1101 2176 
L 1414 2176 
z
" transform="scale(0.015625)"/>
       </defs>
       <use xlink:href="#CMR17-33" transform="scale(0.996264)"/>
       <use xlink:href="#CMR17-30" transform="translate(45.690477 0) scale(0.996264)"/>
       <use xlink:href="#CMR17-30" transform="translate(91.380954 0) scale(0.996264)"/>
      </g>
     </g>
    </g>
    <g id="xtick_7">
     <g id="line2d_7">
      <g>
       <use xlink:href="#mc4e4afd6a1" x="229.407093" y="114.781443" style="stroke: #000000; stroke-width: 0.8"/>
      </g>
     </g>
     <g id="text_7">
      <!-- $\mathdefault{360}$ -->
      <g transform="translate(221.93509 128.699942) scale(0.1 -0.1)">
       <use xlink:href="#CMR17-33" transform="scale(0.996264)"/>
       <use xlink:href="#CMR17-36" transform="translate(45.690477 0) scale(0.996264)"/>
       <use xlink:href="#CMR17-30" transform="translate(91.380954 0) scale(0.996264)"/>
      </g>
     </g>
    </g>
    <g id="text_8">
     <!-- $\phi (^o)$ -->
     <g transform="translate(132.42271 142.1091) scale(0.1 -0.1)">
      <defs>
       <path id="CMMI12-1e" d="M 2752 4358 
C 2752 4416 2707 4416 2688 4416 
C 2630 4416 2624 4403 2598 4294 
L 2253 2924 
C 2234 2841 2227 2835 2221 2828 
C 2214 2816 2170 2809 2157 2809 
C 1107 2720 301 1863 301 1071 
C 301 387 832 -32 1498 -71 
C 1446 -266 1402 -467 1350 -662 
C 1261 -995 1210 -1204 1210 -1229 
C 1210 -1242 1210 -1280 1274 -1280 
C 1293 -1280 1318 -1280 1331 -1255 
C 1344 -1242 1382 -1089 1408 -1008 
L 1645 -71 
C 2739 -13 3571 875 3571 1673 
C 3571 2313 3085 2771 2374 2816 
L 2752 4358 
z
M 2336 2688 
C 2758 2662 3181 2428 3181 1806 
C 3181 1090 2675 140 1677 64 
L 2336 2688 
z
M 1530 57 
C 1216 76 691 241 691 938 
C 691 1737 1274 2624 2195 2681 
L 1530 57 
z
" transform="scale(0.015625)"/>
       <path id="CMR17-28" d="M 1958 -1562 
C 1958 -1556 1958 -1543 1939 -1524 
C 1645 -1223 858 -403 858 1596 
C 858 3595 1632 4408 1946 4729 
C 1946 4735 1958 4748 1958 4767 
C 1958 4787 1939 4800 1914 4800 
C 1843 4800 1299 4325 986 3620 
C 666 2909 576 2218 576 1603 
C 576 1141 621 360 1005 -467 
C 1312 -1133 1837 -1600 1914 -1600 
C 1946 -1600 1958 -1588 1958 -1562 
z
" transform="scale(0.015625)"/>
       <path id="CMMI12-6f" d="M 2918 1755 
C 2918 2362 2522 2816 1939 2816 
C 1094 2816 262 1896 262 996 
C 262 389 659 -64 1242 -64 
C 2093 -64 2918 855 2918 1755 
z
M 1248 64 
C 928 64 691 319 691 766 
C 691 1060 845 1711 1024 2030 
C 1312 2522 1670 2687 1933 2687 
C 2246 2687 2490 2432 2490 1985 
C 2490 1730 2355 1047 2112 657 
C 1850 230 1498 64 1248 64 
z
" transform="scale(0.015625)"/>
       <path id="CMR17-29" d="M 1683 1596 
C 1683 2057 1638 2839 1254 3665 
C 947 4332 422 4800 346 4800 
C 326 4800 301 4793 301 4761 
C 301 4748 307 4742 314 4729 
C 621 4408 1402 3595 1402 1603 
C 1402 -396 627 -1210 314 -1530 
C 307 -1543 301 -1549 301 -1562 
C 301 -1594 326 -1600 346 -1600 
C 416 -1600 960 -1127 1274 -422 
C 1594 289 1683 981 1683 1596 
z
" transform="scale(0.015625)"/>
      </defs>
      <use xlink:href="#CMMI12-1e" transform="scale(0.996264)"/>
      <use xlink:href="#CMR17-28" transform="translate(57.73418 0) scale(0.996264)"/>
      <use xlink:href="#CMMI12-6f" transform="translate(93.014948 36.153639) scale(0.697382)"/>
      <use xlink:href="#CMR17-29" transform="translate(126.339642 0) scale(0.996264)"/>
     </g>
    </g>
   </g>
   <g id="matplotlib.axis_2">
    <g id="ytick_1">
     <g id="line2d_8">
      <defs>
       <path id="m89d088f895" d="M 0 0 
L -3.5 0 
" style="stroke: #000000; stroke-width: 0.8"/>
      </defs>
      <g>
       <use xlink:href="#m89d088f895" x="44.761092" y="98.974261" style="stroke: #000000; stroke-width: 0.8"/>
      </g>
     </g>
     <g id="text_9">
      <!-- $\mathdefault{10^{-3}}$ -->
      <g transform="translate(17.600519 102.43351) scale(0.1 -0.1)">
       <defs>
        <path id="CMSY10-0" d="M 4218 1472 
C 4326 1472 4442 1472 4442 1600 
C 4442 1728 4326 1728 4218 1728 
L 755 1728 
C 646 1728 531 1728 531 1600 
C 531 1472 646 1472 755 1472 
L 4218 1472 
z
" transform="scale(0.015625)"/>
       </defs>
       <use xlink:href="#CMR17-31" transform="scale(0.996264)"/>
       <use xlink:href="#CMR17-30" transform="translate(45.690477 0) scale(0.996264)"/>
       <use xlink:href="#CMSY10-0" transform="translate(91.380954 36.153639) scale(0.697382)"/>
       <use xlink:href="#CMR17-33" transform="translate(145.621947 36.153639) scale(0.697382)"/>
      </g>
     </g>
    </g>
    <g id="ytick_2">
     <g id="line2d_9">
      <g>
       <use xlink:href="#m89d088f895" x="44.761092" y="68.711684" style="stroke: #000000; stroke-width: 0.8"/>
      </g>
     </g>
     <g id="text_10">
      <!-- $\mathdefault{10^{-1}}$ -->
      <g transform="translate(17.600519 72.170933) scale(0.1 -0.1)">
       <use xlink:href="#CMR17-31" transform="scale(0.996264)"/>
       <use xlink:href="#CMR17-30" transform="translate(45.690477 0) scale(0.996264)"/>
       <use xlink:href="#CMSY10-0" transform="translate(91.380954 36.153639) scale(0.697382)"/>
       <use xlink:href="#CMR17-31" transform="translate(145.621947 36.153639) scale(0.697382)"/>
      </g>
     </g>
    </g>
    <g id="ytick_3">
     <g id="line2d_10">
      <g>
       <use xlink:href="#m89d088f895" x="44.761092" y="38.449107" style="stroke: #000000; stroke-width: 0.8"/>
      </g>
     </g>
     <g id="text_11">
      <!-- $\mathdefault{10^{1}}$ -->
      <g transform="translate(23.827184 41.908356) scale(0.1 -0.1)">
       <use xlink:href="#CMR17-31" transform="scale(0.996264)"/>
       <use xlink:href="#CMR17-30" transform="translate(45.690477 0) scale(0.996264)"/>
       <use xlink:href="#CMR17-31" transform="translate(91.380954 36.153639) scale(0.697382)"/>
      </g>
     </g>
    </g>
    <g id="ytick_4">
     <g id="line2d_11">
      <g>
       <use xlink:href="#m89d088f895" x="44.761092" y="8.18653" style="stroke: #000000; stroke-width: 0.8"/>
      </g>
     </g>
     <g id="text_12">
      <!-- $\mathdefault{10^{3}}$ -->
      <g transform="translate(23.827184 11.645779) scale(0.1 -0.1)">
       <use xlink:href="#CMR17-31" transform="scale(0.996264)"/>
       <use xlink:href="#CMR17-30" transform="translate(45.690477 0) scale(0.996264)"/>
       <use xlink:href="#CMR17-33" transform="translate(91.380954 36.153639) scale(0.697382)"/>
      </g>
     </g>
    </g>
    <g id="text_13">
     <!-- $\sigma / (\pi a^2)$ -->
     <g transform="translate(11.109859 76.166953) rotate(-90) scale(0.1 -0.1)">
      <defs>
       <path id="CMMI12-1b" d="M 3251 2406 
C 3334 2406 3546 2406 3546 2611 
C 3546 2752 3424 2752 3309 2752 
L 1894 2752 
C 934 2752 243 1685 243 932 
C 243 389 595 -64 1171 -64 
C 1926 -64 2752 746 2752 1704 
C 2752 1953 2694 2195 2541 2406 
L 3251 2406 
z
M 1178 64 
C 851 64 614 312 614 753 
C 614 1136 845 2406 1786 2406 
C 2061 2406 2368 2272 2368 1780 
C 2368 1557 2266 1021 2042 651 
C 1811 274 1466 64 1178 64 
z
" transform="scale(0.015625)"/>
       <path id="CMMI12-3d" d="M 2746 4563 
C 2746 4569 2784 4665 2784 4678 
C 2784 4755 2720 4800 2669 4800 
C 2637 4800 2579 4800 2528 4659 
L 384 -1364 
C 384 -1370 346 -1466 346 -1479 
C 346 -1556 410 -1600 461 -1600 
C 499 -1600 557 -1594 602 -1460 
L 2746 4563 
z
" transform="scale(0.015625)"/>
       <path id="CMMI12-19" d="M 1658 2406 
L 2381 2406 
C 2208 1691 2099 1225 2099 715 
C 2099 625 2099 -64 2362 -64 
C 2496 -64 2611 57 2611 166 
C 2611 198 2611 210 2566 306 
C 2394 746 2394 1295 2394 1340 
C 2394 1378 2394 1832 2528 2406 
L 3245 2406 
C 3328 2406 3539 2406 3539 2611 
C 3539 2752 3418 2752 3302 2752 
L 1197 2752 
C 1050 2752 832 2752 538 2438 
C 371 2253 166 1915 166 1876 
C 166 1838 198 1825 237 1825 
C 282 1825 288 1844 320 1883 
C 653 2406 986 2406 1146 2406 
L 1510 2406 
C 1370 1927 1210 1372 685 255 
C 634 153 634 140 634 102 
C 634 -32 749 -64 806 -64 
C 992 -64 1043 102 1120 370 
C 1222 695 1222 708 1286 964 
L 1658 2406 
z
" transform="scale(0.015625)"/>
       <path id="CMMI12-61" d="M 1926 759 
C 1894 651 1894 638 1805 517 
C 1664 338 1382 64 1082 64 
C 819 64 672 300 672 676 
C 672 1028 870 1743 992 2011 
C 1210 2458 1510 2687 1760 2687 
C 2182 2687 2266 2164 2266 2113 
C 2266 2107 2246 2024 2240 2011 
L 1926 759 
z
M 2336 2394 
C 2266 2560 2093 2816 1760 2816 
C 1037 2816 256 1883 256 938 
C 256 306 627 -64 1062 -64 
C 1414 -64 1715 210 1894 421 
C 1958 44 2259 -64 2451 -64 
C 2643 -64 2797 51 2912 280 
C 3014 496 3104 885 3104 910 
C 3104 942 3078 968 3040 968 
C 2982 968 2976 936 2950 840 
C 2854 465 2733 64 2470 64 
C 2285 64 2272 229 2272 356 
C 2272 503 2291 573 2349 821 
C 2394 980 2426 1120 2477 1305 
C 2714 2260 2771 2489 2771 2528 
C 2771 2617 2701 2688 2605 2688 
C 2400 2688 2349 2464 2336 2388 
L 2336 2394 
z
" transform="scale(0.015625)"/>
      </defs>
      <use xlink:href="#CMMI12-1b" transform="scale(0.996264)"/>
      <use xlink:href="#CMMI12-3d" transform="translate(59.020054 0) scale(0.996264)"/>
      <use xlink:href="#CMR17-28" transform="translate(107.794972 0) scale(0.996264)"/>
      <use xlink:href="#CMMI12-19" transform="translate(143.07574 0) scale(0.996264)"/>
      <use xlink:href="#CMMI12-61" transform="translate(201.986341 0) scale(0.996264)"/>
      <use xlink:href="#CMR17-32" transform="translate(253.194199 36.153639) scale(0.697382)"/>
      <use xlink:href="#CMR17-29" transform="translate(285.675512 0) scale(0.996264)"/>
     </g>
    </g>
   </g>
   <g id="line2d_12">
    <path d="M 53.553759 8.222777 
L 54.04224 8.777573 
L 54.530722 10.495987 
L 55.019203 13.568882 
L 55.507685 18.450137 
L 55.996166 26.319067 
L 56.484648 40.839879 
L 56.973129 38.970731 
L 57.461611 31.496983 
L 57.950092 29.686185 
L 58.438574 31.04352 
L 58.927055 35.133082 
L 59.415537 41.884607 
L 59.904018 45.927743 
L 60.3925 42.143223 
L 60.880981 39.4719 
L 61.369463 39.084004 
L 61.857944 40.302217 
L 62.346426 42.475498 
L 62.834907 45.196174 
L 63.323389 48.728332 
L 63.81187 53.483777 
L 64.300352 54.490247 
L 65.277315 43.722906 
L 65.765796 41.123412 
L 66.254278 40.436266 
L 66.742759 41.405856 
L 67.719722 46.0311 
L 68.208203 46.158319 
L 69.185166 43.001516 
L 69.673648 42.877595 
L 70.162129 44.182512 
L 71.139092 49.462999 
L 71.627574 49.780022 
L 72.604537 45.797866 
L 73.093018 45.102236 
L 73.5815 45.784716 
L 74.069981 47.722607 
L 74.558463 50.168966 
L 75.046944 51.064054 
L 76.512389 46.784406 
L 77.00087 47.106351 
L 77.977833 49.667878 
L 78.466315 50.013157 
L 79.443278 48.640752 
L 79.931759 48.530141 
L 80.420241 49.028967 
L 80.908722 49.752425 
L 81.397204 50.218546 
L 82.862648 50.420046 
L 84.328092 51.276909 
L 84.816574 51.490307 
L 85.793537 52.313008 
L 86.282018 52.724432 
L 86.7705 52.89692 
L 87.747463 52.963238 
L 88.235944 53.326413 
L 89.212907 54.732172 
L 89.701389 55.121707 
L 90.18987 54.943673 
L 90.678352 54.499022 
L 91.166833 54.363908 
L 91.655315 54.976709 
L 92.632278 57.881151 
L 93.120759 57.828732 
L 94.097722 54.881133 
L 94.586204 54.976825 
L 95.074685 56.970829 
L 95.563167 60.556779 
L 96.051648 61.920088 
L 97.028611 55.545775 
L 97.517093 54.884795 
L 98.005574 56.850144 
L 98.982537 66.483439 
L 99.9595 57.29339 
L 100.447981 56.000671 
L 100.936463 57.564757 
L 101.424944 62.090095 
L 101.913426 67.661817 
L 102.401907 65.202287 
L 102.890389 61.048652 
L 103.37887 59.611152 
L 103.867352 60.379517 
L 104.355833 62.242819 
L 104.844315 63.645393 
L 105.332796 64.406472 
L 106.309759 67.86055 
L 106.798241 65.712964 
L 107.286722 61.414104 
L 107.775204 59.003199 
L 108.263685 59.418216 
L 108.752167 63.715121 
L 109.240648 77.726153 
L 109.72913 73.716892 
L 110.217611 61.874397 
L 110.706093 57.883607 
L 111.194574 57.732364 
L 111.683056 61.245051 
L 112.171537 71.23216 
L 112.660019 86.873806 
L 113.1485 67.116464 
L 113.636982 62.440388 
L 114.125463 62.404779 
L 114.613944 65.681977 
L 115.102426 70.230703 
L 115.590907 69.938842 
L 116.079389 68.426674 
L 116.56787 71.350696 
L 117.056352 86.283534 
L 118.033315 63.634066 
L 118.521796 59.421851 
L 119.010278 58.769624 
L 119.498759 61.318337 
L 119.987241 67.311456 
L 120.475722 69.729884 
L 120.964204 63.583883 
L 121.452685 60.188089 
L 121.941167 60.201419 
L 122.429648 63.722889 
L 122.91813 72.836666 
L 123.406611 92.183199 
L 123.895093 74.885738 
L 124.383574 72.363046 
L 125.360537 85.978354 
L 125.849019 68.089502 
L 126.3375 61.529088 
L 126.825982 59.087502 
L 127.314463 59.44152 
L 128.291426 64.60727 
L 128.779908 63.614639 
L 129.268389 61.413502 
L 129.756871 61.218479 
L 130.245352 64.162276 
L 130.733833 72.470671 
L 131.222315 109.700479 
L 131.710796 74.951559 
L 132.199278 70.965321 
L 133.176241 81.929844 
L 133.664722 63.65677 
L 134.153204 55.511332 
L 134.641685 51.09286 
L 135.130167 48.953205 
L 135.618648 48.594227 
L 136.10713 49.77509 
L 136.595611 51.909052 
L 137.084093 52.536943 
L 137.572574 49.201798 
L 138.549537 40.341966 
L 139.5265 34.372297 
L 140.014982 32.368915 
L 140.503463 30.951129 
L 140.991945 30.10333 
L 141.480426 29.820997 
L 141.968908 30.10333 
L 142.457389 30.951129 
L 142.945871 32.368915 
L 143.434352 34.372297 
L 143.922834 37.00234 
L 144.411315 40.341966 
L 145.876759 52.536943 
L 146.365241 51.909052 
L 146.853722 49.77509 
L 147.342204 48.594227 
L 147.830685 48.953205 
L 148.319167 51.09286 
L 148.807648 55.511332 
L 149.29613 63.65677 
L 149.784611 81.929844 
L 150.761574 70.965321 
L 151.250056 74.951559 
L 151.738537 109.700479 
L 152.227019 72.470671 
L 152.7155 64.162276 
L 153.203982 61.218479 
L 153.692463 61.413502 
L 154.180945 63.614639 
L 154.669426 64.60727 
L 155.646389 59.44152 
L 156.134871 59.087502 
L 156.623352 61.529088 
L 157.111834 68.089502 
L 157.600315 85.978354 
L 158.577278 72.363046 
L 159.06576 74.885738 
L 159.554241 92.183199 
L 160.042723 72.836666 
L 160.531204 63.722889 
L 161.019685 60.201419 
L 161.508167 60.188089 
L 161.996648 63.583883 
L 162.48513 69.729884 
L 162.973611 67.311456 
L 163.462093 61.318337 
L 163.950574 58.769624 
L 164.439056 59.421851 
L 164.927537 63.634066 
L 165.9045 86.283534 
L 166.392982 71.350696 
L 166.881463 68.426674 
L 167.369945 69.938842 
L 167.858426 70.230703 
L 168.346908 65.681977 
L 168.835389 62.404779 
L 169.323871 62.440388 
L 169.812352 67.116464 
L 170.300834 86.873806 
L 170.789315 71.23216 
L 171.277797 61.245051 
L 171.766278 57.732364 
L 172.25476 57.883607 
L 172.743241 61.874397 
L 173.231723 73.716892 
L 173.720204 77.726153 
L 174.208686 63.715121 
L 174.697167 59.418216 
L 175.185649 59.003199 
L 175.67413 61.414104 
L 176.162612 65.712964 
L 176.651093 67.86055 
L 177.628056 64.406472 
L 178.116537 63.645393 
L 178.605019 62.242819 
L 179.0935 60.379517 
L 179.581982 59.611152 
L 180.070463 61.048652 
L 180.558945 65.202287 
L 181.047426 67.661817 
L 182.024389 57.564757 
L 182.512871 56.000671 
L 183.001352 57.29339 
L 183.978315 66.483439 
L 184.955278 56.850144 
L 185.44376 54.884795 
L 185.932241 55.545775 
L 186.909204 61.920088 
L 187.397686 60.556779 
L 187.886167 56.970829 
L 188.374649 54.976825 
L 188.86313 54.881133 
L 189.840093 57.828732 
L 190.328575 57.881151 
L 191.305538 54.976709 
L 191.794019 54.363908 
L 192.2825 54.499022 
L 192.770982 54.943673 
L 193.259463 55.121707 
L 193.747945 54.732172 
L 194.724908 53.326413 
L 195.213389 52.963238 
L 196.678834 52.724432 
L 198.144278 51.490307 
L 199.609723 50.738408 
L 200.098204 50.420046 
L 200.586686 50.27381 
L 201.563649 50.218546 
L 202.05213 49.752425 
L 202.540612 49.028967 
L 203.029093 48.530141 
L 203.517575 48.640752 
L 204.494538 50.013157 
L 204.983019 49.667878 
L 205.959982 47.106351 
L 206.448464 46.784406 
L 206.936945 47.666492 
L 207.913908 51.064054 
L 208.402389 50.168966 
L 209.379352 45.784716 
L 209.867834 45.102236 
L 210.356315 45.797866 
L 211.333278 49.780022 
L 211.82176 49.462999 
L 212.798723 44.182512 
L 213.287204 42.877595 
L 213.775686 43.001516 
L 214.264167 44.402277 
L 214.752649 46.158319 
L 215.24113 46.0311 
L 216.218093 41.405856 
L 216.706575 40.436266 
L 217.195056 41.123412 
L 217.683538 43.722906 
L 218.660501 54.490247 
L 219.148982 53.483777 
L 219.637464 48.728332 
L 220.125945 45.196174 
L 221.102908 40.302217 
L 221.59139 39.084004 
L 222.079871 39.4719 
L 222.568353 42.143223 
L 223.056834 45.927743 
L 223.545315 41.884607 
L 224.033797 35.133082 
L 224.522278 31.04352 
L 225.01076 29.686185 
L 225.499241 31.496983 
L 225.987723 38.970731 
L 226.476204 40.839879 
L 226.964686 26.319067 
L 227.453167 18.450137 
L 227.941649 13.568882 
L 228.43013 10.495987 
L 228.918612 8.777573 
L 229.407093 8.222777 
L 229.407093 8.222777 
" clip-path="url(#p90ec99f3f9)" style="fill: none; stroke: #000000; stroke-width: 0.75; stroke-linecap: square"/>
   </g>
   <g id="line2d_13">
    <path d="M 53.553759 8.081204 
L 54.04224 8.647261 
L 54.530722 10.405327 
L 55.019203 13.56613 
L 55.507685 18.650585 
L 55.996166 27.168488 
L 56.484648 48.417792 
L 57.461611 30.68754 
L 57.950092 28.791775 
L 58.438574 30.017957 
L 58.927055 33.867901 
L 59.415537 40.714699 
L 59.904018 49.421045 
L 60.3925 48.064366 
L 60.880981 44.376267 
L 61.369463 43.367572 
L 62.834907 44.565126 
L 63.323389 45.85267 
L 64.300352 51.670915 
L 64.788833 48.854333 
L 65.277315 44.154771 
L 65.765796 41.249064 
L 66.254278 40.285593 
L 66.742759 41.052281 
L 67.231241 43.310303 
L 67.719722 46.198057 
L 68.208203 47.286357 
L 69.185166 44.053831 
L 69.673648 43.582546 
L 70.162129 44.5592 
L 71.139092 49.506834 
L 71.627574 50.244882 
L 72.604537 46.613177 
L 73.093018 45.865661 
L 73.5815 46.495719 
L 74.558463 50.654594 
L 75.046944 51.118014 
L 76.023907 47.558026 
L 76.512389 46.928676 
L 77.00087 47.54336 
L 77.977833 50.196151 
L 78.466315 50.078738 
L 78.954796 49.043295 
L 79.443278 48.285739 
L 79.931759 48.344517 
L 80.908722 49.849352 
L 81.397204 50.110455 
L 82.374167 49.771773 
L 82.862648 49.929068 
L 83.839611 50.68397 
L 85.305055 51.259963 
L 86.282018 52.409303 
L 86.7705 52.598446 
L 87.747463 52.275032 
L 88.235944 52.510257 
L 88.724426 53.222485 
L 89.212907 54.144194 
L 89.701389 54.635582 
L 90.18987 54.261013 
L 90.678352 53.502345 
L 91.166833 53.21788 
L 91.655315 53.925632 
L 92.632278 57.30142 
L 93.120759 57.097932 
L 93.609241 55.322605 
L 94.097722 54.026961 
L 94.586204 54.271802 
L 95.074685 56.405297 
L 95.563167 59.8859 
L 96.051648 60.691175 
L 97.028611 54.55184 
L 97.517093 54.026252 
L 98.005574 55.940079 
L 98.494056 60.2944 
L 98.982537 63.474593 
L 99.9595 56.134945 
L 100.447981 55.062744 
L 100.936463 56.476259 
L 101.913426 64.029218 
L 102.401907 63.057519 
L 102.890389 60.272151 
L 103.37887 59.028598 
L 103.867352 59.210683 
L 104.844315 60.819197 
L 105.332796 62.2837 
L 106.309759 67.568319 
L 106.798241 63.970391 
L 107.286722 59.403244 
L 107.775204 57.308835 
L 108.263685 58.148369 
L 108.752167 62.974009 
L 109.240648 77.719396 
L 109.72913 71.452081 
L 110.217611 61.078901 
L 110.706093 57.697424 
L 111.194574 58.059496 
L 111.683056 62.18171 
L 112.660019 83.241425 
L 113.1485 67.18272 
L 113.636982 63.443443 
L 114.125463 64.129616 
L 114.613944 67.201511 
L 115.102426 67.984415 
L 115.590907 65.688803 
L 116.079389 65.473078 
L 116.56787 70.150347 
L 117.056352 92.290574 
L 117.544833 71.322862 
L 118.033315 61.945413 
L 118.521796 58.453537 
L 119.010278 58.443927 
L 119.498759 61.800807 
L 119.987241 68.670378 
L 120.475722 68.673936 
L 120.964204 62.541701 
L 121.452685 60.11428 
L 121.941167 61.335274 
L 122.429648 66.89671 
L 122.91813 82.362063 
L 123.406611 78.345256 
L 123.895093 70.147557 
L 124.383574 70.381457 
L 124.872056 76.759075 
L 125.360537 73.061369 
L 125.849019 63.740075 
L 126.3375 58.97028 
L 126.825982 57.201641 
L 127.314463 57.740913 
L 128.291426 62.553309 
L 128.779908 62.416467 
L 129.268389 61.331278 
L 129.756871 62.263745 
L 130.245352 66.909224 
L 130.733833 76.834116 
L 131.222315 72.379575 
L 131.710796 65.880704 
L 132.199278 65.328524 
L 133.176241 79.878281 
L 133.664722 60.613891 
L 134.153204 52.536236 
L 134.641685 48.122252 
L 135.130167 45.878602 
L 135.618648 45.274313 
L 136.10713 46.04062 
L 137.084093 49.599708 
L 137.572574 49.30971 
L 138.549537 43.387853 
L 139.5265 38.057499 
L 140.014982 36.152474 
L 140.503463 34.761388 
L 140.991945 33.909067 
L 141.480426 33.619486 
L 141.968908 33.902939 
L 142.457389 34.752089 
L 142.945871 36.145472 
L 143.434352 38.059193 
L 144.411315 43.411089 
L 145.388278 49.298668 
L 145.876759 49.570872 
L 146.853722 46.027461 
L 147.342204 45.265596 
L 147.830685 45.874914 
L 148.319167 48.126157 
L 148.807648 52.547691 
L 149.29613 60.621063 
L 149.784611 79.674572 
L 150.761574 65.298159 
L 151.250056 65.787444 
L 151.738537 72.22099 
L 152.227019 77.083747 
L 152.7155 66.948137 
L 153.203982 62.192068 
L 153.692463 61.207994 
L 154.180945 62.240473 
L 154.669426 62.309593 
L 155.646389 57.676138 
L 156.134871 57.274079 
L 156.623352 59.166484 
L 157.111834 64.054442 
L 157.600315 73.499698 
L 158.088797 76.625292 
L 158.577278 70.288242 
L 159.06576 70.170193 
L 159.554241 78.571211 
L 160.042723 80.736603 
L 160.531204 66.300376 
L 161.019685 60.914262 
L 161.508167 59.73132 
L 161.996648 62.068198 
L 162.48513 67.765934 
L 162.973611 67.766714 
L 163.462093 61.276356 
L 163.950574 57.938545 
L 164.439056 57.870875 
L 164.927537 61.209493 
L 165.416019 70.11201 
L 165.9045 90.545274 
L 166.392982 70.073462 
L 166.881463 65.111615 
L 167.369945 64.969261 
L 167.858426 66.740675 
L 168.346908 66.018744 
L 168.835389 63.298774 
L 169.323871 62.64846 
L 169.812352 66.121703 
L 170.300834 80.245144 
L 170.789315 74.862323 
L 171.277797 62.49097 
L 171.766278 58.140043 
L 172.25476 57.64674 
L 172.743241 60.863432 
L 173.720204 80.719522 
L 174.208686 63.506155 
L 174.697167 58.252053 
L 175.185649 57.124646 
L 175.67413 58.928573 
L 176.651093 67.426831 
L 177.139574 65.845234 
L 177.628056 62.79565 
L 178.116537 60.971781 
L 178.605019 59.797329 
L 179.0935 58.926618 
L 179.581982 58.858216 
L 180.070463 60.331549 
L 180.558945 63.418264 
L 181.047426 64.422002 
L 182.024389 56.412759 
L 182.512871 54.936563 
L 183.001352 55.951127 
L 183.978315 63.225877 
L 184.466797 60.173527 
L 184.955278 55.815634 
L 185.44376 53.860595 
L 185.932241 54.328347 
L 186.420723 56.985936 
L 186.909204 60.356505 
L 187.397686 59.711195 
L 187.886167 56.308384 
L 188.374649 54.176535 
L 188.86313 53.928286 
L 189.351612 55.236541 
L 189.840093 57.049796 
L 190.328575 57.308193 
L 191.305538 53.989024 
L 191.794019 53.270626 
L 192.2825 53.534124 
L 192.770982 54.311843 
L 193.259463 54.764628 
L 193.747945 54.294596 
L 194.724908 52.438593 
L 195.213389 52.157884 
L 196.190352 52.60883 
L 196.678834 52.479627 
L 198.144278 50.975706 
L 199.121241 50.800522 
L 200.586686 49.748539 
L 201.563649 50.007186 
L 202.05213 49.795194 
L 203.029093 48.401365 
L 203.517575 48.297133 
L 204.006056 48.937969 
L 204.494538 49.876006 
L 204.983019 50.029971 
L 205.959982 47.561622 
L 206.448464 47.0051 
L 206.936945 47.681565 
L 207.913908 51.218107 
L 208.402389 50.728763 
L 209.379352 46.493738 
L 209.867834 45.826619 
L 210.356315 46.571421 
L 211.333278 50.283358 
L 211.82176 49.568529 
L 212.798723 44.571516 
L 213.287204 43.559861 
L 213.775686 43.999464 
L 214.752649 47.222235 
L 215.24113 46.189939 
L 216.218093 41.040218 
L 216.706575 40.252573 
L 217.195056 41.207424 
L 217.683538 44.119137 
L 218.172019 48.831023 
L 218.660501 51.662271 
L 219.637464 45.875765 
L 220.125945 44.560619 
L 221.59139 43.352212 
L 222.079871 44.386597 
L 222.568353 48.114745 
L 223.056834 49.533958 
L 224.033797 33.862439 
L 224.522278 30.001462 
L 225.01076 28.774266 
L 225.499241 30.67497 
L 226.476204 48.379379 
L 226.964686 27.159265 
L 227.453167 18.64779 
L 227.941649 13.566309 
L 228.43013 10.406503 
L 228.918612 8.648165 
L 229.407093 8.081204 
L 229.407093 8.081204 
" clip-path="url(#p90ec99f3f9)" style="fill: none; stroke-dasharray: 2.775,1.2; stroke-dashoffset: 0; stroke: #ff0000; stroke-width: 0.75"/>
   </g>
   <g id="patch_3">
    <path d="M 44.761092 114.781443 
L 44.761092 3.00024 
" style="fill: none; stroke: #000000; stroke-width: 0.8; stroke-linejoin: miter; stroke-linecap: square"/>
   </g>
   <g id="patch_4">
    <path d="M 238.19976 114.781443 
L 238.19976 3.00024 
" style="fill: none; stroke: #000000; stroke-width: 0.8; stroke-linejoin: miter; stroke-linecap: square"/>
   </g>
   <g id="patch_5">
    <path d="M 44.761092 114.781443 
L 238.19976 114.781443 
" style="fill: none; stroke: #000000; stroke-width: 0.8; stroke-linejoin: miter; stroke-linecap: square"/>
   </g>
   <g id="patch_6">
    <path d="M 44.761092 3.00024 
L 238.19976 3.00024 
" style="fill: none; stroke: #000000; stroke-width: 0.8; stroke-linejoin: miter; stroke-linecap: square"/>
   </g>
  </g>
 </g>
 <defs>
  <clipPath id="p90ec99f3f9">
   <rect x="44.761092" y="3.00024" width="193.438668" height="111.781203"/>
  </clipPath>
 </defs>
</svg>
