<?xml version="1.0" encoding="utf-8" standalone="no"?>
<!DOCTYPE svg PUBLIC "-//W3C//DTD SVG 1.1//EN"
  "http://www.w3.org/Graphics/SVG/1.1/DTD/svg11.dtd">
<svg xmlns:xlink="http://www.w3.org/1999/xlink" width="160.56pt" height="160.56pt" viewBox="0 0 160.56 160.56" xmlns="http://www.w3.org/2000/svg" version="1.1">
 <metadata>
  <rdf:RDF xmlns:dc="http://purl.org/dc/elements/1.1/" xmlns:cc="http://creativecommons.org/ns#" xmlns:rdf="http://www.w3.org/1999/02/22-rdf-syntax-ns#">
   <cc:Work>
    <dc:type rdf:resource="http://purl.org/dc/dcmitype/StillImage"/>
    <dc:date>2025-04-21T22:41:55.261608</dc:date>
    <dc:format>image/svg+xml</dc:format>
    <dc:creator>
     <cc:Agent>
      <dc:title>Matplotlib v3.8.0, https://matplotlib.org/</dc:title>
     </cc:Agent>
    </dc:creator>
   </cc:Work>
  </rdf:RDF>
 </metadata>
 <defs>
  <style type="text/css">*{stroke-linejoin: round; stroke-linecap: butt}</style>
 </defs>
 <g id="figure_1">
  <g id="patch_1">
   <path d="M 0 160.56 
L 160.56 160.56 
L 160.56 0 
L 0 0 
z
" style="fill: #ffffff"/>
  </g>
  <g id="axes_1">
   <g id="patch_2">
    <path d="M 157.55976 80.28 
C 157.55976 70.131715 155.560769 60.082109 151.677189 50.706316 
C 147.793608 41.330523 142.100964 32.810879 134.925042 25.634958 
C 127.749121 18.459036 119.229477 12.766392 109.853684 8.882811 
C 100.477891 4.999231 90.428285 3.00024 80.28 3.00024 
C 70.131715 3.00024 60.082109 4.999231 50.706316 8.882811 
C 41.330523 12.766392 32.810879 18.459036 25.634958 25.634958 
C 18.459036 32.810879 12.766392 41.330523 8.882811 50.706316 
C 4.999231 60.082109 3.00024 70.131715 3.00024 80.28 
C 3.00024 90.428285 4.999231 100.477891 8.882811 109.853684 
C 12.766392 119.229477 18.459036 127.749121 25.634958 134.925042 
C 32.810879 142.100964 41.330523 147.793608 50.706316 151.677189 
C 60.082109 155.560769 70.131715 157.55976 80.28 157.55976 
C 90.428285 157.55976 100.477891 155.560769 109.853684 151.677189 
C 119.229477 147.793608 127.749121 142.100964 134.925042 134.925042 
C 142.100964 127.749121 147.793608 119.229477 151.677189 109.853684 
C 155.560769 100.477891 157.55976 90.428285 157.55976 80.28 
M 80.28 80.28 
C 80.28 80.28 80.28 80.28 80.28 80.28 
C 80.28 80.28 80.28 80.28 80.28 80.28 
C 80.28 80.28 80.28 80.28 80.28 80.28 
C 80.28 80.28 80.28 80.28 80.28 80.28 
C 80.28 80.28 80.28 80.28 80.28 80.28 
C 80.28 80.28 80.28 80.28 80.28 80.28 
C 80.28 80.28 80.28 80.28 80.28 80.28 
C 80.28 80.28 80.28 80.28 80.28 80.28 
C 80.28 80.28 80.28 80.28 80.28 80.28 
C 80.28 80.28 80.28 80.28 80.28 80.28 
C 80.28 80.28 80.28 80.28 80.28 80.28 
C 80.28 80.28 80.28 80.28 80.28 80.28 
C 80.28 80.28 80.28 80.28 80.28 80.28 
C 80.28 80.28 80.28 80.28 80.28 80.28 
C 80.28 80.28 80.28 80.28 80.28 80.28 
C 80.28 80.28 80.28 80.28 80.28 80.28 
z
" style="fill: #ffffff"/>
   </g>
   <g id="matplotlib.axis_1">
    <g id="xtick_1">
     <g id="line2d_1">
      <path d="M 80.28 80.28 
L 134.925042 25.634958 
" clip-path="url(#p9bf6998429)" style="fill: none; stroke: #b0b0b0; stroke-width: 0.8; stroke-linecap: square"/>
     </g>
     <g id="text_1">
      <!-- $45^{\circ}$ -->
      <g transform="translate(137.802241 18.226123) scale(0.1 -0.1)">
       <defs>
        <path id="CMR17-34" d="M 2150 4122 
C 2150 4256 2144 4256 2029 4256 
L 128 1254 
L 128 1088 
L 1779 1088 
L 1779 457 
C 1779 224 1766 160 1318 160 
L 1197 160 
L 1197 0 
C 1402 0 1747 0 1965 0 
C 2182 0 2528 0 2733 0 
L 2733 160 
L 2611 160 
C 2163 160 2150 224 2150 457 
L 2150 1088 
L 2803 1088 
L 2803 1254 
L 2150 1254 
L 2150 4122 
z
M 1798 3703 
L 1798 1254 
L 256 1254 
L 1798 3703 
z
" transform="scale(0.015625)"/>
        <path id="CMR17-35" d="M 730 3692 
C 794 3666 1056 3584 1325 3584 
C 1920 3584 2246 3911 2432 4100 
C 2432 4157 2432 4192 2394 4192 
C 2387 4192 2374 4192 2323 4163 
C 2099 4058 1837 3973 1517 3973 
C 1325 3973 1037 3999 723 4139 
C 653 4171 640 4171 634 4171 
C 602 4171 595 4164 595 4037 
L 595 2203 
C 595 2089 595 2057 659 2057 
C 691 2057 704 2070 736 2114 
C 941 2401 1222 2522 1542 2522 
C 1766 2522 2246 2382 2246 1289 
C 2246 1085 2246 715 2054 421 
C 1894 159 1645 25 1370 25 
C 947 25 518 320 403 814 
C 429 807 480 795 506 795 
C 589 795 749 840 749 1038 
C 749 1210 627 1280 506 1280 
C 358 1280 262 1190 262 1011 
C 262 454 704 -128 1382 -128 
C 2042 -128 2669 440 2669 1264 
C 2669 2030 2170 2624 1549 2624 
C 1222 2624 947 2503 730 2274 
L 730 3692 
z
" transform="scale(0.015625)"/>
        <path id="CMSY10-e" d="M 2842 1600 
C 2842 2277 2272 2828 1600 2828 
C 909 2828 352 2264 352 1600 
C 352 930 909 372 1600 372 
C 2272 372 2842 923 2842 1600 
z
M 1600 628 
C 1043 628 608 1070 608 1600 
C 608 2130 1050 2572 1600 2572 
C 2131 2572 2586 2142 2586 1600 
C 2586 1058 2131 628 1600 628 
z
" transform="scale(0.015625)"/>
       </defs>
       <use xlink:href="#CMR17-34" transform="scale(0.996264)"/>
       <use xlink:href="#CMR17-35" transform="translate(45.690477 0) scale(0.996264)"/>
       <use xlink:href="#CMSY10-e" transform="translate(91.380954 36.153639) scale(0.697382)"/>
      </g>
     </g>
    </g>
    <g id="xtick_2">
     <g id="line2d_2">
      <path d="M 80.28 80.28 
L 25.634958 25.634958 
" clip-path="url(#p9bf6998429)" style="fill: none; stroke: #b0b0b0; stroke-width: 0.8; stroke-linecap: square"/>
     </g>
     <g id="text_2">
      <!-- $135^{\circ}$ -->
      <g transform="translate(6.222499 18.226123) scale(0.1 -0.1)">
       <defs>
        <path id="CMR17-31" d="M 1702 4058 
C 1702 4192 1696 4192 1606 4192 
C 1357 3916 979 3827 621 3827 
C 602 3827 570 3827 563 3808 
C 557 3795 557 3782 557 3648 
C 755 3648 1088 3686 1344 3839 
L 1344 461 
C 1344 236 1331 160 781 160 
L 589 160 
L 589 0 
C 896 0 1216 0 1523 0 
C 1830 0 2150 0 2458 0 
L 2458 160 
L 2266 160 
C 1715 160 1702 230 1702 458 
L 1702 4058 
z
" transform="scale(0.015625)"/>
        <path id="CMR17-33" d="M 1414 2157 
C 1984 2157 2234 1662 2234 1090 
C 2234 320 1824 25 1453 25 
C 1114 25 563 194 390 693 
C 422 680 454 680 486 680 
C 640 680 755 782 755 948 
C 755 1133 614 1216 486 1216 
C 378 1216 211 1165 211 926 
C 211 335 787 -128 1466 -128 
C 2176 -128 2720 430 2720 1085 
C 2720 1707 2208 2157 1600 2227 
C 2086 2328 2554 2756 2554 3329 
C 2554 3820 2048 4179 1472 4179 
C 890 4179 378 3829 378 3329 
C 378 3110 544 3072 627 3072 
C 762 3072 877 3155 877 3321 
C 877 3486 762 3569 627 3569 
C 602 3569 570 3569 544 3557 
C 730 3959 1235 4032 1459 4032 
C 1683 4032 2106 3925 2106 3320 
C 2106 3143 2080 2828 1862 2550 
C 1670 2304 1453 2304 1242 2284 
C 1210 2284 1062 2269 1037 2269 
C 992 2263 966 2257 966 2208 
C 966 2163 973 2157 1101 2157 
L 1414 2157 
z
" transform="scale(0.015625)"/>
       </defs>
       <use xlink:href="#CMR17-31" transform="scale(0.996264)"/>
       <use xlink:href="#CMR17-33" transform="translate(45.690477 0) scale(0.996264)"/>
       <use xlink:href="#CMR17-35" transform="translate(91.380954 0) scale(0.996264)"/>
       <use xlink:href="#CMSY10-e" transform="translate(137.071431 36.153639) scale(0.697382)"/>
      </g>
     </g>
    </g>
    <g id="xtick_3">
     <g id="line2d_3">
      <path d="M 80.28 80.28 
L 25.634958 134.925042 
" clip-path="url(#p9bf6998429)" style="fill: none; stroke: #b0b0b0; stroke-width: 0.8; stroke-linecap: square"/>
     </g>
     <g id="text_3">
      <!-- $225^{\circ}$ -->
      <g transform="translate(6.222499 147.315197) scale(0.1 -0.1)">
       <defs>
        <path id="CMR17-32" d="M 2669 989 
L 2554 989 
C 2490 536 2438 459 2413 420 
C 2381 369 1920 369 1830 369 
L 602 369 
C 832 619 1280 1072 1824 1597 
C 2214 1967 2669 2402 2669 3035 
C 2669 3790 2067 4224 1395 4224 
C 691 4224 262 3604 262 3030 
C 262 2780 448 2748 525 2748 
C 589 2748 781 2787 781 3010 
C 781 3207 614 3264 525 3264 
C 486 3264 448 3258 422 3245 
C 544 3790 915 4058 1306 4058 
C 1862 4058 2227 3617 2227 3035 
C 2227 2479 1901 2000 1536 1584 
L 262 146 
L 262 0 
L 2515 0 
L 2669 989 
z
" transform="scale(0.015625)"/>
       </defs>
       <use xlink:href="#CMR17-32" transform="scale(0.996264)"/>
       <use xlink:href="#CMR17-32" transform="translate(45.690477 0) scale(0.996264)"/>
       <use xlink:href="#CMR17-35" transform="translate(91.380954 0) scale(0.996264)"/>
       <use xlink:href="#CMSY10-e" transform="translate(137.071431 36.153639) scale(0.697382)"/>
      </g>
     </g>
    </g>
    <g id="xtick_4">
     <g id="line2d_4">
      <path d="M 80.28 80.28 
L 134.925042 134.925042 
" clip-path="url(#p9bf6998429)" style="fill: none; stroke: #b0b0b0; stroke-width: 0.8; stroke-linecap: square"/>
     </g>
     <g id="text_4">
      <!-- $315^{\circ}$ -->
      <g transform="translate(135.311574 147.315197) scale(0.1 -0.1)">
       <use xlink:href="#CMR17-33" transform="scale(0.996264)"/>
       <use xlink:href="#CMR17-31" transform="translate(45.690477 0) scale(0.996264)"/>
       <use xlink:href="#CMR17-35" transform="translate(91.380954 0) scale(0.996264)"/>
       <use xlink:href="#CMSY10-e" transform="translate(137.071431 36.153639) scale(0.697382)"/>
      </g>
     </g>
    </g>
   </g>
   <g id="matplotlib.axis_2">
    <g id="ytick_1">
     <g id="line2d_5">
      <path d="M 90.225371 80.28 
C 90.225371 78.973986 89.968115 77.680671 89.468325 76.474071 
C 88.968535 75.267472 88.235931 74.171052 87.312439 73.247561 
C 86.388948 72.324069 85.292528 71.591465 84.085929 71.091675 
C 82.879329 70.591885 81.586014 70.334629 80.28 70.334629 
C 78.973986 70.334629 77.680671 70.591885 76.474071 71.091675 
C 75.267472 71.591465 74.171052 72.324069 73.247561 73.247561 
C 72.324069 74.171052 71.591465 75.267472 71.091675 76.474071 
C 70.591885 77.680671 70.334629 78.973986 70.334629 80.28 
C 70.334629 81.586014 70.591885 82.879329 71.091675 84.085929 
C 71.591465 85.292528 72.324069 86.388948 73.247561 87.312439 
C 74.171052 88.235931 75.267472 88.968535 76.474071 89.468325 
C 77.680671 89.968115 78.973986 90.225371 80.28 90.225371 
C 81.586014 90.225371 82.879329 89.968115 84.085929 89.468325 
C 85.292528 88.968535 86.388948 88.235931 87.312439 87.312439 
C 88.235931 86.388948 88.968535 85.292528 89.468325 84.085929 
C 89.968115 82.879329 90.225371 81.586014 90.225371 80.28 
" clip-path="url(#p9bf6998429)" style="fill: none; stroke: #b0b0b0; stroke-width: 0.8; stroke-linecap: square"/>
     </g>
     <g id="text_5">
      <!-- $\mathdefault{10^{0}}$ -->
      <g transform="translate(73.247561 71.310382) scale(0.1 -0.1)">
       <defs>
        <path id="CMR17-30" d="M 2688 2025 
C 2688 2416 2682 3080 2413 3591 
C 2176 4039 1798 4198 1466 4198 
C 1158 4198 768 4058 525 3597 
C 269 3118 243 2524 243 2025 
C 243 1661 250 1106 448 619 
C 723 -39 1216 -128 1466 -128 
C 1760 -128 2208 -7 2470 600 
C 2662 1042 2688 1559 2688 2025 
z
M 1466 -26 
C 1056 -26 813 325 723 812 
C 653 1188 653 1738 653 2096 
C 653 2588 653 2997 736 3387 
C 858 3929 1216 4096 1466 4096 
C 1728 4096 2067 3923 2189 3400 
C 2272 3036 2278 2607 2278 2096 
C 2278 1680 2278 1169 2202 792 
C 2067 95 1690 -26 1466 -26 
z
" transform="scale(0.015625)"/>
       </defs>
       <use xlink:href="#CMR17-31" transform="scale(0.996264)"/>
       <use xlink:href="#CMR17-30" transform="translate(45.690477 0) scale(0.996264)"/>
       <use xlink:href="#CMR17-30" transform="translate(91.380954 36.153639) scale(0.697382)"/>
      </g>
     </g>
    </g>
    <g id="ytick_2">
     <g id="line2d_6">
      <path d="M 112.68347 80.28 
C 112.68347 76.024815 111.845292 71.811007 110.216903 67.879729 
C 108.588514 63.948451 106.201584 60.376156 103.192714 57.367286 
C 100.183844 54.358416 96.611549 51.971486 92.680271 50.343097 
C 88.748993 48.714708 84.535185 47.87653 80.28 47.87653 
C 76.024815 47.87653 71.811007 48.714708 67.879729 50.343097 
C 63.948451 51.971486 60.376156 54.358416 57.367286 57.367286 
C 54.358416 60.376156 51.971486 63.948451 50.343097 67.879729 
C 48.714708 71.811007 47.87653 76.024815 47.87653 80.28 
C 47.87653 84.535185 48.714708 88.748993 50.343097 92.680271 
C 51.971486 96.611549 54.358416 100.183844 57.367286 103.192714 
C 60.376156 106.201584 63.948451 108.588514 67.879729 110.216903 
C 71.811007 111.845292 76.024815 112.68347 80.28 112.68347 
C 84.535185 112.68347 88.748993 111.845292 92.680271 110.216903 
C 96.611549 108.588514 100.183844 106.201584 103.192714 103.192714 
C 106.201584 100.183844 108.588514 96.611549 110.216903 92.680271 
C 111.845292 88.748993 112.68347 84.535185 112.68347 80.28 
" clip-path="url(#p9bf6998429)" style="fill: none; stroke: #b0b0b0; stroke-width: 0.8; stroke-linecap: square"/>
     </g>
     <g id="text_6">
      <!-- $\mathdefault{10^{1}}$ -->
      <g transform="translate(57.367286 55.430108) scale(0.1 -0.1)">
       <use xlink:href="#CMR17-31" transform="scale(0.996264)"/>
       <use xlink:href="#CMR17-30" transform="translate(45.690477 0) scale(0.996264)"/>
       <use xlink:href="#CMR17-31" transform="translate(91.380954 36.153639) scale(0.697382)"/>
      </g>
     </g>
    </g>
    <g id="ytick_3">
     <g id="line2d_7">
      <path d="M 130.585138 80.28 
C 130.585138 73.67399 129.283898 67.132215 126.755887 61.029057 
C 124.227877 54.925899 120.522259 49.38005 115.851104 44.708896 
C 111.17995 40.037741 105.634101 36.332123 99.530943 33.804113 
C 93.427785 31.276102 86.88601 29.974862 80.28 29.974862 
C 73.67399 29.974862 67.132215 31.276102 61.029057 33.804113 
C 54.925899 36.332123 49.38005 40.037741 44.708896 44.708896 
C 40.037741 49.38005 36.332123 54.925899 33.804113 61.029057 
C 31.276102 67.132215 29.974862 73.67399 29.974862 80.28 
C 29.974862 86.88601 31.276102 93.427785 33.804113 99.530943 
C 36.332123 105.634101 40.037741 111.17995 44.708896 115.851104 
C 49.38005 120.522259 54.925899 124.227877 61.029057 126.755887 
C 67.132215 129.283898 73.67399 130.585138 80.28 130.585138 
C 86.88601 130.585138 93.427785 129.283898 99.530943 126.755887 
C 105.634101 124.227877 111.17995 120.522259 115.851104 115.851104 
C 120.522259 111.17995 124.227877 105.634101 126.755887 99.530943 
C 129.283898 93.427785 130.585138 86.88601 130.585138 80.28 
" clip-path="url(#p9bf6998429)" style="fill: none; stroke: #b0b0b0; stroke-width: 0.8; stroke-linecap: square"/>
     </g>
     <g id="text_7">
      <!-- $\mathdefault{10^{2}}$ -->
      <g transform="translate(44.708896 42.771717) scale(0.1 -0.1)">
       <use xlink:href="#CMR17-31" transform="scale(0.996264)"/>
       <use xlink:href="#CMR17-30" transform="translate(45.690477 0) scale(0.996264)"/>
       <use xlink:href="#CMR17-32" transform="translate(91.380954 36.153639) scale(0.697382)"/>
      </g>
     </g>
    </g>
    <g id="ytick_4">
     <g id="line2d_8">
      <path d="M 148.486806 80.28 
C 148.486806 71.323164 146.722504 62.453423 143.294872 54.178385 
C 139.867239 45.903348 134.842934 38.383944 128.509495 32.050505 
C 122.176056 25.717066 114.656652 20.692761 106.381615 17.265128 
C 98.106577 13.837496 89.236836 12.073194 80.28 12.073194 
C 71.323164 12.073194 62.453423 13.837496 54.178385 17.265128 
C 45.903348 20.692761 38.383944 25.717066 32.050505 32.050505 
C 25.717066 38.383944 20.692761 45.903348 17.265128 54.178385 
C 13.837496 62.453423 12.073194 71.323164 12.073194 80.28 
C 12.073194 89.236836 13.837496 98.106577 17.265128 106.381615 
C 20.692761 114.656652 25.717066 122.176056 32.050505 128.509495 
C 38.383944 134.842934 45.903348 139.867239 54.178385 143.294872 
C 62.453423 146.722504 71.323164 148.486806 80.28 148.486806 
C 89.236836 148.486806 98.106577 146.722504 106.381615 143.294872 
C 114.656652 139.867239 122.176056 134.842934 128.509495 128.509495 
C 134.842934 122.176056 139.867239 114.656652 143.294872 106.381615 
C 146.722504 98.106577 148.486806 89.236836 148.486806 80.28 
" clip-path="url(#p9bf6998429)" style="fill: none; stroke: #b0b0b0; stroke-width: 0.8; stroke-linecap: square"/>
     </g>
     <g id="text_8">
      <!-- $\mathdefault{10^{3}}$ -->
      <g transform="translate(32.050505 30.113327) scale(0.1 -0.1)">
       <use xlink:href="#CMR17-31" transform="scale(0.996264)"/>
       <use xlink:href="#CMR17-30" transform="translate(45.690477 0) scale(0.996264)"/>
       <use xlink:href="#CMR17-33" transform="translate(91.380954 36.153639) scale(0.697382)"/>
      </g>
     </g>
    </g>
    <g id="ytick_5"/>
   </g>
   <g id="line2d_9">
    <path d="M 153.879771 80.28 
L 150.361863 79.056717 
L 138.894525 78.233136 
L 136.834451 77.316107 
L 140.2508 76.086433 
L 133.988321 75.581131 
L 126.997956 75.369745 
L 132.40862 73.87941 
L 132.868574 72.889158 
L 130.096803 72.389794 
L 124.887479 72.414498 
L 126.503566 71.295049 
L 132.484285 69.183637 
L 132.362015 68.255919 
L 126.474428 68.762435 
L 124.394031 68.459681 
L 128.209781 66.536356 
L 127.533782 65.833069 
L 122.134104 66.680777 
L 122.2861 65.81614 
L 127.408209 63.126735 
L 126.821499 62.414392 
L 121.526991 63.615134 
L 126.015475 59.917255 
L 118.441544 61.667371 
L 123.074015 58.47536 
L 122.236251 57.971465 
L 115.358471 60.835686 
L 120.393991 56.177082 
L 115.554549 58.238015 
L 113.542103 58.679338 
L 118.719675 54.352112 
L 116.239736 55.100722 
L 109.225852 59.249607 
L 115.468178 53.763806 
L 115.47553 52.782238 
L 108.314655 57.577984 
L 112.151062 53.537003 
L 113.451889 51.444117 
L 106.078835 57.050624 
L 111.69556 49.942347 
L 105.638179 54.921821 
L 103.688819 56.039458 
L 108.657317 49.849053 
L 104.5691 53.304221 
L 100.475856 57.047325 
L 105.764134 49.909192 
L 102.631137 52.678644 
L 97.011708 58.864391 
L 103.607771 49.323002 
L 101.928919 50.482819 
L 92.541518 62.768738 
L 100.584969 50.176645 
L 100.774534 48.721184 
L 92.335725 60.986807 
L 97.03723 52.391285 
L 98.595245 48.557065 
L 91.697775 59.681789 
L 94.42451 53.678046 
L 96.511429 48.424027 
L 89.802961 60.755036 
L 92.584342 53.893254 
L 94.988973 47.243105 
L 89.313704 58.997927 
L 90.392531 55.250608 
L 93.287873 46.393333 
L 87.209886 60.154151 
L 90.918697 47.537456 
L 88.44621 53.569532 
L 81.938319 74.496755 
L 88.095341 51.112751 
L 86.910249 53.687524 
L 81.255767 76.053489 
L 85.34718 56.440793 
L 85.513768 53.3546 
L 82.827435 65.83278 
L 82.303152 67.506323 
L 84.188698 52.46817 
L 83.110219 57.229719 
L 80.589053 77.339554 
L 82.751109 52.035095 
L 82.084256 54.477935 
L 80.399365 78.002374 
L 81.269121 51.955285 
L 80.749363 53.390211 
L 80.28 78.138135 
L 79.815567 53.672633 
L 79.374737 54.356661 
L 80.241514 79.545651 
L 78.847482 59.794031 
L 78.51853 60.146304 
L 80.022193 77.827126 
L 79.632055 75.002908 
L 79.874843 77.397156 
L 77.248869 61.142194 
L 77.219776 62.92461 
L 78.972991 73.55602 
L 74.677278 53.921266 
L 74.074041 53.399037 
L 74.731817 58.027455 
L 72.631304 51.734676 
L 72.027724 51.500895 
L 73 56.468192 
L 71.574522 53.487292 
L 71.205225 53.924941 
L 73.563608 61.826864 
L 73.763912 63.305011 
L 74.19706 65.224196 
L 80.2615 80.238447 
L 79.223532 78.014396 
L 74.274224 67.966334 
L 73.247987 66.478898 
L 75.055861 70.454823 
L 69.802955 61.37891 
L 68.962714 60.677886 
L 72.501668 67.334681 
L 72.084028 67.163703 
L 69.907352 64.307523 
L 73.946087 70.889588 
L 77.401368 76.168888 
L 73.221842 70.913507 
L 74.430311 73.056236 
L 71.058526 69.290275 
L 70.011012 68.466881 
L 73.253887 72.476711 
L 72.772173 72.228841 
L 69.195559 68.801726 
L 71.654167 71.654167 
L 77.314458 77.416209 
L 66.668292 68.023963 
L 64.06484 66.184377 
L 71.692168 73.073954 
L 79.089711 79.316123 
L 62.580423 66.451575 
L 58.072372 63.545352 
L 59.583703 65.24326 
L 65.778838 70.126177 
L 64.548397 69.6689 
L 55.618376 64.264554 
L 50.034939 61.380788 
L 49.457976 61.76026 
L 53.449752 64.789549 
L 53.14225 65.237299 
L 48.722873 63.500778 
L 46.222596 62.926886 
L 44.714724 62.933656 
L 46.390316 64.476981 
L 58.020559 70.831428 
L 55.403135 70.229094 
L 60.492784 72.684399 
L 74.826307 78.295018 
L 51.515046 70.9337 
L 46.238451 69.872454 
L 47.992659 71.021754 
L 51.994978 72.701051 
L 54.078545 73.747243 
L 75.146392 79.188818 
L 68.034461 77.899708 
L 79.665378 80.171626 
L 56.034888 76.439952 
L 53.462167 76.510999 
L 56.574831 77.369371 
L 52.479636 77.358064 
L 53.795282 77.962887 
L 57.531179 78.689247 
L 53.031963 78.851991 
L 54.09911 79.365743 
L 52.321539 79.791983 
L 48.983376 80.28 
L 52.321539 80.768017 
L 54.09911 81.194257 
L 53.031963 81.708009 
L 57.531179 81.870753 
L 53.795282 82.597113 
L 52.479636 83.201936 
L 56.574831 83.190629 
L 53.462167 84.049001 
L 56.034888 84.120048 
L 79.665378 80.388374 
L 68.034461 82.660292 
L 75.146392 81.371182 
L 54.078545 86.812757 
L 51.994978 87.858949 
L 47.992659 89.538246 
L 46.238451 90.687546 
L 51.515046 89.6263 
L 74.826307 82.264982 
L 60.492784 87.875601 
L 55.403135 90.330906 
L 58.020559 89.728572 
L 53.96607 91.995717 
L 46.390316 96.083019 
L 44.714724 97.626344 
L 46.222596 97.633114 
L 48.722873 97.059222 
L 53.14225 95.322701 
L 53.449752 95.770451 
L 49.457976 98.79974 
L 50.034939 99.179212 
L 55.618376 96.295446 
L 64.548397 90.8911 
L 65.778838 90.433823 
L 59.583703 95.31674 
L 58.072372 97.014648 
L 62.580423 94.108425 
L 79.089711 81.243877 
L 71.692168 87.486046 
L 64.06484 94.375623 
L 66.668292 92.536037 
L 77.314458 83.143791 
L 71.654167 88.905833 
L 69.195559 91.758274 
L 72.772173 88.331159 
L 73.253887 88.083289 
L 70.011012 92.093119 
L 71.058526 91.269725 
L 74.430311 87.503764 
L 73.221842 89.646493 
L 77.401368 84.391112 
L 73.946087 89.670412 
L 69.907352 96.252477 
L 72.084028 93.396297 
L 72.501668 93.225319 
L 68.962714 99.882114 
L 69.802955 99.18109 
L 75.055861 90.105177 
L 73.247987 94.081102 
L 74.274224 92.593666 
L 80.2615 80.321553 
L 79.137621 82.971277 
L 74.19706 95.335804 
L 73.763912 97.254989 
L 73.563608 98.733136 
L 71.205225 106.635059 
L 71.574522 107.072708 
L 73 104.091808 
L 72.027724 109.059105 
L 72.631304 108.825324 
L 74.731817 102.532545 
L 74.074041 107.160963 
L 74.677278 106.638734 
L 78.972991 87.00398 
L 77.219776 97.63539 
L 77.248869 99.417806 
L 79.874843 83.162844 
L 79.632055 85.557092 
L 80.022193 82.732874 
L 78.51853 100.413696 
L 78.847482 100.765969 
L 80.241514 81.014349 
L 79.374737 106.203339 
L 79.815567 106.887367 
L 80.28 82.421865 
L 80.749363 107.169789 
L 81.269121 108.604715 
L 80.399365 82.557626 
L 82.084256 106.082065 
L 82.751109 108.524905 
L 80.589053 83.220446 
L 83.110219 103.330281 
L 84.188698 108.09183 
L 82.303152 93.053677 
L 82.827435 94.72722 
L 85.513768 107.2054 
L 85.34718 104.119207 
L 81.255767 84.506511 
L 86.910249 106.872476 
L 88.095341 109.447249 
L 81.938319 86.063245 
L 88.44621 106.990468 
L 90.918697 113.022544 
L 87.209886 100.405849 
L 93.287873 114.166667 
L 90.392531 105.309392 
L 89.313704 101.562073 
L 94.988973 113.316895 
L 92.584342 106.666746 
L 89.802961 99.804964 
L 96.511429 112.135973 
L 94.42451 106.881954 
L 91.697775 100.878211 
L 98.595245 112.002935 
L 97.03723 108.168715 
L 92.335725 99.573193 
L 100.774534 111.838816 
L 100.584969 110.383355 
L 92.541518 97.791262 
L 101.928919 110.077181 
L 103.607771 111.236998 
L 97.011708 101.695609 
L 102.631137 107.881356 
L 105.764134 110.650808 
L 100.475856 103.512675 
L 104.5691 107.255779 
L 108.657317 110.710947 
L 103.688819 104.520542 
L 105.638179 105.638179 
L 111.69556 110.617653 
L 106.078835 103.509376 
L 113.451889 109.115883 
L 112.151062 107.022997 
L 108.314655 102.982016 
L 115.47553 107.777762 
L 115.468178 106.796194 
L 109.225852 101.310393 
L 116.239736 105.459278 
L 118.719675 106.207888 
L 113.542103 101.880662 
L 115.554549 102.321985 
L 120.393991 104.382918 
L 115.358471 99.724314 
L 122.236251 102.588535 
L 123.074015 102.08464 
L 118.441544 98.892629 
L 126.015475 100.642745 
L 121.526991 96.944866 
L 126.821499 98.145608 
L 127.408209 97.433265 
L 122.2861 94.74386 
L 122.134104 93.879223 
L 127.533782 94.726931 
L 128.209781 94.023644 
L 124.394031 92.100319 
L 126.474428 91.797565 
L 132.362015 92.304081 
L 132.484285 91.376363 
L 126.503566 89.264951 
L 124.887479 88.145502 
L 130.096803 88.170206 
L 132.868574 87.670842 
L 132.40862 86.68059 
L 126.997956 85.190255 
L 133.988321 84.978869 
L 140.2508 84.473567 
L 136.834451 83.243893 
L 138.894525 82.326864 
L 150.361863 81.503283 
L 153.879771 80.28 
L 153.879771 80.28 
" clip-path="url(#p9bf6998429)" style="fill: none; stroke: #000000; stroke-width: 0.75; stroke-linecap: square"/>
   </g>
   <g id="line2d_10">
    <path d="M 153.491372 80.28 
L 149.83778 79.065864 
L 137.57745 78.279129 
L 136.750673 77.320497 
L 140.699767 76.055038 
L 134.73602 75.515716 
L 126.64154 75.407206 
L 131.484966 73.992821 
L 132.368844 72.95939 
L 130.377678 72.345307 
L 125.819031 72.25024 
L 126.393868 71.316372 
L 132.15528 69.253569 
L 132.30512 68.269055 
L 126.756045 68.69222 
L 124.120379 68.533006 
L 127.811946 66.650434 
L 127.50834 65.840848 
L 122.55334 66.544559 
L 121.971624 65.924423 
L 127.12192 63.230935 
L 126.960636 62.360983 
L 121.794075 63.507225 
L 123.282384 62.026571 
L 126.183698 59.842357 
L 122.541339 60.573214 
L 118.372095 61.701244 
L 123.206034 58.408093 
L 122.638066 57.757817 
L 115.356549 60.836751 
L 117.40501 58.845865 
L 120.633637 56.033089 
L 115.874241 58.03825 
L 112.81488 59.151602 
L 118.535972 54.476021 
L 116.274303 55.076517 
L 108.732951 59.607721 
L 115.386277 53.825523 
L 115.567678 52.710244 
L 108.139652 57.719699 
L 112.124622 53.55919 
L 113.51119 51.392567 
L 105.986654 57.133625 
L 111.794335 49.84696 
L 105.576691 54.983309 
L 104.328844 55.376693 
L 108.906604 49.581725 
L 104.731783 53.123543 
L 100.699883 56.789611 
L 105.722096 49.95929 
L 102.431007 52.925784 
L 96.935928 58.961384 
L 103.442026 49.542953 
L 101.773384 50.696895 
L 92.134456 63.350083 
L 100.558709 50.215577 
L 100.841662 48.617817 
L 91.822649 61.8079 
L 97.234337 52.063244 
L 98.950286 47.942117 
L 91.71555 59.649722 
L 94.598458 53.350897 
L 96.799109 47.859423 
L 89.885013 60.586805 
L 92.930949 53.149953 
L 95.14026 46.903309 
L 89.11039 59.476905 
L 93.277174 46.421203 
L 89.027202 56.24726 
L 87.527958 59.230402 
L 90.804384 47.889277 
L 88.06146 54.827991 
L 82.599842 72.189749 
L 88.176772 50.808846 
L 86.927976 53.616425 
L 81.313286 75.804349 
L 85.5852 55.320997 
L 85.713781 52.325621 
L 82.817249 65.890548 
L 82.741535 64.738478 
L 84.293471 51.722669 
L 83.122422 57.130331 
L 80.658661 76.677278 
L 82.77692 51.740076 
L 82.093691 54.343008 
L 80.347981 78.982842 
L 81.268171 51.982492 
L 80.758319 52.877138 
L 80.28 79.008855 
L 79.825675 54.251742 
L 79.367306 54.143872 
L 80.199681 78.747429 
L 78.908403 60.665244 
L 78.539785 60.389247 
L 80.08964 78.468842 
L 79.627013 74.961844 
L 79.876584 77.409544 
L 77.261511 61.222008 
L 76.915777 61.200541 
L 79.222494 74.839602 
L 74.725115 54.146323 
L 73.998623 53.072369 
L 74.81427 58.358155 
L 72.675342 51.899029 
L 71.791711 50.677817 
L 73.113581 56.8397 
L 71.631714 53.663313 
L 70.928418 53.121033 
L 75.195359 67.034057 
L 73.714929 64.030879 
L 80.046974 79.756614 
L 79.853596 79.365574 
L 74.127186 67.664861 
L 71.395868 62.843909 
L 75.855141 71.958051 
L 70.545248 62.718043 
L 69.12122 60.952427 
L 73.338808 68.727917 
L 73.773202 69.866946 
L 68.782396 62.575242 
L 69.893141 64.880848 
L 77.01112 75.611555 
L 76.305243 74.809216 
L 72.226445 69.592572 
L 73.37716 71.444767 
L 76.870907 76.07012 
L 70.610454 69.156459 
L 75.256656 74.893123 
L 70.324276 69.970546 
L 68.946421 68.946421 
L 76.835812 77.068243 
L 68.782616 69.927709 
L 64.662952 66.704308 
L 72.534342 73.780621 
L 79.156917 79.370546 
L 62.480221 66.373289 
L 57.903149 63.417833 
L 58.622082 64.544602 
L 62.942119 68.139885 
L 64.027024 69.317229 
L 54.988812 63.85571 
L 49.394022 60.980299 
L 49.342538 61.690897 
L 52.306541 64.129516 
L 52.198717 64.714291 
L 45.881764 62.753223 
L 43.807264 62.491058 
L 46.338385 64.452765 
L 55.303472 69.159733 
L 56.058778 69.998701 
L 56.486561 70.666827 
L 65.127957 74.463676 
L 73.81513 78.053967 
L 49.994883 70.439769 
L 45.190394 69.552031 
L 48.052882 71.039023 
L 52.176278 72.74963 
L 53.953848 73.716153 
L 70.371086 77.992347 
L 62.469661 76.818021 
L 77.006537 79.7028 
L 55.3985 76.339158 
L 53.991939 76.585454 
L 58.781796 77.640352 
L 55.281123 77.652512 
L 57.992417 78.330089 
L 58.964027 78.789442 
L 52.115578 78.803965 
L 54.356668 79.374737 
L 54.966674 79.838154 
L 51.356506 80.28 
L 55.144764 80.718737 
L 54.397455 81.183838 
L 52.039463 81.760024 
L 59.004493 81.767728 
L 58.230851 82.209051 
L 55.189099 82.91716 
L 58.672407 82.933079 
L 53.970666 83.977536 
L 55.306772 84.235371 
L 76.935999 80.869638 
L 62.449199 83.745957 
L 70.822473 82.463442 
L 53.921813 86.851834 
L 52.125375 87.824009 
L 48.159417 89.490429 
L 45.292662 90.976703 
L 50.101083 90.085725 
L 73.597477 82.580977 
L 72.920204 82.958747 
L 64.657082 86.277077 
L 56.418123 89.920824 
L 56.064779 90.558751 
L 55.140416 91.472864 
L 46.34819 96.102663 
L 43.77878 98.082834 
L 45.871308 97.812104 
L 52.280005 95.800651 
L 52.322005 96.421556 
L 49.336499 98.872731 
L 49.354143 99.60462 
L 54.905499 96.758394 
L 64.357877 91.019607 
L 63.03137 92.357621 
L 58.507651 96.098538 
L 57.931323 97.120936 
L 62.564167 94.121126 
L 79.29076 81.081071 
L 72.449261 86.85077 
L 64.633104 93.881639 
L 68.086192 91.259354 
L 76.28345 84.006843 
L 75.613587 84.786303 
L 68.853987 91.706013 
L 70.066855 90.856021 
L 75.040626 85.89854 
L 69.564593 92.606666 
L 76.716633 84.680392 
L 72.97066 89.635529 
L 71.893532 91.409219 
L 77.261147 84.591369 
L 70.181035 95.252331 
L 68.880945 97.833005 
L 74.19521 90.017699 
L 73.630838 91.346064 
L 69.026814 99.771091 
L 70.268769 98.340739 
L 75.630347 89.024726 
L 71.438423 97.632572 
L 73.918799 93.322396 
L 80.074126 80.7424 
L 78.361248 84.800295 
L 73.700458 96.564939 
L 75.046643 93.913362 
L 70.884485 107.566556 
L 71.592904 107.016133 
L 72.995142 104.107697 
L 71.77499 109.940495 
L 72.674903 108.66261 
L 74.758025 102.427433 
L 73.941837 107.733602 
L 74.714005 106.465949 
L 79.230946 85.676913 
L 76.908773 99.399178 
L 77.256729 99.36818 
L 79.836689 83.434319 
L 79.613805 85.705727 
L 80.063861 82.336424 
L 78.532393 100.255243 
L 78.885259 100.225732 
L 80.210299 81.609967 
L 79.373281 106.24504 
L 79.827241 106.218557 
L 80.28 81.657365 
L 80.755505 107.521637 
L 81.259418 108.32686 
L 80.337856 81.383964 
L 82.095159 106.237977 
L 82.77204 108.764149 
L 80.666826 83.960407 
L 83.115478 103.373118 
L 84.285423 108.780062 
L 82.667731 95.355538 
L 82.873854 94.990479 
L 85.685549 108.08914 
L 85.544843 105.049138 
L 81.299841 84.697416 
L 86.909644 106.870048 
L 88.175879 109.747823 
L 82.702273 88.727469 
L 88.040032 105.66192 
L 90.810081 112.688258 
L 87.530593 101.337252 
L 88.95638 104.118159 
L 93.226876 114.007765 
L 89.171185 101.226319 
L 95.153591 113.686633 
L 92.84316 107.221783 
L 89.965223 100.13765 
L 96.831289 112.763734 
L 94.627975 107.264617 
L 91.872049 101.19261 
L 99.011374 112.723692 
L 97.247961 108.519429 
L 91.864877 98.819679 
L 100.897905 112.02879 
L 100.625106 110.44286 
L 92.110602 97.175851 
L 101.745548 109.824792 
L 103.432377 111.004242 
L 96.999267 101.679686 
L 102.511018 107.733021 
L 105.730671 110.610928 
L 100.627714 103.687368 
L 104.672264 107.370353 
L 108.887206 110.957473 
L 104.310909 105.164735 
L 105.680698 105.680698 
L 111.817829 110.735728 
L 106.00907 103.446559 
L 113.474722 109.135732 
L 112.037403 106.927626 
L 108.110379 102.816597 
L 115.579548 107.859029 
L 115.375909 106.726664 
L 108.665932 100.903587 
L 116.250079 105.46652 
L 118.525442 106.076876 
L 112.802807 101.400558 
L 115.861477 102.513774 
L 120.585665 104.498087 
L 117.376004 101.697388 
L 115.434033 99.766199 
L 122.684406 102.826822 
L 123.188062 102.142749 
L 118.33532 98.84082 
L 122.558515 99.994795 
L 126.209053 100.728932 
L 123.262036 98.524792 
L 121.752359 97.035921 
L 126.970318 98.202734 
L 127.153908 97.340707 
L 121.963137 94.632655 
L 122.513918 94.002632 
L 127.531572 94.726255 
L 127.861409 93.923749 
L 124.107195 92.023461 
L 126.741001 91.864029 
L 132.331574 92.297053 
L 132.18873 91.313541 
L 126.365502 89.238114 
L 125.784746 88.303715 
L 130.392616 88.217059 
L 132.386952 87.603154 
L 131.453287 86.56329 
L 126.618063 85.150327 
L 134.743459 85.044935 
L 140.700103 84.504985 
L 136.726838 83.238253 
L 137.567265 82.280515 
L 149.838581 81.49415 
L 153.491286 80.28 
L 153.491286 80.28 
" clip-path="url(#p9bf6998429)" style="fill: none; stroke-dasharray: 2.775,1.2; stroke-dashoffset: 0; stroke: #ff0000; stroke-width: 0.75"/>
   </g>
   <g id="line2d_11">
    <path d="M 51.329335 104.572492 
L 53.288562 106.732381 
L 55.408492 108.734777 
L 57.676504 110.567756 
L 60.079094 112.220407 
L 62.601957 113.682889 
L 65.230072 114.946495 
L 67.947793 116.003702 
L 70.738938 116.848215 
L 73.586889 117.475006 
L 76.474689 117.880343 
L 79.385146 118.061814 
L 82.300931 118.018337 
L 85.204684 117.750171 
L 88.079115 117.258913 
L 90.907112 116.547488 
L 93.671837 115.620132 
L 96.356828 114.482366 
L 98.9461 113.140963 
L 99.176205 113.009187 
L 99.176205 113.009187 
" clip-path="url(#p9bf6998429)" style="fill: none; stroke-dasharray: 1,1.65; stroke-dashoffset: 0; stroke: #000000"/>
   </g>
   <g id="line2d_12">
    <path d="M 80.28 80.28 
L 51.329335 104.572492 
" clip-path="url(#p9bf6998429)" style="fill: none; stroke-dasharray: 1,1.65; stroke-dashoffset: 0; stroke: #000000"/>
   </g>
   <g id="line2d_13">
    <path d="M 80.28 80.28 
L 99.176205 113.009187 
" clip-path="url(#p9bf6998429)" style="fill: none; stroke-dasharray: 1,1.65; stroke-dashoffset: 0; stroke: #000000"/>
   </g>
   <g id="patch_3">
    <path d="M 157.55976 80.28 
C 157.55976 70.131715 155.560769 60.082109 151.677189 50.706316 
C 147.793608 41.330523 142.100964 32.810879 134.925042 25.634958 
C 127.749121 18.459036 119.229477 12.766392 109.853684 8.882811 
C 100.477891 4.999231 90.428285 3.00024 80.28 3.00024 
C 70.131715 3.00024 60.082109 4.999231 50.706316 8.882811 
C 41.330523 12.766392 32.810879 18.459036 25.634958 25.634958 
C 18.459036 32.810879 12.766392 41.330523 8.882811 50.706316 
C 4.999231 60.082109 3.00024 70.131715 3.00024 80.28 
C 3.00024 90.428285 4.999231 100.477891 8.882811 109.853684 
C 12.766392 119.229477 18.459036 127.749121 25.634958 134.925042 
C 32.810879 142.100964 41.330523 147.793608 50.706316 151.677189 
C 60.082109 155.560769 70.131715 157.55976 80.28 157.55976 
C 90.428285 157.55976 100.477891 155.560769 109.853684 151.677189 
C 119.229477 147.793608 127.749121 142.100964 134.925042 134.925042 
C 142.100964 127.749121 147.793608 119.229477 151.677189 109.853684 
C 155.560769 100.477891 157.55976 90.428285 157.55976 80.28 
" style="fill: none; stroke: #000000; stroke-width: 0.8; stroke-linejoin: miter; stroke-linecap: square"/>
   </g>
   <g id="legend_1">
    <g id="patch_4">
     <path d="M 73.727758 38.874597 
L 150.55976 38.874597 
Q 152.55976 38.874597 152.55976 36.874597 
L 152.55976 10.00024 
Q 152.55976 8.00024 150.55976 8.00024 
L 73.727758 8.00024 
Q 71.727758 8.00024 71.727758 10.00024 
L 71.727758 36.874597 
Q 71.727758 38.874597 73.727758 38.874597 
z
" style="fill: #ffffff; opacity: 0.8; stroke: #cccccc; stroke-linejoin: miter"/>
    </g>
    <g id="line2d_14">
     <path d="M 75.727758 15.50024 
L 85.727758 15.50024 
L 95.727758 15.50024 
" style="fill: none; stroke: #000000; stroke-width: 0.75; stroke-linecap: square"/>
    </g>
    <g id="text_9">
     <!-- Analytical -->
     <g transform="translate(103.727758 19.00024) scale(0.1 -0.1)">
      <defs>
       <path id="CMR17-41" d="M 2323 4378 
C 2291 4461 2278 4480 2214 4480 
C 2150 4480 2138 4461 2106 4378 
L 749 566 
C 627 223 371 153 147 153 
L 147 -13 
C 262 0 518 0 640 0 
C 800 0 1056 0 1210 -13 
L 1210 153 
C 909 153 864 361 864 439 
C 864 497 877 530 890 569 
L 1229 1536 
L 2906 1536 
L 3290 442 
C 3322 365 3322 352 3322 327 
C 3322 153 3046 153 2925 153 
L 2925 0 
C 3110 0 3443 0 3642 0 
C 3808 0 4128 0 4282 -13 
L 4282 153 
C 3942 153 3827 153 3744 387 
L 2323 4378 
z
M 2067 3893 
L 2848 1702 
L 1286 1702 
L 2067 3893 
z
" transform="scale(0.015625)"/>
       <path id="CMR17-6e" d="M 2656 1933 
C 2656 2259 2592 2790 1837 2790 
C 1331 2790 1069 2400 973 2144 
L 966 2144 
L 966 2790 
L 211 2720 
L 211 2554 
C 589 2554 646 2515 646 2208 
L 646 428 
C 646 184 621 153 211 153 
L 211 -13 
C 365 0 646 0 813 0 
C 979 0 1267 0 1421 -13 
L 1421 153 
C 1011 153 986 178 986 428 
L 986 1658 
C 986 2247 1344 2688 1792 2688 
C 2266 2688 2317 2266 2317 1958 
L 2317 428 
C 2317 184 2291 153 1882 153 
L 1882 -13 
C 2035 0 2317 0 2483 0 
C 2650 0 2938 0 3091 -13 
L 3091 153 
C 2682 153 2656 178 2656 428 
L 2656 1933 
z
" transform="scale(0.015625)"/>
       <path id="CMR17-61" d="M 2304 1653 
C 2304 2072 2304 2294 2035 2543 
C 1798 2752 1523 2816 1306 2816 
C 800 2816 435 2407 435 1971 
C 435 1728 627 1728 666 1728 
C 749 1728 896 1778 896 1954 
C 896 2112 774 2181 666 2181 
C 640 2181 608 2174 589 2168 
C 723 2592 1069 2714 1293 2714 
C 1613 2714 1965 2429 1965 1885 
L 1965 1600 
C 1587 1600 1133 1549 774 1357 
C 371 1133 256 813 256 570 
C 256 77 832 -64 1171 -64 
C 1523 -64 1850 139 1990 511 
C 2003 233 2182 -18 2464 -18 
C 2598 -18 2938 70 2938 567 
L 2938 920 
L 2822 920 
L 2822 562 
C 2822 178 2650 128 2566 128 
C 2304 128 2304 458 2304 738 
L 2304 1653 
z
M 1965 870 
C 1965 317 1568 38 1216 38 
C 896 38 646 275 646 570 
C 646 761 730 1100 1101 1305 
C 1408 1478 1760 1504 1965 1504 
L 1965 870 
z
" transform="scale(0.015625)"/>
       <path id="CMR17-6c" d="M 979 4396 
L 218 4326 
L 218 4160 
C 595 4160 653 4122 653 3817 
L 653 426 
C 653 184 627 153 218 153 
L 218 -13 
C 371 0 653 0 813 0 
C 979 0 1261 0 1414 -13 
L 1414 153 
C 1005 153 979 178 979 426 
L 979 4396 
z
" transform="scale(0.015625)"/>
       <path id="CMR17-79" d="M 2496 2197 
C 2656 2586 2944 2586 3034 2586 
L 3034 2752 
C 2912 2752 2752 2752 2630 2752 
C 2496 2752 2285 2752 2157 2758 
L 2157 2592 
C 2400 2573 2406 2394 2406 2343 
C 2406 2280 2394 2248 2362 2171 
L 1664 449 
L 902 2306 
C 870 2382 870 2426 870 2433 
C 870 2573 1018 2586 1171 2586 
L 1171 2758 
C 1018 2752 742 2752 582 2752 
C 410 2752 205 2752 64 2758 
L 64 2586 
C 410 2586 448 2554 531 2350 
L 1485 15 
C 1197 -738 1030 -1178 627 -1178 
C 557 -1178 397 -1159 282 -1044 
C 429 -1031 493 -942 493 -833 
C 493 -725 416 -629 288 -629 
C 147 -629 77 -725 77 -840 
C 77 -1095 339 -1280 627 -1280 
C 998 -1280 1229 -922 1357 -604 
L 2496 2197 
z
" transform="scale(0.015625)"/>
       <path id="CMR17-74" d="M 966 2560 
L 1862 2560 
L 1862 2725 
L 966 2725 
L 966 3904 
L 851 3904 
C 838 3245 614 2668 70 2668 
L 70 2560 
L 627 2560 
L 627 771 
C 627 650 627 -64 1370 -64 
C 1747 -64 1965 306 1965 777 
L 1965 1140 
L 1850 1140 
L 1850 783 
C 1850 344 1677 51 1408 51 
C 1222 51 966 178 966 758 
L 966 2560 
z
" transform="scale(0.015625)"/>
       <path id="CMR17-69" d="M 992 3909 
C 992 4049 877 4170 730 4170 
C 589 4170 467 4056 467 3909 
C 467 3769 582 3648 730 3648 
C 870 3648 992 3763 992 3909 
z
M 243 2706 
L 243 2541 
C 602 2541 653 2502 653 2197 
L 653 427 
C 653 184 627 153 218 153 
L 218 -13 
C 371 0 646 0 806 0 
C 960 0 1222 0 1370 -13 
L 1370 153 
C 992 153 979 191 979 420 
L 979 2776 
L 243 2706 
z
" transform="scale(0.015625)"/>
       <path id="CMR17-63" d="M 2234 2240 
C 2112 2240 1933 2240 1933 2017 
C 1933 1838 2080 1787 2163 1787 
C 2208 1787 2394 1807 2394 2024 
C 2394 2467 1958 2803 1466 2803 
C 787 2803 211 2178 211 1363 
C 211 516 813 -64 1466 -64 
C 2259 -64 2458 677 2458 748 
C 2458 774 2451 793 2406 793 
C 2362 793 2355 787 2330 703 
C 2163 180 1798 51 1523 51 
C 1114 51 621 427 621 1369 
C 621 2338 1094 2688 1472 2688 
C 1722 2688 2093 2573 2234 2240 
z
" transform="scale(0.015625)"/>
      </defs>
      <use xlink:href="#CMR17-41" transform="scale(0.996264)"/>
      <use xlink:href="#CMR17-6e" transform="translate(69.07243 0) scale(0.996264)"/>
      <use xlink:href="#CMR17-61" transform="translate(119.9678 0) scale(0.996264)"/>
      <use xlink:href="#CMR17-6c" transform="translate(165.658277 0) scale(0.996264)"/>
      <use xlink:href="#CMR17-79" transform="translate(190.529335 0) scale(0.996264)"/>
      <use xlink:href="#CMR17-74" transform="translate(238.822251 0) scale(0.996264)"/>
      <use xlink:href="#CMR17-69" transform="translate(274.103019 0) scale(0.996264)"/>
      <use xlink:href="#CMR17-63" transform="translate(298.974077 0) scale(0.996264)"/>
      <use xlink:href="#CMR17-61" transform="translate(339.459738 0) scale(0.996264)"/>
      <use xlink:href="#CMR17-6c" transform="translate(385.150215 0) scale(0.996264)"/>
     </g>
    </g>
    <g id="line2d_15">
     <path d="M 75.727758 29.437418 
L 85.727758 29.437418 
L 95.727758 29.437418 
" style="fill: none; stroke-dasharray: 2.775,1.2; stroke-dashoffset: 0; stroke: #ff0000; stroke-width: 0.75"/>
    </g>
    <g id="text_10">
     <!-- LBM -->
     <g transform="translate(103.727758 32.937418) scale(0.1 -0.1)">
      <defs>
       <path id="CMR17-4c" d="M 3469 1615 
L 3354 1615 
C 3302 983 3219 166 2125 166 
L 1530 166 
C 1274 166 1261 197 1261 414 
L 1261 3898 
C 1261 4129 1274 4192 1760 4192 
L 1901 4192 
L 1901 4352 
C 1638 4352 1331 4352 1069 4352 
C 870 4352 512 4352 326 4352 
L 326 4192 
C 768 4192 838 4192 838 3905 
L 838 452 
C 838 166 768 166 326 166 
L 326 0 
L 3315 0 
L 3469 1615 
z
" transform="scale(0.015625)"/>
       <path id="CMR17-42" d="M 333 4352 
L 333 4186 
C 774 4186 845 4186 845 3900 
L 845 452 
C 845 166 774 166 333 166 
L 333 0 
L 2534 0 
C 3354 0 3885 583 3885 1164 
C 3885 1741 3360 2233 2675 2233 
C 3290 2356 3718 2771 3718 3264 
C 3718 3802 3194 4352 2368 4352 
L 333 4352 
z
M 1248 2304 
L 1248 3937 
C 1248 4155 1261 4186 1517 4186 
L 2336 4186 
C 2970 4186 3251 3674 3251 3277 
C 3251 2791 2861 2304 2170 2304 
L 1248 2304 
z
M 1517 166 
C 1261 166 1248 197 1248 413 
L 1248 2202 
L 2432 2202 
C 3091 2202 3411 1625 3411 1162 
C 3411 699 3046 166 2349 166 
L 1517 166 
z
" transform="scale(0.015625)"/>
       <path id="CMR17-4d" d="M 1338 4224 
C 1299 4320 1293 4320 1158 4320 
L 339 4320 
L 339 4160 
C 781 4160 851 4160 851 3875 
L 851 610 
C 851 451 851 153 339 153 
L 339 -13 
C 486 0 755 0 915 0 
C 1075 0 1344 0 1491 -13 
L 1491 153 
C 979 153 979 451 979 610 
L 979 4135 
L 986 4135 
L 2490 89 
C 2515 25 2528 -13 2579 -13 
C 2630 -13 2643 25 2669 89 
L 4186 4166 
L 4192 4166 
L 4192 438 
C 4192 153 4122 153 3680 153 
L 3680 -13 
C 3853 0 4198 0 4384 0 
C 4570 0 4922 0 5094 -13 
L 5094 153 
C 4653 153 4582 153 4582 438 
L 4582 3875 
C 4582 4160 4653 4160 5094 4160 
L 5094 4320 
L 4282 4320 
C 4147 4320 4141 4314 4102 4218 
L 2720 502 
L 1338 4224 
z
" transform="scale(0.015625)"/>
      </defs>
      <use xlink:href="#CMR17-4c" transform="scale(0.996264)"/>
      <use xlink:href="#CMR17-42" transform="translate(57.381408 0) scale(0.996264)"/>
      <use xlink:href="#CMR17-4d" transform="translate(122.570162 0) scale(0.996264)"/>
     </g>
    </g>
   </g>
  </g>
  <g id="axes_2">
   <g id="patch_5">
    <path d="M 32.366549 146.833331 
L 109.646309 146.833331 
L 109.646309 120.558213 
L 32.366549 120.558213 
z
" style="fill: #ffffff"/>
   </g>
   <g id="matplotlib.axis_3">
    <g id="xtick_5">
     <g id="line2d_16">
      <path d="M 35.879265 146.833331 
L 35.879265 120.558213 
" clip-path="url(#p7801f598be)" style="fill: none; stroke: #b0b0b0; stroke-width: 0.8; stroke-linecap: square"/>
     </g>
     <g id="line2d_17">
      <defs>
       <path id="mc322d09700" d="M 0 0 
L 0 3.5 
" style="stroke: #000000; stroke-width: 0.8"/>
      </defs>
      <g>
       <use xlink:href="#mc322d09700" x="35.879265" y="146.833331" style="stroke: #000000; stroke-width: 0.8"/>
      </g>
     </g>
     <g id="text_11">
      <!-- $220^\circ$ -->
      <g transform="translate(28.08899 158.676269) scale(0.07 -0.07)">
       <use xlink:href="#CMR17-32" transform="scale(0.996264)"/>
       <use xlink:href="#CMR17-32" transform="translate(45.690477 0) scale(0.996264)"/>
       <use xlink:href="#CMR17-30" transform="translate(91.380954 0) scale(0.996264)"/>
       <use xlink:href="#CMSY10-e" transform="translate(137.071431 36.153639) scale(0.697382)"/>
      </g>
     </g>
    </g>
    <g id="xtick_6">
     <g id="line2d_18">
      <path d="M 106.133592 146.833331 
L 106.133592 120.558213 
" clip-path="url(#p7801f598be)" style="fill: none; stroke: #b0b0b0; stroke-width: 0.8; stroke-linecap: square"/>
     </g>
     <g id="line2d_19">
      <g>
       <use xlink:href="#mc322d09700" x="106.133592" y="146.833331" style="stroke: #000000; stroke-width: 0.8"/>
      </g>
     </g>
     <g id="text_12">
      <!-- $300^\circ$ -->
      <g transform="translate(98.343317 158.676269) scale(0.07 -0.07)">
       <use xlink:href="#CMR17-33" transform="scale(0.996264)"/>
       <use xlink:href="#CMR17-30" transform="translate(45.690477 0) scale(0.996264)"/>
       <use xlink:href="#CMR17-30" transform="translate(91.380954 0) scale(0.996264)"/>
       <use xlink:href="#CMSY10-e" transform="translate(137.071431 36.153639) scale(0.697382)"/>
      </g>
     </g>
    </g>
   </g>
   <g id="matplotlib.axis_4">
    <g id="ytick_6">
     <g id="line2d_20">
      <path d="M 32.366549 145.645403 
L 109.646309 145.645403 
" clip-path="url(#p7801f598be)" style="fill: none; stroke: #b0b0b0; stroke-width: 0.8; stroke-linecap: square"/>
     </g>
     <g id="line2d_21">
      <defs>
       <path id="m1b7a5525c0" d="M 0 0 
L -3.5 0 
" style="stroke: #000000; stroke-width: 0.8"/>
      </defs>
      <g>
       <use xlink:href="#m1b7a5525c0" x="32.366549" y="145.645403" style="stroke: #000000; stroke-width: 0.8"/>
      </g>
     </g>
    </g>
    <g id="ytick_7">
     <g id="line2d_22">
      <path d="M 32.366549 131.661502 
L 109.646309 131.661502 
" clip-path="url(#p7801f598be)" style="fill: none; stroke: #b0b0b0; stroke-width: 0.8; stroke-linecap: square"/>
     </g>
     <g id="line2d_23">
      <g>
       <use xlink:href="#m1b7a5525c0" x="32.366549" y="131.661502" style="stroke: #000000; stroke-width: 0.8"/>
      </g>
     </g>
    </g>
   </g>
   <g id="line2d_24">
    <path d="M 35.879265 144.06911 
L 36.76856 142.211948 
L 37.657856 143.069992 
L 38.547151 144.763382 
L 39.436446 145.065738 
L 40.325742 143.930169 
L 41.215037 143.40178 
L 42.104332 144.09752 
L 42.993627 144.168977 
L 43.882923 143.444545 
L 44.772218 143.628244 
L 45.661513 144.338425 
L 46.550809 144.188298 
L 47.440104 143.996346 
L 48.329399 144.598352 
L 49.218694 144.939732 
L 50.10799 144.052763 
L 50.997285 142.967541 
L 51.88658 143.470709 
L 52.775876 143.521892 
L 53.665171 141.664967 
L 54.554466 142.156146 
L 55.443761 144.080769 
L 56.333057 143.467491 
L 57.222352 143.719056 
L 58.111647 145.293911 
L 59.000942 145.639008 
L 59.890238 145.23431 
L 60.779533 143.362195 
L 61.668828 143.088789 
L 62.558124 142.884242 
L 63.447419 137.836507 
L 64.336714 137.531523 
L 65.226009 140.318576 
L 66.115305 135.460546 
L 67.0046 135.954604 
L 67.893895 141.508795 
L 68.783191 138.118174 
L 69.672486 138.713384 
L 70.561781 144.682268 
L 71.451076 143.167466 
L 72.340372 142.920948 
L 73.229667 145.236071 
L 74.118962 144.897834 
L 75.008258 145.298612 
L 75.897553 142.731158 
L 76.786848 142.6066 
L 77.676143 145.542007 
L 78.565439 139.556679 
L 79.454734 139.006745 
L 80.344029 145.344242 
L 81.233325 138.761117 
L 82.12262 137.351659 
L 83.011915 145.324713 
L 83.90121 139.614412 
L 84.790506 137.340114 
L 85.679801 145.229678 
L 86.569096 141.351798 
L 87.458392 137.621161 
L 88.347687 143.826945 
L 89.236982 143.582684 
L 90.126277 138.270256 
L 91.015573 140.668343 
L 91.904868 145.035494 
L 92.794163 138.291841 
L 93.683458 135.117878 
L 94.572754 144.799467 
L 95.462049 137.778781 
L 96.351344 127.503001 
L 97.24064 142.299053 
L 98.129935 139.051859 
L 99.01923 122.569776 
L 99.908525 138.670934 
L 100.797821 141.408514 
L 101.687116 122.964527 
L 102.576411 136.485159 
L 103.465707 142.105118 
L 104.355002 124.131264 
L 105.244297 135.208992 
L 106.133592 141.166974 
" clip-path="url(#p7801f598be)" style="fill: none; stroke: #000000; stroke-width: 0.75; stroke-linecap: square"/>
   </g>
   <g id="line2d_25">
    <path d="M 35.879265 144.208074 
L 36.76856 142.528878 
L 37.657856 143.338267 
L 38.547151 144.877042 
L 39.436446 144.733274 
L 40.325742 143.373357 
L 41.215037 143.578141 
L 42.104332 144.565205 
L 42.993627 144.051416 
L 43.882923 143.348868 
L 44.772218 144.267202 
L 45.661513 144.849251 
L 46.550809 143.976068 
L 47.440104 143.686002 
L 48.329399 144.704485 
L 49.218694 144.905358 
L 50.10799 143.106053 
L 50.997285 142.448809 
L 51.88658 144.030884 
L 52.775876 143.830159 
L 53.665171 141.730064 
L 54.554466 142.561782 
L 55.443761 144.252828 
L 56.333057 142.907044 
L 57.222352 143.605054 
L 58.111647 145.478224 
L 59.000942 145.574234 
L 59.890238 144.954928 
L 60.779533 143.175797 
L 61.668828 143.592074 
L 62.558124 142.757211 
L 63.447419 136.781561 
L 64.336714 137.593369 
L 65.226009 140.30718 
L 66.115305 134.185679 
L 67.0046 136.162318 
L 67.893895 141.566034 
L 68.783191 137.527113 
L 69.672486 138.86911 
L 70.561781 144.872356 
L 71.451076 142.915639 
L 72.340372 142.928013 
L 73.229667 145.197525 
L 74.118962 144.876778 
L 75.008258 145.354663 
L 75.897553 142.790174 
L 76.786848 142.81107 
L 77.676143 145.458144 
L 78.565439 139.523914 
L 79.454734 139.554041 
L 80.344029 145.451736 
L 81.233325 138.442353 
L 82.12262 137.643009 
L 83.011915 145.489965 
L 83.90121 139.491944 
L 84.790506 137.079559 
L 85.679801 145.125061 
L 86.569096 141.327896 
L 87.458392 136.87081 
L 88.347687 143.499252 
L 89.236982 143.545096 
L 90.126277 137.364819 
L 91.015573 140.020954 
L 91.904868 145.007945 
L 92.794163 138.294206 
L 93.683458 134.687968 
L 94.572754 144.409762 
L 95.462049 139.066043 
L 96.351344 128.304953 
L 97.24064 141.847026 
L 98.129935 139.987909 
L 99.01923 123.069475 
L 99.908525 138.097161 
L 100.797821 141.602699 
L 101.687116 121.752536 
L 102.576411 135.734413 
L 103.465707 141.932489 
L 104.355002 122.090527 
L 105.244297 134.610697 
L 106.133592 140.955046 
" clip-path="url(#p7801f598be)" style="fill: none; stroke-dasharray: 2.775,1.2; stroke-dashoffset: 0; stroke: #ff0000; stroke-width: 0.75"/>
   </g>
   <g id="patch_6">
    <path d="M 32.366549 146.833331 
L 32.366549 120.558213 
" style="fill: none; stroke: #000000; stroke-width: 0.8; stroke-linejoin: miter; stroke-linecap: square"/>
   </g>
   <g id="patch_7">
    <path d="M 109.646309 146.833331 
L 109.646309 120.558213 
" style="fill: none; stroke: #000000; stroke-width: 0.8; stroke-linejoin: miter; stroke-linecap: square"/>
   </g>
   <g id="patch_8">
    <path d="M 32.366549 146.833331 
L 109.646309 146.833331 
" style="fill: none; stroke: #000000; stroke-width: 0.8; stroke-linejoin: miter; stroke-linecap: square"/>
   </g>
   <g id="patch_9">
    <path d="M 32.366549 120.558213 
L 109.646309 120.558213 
" style="fill: none; stroke: #000000; stroke-width: 0.8; stroke-linejoin: miter; stroke-linecap: square"/>
   </g>
  </g>
 </g>
 <defs>
  <clipPath id="p9bf6998429">
   <path d="M 157.55976 80.28 
C 157.55976 70.131715 155.560769 60.082109 151.677189 50.706316 
C 147.793608 41.330523 142.100964 32.810879 134.925042 25.634958 
C 127.749121 18.459036 119.229477 12.766392 109.853684 8.882811 
C 100.477891 4.999231 90.428285 3.00024 80.28 3.00024 
C 70.131715 3.00024 60.082109 4.999231 50.706316 8.882811 
C 41.330523 12.766392 32.810879 18.459036 25.634958 25.634958 
C 18.459036 32.810879 12.766392 41.330523 8.882811 50.706316 
C 4.999231 60.082109 3.00024 70.131715 3.00024 80.28 
C 3.00024 90.428285 4.999231 100.477891 8.882811 109.853684 
C 12.766392 119.229477 18.459036 127.749121 25.634958 134.925042 
C 32.810879 142.100964 41.330523 147.793608 50.706316 151.677189 
C 60.082109 155.560769 70.131715 157.55976 80.28 157.55976 
C 90.428285 157.55976 100.477891 155.560769 109.853684 151.677189 
C 119.229477 147.793608 127.749121 142.100964 134.925042 134.925042 
C 142.100964 127.749121 147.793608 119.229477 151.677189 109.853684 
C 155.560769 100.477891 157.55976 90.428285 157.55976 80.28 
M 80.28 80.28 
C 80.28 80.28 80.28 80.28 80.28 80.28 
C 80.28 80.28 80.28 80.28 80.28 80.28 
C 80.28 80.28 80.28 80.28 80.28 80.28 
C 80.28 80.28 80.28 80.28 80.28 80.28 
C 80.28 80.28 80.28 80.28 80.28 80.28 
C 80.28 80.28 80.28 80.28 80.28 80.28 
C 80.28 80.28 80.28 80.28 80.28 80.28 
C 80.28 80.28 80.28 80.28 80.28 80.28 
C 80.28 80.28 80.28 80.28 80.28 80.28 
C 80.28 80.28 80.28 80.28 80.28 80.28 
C 80.28 80.28 80.28 80.28 80.28 80.28 
C 80.28 80.28 80.28 80.28 80.28 80.28 
C 80.28 80.28 80.28 80.28 80.28 80.28 
C 80.28 80.28 80.28 80.28 80.28 80.28 
C 80.28 80.28 80.28 80.28 80.28 80.28 
C 80.28 80.28 80.28 80.28 80.28 80.28 
z
"/>
  </clipPath>
  <clipPath id="p7801f598be">
   <rect x="32.366549" y="120.558213" width="77.27976" height="26.275118"/>
  </clipPath>
 </defs>
</svg>
