<?xml version="1.0" encoding="utf-8" standalone="no"?>
<!DOCTYPE svg PUBLIC "-//W3C//DTD SVG 1.1//EN"
  "http://www.w3.org/Graphics/SVG/1.1/DTD/svg11.dtd">
<svg xmlns:xlink="http://www.w3.org/1999/xlink" width="160.56pt" height="160.56pt" viewBox="0 0 160.56 160.56" xmlns="http://www.w3.org/2000/svg" version="1.1">
 <metadata>
  <rdf:RDF xmlns:dc="http://purl.org/dc/elements/1.1/" xmlns:cc="http://creativecommons.org/ns#" xmlns:rdf="http://www.w3.org/1999/02/22-rdf-syntax-ns#">
   <cc:Work>
    <dc:type rdf:resource="http://purl.org/dc/dcmitype/StillImage"/>
    <dc:date>2025-01-22T17:01:36.572471</dc:date>
    <dc:format>image/svg+xml</dc:format>
    <dc:creator>
     <cc:Agent>
      <dc:title>Matplotlib v3.6.3, https://matplotlib.org/</dc:title>
     </cc:Agent>
    </dc:creator>
   </cc:Work>
  </rdf:RDF>
 </metadata>
 <defs>
  <style type="text/css">*{stroke-linejoin: round; stroke-linecap: butt}</style>
 </defs>
 <g id="figure_1">
  <g id="patch_1">
   <path d="M 0 160.56 
L 160.56 160.56 
L 160.56 0 
L 0 0 
z
" style="fill: #ffffff"/>
  </g>
  <g id="axes_1">
   <g id="patch_2">
    <path d="M 157.55976 80.28 
C 157.55976 70.131715 155.560769 60.082109 151.677189 50.706316 
C 147.793608 41.330523 142.100964 32.810879 134.925042 25.634958 
C 127.749121 18.459036 119.229477 12.766392 109.853684 8.882811 
C 100.477891 4.999231 90.428285 3.00024 80.28 3.00024 
C 70.131715 3.00024 60.082109 4.999231 50.706316 8.882811 
C 41.330523 12.766392 32.810879 18.459036 25.634958 25.634958 
C 18.459036 32.810879 12.766392 41.330523 8.882811 50.706316 
C 4.999231 60.082109 3.00024 70.131715 3.00024 80.28 
C 3.00024 90.428285 4.999231 100.477891 8.882811 109.853684 
C 12.766392 119.229477 18.459036 127.749121 25.634958 134.925042 
C 32.810879 142.100964 41.330523 147.793608 50.706316 151.677189 
C 60.082109 155.560769 70.131715 157.55976 80.28 157.55976 
C 90.428285 157.55976 100.477891 155.560769 109.853684 151.677189 
C 119.229477 147.793608 127.749121 142.100964 134.925042 134.925042 
C 142.100964 127.749121 147.793608 119.229477 151.677189 109.853684 
C 155.560769 100.477891 157.55976 90.428285 157.55976 80.28 
M 80.28 80.28 
C 80.28 80.28 80.28 80.28 80.28 80.28 
C 80.28 80.28 80.28 80.28 80.28 80.28 
C 80.28 80.28 80.28 80.28 80.28 80.28 
C 80.28 80.28 80.28 80.28 80.28 80.28 
C 80.28 80.28 80.28 80.28 80.28 80.28 
C 80.28 80.28 80.28 80.28 80.28 80.28 
C 80.28 80.28 80.28 80.28 80.28 80.28 
C 80.28 80.28 80.28 80.28 80.28 80.28 
C 80.28 80.28 80.28 80.28 80.28 80.28 
C 80.28 80.28 80.28 80.28 80.28 80.28 
C 80.28 80.28 80.28 80.28 80.28 80.28 
C 80.28 80.28 80.28 80.28 80.28 80.28 
C 80.28 80.28 80.28 80.28 80.28 80.28 
C 80.28 80.28 80.28 80.28 80.28 80.28 
C 80.28 80.28 80.28 80.28 80.28 80.28 
C 80.28 80.28 80.28 80.28 80.28 80.28 
M 157.55976 80.28 
z
" style="fill: #ffffff"/>
   </g>
   <g id="matplotlib.axis_1">
    <g id="xtick_1">
     <g id="line2d_1">
      <path d="M 80.28 80.28 
L 157.55976 80.28 
" clip-path="url(#pef76aa7326)" style="fill: none; stroke: #b0b0b0; stroke-width: 0.8; stroke-linecap: square"/>
     </g>
    </g>
    <g id="xtick_2">
     <g id="line2d_2">
      <path d="M 80.28 80.28 
L 134.925042 25.634958 
" clip-path="url(#pef76aa7326)" style="fill: none; stroke: #b0b0b0; stroke-width: 0.8; stroke-linecap: square"/>
     </g>
    </g>
    <g id="xtick_3">
     <g id="line2d_3">
      <path d="M 80.28 80.28 
L 80.28 3.00024 
" clip-path="url(#pef76aa7326)" style="fill: none; stroke: #b0b0b0; stroke-width: 0.8; stroke-linecap: square"/>
     </g>
    </g>
    <g id="xtick_4">
     <g id="line2d_4">
      <path d="M 80.28 80.28 
L 25.634958 25.634958 
" clip-path="url(#pef76aa7326)" style="fill: none; stroke: #b0b0b0; stroke-width: 0.8; stroke-linecap: square"/>
     </g>
    </g>
    <g id="xtick_5">
     <g id="line2d_5">
      <path d="M 80.28 80.28 
L 3.00024 80.28 
" clip-path="url(#pef76aa7326)" style="fill: none; stroke: #b0b0b0; stroke-width: 0.8; stroke-linecap: square"/>
     </g>
    </g>
    <g id="xtick_6">
     <g id="line2d_6">
      <path d="M 80.28 80.28 
L 25.634958 134.925042 
" clip-path="url(#pef76aa7326)" style="fill: none; stroke: #b0b0b0; stroke-width: 0.8; stroke-linecap: square"/>
     </g>
    </g>
    <g id="xtick_7">
     <g id="line2d_7">
      <path d="M 80.28 80.28 
L 80.28 157.55976 
" clip-path="url(#pef76aa7326)" style="fill: none; stroke: #b0b0b0; stroke-width: 0.8; stroke-linecap: square"/>
     </g>
    </g>
    <g id="xtick_8">
     <g id="line2d_8">
      <path d="M 80.28 80.28 
L 134.925042 134.925042 
" clip-path="url(#pef76aa7326)" style="fill: none; stroke: #b0b0b0; stroke-width: 0.8; stroke-linecap: square"/>
     </g>
    </g>
   </g>
   <g id="matplotlib.axis_2">
    <g id="ytick_1">
     <g id="line2d_9">
      <path d="M 90.225664 80.28 
C 90.225664 78.973947 89.9684 77.680595 89.468595 76.473959 
C 88.96879 75.267324 88.236165 74.170872 87.312646 73.247354 
C 86.389128 72.323835 85.292676 71.59121 84.086041 71.091405 
C 82.879405 70.5916 81.586053 70.334336 80.28 70.334336 
C 78.973947 70.334336 77.680595 70.5916 76.473959 71.091405 
C 75.267324 71.59121 74.170872 72.323835 73.247354 73.247354 
C 72.323835 74.170872 71.59121 75.267324 71.091405 76.473959 
C 70.5916 77.680595 70.334336 78.973947 70.334336 80.28 
C 70.334336 81.586053 70.5916 82.879405 71.091405 84.086041 
C 71.59121 85.292676 72.323835 86.389128 73.247354 87.312646 
C 74.170872 88.236165 75.267324 88.96879 76.473959 89.468595 
C 77.680595 89.9684 78.973947 90.225664 80.28 90.225664 
C 81.586053 90.225664 82.879405 89.9684 84.086041 89.468595 
C 85.292676 88.96879 86.389128 88.236165 87.312646 87.312646 
C 88.236165 86.389128 88.96879 85.292676 89.468595 84.086041 
C 89.9684 82.879405 90.225664 81.586053 90.225664 80.28 
" clip-path="url(#pef76aa7326)" style="fill: none; stroke: #b0b0b0; stroke-width: 0.8; stroke-linecap: square"/>
     </g>
     <g id="text_1">
      <!-- $\mathdefault{10^{0}}$ -->
      <g transform="translate(74.575402 86.489832) scale(0.1 -0.1)">
       <defs>
        <path id="CMR17-31" d="M 1702 4083 
C 1702 4217 1696 4224 1606 4224 
C 1357 3927 979 3833 621 3820 
C 602 3820 570 3820 563 3808 
C 557 3795 557 3782 557 3648 
C 755 3648 1088 3686 1344 3839 
L 1344 467 
C 1344 243 1331 166 781 166 
L 589 166 
L 589 0 
C 896 6 1216 12 1523 12 
C 1830 12 2150 6 2458 0 
L 2458 166 
L 2266 166 
C 1715 166 1702 236 1702 467 
L 1702 4083 
z
" transform="scale(0.015625)"/>
        <path id="CMR17-30" d="M 2688 2038 
C 2688 2430 2682 3099 2413 3613 
C 2176 4063 1798 4224 1466 4224 
C 1158 4224 768 4082 525 3620 
C 269 3137 243 2539 243 2038 
C 243 1671 250 1112 448 623 
C 723 -39 1216 -128 1466 -128 
C 1760 -128 2208 -7 2470 604 
C 2662 1048 2688 1568 2688 2038 
z
M 1466 -26 
C 1056 -26 813 328 723 816 
C 653 1196 653 1749 653 2109 
C 653 2604 653 3015 736 3407 
C 858 3954 1216 4121 1466 4121 
C 1728 4121 2067 3947 2189 3420 
C 2272 3054 2278 2623 2278 2109 
C 2278 1691 2278 1176 2202 797 
C 2067 96 1690 -26 1466 -26 
z
" transform="scale(0.015625)"/>
       </defs>
       <use xlink:href="#CMR17-31" transform="scale(0.996264)"/>
       <use xlink:href="#CMR17-30" transform="translate(45.690477 0) scale(0.996264)"/>
       <use xlink:href="#CMR17-30" transform="translate(91.380954 36.153639) scale(0.697382)"/>
      </g>
     </g>
    </g>
    <g id="ytick_2">
     <g id="line2d_10">
      <path d="M 112.684424 80.28 
C 112.684424 76.02469 111.846221 71.810758 110.217784 67.879364 
C 108.589348 63.94797 106.202347 60.375571 103.193388 57.366612 
C 100.184429 54.357653 96.61203 51.970652 92.680636 50.342216 
C 88.749242 48.713779 84.53531 47.875576 80.28 47.875576 
C 76.02469 47.875576 71.810758 48.713779 67.879364 50.342216 
C 63.94797 51.970652 60.375571 54.357653 57.366612 57.366612 
C 54.357653 60.375571 51.970652 63.94797 50.342216 67.879364 
C 48.713779 71.810758 47.875576 76.02469 47.875576 80.28 
C 47.875576 84.53531 48.713779 88.749242 50.342216 92.680636 
C 51.970652 96.61203 54.357653 100.184429 57.366612 103.193388 
C 60.375571 106.202347 63.94797 108.589348 67.879364 110.217784 
C 71.810758 111.846221 76.02469 112.684424 80.28 112.684424 
C 84.53531 112.684424 88.749242 111.846221 92.680636 110.217784 
C 96.61203 108.589348 100.184429 106.202347 103.193388 103.193388 
C 106.202347 100.184429 108.589348 96.61203 110.217784 92.680636 
C 111.846221 88.749242 112.684424 84.53531 112.684424 80.28 
" clip-path="url(#pef76aa7326)" style="fill: none; stroke: #b0b0b0; stroke-width: 0.8; stroke-linecap: square"/>
     </g>
     <g id="text_2">
      <!-- $\mathdefault{10^{1}}$ -->
      <g transform="translate(61.693586 104.886972) scale(0.1 -0.1)">
       <use xlink:href="#CMR17-31" transform="scale(0.996264)"/>
       <use xlink:href="#CMR17-30" transform="translate(45.690477 0) scale(0.996264)"/>
       <use xlink:href="#CMR17-31" transform="translate(91.380954 36.153639) scale(0.697382)"/>
      </g>
     </g>
    </g>
    <g id="ytick_3">
     <g id="line2d_11">
      <path d="M 130.586619 80.28 
C 130.586619 73.673795 129.28534 67.131828 126.757255 61.028491 
C 124.22917 54.925153 120.523443 49.379141 115.852151 44.707849 
C 111.180859 40.036557 105.634847 36.33083 99.531509 33.802745 
C 93.428172 31.27466 86.886205 29.973381 80.28 29.973381 
C 73.673795 29.973381 67.131828 31.27466 61.028491 33.802745 
C 54.925153 36.33083 49.379141 40.036557 44.707849 44.707849 
C 40.036557 49.379141 36.33083 54.925153 33.802745 61.028491 
C 31.27466 67.131828 29.973381 73.673795 29.973381 80.28 
C 29.973381 86.886205 31.27466 93.428172 33.802745 99.531509 
C 36.33083 105.634847 40.036557 111.180859 44.707849 115.852151 
C 49.379141 120.523443 54.925153 124.22917 61.028491 126.757255 
C 67.131828 129.28534 73.673795 130.586619 80.28 130.586619 
C 86.886205 130.586619 93.428172 129.28534 99.531509 126.757255 
C 105.634847 124.22917 111.180859 120.523443 115.852151 115.852151 
C 120.523443 111.180859 124.22917 105.634847 126.757255 99.531509 
C 129.28534 93.428172 130.586619 86.886205 130.586619 80.28 
" clip-path="url(#pef76aa7326)" style="fill: none; stroke: #b0b0b0; stroke-width: 0.8; stroke-linecap: square"/>
     </g>
     <g id="text_3">
      <!-- $\mathdefault{10^{2}}$ -->
      <g transform="translate(51.425309 119.551591) scale(0.1 -0.1)">
       <defs>
        <path id="CMR17-32" d="M 2669 990 
L 2554 990 
C 2490 537 2438 460 2413 422 
C 2381 371 1920 371 1830 371 
L 602 371 
C 832 620 1280 1073 1824 1596 
C 2214 1966 2669 2400 2669 3033 
C 2669 3788 2067 4224 1395 4224 
C 691 4224 262 3603 262 3027 
C 262 2777 448 2745 525 2745 
C 589 2745 781 2783 781 3007 
C 781 3206 614 3264 525 3264 
C 486 3264 448 3257 422 3244 
C 544 3788 915 4057 1306 4057 
C 1862 4057 2227 3616 2227 3033 
C 2227 2477 1901 1998 1536 1583 
L 262 147 
L 262 0 
L 2515 0 
L 2669 990 
z
" transform="scale(0.015625)"/>
       </defs>
       <use xlink:href="#CMR17-31" transform="scale(0.996264)"/>
       <use xlink:href="#CMR17-30" transform="translate(45.690477 0) scale(0.996264)"/>
       <use xlink:href="#CMR17-32" transform="translate(91.380954 36.153639) scale(0.697382)"/>
      </g>
     </g>
    </g>
    <g id="ytick_4">
     <g id="line2d_12">
      <path d="M 148.488813 80.28 
C 148.488813 71.322901 146.72446 62.452898 143.296726 54.177617 
C 139.868993 45.902337 134.84454 38.382711 128.510914 32.049086 
C 122.177289 25.71546 114.657663 20.691007 106.382383 17.263274 
C 98.107102 13.83554 89.237099 12.071187 80.28 12.071187 
C 71.322901 12.071187 62.452898 13.83554 54.177617 17.263274 
C 45.902337 20.691007 38.382711 25.71546 32.049086 32.049086 
C 25.71546 38.382711 20.691007 45.902337 17.263274 54.177617 
C 13.83554 62.452898 12.071187 71.322901 12.071187 80.28 
C 12.071187 89.237099 13.83554 98.107102 17.263274 106.382383 
C 20.691007 114.657663 25.71546 122.177289 32.049086 128.510914 
C 38.382711 134.84454 45.902337 139.868993 54.177617 143.296726 
C 62.452898 146.72446 71.322901 148.488813 80.28 148.488813 
C 89.237099 148.488813 98.107102 146.72446 106.382383 143.296726 
C 114.657663 139.868993 122.177289 134.84454 128.510914 128.510914 
C 134.84454 122.177289 139.868993 114.657663 143.296726 106.382383 
C 146.72446 98.107102 148.488813 89.237099 148.488813 80.28 
" clip-path="url(#pef76aa7326)" style="fill: none; stroke: #b0b0b0; stroke-width: 0.8; stroke-linecap: square"/>
     </g>
     <g id="text_4">
      <!-- $\mathdefault{10^{3}}$ -->
      <g transform="translate(41.157032 134.21621) scale(0.1 -0.1)">
       <defs>
        <path id="CMR17-33" d="M 1414 2176 
C 1984 2176 2234 1673 2234 1094 
C 2234 322 1824 25 1453 25 
C 1114 25 563 193 390 691 
C 422 678 454 678 486 678 
C 640 678 755 780 755 947 
C 755 1132 614 1216 486 1216 
C 378 1216 211 1164 211 927 
C 211 335 787 -128 1466 -128 
C 2176 -128 2720 432 2720 1087 
C 2720 1718 2208 2176 1600 2246 
C 2086 2347 2554 2776 2554 3353 
C 2554 3856 2048 4224 1472 4224 
C 890 4224 378 3862 378 3347 
C 378 3123 544 3084 627 3084 
C 762 3084 877 3167 877 3334 
C 877 3500 762 3584 627 3584 
C 602 3584 570 3584 544 3571 
C 730 3999 1235 4076 1459 4076 
C 1683 4076 2106 3966 2106 3347 
C 2106 3167 2080 2851 1862 2574 
C 1670 2329 1453 2316 1242 2297 
C 1210 2297 1062 2284 1037 2284 
C 992 2278 966 2272 966 2227 
C 966 2182 973 2176 1101 2176 
L 1414 2176 
z
" transform="scale(0.015625)"/>
       </defs>
       <use xlink:href="#CMR17-31" transform="scale(0.996264)"/>
       <use xlink:href="#CMR17-30" transform="translate(45.690477 0) scale(0.996264)"/>
       <use xlink:href="#CMR17-33" transform="translate(91.380954 36.153639) scale(0.697382)"/>
      </g>
     </g>
    </g>
    <g id="ytick_5"/>
   </g>
   <g id="line2d_13">
    <path d="M 153.881937 80.28 
L 150.363925 79.056681 
L 138.89625 78.233075 
L 136.836115 77.31602 
L 140.252565 76.08631 
L 133.989902 75.580992 
L 126.99933 75.369601 
L 132.410154 73.879222 
L 132.870122 72.88894 
L 130.098269 72.389561 
L 124.888792 72.414266 
L 126.504927 71.294784 
L 132.485821 69.18331 
L 132.363548 68.255566 
L 126.475788 68.762096 
L 124.395329 68.459333 
L 128.211192 66.535952 
L 127.535173 65.832644 
L 122.135336 66.680377 
L 122.287336 65.815714 
L 127.409596 63.12623 
L 126.822869 62.413867 
L 121.528204 63.614644 
L 126.016821 59.916655 
L 118.442667 61.666824 
L 123.075274 58.474719 
L 122.237486 57.970809 
L 115.359503 60.835114 
L 120.395172 56.176373 
L 115.555587 58.237367 
L 113.543082 58.678702 
L 118.720806 54.351349 
L 116.240794 55.099981 
L 109.226704 59.248988 
L 115.469214 53.763025 
L 115.476566 52.781429 
L 108.31548 57.577316 
L 112.152 53.536216 
L 113.452865 51.443269 
L 106.079595 57.049941 
L 111.696484 49.941454 
L 105.638926 54.921074 
L 103.689508 56.038744 
L 108.658152 49.848158 
L 104.569815 53.303427 
L 100.47645 57.046641 
L 105.764884 49.908298 
L 102.631795 52.677832 
L 97.0122 58.86376 
L 103.608458 49.322091 
L 101.929556 50.481942 
L 92.541878 62.768223 
L 100.585567 50.175759 
L 100.775138 48.720256 
L 92.33608 60.986239 
L 97.037724 52.390465 
L 98.595784 48.556132 
L 91.698111 59.681182 
L 94.424926 53.677263 
L 96.511906 48.42309 
L 89.803242 60.754461 
L 92.584704 53.892478 
L 94.989406 47.242133 
L 89.31397 58.997301 
L 90.392828 55.249872 
L 93.288255 46.392336 
L 87.21009 60.153558 
L 90.91901 47.536493 
L 88.44645 53.568746 
L 81.938368 74.496584 
L 88.095571 51.111893 
L 86.910444 53.686742 
L 81.255796 76.053364 
L 85.347329 56.440091 
L 85.513922 53.353807 
L 82.82751 65.832355 
L 82.303211 67.505947 
L 84.188813 52.467352 
L 83.110302 57.229041 
L 80.589062 77.339468 
L 82.751182 52.034264 
L 82.084309 54.477176 
L 80.399369 78.002307 
L 81.26915 51.954451 
L 80.749377 53.38942 
L 80.28 78.138072 
L 79.815553 53.67185 
L 79.37471 54.355898 
L 80.241513 79.545629 
L 78.847439 59.793428 
L 78.518478 60.145711 
L 80.022185 77.827054 
L 79.632036 75.002753 
L 79.874831 77.397071 
L 77.24878 61.141631 
L 77.219686 62.924099 
L 78.972952 73.555823 
L 74.677113 53.92049 
L 74.073858 53.398246 
L 74.731654 58.0268 
L 72.631078 51.733836 
L 72.027482 51.500048 
L 72.999785 56.467491 
L 71.574265 53.486504 
L 71.204958 53.924165 
L 73.56341 61.826321 
L 73.76372 63.304511 
L 74.196881 65.223753 
L 80.261499 80.238446 
L 79.223501 78.01433 
L 74.274047 67.965971 
L 73.24778 66.478492 
L 75.055707 70.454534 
L 69.802647 61.378354 
L 68.962381 60.677309 
L 72.501439 67.3343 
L 72.083787 67.163317 
L 69.907047 64.307053 
L 73.945901 70.889312 
L 77.401284 76.168767 
L 73.221634 70.913232 
L 74.430139 73.056023 
L 71.058254 69.289951 
L 70.01071 68.466533 
L 73.25368 72.476481 
L 72.771952 72.228604 
L 69.195233 68.801388 
L 71.653913 71.653913 
L 77.31437 77.416125 
L 66.667891 68.023602 
L 64.064363 66.183962 
L 71.691916 73.073742 
L 79.089676 79.316095 
L 62.579902 66.451168 
L 58.071718 63.544859 
L 59.583094 65.242817 
L 65.778412 70.125878 
L 64.547934 69.668587 
L 55.61765 64.264083 
L 50.034049 61.380232 
L 49.457069 61.759715 
L 53.448962 64.789093 
L 53.141451 65.236857 
L 48.721944 63.500284 
L 46.221593 62.926375 
L 44.713678 62.933146 
L 46.389318 64.476516 
L 58.019904 70.83115 
L 55.402403 70.228798 
L 60.492202 72.684176 
L 74.826146 78.29496 
L 51.514199 70.933425 
L 46.237449 69.872148 
L 47.991709 71.021481 
L 51.994145 72.700828 
L 54.077774 73.747051 
L 75.146241 79.188786 
L 68.034101 77.899638 
L 79.66536 80.171622 
L 56.034175 76.439839 
L 53.461378 76.510888 
L 56.574133 77.369286 
L 52.478817 77.357978 
L 53.794503 77.962819 
L 57.530509 78.689201 
L 53.031161 78.851949 
L 54.098339 79.365716 
L 52.320716 79.791969 
L 48.982455 80.28 
L 52.320716 80.768031 
L 54.098339 81.194284 
L 53.031161 81.708051 
L 57.530509 81.870799 
L 53.794503 82.597181 
L 52.478817 83.202022 
L 56.574133 83.190714 
L 53.461378 84.049112 
L 56.034175 84.120161 
L 79.66536 80.388378 
L 68.034101 82.660362 
L 75.146241 81.371214 
L 54.077774 86.812949 
L 51.994145 87.859172 
L 47.991709 89.538519 
L 46.237449 90.687852 
L 51.514199 89.626575 
L 74.826146 82.26504 
L 60.492202 87.875824 
L 55.402403 90.331202 
L 58.019904 89.72885 
L 53.965295 91.996061 
L 46.389318 96.083484 
L 44.713678 97.626854 
L 46.221593 97.633625 
L 48.721944 97.059716 
L 53.141451 95.323143 
L 53.448962 95.770907 
L 49.457069 98.800285 
L 50.034049 99.179768 
L 55.61765 96.295917 
L 64.547934 90.891413 
L 65.778412 90.434122 
L 59.583094 95.317183 
L 58.071718 97.015141 
L 62.579902 94.108832 
L 79.089676 81.243905 
L 71.691916 87.486258 
L 64.064363 94.376038 
L 66.667891 92.536398 
L 77.31437 83.143875 
L 71.653913 88.906087 
L 69.195233 91.758612 
L 72.771952 88.331396 
L 73.25368 88.083519 
L 70.01071 92.093467 
L 71.058254 91.270049 
L 74.430139 87.503977 
L 73.221634 89.646768 
L 77.401284 84.391233 
L 73.945901 89.670688 
L 69.907047 96.252947 
L 72.083787 93.396683 
L 72.501439 93.2257 
L 68.962381 99.882691 
L 69.802647 99.181646 
L 75.055707 90.105466 
L 73.24778 94.081508 
L 74.274047 92.594029 
L 80.261499 80.321554 
L 79.137587 82.971356 
L 74.196881 95.336247 
L 73.76372 97.255489 
L 73.56341 98.733679 
L 71.204958 106.635835 
L 71.574265 107.073496 
L 72.999785 104.092509 
L 72.027482 109.059952 
L 72.631078 108.826164 
L 74.731654 102.5332 
L 74.073858 107.161754 
L 74.677113 106.63951 
L 78.972952 87.004177 
L 77.219686 97.635901 
L 77.24878 99.418369 
L 79.874831 83.162929 
L 79.632036 85.557247 
L 80.022185 82.732946 
L 78.518478 100.414289 
L 78.847439 100.766572 
L 80.241513 81.014371 
L 79.37471 106.204102 
L 79.815553 106.88815 
L 80.28 82.421928 
L 80.749377 107.17058 
L 81.26915 108.605549 
L 80.399369 82.557693 
L 82.084309 106.082824 
L 82.751182 108.525736 
L 80.589062 83.220532 
L 83.110302 103.330959 
L 84.188813 108.092648 
L 82.303211 93.054053 
L 82.82751 94.727645 
L 85.513922 107.206193 
L 85.347329 104.119909 
L 81.255796 84.506636 
L 86.910444 106.873258 
L 88.095571 109.448107 
L 81.938368 86.063416 
L 88.44645 106.991254 
L 90.91901 113.023507 
L 87.21009 100.406442 
L 93.288255 114.167664 
L 90.392828 105.310128 
L 89.31397 101.562699 
L 94.989406 113.317867 
L 92.584704 106.667522 
L 89.803242 99.805539 
L 96.511906 112.13691 
L 94.424926 106.882737 
L 91.698111 100.878818 
L 98.595784 112.003868 
L 97.037724 108.169535 
L 92.33608 99.573761 
L 100.775138 111.839744 
L 100.585567 110.384241 
L 92.541878 97.791777 
L 101.929556 110.078058 
L 103.608458 111.237909 
L 97.0122 101.69624 
L 102.631795 107.882168 
L 105.764884 110.651702 
L 100.47645 103.513359 
L 104.569815 107.256573 
L 108.658152 110.711842 
L 103.689508 104.521256 
L 105.638926 105.638926 
L 111.696484 110.618546 
L 106.079595 103.510059 
L 113.452865 109.116731 
L 112.152 107.023784 
L 108.31548 102.982684 
L 115.476566 107.778571 
L 115.469214 106.796975 
L 109.226704 101.311012 
L 116.240794 105.460019 
L 118.720806 106.208651 
L 113.543082 101.881298 
L 115.555587 102.322633 
L 120.395172 104.383627 
L 115.359503 99.724886 
L 122.237486 102.589191 
L 123.075274 102.085281 
L 118.442667 98.893176 
L 126.016821 100.643345 
L 121.528204 96.945356 
L 126.822869 98.146133 
L 127.409596 97.43377 
L 122.287336 94.744286 
L 122.135336 93.879623 
L 127.535173 94.727356 
L 128.211192 94.024048 
L 124.395329 92.100667 
L 126.475788 91.797904 
L 132.363548 92.304434 
L 132.485821 91.37669 
L 126.504927 89.265216 
L 124.888792 88.145734 
L 130.098269 88.170439 
L 132.870122 87.67106 
L 132.410154 86.680778 
L 126.99933 85.190399 
L 133.989902 84.979008 
L 140.252565 84.47369 
L 136.836115 83.24398 
L 138.89625 82.326925 
L 150.363925 81.503319 
L 153.881937 80.28 
L 153.881937 80.28 
" clip-path="url(#pef76aa7326)" style="fill: none; stroke: #000000; stroke-width: 0.75; stroke-linecap: square"/>
   </g>
   <g id="line2d_14">
    <path d="M 153.493527 80.28 
L 149.839827 79.065829 
L 137.579136 78.27907 
L 136.752335 77.32041 
L 140.701545 76.054914 
L 134.737623 75.515575 
L 126.642904 75.407062 
L 131.486473 73.992636 
L 132.370377 72.959175 
L 130.379153 72.345074 
L 125.820371 72.250004 
L 126.395225 71.316108 
L 132.156807 69.253244 
L 132.306652 68.268701 
L 126.757413 68.691879 
L 124.121669 68.53266 
L 127.813345 66.650033 
L 127.50973 65.840423 
L 122.554584 66.544155 
L 121.972851 65.924 
L 127.123299 63.230434 
L 126.962009 62.360455 
L 121.795296 63.506732 
L 123.28365 62.026034 
L 126.185049 59.841755 
L 122.542583 60.572634 
L 118.373216 61.700697 
L 123.207297 58.40745 
L 122.639312 57.757154 
L 115.357581 60.836179 
L 117.406103 58.845235 
L 120.634824 56.032375 
L 115.875289 58.037595 
L 112.815838 59.15098 
L 118.537098 54.475262 
L 116.275363 55.075776 
L 108.733788 59.607113 
L 115.38731 53.824744 
L 115.568717 52.709433 
L 108.140472 57.719035 
L 112.125559 53.558403 
L 113.512168 51.391717 
L 105.987411 57.132944 
L 111.795263 49.846064 
L 105.577435 54.982565 
L 104.329551 55.37596 
L 108.907447 49.580822 
L 104.732503 53.122744 
L 100.700484 56.78892 
L 105.722845 49.958398 
L 102.431659 52.924979 
L 96.936418 58.960757 
L 103.442708 49.542048 
L 101.774016 50.696024 
L 92.134805 63.349585 
L 100.559306 50.214693 
L 100.842267 48.616885 
L 91.822989 61.807356 
L 97.234836 52.062414 
L 98.950835 47.941165 
L 91.715886 59.649115 
L 94.598879 53.350105 
L 96.799595 47.858469 
L 89.885295 60.586226 
L 92.931321 53.149154 
L 95.140698 46.902327 
L 89.11065 59.476293 
L 93.277557 46.420206 
L 89.027459 56.246553 
L 87.528171 59.229783 
L 90.804694 47.888324 
L 88.061689 54.827242 
L 82.59991 72.189511 
L 88.177004 50.807978 
L 86.928171 53.615641 
L 81.313316 75.804217 
L 85.585356 55.320262 
L 85.713941 52.324798 
L 82.817323 65.890125 
L 82.741608 64.73802 
L 84.293589 51.721829 
L 83.122506 57.129649 
L 80.658672 76.677172 
L 82.776993 51.739236 
L 82.093745 54.342245 
L 80.347983 78.982804 
L 81.2682 51.981659 
L 80.758333 52.876332 
L 80.28 79.008817 
L 79.825662 54.250976 
L 79.367279 54.143103 
L 80.199679 78.747384 
L 78.908362 60.664666 
L 78.539733 60.388662 
L 80.089634 78.468788 
L 79.626993 74.961687 
L 79.876572 77.40946 
L 77.261422 61.221447 
L 76.915678 61.19998 
L 79.222463 74.839442 
L 74.724952 54.145554 
L 73.998439 53.071568 
L 74.814109 58.35751 
L 72.675118 51.898194 
L 71.791461 50.676946 
L 73.11337 56.83901 
L 71.63146 53.662529 
L 70.928143 53.120234 
L 75.195209 67.033667 
L 73.714736 64.030401 
L 80.046967 79.756599 
L 79.853584 79.365547 
L 74.127005 67.66449 
L 71.395607 62.843396 
L 75.855011 71.957806 
L 70.544962 62.717526 
L 69.120892 60.951858 
L 73.338604 68.727577 
L 73.77301 69.86664 
L 68.782058 62.574721 
L 69.892835 64.880395 
L 77.011023 75.611418 
L 76.305126 74.809055 
L 72.226208 69.592257 
L 73.376956 71.444507 
L 76.870806 76.069997 
L 70.610169 69.156132 
L 75.256508 74.892965 
L 70.323983 69.970243 
L 68.946088 68.946088 
L 76.835711 77.068148 
L 68.782277 69.927404 
L 64.662493 66.703908 
L 72.534114 73.78043 
L 79.156884 79.370519 
L 62.479698 66.37288 
L 57.90249 63.417337 
L 58.621445 64.544139 
L 62.941608 68.139527 
L 64.026546 69.316907 
L 54.988067 63.855227 
L 49.393113 60.979731 
L 49.341627 61.69035 
L 52.305718 64.129041 
L 52.197891 64.713833 
L 45.880751 62.752707 
L 43.806191 62.490535 
L 46.337386 64.452299 
L 55.302737 69.159406 
L 56.058065 69.998399 
L 56.485861 70.666544 
L 65.127511 74.463505 
L 73.814939 78.053901 
L 49.993992 70.43948 
L 45.189361 69.551715 
L 48.051934 71.038751 
L 52.175451 72.749409 
L 53.953073 73.71596 
L 70.370794 77.99228 
L 62.469137 76.817919 
L 77.006441 79.702783 
L 55.397768 76.339042 
L 53.991166 76.585345 
L 58.781163 77.640275 
L 55.280388 77.652435 
L 57.991761 78.330032 
L 58.963399 78.789398 
L 52.11475 78.803922 
L 54.355905 79.374711 
L 54.965929 79.838141 
L 51.355655 80.28 
L 55.144024 80.71875 
L 54.396693 81.183865 
L 52.038632 81.760067 
L 59.003867 81.767772 
L 58.230203 82.209107 
L 55.188361 82.917238 
L 58.671772 82.933157 
L 53.969892 83.977645 
L 55.306037 84.235487 
L 76.935901 80.869655 
L 62.448674 83.746059 
L 70.822195 82.463506 
L 53.921038 86.852027 
L 52.124547 87.824231 
L 48.158472 89.4907 
L 45.291633 90.977017 
L 50.100194 90.086013 
L 73.59728 82.581045 
L 72.919987 82.958826 
L 64.656622 86.277253 
L 56.417421 89.921108 
L 56.064066 90.559054 
L 55.139677 91.473193 
L 46.347192 96.103128 
L 43.777706 98.083358 
L 45.870295 97.81262 
L 52.279181 95.801107 
L 52.321182 96.422031 
L 49.335588 98.873278 
L 49.353233 99.605189 
L 54.904752 96.758879 
L 64.357409 91.019924 
L 63.030862 92.357976 
L 58.50701 96.099003 
L 57.930666 97.121431 
L 62.563645 94.121533 
L 79.290731 81.081094 
L 72.44903 86.850964 
L 64.632644 93.882039 
L 68.085833 91.259678 
L 76.283333 84.006953 
L 75.61345 84.786435 
L 68.85365 91.70635 
L 70.066555 90.856332 
L 75.040472 85.898706 
L 69.564277 92.607029 
L 76.716528 84.680522 
L 72.970445 89.635804 
L 71.893285 91.409547 
L 77.261058 84.591496 
L 70.180738 95.252772 
L 68.88061 97.833522 
L 74.195031 90.017986 
L 73.630642 91.34639 
L 69.026482 99.771664 
L 70.268474 98.341271 
L 75.63021 89.024983 
L 71.438163 97.633083 
L 73.918611 93.32278 
L 80.07412 80.742413 
L 78.361192 84.800428 
L 73.700264 96.565418 
L 75.046489 93.913763 
L 70.884209 107.567359 
L 71.592648 107.01692 
L 72.994928 104.108398 
L 71.77474 109.941368 
L 72.674679 108.663445 
L 74.757862 102.428085 
L 73.94165 107.73441 
L 74.713841 106.466719 
L 79.230915 85.677072 
L 76.908674 99.399741 
L 77.25664 99.368742 
L 79.836676 83.434412 
L 79.613785 85.705886 
L 80.063855 82.336484 
L 78.532341 100.255831 
L 78.885217 100.226319 
L 80.210297 81.610006 
L 79.373254 106.245804 
L 79.827227 106.219321 
L 80.28 81.657406 
L 80.755519 107.522439 
L 81.259447 108.327685 
L 80.337858 81.383997 
L 82.095212 106.238741 
L 82.772113 108.764987 
L 80.666838 83.960515 
L 83.115562 103.373798 
L 84.28554 108.780901 
L 82.667801 95.355981 
L 82.873931 94.990912 
L 85.685708 108.089958 
L 85.544998 105.049867 
L 81.299871 84.697546 
L 86.909839 106.870831 
L 88.176112 109.74869 
L 82.702344 88.727718 
L 88.04026 105.662667 
L 90.810391 112.689212 
L 87.530807 101.337872 
L 88.956636 104.118861 
L 93.227257 114.008757 
L 89.171447 101.226936 
L 95.154029 113.687616 
L 92.843529 107.222576 
L 89.965508 100.138234 
L 96.831776 112.76469 
L 94.628398 107.265411 
L 91.87239 101.193226 
L 99.011925 112.724646 
L 97.24846 108.52026 
L 91.865218 98.820225 
L 100.898512 112.029724 
L 100.625705 110.443748 
L 92.110951 97.176349 
L 101.746179 109.825661 
L 103.433058 111.005146 
L 96.999759 101.680316 
L 102.511672 107.733829 
L 105.73142 110.611821 
L 100.628313 103.688057 
L 104.672981 107.37115 
L 108.888048 110.958375 
L 104.311616 105.165467 
L 105.681445 105.681445 
L 111.818757 110.736624 
L 106.009827 103.44724 
L 113.475699 109.136581 
L 112.038338 106.92841 
L 108.111198 102.81726 
L 115.580587 107.859841 
L 115.376942 106.727443 
L 108.666767 100.904194 
L 116.251137 105.467262 
L 118.526567 106.077635 
L 112.803764 101.40118 
L 115.862524 102.514429 
L 120.586851 104.4988 
L 117.377096 101.698018 
L 115.435068 99.766772 
L 122.685653 102.827486 
L 123.189324 102.143393 
L 118.33644 98.841366 
L 122.559759 99.995376 
L 126.210405 100.729534 
L 123.263301 98.525329 
L 121.75358 97.036414 
L 126.971692 98.203261 
L 127.155288 97.34121 
L 121.964364 94.633078 
L 122.515161 94.003036 
L 127.532963 94.726681 
L 127.862809 93.924151 
L 124.108484 92.023807 
L 126.742368 91.864369 
L 132.333106 92.297406 
L 132.190258 91.313866 
L 126.366859 89.238378 
L 125.786086 88.303951 
L 130.394091 88.217292 
L 132.388485 87.60337 
L 131.454793 86.563474 
L 126.619427 85.15047 
L 134.745062 85.045075 
L 140.701881 84.50511 
L 136.728499 83.23834 
L 137.568951 82.280574 
L 149.840628 81.494185 
L 153.493441 80.28 
L 153.493441 80.28 
" clip-path="url(#pef76aa7326)" style="fill: none; stroke-dasharray: 2.775,1.2; stroke-dashoffset: 0; stroke: #ff0000; stroke-width: 0.75"/>
   </g>
   <g id="patch_3">
    <path d="M 157.55976 80.28 
C 157.55976 70.131715 155.560769 60.082109 151.677189 50.706316 
C 147.793608 41.330523 142.100964 32.810879 134.925042 25.634958 
C 127.749121 18.459036 119.229477 12.766392 109.853684 8.882811 
C 100.477891 4.999231 90.428285 3.00024 80.28 3.00024 
C 70.131715 3.00024 60.082109 4.999231 50.706316 8.882811 
C 41.330523 12.766392 32.810879 18.459036 25.634958 25.634958 
C 18.459036 32.810879 12.766392 41.330523 8.882811 50.706316 
C 4.999231 60.082109 3.00024 70.131715 3.00024 80.28 
C 3.00024 90.428285 4.999231 100.477891 8.882811 109.853684 
C 12.766392 119.229477 18.459036 127.749121 25.634958 134.925042 
C 32.810879 142.100964 41.330523 147.793608 50.706316 151.677189 
C 60.082109 155.560769 70.131715 157.55976 80.28 157.55976 
C 90.428285 157.55976 100.477891 155.560769 109.853684 151.677189 
C 119.229477 147.793608 127.749121 142.100964 134.925042 134.925042 
C 142.100964 127.749121 147.793608 119.229477 151.677189 109.853684 
C 155.560769 100.477891 157.55976 90.428285 157.55976 80.28 
" style="fill: none; stroke: #000000; stroke-width: 0.8; stroke-linejoin: miter; stroke-linecap: square"/>
   </g>
   <g id="legend_1">
    <g id="patch_4">
     <path d="M 73.727758 38.874597 
L 150.55976 38.874597 
Q 152.55976 38.874597 152.55976 36.874597 
L 152.55976 10.00024 
Q 152.55976 8.00024 150.55976 8.00024 
L 73.727758 8.00024 
Q 71.727758 8.00024 71.727758 10.00024 
L 71.727758 36.874597 
Q 71.727758 38.874597 73.727758 38.874597 
z
" style="fill: #ffffff; opacity: 0.8; stroke: #cccccc; stroke-linejoin: miter"/>
    </g>
    <g id="line2d_15">
     <path d="M 75.727758 15.50024 
L 85.727758 15.50024 
L 95.727758 15.50024 
" style="fill: none; stroke: #000000; stroke-width: 0.75; stroke-linecap: square"/>
    </g>
    <g id="text_5">
     <!-- Analytical -->
     <g transform="translate(103.727758 19.00024) scale(0.1 -0.1)">
      <defs>
       <path id="CMR17-41" d="M 2323 4441 
C 2291 4524 2278 4544 2214 4544 
C 2150 4544 2138 4524 2106 4441 
L 749 580 
C 627 236 371 166 147 166 
L 147 0 
C 262 12 518 12 640 12 
C 800 12 1056 12 1210 0 
L 1210 166 
C 909 179 864 382 864 459 
C 864 516 877 548 890 586 
L 1229 1536 
L 2906 1536 
L 3290 453 
C 3322 376 3322 363 3322 338 
C 3322 166 3046 166 2925 166 
L 2925 0 
C 3110 12 3443 12 3642 12 
C 3808 12 4128 12 4282 0 
L 4282 166 
C 3942 166 3827 166 3744 402 
L 2323 4441 
z
M 2067 3924 
L 2848 1702 
L 1286 1702 
L 2067 3924 
z
" transform="scale(0.015625)"/>
       <path id="CMR17-6e" d="M 2656 1954 
C 2656 2282 2592 2816 1837 2816 
C 1331 2816 1069 2424 973 2166 
L 966 2166 
L 966 2816 
L 211 2745 
L 211 2578 
C 589 2578 646 2540 646 2231 
L 646 443 
C 646 198 621 166 211 166 
L 211 0 
C 365 12 646 12 813 12 
C 979 12 1267 12 1421 0 
L 1421 166 
C 1011 166 986 192 986 443 
L 986 1678 
C 986 2269 1344 2713 1792 2713 
C 2266 2713 2317 2289 2317 1980 
L 2317 443 
C 2317 198 2291 166 1882 166 
L 1882 0 
C 2035 12 2317 12 2483 12 
C 2650 12 2938 12 3091 0 
L 3091 166 
C 2682 166 2656 192 2656 443 
L 2656 1954 
z
" transform="scale(0.015625)"/>
       <path id="CMR17-61" d="M 2304 1656 
C 2304 2048 2304 2275 2035 2534 
C 1798 2751 1523 2816 1306 2816 
C 800 2816 435 2408 435 1977 
C 435 1740 627 1728 666 1728 
C 749 1728 896 1779 896 1958 
C 896 2118 774 2188 666 2188 
C 640 2188 608 2182 589 2176 
C 723 2594 1069 2713 1293 2713 
C 1613 2713 1965 2421 1965 1875 
L 1965 1632 
C 1587 1619 1133 1568 774 1373 
C 371 1147 256 822 256 576 
C 256 77 832 -64 1171 -64 
C 1523 -64 1850 135 1990 505 
C 2003 219 2182 -39 2464 -39 
C 2598 -39 2938 51 2938 563 
L 2938 926 
L 2822 926 
L 2822 557 
C 2822 161 2650 109 2566 109 
C 2304 109 2304 446 2304 732 
L 2304 1656 
z
M 1965 887 
C 1965 323 1568 38 1216 38 
C 896 38 646 278 646 576 
C 646 771 730 1114 1101 1322 
C 1408 1497 1760 1523 1965 1536 
L 1965 887 
z
" transform="scale(0.015625)"/>
       <path id="CMR17-6c" d="M 979 4416 
L 218 4345 
L 218 4179 
C 595 4179 653 4141 653 3835 
L 653 439 
C 653 198 627 166 218 166 
L 218 0 
C 371 12 653 12 813 12 
C 979 12 1261 12 1414 0 
L 1414 166 
C 1005 166 979 191 979 439 
L 979 4416 
z
" transform="scale(0.015625)"/>
       <path id="CMR17-79" d="M 2496 2183 
C 2656 2579 2944 2585 3034 2585 
L 3034 2752 
C 2912 2745 2752 2739 2630 2739 
C 2496 2739 2285 2739 2157 2752 
L 2157 2585 
C 2400 2566 2406 2384 2406 2332 
C 2406 2268 2394 2235 2362 2158 
L 1664 409 
L 902 2300 
C 870 2378 870 2423 870 2430 
C 870 2572 1018 2585 1171 2585 
L 1171 2752 
C 1018 2739 742 2739 582 2739 
C 410 2739 205 2739 64 2752 
L 64 2585 
C 410 2585 448 2553 531 2345 
L 1485 -31 
C 1197 -795 1030 -1242 627 -1242 
C 557 -1242 397 -1223 282 -1106 
C 429 -1093 493 -1002 493 -892 
C 493 -782 416 -685 288 -685 
C 147 -685 77 -782 77 -899 
C 77 -1158 339 -1344 627 -1344 
C 998 -1344 1229 -983 1357 -659 
L 2496 2183 
z
" transform="scale(0.015625)"/>
       <path id="CMR17-74" d="M 966 2585 
L 1862 2585 
L 1862 2752 
L 966 2752 
L 966 3968 
L 851 3968 
C 838 3292 614 2700 70 2687 
L 70 2585 
L 627 2585 
L 627 778 
C 627 655 627 -64 1370 -64 
C 1747 -64 1965 308 1965 784 
L 1965 1151 
L 1850 1151 
L 1850 790 
C 1850 347 1677 51 1408 51 
C 1222 51 966 179 966 765 
L 966 2585 
z
" transform="scale(0.015625)"/>
       <path id="CMR17-69" d="M 992 3961 
C 992 4102 877 4224 730 4224 
C 589 4224 467 4108 467 3961 
C 467 3820 582 3699 730 3699 
C 870 3699 992 3814 992 3961 
z
M 243 2745 
L 243 2579 
C 602 2579 653 2540 653 2231 
L 653 443 
C 653 198 627 166 218 166 
L 218 0 
C 371 12 646 12 806 12 
C 960 12 1222 12 1370 0 
L 1370 166 
C 992 166 979 205 979 436 
L 979 2816 
L 243 2745 
z
" transform="scale(0.015625)"/>
       <path id="CMR17-63" d="M 2234 2240 
C 2112 2240 1933 2240 1933 2015 
C 1933 1836 2080 1785 2163 1785 
C 2208 1785 2394 1804 2394 2028 
C 2394 2476 1958 2816 1466 2816 
C 787 2816 211 2201 211 1379 
C 211 521 813 -64 1466 -64 
C 2259 -64 2458 676 2458 747 
C 2458 773 2451 792 2406 792 
C 2362 792 2355 786 2330 702 
C 2163 180 1798 51 1523 51 
C 1114 51 621 431 621 1385 
C 621 2358 1094 2700 1472 2700 
C 1722 2700 2093 2582 2234 2240 
z
" transform="scale(0.015625)"/>
      </defs>
      <use xlink:href="#CMR17-41" transform="scale(0.996264)"/>
      <use xlink:href="#CMR17-6e" transform="translate(69.07243 0) scale(0.996264)"/>
      <use xlink:href="#CMR17-61" transform="translate(119.9678 0) scale(0.996264)"/>
      <use xlink:href="#CMR17-6c" transform="translate(165.658277 0) scale(0.996264)"/>
      <use xlink:href="#CMR17-79" transform="translate(190.529335 0) scale(0.996264)"/>
      <use xlink:href="#CMR17-74" transform="translate(238.822251 0) scale(0.996264)"/>
      <use xlink:href="#CMR17-69" transform="translate(274.103019 0) scale(0.996264)"/>
      <use xlink:href="#CMR17-63" transform="translate(298.974077 0) scale(0.996264)"/>
      <use xlink:href="#CMR17-61" transform="translate(339.459738 0) scale(0.996264)"/>
      <use xlink:href="#CMR17-6c" transform="translate(385.150215 0) scale(0.996264)"/>
     </g>
    </g>
    <g id="line2d_16">
     <path d="M 75.727758 29.437418 
L 85.727758 29.437418 
L 95.727758 29.437418 
" style="fill: none; stroke-dasharray: 2.775,1.2; stroke-dashoffset: 0; stroke: #ff0000; stroke-width: 0.75"/>
    </g>
    <g id="text_6">
     <!-- LBM -->
     <g transform="translate(103.727758 32.937418) scale(0.1 -0.1)">
      <defs>
       <path id="CMR17-4c" d="M 3469 1612 
L 3354 1612 
C 3302 981 3219 166 2125 166 
L 1530 166 
C 1274 166 1261 198 1261 414 
L 1261 3892 
C 1261 4121 1274 4185 1760 4185 
L 1901 4185 
L 1901 4352 
C 1638 4339 1331 4339 1069 4339 
C 870 4339 512 4339 326 4352 
L 326 4185 
C 768 4185 838 4185 838 3898 
L 838 453 
C 838 166 768 166 326 166 
L 326 0 
L 3315 0 
L 3469 1612 
z
" transform="scale(0.015625)"/>
       <path id="CMR17-42" d="M 333 4352 
L 333 4185 
C 774 4185 845 4185 845 3897 
L 845 451 
C 845 166 774 166 333 166 
L 333 0 
L 2534 0 
C 3354 0 3885 578 3885 1155 
C 3885 1726 3360 2214 2675 2259 
C 3290 2380 3718 2790 3718 3276 
C 3718 3808 3194 4352 2368 4352 
L 333 4352 
z
M 1248 2304 
L 1248 3936 
C 1248 4153 1261 4185 1517 4185 
L 2336 4185 
C 2970 4185 3251 3673 3251 3276 
C 3251 2790 2861 2304 2170 2304 
L 1248 2304 
z
M 1517 166 
C 1261 166 1248 198 1248 413 
L 1248 2201 
L 2432 2201 
C 3091 2201 3411 1624 3411 1161 
C 3411 698 3046 166 2349 166 
L 1517 166 
z
" transform="scale(0.015625)"/>
       <path id="CMR17-4d" d="M 1338 4249 
C 1299 4345 1293 4352 1158 4352 
L 339 4352 
L 339 4185 
C 781 4185 851 4185 851 3898 
L 851 624 
C 851 465 851 166 339 166 
L 339 0 
C 486 12 755 12 915 12 
C 1075 12 1344 12 1491 0 
L 1491 166 
C 979 166 979 465 979 624 
L 979 4159 
L 986 4159 
L 2490 102 
C 2515 38 2528 0 2579 0 
C 2630 0 2643 38 2669 102 
L 4186 4191 
L 4192 4191 
L 4192 453 
C 4192 166 4122 166 3680 166 
L 3680 0 
C 3853 12 4198 12 4384 12 
C 4570 12 4922 12 5094 0 
L 5094 166 
C 4653 166 4582 166 4582 453 
L 4582 3898 
C 4582 4185 4653 4185 5094 4185 
L 5094 4352 
L 4282 4352 
C 4147 4352 4141 4345 4102 4249 
L 2720 516 
L 1338 4249 
z
" transform="scale(0.015625)"/>
      </defs>
      <use xlink:href="#CMR17-4c" transform="scale(0.996264)"/>
      <use xlink:href="#CMR17-42" transform="translate(57.381408 0) scale(0.996264)"/>
      <use xlink:href="#CMR17-4d" transform="translate(122.570162 0) scale(0.996264)"/>
     </g>
    </g>
   </g>
  </g>
  <g id="axes_2">
   <g id="patch_5">
    <path d="M 75.28 144.831784 
L 152.55976 144.831784 
L 152.55976 113.91988 
L 75.28 113.91988 
z
" style="fill: #ffffff"/>
   </g>
   <g id="matplotlib.axis_3">
    <g id="xtick_9">
     <g id="line2d_17">
      <path d="M 75.28 144.831784 
L 75.28 113.91988 
" clip-path="url(#pf70b0b5836)" style="fill: none; stroke: #b0b0b0; stroke-width: 0.8; stroke-linecap: square"/>
     </g>
     <g id="line2d_18">
      <defs>
       <path id="m751b070e39" d="M 0 0 
L 0 3.5 
" style="stroke: #000000; stroke-width: 0.8"/>
      </defs>
      <g>
       <use xlink:href="#m751b070e39" x="75.28" y="144.831784" style="stroke: #000000; stroke-width: 0.8"/>
      </g>
     </g>
     <g id="text_7">
      <!-- 270 -->
      <g transform="translate(67.807997 158.750282) scale(0.1 -0.1)">
       <defs>
        <path id="CMR17-37" d="M 2886 3955 
L 2886 4096 
L 1382 4096 
C 634 4096 621 4166 595 4288 
L 480 4288 
L 294 3104 
L 410 3104 
C 429 3226 474 3552 550 3673 
C 589 3724 1062 3724 1171 3724 
L 2579 3724 
L 1869 2670 
C 1395 1961 1069 1003 1069 166 
C 1069 89 1069 -128 1299 -128 
C 1530 -128 1530 89 1530 172 
L 1530 466 
C 1530 1514 1709 2204 2003 2644 
L 2886 3955 
z
" transform="scale(0.015625)"/>
       </defs>
       <use xlink:href="#CMR17-32" transform="scale(0.996264)"/>
       <use xlink:href="#CMR17-37" transform="translate(45.690477 0) scale(0.996264)"/>
       <use xlink:href="#CMR17-30" transform="translate(91.380954 0) scale(0.996264)"/>
      </g>
     </g>
    </g>
    <g id="xtick_10">
     <g id="line2d_19">
      <path d="M 152.55976 144.831784 
L 152.55976 113.91988 
" clip-path="url(#pf70b0b5836)" style="fill: none; stroke: #b0b0b0; stroke-width: 0.8; stroke-linecap: square"/>
     </g>
     <g id="line2d_20">
      <g>
       <use xlink:href="#m751b070e39" x="152.55976" y="144.831784" style="stroke: #000000; stroke-width: 0.8"/>
      </g>
     </g>
     <g id="text_8">
      <!-- 300 -->
      <g transform="translate(145.087757 158.750282) scale(0.1 -0.1)">
       <use xlink:href="#CMR17-33" transform="scale(0.996264)"/>
       <use xlink:href="#CMR17-30" transform="translate(45.690477 0) scale(0.996264)"/>
       <use xlink:href="#CMR17-30" transform="translate(91.380954 0) scale(0.996264)"/>
      </g>
     </g>
    </g>
   </g>
   <g id="matplotlib.axis_4">
    <g id="ytick_6">
     <g id="line2d_21">
      <defs>
       <path id="m3b81496fbe" d="M 0 0 
L -2 0 
" style="stroke: #000000; stroke-width: 0.6"/>
      </defs>
      <g>
       <use xlink:href="#m3b81496fbe" x="75.28" y="144.831784" style="stroke: #000000; stroke-width: 0.6"/>
      </g>
     </g>
    </g>
    <g id="ytick_7">
     <g id="line2d_22">
      <g>
       <use xlink:href="#m3b81496fbe" x="75.28" y="136.697072" style="stroke: #000000; stroke-width: 0.6"/>
      </g>
     </g>
    </g>
    <g id="ytick_8">
     <g id="line2d_23">
      <g>
       <use xlink:href="#m3b81496fbe" x="75.28" y="118.327706" style="stroke: #000000; stroke-width: 0.6"/>
      </g>
     </g>
    </g>
   </g>
   <g id="line2d_24">
    <path d="M -1 126.64312 
L 0.576232 127.15559 
L 3.152224 135.729998 
L 5.728216 132.162442 
L 8.304208 133.625842 
L 10.8802 142.787085 
L 13.456192 144.79458 
L 16.032184 142.440377 
L 18.608176 131.549913 
L 21.184168 129.959456 
L 23.76016 128.769565 
L 26.336152 122.03282 
L 28.912144 121.789185 
L 31.488136 124.465245 
L 34.064128 120.343586 
L 36.64012 120.659796 
L 39.216112 126.073343 
L 41.792104 122.266434 
L 44.368096 122.790274 
L 46.944088 139.229037 
L 49.52008 130.417134 
L 52.096072 128.983093 
L 54.672064 142.450619 
L 57.248056 140.483027 
L 59.824048 142.81443 
L 62.40004 128.300733 
L 64.976032 128.034584 
L 67.552024 144.230306 
L 70.128016 123.615136 
L 72.704008 123.065252 
L 75.28 143.079868 
L 77.855992 122.834214 
L 80.431984 121.649759 
L 83.007976 142.966267 
L 85.583968 123.675721 
L 88.15996 121.640913 
L 90.735952 142.413429 
L 93.311944 125.836461 
L 95.887936 121.859829 
L 98.463928 134.253453 
L 101.03992 132.832537 
L 103.615912 122.396231 
L 106.191904 124.897135 
L 108.767896 141.283819 
L 111.343888 122.41487 
L 113.91988 120.133154 
L 116.495872 139.910809 
L 119.071864 121.985984 
L 121.647856 116.672133 
L 124.223848 127.421521 
L 126.79984 123.108614 
L 129.375832 115.142598 
L 131.951824 122.751451 
L 134.527816 125.921022 
L 137.103808 115.252324 
L 139.6798 121.017842 
L 142.255792 127.063265 
L 144.831784 115.588162 
L 147.407776 120.188431 
L 149.983768 125.568451 
L 152.55976 114.87026 
L 155.135752 118.219382 
L 157.711744 126.223565 
L 160.287736 114.05307 
L 161.56 114.585657 
L 161.56 114.585657 
" clip-path="url(#pf70b0b5836)" style="fill: none; stroke: #000000; stroke-width: 0.75; stroke-linecap: square"/>
   </g>
   <g id="line2d_25">
    <path d="M -1 127.012292 
L 0.576232 127.941481 
L 3.152224 136.730899 
L 5.728216 128.902211 
L 8.304208 132.962668 
L 10.8802 143.859272 
L 13.456192 144.417776 
L 16.032184 140.815153 
L 18.608176 130.465599 
L 21.184168 132.887162 
L 23.76016 128.357838 
L 26.336152 121.22701 
L 28.912144 121.837842 
L 31.488136 124.451655 
L 34.064128 119.59361 
L 36.64012 120.797581 
L 39.216112 126.16195 
L 41.792104 121.78573 
L 44.368096 122.93476 
L 46.944088 140.334813 
L 49.52008 128.952207 
L 52.096072 129.02419 
L 54.672064 142.226387 
L 57.248056 140.36054 
L 59.824048 143.140489 
L 62.40004 128.430833 
L 64.976032 128.477544 
L 67.552024 143.742459 
L 70.128016 123.581007 
L 72.704008 123.612382 
L 75.28 143.705183 
L 77.855992 122.546379 
L 80.431984 121.877167 
L 83.007976 143.927569 
L 85.583968 123.547883 
L 88.15996 121.444478 
L 90.735952 141.804852 
L 93.311944 125.801159 
L 95.887936 121.291364 
L 98.463928 132.3472 
L 101.03992 132.613885 
L 103.615912 121.659857 
L 106.191904 124.119515 
L 108.767896 141.123563 
L 111.343888 122.416916 
L 113.91988 119.87863 
L 116.495872 137.643816 
L 119.071864 123.122309 
L 121.647856 116.959629 
L 124.223848 126.615793 
L 126.79984 124.082263 
L 129.375832 115.281817 
L 131.951824 122.248706 
L 134.527816 126.219365 
L 137.103808 114.921281 
L 139.6798 120.516923 
L 142.255792 126.760507 
L 144.831784 115.01188 
L 147.407776 119.833943 
L 149.983768 125.274427 
L 152.55976 114.189523 
L 155.135752 117.884718 
L 157.711744 126.950327 
L 160.287736 113.867792 
L 161.56 114.46289 
L 161.56 114.46289 
" clip-path="url(#pf70b0b5836)" style="fill: none; stroke-dasharray: 2.775,1.2; stroke-dashoffset: 0; stroke: #ff0000; stroke-width: 0.75"/>
   </g>
   <g id="patch_6">
    <path d="M 75.28 144.831784 
L 75.28 113.91988 
" style="fill: none; stroke: #000000; stroke-width: 0.8; stroke-linejoin: miter; stroke-linecap: square"/>
   </g>
   <g id="patch_7">
    <path d="M 152.55976 144.831784 
L 152.55976 113.91988 
" style="fill: none; stroke: #000000; stroke-width: 0.8; stroke-linejoin: miter; stroke-linecap: square"/>
   </g>
   <g id="patch_8">
    <path d="M 75.28 144.831784 
L 152.55976 144.831784 
" style="fill: none; stroke: #000000; stroke-width: 0.8; stroke-linejoin: miter; stroke-linecap: square"/>
   </g>
   <g id="patch_9">
    <path d="M 75.28 113.91988 
L 152.55976 113.91988 
" style="fill: none; stroke: #000000; stroke-width: 0.8; stroke-linejoin: miter; stroke-linecap: square"/>
   </g>
  </g>
 </g>
 <defs>
  <clipPath id="pef76aa7326">
   <path d="M 157.55976 80.28 
C 157.55976 70.131715 155.560769 60.082109 151.677189 50.706316 
C 147.793608 41.330523 142.100964 32.810879 134.925042 25.634958 
C 127.749121 18.459036 119.229477 12.766392 109.853684 8.882811 
C 100.477891 4.999231 90.428285 3.00024 80.28 3.00024 
C 70.131715 3.00024 60.082109 4.999231 50.706316 8.882811 
C 41.330523 12.766392 32.810879 18.459036 25.634958 25.634958 
C 18.459036 32.810879 12.766392 41.330523 8.882811 50.706316 
C 4.999231 60.082109 3.00024 70.131715 3.00024 80.28 
C 3.00024 90.428285 4.999231 100.477891 8.882811 109.853684 
C 12.766392 119.229477 18.459036 127.749121 25.634958 134.925042 
C 32.810879 142.100964 41.330523 147.793608 50.706316 151.677189 
C 60.082109 155.560769 70.131715 157.55976 80.28 157.55976 
C 90.428285 157.55976 100.477891 155.560769 109.853684 151.677189 
C 119.229477 147.793608 127.749121 142.100964 134.925042 134.925042 
C 142.100964 127.749121 147.793608 119.229477 151.677189 109.853684 
C 155.560769 100.477891 157.55976 90.428285 157.55976 80.28 
M 80.28 80.28 
C 80.28 80.28 80.28 80.28 80.28 80.28 
C 80.28 80.28 80.28 80.28 80.28 80.28 
C 80.28 80.28 80.28 80.28 80.28 80.28 
C 80.28 80.28 80.28 80.28 80.28 80.28 
C 80.28 80.28 80.28 80.28 80.28 80.28 
C 80.28 80.28 80.28 80.28 80.28 80.28 
C 80.28 80.28 80.28 80.28 80.28 80.28 
C 80.28 80.28 80.28 80.28 80.28 80.28 
C 80.28 80.28 80.28 80.28 80.28 80.28 
C 80.28 80.28 80.28 80.28 80.28 80.28 
C 80.28 80.28 80.28 80.28 80.28 80.28 
C 80.28 80.28 80.28 80.28 80.28 80.28 
C 80.28 80.28 80.28 80.28 80.28 80.28 
C 80.28 80.28 80.28 80.28 80.28 80.28 
C 80.28 80.28 80.28 80.28 80.28 80.28 
C 80.28 80.28 80.28 80.28 80.28 80.28 
M 157.55976 80.28 
z
"/>
  </clipPath>
  <clipPath id="pf70b0b5836">
   <rect x="75.28" y="113.91988" width="77.27976" height="30.911904"/>
  </clipPath>
 </defs>
</svg>
