<?xml version="1.0" encoding="utf-8" standalone="no"?>
<!DOCTYPE svg PUBLIC "-//W3C//DTD SVG 1.1//EN"
  "http://www.w3.org/Graphics/SVG/1.1/DTD/svg11.dtd">
<svg xmlns:xlink="http://www.w3.org/1999/xlink" width="160.56pt" height="160.56pt" viewBox="0 0 160.56 160.56" xmlns="http://www.w3.org/2000/svg" version="1.1">
 <metadata>
  <rdf:RDF xmlns:dc="http://purl.org/dc/elements/1.1/" xmlns:cc="http://creativecommons.org/ns#" xmlns:rdf="http://www.w3.org/1999/02/22-rdf-syntax-ns#">
   <cc:Work>
    <dc:type rdf:resource="http://purl.org/dc/dcmitype/StillImage"/>
    <dc:date>2025-04-17T16:05:23.330207</dc:date>
    <dc:format>image/svg+xml</dc:format>
    <dc:creator>
     <cc:Agent>
      <dc:title>Matplotlib v3.8.0, https://matplotlib.org/</dc:title>
     </cc:Agent>
    </dc:creator>
   </cc:Work>
  </rdf:RDF>
 </metadata>
 <defs>
  <style type="text/css">*{stroke-linejoin: round; stroke-linecap: butt}</style>
 </defs>
 <g id="figure_1">
  <g id="patch_1">
   <path d="M 0 160.56 
L 160.56 160.56 
L 160.56 0 
L 0 0 
z
" style="fill: #ffffff"/>
  </g>
  <g id="axes_1">
   <g id="patch_2">
    <path d="M 157.55976 80.28 
C 157.55976 70.131715 155.560769 60.082109 151.677189 50.706316 
C 147.793608 41.330523 142.100964 32.810879 134.925042 25.634958 
C 127.749121 18.459036 119.229477 12.766392 109.853684 8.882811 
C 100.477891 4.999231 90.428285 3.00024 80.28 3.00024 
C 70.131715 3.00024 60.082109 4.999231 50.706316 8.882811 
C 41.330523 12.766392 32.810879 18.459036 25.634958 25.634958 
C 18.459036 32.810879 12.766392 41.330523 8.882811 50.706316 
C 4.999231 60.082109 3.00024 70.131715 3.00024 80.28 
C 3.00024 90.428285 4.999231 100.477891 8.882811 109.853684 
C 12.766392 119.229477 18.459036 127.749121 25.634958 134.925042 
C 32.810879 142.100964 41.330523 147.793608 50.706316 151.677189 
C 60.082109 155.560769 70.131715 157.55976 80.28 157.55976 
C 90.428285 157.55976 100.477891 155.560769 109.853684 151.677189 
C 119.229477 147.793608 127.749121 142.100964 134.925042 134.925042 
C 142.100964 127.749121 147.793608 119.229477 151.677189 109.853684 
C 155.560769 100.477891 157.55976 90.428285 157.55976 80.28 
M 80.28 80.28 
C 80.28 80.28 80.28 80.28 80.28 80.28 
C 80.28 80.28 80.28 80.28 80.28 80.28 
C 80.28 80.28 80.28 80.28 80.28 80.28 
C 80.28 80.28 80.28 80.28 80.28 80.28 
C 80.28 80.28 80.28 80.28 80.28 80.28 
C 80.28 80.28 80.28 80.28 80.28 80.28 
C 80.28 80.28 80.28 80.28 80.28 80.28 
C 80.28 80.28 80.28 80.28 80.28 80.28 
C 80.28 80.28 80.28 80.28 80.28 80.28 
C 80.28 80.28 80.28 80.28 80.28 80.28 
C 80.28 80.28 80.28 80.28 80.28 80.28 
C 80.28 80.28 80.28 80.28 80.28 80.28 
C 80.28 80.28 80.28 80.28 80.28 80.28 
C 80.28 80.28 80.28 80.28 80.28 80.28 
C 80.28 80.28 80.28 80.28 80.28 80.28 
C 80.28 80.28 80.28 80.28 80.28 80.28 
z
" style="fill: #ffffff"/>
   </g>
   <g id="matplotlib.axis_1">
    <g id="xtick_1">
     <g id="line2d_1">
      <path d="M 80.28 80.28 
L 134.925042 25.634958 
" clip-path="url(#p956cf52dc0)" style="fill: none; stroke: #b0b0b0; stroke-width: 0.8; stroke-linecap: square"/>
     </g>
     <g id="text_1">
      <!-- $45^o$ -->
      <g transform="translate(137.876965 18.226123) scale(0.1 -0.1)">
       <defs>
        <path id="CMR17-34" d="M 2150 4122 
C 2150 4256 2144 4256 2029 4256 
L 128 1254 
L 128 1088 
L 1779 1088 
L 1779 457 
C 1779 224 1766 160 1318 160 
L 1197 160 
L 1197 0 
C 1402 0 1747 0 1965 0 
C 2182 0 2528 0 2733 0 
L 2733 160 
L 2611 160 
C 2163 160 2150 224 2150 457 
L 2150 1088 
L 2803 1088 
L 2803 1254 
L 2150 1254 
L 2150 4122 
z
M 1798 3703 
L 1798 1254 
L 256 1254 
L 1798 3703 
z
" transform="scale(0.015625)"/>
        <path id="CMR17-35" d="M 730 3692 
C 794 3666 1056 3584 1325 3584 
C 1920 3584 2246 3911 2432 4100 
C 2432 4157 2432 4192 2394 4192 
C 2387 4192 2374 4192 2323 4163 
C 2099 4058 1837 3973 1517 3973 
C 1325 3973 1037 3999 723 4139 
C 653 4171 640 4171 634 4171 
C 602 4171 595 4164 595 4037 
L 595 2203 
C 595 2089 595 2057 659 2057 
C 691 2057 704 2070 736 2114 
C 941 2401 1222 2522 1542 2522 
C 1766 2522 2246 2382 2246 1289 
C 2246 1085 2246 715 2054 421 
C 1894 159 1645 25 1370 25 
C 947 25 518 320 403 814 
C 429 807 480 795 506 795 
C 589 795 749 840 749 1038 
C 749 1210 627 1280 506 1280 
C 358 1280 262 1190 262 1011 
C 262 454 704 -128 1382 -128 
C 2042 -128 2669 440 2669 1264 
C 2669 2030 2170 2624 1549 2624 
C 1222 2624 947 2503 730 2274 
L 730 3692 
z
" transform="scale(0.015625)"/>
        <path id="CMMI12-6f" d="M 2918 1756 
C 2918 2363 2522 2816 1939 2816 
C 1094 2816 262 1897 262 996 
C 262 390 659 -64 1242 -64 
C 2093 -64 2918 856 2918 1756 
z
M 1248 64 
C 928 64 691 319 691 766 
C 691 1060 845 1712 1024 2031 
C 1312 2523 1670 2689 1933 2689 
C 2246 2689 2490 2433 2490 1986 
C 2490 1731 2355 1047 2112 658 
C 1850 230 1498 64 1248 64 
z
" transform="scale(0.015625)"/>
       </defs>
       <use xlink:href="#CMR17-34" transform="scale(0.996264)"/>
       <use xlink:href="#CMR17-35" transform="translate(45.690477 0) scale(0.996264)"/>
       <use xlink:href="#CMMI12-6f" transform="translate(91.380954 36.153639) scale(0.697382)"/>
      </g>
     </g>
    </g>
    <g id="xtick_2">
     <g id="line2d_2">
      <path d="M 80.28 80.28 
L 25.634958 25.634958 
" clip-path="url(#p956cf52dc0)" style="fill: none; stroke: #b0b0b0; stroke-width: 0.8; stroke-linecap: square"/>
     </g>
     <g id="text_2">
      <!-- $135^o$ -->
      <g transform="translate(6.297223 18.226123) scale(0.1 -0.1)">
       <defs>
        <path id="CMR17-31" d="M 1702 4058 
C 1702 4192 1696 4192 1606 4192 
C 1357 3916 979 3827 621 3827 
C 602 3827 570 3827 563 3808 
C 557 3795 557 3782 557 3648 
C 755 3648 1088 3686 1344 3839 
L 1344 461 
C 1344 236 1331 160 781 160 
L 589 160 
L 589 0 
C 896 0 1216 0 1523 0 
C 1830 0 2150 0 2458 0 
L 2458 160 
L 2266 160 
C 1715 160 1702 230 1702 458 
L 1702 4058 
z
" transform="scale(0.015625)"/>
        <path id="CMR17-33" d="M 1414 2157 
C 1984 2157 2234 1662 2234 1090 
C 2234 320 1824 25 1453 25 
C 1114 25 563 194 390 693 
C 422 680 454 680 486 680 
C 640 680 755 782 755 948 
C 755 1133 614 1216 486 1216 
C 378 1216 211 1165 211 926 
C 211 335 787 -128 1466 -128 
C 2176 -128 2720 430 2720 1085 
C 2720 1707 2208 2157 1600 2227 
C 2086 2328 2554 2756 2554 3329 
C 2554 3820 2048 4179 1472 4179 
C 890 4179 378 3829 378 3329 
C 378 3110 544 3072 627 3072 
C 762 3072 877 3155 877 3321 
C 877 3486 762 3569 627 3569 
C 602 3569 570 3569 544 3557 
C 730 3959 1235 4032 1459 4032 
C 1683 4032 2106 3925 2106 3320 
C 2106 3143 2080 2828 1862 2550 
C 1670 2304 1453 2304 1242 2284 
C 1210 2284 1062 2269 1037 2269 
C 992 2263 966 2257 966 2208 
C 966 2163 973 2157 1101 2157 
L 1414 2157 
z
" transform="scale(0.015625)"/>
       </defs>
       <use xlink:href="#CMR17-31" transform="scale(0.996264)"/>
       <use xlink:href="#CMR17-33" transform="translate(45.690477 0) scale(0.996264)"/>
       <use xlink:href="#CMR17-35" transform="translate(91.380954 0) scale(0.996264)"/>
       <use xlink:href="#CMMI12-6f" transform="translate(137.071431 36.153639) scale(0.697382)"/>
      </g>
     </g>
    </g>
    <g id="xtick_3">
     <g id="line2d_3">
      <path d="M 80.28 80.28 
L 25.634958 134.925042 
" clip-path="url(#p956cf52dc0)" style="fill: none; stroke: #b0b0b0; stroke-width: 0.8; stroke-linecap: square"/>
     </g>
     <g id="text_3">
      <!-- $225^o$ -->
      <g transform="translate(6.297223 147.315197) scale(0.1 -0.1)">
       <defs>
        <path id="CMR17-32" d="M 2669 989 
L 2554 989 
C 2490 536 2438 459 2413 420 
C 2381 369 1920 369 1830 369 
L 602 369 
C 832 619 1280 1072 1824 1597 
C 2214 1967 2669 2402 2669 3035 
C 2669 3790 2067 4224 1395 4224 
C 691 4224 262 3604 262 3030 
C 262 2780 448 2748 525 2748 
C 589 2748 781 2787 781 3010 
C 781 3207 614 3264 525 3264 
C 486 3264 448 3258 422 3245 
C 544 3790 915 4058 1306 4058 
C 1862 4058 2227 3617 2227 3035 
C 2227 2479 1901 2000 1536 1584 
L 262 146 
L 262 0 
L 2515 0 
L 2669 989 
z
" transform="scale(0.015625)"/>
       </defs>
       <use xlink:href="#CMR17-32" transform="scale(0.996264)"/>
       <use xlink:href="#CMR17-32" transform="translate(45.690477 0) scale(0.996264)"/>
       <use xlink:href="#CMR17-35" transform="translate(91.380954 0) scale(0.996264)"/>
       <use xlink:href="#CMMI12-6f" transform="translate(137.071431 36.153639) scale(0.697382)"/>
      </g>
     </g>
    </g>
    <g id="xtick_4">
     <g id="line2d_4">
      <path d="M 80.28 80.28 
L 134.925042 134.925042 
" clip-path="url(#p956cf52dc0)" style="fill: none; stroke: #b0b0b0; stroke-width: 0.8; stroke-linecap: square"/>
     </g>
     <g id="text_4">
      <!-- $315^o$ -->
      <g transform="translate(135.386298 147.315197) scale(0.1 -0.1)">
       <use xlink:href="#CMR17-33" transform="scale(0.996264)"/>
       <use xlink:href="#CMR17-31" transform="translate(45.690477 0) scale(0.996264)"/>
       <use xlink:href="#CMR17-35" transform="translate(91.380954 0) scale(0.996264)"/>
       <use xlink:href="#CMMI12-6f" transform="translate(137.071431 36.153639) scale(0.697382)"/>
      </g>
     </g>
    </g>
   </g>
   <g id="matplotlib.axis_2">
    <g id="ytick_1">
     <g id="line2d_5">
      <path d="M 98.05984 80.28 
C 98.05984 77.945173 97.59993 75.633049 96.70643 73.47595 
C 95.81293 71.318851 94.503217 69.358727 92.852245 67.707755 
C 91.201273 66.056783 89.241149 64.74707 87.08405 63.85357 
C 84.926951 62.96007 82.614827 62.50016 80.28 62.50016 
C 77.945173 62.50016 75.633049 62.96007 73.47595 63.85357 
C 71.318851 64.74707 69.358727 66.056783 67.707755 67.707755 
C 66.056783 69.358727 64.74707 71.318851 63.85357 73.47595 
C 62.96007 75.633049 62.50016 77.945173 62.50016 80.28 
C 62.50016 82.614827 62.96007 84.926951 63.85357 87.08405 
C 64.74707 89.241149 66.056783 91.201273 67.707755 92.852245 
C 69.358727 94.503217 71.318851 95.81293 73.47595 96.70643 
C 75.633049 97.59993 77.945173 98.05984 80.28 98.05984 
C 82.614827 98.05984 84.926951 97.59993 87.08405 96.70643 
C 89.241149 95.81293 91.201273 94.503217 92.852245 92.852245 
C 94.503217 91.201273 95.81293 89.241149 96.70643 87.08405 
C 97.59993 84.926951 98.05984 82.614827 98.05984 80.28 
" clip-path="url(#p956cf52dc0)" style="fill: none; stroke: #b0b0b0; stroke-width: 0.8; stroke-linecap: square"/>
     </g>
     <g id="text_5">
      <!-- $\mathdefault{10^{0}}$ -->
      <g transform="translate(70.081903 92.907214) scale(0.1 -0.1)">
       <defs>
        <path id="CMR17-30" d="M 2688 2025 
C 2688 2416 2682 3080 2413 3591 
C 2176 4039 1798 4198 1466 4198 
C 1158 4198 768 4058 525 3597 
C 269 3118 243 2524 243 2025 
C 243 1661 250 1106 448 619 
C 723 -39 1216 -128 1466 -128 
C 1760 -128 2208 -7 2470 600 
C 2662 1042 2688 1559 2688 2025 
z
M 1466 -26 
C 1056 -26 813 325 723 812 
C 653 1188 653 1738 653 2096 
C 653 2588 653 2997 736 3387 
C 858 3929 1216 4096 1466 4096 
C 1728 4096 2067 3923 2189 3400 
C 2272 3036 2278 2607 2278 2096 
C 2278 1680 2278 1169 2202 792 
C 2067 95 1690 -26 1466 -26 
z
" transform="scale(0.015625)"/>
       </defs>
       <use xlink:href="#CMR17-31" transform="scale(0.996264)"/>
       <use xlink:href="#CMR17-30" transform="translate(45.690477 0) scale(0.996264)"/>
       <use xlink:href="#CMR17-30" transform="translate(91.380954 36.153639) scale(0.697382)"/>
      </g>
     </g>
    </g>
    <g id="ytick_2">
     <g id="line2d_6">
      <path d="M 138.209314 80.28 
C 138.209314 72.672792 136.71086 65.139555 133.799708 58.111411 
C 130.888555 51.083268 126.621319 44.696897 121.242211 39.317789 
C 115.863103 33.938681 109.476732 29.671445 102.448589 26.760292 
C 95.420445 23.84914 87.887208 22.350686 80.28 22.350686 
C 72.672792 22.350686 65.139555 23.84914 58.111411 26.760292 
C 51.083268 29.671445 44.696897 33.938681 39.317789 39.317789 
C 33.938681 44.696897 29.671445 51.083268 26.760292 58.111411 
C 23.84914 65.139555 22.350686 72.672792 22.350686 80.28 
C 22.350686 87.887208 23.84914 95.420445 26.760292 102.448589 
C 29.671445 109.476732 33.938681 115.863103 39.317789 121.242211 
C 44.696897 126.621319 51.083268 130.888555 58.111411 133.799708 
C 65.139555 136.71086 72.672792 138.209314 80.28 138.209314 
C 87.887208 138.209314 95.420445 136.71086 102.448589 133.799708 
C 109.476732 130.888555 115.863103 126.621319 121.242211 121.242211 
C 126.621319 115.863103 130.888555 109.476732 133.799708 102.448589 
C 136.71086 95.420445 138.209314 87.887208 138.209314 80.28 
" clip-path="url(#p956cf52dc0)" style="fill: none; stroke: #b0b0b0; stroke-width: 0.8; stroke-linecap: square"/>
     </g>
     <g id="text_6">
      <!-- $\mathdefault{10^{1}}$ -->
      <g transform="translate(47.05311 125.795738) scale(0.1 -0.1)">
       <use xlink:href="#CMR17-31" transform="scale(0.996264)"/>
       <use xlink:href="#CMR17-30" transform="translate(45.690477 0) scale(0.996264)"/>
       <use xlink:href="#CMR17-31" transform="translate(91.380954 36.153639) scale(0.697382)"/>
      </g>
     </g>
    </g>
    <g id="ytick_3"/>
   </g>
   <g id="line2d_7">
    <path d="M 155.304814 80.28 
L 155.221807 78.971886 
L 154.972622 77.671676 
L 154.556764 76.38732 
L 153.973402 75.126855 
L 153.221365 73.898457 
L 152.299135 72.710484 
L 151.204846 71.571524 
L 149.936292 70.490447 
L 148.490957 69.476446 
L 146.866089 68.539076 
L 145.058831 67.688271 
L 143.066486 66.93432 
L 140.886968 66.287779 
L 138.519596 65.759238 
L 135.966455 65.358859 
L 133.234658 65.095496 
L 130.34008 64.975098 
L 127.31326 64.997967 
L 121.113671 65.417759 
L 113.441948 66.203588 
L 110.92679 66.63517 
L 109.635951 66.591095 
L 109.832834 65.86612 
L 112.210255 63.302382 
L 113.436575 61.137042 
L 113.893067 60.083232 
L 114.187141 59.092467 
L 114.305173 58.183795 
L 114.246756 57.369134 
L 114.019439 56.65539 
L 113.635612 56.045729 
L 113.110781 55.540232 
L 112.46268 55.136135 
L 111.710864 54.827789 
L 109.982437 54.460065 
L 107.184978 54.298165 
L 105.463499 54.201723 
L 102.595768 53.685104 
L 102.199764 53.211345 
L 101.381905 51.23572 
L 100.316028 49.427222 
L 99.481278 48.323707 
L 98.51418 47.384668 
L 97.423633 46.633726 
L 96.237015 46.060071 
L 94.352819 45.448551 
L 88.681636 43.888518 
L 83.613737 42.175207 
L 81.625906 41.738296 
L 79.602888 41.488297 
L 76.880522 41.423788 
L 74.152481 41.592365 
L 70.74293 42.0289 
L 67.338483 42.695105 
L 64.638169 43.430156 
L 61.986429 44.376845 
L 59.408766 45.544433 
L 56.923765 46.92384 
L 54.543201 48.4977 
L 52.276072 50.249464 
L 50.132651 52.167142 
L 48.126065 54.242257 
L 46.271359 56.466893 
L 44.583429 58.831336 
L 43.075303 61.32326 
L 41.757449 63.928147 
L 40.637979 66.630158 
L 39.723254 69.412853 
L 39.018405 72.259558 
L 38.527569 75.153446 
L 38.253823 78.077501 
L 38.19898 81.014527 
L 38.363414 83.947226 
L 38.746016 86.858337 
L 39.344313 89.730748 
L 40.154678 92.547542 
L 41.172485 95.291969 
L 42.392036 97.947448 
L 43.806175 100.497771 
L 45.405675 102.927651 
L 47.178768 105.223568 
L 49.111335 107.374507 
L 51.188143 109.371857 
L 53.394878 111.207795 
L 55.719857 112.872411 
L 58.153825 114.351321 
L 60.686986 115.626732 
L 63.304513 116.68405 
L 65.98399 117.52238 
L 68.69841 118.161675 
L 72.106752 118.73211 
L 75.516479 119.075763 
L 78.243507 119.138595 
L 80.28 119.009149 
L 82.293314 118.696318 
L 84.265703 118.201433 
L 87.440232 117.116201 
L 90.544336 116.075995 
L 96.840221 114.233485 
L 97.982917 113.574345 
L 99.014297 112.728755 
L 99.914675 111.702049 
L 101.041303 109.930214 
L 101.724072 108.737245 
L 102.199764 107.348655 
L 102.595768 106.874896 
L 103.171121 106.613223 
L 104.70482 106.472413 
L 106.2954 106.2954 
L 109.982437 106.099935 
L 111.710864 105.732211 
L 112.46268 105.423865 
L 113.110781 105.019768 
L 113.635612 104.514271 
L 114.019439 103.90461 
L 114.246756 103.190866 
L 114.305173 102.376205 
L 114.187141 101.467533 
L 113.893067 100.476768 
L 112.852823 98.33541 
L 112.210255 97.257618 
L 111.105817 95.986538 
L 109.832834 94.69388 
L 109.635951 93.968905 
L 110.92679 93.92483 
L 113.441948 94.356412 
L 118.164236 94.822396 
L 124.208177 95.405684 
L 127.31326 95.562033 
L 130.34008 95.584902 
L 133.234658 95.464504 
L 135.966455 95.201141 
L 138.519596 94.800762 
L 140.886968 94.272221 
L 143.066486 93.62568 
L 145.058831 92.871729 
L 146.866089 92.020924 
L 148.490957 91.083554 
L 149.936292 90.069553 
L 151.204846 88.988476 
L 152.299135 87.849516 
L 153.221365 86.661543 
L 153.973402 85.433145 
L 154.556764 84.17268 
L 154.972622 82.888324 
L 155.221807 81.588114 
L 155.304814 80.28 
L 155.304814 80.28 
" clip-path="url(#p956cf52dc0)" style="fill: none; stroke: #000000; stroke-width: 0.75; stroke-linecap: square"/>
   </g>
   <g id="line2d_8">
    <path d="M 155.101902 80.28 
L 155.010248 78.975579 
L 154.76882 77.678793 
L 154.376047 76.396791 
L 153.827413 75.137064 
L 153.116786 73.907607 
L 152.237313 72.716982 
L 151.182228 71.574301 
L 149.94544 70.489161 
L 148.521872 69.471549 
L 146.90756 68.531763 
L 145.09961 67.680344 
L 143.096113 66.928023 
L 140.896209 66.285645 
L 138.500473 65.764006 
L 135.91189 65.37348 
L 133.137756 65.123282 
L 130.192989 65.020068 
L 127.105591 65.065443 
L 123.92515 65.25177 
L 117.664549 65.929416 
L 114.897237 66.293729 
L 112.094131 66.775703 
L 108.782856 67.589711 
L 107.402069 67.632771 
L 107.531784 66.988417 
L 108.756922 65.770284 
L 110.686395 64.112633 
L 111.988139 62.703892 
L 113.15603 60.526088 
L 113.525844 59.505691 
L 113.736601 58.553029 
L 113.790169 57.677106 
L 113.68988 56.88615 
L 113.437554 56.189627 
L 113.034146 55.597981 
L 112.482817 55.120402 
L 111.792887 54.761367 
L 110.983027 54.517102 
L 109.127931 54.305206 
L 105.503572 54.160226 
L 102.610467 53.667586 
L 102.146255 53.277424 
L 101.843857 52.679521 
L 101.677267 51.884868 
L 99.589917 48.142902 
L 98.6905 47.066578 
L 97.638121 46.212769 
L 96.427116 45.652398 
L 95.101967 45.361635 
L 92.452324 44.929003 
L 91.220228 44.496125 
L 87.541427 42.923196 
L 86.242672 42.63317 
L 82.947441 42.13381 
L 79.5993 41.282705 
L 78.23628 41.283498 
L 75.524969 41.55338 
L 73.403471 41.281267 
L 71.973525 41.201106 
L 70.60781 41.486964 
L 67.964584 42.377046 
L 65.128218 42.778025 
L 63.821114 43.312738 
L 61.326234 44.633151 
L 59.311907 45.383233 
L 58.108144 46.138336 
L 55.947473 47.989646 
L 52.927919 49.902437 
L 51.959203 50.952957 
L 50.536498 52.543735 
L 47.956821 55.026365 
L 43.659418 60.808491 
L 41.518965 64.619525 
L 40.920157 65.954189 
L 40.493655 67.352633 
L 39.988643 70.234236 
L 39.50772 72.354672 
L 38.540419 75.892993 
L 38.371463 77.34947 
L 38.395819 78.817372 
L 38.742443 83.184589 
L 38.776707 86.112908 
L 39.057455 87.548647 
L 39.824365 89.619919 
L 40.294177 90.994169 
L 40.716142 93.135077 
L 41.054842 94.55679 
L 41.657722 95.884413 
L 43.895898 99.62577 
L 44.866252 101.558727 
L 45.736744 102.712653 
L 48.553733 105.971425 
L 49.973149 107.568411 
L 53.073618 110.495749 
L 57.515142 114.03029 
L 58.718074 114.786295 
L 61.909263 116.334601 
L 63.734511 117.441776 
L 65.090776 117.874648 
L 68.643248 118.342101 
L 71.291961 119.211474 
L 72.694514 119.303942 
L 76.196943 119.127689 
L 78.91516 119.363912 
L 80.28 119.191284 
L 83.613739 118.384808 
L 86.925667 117.969452 
L 88.187878 117.483642 
L 90.606107 116.291413 
L 91.870281 115.951216 
L 94.479551 115.425122 
L 96.362155 114.768292 
L 98.168883 113.924096 
L 99.199275 113.049146 
L 100.002971 111.843351 
L 101.056154 109.951423 
L 101.89105 108.958832 
L 103.687182 107.206883 
L 104.221515 106.869746 
L 104.865977 106.645232 
L 106.524088 106.524088 
L 108.430371 106.530646 
L 110.203223 106.291861 
L 111.721812 105.741078 
L 112.998292 104.935002 
L 113.495959 104.412807 
L 113.842171 103.780485 
L 113.992736 103.019528 
L 113.92003 102.126091 
L 113.623686 101.115447 
L 112.516633 98.891829 
L 111.84976 97.779404 
L 110.544724 96.372039 
L 108.9897 94.908323 
L 108.108552 93.852891 
L 108.143473 93.272951 
L 109.467522 93.275122 
L 112.590715 93.995085 
L 120.919653 95.071624 
L 124.179558 95.39583 
L 127.393249 95.588023 
L 130.458745 95.621182 
L 133.331751 95.492345 
L 136.00464 95.211372 
L 138.488017 94.792889 
L 140.797199 94.251496 
L 142.943801 93.599602 
L 144.932004 92.847077 
L 146.758605 92.001972 
L 148.415522 91.071606 
L 149.893232 90.063502 
L 151.183882 88.985902 
L 152.283347 87.847857 
L 153.192005 86.658974 
L 153.914386 85.429018 
L 154.458007 84.167505 
L 154.831767 82.883405 
L 155.044273 81.585015 
L 155.102877 80.28 
L 155.102877 80.28 
" clip-path="url(#p956cf52dc0)" style="fill: none; stroke-dasharray: 2.775,1.2; stroke-dashoffset: 0; stroke: #000000; stroke-width: 0.75"/>
   </g>
   <g id="patch_3">
    <path d="M 157.55976 80.28 
C 157.55976 70.131715 155.560769 60.082109 151.677189 50.706316 
C 147.793608 41.330523 142.100964 32.810879 134.925042 25.634958 
C 127.749121 18.459036 119.229477 12.766392 109.853684 8.882811 
C 100.477891 4.999231 90.428285 3.00024 80.28 3.00024 
C 70.131715 3.00024 60.082109 4.999231 50.706316 8.882811 
C 41.330523 12.766392 32.810879 18.459036 25.634958 25.634958 
C 18.459036 32.810879 12.766392 41.330523 8.882811 50.706316 
C 4.999231 60.082109 3.00024 70.131715 3.00024 80.28 
C 3.00024 90.428285 4.999231 100.477891 8.882811 109.853684 
C 12.766392 119.229477 18.459036 127.749121 25.634958 134.925042 
C 32.810879 142.100964 41.330523 147.793608 50.706316 151.677189 
C 60.082109 155.560769 70.131715 157.55976 80.28 157.55976 
C 90.428285 157.55976 100.477891 155.560769 109.853684 151.677189 
C 119.229477 147.793608 127.749121 142.100964 134.925042 134.925042 
C 142.100964 127.749121 147.793608 119.229477 151.677189 109.853684 
C 155.560769 100.477891 157.55976 90.428285 157.55976 80.28 
" style="fill: none; stroke: #000000; stroke-width: 0.8; stroke-linejoin: miter; stroke-linecap: square"/>
   </g>
   <g id="legend_1">
    <g id="patch_4">
     <path d="M 84.235975 25.96288 
L 150.55976 25.96288 
Q 152.55976 25.96288 152.55976 23.96288 
L 152.55976 10.00024 
Q 152.55976 8.00024 150.55976 8.00024 
L 84.235975 8.00024 
Q 82.235975 8.00024 82.235975 10.00024 
L 82.235975 23.96288 
Q 82.235975 25.96288 84.235975 25.96288 
z
" style="fill: #ffffff; opacity: 0.8; stroke: #cccccc; stroke-linejoin: miter"/>
    </g>
    <g id="line2d_9">
     <defs>
      <path id="med3c273459" d="M 0 2.5 
C 0.663008 2.5 1.29895 2.236584 1.767767 1.767767 
C 2.236584 1.29895 2.5 0.663008 2.5 0 
C 2.5 -0.663008 2.236584 -1.29895 1.767767 -1.767767 
C 1.29895 -2.236584 0.663008 -2.5 0 -2.5 
C -0.663008 -2.5 -1.29895 -2.236584 -1.767767 -1.767767 
C -2.236584 -1.29895 -2.5 -0.663008 -2.5 0 
C -2.5 0.663008 -2.236584 1.29895 -1.767767 1.767767 
C -1.29895 2.236584 -0.663008 2.5 0 2.5 
z
" style="stroke: #000000"/>
     </defs>
     <g>
      <use xlink:href="#med3c273459" x="96.235975" y="15.97222" style="stroke: #000000"/>
     </g>
    </g>
    <g id="text_7">
     <!-- $a / \lambda = 1$ -->
     <g transform="translate(114.235975 19.47222) scale(0.1 -0.1)">
      <defs>
       <path id="CMMI12-61" d="M 1926 760 
C 1894 651 1894 639 1805 517 
C 1664 338 1382 64 1082 64 
C 819 64 672 300 672 677 
C 672 1028 870 1743 992 2012 
C 1210 2459 1510 2689 1760 2689 
C 2182 2689 2266 2165 2266 2114 
C 2266 2108 2246 2024 2240 2012 
L 1926 760 
z
M 2336 2395 
C 2266 2561 2093 2816 1760 2816 
C 1037 2816 256 1884 256 939 
C 256 307 627 -64 1062 -64 
C 1414 -64 1715 211 1894 422 
C 1958 45 2259 -64 2451 -64 
C 2643 -64 2797 51 2912 281 
C 3014 498 3104 888 3104 913 
C 3104 945 3078 971 3040 971 
C 2982 971 2976 939 2950 843 
C 2854 466 2733 64 2470 64 
C 2285 64 2272 230 2272 358 
C 2272 505 2291 575 2349 824 
C 2394 984 2426 1124 2477 1309 
C 2714 2267 2771 2497 2771 2535 
C 2771 2625 2701 2695 2605 2695 
C 2400 2695 2349 2472 2336 2395 
z
" transform="scale(0.015625)"/>
       <path id="CMMI12-3d" d="M 2746 4562 
C 2746 4569 2784 4666 2784 4678 
C 2784 4755 2720 4800 2669 4800 
C 2637 4800 2579 4800 2528 4659 
L 384 -1363 
C 384 -1370 346 -1465 346 -1478 
C 346 -1555 410 -1600 461 -1600 
C 499 -1600 557 -1593 602 -1459 
L 2746 4562 
z
" transform="scale(0.015625)"/>
       <path id="CMMI12-15" d="M 1978 3965 
C 1818 4416 1312 4416 1229 4416 
C 1190 4416 1120 4416 1120 4352 
C 1120 4302 1158 4295 1190 4289 
C 1286 4276 1363 4263 1466 4080 
C 1530 3959 2189 2059 2189 2046 
C 2189 2040 2182 2033 2131 1982 
L 467 311 
C 390 234 339 183 339 102 
C 339 12 416 -64 518 -64 
C 544 -64 614 -51 653 -13 
C 755 82 1670 1194 2253 1881 
C 2419 1383 2624 797 2822 261 
C 2854 166 2886 76 2976 -6 
C 3040 -64 3053 -64 3232 -64 
L 3354 -64 
C 3379 -64 3424 -64 3424 -13 
C 3424 13 3418 19 3392 45 
C 3334 115 3290 229 3264 306 
L 1978 3965 
z
" transform="scale(0.015625)"/>
       <path id="CMR17-3d" d="M 4115 2017 
C 4211 2017 4307 2017 4307 2125 
C 4307 2240 4198 2240 4090 2240 
L 512 2240 
C 403 2240 294 2240 294 2125 
C 294 2017 390 2017 486 2017 
L 4115 2017 
z
M 4090 896 
C 4198 896 4307 896 4307 1011 
C 4307 1119 4211 1119 4115 1119 
L 486 1119 
C 390 1119 294 1119 294 1011 
C 294 896 403 896 512 896 
L 4090 896 
z
" transform="scale(0.015625)"/>
      </defs>
      <use xlink:href="#CMMI12-61" transform="scale(0.996264)"/>
      <use xlink:href="#CMMI12-3d" transform="translate(51.207858 0) scale(0.996264)"/>
      <use xlink:href="#CMMI12-15" transform="translate(99.982776 0) scale(0.996264)"/>
      <use xlink:href="#CMR17-3d" transform="translate(184.560857 0) scale(0.996264)"/>
      <use xlink:href="#CMR17-31" transform="translate(283.949654 0) scale(0.996264)"/>
     </g>
    </g>
   </g>
  </g>
 </g>
 <defs>
  <clipPath id="p956cf52dc0">
   <path d="M 157.55976 80.28 
C 157.55976 70.131715 155.560769 60.082109 151.677189 50.706316 
C 147.793608 41.330523 142.100964 32.810879 134.925042 25.634958 
C 127.749121 18.459036 119.229477 12.766392 109.853684 8.882811 
C 100.477891 4.999231 90.428285 3.00024 80.28 3.00024 
C 70.131715 3.00024 60.082109 4.999231 50.706316 8.882811 
C 41.330523 12.766392 32.810879 18.459036 25.634958 25.634958 
C 18.459036 32.810879 12.766392 41.330523 8.882811 50.706316 
C 4.999231 60.082109 3.00024 70.131715 3.00024 80.28 
C 3.00024 90.428285 4.999231 100.477891 8.882811 109.853684 
C 12.766392 119.229477 18.459036 127.749121 25.634958 134.925042 
C 32.810879 142.100964 41.330523 147.793608 50.706316 151.677189 
C 60.082109 155.560769 70.131715 157.55976 80.28 157.55976 
C 90.428285 157.55976 100.477891 155.560769 109.853684 151.677189 
C 119.229477 147.793608 127.749121 142.100964 134.925042 134.925042 
C 142.100964 127.749121 147.793608 119.229477 151.677189 109.853684 
C 155.560769 100.477891 157.55976 90.428285 157.55976 80.28 
M 80.28 80.28 
C 80.28 80.28 80.28 80.28 80.28 80.28 
C 80.28 80.28 80.28 80.28 80.28 80.28 
C 80.28 80.28 80.28 80.28 80.28 80.28 
C 80.28 80.28 80.28 80.28 80.28 80.28 
C 80.28 80.28 80.28 80.28 80.28 80.28 
C 80.28 80.28 80.28 80.28 80.28 80.28 
C 80.28 80.28 80.28 80.28 80.28 80.28 
C 80.28 80.28 80.28 80.28 80.28 80.28 
C 80.28 80.28 80.28 80.28 80.28 80.28 
C 80.28 80.28 80.28 80.28 80.28 80.28 
C 80.28 80.28 80.28 80.28 80.28 80.28 
C 80.28 80.28 80.28 80.28 80.28 80.28 
C 80.28 80.28 80.28 80.28 80.28 80.28 
C 80.28 80.28 80.28 80.28 80.28 80.28 
C 80.28 80.28 80.28 80.28 80.28 80.28 
C 80.28 80.28 80.28 80.28 80.28 80.28 
z
"/>
  </clipPath>
 </defs>
</svg>
