<?xml version="1.0" encoding="utf-8" standalone="no"?>
<!DOCTYPE svg PUBLIC "-//W3C//DTD SVG 1.1//EN"
  "http://www.w3.org/Graphics/SVG/1.1/DTD/svg11.dtd">
<svg xmlns:xlink="http://www.w3.org/1999/xlink" width="160.56pt" height="108pt" viewBox="0 0 160.56 108" xmlns="http://www.w3.org/2000/svg" version="1.1">
 <metadata>
  <rdf:RDF xmlns:dc="http://purl.org/dc/elements/1.1/" xmlns:cc="http://creativecommons.org/ns#" xmlns:rdf="http://www.w3.org/1999/02/22-rdf-syntax-ns#">
   <cc:Work>
    <dc:type rdf:resource="http://purl.org/dc/dcmitype/StillImage"/>
    <dc:date>2025-01-25T12:55:22.065772</dc:date>
    <dc:format>image/svg+xml</dc:format>
    <dc:creator>
     <cc:Agent>
      <dc:title>Matplotlib v3.6.3, https://matplotlib.org/</dc:title>
     </cc:Agent>
    </dc:creator>
   </cc:Work>
  </rdf:RDF>
 </metadata>
 <defs>
  <style type="text/css">*{stroke-linejoin: round; stroke-linecap: butt}</style>
 </defs>
 <g id="figure_1">
  <g id="patch_1">
   <path d="M 0 108 
L 160.56 108 
L 160.56 0 
L 0 0 
z
" style="fill: #ffffff"/>
  </g>
  <g id="axes_1">
   <g id="patch_2">
    <path d="M 37.896788 75.181443 
L 155.444442 75.181443 
L 155.444442 3.00024 
L 37.896788 3.00024 
z
" style="fill: #ffffff"/>
   </g>
   <g id="matplotlib.axis_1">
    <g id="xtick_1">
     <g id="line2d_1">
      <defs>
       <path id="m732c73c401" d="M 0 0 
L 0 3.5 
" style="stroke: #000000; stroke-width: 0.8"/>
      </defs>
      <g>
       <use xlink:href="#m732c73c401" x="43.239863" y="75.181443" style="stroke: #000000; stroke-width: 0.8"/>
      </g>
     </g>
     <g id="text_1">
      <!-- $\mathdefault{0}$ -->
      <g transform="translate(40.749196 89.099942) scale(0.1 -0.1)">
       <defs>
        <path id="CMR17-30" d="M 2688 2038 
C 2688 2430 2682 3099 2413 3613 
C 2176 4063 1798 4224 1466 4224 
C 1158 4224 768 4082 525 3620 
C 269 3137 243 2539 243 2038 
C 243 1671 250 1112 448 623 
C 723 -39 1216 -128 1466 -128 
C 1760 -128 2208 -7 2470 604 
C 2662 1048 2688 1568 2688 2038 
z
M 1466 -26 
C 1056 -26 813 328 723 816 
C 653 1196 653 1749 653 2109 
C 653 2604 653 3015 736 3407 
C 858 3954 1216 4121 1466 4121 
C 1728 4121 2067 3947 2189 3420 
C 2272 3054 2278 2623 2278 2109 
C 2278 1691 2278 1176 2202 797 
C 2067 96 1690 -26 1466 -26 
z
" transform="scale(0.015625)"/>
       </defs>
       <use xlink:href="#CMR17-30" transform="scale(0.996264)"/>
      </g>
     </g>
    </g>
    <g id="xtick_2">
     <g id="line2d_2">
      <g>
       <use xlink:href="#m732c73c401" x="78.860364" y="75.181443" style="stroke: #000000; stroke-width: 0.8"/>
      </g>
     </g>
     <g id="text_2">
      <!-- $\mathdefault{120}$ -->
      <g transform="translate(71.388362 89.099942) scale(0.1 -0.1)">
       <defs>
        <path id="CMR17-31" d="M 1702 4083 
C 1702 4217 1696 4224 1606 4224 
C 1357 3927 979 3833 621 3820 
C 602 3820 570 3820 563 3808 
C 557 3795 557 3782 557 3648 
C 755 3648 1088 3686 1344 3839 
L 1344 467 
C 1344 243 1331 166 781 166 
L 589 166 
L 589 0 
C 896 6 1216 12 1523 12 
C 1830 12 2150 6 2458 0 
L 2458 166 
L 2266 166 
C 1715 166 1702 236 1702 467 
L 1702 4083 
z
" transform="scale(0.015625)"/>
        <path id="CMR17-32" d="M 2669 990 
L 2554 990 
C 2490 537 2438 460 2413 422 
C 2381 371 1920 371 1830 371 
L 602 371 
C 832 620 1280 1073 1824 1596 
C 2214 1966 2669 2400 2669 3033 
C 2669 3788 2067 4224 1395 4224 
C 691 4224 262 3603 262 3027 
C 262 2777 448 2745 525 2745 
C 589 2745 781 2783 781 3007 
C 781 3206 614 3264 525 3264 
C 486 3264 448 3257 422 3244 
C 544 3788 915 4057 1306 4057 
C 1862 4057 2227 3616 2227 3033 
C 2227 2477 1901 1998 1536 1583 
L 262 147 
L 262 0 
L 2515 0 
L 2669 990 
z
" transform="scale(0.015625)"/>
       </defs>
       <use xlink:href="#CMR17-31" transform="scale(0.996264)"/>
       <use xlink:href="#CMR17-32" transform="translate(45.690477 0) scale(0.996264)"/>
       <use xlink:href="#CMR17-30" transform="translate(91.380954 0) scale(0.996264)"/>
      </g>
     </g>
    </g>
    <g id="xtick_3">
     <g id="line2d_3">
      <g>
       <use xlink:href="#m732c73c401" x="114.480865" y="75.181443" style="stroke: #000000; stroke-width: 0.8"/>
      </g>
     </g>
     <g id="text_3">
      <!-- $\mathdefault{240}$ -->
      <g transform="translate(107.008863 89.099942) scale(0.1 -0.1)">
       <defs>
        <path id="CMR17-34" d="M 2150 4147 
C 2150 4281 2144 4288 2029 4288 
L 128 1254 
L 128 1088 
L 1779 1088 
L 1779 460 
C 1779 230 1766 166 1318 166 
L 1197 166 
L 1197 0 
C 1402 12 1747 12 1965 12 
C 2182 12 2528 12 2733 0 
L 2733 166 
L 2611 166 
C 2163 166 2150 230 2150 460 
L 2150 1088 
L 2803 1088 
L 2803 1254 
L 2150 1254 
L 2150 4147 
z
M 1798 3723 
L 1798 1254 
L 256 1254 
L 1798 3723 
z
" transform="scale(0.015625)"/>
       </defs>
       <use xlink:href="#CMR17-32" transform="scale(0.996264)"/>
       <use xlink:href="#CMR17-34" transform="translate(45.690477 0) scale(0.996264)"/>
       <use xlink:href="#CMR17-30" transform="translate(91.380954 0) scale(0.996264)"/>
      </g>
     </g>
    </g>
    <g id="xtick_4">
     <g id="line2d_4">
      <g>
       <use xlink:href="#m732c73c401" x="150.101367" y="75.181443" style="stroke: #000000; stroke-width: 0.8"/>
      </g>
     </g>
     <g id="text_4">
      <!-- $\mathdefault{360}$ -->
      <g transform="translate(142.629364 89.099942) scale(0.1 -0.1)">
       <defs>
        <path id="CMR17-33" d="M 1414 2176 
C 1984 2176 2234 1673 2234 1094 
C 2234 322 1824 25 1453 25 
C 1114 25 563 193 390 691 
C 422 678 454 678 486 678 
C 640 678 755 780 755 947 
C 755 1132 614 1216 486 1216 
C 378 1216 211 1164 211 927 
C 211 335 787 -128 1466 -128 
C 2176 -128 2720 432 2720 1087 
C 2720 1718 2208 2176 1600 2246 
C 2086 2347 2554 2776 2554 3353 
C 2554 3856 2048 4224 1472 4224 
C 890 4224 378 3862 378 3347 
C 378 3123 544 3084 627 3084 
C 762 3084 877 3167 877 3334 
C 877 3500 762 3584 627 3584 
C 602 3584 570 3584 544 3571 
C 730 3999 1235 4076 1459 4076 
C 1683 4076 2106 3966 2106 3347 
C 2106 3167 2080 2851 1862 2574 
C 1670 2329 1453 2316 1242 2297 
C 1210 2297 1062 2284 1037 2284 
C 992 2278 966 2272 966 2227 
C 966 2182 973 2176 1101 2176 
L 1414 2176 
z
" transform="scale(0.015625)"/>
        <path id="CMR17-36" d="M 678 2198 
C 678 3712 1395 4076 1811 4076 
C 1946 4076 2272 4049 2400 3782 
C 2298 3782 2106 3782 2106 3558 
C 2106 3385 2246 3328 2336 3328 
C 2394 3328 2566 3353 2566 3571 
C 2566 3987 2246 4224 1805 4224 
C 1043 4224 243 3411 243 2011 
C 243 257 966 -128 1478 -128 
C 2099 -128 2688 431 2688 1295 
C 2688 2101 2170 2688 1517 2688 
C 1126 2688 838 2430 678 1979 
L 678 2198 
z
M 1478 25 
C 691 25 691 1212 691 1450 
C 691 1914 909 2585 1504 2585 
C 1613 2585 1926 2585 2138 2140 
C 2253 1889 2253 1624 2253 1302 
C 2253 954 2253 696 2118 438 
C 1978 173 1773 25 1478 25 
z
" transform="scale(0.015625)"/>
       </defs>
       <use xlink:href="#CMR17-33" transform="scale(0.996264)"/>
       <use xlink:href="#CMR17-36" transform="translate(45.690477 0) scale(0.996264)"/>
       <use xlink:href="#CMR17-30" transform="translate(91.380954 0) scale(0.996264)"/>
      </g>
     </g>
    </g>
    <g id="text_5">
     <!-- $\phi (^o)$ -->
     <g transform="translate(87.612899 102.5091) scale(0.1 -0.1)">
      <defs>
       <path id="CMMI12-1e" d="M 2752 4358 
C 2752 4416 2707 4416 2688 4416 
C 2630 4416 2624 4403 2598 4294 
L 2253 2924 
C 2234 2841 2227 2835 2221 2828 
C 2214 2816 2170 2809 2157 2809 
C 1107 2720 301 1863 301 1071 
C 301 387 832 -32 1498 -71 
C 1446 -266 1402 -467 1350 -662 
C 1261 -995 1210 -1204 1210 -1229 
C 1210 -1242 1210 -1280 1274 -1280 
C 1293 -1280 1318 -1280 1331 -1255 
C 1344 -1242 1382 -1089 1408 -1008 
L 1645 -71 
C 2739 -13 3571 875 3571 1673 
C 3571 2313 3085 2771 2374 2816 
L 2752 4358 
z
M 2336 2688 
C 2758 2662 3181 2428 3181 1806 
C 3181 1090 2675 140 1677 64 
L 2336 2688 
z
M 1530 57 
C 1216 76 691 241 691 938 
C 691 1737 1274 2624 2195 2681 
L 1530 57 
z
" transform="scale(0.015625)"/>
       <path id="CMR17-28" d="M 1958 -1562 
C 1958 -1556 1958 -1543 1939 -1524 
C 1645 -1223 858 -403 858 1596 
C 858 3595 1632 4408 1946 4729 
C 1946 4735 1958 4748 1958 4767 
C 1958 4787 1939 4800 1914 4800 
C 1843 4800 1299 4325 986 3620 
C 666 2909 576 2218 576 1603 
C 576 1141 621 360 1005 -467 
C 1312 -1133 1837 -1600 1914 -1600 
C 1946 -1600 1958 -1588 1958 -1562 
z
" transform="scale(0.015625)"/>
       <path id="CMMI12-6f" d="M 2918 1755 
C 2918 2362 2522 2816 1939 2816 
C 1094 2816 262 1896 262 996 
C 262 389 659 -64 1242 -64 
C 2093 -64 2918 855 2918 1755 
z
M 1248 64 
C 928 64 691 319 691 766 
C 691 1060 845 1711 1024 2030 
C 1312 2522 1670 2687 1933 2687 
C 2246 2687 2490 2432 2490 1985 
C 2490 1730 2355 1047 2112 657 
C 1850 230 1498 64 1248 64 
z
" transform="scale(0.015625)"/>
       <path id="CMR17-29" d="M 1683 1596 
C 1683 2057 1638 2839 1254 3665 
C 947 4332 422 4800 346 4800 
C 326 4800 301 4793 301 4761 
C 301 4748 307 4742 314 4729 
C 621 4408 1402 3595 1402 1603 
C 1402 -396 627 -1210 314 -1530 
C 307 -1543 301 -1549 301 -1562 
C 301 -1594 326 -1600 346 -1600 
C 416 -1600 960 -1127 1274 -422 
C 1594 289 1683 981 1683 1596 
z
" transform="scale(0.015625)"/>
      </defs>
      <use xlink:href="#CMMI12-1e" transform="scale(0.996264)"/>
      <use xlink:href="#CMR17-28" transform="translate(57.73418 0) scale(0.996264)"/>
      <use xlink:href="#CMMI12-6f" transform="translate(93.014948 36.153639) scale(0.697382)"/>
      <use xlink:href="#CMR17-29" transform="translate(126.339642 0) scale(0.996264)"/>
     </g>
    </g>
   </g>
   <g id="matplotlib.axis_2">
    <g id="ytick_1">
     <g id="line2d_5">
      <defs>
       <path id="m491923dcf3" d="M 0 0 
L -3.5 0 
" style="stroke: #000000; stroke-width: 0.8"/>
      </defs>
      <g>
       <use xlink:href="#m491923dcf3" x="37.896788" y="56.828189" style="stroke: #000000; stroke-width: 0.8"/>
      </g>
     </g>
     <g id="text_6">
      <!-- $\mathdefault{10^{0}}$ -->
      <g transform="translate(16.96288 60.287438) scale(0.1 -0.1)">
       <use xlink:href="#CMR17-31" transform="scale(0.996264)"/>
       <use xlink:href="#CMR17-30" transform="translate(45.690477 0) scale(0.996264)"/>
       <use xlink:href="#CMR17-30" transform="translate(91.380954 36.153639) scale(0.697382)"/>
      </g>
     </g>
    </g>
    <g id="ytick_2">
     <g id="line2d_6">
      <g>
       <use xlink:href="#m491923dcf3" x="37.896788" y="19.5969" style="stroke: #000000; stroke-width: 0.8"/>
      </g>
     </g>
     <g id="text_7">
      <!-- $\mathdefault{10^{1}}$ -->
      <g transform="translate(16.96288 23.056149) scale(0.1 -0.1)">
       <use xlink:href="#CMR17-31" transform="scale(0.996264)"/>
       <use xlink:href="#CMR17-30" transform="translate(45.690477 0) scale(0.996264)"/>
       <use xlink:href="#CMR17-31" transform="translate(91.380954 36.153639) scale(0.697382)"/>
      </g>
     </g>
    </g>
    <g id="ytick_3">
     <g id="line2d_7">
      <defs>
       <path id="md78c194e9e" d="M 0 0 
L -2 0 
" style="stroke: #000000; stroke-width: 0.6"/>
      </defs>
      <g>
       <use xlink:href="#md78c194e9e" x="37.896788" y="71.644008" style="stroke: #000000; stroke-width: 0.6"/>
      </g>
     </g>
    </g>
    <g id="ytick_4">
     <g id="line2d_8">
      <g>
       <use xlink:href="#md78c194e9e" x="37.896788" y="68.035924" style="stroke: #000000; stroke-width: 0.6"/>
      </g>
     </g>
    </g>
    <g id="ytick_5">
     <g id="line2d_9">
      <g>
       <use xlink:href="#md78c194e9e" x="37.896788" y="65.087904" style="stroke: #000000; stroke-width: 0.6"/>
      </g>
     </g>
    </g>
    <g id="ytick_6">
     <g id="line2d_10">
      <g>
       <use xlink:href="#md78c194e9e" x="37.896788" y="62.595388" style="stroke: #000000; stroke-width: 0.6"/>
      </g>
     </g>
    </g>
    <g id="ytick_7">
     <g id="line2d_11">
      <g>
       <use xlink:href="#md78c194e9e" x="37.896788" y="60.436274" style="stroke: #000000; stroke-width: 0.6"/>
      </g>
     </g>
    </g>
    <g id="ytick_8">
     <g id="line2d_12">
      <g>
       <use xlink:href="#md78c194e9e" x="37.896788" y="58.531799" style="stroke: #000000; stroke-width: 0.6"/>
      </g>
     </g>
    </g>
    <g id="ytick_9">
     <g id="line2d_13">
      <g>
       <use xlink:href="#md78c194e9e" x="37.896788" y="45.620454" style="stroke: #000000; stroke-width: 0.6"/>
      </g>
     </g>
    </g>
    <g id="ytick_10">
     <g id="line2d_14">
      <g>
       <use xlink:href="#md78c194e9e" x="37.896788" y="39.064349" style="stroke: #000000; stroke-width: 0.6"/>
      </g>
     </g>
    </g>
    <g id="ytick_11">
     <g id="line2d_15">
      <g>
       <use xlink:href="#md78c194e9e" x="37.896788" y="34.412719" style="stroke: #000000; stroke-width: 0.6"/>
      </g>
     </g>
    </g>
    <g id="ytick_12">
     <g id="line2d_16">
      <g>
       <use xlink:href="#md78c194e9e" x="37.896788" y="30.804635" style="stroke: #000000; stroke-width: 0.6"/>
      </g>
     </g>
    </g>
    <g id="ytick_13">
     <g id="line2d_17">
      <g>
       <use xlink:href="#md78c194e9e" x="37.896788" y="27.856615" style="stroke: #000000; stroke-width: 0.6"/>
      </g>
     </g>
    </g>
    <g id="ytick_14">
     <g id="line2d_18">
      <g>
       <use xlink:href="#md78c194e9e" x="37.896788" y="25.364099" style="stroke: #000000; stroke-width: 0.6"/>
      </g>
     </g>
    </g>
    <g id="ytick_15">
     <g id="line2d_19">
      <g>
       <use xlink:href="#md78c194e9e" x="37.896788" y="23.204984" style="stroke: #000000; stroke-width: 0.6"/>
      </g>
     </g>
    </g>
    <g id="ytick_16">
     <g id="line2d_20">
      <g>
       <use xlink:href="#md78c194e9e" x="37.896788" y="21.30051" style="stroke: #000000; stroke-width: 0.6"/>
      </g>
     </g>
    </g>
    <g id="ytick_17">
     <g id="line2d_21">
      <g>
       <use xlink:href="#md78c194e9e" x="37.896788" y="8.389165" style="stroke: #000000; stroke-width: 0.6"/>
      </g>
     </g>
    </g>
    <g id="text_8">
     <!-- $\sigma / \lambda$ -->
     <g transform="translate(10.47222 47.512401) rotate(-90) scale(0.1 -0.1)">
      <defs>
       <path id="CMMI12-1b" d="M 3251 2406 
C 3334 2406 3546 2406 3546 2611 
C 3546 2752 3424 2752 3309 2752 
L 1894 2752 
C 934 2752 243 1685 243 932 
C 243 389 595 -64 1171 -64 
C 1926 -64 2752 746 2752 1704 
C 2752 1953 2694 2195 2541 2406 
L 3251 2406 
z
M 1178 64 
C 851 64 614 312 614 753 
C 614 1136 845 2406 1786 2406 
C 2061 2406 2368 2272 2368 1780 
C 2368 1557 2266 1021 2042 651 
C 1811 274 1466 64 1178 64 
z
" transform="scale(0.015625)"/>
       <path id="CMMI12-3d" d="M 2746 4563 
C 2746 4569 2784 4665 2784 4678 
C 2784 4755 2720 4800 2669 4800 
C 2637 4800 2579 4800 2528 4659 
L 384 -1364 
C 384 -1370 346 -1466 346 -1479 
C 346 -1556 410 -1600 461 -1600 
C 499 -1600 557 -1594 602 -1460 
L 2746 4563 
z
" transform="scale(0.015625)"/>
       <path id="CMMI12-15" d="M 1978 3963 
C 1818 4416 1312 4416 1229 4416 
C 1190 4416 1120 4416 1120 4351 
C 1120 4300 1158 4294 1190 4287 
C 1286 4275 1363 4262 1466 4078 
C 1530 3957 2189 2055 2189 2042 
C 2189 2036 2182 2029 2131 1978 
L 467 305 
C 390 229 339 178 339 95 
C 339 6 416 -71 518 -71 
C 544 -71 614 -58 653 -20 
C 755 76 1670 1190 2253 1877 
C 2419 1380 2624 795 2822 261 
C 2854 165 2886 76 2976 -7 
C 3040 -64 3053 -64 3232 -64 
L 3354 -64 
C 3379 -64 3424 -64 3424 -13 
C 3424 12 3418 19 3392 44 
C 3334 114 3290 229 3264 305 
L 1978 3963 
z
" transform="scale(0.015625)"/>
      </defs>
      <use xlink:href="#CMMI12-1b" transform="scale(0.996264)"/>
      <use xlink:href="#CMMI12-3d" transform="translate(59.020054 0) scale(0.996264)"/>
      <use xlink:href="#CMMI12-15" transform="translate(107.794972 0) scale(0.996264)"/>
     </g>
    </g>
   </g>
   <g id="line2d_22">
    <path d="M 43.239863 12.583848 
L 43.833538 12.922239 
L 44.427213 13.501595 
L 45.020888 14.323027 
L 45.911401 16.016059 
L 46.801913 18.277536 
L 47.692426 21.128229 
L 48.879776 25.867995 
L 50.067126 31.613193 
L 52.441826 43.705549 
L 53.035501 45.744915 
L 53.629176 46.938923 
L 53.926014 47.202321 
L 54.222851 47.259968 
L 54.519689 47.137972 
L 55.113364 46.489942 
L 57.488064 42.940546 
L 58.081739 42.513455 
L 58.675414 42.354179 
L 59.269089 42.440776 
L 60.159601 42.926158 
L 62.237464 44.399709 
L 62.831139 44.556098 
L 63.424814 44.510076 
L 64.018489 44.270755 
L 64.909002 43.644012 
L 67.283702 41.773525 
L 68.174214 41.354789 
L 69.361564 41.054191 
L 72.033102 40.56003 
L 73.814127 39.913144 
L 75.595152 39.295542 
L 76.782502 39.084732 
L 77.969852 39.076091 
L 79.454039 39.308203 
L 81.235064 39.843822 
L 83.01609 40.616871 
L 84.797115 41.667132 
L 86.57814 43.031134 
L 88.359165 44.688682 
L 90.733865 47.247202 
L 93.999077 51.154066 
L 102.310528 61.28916 
L 104.38839 63.458062 
L 106.169415 64.985489 
L 107.653603 65.960757 
L 110.028303 67.15919 
L 111.51249 68.009701 
L 112.996678 69.116766 
L 114.480865 70.231242 
L 115.371378 70.626915 
L 115.965053 70.681866 
L 116.558728 70.548582 
L 117.449241 70.04783 
L 119.230266 68.809936 
L 119.823941 68.620846 
L 120.417616 68.637659 
L 121.011291 68.869365 
L 121.901803 69.528675 
L 123.089153 70.410949 
L 123.682828 70.50094 
L 124.276503 70.180472 
L 124.870178 69.427098 
L 125.760691 67.71036 
L 126.948041 65.270696 
L 127.541716 64.356879 
L 128.135391 63.778878 
L 128.729066 63.562961 
L 129.322741 63.674407 
L 130.213253 64.216852 
L 130.806928 64.56201 
L 131.400603 64.62829 
L 131.697441 64.49179 
L 132.291116 63.8063 
L 132.884791 62.586215 
L 133.775304 60.085188 
L 135.259491 55.821049 
L 136.150004 53.89617 
L 137.337354 52.007304 
L 138.227866 50.515644 
L 138.821541 49.125948 
L 139.415216 47.236183 
L 140.305729 43.402318 
L 141.789916 35.375736 
L 143.570941 26.045833 
L 144.758291 21.0601 
L 145.648804 18.09464 
L 146.539316 15.786214 
L 147.429829 14.108639 
L 148.023504 13.325946 
L 148.617179 12.802178 
L 149.210854 12.530396 
L 149.804529 12.505196 
L 150.101367 12.583848 
L 150.101367 12.583848 
" clip-path="url(#pa1cc9cea55)" style="fill: none; stroke: #000000; stroke-width: 0.75; stroke-linecap: square"/>
   </g>
   <g id="line2d_23">
    <path d="M 43.239863 13.061424 
L 43.833538 13.355825 
L 44.724051 14.178032 
L 45.614563 15.469893 
L 46.208238 16.675552 
L 47.098751 19.114164 
L 47.989264 22.273971 
L 49.176614 27.303658 
L 50.660801 34.690355 
L 52.441826 43.726802 
L 53.035501 45.852646 
L 53.629176 47.147253 
L 53.926014 47.464496 
L 54.222851 47.575029 
L 54.519689 47.502205 
L 55.113364 46.942419 
L 58.081739 43.012794 
L 58.675414 42.662835 
L 59.269089 42.634726 
L 60.159601 42.996426 
L 62.237464 44.205841 
L 63.127976 44.677302 
L 63.721651 44.782002 
L 64.315326 44.616392 
L 64.909002 44.131528 
L 65.799514 42.954372 
L 66.690027 41.875415 
L 67.283702 41.533184 
L 68.174214 41.473824 
L 68.767889 41.387108 
L 69.658402 40.902628 
L 70.252077 40.624618 
L 70.845752 40.634291 
L 71.736264 40.902947 
L 72.033102 40.877146 
L 72.626777 40.500018 
L 73.517289 39.668262 
L 74.110964 39.46309 
L 75.001477 39.458822 
L 75.595152 39.17551 
L 76.485664 38.610724 
L 77.079339 38.622537 
L 77.969852 38.910059 
L 78.563527 38.815773 
L 79.157202 38.637166 
L 79.750877 38.745733 
L 81.235064 39.628928 
L 82.125577 39.84267 
L 82.719252 40.276661 
L 83.906602 41.399991 
L 85.093952 42.163221 
L 87.76549 44.619327 
L 90.733865 47.178601 
L 91.32754 47.968305 
L 93.405402 51.279347 
L 94.295915 51.983134 
L 95.186427 52.597191 
L 95.780102 53.230367 
L 96.670615 54.682522 
L 97.857965 56.801473 
L 98.45164 57.423687 
L 99.63899 58.172472 
L 100.232665 58.991714 
L 101.716853 61.981383 
L 102.01369 62.258172 
L 102.607365 62.366138 
L 103.20104 62.414985 
L 103.497878 62.635795 
L 104.091553 63.60956 
L 104.982065 65.399213 
L 105.278903 65.713307 
L 105.57574 65.834138 
L 106.466253 65.806272 
L 106.76309 65.957843 
L 107.356765 66.611723 
L 107.95044 67.309243 
L 108.544115 67.636088 
L 110.028303 67.947162 
L 111.215653 68.314054 
L 111.809328 68.833003 
L 112.69984 69.795832 
L 112.996678 69.910799 
L 113.88719 69.840615 
L 114.184028 70.004564 
L 114.777703 70.859278 
L 115.371378 71.76356 
L 115.668215 71.900479 
L 115.965053 71.759169 
L 117.152403 70.453291 
L 117.746078 70.480831 
L 118.339753 70.510354 
L 118.933428 70.096584 
L 119.527103 69.606862 
L 119.823941 69.511134 
L 120.417616 69.690645 
L 121.308128 70.174654 
L 122.792316 70.422258 
L 123.979666 71.193061 
L 124.276503 71.134172 
L 124.573341 70.892769 
L 125.167016 69.932485 
L 127.541716 65.059487 
L 128.135391 64.628281 
L 130.213253 64.088683 
L 130.806928 64.236255 
L 131.400603 64.584851 
L 131.697441 64.633561 
L 131.994278 64.479108 
L 132.291116 64.090518 
L 133.181629 62.116544 
L 134.962654 57.980368 
L 135.853166 55.382246 
L 136.446841 54.260055 
L 137.337354 52.96603 
L 137.931029 51.633379 
L 139.118379 48.225975 
L 139.712054 46.10813 
L 140.602566 41.703535 
L 142.383591 32.223521 
L 144.164616 23.53301 
L 145.055129 20.256064 
L 146.242479 17.003176 
L 147.132991 15.034918 
L 148.023504 13.640979 
L 148.617179 13.118635 
L 149.210854 12.901421 
L 149.804529 12.934897 
L 150.101367 12.997908 
L 150.101367 12.997908 
" clip-path="url(#pa1cc9cea55)" style="fill: none; stroke-dasharray: 2.775,1.2; stroke-dashoffset: 0; stroke: #000000; stroke-width: 0.75"/>
   </g>
   <g id="line2d_24">
    <path d="M 43.239863 6.284386 
L 43.536701 6.281204 
L 44.130376 6.612143 
L 44.724051 7.380825 
L 45.317726 8.576086 
L 45.911401 10.189696 
L 46.801913 13.380907 
L 47.692426 17.477525 
L 48.879776 24.265657 
L 50.660801 36.374692 
L 51.848151 43.683875 
L 52.441826 46.167995 
L 53.035501 47.558229 
L 53.332339 47.852198 
L 53.629176 47.915637 
L 53.926014 47.788965 
L 54.519689 47.139613 
L 56.894389 43.739428 
L 57.784901 43.080613 
L 58.378576 42.869551 
L 59.269089 42.833067 
L 60.159601 43.033364 
L 63.127976 43.953763 
L 64.315326 43.967346 
L 65.502677 43.714306 
L 67.283702 43.036501 
L 69.955239 42.025586 
L 72.329939 41.432285 
L 76.485664 40.453632 
L 80.641389 39.41481 
L 82.719252 39.140094 
L 85.093952 39.053733 
L 91.030702 38.996841 
L 92.811727 38.678143 
L 94.88959 38.052639 
L 99.342153 36.575958 
L 100.82634 36.34765 
L 102.310528 36.360279 
L 103.497878 36.565661 
L 104.982065 37.076575 
L 106.466253 37.865715 
L 107.95044 38.915962 
L 109.731465 40.481747 
L 111.809328 42.645765 
L 115.668215 47.120772 
L 118.636591 50.379317 
L 121.604966 53.65204 
L 123.682828 56.41015 
L 125.167016 58.240153 
L 126.057528 58.917709 
L 126.651203 59.096414 
L 127.244878 59.049981 
L 128.135391 58.663395 
L 129.322741 58.055519 
L 129.916416 57.964451 
L 130.510091 58.146133 
L 131.103766 58.661416 
L 131.697441 59.521026 
L 133.775304 63.22889 
L 134.072141 63.323964 
L 134.368979 63.171775 
L 134.665816 62.753954 
L 135.259491 61.172335 
L 136.150004 57.635262 
L 137.040516 54.106554 
L 137.634191 52.375387 
L 138.227866 51.414901 
L 138.524704 51.27476 
L 138.821541 51.38345 
L 139.118379 51.754891 
L 139.415216 52.40004 
L 140.008891 54.524118 
L 140.899404 59.340544 
L 141.493079 62.070953 
L 141.789916 62.376429 
L 142.086754 61.527095 
L 142.383591 59.450623 
L 142.977266 52.65595 
L 144.461454 33.699108 
L 145.351966 24.932758 
L 146.242479 18.21488 
L 147.132991 13.226398 
L 148.023504 9.709551 
L 148.617179 8.088428 
L 149.210854 6.996947 
L 149.804529 6.402947 
L 150.101367 6.284386 
L 150.101367 6.284386 
" clip-path="url(#pa1cc9cea55)" style="fill: none; stroke: #ff0000; stroke-width: 0.75; stroke-linecap: square"/>
   </g>
   <g id="line2d_25">
    <path d="M 43.239863 6.921064 
L 43.833538 6.997693 
L 44.427213 7.467219 
L 45.020888 8.339188 
L 45.614563 9.635652 
L 46.208238 11.368197 
L 47.098751 14.794094 
L 47.989264 19.192593 
L 49.176614 26.296889 
L 51.848151 43.407872 
L 52.441826 46.023196 
L 53.035501 47.550807 
L 53.332339 47.882705 
L 53.629176 47.961736 
L 53.926014 47.839945 
L 54.519689 47.231073 
L 57.191226 43.823533 
L 58.081739 43.14781 
L 58.972251 42.770768 
L 59.862764 42.649503 
L 61.346951 42.753352 
L 62.237464 43.037321 
L 64.018489 44.002983 
L 64.612164 43.987379 
L 65.205839 43.732961 
L 66.986864 42.686244 
L 67.877377 42.618889 
L 68.471052 42.579527 
L 69.064727 42.329675 
L 70.548914 41.43348 
L 71.142589 41.459245 
L 71.736264 41.543761 
L 72.329939 41.371589 
L 73.814127 40.462279 
L 74.407802 40.572441 
L 75.001477 40.708346 
L 75.595152 40.529 
L 76.485664 39.978872 
L 77.079339 39.903402 
L 77.969852 39.984413 
L 78.563527 39.736434 
L 79.454039 39.291173 
L 80.047714 39.334115 
L 80.641389 39.458683 
L 81.235064 39.342829 
L 82.125577 38.946934 
L 82.719252 38.975972 
L 83.906602 39.311408 
L 85.687627 39.240803 
L 86.57814 39.47743 
L 87.468652 39.419825 
L 88.95284 39.273789 
L 90.437027 39.042757 
L 91.32754 39.056253 
L 92.811727 39.302663 
L 93.405402 39.132377 
L 94.295915 38.543029 
L 95.186427 37.939344 
L 95.780102 37.726055 
L 96.967452 37.673212 
L 97.561127 37.55439 
L 98.45164 37.033732 
L 99.342153 36.541468 
L 99.935828 36.526456 
L 101.420015 36.836442 
L 102.904203 36.423415 
L 103.497878 36.664918 
L 104.685228 37.39453 
L 106.169415 37.690391 
L 106.76309 38.205708 
L 107.653603 39.08058 
L 109.434628 40.264258 
L 111.215653 42.219526 
L 112.106165 43.126914 
L 115.965053 47.765877 
L 116.855566 48.67064 
L 118.636591 51.062781 
L 120.120778 51.947242 
L 121.011291 53.232444 
L 121.901803 54.392536 
L 123.089153 55.462618 
L 123.979666 56.789205 
L 124.870178 58.023322 
L 125.463853 58.350825 
L 128.135391 58.693145 
L 129.619578 57.973041 
L 130.510091 58.002747 
L 131.103766 58.158086 
L 131.400603 58.3441 
L 131.697441 58.668779 
L 132.291116 59.835293 
L 133.181629 62.064997 
L 133.478466 62.481606 
L 133.775304 62.607123 
L 134.072141 62.47675 
L 134.665816 61.785723 
L 135.259491 60.772016 
L 135.853166 59.112465 
L 137.337354 53.711166 
L 137.931029 52.670995 
L 138.524704 52.306659 
L 138.821541 52.359902 
L 139.118379 52.627908 
L 139.415216 53.182672 
L 139.712054 54.086509 
L 140.305729 56.951644 
L 141.196241 61.670287 
L 141.493079 62.221623 
L 141.789916 61.849992 
L 142.086754 60.520876 
L 142.680429 55.420218 
L 143.867779 40.503274 
L 144.758291 30.376961 
L 145.648804 22.737182 
L 146.539316 16.885342 
L 147.429829 12.362091 
L 148.023504 10.124603 
L 148.617179 8.531575 
L 149.210854 7.525169 
L 149.804529 7.009912 
L 150.101367 6.898851 
L 150.101367 6.898851 
" clip-path="url(#pa1cc9cea55)" style="fill: none; stroke-dasharray: 2.775,1.2; stroke-dashoffset: 0; stroke: #ff0000; stroke-width: 0.75"/>
   </g>
   <g id="patch_3">
    <path d="M 37.896788 75.181443 
L 37.896788 3.00024 
" style="fill: none; stroke: #000000; stroke-width: 0.8; stroke-linejoin: miter; stroke-linecap: square"/>
   </g>
   <g id="patch_4">
    <path d="M 155.444442 75.181443 
L 155.444442 3.00024 
" style="fill: none; stroke: #000000; stroke-width: 0.8; stroke-linejoin: miter; stroke-linecap: square"/>
   </g>
   <g id="patch_5">
    <path d="M 37.896788 75.181443 
L 155.444442 75.181443 
" style="fill: none; stroke: #000000; stroke-width: 0.8; stroke-linejoin: miter; stroke-linecap: square"/>
   </g>
   <g id="patch_6">
    <path d="M 37.896788 3.00024 
L 155.444442 3.00024 
" style="fill: none; stroke: #000000; stroke-width: 0.8; stroke-linejoin: miter; stroke-linecap: square"/>
   </g>
  </g>
 </g>
 <defs>
  <clipPath id="pa1cc9cea55">
   <rect x="37.896788" y="3.00024" width="117.547653" height="72.181203"/>
  </clipPath>
 </defs>
</svg>
