<?xml version="1.0" encoding="utf-8" standalone="no"?>
<!DOCTYPE svg PUBLIC "-//W3C//DTD SVG 1.1//EN"
  "http://www.w3.org/Graphics/SVG/1.1/DTD/svg11.dtd">
<svg xmlns:xlink="http://www.w3.org/1999/xlink" width="241.2pt" height="144pt" viewBox="0 0 241.2 144" xmlns="http://www.w3.org/2000/svg" version="1.1">
 <metadata>
  <rdf:RDF xmlns:dc="http://purl.org/dc/elements/1.1/" xmlns:cc="http://creativecommons.org/ns#" xmlns:rdf="http://www.w3.org/1999/02/22-rdf-syntax-ns#">
   <cc:Work>
    <dc:type rdf:resource="http://purl.org/dc/dcmitype/StillImage"/>
    <dc:date>2025-01-11T16:52:50.918640</dc:date>
    <dc:format>image/svg+xml</dc:format>
    <dc:creator>
     <cc:Agent>
      <dc:title>Matplotlib v3.6.3, https://matplotlib.org/</dc:title>
     </cc:Agent>
    </dc:creator>
   </cc:Work>
  </rdf:RDF>
 </metadata>
 <defs>
  <style type="text/css">*{stroke-linejoin: round; stroke-linecap: butt}</style>
 </defs>
 <g id="figure_1">
  <g id="patch_1">
   <path d="M 0 144 
L 241.2 144 
L 241.2 0 
L 0 0 
z
" style="fill: #ffffff"/>
  </g>
  <g id="axes_1">
   <g id="patch_2">
    <path d="M 27.711654 112.288407 
L 238.19976 112.288407 
L 238.19976 3.00024 
L 27.711654 3.00024 
z
" style="fill: #ffffff"/>
   </g>
   <g id="matplotlib.axis_1">
    <g id="xtick_1">
     <g id="line2d_1">
      <defs>
       <path id="m8f0e801a78" d="M 0 0 
L 0 3.5 
" style="stroke: #000000; stroke-width: 0.8"/>
      </defs>
      <g>
       <use xlink:href="#m8f0e801a78" x="37.279295" y="112.288407" style="stroke: #000000; stroke-width: 0.8"/>
      </g>
     </g>
     <g id="text_1">
      <!-- $\mathdefault{1}$ -->
      <g transform="translate(34.788628 126.206905) scale(0.1 -0.1)">
       <defs>
        <path id="CMR17-31" d="M 1702 4083 
C 1702 4217 1696 4224 1606 4224 
C 1357 3927 979 3833 621 3820 
C 602 3820 570 3820 563 3808 
C 557 3795 557 3782 557 3648 
C 755 3648 1088 3686 1344 3839 
L 1344 467 
C 1344 243 1331 166 781 166 
L 589 166 
L 589 0 
C 896 6 1216 12 1523 12 
C 1830 12 2150 6 2458 0 
L 2458 166 
L 2266 166 
C 1715 166 1702 236 1702 467 
L 1702 4083 
z
" transform="scale(0.015625)"/>
       </defs>
       <use xlink:href="#CMR17-31" transform="scale(0.996264)"/>
      </g>
     </g>
    </g>
    <g id="xtick_2">
     <g id="line2d_2">
      <g>
       <use xlink:href="#m8f0e801a78" x="83.017287" y="112.288407" style="stroke: #000000; stroke-width: 0.8"/>
      </g>
     </g>
     <g id="text_2">
      <!-- $\mathdefault{50}$ -->
      <g transform="translate(78.035952 126.206905) scale(0.1 -0.1)">
       <defs>
        <path id="CMR17-35" d="M 730 3750 
C 794 3724 1056 3641 1325 3641 
C 1920 3641 2246 3961 2432 4140 
C 2432 4191 2432 4224 2394 4224 
C 2387 4224 2374 4224 2323 4198 
C 2099 4102 1837 4032 1517 4032 
C 1325 4032 1037 4055 723 4191 
C 653 4224 640 4224 634 4224 
C 602 4224 595 4217 595 4090 
L 595 2231 
C 595 2113 595 2080 659 2080 
C 691 2080 704 2093 736 2139 
C 941 2435 1222 2560 1542 2560 
C 1766 2560 2246 2415 2246 1293 
C 2246 1087 2246 716 2054 422 
C 1894 159 1645 25 1370 25 
C 947 25 518 319 403 812 
C 429 806 480 793 506 793 
C 589 793 749 838 749 1036 
C 749 1209 627 1280 506 1280 
C 358 1280 262 1190 262 1011 
C 262 454 704 -128 1382 -128 
C 2042 -128 2669 441 2669 1267 
C 2669 2054 2170 2662 1549 2662 
C 1222 2662 947 2540 730 2304 
L 730 3750 
z
" transform="scale(0.015625)"/>
        <path id="CMR17-30" d="M 2688 2038 
C 2688 2430 2682 3099 2413 3613 
C 2176 4063 1798 4224 1466 4224 
C 1158 4224 768 4082 525 3620 
C 269 3137 243 2539 243 2038 
C 243 1671 250 1112 448 623 
C 723 -39 1216 -128 1466 -128 
C 1760 -128 2208 -7 2470 604 
C 2662 1048 2688 1568 2688 2038 
z
M 1466 -26 
C 1056 -26 813 328 723 816 
C 653 1196 653 1749 653 2109 
C 653 2604 653 3015 736 3407 
C 858 3954 1216 4121 1466 4121 
C 1728 4121 2067 3947 2189 3420 
C 2272 3054 2278 2623 2278 2109 
C 2278 1691 2278 1176 2202 797 
C 2067 96 1690 -26 1466 -26 
z
" transform="scale(0.015625)"/>
       </defs>
       <use xlink:href="#CMR17-35" transform="scale(0.996264)"/>
       <use xlink:href="#CMR17-30" transform="translate(45.690477 0) scale(0.996264)"/>
      </g>
     </g>
    </g>
    <g id="xtick_3">
     <g id="line2d_3">
      <g>
       <use xlink:href="#m8f0e801a78" x="129.688708" y="112.288407" style="stroke: #000000; stroke-width: 0.8"/>
      </g>
     </g>
     <g id="text_3">
      <!-- $\mathdefault{100}$ -->
      <g transform="translate(122.216705 126.206905) scale(0.1 -0.1)">
       <use xlink:href="#CMR17-31" transform="scale(0.996264)"/>
       <use xlink:href="#CMR17-30" transform="translate(45.690477 0) scale(0.996264)"/>
       <use xlink:href="#CMR17-30" transform="translate(91.380954 0) scale(0.996264)"/>
      </g>
     </g>
    </g>
    <g id="xtick_4">
     <g id="line2d_4">
      <g>
       <use xlink:href="#m8f0e801a78" x="176.360128" y="112.288407" style="stroke: #000000; stroke-width: 0.8"/>
      </g>
     </g>
     <g id="text_4">
      <!-- $\mathdefault{150}$ -->
      <g transform="translate(168.888125 126.206905) scale(0.1 -0.1)">
       <use xlink:href="#CMR17-31" transform="scale(0.996264)"/>
       <use xlink:href="#CMR17-35" transform="translate(45.690477 0) scale(0.996264)"/>
       <use xlink:href="#CMR17-30" transform="translate(91.380954 0) scale(0.996264)"/>
      </g>
     </g>
    </g>
    <g id="xtick_5">
     <g id="line2d_5">
      <g>
       <use xlink:href="#m8f0e801a78" x="223.031548" y="112.288407" style="stroke: #000000; stroke-width: 0.8"/>
      </g>
     </g>
     <g id="text_5">
      <!-- $\mathdefault{200}$ -->
      <g transform="translate(215.559546 126.206905) scale(0.1 -0.1)">
       <defs>
        <path id="CMR17-32" d="M 2669 990 
L 2554 990 
C 2490 537 2438 460 2413 422 
C 2381 371 1920 371 1830 371 
L 602 371 
C 832 620 1280 1073 1824 1596 
C 2214 1966 2669 2400 2669 3033 
C 2669 3788 2067 4224 1395 4224 
C 691 4224 262 3603 262 3027 
C 262 2777 448 2745 525 2745 
C 589 2745 781 2783 781 3007 
C 781 3206 614 3264 525 3264 
C 486 3264 448 3257 422 3244 
C 544 3788 915 4057 1306 4057 
C 1862 4057 2227 3616 2227 3033 
C 2227 2477 1901 1998 1536 1583 
L 262 147 
L 262 0 
L 2515 0 
L 2669 990 
z
" transform="scale(0.015625)"/>
       </defs>
       <use xlink:href="#CMR17-32" transform="scale(0.996264)"/>
       <use xlink:href="#CMR17-30" transform="translate(45.690477 0) scale(0.996264)"/>
       <use xlink:href="#CMR17-30" transform="translate(91.380954 0) scale(0.996264)"/>
      </g>
     </g>
    </g>
    <g id="text_6">
     <!-- $\mu_r$ -->
     <g transform="translate(128.104666 139.062582) scale(0.1 -0.1)">
      <defs>
       <path id="CMMI12-16" d="M 922 140 
C 1082 -7 1318 -64 1536 -64 
C 1946 -64 2227 210 2374 408 
C 2438 70 2707 -64 2931 -64 
C 3123 -64 3277 51 3392 281 
C 3494 498 3584 887 3584 913 
C 3584 944 3558 970 3520 970 
C 3462 970 3456 938 3430 842 
C 3334 466 3213 64 2950 64 
C 2765 64 2752 229 2752 357 
C 2752 504 2810 734 2854 925 
L 3034 1615 
C 3059 1736 3130 2023 3162 2138 
C 3200 2291 3270 2566 3270 2591 
C 3270 2687 3194 2752 3098 2752 
C 3040 2752 2906 2726 2854 2534 
L 2406 759 
C 2374 632 2374 619 2291 517 
C 2214 408 1965 64 1562 64 
C 1203 64 1088 325 1088 625 
C 1088 811 1146 1034 1171 1143 
L 1459 2292 
C 1491 2413 1542 2617 1542 2656 
C 1542 2758 1459 2816 1376 2816 
C 1318 2816 1178 2796 1126 2592 
L 198 -1085 
C 192 -1116 179 -1154 179 -1191 
C 179 -1287 256 -1351 352 -1351 
C 538 -1351 576 -1204 621 -1029 
L 922 140 
z
" transform="scale(0.015625)"/>
       <path id="CMMI12-72" d="M 2490 2633 
C 2291 2598 2189 2457 2189 2316 
C 2189 2163 2310 2111 2400 2111 
C 2579 2111 2726 2265 2726 2457 
C 2726 2651 2528 2816 2208 2816 
C 1952 2816 1658 2700 1389 2335 
C 1344 2660 1088 2816 832 2816 
C 582 2816 454 2642 378 2508 
C 269 2278 173 1892 173 1860 
C 173 1834 198 1801 243 1801 
C 294 1801 301 1808 339 1957 
C 435 2342 557 2687 813 2687 
C 966 2687 1011 2604 1011 2419 
C 1011 2278 947 2028 902 1827 
L 723 1130 
C 698 1007 627 716 595 600 
C 550 432 480 128 480 96 
C 480 6 550 -64 646 -64 
C 717 -64 838 -20 877 109 
C 896 160 1133 1136 1171 1285 
C 1203 1427 1242 1562 1274 1705 
C 1299 1795 1325 1898 1344 1982 
C 1363 2040 1536 2355 1696 2495 
C 1773 2566 1939 2687 2202 2687 
C 2304 2687 2406 2674 2490 2633 
z
" transform="scale(0.015625)"/>
      </defs>
      <use xlink:href="#CMMI12-16" transform="scale(0.996264)"/>
      <use xlink:href="#CMMI12-72" transform="translate(58.691421 -14.943915) scale(0.697382)"/>
     </g>
    </g>
   </g>
   <g id="matplotlib.axis_2">
    <g id="ytick_1">
     <g id="line2d_6">
      <defs>
       <path id="md6074168ed" d="M 0 0 
L -3.5 0 
" style="stroke: #000000; stroke-width: 0.8"/>
      </defs>
      <g>
       <use xlink:href="#md6074168ed" x="27.711654" y="107.320763" style="stroke: #000000; stroke-width: 0.8"/>
      </g>
     </g>
     <g id="text_7">
      <!-- $\mathdefault{0.00}$ -->
      <g transform="translate(3.00024 110.780012) scale(0.1 -0.1)">
       <defs>
        <path id="CMMI12-3a" d="M 1178 307 
C 1178 492 1024 620 870 620 
C 685 620 557 467 557 313 
C 557 128 710 0 864 0 
C 1050 0 1178 153 1178 307 
z
" transform="scale(0.015625)"/>
       </defs>
       <use xlink:href="#CMR17-30" transform="scale(0.996264)"/>
       <use xlink:href="#CMMI12-3a" transform="translate(45.690477 0) scale(0.996264)"/>
       <use xlink:href="#CMR17-30" transform="translate(72.787654 0) scale(0.996264)"/>
       <use xlink:href="#CMR17-30" transform="translate(118.478131 0) scale(0.996264)"/>
      </g>
     </g>
    </g>
    <g id="ytick_2">
     <g id="line2d_7">
      <g>
       <use xlink:href="#md6074168ed" x="27.711654" y="82.482543" style="stroke: #000000; stroke-width: 0.8"/>
      </g>
     </g>
     <g id="text_8">
      <!-- $\mathdefault{0.25}$ -->
      <g transform="translate(3.00024 85.941792) scale(0.1 -0.1)">
       <use xlink:href="#CMR17-30" transform="scale(0.996264)"/>
       <use xlink:href="#CMMI12-3a" transform="translate(45.690477 0) scale(0.996264)"/>
       <use xlink:href="#CMR17-32" transform="translate(72.787654 0) scale(0.996264)"/>
       <use xlink:href="#CMR17-35" transform="translate(118.478131 0) scale(0.996264)"/>
      </g>
     </g>
    </g>
    <g id="ytick_3">
     <g id="line2d_8">
      <g>
       <use xlink:href="#md6074168ed" x="27.711654" y="57.644323" style="stroke: #000000; stroke-width: 0.8"/>
      </g>
     </g>
     <g id="text_9">
      <!-- $\mathdefault{0.50}$ -->
      <g transform="translate(3.00024 61.103572) scale(0.1 -0.1)">
       <use xlink:href="#CMR17-30" transform="scale(0.996264)"/>
       <use xlink:href="#CMMI12-3a" transform="translate(45.690477 0) scale(0.996264)"/>
       <use xlink:href="#CMR17-35" transform="translate(72.787654 0) scale(0.996264)"/>
       <use xlink:href="#CMR17-30" transform="translate(118.478131 0) scale(0.996264)"/>
      </g>
     </g>
    </g>
    <g id="ytick_4">
     <g id="line2d_9">
      <g>
       <use xlink:href="#md6074168ed" x="27.711654" y="32.806104" style="stroke: #000000; stroke-width: 0.8"/>
      </g>
     </g>
     <g id="text_10">
      <!-- $\mathdefault{0.75}$ -->
      <g transform="translate(3.00024 36.265353) scale(0.1 -0.1)">
       <defs>
        <path id="CMR17-37" d="M 2886 3955 
L 2886 4096 
L 1382 4096 
C 634 4096 621 4166 595 4288 
L 480 4288 
L 294 3104 
L 410 3104 
C 429 3226 474 3552 550 3673 
C 589 3724 1062 3724 1171 3724 
L 2579 3724 
L 1869 2670 
C 1395 1961 1069 1003 1069 166 
C 1069 89 1069 -128 1299 -128 
C 1530 -128 1530 89 1530 172 
L 1530 466 
C 1530 1514 1709 2204 2003 2644 
L 2886 3955 
z
" transform="scale(0.015625)"/>
       </defs>
       <use xlink:href="#CMR17-30" transform="scale(0.996264)"/>
       <use xlink:href="#CMMI12-3a" transform="translate(45.690477 0) scale(0.996264)"/>
       <use xlink:href="#CMR17-37" transform="translate(72.787654 0) scale(0.996264)"/>
       <use xlink:href="#CMR17-35" transform="translate(118.478131 0) scale(0.996264)"/>
      </g>
     </g>
    </g>
    <g id="ytick_5">
     <g id="line2d_10">
      <g>
       <use xlink:href="#md6074168ed" x="27.711654" y="7.967884" style="stroke: #000000; stroke-width: 0.8"/>
      </g>
     </g>
     <g id="text_11">
      <!-- $\mathdefault{1.00}$ -->
      <g transform="translate(3.00024 11.427133) scale(0.1 -0.1)">
       <use xlink:href="#CMR17-31" transform="scale(0.996264)"/>
       <use xlink:href="#CMMI12-3a" transform="translate(45.690477 0) scale(0.996264)"/>
       <use xlink:href="#CMR17-30" transform="translate(72.787654 0) scale(0.996264)"/>
       <use xlink:href="#CMR17-30" transform="translate(118.478131 0) scale(0.996264)"/>
      </g>
     </g>
    </g>
   </g>
   <g id="line2d_11">
    <path d="M 37.279295 107.320763 
L 38.212724 90.274504 
L 39.146152 80.699239 
L 40.079581 74.203136 
L 41.013009 69.37134 
L 41.946437 65.572275 
L 42.879866 62.471261 
L 43.813294 59.870598 
L 44.746723 57.644323 
L 46.613579 54.000552 
L 48.480436 51.112721 
L 50.347293 48.744908 
L 52.21415 46.754076 
L 54.081007 45.047471 
L 56.881292 42.887258 
L 59.681577 41.08551 
L 62.481862 39.551079 
L 66.215576 37.817682 
L 69.94929 36.354421 
L 74.616432 34.808681 
L 79.283574 33.500823 
L 84.884144 32.167528 
L 91.418143 30.857231 
L 98.88557 29.600777 
L 107.286426 28.415496 
L 117.554138 27.20856 
L 129.688708 26.032044 
L 143.690134 24.916797 
L 159.558417 23.878186 
L 179.160413 22.830704 
L 202.496123 21.823024 
L 227.69869 20.940079 
L 227.69869 20.940079 
" clip-path="url(#p2a0b5e38ed)" style="fill: none; stroke: #000000; stroke-width: 0.75; stroke-linecap: square"/>
   </g>
   <g id="line2d_12">
    <path d="M 37.279295 7.967884 
L 38.212724 25.014143 
L 39.146152 34.589408 
L 40.079581 41.08551 
L 41.013009 45.917307 
L 41.946437 49.716371 
L 42.879866 52.817386 
L 43.813294 55.418049 
L 44.746723 57.644323 
L 46.613579 61.288094 
L 48.480436 64.175926 
L 50.347293 66.543739 
L 52.21415 68.534571 
L 54.081007 70.241176 
L 56.881292 72.401388 
L 59.681577 74.203136 
L 62.481862 75.737567 
L 66.215576 77.470964 
L 69.94929 78.934226 
L 74.616432 80.479965 
L 79.283574 81.787824 
L 84.884144 83.121119 
L 91.418143 84.431416 
L 98.88557 85.687869 
L 107.286426 86.873151 
L 117.554138 88.080086 
L 129.688708 89.256603 
L 143.690134 90.37185 
L 159.558417 91.41046 
L 179.160413 92.457942 
L 202.496123 93.465623 
L 227.69869 94.348568 
L 227.69869 94.348568 
" clip-path="url(#p2a0b5e38ed)" style="fill: none; stroke: #ff0000; stroke-width: 0.75; stroke-linecap: square"/>
   </g>
   <g id="line2d_13">
    <defs>
     <path id="m34ee0b8fd1" d="M 0 0.5 
C 0.132602 0.5 0.25979 0.447317 0.353553 0.353553 
C 0.447317 0.25979 0.5 0.132602 0.5 0 
C 0.5 -0.132602 0.447317 -0.25979 0.353553 -0.353553 
C 0.25979 -0.447317 0.132602 -0.5 0 -0.5 
C -0.132602 -0.5 -0.25979 -0.447317 -0.353553 -0.353553 
C -0.447317 -0.25979 -0.5 -0.132602 -0.5 0 
C -0.5 0.132602 -0.447317 0.25979 -0.353553 0.353553 
C -0.25979 0.447317 -0.132602 0.5 0 0.5 
z
" style="stroke: #000000"/>
    </defs>
    <g clip-path="url(#p2a0b5e38ed)">
     <use xlink:href="#m34ee0b8fd1" x="37.279295" y="107.320763" style="stroke: #000000"/>
     <use xlink:href="#m34ee0b8fd1" x="41.946437" y="65.469808" style="stroke: #000000"/>
     <use xlink:href="#m34ee0b8fd1" x="46.613579" y="53.893394" style="stroke: #000000"/>
     <use xlink:href="#m34ee0b8fd1" x="51.280722" y="47.606513" style="stroke: #000000"/>
     <use xlink:href="#m34ee0b8fd1" x="55.947864" y="43.464459" style="stroke: #000000"/>
     <use xlink:href="#m34ee0b8fd1" x="60.615006" y="40.454084" style="stroke: #000000"/>
     <use xlink:href="#m34ee0b8fd1" x="65.282148" y="38.131913" style="stroke: #000000"/>
     <use xlink:href="#m34ee0b8fd1" x="69.94929" y="36.267827" style="stroke: #000000"/>
     <use xlink:href="#m34ee0b8fd1" x="74.616432" y="34.724908" style="stroke: #000000"/>
     <use xlink:href="#m34ee0b8fd1" x="79.283574" y="33.420424" style="stroke: #000000"/>
     <use xlink:href="#m34ee0b8fd1" x="83.950716" y="32.296284" style="stroke: #000000"/>
     <use xlink:href="#m34ee0b8fd1" x="88.617858" y="31.315118" style="stroke: #000000"/>
     <use xlink:href="#m34ee0b8fd1" x="93.285" y="30.447381" style="stroke: #000000"/>
     <use xlink:href="#m34ee0b8fd1" x="97.952142" y="29.673367" style="stroke: #000000"/>
     <use xlink:href="#m34ee0b8fd1" x="102.619284" y="28.97798" style="stroke: #000000"/>
     <use xlink:href="#m34ee0b8fd1" x="107.286426" y="28.346298" style="stroke: #000000"/>
     <use xlink:href="#m34ee0b8fd1" x="111.953568" y="27.771048" style="stroke: #000000"/>
     <use xlink:href="#m34ee0b8fd1" x="116.62071" y="27.242819" style="stroke: #000000"/>
     <use xlink:href="#m34ee0b8fd1" x="121.287852" y="26.756847" style="stroke: #000000"/>
     <use xlink:href="#m34ee0b8fd1" x="125.954994" y="26.306548" style="stroke: #000000"/>
     <use xlink:href="#m34ee0b8fd1" x="130.622136" y="25.888117" style="stroke: #000000"/>
     <use xlink:href="#m34ee0b8fd1" x="135.289278" y="25.497997" style="stroke: #000000"/>
     <use xlink:href="#m34ee0b8fd1" x="139.95642" y="25.133216" style="stroke: #000000"/>
     <use xlink:href="#m34ee0b8fd1" x="144.623562" y="24.790416" style="stroke: #000000"/>
     <use xlink:href="#m34ee0b8fd1" x="149.290704" y="24.468515" style="stroke: #000000"/>
     <use xlink:href="#m34ee0b8fd1" x="153.957846" y="24.164311" style="stroke: #000000"/>
     <use xlink:href="#m34ee0b8fd1" x="158.624988" y="23.877328" style="stroke: #000000"/>
     <use xlink:href="#m34ee0b8fd1" x="163.29213" y="23.605134" style="stroke: #000000"/>
     <use xlink:href="#m34ee0b8fd1" x="167.959272" y="23.346665" style="stroke: #000000"/>
     <use xlink:href="#m34ee0b8fd1" x="172.626414" y="23.101772" style="stroke: #000000"/>
     <use xlink:href="#m34ee0b8fd1" x="177.293556" y="22.867887" style="stroke: #000000"/>
     <use xlink:href="#m34ee0b8fd1" x="181.960698" y="22.645042" style="stroke: #000000"/>
     <use xlink:href="#m34ee0b8fd1" x="186.627841" y="22.43194" style="stroke: #000000"/>
     <use xlink:href="#m34ee0b8fd1" x="191.294983" y="22.228283" style="stroke: #000000"/>
     <use xlink:href="#m34ee0b8fd1" x="195.962125" y="22.032927" style="stroke: #000000"/>
     <use xlink:href="#m34ee0b8fd1" x="200.629267" y="21.84553" style="stroke: #000000"/>
     <use xlink:href="#m34ee0b8fd1" x="205.296409" y="21.665645" style="stroke: #000000"/>
     <use xlink:href="#m34ee0b8fd1" x="209.963551" y="21.493063" style="stroke: #000000"/>
     <use xlink:href="#m34ee0b8fd1" x="214.630693" y="21.326696" style="stroke: #000000"/>
     <use xlink:href="#m34ee0b8fd1" x="219.297835" y="21.166665" style="stroke: #000000"/>
     <use xlink:href="#m34ee0b8fd1" x="223.964977" y="21.012364" style="stroke: #000000"/>
     <use xlink:href="#m34ee0b8fd1" x="228.632119" y="20.863272" style="stroke: #000000"/>
    </g>
   </g>
   <g id="line2d_14">
    <defs>
     <path id="m4009df939a" d="M 0 0.5 
C 0.132602 0.5 0.25979 0.447317 0.353553 0.353553 
C 0.447317 0.25979 0.5 0.132602 0.5 0 
C 0.5 -0.132602 0.447317 -0.25979 0.353553 -0.353553 
C 0.25979 -0.447317 0.132602 -0.5 0 -0.5 
C -0.132602 -0.5 -0.25979 -0.447317 -0.353553 -0.353553 
C -0.447317 -0.25979 -0.5 -0.132602 -0.5 0 
C -0.5 0.132602 -0.447317 0.25979 -0.353553 0.353553 
C -0.25979 0.447317 -0.132602 0.5 0 0.5 
z
" style="stroke: #ff0000"/>
    </defs>
    <g clip-path="url(#p2a0b5e38ed)">
     <use xlink:href="#m4009df939a" x="37.279295" y="8.509186" style="fill: #ff0000; stroke: #ff0000"/>
     <use xlink:href="#m4009df939a" x="41.946437" y="50.101687" style="fill: #ff0000; stroke: #ff0000"/>
     <use xlink:href="#m4009df939a" x="46.613579" y="61.614518" style="fill: #ff0000; stroke: #ff0000"/>
     <use xlink:href="#m4009df939a" x="51.280722" y="67.865384" style="fill: #ff0000; stroke: #ff0000"/>
     <use xlink:href="#m4009df939a" x="55.947864" y="71.984765" style="fill: #ff0000; stroke: #ff0000"/>
     <use xlink:href="#m4009df939a" x="60.615006" y="74.981025" style="fill: #ff0000; stroke: #ff0000"/>
     <use xlink:href="#m4009df939a" x="65.282148" y="77.292491" style="fill: #ff0000; stroke: #ff0000"/>
     <use xlink:href="#m4009df939a" x="69.94929" y="79.146603" style="fill: #ff0000; stroke: #ff0000"/>
     <use xlink:href="#m4009df939a" x="74.616432" y="80.681982" style="fill: #ff0000; stroke: #ff0000"/>
     <use xlink:href="#m4009df939a" x="79.283574" y="81.979632" style="fill: #ff0000; stroke: #ff0000"/>
     <use xlink:href="#m4009df939a" x="83.950716" y="83.098613" style="fill: #ff0000; stroke: #ff0000"/>
     <use xlink:href="#m4009df939a" x="88.617858" y="84.074939" style="fill: #ff0000; stroke: #ff0000"/>
     <use xlink:href="#m4009df939a" x="93.285" y="84.939291" style="fill: #ff0000; stroke: #ff0000"/>
     <use xlink:href="#m4009df939a" x="97.952142" y="85.70997" style="fill: #ff0000; stroke: #ff0000"/>
     <use xlink:href="#m4009df939a" x="102.619284" y="86.401103" style="fill: #ff0000; stroke: #ff0000"/>
     <use xlink:href="#m4009df939a" x="107.286426" y="87.030745" style="fill: #ff0000; stroke: #ff0000"/>
     <use xlink:href="#m4009df939a" x="111.953568" y="87.602958" style="fill: #ff0000; stroke: #ff0000"/>
     <use xlink:href="#m4009df939a" x="116.62071" y="88.12913" style="fill: #ff0000; stroke: #ff0000"/>
     <use xlink:href="#m4009df939a" x="121.287852" y="88.612213" style="fill: #ff0000; stroke: #ff0000"/>
     <use xlink:href="#m4009df939a" x="125.954994" y="89.060704" style="fill: #ff0000; stroke: #ff0000"/>
     <use xlink:href="#m4009df939a" x="130.622136" y="89.477144" style="fill: #ff0000; stroke: #ff0000"/>
     <use xlink:href="#m4009df939a" x="135.289278" y="89.865445" style="fill: #ff0000; stroke: #ff0000"/>
     <use xlink:href="#m4009df939a" x="139.95642" y="90.228425" style="fill: #ff0000; stroke: #ff0000"/>
     <use xlink:href="#m4009df939a" x="144.623562" y="90.570229" style="fill: #ff0000; stroke: #ff0000"/>
     <use xlink:href="#m4009df939a" x="149.290704" y="90.890486" style="fill: #ff0000; stroke: #ff0000"/>
     <use xlink:href="#m4009df939a" x="153.957846" y="91.193588" style="fill: #ff0000; stroke: #ff0000"/>
     <use xlink:href="#m4009df939a" x="158.624988" y="91.47883" style="fill: #ff0000; stroke: #ff0000"/>
     <use xlink:href="#m4009df939a" x="163.29213" y="91.749952" style="fill: #ff0000; stroke: #ff0000"/>
     <use xlink:href="#m4009df939a" x="167.959272" y="92.007334" style="fill: #ff0000; stroke: #ff0000"/>
     <use xlink:href="#m4009df939a" x="172.626414" y="92.250849" style="fill: #ff0000; stroke: #ff0000"/>
     <use xlink:href="#m4009df939a" x="177.293556" y="92.483756" style="fill: #ff0000; stroke: #ff0000"/>
     <use xlink:href="#m4009df939a" x="181.960698" y="92.705705" style="fill: #ff0000; stroke: #ff0000"/>
     <use xlink:href="#m4009df939a" x="186.627841" y="92.917764" style="fill: #ff0000; stroke: #ff0000"/>
     <use xlink:href="#m4009df939a" x="191.294983" y="93.120502" style="fill: #ff0000; stroke: #ff0000"/>
     <use xlink:href="#m4009df939a" x="195.962125" y="93.314849" style="fill: #ff0000; stroke: #ff0000"/>
     <use xlink:href="#m4009df939a" x="200.629267" y="93.501891" style="fill: #ff0000; stroke: #ff0000"/>
     <use xlink:href="#m4009df939a" x="205.296409" y="93.680712" style="fill: #ff0000; stroke: #ff0000"/>
     <use xlink:href="#m4009df939a" x="209.963551" y="93.852457" style="fill: #ff0000; stroke: #ff0000"/>
     <use xlink:href="#m4009df939a" x="214.630693" y="94.018401" style="fill: #ff0000; stroke: #ff0000"/>
     <use xlink:href="#m4009df939a" x="219.297835" y="94.177544" style="fill: #ff0000; stroke: #ff0000"/>
     <use xlink:href="#m4009df939a" x="223.964977" y="94.330938" style="fill: #ff0000; stroke: #ff0000"/>
     <use xlink:href="#m4009df939a" x="228.632119" y="94.479589" style="fill: #ff0000; stroke: #ff0000"/>
    </g>
   </g>
   <g id="line2d_15">
    <path d="M 27.711654 107.320763 
L 238.19976 107.320763 
" clip-path="url(#p2a0b5e38ed)" style="fill: none; stroke-dasharray: 2.775,1.2; stroke-dashoffset: 0; stroke: #808080; stroke-width: 0.75"/>
   </g>
   <g id="line2d_16">
    <path d="M 27.711654 7.967884 
L 238.19976 7.967884 
" clip-path="url(#p2a0b5e38ed)" style="fill: none; stroke-dasharray: 2.775,1.2; stroke-dashoffset: 0; stroke: #808080; stroke-width: 0.75"/>
   </g>
   <g id="patch_3">
    <path d="M 27.711654 112.288407 
L 27.711654 3.00024 
" style="fill: none; stroke: #000000; stroke-width: 0.8; stroke-linejoin: miter; stroke-linecap: square"/>
   </g>
   <g id="patch_4">
    <path d="M 238.19976 112.288407 
L 238.19976 3.00024 
" style="fill: none; stroke: #000000; stroke-width: 0.8; stroke-linejoin: miter; stroke-linecap: square"/>
   </g>
   <g id="patch_5">
    <path d="M 27.711654 112.288407 
L 238.19976 112.288407 
" style="fill: none; stroke: #000000; stroke-width: 0.8; stroke-linejoin: miter; stroke-linecap: square"/>
   </g>
   <g id="patch_6">
    <path d="M 27.711654 3.00024 
L 238.19976 3.00024 
" style="fill: none; stroke: #000000; stroke-width: 0.8; stroke-linejoin: miter; stroke-linecap: square"/>
   </g>
   <g id="text_12">
    <!-- $\varepsilon_r = 1$ -->
    <g transform="translate(101.685855 57.644323) scale(0.1 -0.1)">
     <defs>
      <path id="CMMI12-22" d="M 890 1427 
C 1094 1344 1312 1344 1434 1344 
C 1600 1344 1933 1344 1933 1554 
C 1933 1683 1811 1728 1485 1728 
C 1325 1728 1133 1708 909 1612 
C 710 1708 634 1853 634 1991 
C 634 2379 1261 2604 1830 2604 
C 1939 2604 2170 2604 2438 2410 
C 2477 2385 2496 2366 2541 2366 
C 2618 2366 2701 2448 2701 2523 
C 2701 2636 2330 2880 1888 2880 
C 1171 2880 493 2454 493 1991 
C 493 1759 646 1612 755 1508 
C 384 1288 166 953 166 649 
C 166 221 563 -128 1178 -128 
C 2022 -128 2362 426 2362 513 
C 2362 544 2336 568 2304 568 
C 2272 568 2259 550 2234 513 
C 2163 395 1997 147 1235 147 
C 838 147 314 246 314 686 
C 314 897 474 1213 890 1427 
z
M 1088 1517 
C 1261 1599 1427 1599 1472 1599 
C 1651 1599 1683 1581 1786 1545 
C 1677 1472 1664 1472 1434 1472 
C 1318 1472 1216 1472 1088 1517 
z
" transform="scale(0.015625)"/>
      <path id="CMR17-3d" d="M 4115 2048 
C 4211 2048 4307 2048 4307 2156 
C 4307 2272 4198 2272 4090 2272 
L 512 2272 
C 403 2272 294 2272 294 2156 
C 294 2048 390 2048 486 2048 
L 4115 2048 
z
M 4090 927 
C 4198 927 4307 927 4307 1043 
C 4307 1152 4211 1152 4115 1152 
L 486 1152 
C 390 1152 294 1152 294 1043 
C 294 927 403 927 512 927 
L 4090 927 
z
" transform="scale(0.015625)"/>
     </defs>
     <use xlink:href="#CMMI12-22" transform="scale(0.996264)"/>
     <use xlink:href="#CMMI12-72" transform="translate(45.650192 -14.943915) scale(0.697382)"/>
     <use xlink:href="#CMR17-3d" transform="translate(106.491602 0) scale(0.996264)"/>
     <use xlink:href="#CMR17-31" transform="translate(205.880399 0) scale(0.996264)"/>
    </g>
   </g>
   <g id="legend_1">
    <g id="patch_7">
     <path d="M 161.542696 74.112497 
L 231.19976 74.112497 
Q 233.19976 74.112497 233.19976 72.112497 
L 233.19976 43.17615 
Q 233.19976 41.17615 231.19976 41.17615 
L 161.542696 41.17615 
Q 159.542696 41.17615 159.542696 43.17615 
L 159.542696 72.112497 
Q 159.542696 74.112497 161.542696 74.112497 
z
" style="fill: #ffffff; opacity: 0.8; stroke: #cccccc; stroke-linejoin: miter"/>
    </g>
    <g id="line2d_17">
     <defs>
      <path id="m31dbcf1d96" d="M 0 2.5 
C 0.663008 2.5 1.29895 2.236584 1.767767 1.767767 
C 2.236584 1.29895 2.5 0.663008 2.5 0 
C 2.5 -0.663008 2.236584 -1.29895 1.767767 -1.767767 
C 1.29895 -2.236584 0.663008 -2.5 0 -2.5 
C -0.663008 -2.5 -1.29895 -2.236584 -1.767767 -1.767767 
C -2.236584 -1.29895 -2.5 -0.663008 -2.5 0 
C -2.5 0.663008 -2.236584 1.29895 -1.767767 1.767767 
C -1.29895 2.236584 -0.663008 2.5 0 2.5 
z
" style="stroke: #000000"/>
     </defs>
     <g>
      <use xlink:href="#m31dbcf1d96" x="173.542696" y="49.14813" style="stroke: #000000"/>
     </g>
    </g>
    <g id="text_13">
     <!-- $| H_{0_R} / H_{0_I} |$ -->
     <g transform="translate(183.542696 52.64813) scale(0.1 -0.1)">
      <defs>
       <path id="CMSY10-6a" d="M 1018 4569 
C 1018 4684 1018 4800 890 4800 
C 762 4800 762 4684 762 4569 
L 762 -1370 
C 762 -1485 762 -1600 890 -1600 
C 1018 -1600 1018 -1485 1018 -1370 
L 1018 4569 
z
" transform="scale(0.015625)"/>
       <path id="CMMI12-48" d="M 4787 3886 
C 4845 4102 4858 4166 5312 4166 
C 5427 4166 5491 4166 5491 4281 
C 5491 4352 5434 4352 5395 4352 
C 5280 4352 5146 4339 5024 4339 
L 4269 4339 
C 4147 4339 4013 4352 3891 4352 
C 3846 4352 3770 4352 3770 4230 
C 3770 4166 3814 4166 3936 4166 
C 4320 4166 4320 4115 4320 4045 
C 4320 4032 4320 3994 4294 3899 
L 3904 2361 
L 1971 2361 
L 2355 3886 
C 2413 4102 2426 4166 2880 4166 
C 2995 4166 3059 4166 3059 4281 
C 3059 4352 3002 4352 2963 4352 
C 2848 4352 2714 4339 2592 4339 
L 1837 4339 
C 1715 4339 1581 4352 1459 4352 
C 1414 4352 1338 4352 1338 4230 
C 1338 4166 1382 4166 1504 4166 
C 1888 4166 1888 4115 1888 4045 
C 1888 4032 1888 3994 1862 3899 
L 998 472 
C 941 249 928 185 486 185 
C 339 185 294 185 294 64 
C 294 0 365 0 384 0 
C 499 0 634 12 755 12 
L 1510 12 
C 1632 12 1766 0 1888 0 
C 1939 0 2010 0 2010 121 
C 2010 185 1952 185 1856 185 
C 1466 185 1466 236 1466 300 
C 1466 306 1466 351 1478 402 
L 1920 2176 
L 3859 2176 
C 3750 1755 3424 421 3411 383 
C 3341 191 3238 191 2861 185 
C 2784 185 2726 185 2726 64 
C 2726 0 2797 0 2816 0 
C 2931 0 3066 12 3187 12 
L 3942 12 
C 4064 12 4198 0 4320 0 
C 4371 0 4442 0 4442 121 
C 4442 185 4384 185 4288 185 
C 3898 185 3898 236 3898 300 
C 3898 306 3898 351 3910 402 
L 4787 3886 
z
" transform="scale(0.015625)"/>
       <path id="CMMI12-52" d="M 2355 3917 
C 2413 4153 2438 4166 2688 4166 
L 3149 4166 
C 3699 4166 4109 4000 4109 3503 
C 4109 3177 3942 2240 2656 2240 
L 1933 2240 
L 2355 3917 
z
M 3245 2163 
C 4038 2335 4659 2846 4659 3394 
C 4659 3892 4154 4352 3264 4352 
L 1530 4352 
C 1402 4352 1344 4352 1344 4230 
C 1344 4166 1389 4166 1510 4166 
C 1894 4166 1894 4115 1894 4045 
C 1894 4032 1894 3994 1869 3898 
L 1005 475 
C 947 253 934 190 493 190 
C 346 190 301 190 301 69 
C 301 6 371 6 390 6 
C 506 6 640 19 762 19 
L 1517 19 
C 1632 19 1766 6 1882 6 
C 1933 6 2003 6 2003 126 
C 2003 190 1946 190 1850 190 
C 1459 190 1459 241 1459 304 
C 1459 310 1459 355 1472 405 
L 1901 2112 
L 2669 2112 
C 3277 2112 3392 1731 3392 1522 
C 3392 1426 3328 1179 3283 1014 
C 3213 723 3194 653 3194 532 
C 3194 82 3565 -128 3994 -128 
C 4512 -128 4736 501 4736 589 
C 4736 634 4704 653 4666 653 
C 4614 653 4602 615 4589 564 
C 4435 114 4173 0 4013 0 
C 3853 0 3750 69 3750 355 
C 3750 507 3827 1084 3834 1116 
C 3866 1350 3866 1376 3866 1426 
C 3866 1889 3488 2086 3245 2163 
z
" transform="scale(0.015625)"/>
       <path id="CMMI12-3d" d="M 2746 4563 
C 2746 4569 2784 4665 2784 4678 
C 2784 4755 2720 4800 2669 4800 
C 2637 4800 2579 4800 2528 4659 
L 384 -1364 
C 384 -1370 346 -1466 346 -1479 
C 346 -1556 410 -1600 461 -1600 
C 499 -1600 557 -1594 602 -1460 
L 2746 4563 
z
" transform="scale(0.015625)"/>
       <path id="CMMI12-49" d="M 2355 3879 
C 2413 4102 2426 4166 2893 4166 
C 3034 4166 3085 4166 3085 4287 
C 3085 4352 3014 4352 2995 4352 
C 2880 4352 2739 4339 2624 4339 
L 1837 4339 
C 1709 4339 1562 4352 1434 4352 
C 1382 4352 1312 4352 1312 4230 
C 1312 4166 1363 4166 1491 4166 
C 1888 4166 1888 4115 1888 4045 
C 1888 4000 1875 3962 1862 3905 
L 998 472 
C 941 249 928 185 461 185 
C 320 185 262 185 262 64 
C 262 0 326 0 358 0 
C 474 0 614 12 730 12 
L 1517 12 
C 1645 12 1786 0 1914 0 
C 1965 0 2042 0 2042 115 
C 2042 185 2003 185 1862 185 
C 1466 185 1466 236 1466 312 
C 1466 325 1466 357 1491 459 
L 2355 3879 
z
" transform="scale(0.015625)"/>
      </defs>
      <use xlink:href="#CMSY10-6a" transform="scale(0.996264)"/>
      <use xlink:href="#CMMI12-48" transform="translate(27.674085 0) scale(0.996264)"/>
      <use xlink:href="#CMR17-30" transform="translate(108.498921 -14.943915) scale(0.697382)"/>
      <use xlink:href="#CMMI12-52" transform="translate(140.482103 -25.404611) scale(0.498132)"/>
      <use xlink:href="#CMMI12-3d" transform="translate(179.013848 0) scale(0.996264)"/>
      <use xlink:href="#CMMI12-48" transform="translate(227.788767 0) scale(0.996264)"/>
      <use xlink:href="#CMR17-30" transform="translate(308.613604 -14.943915) scale(0.697382)"/>
      <use xlink:href="#CMMI12-49" transform="translate(340.596785 -25.404611) scale(0.498132)"/>
      <use xlink:href="#CMSY10-6a" transform="translate(367.021299 0) scale(0.996264)"/>
     </g>
    </g>
    <g id="line2d_18">
     <defs>
      <path id="m53e712c689" d="M 0 2.5 
C 0.663008 2.5 1.29895 2.236584 1.767767 1.767767 
C 2.236584 1.29895 2.5 0.663008 2.5 0 
C 2.5 -0.663008 2.236584 -1.29895 1.767767 -1.767767 
C 1.29895 -2.236584 0.663008 -2.5 0 -2.5 
C -0.663008 -2.5 -1.29895 -2.236584 -1.767767 -1.767767 
C -2.236584 -1.29895 -2.5 -0.663008 -2.5 0 
C -2.5 0.663008 -2.236584 1.29895 -1.767767 1.767767 
C -1.29895 2.236584 -0.663008 2.5 0 2.5 
z
" style="stroke: #ff0000"/>
     </defs>
     <g>
      <use xlink:href="#m53e712c689" x="173.542696" y="64.116303" style="fill: #ff0000; stroke: #ff0000"/>
     </g>
    </g>
    <g id="text_14">
     <!-- $| H_{0_T} / H_{0_I} |$ -->
     <g transform="translate(183.542696 67.616303) scale(0.1 -0.1)">
      <defs>
       <path id="CMMI12-54" d="M 2669 3886 
C 2707 4038 2720 4096 2816 4121 
C 2867 4134 3078 4134 3213 4134 
C 3853 4134 4154 4109 4154 3612 
C 4154 3516 4128 3274 4090 3038 
L 4083 2962 
C 4083 2937 4109 2898 4147 2898 
C 4211 2898 4211 2930 4230 3032 
L 4416 4159 
C 4429 4217 4429 4230 4429 4249 
C 4429 4319 4390 4319 4262 4319 
L 762 4319 
C 614 4319 608 4313 570 4198 
L 179 3051 
C 173 3038 154 2968 154 2962 
C 154 2930 179 2898 218 2898 
C 269 2898 282 2924 307 3007 
C 576 3777 710 4134 1562 4134 
L 1990 4134 
C 2144 4134 2208 4134 2208 4064 
C 2208 4045 2208 4032 2176 3917 
L 1318 497 
C 1254 249 1242 185 563 185 
C 403 185 358 185 358 64 
C 358 0 429 0 461 0 
C 621 0 787 12 947 12 
L 1946 12 
C 2106 12 2278 0 2438 0 
C 2509 0 2573 0 2573 121 
C 2573 185 2528 185 2362 185 
C 1786 185 1786 242 1786 338 
C 1786 344 1786 389 1811 491 
L 2669 3886 
z
" transform="scale(0.015625)"/>
      </defs>
      <use xlink:href="#CMSY10-6a" transform="scale(0.996264)"/>
      <use xlink:href="#CMMI12-48" transform="translate(27.674085 0) scale(0.996264)"/>
      <use xlink:href="#CMR17-30" transform="translate(108.498921 -14.943915) scale(0.697382)"/>
      <use xlink:href="#CMMI12-54" transform="translate(140.482103 -25.404611) scale(0.498132)"/>
      <use xlink:href="#CMMI12-3d" transform="translate(176.840176 0) scale(0.996264)"/>
      <use xlink:href="#CMMI12-48" transform="translate(225.615095 0) scale(0.996264)"/>
      <use xlink:href="#CMR17-30" transform="translate(306.439931 -14.943915) scale(0.697382)"/>
      <use xlink:href="#CMMI12-49" transform="translate(338.423113 -25.404611) scale(0.498132)"/>
      <use xlink:href="#CMSY10-6a" transform="translate(364.847626 0) scale(0.996264)"/>
     </g>
    </g>
   </g>
  </g>
 </g>
 <defs>
  <clipPath id="p2a0b5e38ed">
   <rect x="27.711654" y="3.00024" width="210.488106" height="109.288167"/>
  </clipPath>
 </defs>
</svg>
