<?xml version="1.0" encoding="utf-8" standalone="no"?>
<!DOCTYPE svg PUBLIC "-//W3C//DTD SVG 1.1//EN"
  "http://www.w3.org/Graphics/SVG/1.1/DTD/svg11.dtd">
<svg xmlns:xlink="http://www.w3.org/1999/xlink" width="160.56pt" height="160.56pt" viewBox="0 0 160.56 160.56" xmlns="http://www.w3.org/2000/svg" version="1.1">
 <metadata>
  <rdf:RDF xmlns:dc="http://purl.org/dc/elements/1.1/" xmlns:cc="http://creativecommons.org/ns#" xmlns:rdf="http://www.w3.org/1999/02/22-rdf-syntax-ns#">
   <cc:Work>
    <dc:type rdf:resource="http://purl.org/dc/dcmitype/StillImage"/>
    <dc:date>2025-01-19T16:02:00.188440</dc:date>
    <dc:format>image/svg+xml</dc:format>
    <dc:creator>
     <cc:Agent>
      <dc:title>Matplotlib v3.6.3, https://matplotlib.org/</dc:title>
     </cc:Agent>
    </dc:creator>
   </cc:Work>
  </rdf:RDF>
 </metadata>
 <defs>
  <style type="text/css">*{stroke-linejoin: round; stroke-linecap: butt}</style>
 </defs>
 <g id="figure_1">
  <g id="patch_1">
   <path d="M 0 160.56 
L 160.56 160.56 
L 160.56 0 
L 0 0 
z
" style="fill: #ffffff"/>
  </g>
  <g id="axes_1">
   <g id="patch_2">
    <path d="M 157.55976 80.28 
C 157.55976 70.131715 155.560769 60.082109 151.677189 50.706316 
C 147.793608 41.330523 142.100964 32.810879 134.925042 25.634958 
C 127.749121 18.459036 119.229477 12.766392 109.853684 8.882811 
C 100.477891 4.999231 90.428285 3.00024 80.28 3.00024 
C 70.131715 3.00024 60.082109 4.999231 50.706316 8.882811 
C 41.330523 12.766392 32.810879 18.459036 25.634958 25.634958 
C 18.459036 32.810879 12.766392 41.330523 8.882811 50.706316 
C 4.999231 60.082109 3.00024 70.131715 3.00024 80.28 
C 3.00024 90.428285 4.999231 100.477891 8.882811 109.853684 
C 12.766392 119.229477 18.459036 127.749121 25.634958 134.925042 
C 32.810879 142.100964 41.330523 147.793608 50.706316 151.677189 
C 60.082109 155.560769 70.131715 157.55976 80.28 157.55976 
C 90.428285 157.55976 100.477891 155.560769 109.853684 151.677189 
C 119.229477 147.793608 127.749121 142.100964 134.925042 134.925042 
C 142.100964 127.749121 147.793608 119.229477 151.677189 109.853684 
C 155.560769 100.477891 157.55976 90.428285 157.55976 80.28 
M 80.28 80.28 
C 80.28 80.28 80.28 80.28 80.28 80.28 
C 80.28 80.28 80.28 80.28 80.28 80.28 
C 80.28 80.28 80.28 80.28 80.28 80.28 
C 80.28 80.28 80.28 80.28 80.28 80.28 
C 80.28 80.28 80.28 80.28 80.28 80.28 
C 80.28 80.28 80.28 80.28 80.28 80.28 
C 80.28 80.28 80.28 80.28 80.28 80.28 
C 80.28 80.28 80.28 80.28 80.28 80.28 
C 80.28 80.28 80.28 80.28 80.28 80.28 
C 80.28 80.28 80.28 80.28 80.28 80.28 
C 80.28 80.28 80.28 80.28 80.28 80.28 
C 80.28 80.28 80.28 80.28 80.28 80.28 
C 80.28 80.28 80.28 80.28 80.28 80.28 
C 80.28 80.28 80.28 80.28 80.28 80.28 
C 80.28 80.28 80.28 80.28 80.28 80.28 
C 80.28 80.28 80.28 80.28 80.28 80.28 
M 157.55976 80.28 
z
" style="fill: #ffffff"/>
   </g>
   <g id="matplotlib.axis_1">
    <g id="xtick_1">
     <g id="line2d_1">
      <path d="M 80.28 80.28 
L 157.55976 80.28 
" clip-path="url(#p69e667d68c)" style="fill: none; stroke: #b0b0b0; stroke-width: 0.8; stroke-linecap: square"/>
     </g>
    </g>
    <g id="xtick_2">
     <g id="line2d_2">
      <path d="M 80.28 80.28 
L 134.925042 25.634958 
" clip-path="url(#p69e667d68c)" style="fill: none; stroke: #b0b0b0; stroke-width: 0.8; stroke-linecap: square"/>
     </g>
    </g>
    <g id="xtick_3">
     <g id="line2d_3">
      <path d="M 80.28 80.28 
L 80.28 3.00024 
" clip-path="url(#p69e667d68c)" style="fill: none; stroke: #b0b0b0; stroke-width: 0.8; stroke-linecap: square"/>
     </g>
    </g>
    <g id="xtick_4">
     <g id="line2d_4">
      <path d="M 80.28 80.28 
L 25.634958 25.634958 
" clip-path="url(#p69e667d68c)" style="fill: none; stroke: #b0b0b0; stroke-width: 0.8; stroke-linecap: square"/>
     </g>
    </g>
    <g id="xtick_5">
     <g id="line2d_5">
      <path d="M 80.28 80.28 
L 3.00024 80.28 
" clip-path="url(#p69e667d68c)" style="fill: none; stroke: #b0b0b0; stroke-width: 0.8; stroke-linecap: square"/>
     </g>
    </g>
    <g id="xtick_6">
     <g id="line2d_6">
      <path d="M 80.28 80.28 
L 25.634958 134.925042 
" clip-path="url(#p69e667d68c)" style="fill: none; stroke: #b0b0b0; stroke-width: 0.8; stroke-linecap: square"/>
     </g>
    </g>
    <g id="xtick_7">
     <g id="line2d_7">
      <path d="M 80.28 80.28 
L 80.28 157.55976 
" clip-path="url(#p69e667d68c)" style="fill: none; stroke: #b0b0b0; stroke-width: 0.8; stroke-linecap: square"/>
     </g>
    </g>
    <g id="xtick_8">
     <g id="line2d_8">
      <path d="M 80.28 80.28 
L 134.925042 134.925042 
" clip-path="url(#p69e667d68c)" style="fill: none; stroke: #b0b0b0; stroke-width: 0.8; stroke-linecap: square"/>
     </g>
    </g>
   </g>
   <g id="matplotlib.axis_2">
    <g id="ytick_1">
     <g id="line2d_9">
      <path d="M 157.55976 80.28 
C 157.55976 70.131715 155.560769 60.082109 151.677189 50.706316 
C 147.793608 41.330523 142.100964 32.810879 134.925042 25.634958 
C 127.749121 18.459036 119.229477 12.766392 109.853684 8.882811 
C 100.477891 4.999231 90.428285 3.00024 80.28 3.00024 
C 70.131715 3.00024 60.082109 4.999231 50.706316 8.882811 
C 41.330523 12.766392 32.810879 18.459036 25.634958 25.634958 
C 18.459036 32.810879 12.766392 41.330523 8.882811 50.706316 
C 4.999231 60.082109 3.00024 70.131715 3.00024 80.28 
C 3.00024 90.428285 4.999231 100.477891 8.882811 109.853684 
C 12.766392 119.229477 18.459036 127.749121 25.634958 134.925042 
C 32.810879 142.100964 41.330523 147.793608 50.706316 151.677189 
C 60.082109 155.560769 70.131715 157.55976 80.28 157.55976 
C 90.428285 157.55976 100.477891 155.560769 109.853684 151.677189 
C 119.229477 147.793608 127.749121 142.100964 134.925042 134.925042 
C 142.100964 127.749121 147.793608 119.229477 151.677189 109.853684 
C 155.560769 100.477891 157.55976 90.428285 157.55976 80.28 
" clip-path="url(#p69e667d68c)" style="fill: none; stroke: #b0b0b0; stroke-width: 0.8; stroke-linecap: square"/>
     </g>
     <g id="text_1">
      <!-- $\mathdefault{1.10413\times10^{0}}$ -->
      <g transform="translate(35.954151 141.646695) scale(0.1 -0.1)">
       <defs>
        <path id="CMR17-31" d="M 1702 4083 
C 1702 4217 1696 4224 1606 4224 
C 1357 3927 979 3833 621 3820 
C 602 3820 570 3820 563 3808 
C 557 3795 557 3782 557 3648 
C 755 3648 1088 3686 1344 3839 
L 1344 467 
C 1344 243 1331 166 781 166 
L 589 166 
L 589 0 
C 896 6 1216 12 1523 12 
C 1830 12 2150 6 2458 0 
L 2458 166 
L 2266 166 
C 1715 166 1702 236 1702 467 
L 1702 4083 
z
" transform="scale(0.015625)"/>
        <path id="CMMI12-3a" d="M 1178 307 
C 1178 492 1024 620 870 620 
C 685 620 557 467 557 313 
C 557 128 710 0 864 0 
C 1050 0 1178 153 1178 307 
z
" transform="scale(0.015625)"/>
        <path id="CMR17-30" d="M 2688 2038 
C 2688 2430 2682 3099 2413 3613 
C 2176 4063 1798 4224 1466 4224 
C 1158 4224 768 4082 525 3620 
C 269 3137 243 2539 243 2038 
C 243 1671 250 1112 448 623 
C 723 -39 1216 -128 1466 -128 
C 1760 -128 2208 -7 2470 604 
C 2662 1048 2688 1568 2688 2038 
z
M 1466 -26 
C 1056 -26 813 328 723 816 
C 653 1196 653 1749 653 2109 
C 653 2604 653 3015 736 3407 
C 858 3954 1216 4121 1466 4121 
C 1728 4121 2067 3947 2189 3420 
C 2272 3054 2278 2623 2278 2109 
C 2278 1691 2278 1176 2202 797 
C 2067 96 1690 -26 1466 -26 
z
" transform="scale(0.015625)"/>
        <path id="CMR17-34" d="M 2150 4147 
C 2150 4281 2144 4288 2029 4288 
L 128 1254 
L 128 1088 
L 1779 1088 
L 1779 460 
C 1779 230 1766 166 1318 166 
L 1197 166 
L 1197 0 
C 1402 12 1747 12 1965 12 
C 2182 12 2528 12 2733 0 
L 2733 166 
L 2611 166 
C 2163 166 2150 230 2150 460 
L 2150 1088 
L 2803 1088 
L 2803 1254 
L 2150 1254 
L 2150 4147 
z
M 1798 3723 
L 1798 1254 
L 256 1254 
L 1798 3723 
z
" transform="scale(0.015625)"/>
        <path id="CMR17-33" d="M 1414 2176 
C 1984 2176 2234 1673 2234 1094 
C 2234 322 1824 25 1453 25 
C 1114 25 563 193 390 691 
C 422 678 454 678 486 678 
C 640 678 755 780 755 947 
C 755 1132 614 1216 486 1216 
C 378 1216 211 1164 211 927 
C 211 335 787 -128 1466 -128 
C 2176 -128 2720 432 2720 1087 
C 2720 1718 2208 2176 1600 2246 
C 2086 2347 2554 2776 2554 3353 
C 2554 3856 2048 4224 1472 4224 
C 890 4224 378 3862 378 3347 
C 378 3123 544 3084 627 3084 
C 762 3084 877 3167 877 3334 
C 877 3500 762 3584 627 3584 
C 602 3584 570 3584 544 3571 
C 730 3999 1235 4076 1459 4076 
C 1683 4076 2106 3966 2106 3347 
C 2106 3167 2080 2851 1862 2574 
C 1670 2329 1453 2316 1242 2297 
C 1210 2297 1062 2284 1037 2284 
C 992 2278 966 2272 966 2227 
C 966 2182 973 2176 1101 2176 
L 1414 2176 
z
" transform="scale(0.015625)"/>
        <path id="CMSY10-2" d="M 2490 1775 
L 1210 3046 
C 1133 3123 1120 3136 1069 3136 
C 1005 3136 941 3078 941 3008 
C 941 2963 954 2950 1024 2880 
L 2304 1596 
L 1024 313 
C 954 243 941 230 941 185 
C 941 115 1005 57 1069 57 
C 1120 57 1133 70 1210 147 
L 2483 1418 
L 3808 95 
C 3821 89 3866 57 3904 57 
C 3981 57 4032 115 4032 185 
C 4032 198 4032 223 4013 255 
C 4006 268 2989 1271 2669 1596 
L 3840 2765 
C 3872 2803 3968 2886 4000 2925 
C 4006 2937 4032 2963 4032 3008 
C 4032 3078 3981 3136 3904 3136 
C 3853 3136 3827 3110 3757 3040 
L 2490 1775 
z
" transform="scale(0.015625)"/>
       </defs>
       <use xlink:href="#CMR17-31" transform="scale(0.996264)"/>
       <use xlink:href="#CMMI12-3a" transform="translate(45.690477 0) scale(0.996264)"/>
       <use xlink:href="#CMR17-31" transform="translate(72.787654 0) scale(0.996264)"/>
       <use xlink:href="#CMR17-30" transform="translate(118.478131 0) scale(0.996264)"/>
       <use xlink:href="#CMR17-34" transform="translate(164.168608 0) scale(0.996264)"/>
       <use xlink:href="#CMR17-31" transform="translate(209.859086 0) scale(0.996264)"/>
       <use xlink:href="#CMR17-33" transform="translate(255.549563 0) scale(0.996264)"/>
       <use xlink:href="#CMSY10-2" transform="translate(323.379247 0) scale(0.996264)"/>
       <use xlink:href="#CMR17-31" transform="translate(423.005921 0) scale(0.996264)"/>
       <use xlink:href="#CMR17-30" transform="translate(468.696399 0) scale(0.996264)"/>
       <use xlink:href="#CMR17-30" transform="translate(514.386876 36.153639) scale(0.697382)"/>
      </g>
     </g>
    </g>
    <g id="ytick_2"/>
   </g>
   <g id="line2d_10">
    <path d="M 96.471817 80.28 
L 96.343255 78.30768 
L 95.960208 76.370485 
L 95.330508 74.502651 
L 94.466921 72.73668 
L 93.386743 71.10256 
L 92.111247 69.627097 
L 90.665047 68.33337 
L 89.075364 67.240336 
L 87.371279 66.362582 
L 85.582963 65.71023 
L 83.740947 65.288991 
L 81.875447 65.100336 
L 80.015761 65.141778 
L 78.18977 65.407239 
L 76.423531 65.887461 
L 74.740985 66.570457 
L 73.16376 67.441963 
L 71.711065 68.485873 
L 70.399666 69.684639 
L 69.243923 71.019632 
L 68.255871 72.471439 
L 67.445335 74.020115 
L 66.820048 75.645367 
L 66.385777 77.326692 
L 66.146421 79.043472 
L 66.104094 80.775034 
L 66.259165 82.500682 
L 66.610273 84.199731 
L 67.154291 85.851533 
L 67.886264 87.435527 
L 68.799316 88.931316 
L 69.884534 90.318785 
L 71.130844 91.578267 
L 72.524895 92.690763 
L 74.050959 93.638221 
L 75.690876 94.403872 
L 77.424046 94.972607 
L 79.227503 95.331412 
L 81.076064 95.469802 
L 82.942587 95.380283 
L 84.798327 95.058781 
L 86.613392 94.505031 
L 88.357308 93.722897 
L 89.999662 92.7206 
L 91.510814 91.510814 
L 92.862652 90.110645 
L 94.029353 88.541445 
L 94.988128 86.828481 
L 95.719904 85.000452 
L 96.209913 83.088874 
L 96.44817 81.127338 
L 96.471817 80.28 
L 96.471817 80.28 
" clip-path="url(#p69e667d68c)" style="fill: none; stroke: #000000; stroke-width: 0.75; stroke-linecap: square"/>
   </g>
   <g id="line2d_11">
    <path d="M 96.805959 80.28 
L 96.711311 78.553 
L 96.426186 76.848022 
L 95.954167 75.187155 
L 95.301457 73.592017 
L 94.47695 72.083387 
L 93.492228 70.680754 
L 92.361441 69.401822 
L 90.879626 68.086525 
L 89.25072 66.980361 
L 87.50625 66.097686 
L 85.678682 65.447243 
L 83.800158 65.032519 
L 81.9015 64.852458 
L 80.011583 64.902377 
L 78.157109 65.174844 
L 76.362684 65.660376 
L 74.651044 66.347846 
L 73.043278 67.224608 
L 71.558901 68.276436 
L 70.215756 69.487419 
L 69.029762 70.83993 
L 68.014612 72.314764 
L 67.181524 73.891446 
L 66.539148 75.548645 
L 66.09364 77.264596 
L 65.848878 79.01744 
L 65.806731 80.785418 
L 65.967277 82.546913 
L 66.328909 84.280411 
L 66.888272 85.964451 
L 67.64009 87.577655 
L 68.576942 89.098887 
L 69.689075 90.507537 
L 70.964345 91.783876 
L 72.388287 92.909381 
L 73.944289 93.866975 
L 75.613782 94.641141 
L 77.376359 95.21794 
L 79.209767 95.58504 
L 81.089798 95.731866 
L 82.990137 95.649949 
L 84.882326 95.33353 
L 86.735967 94.78034 
L 88.519257 93.992426 
L 90.199871 92.976856 
L 91.746107 91.746107 
L 93.128122 90.318053 
L 94.16156 88.954161 
L 95.039921 87.478895 
L 95.750938 85.910961 
L 96.284847 84.270457 
L 96.63442 82.578464 
L 96.794931 80.856714 
L 96.805963 80.28 
L 96.805963 80.28 
" clip-path="url(#p69e667d68c)" style="fill: none; stroke-dasharray: 2.775,1.2; stroke-dashoffset: 0; stroke: #000000; stroke-width: 0.75"/>
   </g>
   <g id="line2d_12">
    <path d="M 153.683274 80.28 
L 153.608397 77.719316 
L 153.384165 75.168059 
L 153.011766 72.635583 
L 152.493166 70.131101 
L 151.447309 66.446476 
L 150.091083 62.874142 
L 148.440213 59.441332 
L 146.513547 56.17296 
L 144.33267 53.091255 
L 141.921463 50.21545 
L 139.305629 47.56156 
L 136.512195 45.142225 
L 133.569007 42.966636 
L 130.504217 41.040541 
L 127.345804 39.366321 
L 124.121104 37.943138 
L 120.85639 36.767149 
L 117.576497 35.831766 
L 114.304496 35.127968 
L 111.061434 34.644647 
L 107.86613 34.36897 
L 104.735039 34.286762 
L 101.682176 34.382886 
L 97.753016 34.761236 
L 94.003983 35.390873 
L 90.448669 36.234656 
L 87.094134 37.257253 
L 83.941741 38.426107 
L 80.28 40.04895 
L 76.914071 41.80726 
L 73.82351 43.663427 
L 70.445229 45.982077 
L 67.388707 48.372931 
L 64.617112 50.822392 
L 62.101216 53.328844 
L 59.82125 55.898211 
L 57.767287 58.539726 
L 55.938421 61.262274 
L 54.341074 64.07156 
L 52.986768 66.968201 
L 52.05404 69.445069 
L 51.308372 71.972519 
L 50.757456 74.541399 
L 50.407505 77.140274 
L 50.262695 79.756046 
L 50.324808 82.374671 
L 50.593075 84.981947 
L 51.064247 87.564305 
L 51.732869 90.109565 
L 52.591762 92.607598 
L 53.632688 95.050846 
L 55.110179 97.904099 
L 56.824463 100.669587 
L 58.76627 103.350651 
L 60.932588 105.954883 
L 63.32867 108.491751 
L 65.969328 110.969335 
L 68.879196 113.39034 
L 72.091634 115.74771 
L 75.028157 117.648806 
L 78.226156 119.46968 
L 81.708221 121.1789 
L 84.711002 122.438163 
L 87.913781 123.573324 
L 91.318846 124.554393 
L 94.923494 125.348041 
L 98.719104 125.918384 
L 102.690341 126.228008 
L 105.770685 126.266413 
L 108.924859 126.121358 
L 112.13803 125.777982 
L 115.392943 125.222518 
L 118.670018 124.442663 
L 121.947507 123.427967 
L 125.201721 122.170182 
L 128.407306 120.663604 
L 131.537589 118.905364 
L 134.564972 116.895676 
L 137.461365 114.638031 
L 140.198663 112.139318 
L 142.749236 109.409883 
L 145.086443 106.463502 
L 147.185132 103.317284 
L 149.022138 99.991491 
L 150.576741 96.509281 
L 151.831093 92.896388 
L 152.770588 89.180725 
L 153.216382 86.661107 
L 153.514895 84.118078 
L 153.664548 81.560932 
L 153.683274 80.28 
L 153.683274 80.28 
" clip-path="url(#p69e667d68c)" style="fill: none; stroke: #ff0000; stroke-width: 0.75; stroke-linecap: square"/>
   </g>
   <g id="line2d_13">
    <path d="M 154.537737 80.28 
L 154.41155 77.691269 
L 154.129593 75.115933 
L 153.696601 72.563604 
L 153.116793 70.043456 
L 151.982622 66.342422 
L 150.547999 62.76022 
L 148.83395 59.320954 
L 146.862954 56.045787 
L 144.658041 52.953143 
L 142.241929 50.059148 
L 139.636409 47.378205 
L 136.86217 44.923536 
L 133.939154 42.707456 
L 130.887348 40.741207 
L 127.727756 39.034295 
L 124.483222 37.593445 
L 121.178785 36.421423 
L 117.841405 35.516061 
L 114.499078 34.869749 
L 111.179533 34.469559 
L 107.908795 34.297963 
L 104.709916 34.334011 
L 101.60205 34.554717 
L 97.624709 35.095489 
L 93.857849 35.868855 
L 90.311913 36.827011 
L 86.987466 37.930726 
L 83.133661 39.470746 
L 79.597041 41.153325 
L 76.356726 42.952546 
L 73.392068 44.844663 
L 70.16514 47.195782 
L 66.788973 49.978657 
L 63.74638 52.763436 
L 61.373895 55.190751 
L 59.586361 57.297385 
L 58.01283 59.515528 
L 56.686824 61.846991 
L 55.615272 64.262539 
L 54.773337 66.717867 
L 54.002811 69.663326 
L 53.343068 73.062271 
L 52.891485 76.430795 
L 52.664203 79.797964 
L 52.678806 82.694792 
L 52.902518 85.601643 
L 53.335929 88.517629 
L 53.980407 91.443515 
L 54.855366 94.373105 
L 55.789329 96.799166 
L 56.936875 99.18289 
L 58.312509 101.493759 
L 59.911493 103.711287 
L 61.712768 105.835603 
L 64.108171 108.29043 
L 66.743175 110.684207 
L 69.635985 113.038909 
L 72.826832 115.344397 
L 75.745587 117.209828 
L 78.927528 119.009722 
L 82.399903 120.730164 
L 86.192216 122.347605 
L 89.474745 123.537875 
L 92.987627 124.596763 
L 96.729527 125.474703 
L 99.678111 125.979087 
L 102.736165 126.321962 
L 105.887641 126.477408 
L 109.11277 126.422077 
L 112.389332 126.136878 
L 115.69421 125.608121 
L 119.00489 124.82789 
L 122.30054 123.793543 
L 125.562332 122.506458 
L 128.772877 120.970355 
L 131.914839 119.189642 
L 134.969112 117.168272 
L 137.913095 114.909457 
L 140.719639 112.416326 
L 143.357075 109.693323 
L 145.790441 106.747936 
L 147.983672 103.592244 
L 149.295239 101.380076 
L 150.475375 99.088794 
L 151.515902 96.726104 
L 152.409957 94.300643 
L 153.152113 91.821809 
L 153.738421 89.29956 
L 154.166374 86.74422 
L 154.434828 84.16629 
L 154.543886 81.576281 
L 154.540229 80.28 
L 154.540229 80.28 
" clip-path="url(#p69e667d68c)" style="fill: none; stroke-dasharray: 2.775,1.2; stroke-dashoffset: 0; stroke: #ff0000; stroke-width: 0.75"/>
   </g>
   <g id="patch_3">
    <path d="M 157.55976 80.28 
C 157.55976 70.131715 155.560769 60.082109 151.677189 50.706316 
C 147.793608 41.330523 142.100964 32.810879 134.925042 25.634958 
C 127.749121 18.459036 119.229477 12.766392 109.853684 8.882811 
C 100.477891 4.999231 90.428285 3.00024 80.28 3.00024 
C 70.131715 3.00024 60.082109 4.999231 50.706316 8.882811 
C 41.330523 12.766392 32.810879 18.459036 25.634958 25.634958 
C 18.459036 32.810879 12.766392 41.330523 8.882811 50.706316 
C 4.999231 60.082109 3.00024 70.131715 3.00024 80.28 
C 3.00024 90.428285 4.999231 100.477891 8.882811 109.853684 
C 12.766392 119.229477 18.459036 127.749121 25.634958 134.925042 
C 32.810879 142.100964 41.330523 147.793608 50.706316 151.677189 
C 60.082109 155.560769 70.131715 157.55976 80.28 157.55976 
C 90.428285 157.55976 100.477891 155.560769 109.853684 151.677189 
C 119.229477 147.793608 127.749121 142.100964 134.925042 134.925042 
C 142.100964 127.749121 147.793608 119.229477 151.677189 109.853684 
C 155.560769 100.477891 157.55976 90.428285 157.55976 80.28 
" style="fill: none; stroke: #000000; stroke-width: 0.8; stroke-linejoin: miter; stroke-linecap: square"/>
   </g>
   <g id="legend_1">
    <g id="patch_4">
     <path d="M 10.00024 40.92552 
L 91.268031 40.92552 
Q 93.268031 40.92552 93.268031 38.92552 
L 93.268031 10.00024 
Q 93.268031 8.00024 91.268031 8.00024 
L 10.00024 8.00024 
Q 8.00024 8.00024 8.00024 10.00024 
L 8.00024 38.92552 
Q 8.00024 40.92552 10.00024 40.92552 
z
" style="fill: #ffffff; opacity: 0.8; stroke: #cccccc; stroke-linejoin: miter"/>
    </g>
    <g id="line2d_14">
     <defs>
      <path id="m566780edf0" d="M 0 2.5 
C 0.663008 2.5 1.29895 2.236584 1.767767 1.767767 
C 2.236584 1.29895 2.5 0.663008 2.5 0 
C 2.5 -0.663008 2.236584 -1.29895 1.767767 -1.767767 
C 1.29895 -2.236584 0.663008 -2.5 0 -2.5 
C -0.663008 -2.5 -1.29895 -2.236584 -1.767767 -1.767767 
C -2.236584 -1.29895 -2.5 -0.663008 -2.5 0 
C -2.5 0.663008 -2.236584 1.29895 -1.767767 1.767767 
C -1.29895 2.236584 -0.663008 2.5 0 2.5 
z
" style="stroke: #000000"/>
     </defs>
     <g>
      <use xlink:href="#m566780edf0" x="22.00024" y="15.97222" style="stroke: #000000"/>
     </g>
    </g>
    <g id="text_2">
     <!-- $a / \lambda = 1/50$ -->
     <g transform="translate(40.00024 19.47222) scale(0.1 -0.1)">
      <defs>
       <path id="CMMI12-61" d="M 1926 759 
C 1894 651 1894 638 1805 517 
C 1664 338 1382 64 1082 64 
C 819 64 672 300 672 676 
C 672 1028 870 1743 992 2011 
C 1210 2458 1510 2687 1760 2687 
C 2182 2687 2266 2164 2266 2113 
C 2266 2107 2246 2024 2240 2011 
L 1926 759 
z
M 2336 2394 
C 2266 2560 2093 2816 1760 2816 
C 1037 2816 256 1883 256 938 
C 256 306 627 -64 1062 -64 
C 1414 -64 1715 210 1894 421 
C 1958 44 2259 -64 2451 -64 
C 2643 -64 2797 51 2912 280 
C 3014 496 3104 885 3104 910 
C 3104 942 3078 968 3040 968 
C 2982 968 2976 936 2950 840 
C 2854 465 2733 64 2470 64 
C 2285 64 2272 229 2272 356 
C 2272 503 2291 573 2349 821 
C 2394 980 2426 1120 2477 1305 
C 2714 2260 2771 2489 2771 2528 
C 2771 2617 2701 2688 2605 2688 
C 2400 2688 2349 2464 2336 2388 
L 2336 2394 
z
" transform="scale(0.015625)"/>
       <path id="CMMI12-3d" d="M 2746 4563 
C 2746 4569 2784 4665 2784 4678 
C 2784 4755 2720 4800 2669 4800 
C 2637 4800 2579 4800 2528 4659 
L 384 -1364 
C 384 -1370 346 -1466 346 -1479 
C 346 -1556 410 -1600 461 -1600 
C 499 -1600 557 -1594 602 -1460 
L 2746 4563 
z
" transform="scale(0.015625)"/>
       <path id="CMMI12-15" d="M 1978 3963 
C 1818 4416 1312 4416 1229 4416 
C 1190 4416 1120 4416 1120 4351 
C 1120 4300 1158 4294 1190 4287 
C 1286 4275 1363 4262 1466 4078 
C 1530 3957 2189 2055 2189 2042 
C 2189 2036 2182 2029 2131 1978 
L 467 305 
C 390 229 339 178 339 95 
C 339 6 416 -71 518 -71 
C 544 -71 614 -58 653 -20 
C 755 76 1670 1190 2253 1877 
C 2419 1380 2624 795 2822 261 
C 2854 165 2886 76 2976 -7 
C 3040 -64 3053 -64 3232 -64 
L 3354 -64 
C 3379 -64 3424 -64 3424 -13 
C 3424 12 3418 19 3392 44 
C 3334 114 3290 229 3264 305 
L 1978 3963 
z
" transform="scale(0.015625)"/>
       <path id="CMR17-3d" d="M 4115 2048 
C 4211 2048 4307 2048 4307 2156 
C 4307 2272 4198 2272 4090 2272 
L 512 2272 
C 403 2272 294 2272 294 2156 
C 294 2048 390 2048 486 2048 
L 4115 2048 
z
M 4090 927 
C 4198 927 4307 927 4307 1043 
C 4307 1152 4211 1152 4115 1152 
L 486 1152 
C 390 1152 294 1152 294 1043 
C 294 927 403 927 512 927 
L 4090 927 
z
" transform="scale(0.015625)"/>
       <path id="CMR17-35" d="M 730 3750 
C 794 3724 1056 3641 1325 3641 
C 1920 3641 2246 3961 2432 4140 
C 2432 4191 2432 4224 2394 4224 
C 2387 4224 2374 4224 2323 4198 
C 2099 4102 1837 4032 1517 4032 
C 1325 4032 1037 4055 723 4191 
C 653 4224 640 4224 634 4224 
C 602 4224 595 4217 595 4090 
L 595 2231 
C 595 2113 595 2080 659 2080 
C 691 2080 704 2093 736 2139 
C 941 2435 1222 2560 1542 2560 
C 1766 2560 2246 2415 2246 1293 
C 2246 1087 2246 716 2054 422 
C 1894 159 1645 25 1370 25 
C 947 25 518 319 403 812 
C 429 806 480 793 506 793 
C 589 793 749 838 749 1036 
C 749 1209 627 1280 506 1280 
C 358 1280 262 1190 262 1011 
C 262 454 704 -128 1382 -128 
C 2042 -128 2669 441 2669 1267 
C 2669 2054 2170 2662 1549 2662 
C 1222 2662 947 2540 730 2304 
L 730 3750 
z
" transform="scale(0.015625)"/>
      </defs>
      <use xlink:href="#CMMI12-61" transform="scale(0.996264)"/>
      <use xlink:href="#CMMI12-3d" transform="translate(51.207858 0) scale(0.996264)"/>
      <use xlink:href="#CMMI12-15" transform="translate(99.982776 0) scale(0.996264)"/>
      <use xlink:href="#CMR17-3d" transform="translate(184.560857 0) scale(0.996264)"/>
      <use xlink:href="#CMR17-31" transform="translate(283.949654 0) scale(0.996264)"/>
      <use xlink:href="#CMMI12-3d" transform="translate(329.640131 0) scale(0.996264)"/>
      <use xlink:href="#CMR17-35" transform="translate(378.41505 0) scale(0.996264)"/>
      <use xlink:href="#CMR17-30" transform="translate(424.105527 0) scale(0.996264)"/>
     </g>
    </g>
    <g id="line2d_15">
     <defs>
      <path id="ma1d7499213" d="M 0 2.5 
C 0.663008 2.5 1.29895 2.236584 1.767767 1.767767 
C 2.236584 1.29895 2.5 0.663008 2.5 0 
C 2.5 -0.663008 2.236584 -1.29895 1.767767 -1.767767 
C 1.29895 -2.236584 0.663008 -2.5 0 -2.5 
C -0.663008 -2.5 -1.29895 -2.236584 -1.767767 -1.767767 
C -2.236584 -1.29895 -2.5 -0.663008 -2.5 0 
C -2.5 0.663008 -2.236584 1.29895 -1.767767 1.767767 
C -1.29895 2.236584 -0.663008 2.5 0 2.5 
z
" style="stroke: #ff0000"/>
     </defs>
     <g>
      <use xlink:href="#ma1d7499213" x="22.00024" y="30.93486" style="fill: #ff0000; stroke: #ff0000"/>
     </g>
    </g>
    <g id="text_3">
     <!-- $a / \lambda = 1/10$ -->
     <g transform="translate(40.00024 34.43486) scale(0.1 -0.1)">
      <use xlink:href="#CMMI12-61" transform="scale(0.996264)"/>
      <use xlink:href="#CMMI12-3d" transform="translate(51.207858 0) scale(0.996264)"/>
      <use xlink:href="#CMMI12-15" transform="translate(99.982776 0) scale(0.996264)"/>
      <use xlink:href="#CMR17-3d" transform="translate(184.560857 0) scale(0.996264)"/>
      <use xlink:href="#CMR17-31" transform="translate(283.949654 0) scale(0.996264)"/>
      <use xlink:href="#CMMI12-3d" transform="translate(329.640131 0) scale(0.996264)"/>
      <use xlink:href="#CMR17-31" transform="translate(378.41505 0) scale(0.996264)"/>
      <use xlink:href="#CMR17-30" transform="translate(424.105527 0) scale(0.996264)"/>
     </g>
    </g>
   </g>
  </g>
 </g>
 <defs>
  <clipPath id="p69e667d68c">
   <path d="M 157.55976 80.28 
C 157.55976 70.131715 155.560769 60.082109 151.677189 50.706316 
C 147.793608 41.330523 142.100964 32.810879 134.925042 25.634958 
C 127.749121 18.459036 119.229477 12.766392 109.853684 8.882811 
C 100.477891 4.999231 90.428285 3.00024 80.28 3.00024 
C 70.131715 3.00024 60.082109 4.999231 50.706316 8.882811 
C 41.330523 12.766392 32.810879 18.459036 25.634958 25.634958 
C 18.459036 32.810879 12.766392 41.330523 8.882811 50.706316 
C 4.999231 60.082109 3.00024 70.131715 3.00024 80.28 
C 3.00024 90.428285 4.999231 100.477891 8.882811 109.853684 
C 12.766392 119.229477 18.459036 127.749121 25.634958 134.925042 
C 32.810879 142.100964 41.330523 147.793608 50.706316 151.677189 
C 60.082109 155.560769 70.131715 157.55976 80.28 157.55976 
C 90.428285 157.55976 100.477891 155.560769 109.853684 151.677189 
C 119.229477 147.793608 127.749121 142.100964 134.925042 134.925042 
C 142.100964 127.749121 147.793608 119.229477 151.677189 109.853684 
C 155.560769 100.477891 157.55976 90.428285 157.55976 80.28 
M 80.28 80.28 
C 80.28 80.28 80.28 80.28 80.28 80.28 
C 80.28 80.28 80.28 80.28 80.28 80.28 
C 80.28 80.28 80.28 80.28 80.28 80.28 
C 80.28 80.28 80.28 80.28 80.28 80.28 
C 80.28 80.28 80.28 80.28 80.28 80.28 
C 80.28 80.28 80.28 80.28 80.28 80.28 
C 80.28 80.28 80.28 80.28 80.28 80.28 
C 80.28 80.28 80.28 80.28 80.28 80.28 
C 80.28 80.28 80.28 80.28 80.28 80.28 
C 80.28 80.28 80.28 80.28 80.28 80.28 
C 80.28 80.28 80.28 80.28 80.28 80.28 
C 80.28 80.28 80.28 80.28 80.28 80.28 
C 80.28 80.28 80.28 80.28 80.28 80.28 
C 80.28 80.28 80.28 80.28 80.28 80.28 
C 80.28 80.28 80.28 80.28 80.28 80.28 
C 80.28 80.28 80.28 80.28 80.28 80.28 
M 157.55976 80.28 
z
"/>
  </clipPath>
 </defs>
</svg>
