<?xml version="1.0" encoding="utf-8" standalone="no"?>
<!DOCTYPE svg PUBLIC "-//W3C//DTD SVG 1.1//EN"
  "http://www.w3.org/Graphics/SVG/1.1/DTD/svg11.dtd">
<svg xmlns:xlink="http://www.w3.org/1999/xlink" width="241.2pt" height="133.2pt" viewBox="0 0 241.2 133.2" xmlns="http://www.w3.org/2000/svg" version="1.1">
 <metadata>
  <rdf:RDF xmlns:dc="http://purl.org/dc/elements/1.1/" xmlns:cc="http://creativecommons.org/ns#" xmlns:rdf="http://www.w3.org/1999/02/22-rdf-syntax-ns#">
   <cc:Work>
    <dc:type rdf:resource="http://purl.org/dc/dcmitype/StillImage"/>
    <dc:date>2025-01-15T11:45:24.552909</dc:date>
    <dc:format>image/svg+xml</dc:format>
    <dc:creator>
     <cc:Agent>
      <dc:title>Matplotlib v3.6.3, https://matplotlib.org/</dc:title>
     </cc:Agent>
    </dc:creator>
   </cc:Work>
  </rdf:RDF>
 </metadata>
 <defs>
  <style type="text/css">*{stroke-linejoin: round; stroke-linecap: butt}</style>
 </defs>
 <g id="figure_1">
  <g id="patch_1">
   <path d="M 0 133.2 
L 241.2 133.2 
L 241.2 0 
L 0 0 
z
" style="fill: #ffffff"/>
  </g>
  <g id="axes_1">
   <g id="patch_2">
    <path d="M 44.123453 100.381443 
L 238.19976 100.381443 
L 238.19976 3.00024 
L 44.123453 3.00024 
z
" style="fill: #ffffff"/>
   </g>
   <g id="matplotlib.axis_1">
    <g id="xtick_1">
     <g id="line2d_1">
      <defs>
       <path id="m3f1c528158" d="M 0 0 
L 0 3.5 
" style="stroke: #000000; stroke-width: 0.8"/>
      </defs>
      <g>
       <use xlink:href="#m3f1c528158" x="52.945104" y="100.381443" style="stroke: #000000; stroke-width: 0.8"/>
      </g>
     </g>
     <g id="text_1">
      <!-- $\mathdefault{0}$ -->
      <g transform="translate(50.454436 114.299942) scale(0.1 -0.1)">
       <defs>
        <path id="CMR17-30" d="M 2688 2038 
C 2688 2430 2682 3099 2413 3613 
C 2176 4063 1798 4224 1466 4224 
C 1158 4224 768 4082 525 3620 
C 269 3137 243 2539 243 2038 
C 243 1671 250 1112 448 623 
C 723 -39 1216 -128 1466 -128 
C 1760 -128 2208 -7 2470 604 
C 2662 1048 2688 1568 2688 2038 
z
M 1466 -26 
C 1056 -26 813 328 723 816 
C 653 1196 653 1749 653 2109 
C 653 2604 653 3015 736 3407 
C 858 3954 1216 4121 1466 4121 
C 1728 4121 2067 3947 2189 3420 
C 2272 3054 2278 2623 2278 2109 
C 2278 1691 2278 1176 2202 797 
C 2067 96 1690 -26 1466 -26 
z
" transform="scale(0.015625)"/>
       </defs>
       <use xlink:href="#CMR17-30" transform="scale(0.996264)"/>
      </g>
     </g>
    </g>
    <g id="xtick_2">
     <g id="line2d_2">
      <g>
       <use xlink:href="#m3f1c528158" x="82.350605" y="100.381443" style="stroke: #000000; stroke-width: 0.8"/>
      </g>
     </g>
     <g id="text_2">
      <!-- $\mathdefault{60}$ -->
      <g transform="translate(77.36927 114.299942) scale(0.1 -0.1)">
       <defs>
        <path id="CMR17-36" d="M 678 2198 
C 678 3712 1395 4076 1811 4076 
C 1946 4076 2272 4049 2400 3782 
C 2298 3782 2106 3782 2106 3558 
C 2106 3385 2246 3328 2336 3328 
C 2394 3328 2566 3353 2566 3571 
C 2566 3987 2246 4224 1805 4224 
C 1043 4224 243 3411 243 2011 
C 243 257 966 -128 1478 -128 
C 2099 -128 2688 431 2688 1295 
C 2688 2101 2170 2688 1517 2688 
C 1126 2688 838 2430 678 1979 
L 678 2198 
z
M 1478 25 
C 691 25 691 1212 691 1450 
C 691 1914 909 2585 1504 2585 
C 1613 2585 1926 2585 2138 2140 
C 2253 1889 2253 1624 2253 1302 
C 2253 954 2253 696 2118 438 
C 1978 173 1773 25 1478 25 
z
" transform="scale(0.015625)"/>
       </defs>
       <use xlink:href="#CMR17-36" transform="scale(0.996264)"/>
       <use xlink:href="#CMR17-30" transform="translate(45.690477 0) scale(0.996264)"/>
      </g>
     </g>
    </g>
    <g id="xtick_3">
     <g id="line2d_3">
      <g>
       <use xlink:href="#m3f1c528158" x="111.756106" y="100.381443" style="stroke: #000000; stroke-width: 0.8"/>
      </g>
     </g>
     <g id="text_3">
      <!-- $\mathdefault{120}$ -->
      <g transform="translate(104.284103 114.299942) scale(0.1 -0.1)">
       <defs>
        <path id="CMR17-31" d="M 1702 4083 
C 1702 4217 1696 4224 1606 4224 
C 1357 3927 979 3833 621 3820 
C 602 3820 570 3820 563 3808 
C 557 3795 557 3782 557 3648 
C 755 3648 1088 3686 1344 3839 
L 1344 467 
C 1344 243 1331 166 781 166 
L 589 166 
L 589 0 
C 896 6 1216 12 1523 12 
C 1830 12 2150 6 2458 0 
L 2458 166 
L 2266 166 
C 1715 166 1702 236 1702 467 
L 1702 4083 
z
" transform="scale(0.015625)"/>
        <path id="CMR17-32" d="M 2669 990 
L 2554 990 
C 2490 537 2438 460 2413 422 
C 2381 371 1920 371 1830 371 
L 602 371 
C 832 620 1280 1073 1824 1596 
C 2214 1966 2669 2400 2669 3033 
C 2669 3788 2067 4224 1395 4224 
C 691 4224 262 3603 262 3027 
C 262 2777 448 2745 525 2745 
C 589 2745 781 2783 781 3007 
C 781 3206 614 3264 525 3264 
C 486 3264 448 3257 422 3244 
C 544 3788 915 4057 1306 4057 
C 1862 4057 2227 3616 2227 3033 
C 2227 2477 1901 1998 1536 1583 
L 262 147 
L 262 0 
L 2515 0 
L 2669 990 
z
" transform="scale(0.015625)"/>
       </defs>
       <use xlink:href="#CMR17-31" transform="scale(0.996264)"/>
       <use xlink:href="#CMR17-32" transform="translate(45.690477 0) scale(0.996264)"/>
       <use xlink:href="#CMR17-30" transform="translate(91.380954 0) scale(0.996264)"/>
      </g>
     </g>
    </g>
    <g id="xtick_4">
     <g id="line2d_4">
      <g>
       <use xlink:href="#m3f1c528158" x="141.161607" y="100.381443" style="stroke: #000000; stroke-width: 0.8"/>
      </g>
     </g>
     <g id="text_4">
      <!-- $\mathdefault{180}$ -->
      <g transform="translate(133.689604 114.299942) scale(0.1 -0.1)">
       <defs>
        <path id="CMR17-38" d="M 1741 2289 
C 2144 2494 2554 2803 2554 3298 
C 2554 3884 1990 4224 1472 4224 
C 890 4224 378 3800 378 3215 
C 378 3054 416 2777 666 2533 
C 730 2469 998 2276 1171 2154 
C 883 2006 211 1652 211 945 
C 211 282 838 -128 1459 -128 
C 2144 -128 2720 366 2720 1022 
C 2720 1607 2330 1877 2074 2051 
L 1741 2289 
z
M 902 2855 
C 851 2887 595 3086 595 3388 
C 595 3781 998 4076 1459 4076 
C 1965 4076 2336 3716 2336 3298 
C 2336 2700 1670 2359 1638 2359 
C 1632 2359 1626 2359 1574 2398 
L 902 2855 
z
M 2080 1536 
C 2176 1466 2483 1253 2483 861 
C 2483 385 2010 25 1472 25 
C 890 25 448 443 448 951 
C 448 1459 838 1884 1280 2083 
L 2080 1536 
z
" transform="scale(0.015625)"/>
       </defs>
       <use xlink:href="#CMR17-31" transform="scale(0.996264)"/>
       <use xlink:href="#CMR17-38" transform="translate(45.690477 0) scale(0.996264)"/>
       <use xlink:href="#CMR17-30" transform="translate(91.380954 0) scale(0.996264)"/>
      </g>
     </g>
    </g>
    <g id="xtick_5">
     <g id="line2d_5">
      <g>
       <use xlink:href="#m3f1c528158" x="170.567108" y="100.381443" style="stroke: #000000; stroke-width: 0.8"/>
      </g>
     </g>
     <g id="text_5">
      <!-- $\mathdefault{240}$ -->
      <g transform="translate(163.095105 114.299942) scale(0.1 -0.1)">
       <defs>
        <path id="CMR17-34" d="M 2150 4147 
C 2150 4281 2144 4288 2029 4288 
L 128 1254 
L 128 1088 
L 1779 1088 
L 1779 460 
C 1779 230 1766 166 1318 166 
L 1197 166 
L 1197 0 
C 1402 12 1747 12 1965 12 
C 2182 12 2528 12 2733 0 
L 2733 166 
L 2611 166 
C 2163 166 2150 230 2150 460 
L 2150 1088 
L 2803 1088 
L 2803 1254 
L 2150 1254 
L 2150 4147 
z
M 1798 3723 
L 1798 1254 
L 256 1254 
L 1798 3723 
z
" transform="scale(0.015625)"/>
       </defs>
       <use xlink:href="#CMR17-32" transform="scale(0.996264)"/>
       <use xlink:href="#CMR17-34" transform="translate(45.690477 0) scale(0.996264)"/>
       <use xlink:href="#CMR17-30" transform="translate(91.380954 0) scale(0.996264)"/>
      </g>
     </g>
    </g>
    <g id="xtick_6">
     <g id="line2d_6">
      <g>
       <use xlink:href="#m3f1c528158" x="199.972609" y="100.381443" style="stroke: #000000; stroke-width: 0.8"/>
      </g>
     </g>
     <g id="text_6">
      <!-- $\mathdefault{300}$ -->
      <g transform="translate(192.500606 114.299942) scale(0.1 -0.1)">
       <defs>
        <path id="CMR17-33" d="M 1414 2176 
C 1984 2176 2234 1673 2234 1094 
C 2234 322 1824 25 1453 25 
C 1114 25 563 193 390 691 
C 422 678 454 678 486 678 
C 640 678 755 780 755 947 
C 755 1132 614 1216 486 1216 
C 378 1216 211 1164 211 927 
C 211 335 787 -128 1466 -128 
C 2176 -128 2720 432 2720 1087 
C 2720 1718 2208 2176 1600 2246 
C 2086 2347 2554 2776 2554 3353 
C 2554 3856 2048 4224 1472 4224 
C 890 4224 378 3862 378 3347 
C 378 3123 544 3084 627 3084 
C 762 3084 877 3167 877 3334 
C 877 3500 762 3584 627 3584 
C 602 3584 570 3584 544 3571 
C 730 3999 1235 4076 1459 4076 
C 1683 4076 2106 3966 2106 3347 
C 2106 3167 2080 2851 1862 2574 
C 1670 2329 1453 2316 1242 2297 
C 1210 2297 1062 2284 1037 2284 
C 992 2278 966 2272 966 2227 
C 966 2182 973 2176 1101 2176 
L 1414 2176 
z
" transform="scale(0.015625)"/>
       </defs>
       <use xlink:href="#CMR17-33" transform="scale(0.996264)"/>
       <use xlink:href="#CMR17-30" transform="translate(45.690477 0) scale(0.996264)"/>
       <use xlink:href="#CMR17-30" transform="translate(91.380954 0) scale(0.996264)"/>
      </g>
     </g>
    </g>
    <g id="xtick_7">
     <g id="line2d_7">
      <g>
       <use xlink:href="#m3f1c528158" x="229.37811" y="100.381443" style="stroke: #000000; stroke-width: 0.8"/>
      </g>
     </g>
     <g id="text_7">
      <!-- $\mathdefault{360}$ -->
      <g transform="translate(221.906107 114.299942) scale(0.1 -0.1)">
       <use xlink:href="#CMR17-33" transform="scale(0.996264)"/>
       <use xlink:href="#CMR17-36" transform="translate(45.690477 0) scale(0.996264)"/>
       <use xlink:href="#CMR17-30" transform="translate(91.380954 0) scale(0.996264)"/>
      </g>
     </g>
    </g>
    <g id="text_8">
     <!-- $\phi (^o)$ -->
     <g transform="translate(132.103891 127.7091) scale(0.1 -0.1)">
      <defs>
       <path id="CMMI12-1e" d="M 2752 4358 
C 2752 4416 2707 4416 2688 4416 
C 2630 4416 2624 4403 2598 4294 
L 2253 2924 
C 2234 2841 2227 2835 2221 2828 
C 2214 2816 2170 2809 2157 2809 
C 1107 2720 301 1863 301 1071 
C 301 387 832 -32 1498 -71 
C 1446 -266 1402 -467 1350 -662 
C 1261 -995 1210 -1204 1210 -1229 
C 1210 -1242 1210 -1280 1274 -1280 
C 1293 -1280 1318 -1280 1331 -1255 
C 1344 -1242 1382 -1089 1408 -1008 
L 1645 -71 
C 2739 -13 3571 875 3571 1673 
C 3571 2313 3085 2771 2374 2816 
L 2752 4358 
z
M 2336 2688 
C 2758 2662 3181 2428 3181 1806 
C 3181 1090 2675 140 1677 64 
L 2336 2688 
z
M 1530 57 
C 1216 76 691 241 691 938 
C 691 1737 1274 2624 2195 2681 
L 1530 57 
z
" transform="scale(0.015625)"/>
       <path id="CMR17-28" d="M 1958 -1562 
C 1958 -1556 1958 -1543 1939 -1524 
C 1645 -1223 858 -403 858 1596 
C 858 3595 1632 4408 1946 4729 
C 1946 4735 1958 4748 1958 4767 
C 1958 4787 1939 4800 1914 4800 
C 1843 4800 1299 4325 986 3620 
C 666 2909 576 2218 576 1603 
C 576 1141 621 360 1005 -467 
C 1312 -1133 1837 -1600 1914 -1600 
C 1946 -1600 1958 -1588 1958 -1562 
z
" transform="scale(0.015625)"/>
       <path id="CMMI12-6f" d="M 2918 1755 
C 2918 2362 2522 2816 1939 2816 
C 1094 2816 262 1896 262 996 
C 262 389 659 -64 1242 -64 
C 2093 -64 2918 855 2918 1755 
z
M 1248 64 
C 928 64 691 319 691 766 
C 691 1060 845 1711 1024 2030 
C 1312 2522 1670 2687 1933 2687 
C 2246 2687 2490 2432 2490 1985 
C 2490 1730 2355 1047 2112 657 
C 1850 230 1498 64 1248 64 
z
" transform="scale(0.015625)"/>
       <path id="CMR17-29" d="M 1683 1596 
C 1683 2057 1638 2839 1254 3665 
C 947 4332 422 4800 346 4800 
C 326 4800 301 4793 301 4761 
C 301 4748 307 4742 314 4729 
C 621 4408 1402 3595 1402 1603 
C 1402 -396 627 -1210 314 -1530 
C 307 -1543 301 -1549 301 -1562 
C 301 -1594 326 -1600 346 -1600 
C 416 -1600 960 -1127 1274 -422 
C 1594 289 1683 981 1683 1596 
z
" transform="scale(0.015625)"/>
      </defs>
      <use xlink:href="#CMMI12-1e" transform="scale(0.996264)"/>
      <use xlink:href="#CMR17-28" transform="translate(57.73418 0) scale(0.996264)"/>
      <use xlink:href="#CMMI12-6f" transform="translate(93.014948 36.153639) scale(0.697382)"/>
      <use xlink:href="#CMR17-29" transform="translate(126.339642 0) scale(0.996264)"/>
     </g>
    </g>
   </g>
   <g id="matplotlib.axis_2">
    <g id="ytick_1">
     <g id="line2d_8">
      <defs>
       <path id="maa5334b681" d="M 0 0 
L -3.5 0 
" style="stroke: #000000; stroke-width: 0.8"/>
      </defs>
      <g>
       <use xlink:href="#maa5334b681" x="44.123453" y="76.055214" style="stroke: #000000; stroke-width: 0.8"/>
      </g>
     </g>
     <g id="text_9">
      <!-- $\mathdefault{10^{-1}}$ -->
      <g transform="translate(16.96288 79.514463) scale(0.1 -0.1)">
       <defs>
        <path id="CMSY10-0" d="M 4218 1472 
C 4326 1472 4442 1472 4442 1600 
C 4442 1728 4326 1728 4218 1728 
L 755 1728 
C 646 1728 531 1728 531 1600 
C 531 1472 646 1472 755 1472 
L 4218 1472 
z
" transform="scale(0.015625)"/>
       </defs>
       <use xlink:href="#CMR17-31" transform="scale(0.996264)"/>
       <use xlink:href="#CMR17-30" transform="translate(45.690477 0) scale(0.996264)"/>
       <use xlink:href="#CMSY10-0" transform="translate(91.380954 36.153639) scale(0.697382)"/>
       <use xlink:href="#CMR17-31" transform="translate(145.621947 36.153639) scale(0.697382)"/>
      </g>
     </g>
    </g>
    <g id="ytick_2">
     <g id="line2d_9">
      <g>
       <use xlink:href="#maa5334b681" x="44.123453" y="50.768369" style="stroke: #000000; stroke-width: 0.8"/>
      </g>
     </g>
     <g id="text_10">
      <!-- $\mathdefault{10^{0}}$ -->
      <g transform="translate(23.189545 54.227618) scale(0.1 -0.1)">
       <use xlink:href="#CMR17-31" transform="scale(0.996264)"/>
       <use xlink:href="#CMR17-30" transform="translate(45.690477 0) scale(0.996264)"/>
       <use xlink:href="#CMR17-30" transform="translate(91.380954 36.153639) scale(0.697382)"/>
      </g>
     </g>
    </g>
    <g id="ytick_3">
     <g id="line2d_10">
      <g>
       <use xlink:href="#maa5334b681" x="44.123453" y="25.481523" style="stroke: #000000; stroke-width: 0.8"/>
      </g>
     </g>
     <g id="text_11">
      <!-- $\mathdefault{10^{1}}$ -->
      <g transform="translate(23.189545 28.940772) scale(0.1 -0.1)">
       <use xlink:href="#CMR17-31" transform="scale(0.996264)"/>
       <use xlink:href="#CMR17-30" transform="translate(45.690477 0) scale(0.996264)"/>
       <use xlink:href="#CMR17-31" transform="translate(91.380954 36.153639) scale(0.697382)"/>
      </g>
     </g>
    </g>
    <g id="ytick_4">
     <g id="line2d_11">
      <defs>
       <path id="m3137ff558e" d="M 0 0 
L -2 0 
" style="stroke: #000000; stroke-width: 0.6"/>
      </defs>
      <g>
       <use xlink:href="#m3137ff558e" x="44.123453" y="93.72996" style="stroke: #000000; stroke-width: 0.6"/>
      </g>
     </g>
    </g>
    <g id="ytick_5">
     <g id="line2d_12">
      <g>
       <use xlink:href="#m3137ff558e" x="44.123453" y="89.277168" style="stroke: #000000; stroke-width: 0.6"/>
      </g>
     </g>
    </g>
    <g id="ytick_6">
     <g id="line2d_13">
      <g>
       <use xlink:href="#m3137ff558e" x="44.123453" y="86.117861" style="stroke: #000000; stroke-width: 0.6"/>
      </g>
     </g>
    </g>
    <g id="ytick_7">
     <g id="line2d_14">
      <g>
       <use xlink:href="#m3137ff558e" x="44.123453" y="83.667313" style="stroke: #000000; stroke-width: 0.6"/>
      </g>
     </g>
    </g>
    <g id="ytick_8">
     <g id="line2d_15">
      <g>
       <use xlink:href="#m3137ff558e" x="44.123453" y="81.665069" style="stroke: #000000; stroke-width: 0.6"/>
      </g>
     </g>
    </g>
    <g id="ytick_9">
     <g id="line2d_16">
      <g>
       <use xlink:href="#m3137ff558e" x="44.123453" y="79.972196" style="stroke: #000000; stroke-width: 0.6"/>
      </g>
     </g>
    </g>
    <g id="ytick_10">
     <g id="line2d_17">
      <g>
       <use xlink:href="#m3137ff558e" x="44.123453" y="78.505762" style="stroke: #000000; stroke-width: 0.6"/>
      </g>
     </g>
    </g>
    <g id="ytick_11">
     <g id="line2d_18">
      <g>
       <use xlink:href="#m3137ff558e" x="44.123453" y="77.212276" style="stroke: #000000; stroke-width: 0.6"/>
      </g>
     </g>
    </g>
    <g id="ytick_12">
     <g id="line2d_19">
      <g>
       <use xlink:href="#m3137ff558e" x="44.123453" y="68.443115" style="stroke: #000000; stroke-width: 0.6"/>
      </g>
     </g>
    </g>
    <g id="ytick_13">
     <g id="line2d_20">
      <g>
       <use xlink:href="#m3137ff558e" x="44.123453" y="63.990322" style="stroke: #000000; stroke-width: 0.6"/>
      </g>
     </g>
    </g>
    <g id="ytick_14">
     <g id="line2d_21">
      <g>
       <use xlink:href="#m3137ff558e" x="44.123453" y="60.831016" style="stroke: #000000; stroke-width: 0.6"/>
      </g>
     </g>
    </g>
    <g id="ytick_15">
     <g id="line2d_22">
      <g>
       <use xlink:href="#m3137ff558e" x="44.123453" y="58.380467" style="stroke: #000000; stroke-width: 0.6"/>
      </g>
     </g>
    </g>
    <g id="ytick_16">
     <g id="line2d_23">
      <g>
       <use xlink:href="#m3137ff558e" x="44.123453" y="56.378224" style="stroke: #000000; stroke-width: 0.6"/>
      </g>
     </g>
    </g>
    <g id="ytick_17">
     <g id="line2d_24">
      <g>
       <use xlink:href="#m3137ff558e" x="44.123453" y="54.68535" style="stroke: #000000; stroke-width: 0.6"/>
      </g>
     </g>
    </g>
    <g id="ytick_18">
     <g id="line2d_25">
      <g>
       <use xlink:href="#m3137ff558e" x="44.123453" y="53.218917" style="stroke: #000000; stroke-width: 0.6"/>
      </g>
     </g>
    </g>
    <g id="ytick_19">
     <g id="line2d_26">
      <g>
       <use xlink:href="#m3137ff558e" x="44.123453" y="51.925431" style="stroke: #000000; stroke-width: 0.6"/>
      </g>
     </g>
    </g>
    <g id="ytick_20">
     <g id="line2d_27">
      <g>
       <use xlink:href="#m3137ff558e" x="44.123453" y="43.15627" style="stroke: #000000; stroke-width: 0.6"/>
      </g>
     </g>
    </g>
    <g id="ytick_21">
     <g id="line2d_28">
      <g>
       <use xlink:href="#m3137ff558e" x="44.123453" y="38.703477" style="stroke: #000000; stroke-width: 0.6"/>
      </g>
     </g>
    </g>
    <g id="ytick_22">
     <g id="line2d_29">
      <g>
       <use xlink:href="#m3137ff558e" x="44.123453" y="35.544171" style="stroke: #000000; stroke-width: 0.6"/>
      </g>
     </g>
    </g>
    <g id="ytick_23">
     <g id="line2d_30">
      <g>
       <use xlink:href="#m3137ff558e" x="44.123453" y="33.093622" style="stroke: #000000; stroke-width: 0.6"/>
      </g>
     </g>
    </g>
    <g id="ytick_24">
     <g id="line2d_31">
      <g>
       <use xlink:href="#m3137ff558e" x="44.123453" y="31.091378" style="stroke: #000000; stroke-width: 0.6"/>
      </g>
     </g>
    </g>
    <g id="ytick_25">
     <g id="line2d_32">
      <g>
       <use xlink:href="#m3137ff558e" x="44.123453" y="29.398505" style="stroke: #000000; stroke-width: 0.6"/>
      </g>
     </g>
    </g>
    <g id="ytick_26">
     <g id="line2d_33">
      <g>
       <use xlink:href="#m3137ff558e" x="44.123453" y="27.932072" style="stroke: #000000; stroke-width: 0.6"/>
      </g>
     </g>
    </g>
    <g id="ytick_27">
     <g id="line2d_34">
      <g>
       <use xlink:href="#m3137ff558e" x="44.123453" y="26.638586" style="stroke: #000000; stroke-width: 0.6"/>
      </g>
     </g>
    </g>
    <g id="ytick_28">
     <g id="line2d_35">
      <g>
       <use xlink:href="#m3137ff558e" x="44.123453" y="17.869424" style="stroke: #000000; stroke-width: 0.6"/>
      </g>
     </g>
    </g>
    <g id="ytick_29">
     <g id="line2d_36">
      <g>
       <use xlink:href="#m3137ff558e" x="44.123453" y="13.416632" style="stroke: #000000; stroke-width: 0.6"/>
      </g>
     </g>
    </g>
    <g id="ytick_30">
     <g id="line2d_37">
      <g>
       <use xlink:href="#m3137ff558e" x="44.123453" y="10.257325" style="stroke: #000000; stroke-width: 0.6"/>
      </g>
     </g>
    </g>
    <g id="ytick_31">
     <g id="line2d_38">
      <g>
       <use xlink:href="#m3137ff558e" x="44.123453" y="7.806777" style="stroke: #000000; stroke-width: 0.6"/>
      </g>
     </g>
    </g>
    <g id="ytick_32">
     <g id="line2d_39">
      <g>
       <use xlink:href="#m3137ff558e" x="44.123453" y="5.804533" style="stroke: #000000; stroke-width: 0.6"/>
      </g>
     </g>
    </g>
    <g id="ytick_33">
     <g id="line2d_40">
      <g>
       <use xlink:href="#m3137ff558e" x="44.123453" y="4.11166" style="stroke: #000000; stroke-width: 0.6"/>
      </g>
     </g>
    </g>
    <g id="text_12">
     <!-- $\sigma / \lambda$ -->
     <g transform="translate(10.47222 60.112401) rotate(-90) scale(0.1 -0.1)">
      <defs>
       <path id="CMMI12-1b" d="M 3251 2406 
C 3334 2406 3546 2406 3546 2611 
C 3546 2752 3424 2752 3309 2752 
L 1894 2752 
C 934 2752 243 1685 243 932 
C 243 389 595 -64 1171 -64 
C 1926 -64 2752 746 2752 1704 
C 2752 1953 2694 2195 2541 2406 
L 3251 2406 
z
M 1178 64 
C 851 64 614 312 614 753 
C 614 1136 845 2406 1786 2406 
C 2061 2406 2368 2272 2368 1780 
C 2368 1557 2266 1021 2042 651 
C 1811 274 1466 64 1178 64 
z
" transform="scale(0.015625)"/>
       <path id="CMMI12-3d" d="M 2746 4563 
C 2746 4569 2784 4665 2784 4678 
C 2784 4755 2720 4800 2669 4800 
C 2637 4800 2579 4800 2528 4659 
L 384 -1364 
C 384 -1370 346 -1466 346 -1479 
C 346 -1556 410 -1600 461 -1600 
C 499 -1600 557 -1594 602 -1460 
L 2746 4563 
z
" transform="scale(0.015625)"/>
       <path id="CMMI12-15" d="M 1978 3963 
C 1818 4416 1312 4416 1229 4416 
C 1190 4416 1120 4416 1120 4351 
C 1120 4300 1158 4294 1190 4287 
C 1286 4275 1363 4262 1466 4078 
C 1530 3957 2189 2055 2189 2042 
C 2189 2036 2182 2029 2131 1978 
L 467 305 
C 390 229 339 178 339 95 
C 339 6 416 -71 518 -71 
C 544 -71 614 -58 653 -20 
C 755 76 1670 1190 2253 1877 
C 2419 1380 2624 795 2822 261 
C 2854 165 2886 76 2976 -7 
C 3040 -64 3053 -64 3232 -64 
L 3354 -64 
C 3379 -64 3424 -64 3424 -13 
C 3424 12 3418 19 3392 44 
C 3334 114 3290 229 3264 305 
L 1978 3963 
z
" transform="scale(0.015625)"/>
      </defs>
      <use xlink:href="#CMMI12-1b" transform="scale(0.996264)"/>
      <use xlink:href="#CMMI12-3d" transform="translate(59.020054 0) scale(0.996264)"/>
      <use xlink:href="#CMMI12-15" transform="translate(107.794972 0) scale(0.996264)"/>
     </g>
    </g>
   </g>
   <g id="line2d_41">
    <path d="M 52.945104 7.429815 
L 53.435195 7.489017 
L 53.925287 7.666936 
L 54.905471 8.383301 
L 55.885654 9.594082 
L 56.865837 11.32494 
L 57.846021 13.611659 
L 58.826204 16.496483 
L 59.806387 20.013216 
L 61.276662 26.37283 
L 62.746937 32.792571 
L 63.237029 34.295501 
L 63.727121 35.163348 
L 64.217212 35.317296 
L 64.707304 34.830728 
L 65.197396 33.88747 
L 67.647854 28.099365 
L 68.628038 26.652991 
L 69.118129 26.189784 
L 69.608221 25.898727 
L 70.098313 25.777188 
L 70.588404 25.822507 
L 71.078496 26.032571 
L 71.568588 26.406138 
L 72.548771 27.644199 
L 73.528954 29.549274 
L 74.509138 32.15204 
L 75.489321 35.493255 
L 76.469505 39.589235 
L 78.919963 50.90955 
L 79.410055 52.118279 
L 79.900146 52.466071 
L 80.390238 51.975119 
L 80.88033 50.860426 
L 83.330788 43.681513 
L 84.310972 41.81554 
L 84.801063 41.179646 
L 85.291155 40.73946 
L 85.781247 40.492586 
L 86.271338 40.437729 
L 86.76143 40.575408 
L 87.251522 40.908486 
L 87.741613 41.442641 
L 88.231705 42.186934 
L 89.211888 44.363833 
L 90.192072 47.616707 
L 91.172255 52.276939 
L 92.152438 58.987303 
L 92.64253 63.479658 
L 93.622713 75.852381 
L 94.112805 82.868525 
L 94.602897 84.719993 
L 95.092989 79.133504 
L 96.073172 66.51681 
L 97.053355 58.312897 
L 98.033539 53.018862 
L 99.013722 49.605853 
L 99.503814 48.438873 
L 99.993905 47.581198 
L 100.483997 47.009705 
L 100.974089 46.709759 
L 101.46418 46.673784 
L 101.954272 46.900546 
L 102.444364 47.395033 
L 102.934455 48.168918 
L 103.424547 49.241704 
L 103.914639 50.642789 
L 104.404731 52.41496 
L 104.894822 54.620238 
L 105.384914 57.349938 
L 105.875006 60.742691 
L 106.365097 65.018372 
L 106.855189 70.544018 
L 107.345281 77.945967 
L 108.325464 95.955025 
L 108.815556 88.53617 
L 109.305647 78.505238 
L 109.795739 71.077841 
L 110.285831 65.564253 
L 111.266014 57.981226 
L 112.246197 53.17293 
L 113.226381 50.149743 
L 113.716472 49.15849 
L 114.206564 48.469681 
L 114.696656 48.063205 
L 115.186748 47.926607 
L 115.676839 48.053796 
L 116.166931 48.444365 
L 116.657023 49.103388 
L 117.147114 50.041615 
L 117.637206 51.276033 
L 118.617389 54.738173 
L 119.597573 59.784638 
L 120.577756 66.768065 
L 121.557939 74.904003 
L 122.048031 77.472143 
L 122.538123 77.1754 
L 123.028214 74.348174 
L 124.49849 63.679783 
L 125.478673 58.756439 
L 126.458856 55.568918 
L 126.948948 54.514424 
L 127.43904 53.774667 
L 127.929131 53.324177 
L 128.419223 53.141626 
L 128.909315 53.207536 
L 129.399406 53.501521 
L 129.889498 53.998703 
L 130.869681 55.450055 
L 131.849865 57.056553 
L 132.339956 57.646781 
L 132.830048 57.913239 
L 133.32014 57.744372 
L 133.810231 57.097377 
L 134.300323 56.016117 
L 135.280507 53.013912 
L 137.240873 46.724641 
L 138.221057 44.33655 
L 139.20124 42.623701 
L 140.181423 41.599312 
L 140.671515 41.343932 
L 141.161607 41.258881 
L 141.651698 41.343932 
L 142.14179 41.599312 
L 142.631882 42.025635 
L 143.612065 43.394103 
L 144.592249 45.448754 
L 145.572432 48.151549 
L 148.02289 56.016117 
L 148.512982 57.097377 
L 149.003074 57.744372 
L 149.493165 57.913239 
L 149.983257 57.646781 
L 150.473349 57.056553 
L 152.433715 53.998703 
L 152.923807 53.501521 
L 153.413899 53.207536 
L 153.903991 53.141626 
L 154.394082 53.324177 
L 154.884174 53.774667 
L 155.374266 54.514424 
L 155.864357 55.568918 
L 156.354449 56.969782 
L 156.844541 58.756439 
L 157.824724 63.679783 
L 158.804907 70.574623 
L 159.294999 74.348174 
L 159.785091 77.1754 
L 160.275182 77.472143 
L 160.765274 74.904003 
L 162.725641 59.784638 
L 163.705824 54.738173 
L 164.686008 51.276033 
L 165.666191 49.103388 
L 166.156283 48.444365 
L 166.646374 48.053796 
L 167.136466 47.926607 
L 167.626558 48.063205 
L 168.116649 48.469681 
L 168.606741 49.15849 
L 169.096833 50.149743 
L 169.586924 51.473407 
L 170.077016 53.17293 
L 170.567108 55.311266 
L 171.057199 57.981226 
L 171.547291 61.324022 
L 172.037383 65.564253 
L 172.527474 71.077841 
L 173.017566 78.505238 
L 173.507658 88.53617 
L 173.99775 95.955025 
L 174.487841 87.947531 
L 174.977933 77.945967 
L 175.468025 70.544018 
L 176.448208 60.742691 
L 177.428391 54.620238 
L 178.408575 50.642789 
L 179.388758 48.168918 
L 179.87885 47.395033 
L 180.368941 46.900546 
L 180.859033 46.673784 
L 181.349125 46.709759 
L 181.839216 47.009705 
L 182.329308 47.581198 
L 182.8194 48.438873 
L 183.309491 49.605853 
L 183.799583 51.116202 
L 184.289675 53.018862 
L 184.779767 55.383975 
L 185.269858 58.312897 
L 185.75995 61.953354 
L 186.250042 66.51681 
L 187.720317 84.719993 
L 188.210408 82.868525 
L 189.190592 69.043692 
L 190.170775 58.987303 
L 191.150958 52.276939 
L 192.131142 47.616707 
L 193.111325 44.363833 
L 194.091509 42.186934 
L 194.5816 41.442641 
L 195.071692 40.908486 
L 195.561784 40.575408 
L 196.051875 40.437729 
L 196.541967 40.492586 
L 197.032059 40.73946 
L 197.52215 41.179646 
L 198.012242 41.81554 
L 198.992425 43.681513 
L 199.972609 46.303512 
L 201.442884 50.860426 
L 201.932975 51.975119 
L 202.423067 52.466071 
L 202.913159 52.118279 
L 203.40325 50.90955 
L 204.383434 46.743455 
L 206.343801 37.449064 
L 207.323984 33.727994 
L 208.304167 30.76094 
L 209.284351 28.511834 
L 210.264534 26.943024 
L 211.244717 26.032571 
L 211.734809 25.822507 
L 212.224901 25.777188 
L 212.714992 25.898727 
L 213.205084 26.189784 
L 213.695176 26.652991 
L 214.675359 28.099365 
L 215.655543 30.195712 
L 217.615909 34.830728 
L 218.106001 35.317296 
L 218.596093 35.163348 
L 219.086184 34.295501 
L 219.576276 32.792571 
L 220.556459 28.644521 
L 222.516826 20.013216 
L 223.49701 16.496483 
L 224.477193 13.611659 
L 225.457376 11.32494 
L 226.43756 9.594082 
L 227.417743 8.383301 
L 228.397926 7.666936 
L 228.888018 7.489017 
L 229.37811 7.429815 
L 229.37811 7.429815 
" clip-path="url(#pa65e372db4)" style="fill: none; stroke: #000000; stroke-width: 0.75; stroke-linecap: square"/>
   </g>
   <g id="line2d_42">
    <path d="M 52.945104 7.427161 
L 53.435195 7.496403 
L 54.415379 7.978426 
L 55.395562 8.92509 
L 56.375746 10.365012 
L 57.355929 12.344153 
L 58.336112 14.918017 
L 59.316296 18.139179 
L 60.296479 22.023703 
L 62.746937 32.883119 
L 63.237029 34.34222 
L 63.727121 35.151746 
L 64.217212 35.250217 
L 64.707304 34.725216 
L 65.687488 32.573118 
L 67.157763 29.006055 
L 68.137946 27.270007 
L 69.118129 26.205782 
L 69.608221 25.924402 
L 70.098313 25.806924 
L 70.588404 25.852007 
L 71.078496 26.059582 
L 71.568588 26.430548 
L 72.058679 26.966268 
L 73.038863 28.537616 
L 74.019046 30.786709 
L 74.99923 33.74021 
L 75.979413 37.441533 
L 77.449688 44.308951 
L 78.429871 49.05502 
L 78.919963 50.953281 
L 79.410055 52.175233 
L 79.900146 52.536805 
L 80.390238 52.058103 
L 80.88033 50.948044 
L 83.330788 43.680146 
L 84.310972 41.818745 
L 84.801063 41.199942 
L 85.291155 40.780936 
L 85.781247 40.553704 
L 86.271338 40.51175 
L 86.76143 40.651685 
L 87.251522 40.974095 
L 87.741613 41.483874 
L 88.231705 42.190309 
L 89.211888 44.253488 
L 90.192072 47.344299 
L 91.172255 51.797595 
L 92.152438 58.27898 
L 92.64253 62.671256 
L 93.132622 68.178839 
L 94.112805 82.451043 
L 94.602897 84.753604 
L 95.58308 71.822271 
L 96.563264 61.448179 
L 97.543447 55.052478 
L 98.52363 50.970918 
L 99.503814 48.350794 
L 99.993905 47.453335 
L 100.483997 46.801039 
L 100.974089 46.392443 
L 101.46418 46.238914 
L 101.954272 46.360927 
L 102.444364 46.784407 
L 102.934455 47.537656 
L 103.424547 48.649309 
L 103.914639 50.147824 
L 104.404731 52.063145 
L 105.384914 57.307534 
L 106.365097 65.013654 
L 106.855189 70.290667 
L 107.345281 77.066502 
L 107.835372 85.573339 
L 108.325464 91.64304 
L 108.815556 86.025081 
L 109.795739 69.708115 
L 110.285831 64.190347 
L 111.266014 56.663418 
L 112.246197 52.103151 
L 113.226381 49.343243 
L 113.716472 48.424149 
L 114.206564 47.752737 
L 114.696656 47.315536 
L 115.186748 47.118315 
L 115.676839 47.178733 
L 116.166931 47.518849 
L 116.657023 48.159318 
L 117.147114 49.116332 
L 117.637206 50.401733 
L 118.617389 54.006006 
L 119.597573 59.166691 
L 120.577756 66.343487 
L 122.048031 78.902721 
L 122.538123 79.126119 
L 123.028214 76.080632 
L 124.008398 67.862516 
L 124.988581 61.599064 
L 125.968765 57.391423 
L 126.948948 54.706969 
L 127.43904 53.846524 
L 127.929131 53.28611 
L 128.419223 53.015876 
L 128.909315 53.024761 
L 129.399406 53.296732 
L 129.889498 53.80747 
L 130.869681 55.382992 
L 132.339956 57.951024 
L 132.830048 58.358466 
L 133.32014 58.306737 
L 133.810231 57.728553 
L 134.300323 56.65519 
L 135.280507 53.5215 
L 136.750782 48.379056 
L 137.730965 45.57058 
L 138.711148 43.493841 
L 139.691332 42.164517 
L 140.181423 41.769412 
L 140.671515 41.545906 
L 141.161607 41.487995 
L 141.651698 41.590702 
L 142.14179 41.850934 
L 142.631882 42.268289 
L 143.612065 43.58923 
L 144.592249 45.610713 
L 145.572432 48.384899 
L 148.02289 56.782058 
L 148.512982 57.83579 
L 149.003074 58.382605 
L 149.493165 58.417274 
L 149.983257 58.021414 
L 150.96344 56.448382 
L 152.433715 53.846228 
L 152.923807 53.25947 
L 153.413899 52.918383 
L 153.903991 52.865538 
L 154.394082 53.127711 
L 154.884174 53.716507 
L 155.374266 54.632022 
L 155.864357 55.870068 
L 156.844541 59.341354 
L 157.824724 64.441226 
L 158.804907 71.889851 
L 159.785091 79.836783 
L 160.275182 79.835917 
L 160.765274 76.099385 
L 161.745457 66.521403 
L 162.725641 59.288974 
L 163.705824 54.177742 
L 164.686008 50.548618 
L 165.666191 48.211543 
L 166.156283 47.524289 
L 166.646374 47.151359 
L 167.136466 47.077201 
L 167.626558 47.279713 
L 168.116649 47.736624 
L 168.606741 48.434433 
L 169.096833 49.37776 
L 169.586924 50.596755 
L 170.077016 52.151249 
L 170.567108 54.132414 
L 171.057199 56.665204 
L 171.547291 59.917088 
L 172.037383 64.121122 
L 172.527474 69.62284 
L 173.017566 76.927509 
L 173.507658 86.235018 
L 173.99775 92.340442 
L 174.487841 85.995533 
L 175.468025 70.30203 
L 176.448208 60.758276 
L 177.428391 54.456389 
L 178.408575 50.215444 
L 178.898666 48.726107 
L 179.388758 47.614031 
L 179.87885 46.85131 
L 180.368941 46.410657 
L 180.859033 46.265766 
L 181.349125 46.393217 
L 181.839216 46.775322 
L 182.329308 47.403362 
L 182.8194 48.280796 
L 183.309491 49.426158 
L 183.799583 50.875766 
L 184.289675 52.686885 
L 184.779767 54.942651 
L 185.269858 57.76083 
L 185.75995 61.308946 
L 186.250042 65.825142 
L 186.740133 71.611667 
L 187.720317 84.701237 
L 188.210408 82.70501 
L 189.190592 68.394144 
L 190.170775 58.414743 
L 191.150958 51.903147 
L 192.131142 47.422213 
L 193.111325 44.269484 
L 194.091509 42.109822 
L 194.5816 41.355038 
L 195.071692 40.807384 
L 195.561784 40.464954 
L 196.051875 40.327495 
L 196.541967 40.394803 
L 197.032059 40.665692 
L 197.52215 41.137571 
L 198.012242 41.806556 
L 198.992425 43.71512 
L 199.972609 46.322381 
L 201.442884 50.815238 
L 201.932975 51.929267 
L 202.423067 52.433585 
L 202.913159 52.10634 
L 203.40325 50.919071 
L 204.383434 46.791779 
L 206.343801 37.469147 
L 207.323984 33.670319 
L 208.304167 30.653737 
L 209.284351 28.423844 
L 210.264534 26.91712 
L 211.244717 26.04412 
L 211.734809 25.828105 
L 212.224901 25.760683 
L 212.714992 25.849905 
L 213.205084 26.107107 
L 213.695176 26.5439 
L 214.185268 27.168762 
L 215.165451 28.979556 
L 216.635726 32.698852 
L 217.615909 34.865585 
L 218.106001 35.35336 
L 218.596093 35.1932 
L 219.086184 34.312317 
L 219.576276 32.79074 
L 220.556459 28.606427 
L 222.516826 20.000134 
L 223.49701 16.511401 
L 224.477193 13.626677 
L 225.457376 11.314466 
L 226.43756 9.556358 
L 227.417743 8.338354 
L 228.397926 7.638271 
L 228.888018 7.473296 
L 229.37811 7.426658 
L 229.37811 7.426658 
" clip-path="url(#pa65e372db4)" style="fill: none; stroke-dasharray: 2.775,1.2; stroke-dashoffset: 0; stroke: #ff0000; stroke-width: 0.75"/>
   </g>
   <g id="patch_3">
    <path d="M 44.123453 100.381443 
L 44.123453 3.00024 
" style="fill: none; stroke: #000000; stroke-width: 0.8; stroke-linejoin: miter; stroke-linecap: square"/>
   </g>
   <g id="patch_4">
    <path d="M 238.19976 100.381443 
L 238.19976 3.00024 
" style="fill: none; stroke: #000000; stroke-width: 0.8; stroke-linejoin: miter; stroke-linecap: square"/>
   </g>
   <g id="patch_5">
    <path d="M 44.123453 100.381443 
L 238.19976 100.381443 
" style="fill: none; stroke: #000000; stroke-width: 0.8; stroke-linejoin: miter; stroke-linecap: square"/>
   </g>
   <g id="patch_6">
    <path d="M 44.123453 3.00024 
L 238.19976 3.00024 
" style="fill: none; stroke: #000000; stroke-width: 0.8; stroke-linejoin: miter; stroke-linecap: square"/>
   </g>
   <g id="legend_1">
    <g id="patch_7">
     <path d="M 102.745606 38.874597 
L 179.577608 38.874597 
Q 181.577608 38.874597 181.577608 36.874597 
L 181.577608 10.00024 
Q 181.577608 8.00024 179.577608 8.00024 
L 102.745606 8.00024 
Q 100.745606 8.00024 100.745606 10.00024 
L 100.745606 36.874597 
Q 100.745606 38.874597 102.745606 38.874597 
z
" style="fill: #ffffff; opacity: 0.8; stroke: #cccccc; stroke-linejoin: miter"/>
    </g>
    <g id="line2d_43">
     <path d="M 104.745606 15.50024 
L 114.745606 15.50024 
L 124.745606 15.50024 
" style="fill: none; stroke: #000000; stroke-width: 0.75; stroke-linecap: square"/>
    </g>
    <g id="text_13">
     <!-- Analytical -->
     <g transform="translate(132.745606 19.00024) scale(0.1 -0.1)">
      <defs>
       <path id="CMR17-41" d="M 2323 4441 
C 2291 4524 2278 4544 2214 4544 
C 2150 4544 2138 4524 2106 4441 
L 749 580 
C 627 236 371 166 147 166 
L 147 0 
C 262 12 518 12 640 12 
C 800 12 1056 12 1210 0 
L 1210 166 
C 909 179 864 382 864 459 
C 864 516 877 548 890 586 
L 1229 1536 
L 2906 1536 
L 3290 453 
C 3322 376 3322 363 3322 338 
C 3322 166 3046 166 2925 166 
L 2925 0 
C 3110 12 3443 12 3642 12 
C 3808 12 4128 12 4282 0 
L 4282 166 
C 3942 166 3827 166 3744 402 
L 2323 4441 
z
M 2067 3924 
L 2848 1702 
L 1286 1702 
L 2067 3924 
z
" transform="scale(0.015625)"/>
       <path id="CMR17-6e" d="M 2656 1954 
C 2656 2282 2592 2816 1837 2816 
C 1331 2816 1069 2424 973 2166 
L 966 2166 
L 966 2816 
L 211 2745 
L 211 2578 
C 589 2578 646 2540 646 2231 
L 646 443 
C 646 198 621 166 211 166 
L 211 0 
C 365 12 646 12 813 12 
C 979 12 1267 12 1421 0 
L 1421 166 
C 1011 166 986 192 986 443 
L 986 1678 
C 986 2269 1344 2713 1792 2713 
C 2266 2713 2317 2289 2317 1980 
L 2317 443 
C 2317 198 2291 166 1882 166 
L 1882 0 
C 2035 12 2317 12 2483 12 
C 2650 12 2938 12 3091 0 
L 3091 166 
C 2682 166 2656 192 2656 443 
L 2656 1954 
z
" transform="scale(0.015625)"/>
       <path id="CMR17-61" d="M 2304 1656 
C 2304 2048 2304 2275 2035 2534 
C 1798 2751 1523 2816 1306 2816 
C 800 2816 435 2408 435 1977 
C 435 1740 627 1728 666 1728 
C 749 1728 896 1779 896 1958 
C 896 2118 774 2188 666 2188 
C 640 2188 608 2182 589 2176 
C 723 2594 1069 2713 1293 2713 
C 1613 2713 1965 2421 1965 1875 
L 1965 1632 
C 1587 1619 1133 1568 774 1373 
C 371 1147 256 822 256 576 
C 256 77 832 -64 1171 -64 
C 1523 -64 1850 135 1990 505 
C 2003 219 2182 -39 2464 -39 
C 2598 -39 2938 51 2938 563 
L 2938 926 
L 2822 926 
L 2822 557 
C 2822 161 2650 109 2566 109 
C 2304 109 2304 446 2304 732 
L 2304 1656 
z
M 1965 887 
C 1965 323 1568 38 1216 38 
C 896 38 646 278 646 576 
C 646 771 730 1114 1101 1322 
C 1408 1497 1760 1523 1965 1536 
L 1965 887 
z
" transform="scale(0.015625)"/>
       <path id="CMR17-6c" d="M 979 4416 
L 218 4345 
L 218 4179 
C 595 4179 653 4141 653 3835 
L 653 439 
C 653 198 627 166 218 166 
L 218 0 
C 371 12 653 12 813 12 
C 979 12 1261 12 1414 0 
L 1414 166 
C 1005 166 979 191 979 439 
L 979 4416 
z
" transform="scale(0.015625)"/>
       <path id="CMR17-79" d="M 2496 2183 
C 2656 2579 2944 2585 3034 2585 
L 3034 2752 
C 2912 2745 2752 2739 2630 2739 
C 2496 2739 2285 2739 2157 2752 
L 2157 2585 
C 2400 2566 2406 2384 2406 2332 
C 2406 2268 2394 2235 2362 2158 
L 1664 409 
L 902 2300 
C 870 2378 870 2423 870 2430 
C 870 2572 1018 2585 1171 2585 
L 1171 2752 
C 1018 2739 742 2739 582 2739 
C 410 2739 205 2739 64 2752 
L 64 2585 
C 410 2585 448 2553 531 2345 
L 1485 -31 
C 1197 -795 1030 -1242 627 -1242 
C 557 -1242 397 -1223 282 -1106 
C 429 -1093 493 -1002 493 -892 
C 493 -782 416 -685 288 -685 
C 147 -685 77 -782 77 -899 
C 77 -1158 339 -1344 627 -1344 
C 998 -1344 1229 -983 1357 -659 
L 2496 2183 
z
" transform="scale(0.015625)"/>
       <path id="CMR17-74" d="M 966 2585 
L 1862 2585 
L 1862 2752 
L 966 2752 
L 966 3968 
L 851 3968 
C 838 3292 614 2700 70 2687 
L 70 2585 
L 627 2585 
L 627 778 
C 627 655 627 -64 1370 -64 
C 1747 -64 1965 308 1965 784 
L 1965 1151 
L 1850 1151 
L 1850 790 
C 1850 347 1677 51 1408 51 
C 1222 51 966 179 966 765 
L 966 2585 
z
" transform="scale(0.015625)"/>
       <path id="CMR17-69" d="M 992 3961 
C 992 4102 877 4224 730 4224 
C 589 4224 467 4108 467 3961 
C 467 3820 582 3699 730 3699 
C 870 3699 992 3814 992 3961 
z
M 243 2745 
L 243 2579 
C 602 2579 653 2540 653 2231 
L 653 443 
C 653 198 627 166 218 166 
L 218 0 
C 371 12 646 12 806 12 
C 960 12 1222 12 1370 0 
L 1370 166 
C 992 166 979 205 979 436 
L 979 2816 
L 243 2745 
z
" transform="scale(0.015625)"/>
       <path id="CMR17-63" d="M 2234 2240 
C 2112 2240 1933 2240 1933 2015 
C 1933 1836 2080 1785 2163 1785 
C 2208 1785 2394 1804 2394 2028 
C 2394 2476 1958 2816 1466 2816 
C 787 2816 211 2201 211 1379 
C 211 521 813 -64 1466 -64 
C 2259 -64 2458 676 2458 747 
C 2458 773 2451 792 2406 792 
C 2362 792 2355 786 2330 702 
C 2163 180 1798 51 1523 51 
C 1114 51 621 431 621 1385 
C 621 2358 1094 2700 1472 2700 
C 1722 2700 2093 2582 2234 2240 
z
" transform="scale(0.015625)"/>
      </defs>
      <use xlink:href="#CMR17-41" transform="scale(0.996264)"/>
      <use xlink:href="#CMR17-6e" transform="translate(69.07243 0) scale(0.996264)"/>
      <use xlink:href="#CMR17-61" transform="translate(119.9678 0) scale(0.996264)"/>
      <use xlink:href="#CMR17-6c" transform="translate(165.658277 0) scale(0.996264)"/>
      <use xlink:href="#CMR17-79" transform="translate(190.529335 0) scale(0.996264)"/>
      <use xlink:href="#CMR17-74" transform="translate(238.822251 0) scale(0.996264)"/>
      <use xlink:href="#CMR17-69" transform="translate(274.103019 0) scale(0.996264)"/>
      <use xlink:href="#CMR17-63" transform="translate(298.974077 0) scale(0.996264)"/>
      <use xlink:href="#CMR17-61" transform="translate(339.459738 0) scale(0.996264)"/>
      <use xlink:href="#CMR17-6c" transform="translate(385.150215 0) scale(0.996264)"/>
     </g>
    </g>
    <g id="line2d_44">
     <path d="M 104.745606 29.437418 
L 114.745606 29.437418 
L 124.745606 29.437418 
" style="fill: none; stroke-dasharray: 2.775,1.2; stroke-dashoffset: 0; stroke: #ff0000; stroke-width: 0.75"/>
    </g>
    <g id="text_14">
     <!-- LBM -->
     <g transform="translate(132.745606 32.937418) scale(0.1 -0.1)">
      <defs>
       <path id="CMR17-4c" d="M 3469 1612 
L 3354 1612 
C 3302 981 3219 166 2125 166 
L 1530 166 
C 1274 166 1261 198 1261 414 
L 1261 3892 
C 1261 4121 1274 4185 1760 4185 
L 1901 4185 
L 1901 4352 
C 1638 4339 1331 4339 1069 4339 
C 870 4339 512 4339 326 4352 
L 326 4185 
C 768 4185 838 4185 838 3898 
L 838 453 
C 838 166 768 166 326 166 
L 326 0 
L 3315 0 
L 3469 1612 
z
" transform="scale(0.015625)"/>
       <path id="CMR17-42" d="M 333 4352 
L 333 4185 
C 774 4185 845 4185 845 3897 
L 845 451 
C 845 166 774 166 333 166 
L 333 0 
L 2534 0 
C 3354 0 3885 578 3885 1155 
C 3885 1726 3360 2214 2675 2259 
C 3290 2380 3718 2790 3718 3276 
C 3718 3808 3194 4352 2368 4352 
L 333 4352 
z
M 1248 2304 
L 1248 3936 
C 1248 4153 1261 4185 1517 4185 
L 2336 4185 
C 2970 4185 3251 3673 3251 3276 
C 3251 2790 2861 2304 2170 2304 
L 1248 2304 
z
M 1517 166 
C 1261 166 1248 198 1248 413 
L 1248 2201 
L 2432 2201 
C 3091 2201 3411 1624 3411 1161 
C 3411 698 3046 166 2349 166 
L 1517 166 
z
" transform="scale(0.015625)"/>
       <path id="CMR17-4d" d="M 1338 4249 
C 1299 4345 1293 4352 1158 4352 
L 339 4352 
L 339 4185 
C 781 4185 851 4185 851 3898 
L 851 624 
C 851 465 851 166 339 166 
L 339 0 
C 486 12 755 12 915 12 
C 1075 12 1344 12 1491 0 
L 1491 166 
C 979 166 979 465 979 624 
L 979 4159 
L 986 4159 
L 2490 102 
C 2515 38 2528 0 2579 0 
C 2630 0 2643 38 2669 102 
L 4186 4191 
L 4192 4191 
L 4192 453 
C 4192 166 4122 166 3680 166 
L 3680 0 
C 3853 12 4198 12 4384 12 
C 4570 12 4922 12 5094 0 
L 5094 166 
C 4653 166 4582 166 4582 453 
L 4582 3898 
C 4582 4185 4653 4185 5094 4185 
L 5094 4352 
L 4282 4352 
C 4147 4352 4141 4345 4102 4249 
L 2720 516 
L 1338 4249 
z
" transform="scale(0.015625)"/>
      </defs>
      <use xlink:href="#CMR17-4c" transform="scale(0.996264)"/>
      <use xlink:href="#CMR17-42" transform="translate(57.381408 0) scale(0.996264)"/>
      <use xlink:href="#CMR17-4d" transform="translate(122.570162 0) scale(0.996264)"/>
     </g>
    </g>
   </g>
  </g>
 </g>
 <defs>
  <clipPath id="pa65e372db4">
   <rect x="44.123453" y="3.00024" width="194.076307" height="97.381203"/>
  </clipPath>
 </defs>
</svg>
