<?xml version="1.0" encoding="utf-8" standalone="no"?>
<!DOCTYPE svg PUBLIC "-//W3C//DTD SVG 1.1//EN"
  "http://www.w3.org/Graphics/SVG/1.1/DTD/svg11.dtd">
<svg xmlns:xlink="http://www.w3.org/1999/xlink" width="160.56pt" height="160.56pt" viewBox="0 0 160.56 160.56" xmlns="http://www.w3.org/2000/svg" version="1.1">
 <metadata>
  <rdf:RDF xmlns:dc="http://purl.org/dc/elements/1.1/" xmlns:cc="http://creativecommons.org/ns#" xmlns:rdf="http://www.w3.org/1999/02/22-rdf-syntax-ns#">
   <cc:Work>
    <dc:type rdf:resource="http://purl.org/dc/dcmitype/StillImage"/>
    <dc:date>2025-01-19T16:02:00.813061</dc:date>
    <dc:format>image/svg+xml</dc:format>
    <dc:creator>
     <cc:Agent>
      <dc:title>Matplotlib v3.6.3, https://matplotlib.org/</dc:title>
     </cc:Agent>
    </dc:creator>
   </cc:Work>
  </rdf:RDF>
 </metadata>
 <defs>
  <style type="text/css">*{stroke-linejoin: round; stroke-linecap: butt}</style>
 </defs>
 <g id="figure_1">
  <g id="patch_1">
   <path d="M 0 160.56 
L 160.56 160.56 
L 160.56 0 
L 0 0 
z
" style="fill: #ffffff"/>
  </g>
  <g id="axes_1">
   <g id="patch_2">
    <path d="M 157.55976 80.28 
C 157.55976 70.131715 155.560769 60.082109 151.677189 50.706316 
C 147.793608 41.330523 142.100964 32.810879 134.925042 25.634958 
C 127.749121 18.459036 119.229477 12.766392 109.853684 8.882811 
C 100.477891 4.999231 90.428285 3.00024 80.28 3.00024 
C 70.131715 3.00024 60.082109 4.999231 50.706316 8.882811 
C 41.330523 12.766392 32.810879 18.459036 25.634958 25.634958 
C 18.459036 32.810879 12.766392 41.330523 8.882811 50.706316 
C 4.999231 60.082109 3.00024 70.131715 3.00024 80.28 
C 3.00024 90.428285 4.999231 100.477891 8.882811 109.853684 
C 12.766392 119.229477 18.459036 127.749121 25.634958 134.925042 
C 32.810879 142.100964 41.330523 147.793608 50.706316 151.677189 
C 60.082109 155.560769 70.131715 157.55976 80.28 157.55976 
C 90.428285 157.55976 100.477891 155.560769 109.853684 151.677189 
C 119.229477 147.793608 127.749121 142.100964 134.925042 134.925042 
C 142.100964 127.749121 147.793608 119.229477 151.677189 109.853684 
C 155.560769 100.477891 157.55976 90.428285 157.55976 80.28 
M 80.28 80.28 
C 80.28 80.28 80.28 80.28 80.28 80.28 
C 80.28 80.28 80.28 80.28 80.28 80.28 
C 80.28 80.28 80.28 80.28 80.28 80.28 
C 80.28 80.28 80.28 80.28 80.28 80.28 
C 80.28 80.28 80.28 80.28 80.28 80.28 
C 80.28 80.28 80.28 80.28 80.28 80.28 
C 80.28 80.28 80.28 80.28 80.28 80.28 
C 80.28 80.28 80.28 80.28 80.28 80.28 
C 80.28 80.28 80.28 80.28 80.28 80.28 
C 80.28 80.28 80.28 80.28 80.28 80.28 
C 80.28 80.28 80.28 80.28 80.28 80.28 
C 80.28 80.28 80.28 80.28 80.28 80.28 
C 80.28 80.28 80.28 80.28 80.28 80.28 
C 80.28 80.28 80.28 80.28 80.28 80.28 
C 80.28 80.28 80.28 80.28 80.28 80.28 
C 80.28 80.28 80.28 80.28 80.28 80.28 
M 157.55976 80.28 
z
" style="fill: #ffffff"/>
   </g>
   <g id="matplotlib.axis_1">
    <g id="xtick_1">
     <g id="line2d_1">
      <path d="M 80.28 80.28 
L 157.55976 80.28 
" clip-path="url(#p22fc01a995)" style="fill: none; stroke: #b0b0b0; stroke-width: 0.8; stroke-linecap: square"/>
     </g>
    </g>
    <g id="xtick_2">
     <g id="line2d_2">
      <path d="M 80.28 80.28 
L 134.925042 25.634958 
" clip-path="url(#p22fc01a995)" style="fill: none; stroke: #b0b0b0; stroke-width: 0.8; stroke-linecap: square"/>
     </g>
    </g>
    <g id="xtick_3">
     <g id="line2d_3">
      <path d="M 80.28 80.28 
L 80.28 3.00024 
" clip-path="url(#p22fc01a995)" style="fill: none; stroke: #b0b0b0; stroke-width: 0.8; stroke-linecap: square"/>
     </g>
    </g>
    <g id="xtick_4">
     <g id="line2d_4">
      <path d="M 80.28 80.28 
L 25.634958 25.634958 
" clip-path="url(#p22fc01a995)" style="fill: none; stroke: #b0b0b0; stroke-width: 0.8; stroke-linecap: square"/>
     </g>
    </g>
    <g id="xtick_5">
     <g id="line2d_5">
      <path d="M 80.28 80.28 
L 3.00024 80.28 
" clip-path="url(#p22fc01a995)" style="fill: none; stroke: #b0b0b0; stroke-width: 0.8; stroke-linecap: square"/>
     </g>
    </g>
    <g id="xtick_6">
     <g id="line2d_6">
      <path d="M 80.28 80.28 
L 25.634958 134.925042 
" clip-path="url(#p22fc01a995)" style="fill: none; stroke: #b0b0b0; stroke-width: 0.8; stroke-linecap: square"/>
     </g>
    </g>
    <g id="xtick_7">
     <g id="line2d_7">
      <path d="M 80.28 80.28 
L 80.28 157.55976 
" clip-path="url(#p22fc01a995)" style="fill: none; stroke: #b0b0b0; stroke-width: 0.8; stroke-linecap: square"/>
     </g>
    </g>
    <g id="xtick_8">
     <g id="line2d_8">
      <path d="M 80.28 80.28 
L 134.925042 134.925042 
" clip-path="url(#p22fc01a995)" style="fill: none; stroke: #b0b0b0; stroke-width: 0.8; stroke-linecap: square"/>
     </g>
    </g>
   </g>
   <g id="matplotlib.axis_2">
    <g id="ytick_1">
     <g id="line2d_9">
      <path d="M 98.05984 80.28 
C 98.05984 77.945173 97.59993 75.633049 96.70643 73.47595 
C 95.81293 71.318851 94.503217 69.358727 92.852245 67.707755 
C 91.201273 66.056783 89.241149 64.74707 87.08405 63.85357 
C 84.926951 62.96007 82.614827 62.50016 80.28 62.50016 
C 77.945173 62.50016 75.633049 62.96007 73.47595 63.85357 
C 71.318851 64.74707 69.358727 66.056783 67.707755 67.707755 
C 66.056783 69.358727 64.74707 71.318851 63.85357 73.47595 
C 62.96007 75.633049 62.50016 77.945173 62.50016 80.28 
C 62.50016 82.614827 62.96007 84.926951 63.85357 87.08405 
C 64.74707 89.241149 66.056783 91.201273 67.707755 92.852245 
C 69.358727 94.503217 71.318851 95.81293 73.47595 96.70643 
C 75.633049 97.59993 77.945173 98.05984 80.28 98.05984 
C 82.614827 98.05984 84.926951 97.59993 87.08405 96.70643 
C 89.241149 95.81293 91.201273 94.503217 92.852245 92.852245 
C 94.503217 91.201273 95.81293 89.241149 96.70643 87.08405 
C 97.59993 84.926951 98.05984 82.614827 98.05984 80.28 
" clip-path="url(#p22fc01a995)" style="fill: none; stroke: #b0b0b0; stroke-width: 0.8; stroke-linecap: square"/>
     </g>
     <g id="text_1">
      <!-- $\mathdefault{10^{0}}$ -->
      <g transform="translate(70.081903 92.907214) scale(0.1 -0.1)">
       <defs>
        <path id="CMR17-31" d="M 1702 4083 
C 1702 4217 1696 4224 1606 4224 
C 1357 3927 979 3833 621 3820 
C 602 3820 570 3820 563 3808 
C 557 3795 557 3782 557 3648 
C 755 3648 1088 3686 1344 3839 
L 1344 467 
C 1344 243 1331 166 781 166 
L 589 166 
L 589 0 
C 896 6 1216 12 1523 12 
C 1830 12 2150 6 2458 0 
L 2458 166 
L 2266 166 
C 1715 166 1702 236 1702 467 
L 1702 4083 
z
" transform="scale(0.015625)"/>
        <path id="CMR17-30" d="M 2688 2038 
C 2688 2430 2682 3099 2413 3613 
C 2176 4063 1798 4224 1466 4224 
C 1158 4224 768 4082 525 3620 
C 269 3137 243 2539 243 2038 
C 243 1671 250 1112 448 623 
C 723 -39 1216 -128 1466 -128 
C 1760 -128 2208 -7 2470 604 
C 2662 1048 2688 1568 2688 2038 
z
M 1466 -26 
C 1056 -26 813 328 723 816 
C 653 1196 653 1749 653 2109 
C 653 2604 653 3015 736 3407 
C 858 3954 1216 4121 1466 4121 
C 1728 4121 2067 3947 2189 3420 
C 2272 3054 2278 2623 2278 2109 
C 2278 1691 2278 1176 2202 797 
C 2067 96 1690 -26 1466 -26 
z
" transform="scale(0.015625)"/>
       </defs>
       <use xlink:href="#CMR17-31" transform="scale(0.996264)"/>
       <use xlink:href="#CMR17-30" transform="translate(45.690477 0) scale(0.996264)"/>
       <use xlink:href="#CMR17-30" transform="translate(91.380954 36.153639) scale(0.697382)"/>
      </g>
     </g>
    </g>
    <g id="ytick_2">
     <g id="line2d_10">
      <path d="M 138.209314 80.28 
C 138.209314 72.672792 136.71086 65.139555 133.799708 58.111411 
C 130.888555 51.083268 126.621319 44.696897 121.242211 39.317789 
C 115.863103 33.938681 109.476732 29.671445 102.448589 26.760292 
C 95.420445 23.84914 87.887208 22.350686 80.28 22.350686 
C 72.672792 22.350686 65.139555 23.84914 58.111411 26.760292 
C 51.083268 29.671445 44.696897 33.938681 39.317789 39.317789 
C 33.938681 44.696897 29.671445 51.083268 26.760292 58.111411 
C 23.84914 65.139555 22.350686 72.672792 22.350686 80.28 
C 22.350686 87.887208 23.84914 95.420445 26.760292 102.448589 
C 29.671445 109.476732 33.938681 115.863103 39.317789 121.242211 
C 44.696897 126.621319 51.083268 130.888555 58.111411 133.799708 
C 65.139555 136.71086 72.672792 138.209314 80.28 138.209314 
C 87.887208 138.209314 95.420445 136.71086 102.448589 133.799708 
C 109.476732 130.888555 115.863103 126.621319 121.242211 121.242211 
C 126.621319 115.863103 130.888555 109.476732 133.799708 102.448589 
C 136.71086 95.420445 138.209314 87.887208 138.209314 80.28 
" clip-path="url(#p22fc01a995)" style="fill: none; stroke: #b0b0b0; stroke-width: 0.8; stroke-linecap: square"/>
     </g>
     <g id="text_2">
      <!-- $\mathdefault{10^{1}}$ -->
      <g transform="translate(47.05311 125.795738) scale(0.1 -0.1)">
       <use xlink:href="#CMR17-31" transform="scale(0.996264)"/>
       <use xlink:href="#CMR17-30" transform="translate(45.690477 0) scale(0.996264)"/>
       <use xlink:href="#CMR17-31" transform="translate(91.380954 36.153639) scale(0.697382)"/>
      </g>
     </g>
    </g>
    <g id="ytick_3"/>
   </g>
   <g id="line2d_11">
    <path d="M 155.304814 80.28 
L 155.221807 78.971886 
L 154.972622 77.671676 
L 154.556764 76.38732 
L 153.973402 75.126855 
L 153.221365 73.898457 
L 152.299135 72.710484 
L 151.204846 71.571524 
L 149.936292 70.490447 
L 148.490957 69.476446 
L 146.866089 68.539076 
L 145.058831 67.688271 
L 143.066486 66.93432 
L 140.886968 66.287779 
L 138.519596 65.759238 
L 135.966455 65.358859 
L 133.234658 65.095496 
L 130.34008 64.975098 
L 127.31326 64.997967 
L 121.113671 65.417759 
L 113.441948 66.203588 
L 110.92679 66.63517 
L 109.635951 66.591095 
L 109.832834 65.86612 
L 112.210255 63.302382 
L 113.436575 61.137042 
L 113.893067 60.083232 
L 114.187141 59.092467 
L 114.305173 58.183795 
L 114.246756 57.369134 
L 114.019439 56.65539 
L 113.635612 56.045729 
L 113.110781 55.540232 
L 112.46268 55.136135 
L 111.710864 54.827789 
L 109.982437 54.460065 
L 107.184978 54.298165 
L 105.463499 54.201723 
L 102.595768 53.685104 
L 102.199764 53.211345 
L 101.381905 51.23572 
L 100.316028 49.427222 
L 99.481278 48.323707 
L 98.51418 47.384668 
L 97.423633 46.633726 
L 96.237015 46.060071 
L 94.352819 45.448551 
L 88.681636 43.888518 
L 83.613737 42.175207 
L 81.625906 41.738296 
L 79.602888 41.488297 
L 76.880522 41.423788 
L 74.152481 41.592365 
L 70.74293 42.0289 
L 67.338483 42.695105 
L 64.638169 43.430156 
L 61.986429 44.376845 
L 59.408766 45.544433 
L 56.923765 46.92384 
L 54.543201 48.4977 
L 52.276072 50.249464 
L 50.132651 52.167142 
L 48.126065 54.242257 
L 46.271359 56.466893 
L 44.583429 58.831336 
L 43.075303 61.32326 
L 41.757449 63.928147 
L 40.637979 66.630158 
L 39.723254 69.412853 
L 39.018405 72.259558 
L 38.527569 75.153446 
L 38.253823 78.077501 
L 38.19898 81.014527 
L 38.363414 83.947226 
L 38.746016 86.858337 
L 39.344313 89.730748 
L 40.154678 92.547542 
L 41.172485 95.291969 
L 42.392036 97.947448 
L 43.806175 100.497771 
L 45.405675 102.927651 
L 47.178768 105.223568 
L 49.111335 107.374507 
L 51.188143 109.371857 
L 53.394878 111.207795 
L 55.719857 112.872411 
L 58.153825 114.351321 
L 60.686986 115.626732 
L 63.304513 116.68405 
L 65.98399 117.52238 
L 68.69841 118.161675 
L 72.106752 118.73211 
L 75.516479 119.075763 
L 78.243507 119.138595 
L 80.28 119.009149 
L 82.293314 118.696318 
L 84.265703 118.201433 
L 87.440232 117.116201 
L 90.544336 116.075995 
L 96.840221 114.233485 
L 97.982917 113.574345 
L 99.014297 112.728755 
L 99.914675 111.702049 
L 101.041303 109.930214 
L 101.724072 108.737245 
L 102.199764 107.348655 
L 102.595768 106.874896 
L 103.171121 106.613223 
L 104.70482 106.472413 
L 106.2954 106.2954 
L 109.982437 106.099935 
L 111.710864 105.732211 
L 112.46268 105.423865 
L 113.110781 105.019768 
L 113.635612 104.514271 
L 114.019439 103.90461 
L 114.246756 103.190866 
L 114.305173 102.376205 
L 114.187141 101.467533 
L 113.893067 100.476768 
L 112.852823 98.33541 
L 112.210255 97.257618 
L 111.105817 95.986538 
L 109.832834 94.69388 
L 109.635951 93.968905 
L 110.92679 93.92483 
L 113.441948 94.356412 
L 118.164236 94.822396 
L 124.208177 95.405684 
L 127.31326 95.562033 
L 130.34008 95.584902 
L 133.234658 95.464504 
L 135.966455 95.201141 
L 138.519596 94.800762 
L 140.886968 94.272221 
L 143.066486 93.62568 
L 145.058831 92.871729 
L 146.866089 92.020924 
L 148.490957 91.083554 
L 149.936292 90.069553 
L 151.204846 88.988476 
L 152.299135 87.849516 
L 153.221365 86.661543 
L 153.973402 85.433145 
L 154.556764 84.17268 
L 154.972622 82.888324 
L 155.221807 81.588114 
L 155.304814 80.28 
L 155.304814 80.28 
" clip-path="url(#p22fc01a995)" style="fill: none; stroke: #000000; stroke-width: 0.75; stroke-linecap: square"/>
   </g>
   <g id="line2d_12">
    <path d="M 155.101902 80.28 
L 155.010248 78.975579 
L 154.76882 77.678793 
L 154.376047 76.396791 
L 153.827413 75.137064 
L 153.116786 73.907607 
L 152.237313 72.716982 
L 151.182228 71.574301 
L 149.94544 70.489161 
L 148.521872 69.471549 
L 146.90756 68.531763 
L 145.09961 67.680344 
L 143.096113 66.928023 
L 140.896209 66.285645 
L 138.500473 65.764006 
L 135.91189 65.37348 
L 133.137756 65.123282 
L 130.192989 65.020068 
L 127.105591 65.065443 
L 123.92515 65.25177 
L 117.664549 65.929416 
L 114.897237 66.293729 
L 112.094131 66.775703 
L 108.782856 67.589711 
L 107.402069 67.632771 
L 107.531784 66.988417 
L 108.756922 65.770284 
L 110.686395 64.112633 
L 111.988139 62.703892 
L 113.15603 60.526088 
L 113.525844 59.505691 
L 113.736601 58.553029 
L 113.790169 57.677106 
L 113.68988 56.88615 
L 113.437554 56.189627 
L 113.034146 55.597981 
L 112.482817 55.120402 
L 111.792887 54.761367 
L 110.983027 54.517102 
L 109.127931 54.305206 
L 105.503572 54.160226 
L 102.610467 53.667586 
L 102.146255 53.277424 
L 101.843857 52.679521 
L 101.677267 51.884868 
L 99.589917 48.142902 
L 98.6905 47.066578 
L 97.638121 46.212769 
L 96.427116 45.652398 
L 95.101967 45.361635 
L 92.452324 44.929003 
L 91.220228 44.496125 
L 87.541427 42.923196 
L 86.242672 42.63317 
L 82.947441 42.13381 
L 79.5993 41.282705 
L 78.23628 41.283498 
L 75.524969 41.55338 
L 73.403471 41.281267 
L 71.973525 41.201106 
L 70.60781 41.486964 
L 67.964584 42.377046 
L 65.128218 42.778025 
L 63.821114 43.312738 
L 61.326234 44.633151 
L 59.311907 45.383233 
L 58.108144 46.138336 
L 55.947473 47.989646 
L 52.927919 49.902437 
L 51.959203 50.952957 
L 50.536498 52.543735 
L 47.956821 55.026365 
L 43.659418 60.808491 
L 41.518965 64.619525 
L 40.920157 65.954189 
L 40.493655 67.352633 
L 39.988643 70.234236 
L 39.50772 72.354672 
L 38.540419 75.892993 
L 38.371463 77.34947 
L 38.395819 78.817372 
L 38.742443 83.184589 
L 38.776707 86.112908 
L 39.057455 87.548647 
L 39.824365 89.619919 
L 40.294177 90.994169 
L 40.716142 93.135077 
L 41.054842 94.55679 
L 41.657722 95.884413 
L 43.895898 99.62577 
L 44.866252 101.558727 
L 45.736744 102.712653 
L 48.553733 105.971425 
L 49.973149 107.568411 
L 53.073618 110.495749 
L 57.515142 114.03029 
L 58.718074 114.786295 
L 61.909263 116.334601 
L 63.734511 117.441776 
L 65.090776 117.874648 
L 68.643248 118.342101 
L 71.291961 119.211474 
L 72.694514 119.303942 
L 76.196943 119.127689 
L 78.91516 119.363912 
L 80.28 119.191284 
L 83.613739 118.384808 
L 86.925667 117.969452 
L 88.187878 117.483642 
L 90.606107 116.291413 
L 91.870281 115.951216 
L 94.479551 115.425122 
L 96.362155 114.768292 
L 98.168883 113.924096 
L 99.199275 113.049146 
L 100.002971 111.843351 
L 101.056154 109.951423 
L 101.89105 108.958832 
L 103.687182 107.206883 
L 104.221515 106.869746 
L 104.865977 106.645232 
L 106.524088 106.524088 
L 108.430371 106.530646 
L 110.203223 106.291861 
L 111.721812 105.741078 
L 112.998292 104.935002 
L 113.495959 104.412807 
L 113.842171 103.780485 
L 113.992736 103.019528 
L 113.92003 102.126091 
L 113.623686 101.115447 
L 112.516633 98.891829 
L 111.84976 97.779404 
L 110.544724 96.372039 
L 108.9897 94.908323 
L 108.108552 93.852891 
L 108.143473 93.272951 
L 109.467522 93.275122 
L 112.590715 93.995085 
L 120.919653 95.071624 
L 124.179558 95.39583 
L 127.393249 95.588023 
L 130.458745 95.621182 
L 133.331751 95.492345 
L 136.00464 95.211372 
L 138.488017 94.792889 
L 140.797199 94.251496 
L 142.943801 93.599602 
L 144.932004 92.847077 
L 146.758605 92.001972 
L 148.415522 91.071606 
L 149.893232 90.063502 
L 151.183882 88.985902 
L 152.283347 87.847857 
L 153.192005 86.658974 
L 153.914386 85.429018 
L 154.458007 84.167505 
L 154.831767 82.883405 
L 155.044273 81.585015 
L 155.102877 80.28 
L 155.102877 80.28 
" clip-path="url(#p22fc01a995)" style="fill: none; stroke-dasharray: 2.775,1.2; stroke-dashoffset: 0; stroke: #000000; stroke-width: 0.75"/>
   </g>
   <g id="patch_3">
    <path d="M 157.55976 80.28 
C 157.55976 70.131715 155.560769 60.082109 151.677189 50.706316 
C 147.793608 41.330523 142.100964 32.810879 134.925042 25.634958 
C 127.749121 18.459036 119.229477 12.766392 109.853684 8.882811 
C 100.477891 4.999231 90.428285 3.00024 80.28 3.00024 
C 70.131715 3.00024 60.082109 4.999231 50.706316 8.882811 
C 41.330523 12.766392 32.810879 18.459036 25.634958 25.634958 
C 18.459036 32.810879 12.766392 41.330523 8.882811 50.706316 
C 4.999231 60.082109 3.00024 70.131715 3.00024 80.28 
C 3.00024 90.428285 4.999231 100.477891 8.882811 109.853684 
C 12.766392 119.229477 18.459036 127.749121 25.634958 134.925042 
C 32.810879 142.100964 41.330523 147.793608 50.706316 151.677189 
C 60.082109 155.560769 70.131715 157.55976 80.28 157.55976 
C 90.428285 157.55976 100.477891 155.560769 109.853684 151.677189 
C 119.229477 147.793608 127.749121 142.100964 134.925042 134.925042 
C 142.100964 127.749121 147.793608 119.229477 151.677189 109.853684 
C 155.560769 100.477891 157.55976 90.428285 157.55976 80.28 
" style="fill: none; stroke: #000000; stroke-width: 0.8; stroke-linejoin: miter; stroke-linecap: square"/>
   </g>
   <g id="legend_1">
    <g id="patch_4">
     <path d="M 84.235975 25.96288 
L 150.55976 25.96288 
Q 152.55976 25.96288 152.55976 23.96288 
L 152.55976 10.00024 
Q 152.55976 8.00024 150.55976 8.00024 
L 84.235975 8.00024 
Q 82.235975 8.00024 82.235975 10.00024 
L 82.235975 23.96288 
Q 82.235975 25.96288 84.235975 25.96288 
z
" style="fill: #ffffff; opacity: 0.8; stroke: #cccccc; stroke-linejoin: miter"/>
    </g>
    <g id="line2d_13">
     <defs>
      <path id="mcc3890c529" d="M 0 2.5 
C 0.663008 2.5 1.29895 2.236584 1.767767 1.767767 
C 2.236584 1.29895 2.5 0.663008 2.5 0 
C 2.5 -0.663008 2.236584 -1.29895 1.767767 -1.767767 
C 1.29895 -2.236584 0.663008 -2.5 0 -2.5 
C -0.663008 -2.5 -1.29895 -2.236584 -1.767767 -1.767767 
C -2.236584 -1.29895 -2.5 -0.663008 -2.5 0 
C -2.5 0.663008 -2.236584 1.29895 -1.767767 1.767767 
C -1.29895 2.236584 -0.663008 2.5 0 2.5 
z
" style="stroke: #000000"/>
     </defs>
     <g>
      <use xlink:href="#mcc3890c529" x="96.235975" y="15.97222" style="stroke: #000000"/>
     </g>
    </g>
    <g id="text_3">
     <!-- $a / \lambda = 1$ -->
     <g transform="translate(114.235975 19.47222) scale(0.1 -0.1)">
      <defs>
       <path id="CMMI12-61" d="M 1926 759 
C 1894 651 1894 638 1805 517 
C 1664 338 1382 64 1082 64 
C 819 64 672 300 672 676 
C 672 1028 870 1743 992 2011 
C 1210 2458 1510 2687 1760 2687 
C 2182 2687 2266 2164 2266 2113 
C 2266 2107 2246 2024 2240 2011 
L 1926 759 
z
M 2336 2394 
C 2266 2560 2093 2816 1760 2816 
C 1037 2816 256 1883 256 938 
C 256 306 627 -64 1062 -64 
C 1414 -64 1715 210 1894 421 
C 1958 44 2259 -64 2451 -64 
C 2643 -64 2797 51 2912 280 
C 3014 496 3104 885 3104 910 
C 3104 942 3078 968 3040 968 
C 2982 968 2976 936 2950 840 
C 2854 465 2733 64 2470 64 
C 2285 64 2272 229 2272 356 
C 2272 503 2291 573 2349 821 
C 2394 980 2426 1120 2477 1305 
C 2714 2260 2771 2489 2771 2528 
C 2771 2617 2701 2688 2605 2688 
C 2400 2688 2349 2464 2336 2388 
L 2336 2394 
z
" transform="scale(0.015625)"/>
       <path id="CMMI12-3d" d="M 2746 4563 
C 2746 4569 2784 4665 2784 4678 
C 2784 4755 2720 4800 2669 4800 
C 2637 4800 2579 4800 2528 4659 
L 384 -1364 
C 384 -1370 346 -1466 346 -1479 
C 346 -1556 410 -1600 461 -1600 
C 499 -1600 557 -1594 602 -1460 
L 2746 4563 
z
" transform="scale(0.015625)"/>
       <path id="CMMI12-15" d="M 1978 3963 
C 1818 4416 1312 4416 1229 4416 
C 1190 4416 1120 4416 1120 4351 
C 1120 4300 1158 4294 1190 4287 
C 1286 4275 1363 4262 1466 4078 
C 1530 3957 2189 2055 2189 2042 
C 2189 2036 2182 2029 2131 1978 
L 467 305 
C 390 229 339 178 339 95 
C 339 6 416 -71 518 -71 
C 544 -71 614 -58 653 -20 
C 755 76 1670 1190 2253 1877 
C 2419 1380 2624 795 2822 261 
C 2854 165 2886 76 2976 -7 
C 3040 -64 3053 -64 3232 -64 
L 3354 -64 
C 3379 -64 3424 -64 3424 -13 
C 3424 12 3418 19 3392 44 
C 3334 114 3290 229 3264 305 
L 1978 3963 
z
" transform="scale(0.015625)"/>
       <path id="CMR17-3d" d="M 4115 2048 
C 4211 2048 4307 2048 4307 2156 
C 4307 2272 4198 2272 4090 2272 
L 512 2272 
C 403 2272 294 2272 294 2156 
C 294 2048 390 2048 486 2048 
L 4115 2048 
z
M 4090 927 
C 4198 927 4307 927 4307 1043 
C 4307 1152 4211 1152 4115 1152 
L 486 1152 
C 390 1152 294 1152 294 1043 
C 294 927 403 927 512 927 
L 4090 927 
z
" transform="scale(0.015625)"/>
      </defs>
      <use xlink:href="#CMMI12-61" transform="scale(0.996264)"/>
      <use xlink:href="#CMMI12-3d" transform="translate(51.207858 0) scale(0.996264)"/>
      <use xlink:href="#CMMI12-15" transform="translate(99.982776 0) scale(0.996264)"/>
      <use xlink:href="#CMR17-3d" transform="translate(184.560857 0) scale(0.996264)"/>
      <use xlink:href="#CMR17-31" transform="translate(283.949654 0) scale(0.996264)"/>
     </g>
    </g>
   </g>
  </g>
 </g>
 <defs>
  <clipPath id="p22fc01a995">
   <path d="M 157.55976 80.28 
C 157.55976 70.131715 155.560769 60.082109 151.677189 50.706316 
C 147.793608 41.330523 142.100964 32.810879 134.925042 25.634958 
C 127.749121 18.459036 119.229477 12.766392 109.853684 8.882811 
C 100.477891 4.999231 90.428285 3.00024 80.28 3.00024 
C 70.131715 3.00024 60.082109 4.999231 50.706316 8.882811 
C 41.330523 12.766392 32.810879 18.459036 25.634958 25.634958 
C 18.459036 32.810879 12.766392 41.330523 8.882811 50.706316 
C 4.999231 60.082109 3.00024 70.131715 3.00024 80.28 
C 3.00024 90.428285 4.999231 100.477891 8.882811 109.853684 
C 12.766392 119.229477 18.459036 127.749121 25.634958 134.925042 
C 32.810879 142.100964 41.330523 147.793608 50.706316 151.677189 
C 60.082109 155.560769 70.131715 157.55976 80.28 157.55976 
C 90.428285 157.55976 100.477891 155.560769 109.853684 151.677189 
C 119.229477 147.793608 127.749121 142.100964 134.925042 134.925042 
C 142.100964 127.749121 147.793608 119.229477 151.677189 109.853684 
C 155.560769 100.477891 157.55976 90.428285 157.55976 80.28 
M 80.28 80.28 
C 80.28 80.28 80.28 80.28 80.28 80.28 
C 80.28 80.28 80.28 80.28 80.28 80.28 
C 80.28 80.28 80.28 80.28 80.28 80.28 
C 80.28 80.28 80.28 80.28 80.28 80.28 
C 80.28 80.28 80.28 80.28 80.28 80.28 
C 80.28 80.28 80.28 80.28 80.28 80.28 
C 80.28 80.28 80.28 80.28 80.28 80.28 
C 80.28 80.28 80.28 80.28 80.28 80.28 
C 80.28 80.28 80.28 80.28 80.28 80.28 
C 80.28 80.28 80.28 80.28 80.28 80.28 
C 80.28 80.28 80.28 80.28 80.28 80.28 
C 80.28 80.28 80.28 80.28 80.28 80.28 
C 80.28 80.28 80.28 80.28 80.28 80.28 
C 80.28 80.28 80.28 80.28 80.28 80.28 
C 80.28 80.28 80.28 80.28 80.28 80.28 
C 80.28 80.28 80.28 80.28 80.28 80.28 
M 157.55976 80.28 
z
"/>
  </clipPath>
 </defs>
</svg>
