<?xml version="1.0" encoding="utf-8" standalone="no"?>
<!DOCTYPE svg PUBLIC "-//W3C//DTD SVG 1.1//EN"
  "http://www.w3.org/Graphics/SVG/1.1/DTD/svg11.dtd">
<svg xmlns:xlink="http://www.w3.org/1999/xlink" width="160.56pt" height="160.56pt" viewBox="0 0 160.56 160.56" xmlns="http://www.w3.org/2000/svg" version="1.1">
 <metadata>
  <rdf:RDF xmlns:dc="http://purl.org/dc/elements/1.1/" xmlns:cc="http://creativecommons.org/ns#" xmlns:rdf="http://www.w3.org/1999/02/22-rdf-syntax-ns#">
   <cc:Work>
    <dc:type rdf:resource="http://purl.org/dc/dcmitype/StillImage"/>
    <dc:date>2025-01-19T16:02:01.430747</dc:date>
    <dc:format>image/svg+xml</dc:format>
    <dc:creator>
     <cc:Agent>
      <dc:title>Matplotlib v3.6.3, https://matplotlib.org/</dc:title>
     </cc:Agent>
    </dc:creator>
   </cc:Work>
  </rdf:RDF>
 </metadata>
 <defs>
  <style type="text/css">*{stroke-linejoin: round; stroke-linecap: butt}</style>
 </defs>
 <g id="figure_1">
  <g id="patch_1">
   <path d="M 0 160.56 
L 160.56 160.56 
L 160.56 0 
L 0 0 
z
" style="fill: #ffffff"/>
  </g>
  <g id="axes_1">
   <g id="patch_2">
    <path d="M 157.55976 80.28 
C 157.55976 70.131715 155.560769 60.082109 151.677189 50.706316 
C 147.793608 41.330523 142.100964 32.810879 134.925042 25.634958 
C 127.749121 18.459036 119.229477 12.766392 109.853684 8.882811 
C 100.477891 4.999231 90.428285 3.00024 80.28 3.00024 
C 70.131715 3.00024 60.082109 4.999231 50.706316 8.882811 
C 41.330523 12.766392 32.810879 18.459036 25.634958 25.634958 
C 18.459036 32.810879 12.766392 41.330523 8.882811 50.706316 
C 4.999231 60.082109 3.00024 70.131715 3.00024 80.28 
C 3.00024 90.428285 4.999231 100.477891 8.882811 109.853684 
C 12.766392 119.229477 18.459036 127.749121 25.634958 134.925042 
C 32.810879 142.100964 41.330523 147.793608 50.706316 151.677189 
C 60.082109 155.560769 70.131715 157.55976 80.28 157.55976 
C 90.428285 157.55976 100.477891 155.560769 109.853684 151.677189 
C 119.229477 147.793608 127.749121 142.100964 134.925042 134.925042 
C 142.100964 127.749121 147.793608 119.229477 151.677189 109.853684 
C 155.560769 100.477891 157.55976 90.428285 157.55976 80.28 
M 80.28 80.28 
C 80.28 80.28 80.28 80.28 80.28 80.28 
C 80.28 80.28 80.28 80.28 80.28 80.28 
C 80.28 80.28 80.28 80.28 80.28 80.28 
C 80.28 80.28 80.28 80.28 80.28 80.28 
C 80.28 80.28 80.28 80.28 80.28 80.28 
C 80.28 80.28 80.28 80.28 80.28 80.28 
C 80.28 80.28 80.28 80.28 80.28 80.28 
C 80.28 80.28 80.28 80.28 80.28 80.28 
C 80.28 80.28 80.28 80.28 80.28 80.28 
C 80.28 80.28 80.28 80.28 80.28 80.28 
C 80.28 80.28 80.28 80.28 80.28 80.28 
C 80.28 80.28 80.28 80.28 80.28 80.28 
C 80.28 80.28 80.28 80.28 80.28 80.28 
C 80.28 80.28 80.28 80.28 80.28 80.28 
C 80.28 80.28 80.28 80.28 80.28 80.28 
C 80.28 80.28 80.28 80.28 80.28 80.28 
M 157.55976 80.28 
z
" style="fill: #ffffff"/>
   </g>
   <g id="matplotlib.axis_1">
    <g id="xtick_1">
     <g id="line2d_1">
      <path d="M 80.28 80.28 
L 157.55976 80.28 
" clip-path="url(#p502ef27489)" style="fill: none; stroke: #b0b0b0; stroke-width: 0.8; stroke-linecap: square"/>
     </g>
    </g>
    <g id="xtick_2">
     <g id="line2d_2">
      <path d="M 80.28 80.28 
L 134.925042 25.634958 
" clip-path="url(#p502ef27489)" style="fill: none; stroke: #b0b0b0; stroke-width: 0.8; stroke-linecap: square"/>
     </g>
    </g>
    <g id="xtick_3">
     <g id="line2d_3">
      <path d="M 80.28 80.28 
L 80.28 3.00024 
" clip-path="url(#p502ef27489)" style="fill: none; stroke: #b0b0b0; stroke-width: 0.8; stroke-linecap: square"/>
     </g>
    </g>
    <g id="xtick_4">
     <g id="line2d_4">
      <path d="M 80.28 80.28 
L 25.634958 25.634958 
" clip-path="url(#p502ef27489)" style="fill: none; stroke: #b0b0b0; stroke-width: 0.8; stroke-linecap: square"/>
     </g>
    </g>
    <g id="xtick_5">
     <g id="line2d_5">
      <path d="M 80.28 80.28 
L 3.00024 80.28 
" clip-path="url(#p502ef27489)" style="fill: none; stroke: #b0b0b0; stroke-width: 0.8; stroke-linecap: square"/>
     </g>
    </g>
    <g id="xtick_6">
     <g id="line2d_6">
      <path d="M 80.28 80.28 
L 25.634958 134.925042 
" clip-path="url(#p502ef27489)" style="fill: none; stroke: #b0b0b0; stroke-width: 0.8; stroke-linecap: square"/>
     </g>
    </g>
    <g id="xtick_7">
     <g id="line2d_7">
      <path d="M 80.28 80.28 
L 80.28 157.55976 
" clip-path="url(#p502ef27489)" style="fill: none; stroke: #b0b0b0; stroke-width: 0.8; stroke-linecap: square"/>
     </g>
    </g>
    <g id="xtick_8">
     <g id="line2d_8">
      <path d="M 80.28 80.28 
L 134.925042 134.925042 
" clip-path="url(#p502ef27489)" style="fill: none; stroke: #b0b0b0; stroke-width: 0.8; stroke-linecap: square"/>
     </g>
    </g>
   </g>
   <g id="matplotlib.axis_2">
    <g id="ytick_1">
     <g id="line2d_9">
      <path d="M 87.825449 80.28 
C 87.825449 79.289141 87.630271 78.307916 87.251086 77.392482 
C 86.8719 76.477047 86.316081 75.645205 85.615438 74.944562 
C 84.914795 74.243919 84.082953 73.6881 83.167518 73.308914 
C 82.252084 72.929729 81.270859 72.734551 80.28 72.734551 
C 79.289141 72.734551 78.307916 72.929729 77.392482 73.308914 
C 76.477047 73.6881 75.645205 74.243919 74.944562 74.944562 
C 74.243919 75.645205 73.6881 76.477047 73.308914 77.392482 
C 72.929729 78.307916 72.734551 79.289141 72.734551 80.28 
C 72.734551 81.270859 72.929729 82.252084 73.308914 83.167518 
C 73.6881 84.082953 74.243919 84.914795 74.944562 85.615438 
C 75.645205 86.316081 76.477047 86.8719 77.392482 87.251086 
C 78.307916 87.630271 79.289141 87.825449 80.28 87.825449 
C 81.270859 87.825449 82.252084 87.630271 83.167518 87.251086 
C 84.082953 86.8719 84.914795 86.316081 85.615438 85.615438 
C 86.316081 84.914795 86.8719 84.082953 87.251086 83.167518 
C 87.630271 82.252084 87.825449 81.270859 87.825449 80.28 
" clip-path="url(#p502ef27489)" style="fill: none; stroke: #b0b0b0; stroke-width: 0.8; stroke-linecap: square"/>
     </g>
     <g id="text_1">
      <!-- $\mathdefault{10^{0}}$ -->
      <g transform="translate(75.952108 84.523691) scale(0.1 -0.1)">
       <defs>
        <path id="CMR17-31" d="M 1702 4083 
C 1702 4217 1696 4224 1606 4224 
C 1357 3927 979 3833 621 3820 
C 602 3820 570 3820 563 3808 
C 557 3795 557 3782 557 3648 
C 755 3648 1088 3686 1344 3839 
L 1344 467 
C 1344 243 1331 166 781 166 
L 589 166 
L 589 0 
C 896 6 1216 12 1523 12 
C 1830 12 2150 6 2458 0 
L 2458 166 
L 2266 166 
C 1715 166 1702 236 1702 467 
L 1702 4083 
z
" transform="scale(0.015625)"/>
        <path id="CMR17-30" d="M 2688 2038 
C 2688 2430 2682 3099 2413 3613 
C 2176 4063 1798 4224 1466 4224 
C 1158 4224 768 4082 525 3620 
C 269 3137 243 2539 243 2038 
C 243 1671 250 1112 448 623 
C 723 -39 1216 -128 1466 -128 
C 1760 -128 2208 -7 2470 604 
C 2662 1048 2688 1568 2688 2038 
z
M 1466 -26 
C 1056 -26 813 328 723 816 
C 653 1196 653 1749 653 2109 
C 653 2604 653 3015 736 3407 
C 858 3954 1216 4121 1466 4121 
C 1728 4121 2067 3947 2189 3420 
C 2272 3054 2278 2623 2278 2109 
C 2278 1691 2278 1176 2202 797 
C 2067 96 1690 -26 1466 -26 
z
" transform="scale(0.015625)"/>
       </defs>
       <use xlink:href="#CMR17-31" transform="scale(0.996264)"/>
       <use xlink:href="#CMR17-30" transform="translate(45.690477 0) scale(0.996264)"/>
       <use xlink:href="#CMR17-30" transform="translate(91.380954 36.153639) scale(0.697382)"/>
      </g>
     </g>
    </g>
    <g id="ytick_2">
     <g id="line2d_10">
      <path d="M 104.864174 80.28 
C 104.864174 77.051636 104.228257 73.854663 102.992815 70.872044 
C 101.757374 67.889424 99.946434 65.179162 97.663636 62.896364 
C 95.380838 60.613566 92.670576 58.802626 89.687956 57.567185 
C 86.705337 56.331743 83.508364 55.695826 80.28 55.695826 
C 77.051636 55.695826 73.854663 56.331743 70.872044 57.567185 
C 67.889424 58.802626 65.179162 60.613566 62.896364 62.896364 
C 60.613566 65.179162 58.802626 67.889424 57.567185 70.872044 
C 56.331743 73.854663 55.695826 77.051636 55.695826 80.28 
C 55.695826 83.508364 56.331743 86.705337 57.567185 89.687956 
C 58.802626 92.670576 60.613566 95.380838 62.896364 97.663636 
C 65.179162 99.946434 67.889424 101.757374 70.872044 102.992815 
C 73.854663 104.228257 77.051636 104.864174 80.28 104.864174 
C 83.508364 104.864174 86.705337 104.228257 89.687956 102.992815 
C 92.670576 101.757374 95.380838 99.946434 97.663636 97.663636 
C 99.946434 95.380838 101.757374 92.670576 102.992815 89.687956 
C 104.228257 86.705337 104.864174 83.508364 104.864174 80.28 
" clip-path="url(#p502ef27489)" style="fill: none; stroke: #b0b0b0; stroke-width: 0.8; stroke-linecap: square"/>
     </g>
     <g id="text_2">
      <!-- $\mathdefault{10^{1}}$ -->
      <g transform="translate(66.179097 98.480998) scale(0.1 -0.1)">
       <use xlink:href="#CMR17-31" transform="scale(0.996264)"/>
       <use xlink:href="#CMR17-30" transform="translate(45.690477 0) scale(0.996264)"/>
       <use xlink:href="#CMR17-31" transform="translate(91.380954 36.153639) scale(0.697382)"/>
      </g>
     </g>
    </g>
    <g id="ytick_3">
     <g id="line2d_11">
      <path d="M 118.445982 80.28 
C 118.445982 75.268089 117.458745 70.304913 115.540769 65.674511 
C 113.622794 61.044109 110.811381 56.836532 107.267425 53.292575 
C 103.723468 49.748619 99.515891 46.937206 94.885489 45.019231 
C 90.255087 43.101255 85.291911 42.114018 80.28 42.114018 
C 75.268089 42.114018 70.304913 43.101255 65.674511 45.019231 
C 61.044109 46.937206 56.836532 49.748619 53.292575 53.292575 
C 49.748619 56.836532 46.937206 61.044109 45.019231 65.674511 
C 43.101255 70.304913 42.114018 75.268089 42.114018 80.28 
C 42.114018 85.291911 43.101255 90.255087 45.019231 94.885489 
C 46.937206 99.515891 49.748619 103.723468 53.292575 107.267425 
C 56.836532 110.811381 61.044109 113.622794 65.674511 115.540769 
C 70.304913 117.458745 75.268089 118.445982 80.28 118.445982 
C 85.291911 118.445982 90.255087 117.458745 94.885489 115.540769 
C 99.515891 113.622794 103.723468 110.811381 107.267425 107.267425 
C 110.811381 103.723468 113.622794 99.515891 115.540769 94.885489 
C 117.458745 90.255087 118.445982 85.291911 118.445982 80.28 
" clip-path="url(#p502ef27489)" style="fill: none; stroke: #b0b0b0; stroke-width: 0.8; stroke-linecap: square"/>
     </g>
     <g id="text_3">
      <!-- $\mathdefault{10^{2}}$ -->
      <g transform="translate(58.388892 109.606564) scale(0.1 -0.1)">
       <defs>
        <path id="CMR17-32" d="M 2669 990 
L 2554 990 
C 2490 537 2438 460 2413 422 
C 2381 371 1920 371 1830 371 
L 602 371 
C 832 620 1280 1073 1824 1596 
C 2214 1966 2669 2400 2669 3033 
C 2669 3788 2067 4224 1395 4224 
C 691 4224 262 3603 262 3027 
C 262 2777 448 2745 525 2745 
C 589 2745 781 2783 781 3007 
C 781 3206 614 3264 525 3264 
C 486 3264 448 3257 422 3244 
C 544 3788 915 4057 1306 4057 
C 1862 4057 2227 3616 2227 3033 
C 2227 2477 1901 1998 1536 1583 
L 262 147 
L 262 0 
L 2515 0 
L 2669 990 
z
" transform="scale(0.015625)"/>
       </defs>
       <use xlink:href="#CMR17-31" transform="scale(0.996264)"/>
       <use xlink:href="#CMR17-30" transform="translate(45.690477 0) scale(0.996264)"/>
       <use xlink:href="#CMR17-32" transform="translate(91.380954 36.153639) scale(0.697382)"/>
      </g>
     </g>
    </g>
    <g id="ytick_4">
     <g id="line2d_12">
      <path d="M 132.02779 80.28 
C 132.02779 73.484543 130.689233 66.755162 128.088724 60.476978 
C 125.488215 54.198794 121.676327 48.493901 116.871213 43.688787 
C 112.066099 38.883673 106.361206 35.071785 100.083022 32.471276 
C 93.804838 29.870767 87.075457 28.53221 80.28 28.53221 
C 73.484543 28.53221 66.755162 29.870767 60.476978 32.471276 
C 54.198794 35.071785 48.493901 38.883673 43.688787 43.688787 
C 38.883673 48.493901 35.071785 54.198794 32.471276 60.476978 
C 29.870767 66.755162 28.53221 73.484543 28.53221 80.28 
C 28.53221 87.075457 29.870767 93.804838 32.471276 100.083022 
C 35.071785 106.361206 38.883673 112.066099 43.688787 116.871213 
C 48.493901 121.676327 54.198794 125.488215 60.476978 128.088724 
C 66.755162 130.689233 73.484543 132.02779 80.28 132.02779 
C 87.075457 132.02779 93.804838 130.689233 100.083022 128.088724 
C 106.361206 125.488215 112.066099 121.676327 116.871213 116.871213 
C 121.676327 112.066099 125.488215 106.361206 128.088724 100.083022 
C 130.689233 93.804838 132.02779 87.075457 132.02779 80.28 
" clip-path="url(#p502ef27489)" style="fill: none; stroke: #b0b0b0; stroke-width: 0.8; stroke-linecap: square"/>
     </g>
     <g id="text_4">
      <!-- $\mathdefault{10^{3}}$ -->
      <g transform="translate(50.598687 120.732129) scale(0.1 -0.1)">
       <defs>
        <path id="CMR17-33" d="M 1414 2176 
C 1984 2176 2234 1673 2234 1094 
C 2234 322 1824 25 1453 25 
C 1114 25 563 193 390 691 
C 422 678 454 678 486 678 
C 640 678 755 780 755 947 
C 755 1132 614 1216 486 1216 
C 378 1216 211 1164 211 927 
C 211 335 787 -128 1466 -128 
C 2176 -128 2720 432 2720 1087 
C 2720 1718 2208 2176 1600 2246 
C 2086 2347 2554 2776 2554 3353 
C 2554 3856 2048 4224 1472 4224 
C 890 4224 378 3862 378 3347 
C 378 3123 544 3084 627 3084 
C 762 3084 877 3167 877 3334 
C 877 3500 762 3584 627 3584 
C 602 3584 570 3584 544 3571 
C 730 3999 1235 4076 1459 4076 
C 1683 4076 2106 3966 2106 3347 
C 2106 3167 2080 2851 1862 2574 
C 1670 2329 1453 2316 1242 2297 
C 1210 2297 1062 2284 1037 2284 
C 992 2278 966 2272 966 2227 
C 966 2182 973 2176 1101 2176 
L 1414 2176 
z
" transform="scale(0.015625)"/>
       </defs>
       <use xlink:href="#CMR17-31" transform="scale(0.996264)"/>
       <use xlink:href="#CMR17-30" transform="translate(45.690477 0) scale(0.996264)"/>
       <use xlink:href="#CMR17-33" transform="translate(91.380954 36.153639) scale(0.697382)"/>
      </g>
     </g>
    </g>
    <g id="ytick_5">
     <g id="line2d_13">
      <path d="M 145.609597 80.28 
C 145.609597 71.700996 143.919721 63.205412 140.636678 55.279445 
C 137.353635 47.353479 132.541273 40.151271 126.475001 34.084999 
C 120.408729 28.018727 113.206521 23.206365 105.280555 19.923322 
C 97.354588 16.640279 88.859004 14.950403 80.28 14.950403 
C 71.700996 14.950403 63.205412 16.640279 55.279445 19.923322 
C 47.353479 23.206365 40.151271 28.018727 34.084999 34.084999 
C 28.018727 40.151271 23.206365 47.353479 19.923322 55.279445 
C 16.640279 63.205412 14.950403 71.700996 14.950403 80.28 
C 14.950403 88.859004 16.640279 97.354588 19.923322 105.280555 
C 23.206365 113.206521 28.018727 120.408729 34.084999 126.475001 
C 40.151271 132.541273 47.353479 137.353635 55.279445 140.636678 
C 63.205412 143.919721 71.700996 145.609597 80.28 145.609597 
C 88.859004 145.609597 97.354588 143.919721 105.280555 140.636678 
C 113.206521 137.353635 120.408729 132.541273 126.475001 126.475001 
C 132.541273 120.408729 137.353635 113.206521 140.636678 105.280555 
C 143.919721 97.354588 145.609597 88.859004 145.609597 80.28 
" clip-path="url(#p502ef27489)" style="fill: none; stroke: #b0b0b0; stroke-width: 0.8; stroke-linecap: square"/>
     </g>
     <g id="text_5">
      <!-- $\mathdefault{10^{4}}$ -->
      <g transform="translate(42.808482 131.857695) scale(0.1 -0.1)">
       <defs>
        <path id="CMR17-34" d="M 2150 4147 
C 2150 4281 2144 4288 2029 4288 
L 128 1254 
L 128 1088 
L 1779 1088 
L 1779 460 
C 1779 230 1766 166 1318 166 
L 1197 166 
L 1197 0 
C 1402 12 1747 12 1965 12 
C 2182 12 2528 12 2733 0 
L 2733 166 
L 2611 166 
C 2163 166 2150 230 2150 460 
L 2150 1088 
L 2803 1088 
L 2803 1254 
L 2150 1254 
L 2150 4147 
z
M 1798 3723 
L 1798 1254 
L 256 1254 
L 1798 3723 
z
" transform="scale(0.015625)"/>
       </defs>
       <use xlink:href="#CMR17-31" transform="scale(0.996264)"/>
       <use xlink:href="#CMR17-30" transform="translate(45.690477 0) scale(0.996264)"/>
       <use xlink:href="#CMR17-34" transform="translate(91.380954 36.153639) scale(0.697382)"/>
      </g>
     </g>
    </g>
    <g id="ytick_6"/>
   </g>
   <g id="line2d_14">
    <path d="M 137.652764 80.28 
L 135.081199 79.323442 
L 125.711516 78.693497 
L 114.005093 78.512543 
L 120.222838 77.486925 
L 113.059076 77.412202 
L 109.979322 77.158475 
L 113.994671 76.140359 
L 106.558632 76.586779 
L 108.634648 75.789065 
L 109.929692 75.051959 
L 103.93288 75.682346 
L 107.526471 74.488584 
L 106.934824 74.126249 
L 103.411781 74.512599 
L 106.411971 73.277959 
L 103.427036 73.203241 
L 105.304213 72.14914 
L 103.463964 72.297121 
L 103.383262 71.8711 
L 104.264507 71.07321 
L 102.698167 71.222473 
L 103.161971 70.56718 
L 103.345286 70.010673 
L 102.246003 70.037084 
L 102.782813 69.304645 
L 102.562994 68.926247 
L 101.89563 68.786765 
L 102.291773 68.078675 
L 101.526563 67.513777 
L 101.727784 66.877937 
L 101.291532 66.634952 
L 101.086746 66.245672 
L 101.114007 65.691871 
L 100.704068 65.441046 
L 100.458666 64.514698 
L 100.091412 64.237035 
L 99.759866 63.346411 
L 99.427177 63.039804 
L 99.011014 62.19167 
L 98.6969 61.8631 
L 98.204924 61.057872 
L 97.017541 59.610858 
L 96.401177 58.886475 
L 94.331476 56.894416 
L 92.414179 55.401245 
L 89.895126 53.862659 
L 87.641971 52.804749 
L 85.273634 51.959694 
L 82.811442 51.345484 
L 80.28 50.969223 
L 77.704011 50.836311 
L 75.108486 50.950889 
L 72.518348 51.313122 
L 69.958403 51.921644 
L 67.452915 52.772227 
L 65.02553 53.858482 
L 62.699052 55.171805 
L 60.49521 56.701406 
L 58.434534 58.434534 
L 56.536155 60.356548 
L 54.817644 62.451067 
L 53.294876 64.700132 
L 51.981891 67.084375 
L 50.890776 69.583197 
L 50.031563 72.174956 
L 49.412143 74.837164 
L 49.038204 77.546697 
L 48.913175 80.28 
L 49.038204 83.013303 
L 49.412143 85.722836 
L 50.031563 88.385044 
L 50.890776 90.976803 
L 51.981891 93.475625 
L 53.294876 95.859868 
L 54.817644 98.108933 
L 56.536155 100.203452 
L 58.434534 102.125466 
L 60.49521 103.858594 
L 62.699052 105.388195 
L 65.02553 106.701518 
L 67.452915 107.787773 
L 69.958403 108.638356 
L 72.518348 109.246878 
L 75.108486 109.609111 
L 77.704011 109.723689 
L 80.28 109.590777 
L 82.811442 109.214516 
L 85.273634 108.600306 
L 87.641971 107.755251 
L 89.895126 106.697341 
L 92.00689 105.428397 
L 93.588733 104.289591 
L 95.750588 102.374289 
L 98.48771 99.134636 
L 98.6969 98.6969 
L 99.25679 97.976143 
L 99.427177 97.520196 
L 99.759866 97.213589 
L 100.091412 96.322965 
L 100.458666 96.045302 
L 100.704068 95.118954 
L 101.114007 94.868129 
L 101.086746 94.314328 
L 101.291532 93.925048 
L 101.727784 93.682063 
L 101.526563 93.046223 
L 102.291773 92.481325 
L 101.89563 91.773235 
L 102.562994 91.633753 
L 102.782813 91.255355 
L 102.246003 90.522916 
L 103.345286 90.549327 
L 103.161971 89.99282 
L 102.698167 89.337527 
L 104.264507 89.48679 
L 103.383262 88.6889 
L 103.463964 88.262879 
L 105.304213 88.41086 
L 103.427036 87.356759 
L 106.411971 87.282041 
L 103.411781 86.047401 
L 106.934824 86.433751 
L 107.526471 86.071416 
L 103.93288 84.877654 
L 109.929692 85.508041 
L 108.634648 84.770935 
L 106.558632 83.973221 
L 113.994671 84.419641 
L 109.979322 83.401525 
L 113.059076 83.147798 
L 120.222838 83.073075 
L 114.005093 82.047457 
L 125.711516 81.866503 
L 135.081199 81.236558 
L 137.652764 80.28 
L 137.652764 80.28 
" clip-path="url(#p502ef27489)" style="fill: none; stroke: #000000; stroke-width: 0.75; stroke-linecap: square"/>
   </g>
   <g id="line2d_15">
    <path d="M 137.60449 80.28 
L 135.044922 79.324075 
L 125.70483 78.69373 
L 113.985005 78.513596 
L 120.141632 77.492603 
L 112.942968 77.422361 
L 109.856183 77.171418 
L 113.921659 76.149324 
L 106.562623 76.586218 
L 108.624519 75.790669 
L 109.682165 75.095605 
L 103.702002 75.727224 
L 107.422687 74.510644 
L 106.651329 74.191699 
L 102.961856 74.624778 
L 106.557791 73.238887 
L 103.334858 73.231423 
L 105.255284 72.165038 
L 103.28551 72.358568 
L 103.502322 71.827766 
L 104.624739 70.93493 
L 102.625576 71.251801 
L 103.50281 70.422502 
L 103.744561 69.832904 
L 101.941155 70.179237 
L 102.786312 69.302938 
L 102.854611 68.777661 
L 101.709937 68.8855 
L 102.266501 68.092684 
L 102.035184 67.719639 
L 101.050517 67.799814 
L 101.635234 66.935769 
L 100.68585 66.516081 
L 101.144857 65.67027 
L 99.924152 65.477069 
L 100.389639 64.568628 
L 100.344189 64.03234 
L 99.625136 64.047503 
L 99.855282 63.263467 
L 99.912029 62.603242 
L 99.040691 62.785373 
L 98.493129 62.691786 
L 98.366793 62.193207 
L 98.602492 61.306504 
L 98.419673 60.827582 
L 97.170964 60.849169 
L 97.192545 60.124414 
L 96.956183 59.68663 
L 97.0325 58.837777 
L 96.982029 58.115659 
L 96.376178 58.125511 
L 95.892569 57.982941 
L 95.716636 57.394246 
L 94.563453 57.421697 
L 94.400325 56.779833 
L 93.941369 56.617815 
L 93.308773 56.775471 
L 93.198903 55.983077 
L 92.888051 55.535306 
L 92.17511 55.891411 
L 91.950894 55.251686 
L 91.79871 54.408553 
L 91.144402 54.685072 
L 90.595063 54.749322 
L 90.429605 53.839376 
L 90.021116 53.516505 
L 89.393048 53.813787 
L 88.954549 53.582485 
L 88.173271 52.752894 
L 87.256057 52.300563 
L 86.745418 52.275199 
L 84.819115 51.621155 
L 84.297494 51.694046 
L 83.798332 51.625483 
L 82.787617 51.617806 
L 82.306811 51.295259 
L 81.805368 51.174242 
L 81.296023 51.184904 
L 79.766295 50.849866 
L 78.736033 50.819353 
L 78.211397 50.697597 
L 77.694279 50.725069 
L 77.158996 50.585626 
L 76.638674 50.623781 
L 76.14282 50.842433 
L 74.600994 51.064044 
L 73.625222 51.454988 
L 73.078725 51.397262 
L 72.035984 51.5297 
L 71.544982 51.709045 
L 70.995222 51.704392 
L 69.976302 51.970824 
L 69.435369 52.028769 
L 67.40599 52.671597 
L 66.092766 53.597693 
L 65.096357 53.981159 
L 64.682004 54.320575 
L 63.134003 54.860013 
L 62.741465 55.232376 
L 61.789858 55.742752 
L 60.547163 56.763321 
L 60.039138 56.995552 
L 59.32211 57.805414 
L 58.885811 58.125668 
L 58.326045 58.326045 
L 57.920439 58.687623 
L 57.35528 59.638489 
L 57.016362 60.057228 
L 56.098162 60.697934 
L 55.703803 61.078971 
L 54.607585 62.963738 
L 53.894385 63.792438 
L 53.429989 64.778139 
L 53.106095 65.217259 
L 52.322223 66.034801 
L 51.948129 67.068632 
L 51.823904 67.61053 
L 50.80964 69.553666 
L 50.037886 72.17665 
L 49.363481 74.270437 
L 49.501701 75.954392 
L 48.999083 77.543274 
L 48.899694 81.375824 
L 48.982825 81.920215 
L 48.934236 83.022399 
L 49.442535 84.613923 
L 49.415338 86.279483 
L 49.395102 86.844788 
L 50.410661 89.411973 
L 50.636806 90.48697 
L 51.052436 91.499411 
L 51.237418 92.013965 
L 51.843719 92.940648 
L 52.138816 94.005373 
L 52.591376 95.002302 
L 53.381119 95.810076 
L 53.870919 96.782225 
L 54.575891 97.617641 
L 55.663384 99.512608 
L 57.031536 100.489581 
L 57.613969 101.416416 
L 57.879957 101.91147 
L 58.354749 102.205251 
L 58.935219 102.383168 
L 60.06712 103.532259 
L 60.572087 103.766976 
L 61.777942 104.83306 
L 64.129066 106.126898 
L 64.651707 106.289848 
L 65.568689 106.819908 
L 66.567768 107.191771 
L 67.41218 107.87513 
L 68.43189 108.192399 
L 69.951411 108.657566 
L 73.07987 109.158144 
L 73.63091 109.080372 
L 75.133036 109.469882 
L 76.152998 109.645146 
L 76.64691 109.869147 
L 77.687339 109.914249 
L 78.206597 109.931049 
L 78.73405 109.778482 
L 80.28 109.641803 
L 81.297356 109.413259 
L 81.808196 109.439708 
L 82.309488 109.303037 
L 82.791753 108.989473 
L 84.28545 108.78026 
L 84.798962 108.811604 
L 86.240794 108.323331 
L 87.277832 108.34677 
L 87.749594 108.156905 
L 88.578695 107.423807 
L 88.949767 106.9628 
L 89.470358 106.970737 
L 90.059015 107.147624 
L 90.589692 105.797384 
L 91.267748 106.165512 
L 91.817601 106.193876 
L 91.879345 105.154876 
L 92.296025 104.916503 
L 92.97366 105.19271 
L 93.340338 103.841473 
L 94.057118 104.142669 
L 94.359373 103.712012 
L 94.554081 103.123305 
L 95.235295 103.309135 
L 95.745607 103.208706 
L 95.939682 102.644344 
L 96.965424 102.422305 
L 97.0018 100.929704 
L 97.194328 100.437711 
L 97.281127 99.83756 
L 98.475436 99.792216 
L 98.48916 99.136137 
L 98.366714 98.366714 
L 98.48526 97.860615 
L 99.804654 97.860078 
L 99.646794 97.115297 
L 99.679721 96.558298 
L 100.518301 96.668653 
L 100.343903 95.955639 
L 99.998906 95.139262 
L 100.705977 95.120341 
L 101.063112 94.832492 
L 100.704632 94.056588 
L 101.563898 93.579655 
L 100.915917 92.67931 
L 102.00428 92.822519 
L 101.971511 92.303801 
L 101.769739 91.706297 
L 102.829109 91.769345 
L 102.670086 91.200375 
L 101.915955 90.369012 
L 103.825407 90.763091 
L 102.745851 89.356793 
L 104.78632 89.687095 
L 103.567501 88.755957 
L 103.431989 88.251869 
L 105.398505 88.441497 
L 103.377889 87.341733 
L 106.708918 87.361607 
L 103.064712 85.960867 
L 106.873595 86.419615 
L 107.597673 86.086551 
L 103.626699 84.818139 
L 109.750018 85.476359 
L 108.694975 84.78049 
L 106.506952 83.965958 
L 113.941132 84.413067 
L 109.920561 83.395348 
L 112.914802 83.135175 
L 120.147961 83.067839 
L 113.892761 82.04157 
L 125.679928 81.8654 
L 135.029618 81.235658 
L 137.604239 80.28 
L 137.604239 80.28 
" clip-path="url(#p502ef27489)" style="fill: none; stroke-dasharray: 2.775,1.2; stroke-dashoffset: 0; stroke: #000000; stroke-width: 0.75"/>
   </g>
   <g id="line2d_16">
    <path d="M 154.992925 80.28 
L 135.971614 79.307899 
L 129.272395 78.569148 
L 122.241458 78.080893 
L 113.469662 77.959153 
L 114.527712 77.283713 
L 116.458743 76.477461 
L 114.627253 76.062688 
L 110.995511 75.963216 
L 110.787445 75.448095 
L 112.316438 74.631112 
L 111.961801 74.121682 
L 110.402318 73.877304 
L 110.02545 73.412722 
L 110.755134 72.681696 
L 110.782507 72.106878 
L 110.116277 71.724585 
L 109.860171 71.236434 
L 110.154077 70.573324 
L 110.196647 69.978873 
L 109.886847 69.503989 
L 109.727698 68.976088 
L 109.788904 67.754213 
L 109.470312 66.668334 
L 109.343543 65.471385 
L 108.91549 63.747292 
L 108.195164 61.450984 
L 107.26453 59.197375 
L 106.124124 57.009847 
L 104.78118 54.908285 
L 103.245407 52.910894 
L 101.527836 51.034863 
L 99.641661 49.294866 
L 97.601559 47.702886 
L 95.422096 46.270295 
L 93.118288 45.007093 
L 90.705503 43.92195 
L 88.199354 43.02237 
L 85.615683 42.314646 
L 82.970515 41.80385 
L 80.28 41.49385 
L 77.560358 41.387304 
L 74.827811 41.485659 
L 72.098518 41.789155 
L 69.388503 42.296836 
L 66.713578 43.006562 
L 64.089273 43.915031 
L 61.530756 45.017801 
L 59.052762 46.309318 
L 56.669515 47.782956 
L 54.394661 49.431054 
L 52.241192 51.244964 
L 50.221382 53.215099 
L 48.346727 55.330993 
L 46.627876 57.581356 
L 45.074583 59.954143 
L 43.695653 62.436622 
L 42.498895 65.015443 
L 41.49108 67.676716 
L 40.677908 70.40609 
L 40.063975 73.18883 
L 39.65275 76.009904 
L 39.446555 78.854065 
L 39.446555 81.705935 
L 39.65275 84.550096 
L 40.063975 87.37117 
L 40.677908 90.15391 
L 41.49108 92.883284 
L 42.498895 95.544557 
L 43.695653 98.123378 
L 45.074583 100.605857 
L 46.627876 102.978644 
L 48.346727 105.229007 
L 50.221382 107.344901 
L 52.241192 109.315036 
L 54.394661 111.128946 
L 56.669515 112.777044 
L 59.052762 114.250682 
L 61.530756 115.542199 
L 64.089273 116.644969 
L 66.713578 117.553438 
L 69.388503 118.263164 
L 72.098518 118.770845 
L 74.827811 119.074341 
L 77.560358 119.172696 
L 80.28 119.06615 
L 82.970515 118.75615 
L 85.615683 118.245354 
L 88.199354 117.53763 
L 90.705503 116.63805 
L 93.118288 115.552907 
L 95.422096 114.289705 
L 97.601559 112.857114 
L 99.641661 111.265134 
L 101.527836 109.525137 
L 103.245407 107.649106 
L 104.78118 105.651715 
L 106.124124 103.550153 
L 107.26453 101.362625 
L 108.195164 99.109016 
L 109.029672 96.216203 
L 109.439642 94.502108 
L 109.597394 93.332945 
L 109.788904 92.805787 
L 109.886847 91.056011 
L 110.196647 90.581127 
L 110.154077 89.986676 
L 109.860171 89.323566 
L 110.116277 88.835415 
L 110.782507 88.453122 
L 110.755134 87.878304 
L 110.02545 87.147278 
L 110.402318 86.682696 
L 111.961801 86.438318 
L 112.316438 85.928888 
L 110.787445 85.111905 
L 110.995511 84.596784 
L 114.627253 84.497312 
L 116.458743 84.082539 
L 114.527712 83.276287 
L 113.469662 82.600847 
L 122.241458 82.479107 
L 129.272395 81.990852 
L 135.971614 81.252101 
L 154.992925 80.28 
L 154.992925 80.28 
" clip-path="url(#p502ef27489)" style="fill: none; stroke: #ff0000; stroke-width: 0.75; stroke-linecap: square"/>
   </g>
   <g id="line2d_17">
    <path d="M 154.960271 80.28 
L 135.933061 79.308572 
L 129.195688 78.571827 
L 122.170512 78.084611 
L 113.150554 77.981467 
L 114.617248 77.27588 
L 116.978314 76.422852 
L 114.527413 76.074946 
L 110.723239 76.001482 
L 110.648875 75.470043 
L 112.270572 74.639199 
L 112.220862 74.071325 
L 110.027166 73.957045 
L 109.477315 73.539269 
L 110.840083 72.660516 
L 110.632022 72.1472 
L 110.532064 71.031016 
L 110.552526 70.44386 
L 109.556591 70.199261 
L 110.68612 69.213077 
L 110.349029 68.737581 
L 109.692958 68.396394 
L 109.891663 67.710595 
L 109.909952 67.087896 
L 109.336984 64.173451 
L 109.084395 63.649775 
L 108.492955 63.327946 
L 108.785214 61.768498 
L 108.29993 61.380318 
L 107.967469 60.163876 
L 107.612416 59.683548 
L 106.922127 59.464889 
L 106.870251 58.747639 
L 107.14981 57.733552 
L 105.973894 57.944639 
L 106.438302 56.726959 
L 106.112193 56.19109 
L 104.749572 56.650009 
L 104.58827 55.97173 
L 104.790635 54.898494 
L 103.855711 54.09652 
L 103.250444 53.855526 
L 103.276982 51.881092 
L 102.348717 52.03333 
L 102.233943 51.146133 
L 101.370708 51.251131 
L 101.218732 50.376392 
L 100.366289 50.500851 
L 100.025194 49.875068 
L 99.449097 49.603032 
L 99.034493 49.067283 
L 98.532687 48.665418 
L 97.835998 48.608142 
L 97.66658 47.5806 
L 96.953978 47.555475 
L 96.602785 46.81333 
L 95.86566 46.856445 
L 95.540403 46.004575 
L 94.731401 46.234632 
L 94.438967 45.235328 
L 93.798851 45.062188 
L 92.951276 45.465956 
L 92.470894 44.875074 
L 91.874083 44.597082 
L 91.338722 44.108549 
L 90.617811 44.227768 
L 90.063298 43.768235 
L 89.435623 43.5588 
L 88.868396 43.079568 
L 88.188485 43.073504 
L 86.912196 42.666947 
L 85.57519 42.602763 
L 84.312656 41.911839 
L 83.614597 42.165381 
L 82.30049 41.726746 
L 81.635617 41.460203 
L 80.28 41.470156 
L 79.597184 41.161502 
L 78.922259 41.399375 
L 78.239651 41.347816 
L 76.216181 41.615344 
L 75.512819 41.454427 
L 74.825628 41.470126 
L 74.196897 41.872801 
L 72.7587 41.586266 
L 71.456834 42.062671 
L 70.698794 41.851883 
L 69.441725 42.482444 
L 68.699402 42.401572 
L 67.984043 42.436934 
L 67.442414 42.996943 
L 66.038001 43.178324 
L 65.493471 43.682057 
L 64.755552 43.706693 
L 64.095334 43.928644 
L 63.547379 44.396779 
L 62.214255 44.823978 
L 61.633491 45.211017 
L 60.828585 45.188719 
L 59.702587 46.033433 
L 58.981232 46.194846 
L 58.357453 46.522238 
L 57.920569 47.13078 
L 57.151252 47.248724 
L 56.681167 47.798993 
L 55.45402 48.504194 
L 55.094955 49.17906 
L 54.407082 49.445857 
L 52.669049 50.67088 
L 52.372156 51.380582 
L 51.97641 51.97641 
L 51.14179 52.141557 
L 50.843169 52.829711 
L 50.458934 53.428992 
L 49.603854 53.613633 
L 49.157098 54.164784 
L 48.893953 54.864081 
L 48.221364 55.233049 
L 47.952579 55.919541 
L 47.246343 56.279643 
L 46.957945 57.80399 
L 46.239576 58.17389 
L 45.989343 58.852819 
L 45.634027 59.462599 
L 45.10993 59.97455 
L 44.813473 60.620583 
L 44.166688 61.078212 
L 44.303924 61.949274 
L 43.644653 62.411747 
L 42.824531 64.381097 
L 42.442967 64.992846 
L 42.305253 65.70286 
L 41.837669 66.288136 
L 41.745717 67.011582 
L 41.531517 67.689855 
L 41.19229 68.329688 
L 41.118439 69.050603 
L 40.571354 71.112537 
L 39.743657 74.582989 
L 39.709361 76.015854 
L 39.552381 76.716795 
L 39.715546 77.443457 
L 39.446025 78.139982 
L 39.619453 79.570268 
L 39.044775 80.28 
L 39.592141 80.990209 
L 39.445577 82.420041 
L 39.705826 83.117223 
L 39.542098 83.844105 
L 39.764806 85.25464 
L 39.724832 85.979657 
L 39.926199 86.671414 
L 39.999145 87.382602 
L 40.433945 88.74954 
L 41.209342 92.225099 
L 41.747547 93.547787 
L 41.849131 94.267692 
L 42.310109 94.855275 
L 42.471739 95.555529 
L 43.118289 96.82546 
L 43.597517 98.171242 
L 44.325291 98.599839 
L 44.206863 99.460427 
L 44.771522 99.962671 
L 45.132935 100.572167 
L 46.052917 101.667455 
L 46.257717 102.374329 
L 46.924045 102.778876 
L 47.214116 104.303771 
L 47.991911 104.61082 
L 48.209099 105.336534 
L 48.912973 105.680517 
L 49.141434 106.408359 
L 49.600326 106.949433 
L 50.398937 107.18503 
L 50.932571 107.64692 
L 51.184211 108.377477 
L 51.944805 108.615195 
L 52.402866 109.147617 
L 52.626303 109.93496 
L 53.323574 110.218144 
L 54.386885 111.138213 
L 55.091869 111.384751 
L 55.482242 112.019683 
L 57.167754 113.287708 
L 57.877118 113.493639 
L 58.384035 113.996829 
L 58.984054 114.360638 
L 59.663409 114.591769 
L 60.822547 115.382174 
L 61.602812 115.406683 
L 62.878719 115.957913 
L 63.55548 116.145849 
L 64.097743 116.625943 
L 64.750825 116.864444 
L 65.501177 116.85887 
L 66.057999 117.329579 
L 66.719832 117.536254 
L 67.431001 117.596202 
L 68.006097 118.055189 
L 68.684643 118.206703 
L 69.434644 118.102252 
L 70.091841 118.302727 
L 70.684039 118.767297 
L 71.451879 118.518794 
L 72.122456 118.658226 
L 72.765464 118.938934 
L 73.476886 118.862377 
L 74.200565 118.664042 
L 74.831599 119.047386 
L 75.50939 119.133498 
L 76.21247 118.979965 
L 77.562146 119.14712 
L 78.238243 119.239049 
L 78.923254 119.132132 
L 79.596305 119.448858 
L 80.28 119.097847 
L 82.305953 118.937483 
L 83.611697 118.36147 
L 84.306486 118.589459 
L 84.955601 118.359716 
L 85.581337 118.000974 
L 87.551773 117.690028 
L 88.177315 117.433947 
L 88.876036 117.513521 
L 89.446001 117.042822 
L 90.072812 116.827272 
L 90.587426 116.226265 
L 91.30222 116.332056 
L 91.85597 115.907174 
L 92.492533 115.747771 
L 93.017387 115.275682 
L 93.802631 115.507658 
L 94.369528 115.152805 
L 94.698426 114.247683 
L 95.639403 114.777783 
L 95.742234 113.438869 
L 96.689555 113.924573 
L 96.871655 112.842957 
L 97.717349 113.074884 
L 97.830928 111.942712 
L 98.43156 111.719424 
L 98.971069 111.387163 
L 99.394364 110.869376 
L 100.086079 110.778688 
L 100.544459 110.323296 
L 101.112314 110.031628 
L 101.410076 109.363055 
L 102.365917 109.589001 
L 102.354496 108.534066 
L 103.324809 108.737969 
L 103.339975 107.761808 
L 103.178602 106.621829 
L 103.862375 106.47088 
L 104.595015 105.458935 
L 104.630882 104.630882 
L 104.831508 103.989116 
L 106.139424 104.394303 
L 106.371388 103.772791 
L 106.101284 102.7261 
L 107.009378 102.708611 
L 107.005654 101.922008 
L 106.850364 101.039044 
L 107.47086 100.769783 
L 107.992085 100.414008 
L 108.287564 99.891107 
L 108.303561 99.182131 
L 108.772723 98.783391 
L 108.680318 98.026488 
L 108.465216 97.215387 
L 109.3779 96.409229 
L 109.492837 95.812741 
L 109.492228 95.164374 
L 109.881388 94.083354 
L 109.95852 92.877784 
L 109.580984 92.118366 
L 110.254116 91.785985 
L 110.762996 91.374903 
L 109.703345 90.41127 
L 110.400813 90.066845 
L 110.961091 87.929655 
L 109.325689 86.985726 
L 109.812163 86.557255 
L 112.375194 86.518674 
L 112.24611 85.916488 
L 110.495212 85.065619 
L 110.825408 84.572877 
L 114.344193 84.462557 
L 116.882955 84.127126 
L 113.103629 82.575252 
L 122.241286 82.479098 
L 129.224505 81.98918 
L 135.905945 81.250954 
L 154.960277 80.28 
L 154.960277 80.28 
" clip-path="url(#p502ef27489)" style="fill: none; stroke-dasharray: 2.775,1.2; stroke-dashoffset: 0; stroke: #ff0000; stroke-width: 0.75"/>
   </g>
   <g id="patch_3">
    <path d="M 157.55976 80.28 
C 157.55976 70.131715 155.560769 60.082109 151.677189 50.706316 
C 147.793608 41.330523 142.100964 32.810879 134.925042 25.634958 
C 127.749121 18.459036 119.229477 12.766392 109.853684 8.882811 
C 100.477891 4.999231 90.428285 3.00024 80.28 3.00024 
C 70.131715 3.00024 60.082109 4.999231 50.706316 8.882811 
C 41.330523 12.766392 32.810879 18.459036 25.634958 25.634958 
C 18.459036 32.810879 12.766392 41.330523 8.882811 50.706316 
C 4.999231 60.082109 3.00024 70.131715 3.00024 80.28 
C 3.00024 90.428285 4.999231 100.477891 8.882811 109.853684 
C 12.766392 119.229477 18.459036 127.749121 25.634958 134.925042 
C 32.810879 142.100964 41.330523 147.793608 50.706316 151.677189 
C 60.082109 155.560769 70.131715 157.55976 80.28 157.55976 
C 90.428285 157.55976 100.477891 155.560769 109.853684 151.677189 
C 119.229477 147.793608 127.749121 142.100964 134.925042 134.925042 
C 142.100964 127.749121 147.793608 119.229477 151.677189 109.853684 
C 155.560769 100.477891 157.55976 90.428285 157.55976 80.28 
" style="fill: none; stroke: #000000; stroke-width: 0.8; stroke-linejoin: miter; stroke-linecap: square"/>
   </g>
   <g id="legend_1">
    <g id="patch_4">
     <path d="M 79.25464 40.92552 
L 150.55976 40.92552 
Q 152.55976 40.92552 152.55976 38.92552 
L 152.55976 10.00024 
Q 152.55976 8.00024 150.55976 8.00024 
L 79.25464 8.00024 
Q 77.25464 8.00024 77.25464 10.00024 
L 77.25464 38.92552 
Q 77.25464 40.92552 79.25464 40.92552 
z
" style="fill: #ffffff; opacity: 0.8; stroke: #cccccc; stroke-linejoin: miter"/>
    </g>
    <g id="line2d_18">
     <defs>
      <path id="m40f0c0db08" d="M 0 2.5 
C 0.663008 2.5 1.29895 2.236584 1.767767 1.767767 
C 2.236584 1.29895 2.5 0.663008 2.5 0 
C 2.5 -0.663008 2.236584 -1.29895 1.767767 -1.767767 
C 1.29895 -2.236584 0.663008 -2.5 0 -2.5 
C -0.663008 -2.5 -1.29895 -2.236584 -1.767767 -1.767767 
C -2.236584 -1.29895 -2.5 -0.663008 -2.5 0 
C -2.5 0.663008 -2.236584 1.29895 -1.767767 1.767767 
C -1.29895 2.236584 -0.663008 2.5 0 2.5 
z
" style="stroke: #000000"/>
     </defs>
     <g>
      <use xlink:href="#m40f0c0db08" x="91.25464" y="15.97222" style="stroke: #000000"/>
     </g>
    </g>
    <g id="text_6">
     <!-- $a / \lambda = 10$ -->
     <g transform="translate(109.25464 19.47222) scale(0.1 -0.1)">
      <defs>
       <path id="CMMI12-61" d="M 1926 759 
C 1894 651 1894 638 1805 517 
C 1664 338 1382 64 1082 64 
C 819 64 672 300 672 676 
C 672 1028 870 1743 992 2011 
C 1210 2458 1510 2687 1760 2687 
C 2182 2687 2266 2164 2266 2113 
C 2266 2107 2246 2024 2240 2011 
L 1926 759 
z
M 2336 2394 
C 2266 2560 2093 2816 1760 2816 
C 1037 2816 256 1883 256 938 
C 256 306 627 -64 1062 -64 
C 1414 -64 1715 210 1894 421 
C 1958 44 2259 -64 2451 -64 
C 2643 -64 2797 51 2912 280 
C 3014 496 3104 885 3104 910 
C 3104 942 3078 968 3040 968 
C 2982 968 2976 936 2950 840 
C 2854 465 2733 64 2470 64 
C 2285 64 2272 229 2272 356 
C 2272 503 2291 573 2349 821 
C 2394 980 2426 1120 2477 1305 
C 2714 2260 2771 2489 2771 2528 
C 2771 2617 2701 2688 2605 2688 
C 2400 2688 2349 2464 2336 2388 
L 2336 2394 
z
" transform="scale(0.015625)"/>
       <path id="CMMI12-3d" d="M 2746 4563 
C 2746 4569 2784 4665 2784 4678 
C 2784 4755 2720 4800 2669 4800 
C 2637 4800 2579 4800 2528 4659 
L 384 -1364 
C 384 -1370 346 -1466 346 -1479 
C 346 -1556 410 -1600 461 -1600 
C 499 -1600 557 -1594 602 -1460 
L 2746 4563 
z
" transform="scale(0.015625)"/>
       <path id="CMMI12-15" d="M 1978 3963 
C 1818 4416 1312 4416 1229 4416 
C 1190 4416 1120 4416 1120 4351 
C 1120 4300 1158 4294 1190 4287 
C 1286 4275 1363 4262 1466 4078 
C 1530 3957 2189 2055 2189 2042 
C 2189 2036 2182 2029 2131 1978 
L 467 305 
C 390 229 339 178 339 95 
C 339 6 416 -71 518 -71 
C 544 -71 614 -58 653 -20 
C 755 76 1670 1190 2253 1877 
C 2419 1380 2624 795 2822 261 
C 2854 165 2886 76 2976 -7 
C 3040 -64 3053 -64 3232 -64 
L 3354 -64 
C 3379 -64 3424 -64 3424 -13 
C 3424 12 3418 19 3392 44 
C 3334 114 3290 229 3264 305 
L 1978 3963 
z
" transform="scale(0.015625)"/>
       <path id="CMR17-3d" d="M 4115 2048 
C 4211 2048 4307 2048 4307 2156 
C 4307 2272 4198 2272 4090 2272 
L 512 2272 
C 403 2272 294 2272 294 2156 
C 294 2048 390 2048 486 2048 
L 4115 2048 
z
M 4090 927 
C 4198 927 4307 927 4307 1043 
C 4307 1152 4211 1152 4115 1152 
L 486 1152 
C 390 1152 294 1152 294 1043 
C 294 927 403 927 512 927 
L 4090 927 
z
" transform="scale(0.015625)"/>
      </defs>
      <use xlink:href="#CMMI12-61" transform="scale(0.996264)"/>
      <use xlink:href="#CMMI12-3d" transform="translate(51.207858 0) scale(0.996264)"/>
      <use xlink:href="#CMMI12-15" transform="translate(99.982776 0) scale(0.996264)"/>
      <use xlink:href="#CMR17-3d" transform="translate(184.560857 0) scale(0.996264)"/>
      <use xlink:href="#CMR17-31" transform="translate(283.949654 0) scale(0.996264)"/>
      <use xlink:href="#CMR17-30" transform="translate(329.640131 0) scale(0.996264)"/>
     </g>
    </g>
    <g id="line2d_19">
     <defs>
      <path id="mcc3c2053fa" d="M 0 2.5 
C 0.663008 2.5 1.29895 2.236584 1.767767 1.767767 
C 2.236584 1.29895 2.5 0.663008 2.5 0 
C 2.5 -0.663008 2.236584 -1.29895 1.767767 -1.767767 
C 1.29895 -2.236584 0.663008 -2.5 0 -2.5 
C -0.663008 -2.5 -1.29895 -2.236584 -1.767767 -1.767767 
C -2.236584 -1.29895 -2.5 -0.663008 -2.5 0 
C -2.5 0.663008 -2.236584 1.29895 -1.767767 1.767767 
C -1.29895 2.236584 -0.663008 2.5 0 2.5 
z
" style="stroke: #ff0000"/>
     </defs>
     <g>
      <use xlink:href="#mcc3c2053fa" x="91.25464" y="30.93486" style="fill: #ff0000; stroke: #ff0000"/>
     </g>
    </g>
    <g id="text_7">
     <!-- $a / \lambda = 50$ -->
     <g transform="translate(109.25464 34.43486) scale(0.1 -0.1)">
      <defs>
       <path id="CMR17-35" d="M 730 3750 
C 794 3724 1056 3641 1325 3641 
C 1920 3641 2246 3961 2432 4140 
C 2432 4191 2432 4224 2394 4224 
C 2387 4224 2374 4224 2323 4198 
C 2099 4102 1837 4032 1517 4032 
C 1325 4032 1037 4055 723 4191 
C 653 4224 640 4224 634 4224 
C 602 4224 595 4217 595 4090 
L 595 2231 
C 595 2113 595 2080 659 2080 
C 691 2080 704 2093 736 2139 
C 941 2435 1222 2560 1542 2560 
C 1766 2560 2246 2415 2246 1293 
C 2246 1087 2246 716 2054 422 
C 1894 159 1645 25 1370 25 
C 947 25 518 319 403 812 
C 429 806 480 793 506 793 
C 589 793 749 838 749 1036 
C 749 1209 627 1280 506 1280 
C 358 1280 262 1190 262 1011 
C 262 454 704 -128 1382 -128 
C 2042 -128 2669 441 2669 1267 
C 2669 2054 2170 2662 1549 2662 
C 1222 2662 947 2540 730 2304 
L 730 3750 
z
" transform="scale(0.015625)"/>
      </defs>
      <use xlink:href="#CMMI12-61" transform="scale(0.996264)"/>
      <use xlink:href="#CMMI12-3d" transform="translate(51.207858 0) scale(0.996264)"/>
      <use xlink:href="#CMMI12-15" transform="translate(99.982776 0) scale(0.996264)"/>
      <use xlink:href="#CMR17-3d" transform="translate(184.560857 0) scale(0.996264)"/>
      <use xlink:href="#CMR17-35" transform="translate(283.949654 0) scale(0.996264)"/>
      <use xlink:href="#CMR17-30" transform="translate(329.640131 0) scale(0.996264)"/>
     </g>
    </g>
   </g>
  </g>
 </g>
 <defs>
  <clipPath id="p502ef27489">
   <path d="M 157.55976 80.28 
C 157.55976 70.131715 155.560769 60.082109 151.677189 50.706316 
C 147.793608 41.330523 142.100964 32.810879 134.925042 25.634958 
C 127.749121 18.459036 119.229477 12.766392 109.853684 8.882811 
C 100.477891 4.999231 90.428285 3.00024 80.28 3.00024 
C 70.131715 3.00024 60.082109 4.999231 50.706316 8.882811 
C 41.330523 12.766392 32.810879 18.459036 25.634958 25.634958 
C 18.459036 32.810879 12.766392 41.330523 8.882811 50.706316 
C 4.999231 60.082109 3.00024 70.131715 3.00024 80.28 
C 3.00024 90.428285 4.999231 100.477891 8.882811 109.853684 
C 12.766392 119.229477 18.459036 127.749121 25.634958 134.925042 
C 32.810879 142.100964 41.330523 147.793608 50.706316 151.677189 
C 60.082109 155.560769 70.131715 157.55976 80.28 157.55976 
C 90.428285 157.55976 100.477891 155.560769 109.853684 151.677189 
C 119.229477 147.793608 127.749121 142.100964 134.925042 134.925042 
C 142.100964 127.749121 147.793608 119.229477 151.677189 109.853684 
C 155.560769 100.477891 157.55976 90.428285 157.55976 80.28 
M 80.28 80.28 
C 80.28 80.28 80.28 80.28 80.28 80.28 
C 80.28 80.28 80.28 80.28 80.28 80.28 
C 80.28 80.28 80.28 80.28 80.28 80.28 
C 80.28 80.28 80.28 80.28 80.28 80.28 
C 80.28 80.28 80.28 80.28 80.28 80.28 
C 80.28 80.28 80.28 80.28 80.28 80.28 
C 80.28 80.28 80.28 80.28 80.28 80.28 
C 80.28 80.28 80.28 80.28 80.28 80.28 
C 80.28 80.28 80.28 80.28 80.28 80.28 
C 80.28 80.28 80.28 80.28 80.28 80.28 
C 80.28 80.28 80.28 80.28 80.28 80.28 
C 80.28 80.28 80.28 80.28 80.28 80.28 
C 80.28 80.28 80.28 80.28 80.28 80.28 
C 80.28 80.28 80.28 80.28 80.28 80.28 
C 80.28 80.28 80.28 80.28 80.28 80.28 
C 80.28 80.28 80.28 80.28 80.28 80.28 
M 157.55976 80.28 
z
"/>
  </clipPath>
 </defs>
</svg>
