<?xml version="1.0" encoding="utf-8" standalone="no"?>
<!DOCTYPE svg PUBLIC "-//W3C//DTD SVG 1.1//EN"
  "http://www.w3.org/Graphics/SVG/1.1/DTD/svg11.dtd">
<svg xmlns:xlink="http://www.w3.org/1999/xlink" width="160.56pt" height="160.56pt" viewBox="0 0 160.56 160.56" xmlns="http://www.w3.org/2000/svg" version="1.1">
 <metadata>
  <rdf:RDF xmlns:dc="http://purl.org/dc/elements/1.1/" xmlns:cc="http://creativecommons.org/ns#" xmlns:rdf="http://www.w3.org/1999/02/22-rdf-syntax-ns#">
   <cc:Work>
    <dc:type rdf:resource="http://purl.org/dc/dcmitype/StillImage"/>
    <dc:date>2025-01-19T15:58:07.655127</dc:date>
    <dc:format>image/svg+xml</dc:format>
    <dc:creator>
     <cc:Agent>
      <dc:title>Matplotlib v3.6.3, https://matplotlib.org/</dc:title>
     </cc:Agent>
    </dc:creator>
   </cc:Work>
  </rdf:RDF>
 </metadata>
 <defs>
  <style type="text/css">*{stroke-linejoin: round; stroke-linecap: butt}</style>
 </defs>
 <g id="figure_1">
  <g id="patch_1">
   <path d="M 0 160.56 
L 160.56 160.56 
L 160.56 0 
L 0 0 
z
" style="fill: #ffffff"/>
  </g>
  <g id="axes_1">
   <g id="patch_2">
    <path d="M 157.55976 80.28 
C 157.55976 70.131715 155.560769 60.082109 151.677189 50.706316 
C 147.793608 41.330523 142.100964 32.810879 134.925042 25.634958 
C 127.749121 18.459036 119.229477 12.766392 109.853684 8.882811 
C 100.477891 4.999231 90.428285 3.00024 80.28 3.00024 
C 70.131715 3.00024 60.082109 4.999231 50.706316 8.882811 
C 41.330523 12.766392 32.810879 18.459036 25.634958 25.634958 
C 18.459036 32.810879 12.766392 41.330523 8.882811 50.706316 
C 4.999231 60.082109 3.00024 70.131715 3.00024 80.28 
C 3.00024 90.428285 4.999231 100.477891 8.882811 109.853684 
C 12.766392 119.229477 18.459036 127.749121 25.634958 134.925042 
C 32.810879 142.100964 41.330523 147.793608 50.706316 151.677189 
C 60.082109 155.560769 70.131715 157.55976 80.28 157.55976 
C 90.428285 157.55976 100.477891 155.560769 109.853684 151.677189 
C 119.229477 147.793608 127.749121 142.100964 134.925042 134.925042 
C 142.100964 127.749121 147.793608 119.229477 151.677189 109.853684 
C 155.560769 100.477891 157.55976 90.428285 157.55976 80.28 
M 80.28 80.28 
C 80.28 80.28 80.28 80.28 80.28 80.28 
C 80.28 80.28 80.28 80.28 80.28 80.28 
C 80.28 80.28 80.28 80.28 80.28 80.28 
C 80.28 80.28 80.28 80.28 80.28 80.28 
C 80.28 80.28 80.28 80.28 80.28 80.28 
C 80.28 80.28 80.28 80.28 80.28 80.28 
C 80.28 80.28 80.28 80.28 80.28 80.28 
C 80.28 80.28 80.28 80.28 80.28 80.28 
C 80.28 80.28 80.28 80.28 80.28 80.28 
C 80.28 80.28 80.28 80.28 80.28 80.28 
C 80.28 80.28 80.28 80.28 80.28 80.28 
C 80.28 80.28 80.28 80.28 80.28 80.28 
C 80.28 80.28 80.28 80.28 80.28 80.28 
C 80.28 80.28 80.28 80.28 80.28 80.28 
C 80.28 80.28 80.28 80.28 80.28 80.28 
C 80.28 80.28 80.28 80.28 80.28 80.28 
M 157.55976 80.28 
z
" style="fill: #ffffff"/>
   </g>
   <g id="matplotlib.axis_1">
    <g id="xtick_1">
     <g id="line2d_1">
      <path d="M 80.28 80.28 
L 157.55976 80.28 
" clip-path="url(#p099e9bd70e)" style="fill: none; stroke: #b0b0b0; stroke-width: 0.8; stroke-linecap: square"/>
     </g>
    </g>
    <g id="xtick_2">
     <g id="line2d_2">
      <path d="M 80.28 80.28 
L 134.925042 25.634958 
" clip-path="url(#p099e9bd70e)" style="fill: none; stroke: #b0b0b0; stroke-width: 0.8; stroke-linecap: square"/>
     </g>
    </g>
    <g id="xtick_3">
     <g id="line2d_3">
      <path d="M 80.28 80.28 
L 80.28 3.00024 
" clip-path="url(#p099e9bd70e)" style="fill: none; stroke: #b0b0b0; stroke-width: 0.8; stroke-linecap: square"/>
     </g>
    </g>
    <g id="xtick_4">
     <g id="line2d_4">
      <path d="M 80.28 80.28 
L 25.634958 25.634958 
" clip-path="url(#p099e9bd70e)" style="fill: none; stroke: #b0b0b0; stroke-width: 0.8; stroke-linecap: square"/>
     </g>
    </g>
    <g id="xtick_5">
     <g id="line2d_5">
      <path d="M 80.28 80.28 
L 3.00024 80.28 
" clip-path="url(#p099e9bd70e)" style="fill: none; stroke: #b0b0b0; stroke-width: 0.8; stroke-linecap: square"/>
     </g>
    </g>
    <g id="xtick_6">
     <g id="line2d_6">
      <path d="M 80.28 80.28 
L 25.634958 134.925042 
" clip-path="url(#p099e9bd70e)" style="fill: none; stroke: #b0b0b0; stroke-width: 0.8; stroke-linecap: square"/>
     </g>
    </g>
    <g id="xtick_7">
     <g id="line2d_7">
      <path d="M 80.28 80.28 
L 80.28 157.55976 
" clip-path="url(#p099e9bd70e)" style="fill: none; stroke: #b0b0b0; stroke-width: 0.8; stroke-linecap: square"/>
     </g>
    </g>
    <g id="xtick_8">
     <g id="line2d_8">
      <path d="M 80.28 80.28 
L 134.925042 134.925042 
" clip-path="url(#p099e9bd70e)" style="fill: none; stroke: #b0b0b0; stroke-width: 0.8; stroke-linecap: square"/>
     </g>
    </g>
   </g>
   <g id="matplotlib.axis_2">
    <g id="ytick_1">
     <g id="line2d_9">
      <path d="M 96.483025 80.28 
C 96.483025 78.152238 96.063902 76.045166 95.249643 74.079371 
C 94.435384 72.113575 93.241823 70.327286 91.737269 68.822731 
C 90.232714 67.318177 88.446425 66.124616 86.480629 65.310357 
C 84.514834 64.496098 82.407762 64.076975 80.28 64.076975 
C 78.152238 64.076975 76.045166 64.496098 74.079371 65.310357 
C 72.113575 66.124616 70.327286 67.318177 68.822731 68.822731 
C 67.318177 70.327286 66.124616 72.113575 65.310357 74.079371 
C 64.496098 76.045166 64.076975 78.152238 64.076975 80.28 
C 64.076975 82.407762 64.496098 84.514834 65.310357 86.480629 
C 66.124616 88.446425 67.318177 90.232714 68.822731 91.737269 
C 70.327286 93.241823 72.113575 94.435384 74.079371 95.249643 
C 76.045166 96.063902 78.152238 96.483025 80.28 96.483025 
C 82.407762 96.483025 84.514834 96.063902 86.480629 95.249643 
C 88.446425 94.435384 90.232714 93.241823 91.737269 91.737269 
C 93.241823 90.232714 94.435384 88.446425 95.249643 86.480629 
C 96.063902 84.514834 96.483025 82.407762 96.483025 80.28 
" clip-path="url(#p099e9bd70e)" style="fill: none; stroke: #b0b0b0; stroke-width: 0.8; stroke-linecap: square"/>
     </g>
     <g id="text_1">
      <!-- $\mathdefault{10^{0}}$ -->
      <g transform="translate(70.986327 91.615562) scale(0.1 -0.1)">
       <defs>
        <path id="CMR17-31" d="M 1702 4083 
C 1702 4217 1696 4224 1606 4224 
C 1357 3927 979 3833 621 3820 
C 602 3820 570 3820 563 3808 
C 557 3795 557 3782 557 3648 
C 755 3648 1088 3686 1344 3839 
L 1344 467 
C 1344 243 1331 166 781 166 
L 589 166 
L 589 0 
C 896 6 1216 12 1523 12 
C 1830 12 2150 6 2458 0 
L 2458 166 
L 2266 166 
C 1715 166 1702 236 1702 467 
L 1702 4083 
z
" transform="scale(0.015625)"/>
        <path id="CMR17-30" d="M 2688 2038 
C 2688 2430 2682 3099 2413 3613 
C 2176 4063 1798 4224 1466 4224 
C 1158 4224 768 4082 525 3620 
C 269 3137 243 2539 243 2038 
C 243 1671 250 1112 448 623 
C 723 -39 1216 -128 1466 -128 
C 1760 -128 2208 -7 2470 604 
C 2662 1048 2688 1568 2688 2038 
z
M 1466 -26 
C 1056 -26 813 328 723 816 
C 653 1196 653 1749 653 2109 
C 653 2604 653 3015 736 3407 
C 858 3954 1216 4121 1466 4121 
C 1728 4121 2067 3947 2189 3420 
C 2272 3054 2278 2623 2278 2109 
C 2278 1691 2278 1176 2202 797 
C 2067 96 1690 -26 1466 -26 
z
" transform="scale(0.015625)"/>
       </defs>
       <use xlink:href="#CMR17-31" transform="scale(0.996264)"/>
       <use xlink:href="#CMR17-30" transform="translate(45.690477 0) scale(0.996264)"/>
       <use xlink:href="#CMR17-30" transform="translate(91.380954 36.153639) scale(0.697382)"/>
      </g>
     </g>
    </g>
    <g id="ytick_2">
     <g id="line2d_10">
      <path d="M 133.07182 80.28 
C 133.07182 73.347442 131.706257 66.482294 129.053282 60.077445 
C 126.400306 53.672597 122.511513 47.852605 117.609454 42.950546 
C 112.707395 38.048487 106.887403 34.159694 100.482555 31.506718 
C 94.077706 28.853743 87.212558 27.48818 80.28 27.48818 
C 73.347442 27.48818 66.482294 28.853743 60.077445 31.506718 
C 53.672597 34.159694 47.852605 38.048487 42.950546 42.950546 
C 38.048487 47.852605 34.159694 53.672597 31.506718 60.077445 
C 28.853743 66.482294 27.48818 73.347442 27.48818 80.28 
C 27.48818 87.212558 28.853743 94.077706 31.506718 100.482555 
C 34.159694 106.887403 38.048487 112.707395 42.950546 117.609454 
C 47.852605 122.511513 53.672597 126.400306 60.077445 129.053282 
C 66.482294 131.706257 73.347442 133.07182 80.28 133.07182 
C 87.212558 133.07182 94.077706 131.706257 100.482555 129.053282 
C 106.887403 126.400306 112.707395 122.511513 117.609454 117.609454 
C 122.511513 112.707395 126.400306 106.887403 129.053282 100.482555 
C 131.706257 94.077706 133.07182 87.212558 133.07182 80.28 
" clip-path="url(#p099e9bd70e)" style="fill: none; stroke: #b0b0b0; stroke-width: 0.8; stroke-linecap: square"/>
     </g>
     <g id="text_2">
      <!-- $\mathdefault{10^{1}}$ -->
      <g transform="translate(49.999856 121.587349) scale(0.1 -0.1)">
       <use xlink:href="#CMR17-31" transform="scale(0.996264)"/>
       <use xlink:href="#CMR17-30" transform="translate(45.690477 0) scale(0.996264)"/>
       <use xlink:href="#CMR17-31" transform="translate(91.380954 36.153639) scale(0.697382)"/>
      </g>
     </g>
    </g>
    <g id="ytick_3"/>
   </g>
   <g id="line2d_11">
    <path d="M 153.892373 80.28 
L 153.812888 78.996479 
L 153.574205 77.72051 
L 153.175629 76.459702 
L 152.615999 75.221774 
L 151.893681 74.014615 
L 151.006559 72.846339 
L 149.95205 71.725348 
L 148.727128 70.660383 
L 147.328409 69.660575 
L 145.752315 68.735464 
L 143.995397 67.894981 
L 142.054933 67.149333 
L 139.930004 66.508711 
L 137.623389 65.982687 
L 135.144837 65.579011 
L 132.516554 65.301409 
L 127.018406 65.093771 
L 121.964176 65.108201 
L 120.074723 65.004237 
L 118.873988 64.687017 
L 118.43253 64.085212 
L 118.656762 63.193565 
L 119.338725 62.066617 
L 122.091585 58.048386 
L 122.828688 56.694877 
L 123.384199 55.393779 
L 123.743547 54.164466 
L 123.90416 53.0206 
L 123.869839 51.972428 
L 123.647473 51.02827 
L 123.245184 50.195454 
L 122.671305 49.480914 
L 121.933834 48.891585 
L 121.040159 48.434674 
L 119.996937 48.117859 
L 118.810062 47.949439 
L 117.484698 47.93845 
L 116.02537 48.094724 
L 114.436138 48.428886 
L 112.720896 48.952191 
L 110.883915 49.676085 
L 108.930801 50.611227 
L 106.870195 51.765507 
L 104.71679 53.140195 
L 102.496526 54.72281 
L 99.033391 57.930579 
L 88.702303 68.687694 
L 88.242503 68.908367 
L 88.397743 68.244951 
L 93.677067 56.111051 
L 94.783204 53.00344 
L 95.257419 50.885161 
L 95.163763 49.763763 
L 94.938876 48.843939 
L 94.59451 48.129084 
L 94.142476 47.622054 
L 93.594107 47.326429 
L 92.960052 47.247335 
L 92.250229 47.392067 
L 91.473854 47.770688 
L 90.639506 48.396719 
L 89.755193 49.288039 
L 88.282203 52.373002 
L 86.848954 55.764331 
L 85.502852 59.332287 
L 84.282359 62.943878 
L 82.32347 69.767257 
L 81.076608 75.250415 
L 80.344155 79.546702 
L 80.365398 79.058757 
L 80.414779 76.420424 
L 80.28 72.128487 
L 79.819302 67.087325 
L 79.023525 62.311575 
L 78.534118 60.324475 
L 78.016027 58.739733 
L 77.499444 57.634189 
L 77.016721 57.060564 
L 76.599948 57.045064 
L 76.278487 57.586294 
L 76.076629 58.655531 
L 76.011517 60.198367 
L 76.091505 62.137635 
L 76.315052 64.377464 
L 77.135098 69.312423 
L 78.261023 74.066228 
L 79.364634 77.765052 
L 80.176602 80.03641 
L 79.732158 79.10515 
L 78.367854 76.527202 
L 76.206893 72.93192 
L 73.575845 69.122412 
L 70.943821 65.903545 
L 69.788867 64.726256 
L 68.822448 63.916919 
L 68.095889 63.510009 
L 67.64893 63.518004 
L 67.507108 63.931444 
L 67.679913 64.720189 
L 68.159869 65.83579 
L 68.922588 67.214792 
L 71.121605 70.458824 
L 73.807468 73.807468 
L 76.397244 76.659272 
L 79.173212 79.383741 
L 78.768348 79.140889 
L 76.134545 77.483855 
L 73.640761 76.131343 
L 71.21677 75.047342 
L 69.399642 74.494811 
L 68.840572 74.45132 
L 68.547169 74.557516 
L 68.519877 74.796164 
L 68.739083 75.141653 
L 69.744133 76.023233 
L 72.195754 77.808398 
L 72.02793 77.913757 
L 70.530745 77.849238 
L 65.192471 77.347282 
L 59.970398 77.063275 
L 54.175366 77.074754 
L 51.335586 77.237819 
L 48.68889 77.516136 
L 47.340131 77.97662 
L 46.616094 78.515749 
L 46.099016 79.086374 
L 45.788884 79.677955 
L 45.685533 80.28 
L 45.788884 80.882045 
L 46.099016 81.473626 
L 46.616094 82.044251 
L 47.340131 82.58338 
L 48.68889 83.043864 
L 51.335586 83.322181 
L 54.175366 83.485246 
L 59.970398 83.496725 
L 65.192471 83.212718 
L 72.02793 82.646243 
L 72.195754 82.751602 
L 72.042661 82.956474 
L 68.739083 85.418347 
L 68.519877 85.763836 
L 68.547169 86.002484 
L 68.840572 86.10868 
L 69.399642 86.065189 
L 71.21677 85.512658 
L 73.640761 84.428657 
L 76.134545 83.076145 
L 79.173212 81.176259 
L 78.901597 81.436617 
L 76.397244 83.900728 
L 73.807468 86.752532 
L 71.121605 90.101176 
L 68.922588 93.345208 
L 68.159869 94.72421 
L 67.679913 95.839811 
L 67.507108 96.628556 
L 67.64893 97.041996 
L 68.095889 97.049991 
L 68.822448 96.643081 
L 69.788867 95.833744 
L 70.943821 94.656455 
L 73.575845 91.437588 
L 76.206893 87.62808 
L 78.367854 84.032798 
L 80.176602 80.52359 
L 79.791175 81.553432 
L 78.838868 84.465351 
L 77.678313 88.789734 
L 76.670261 93.751729 
L 76.091505 98.422365 
L 76.011517 100.361633 
L 76.076629 101.904469 
L 76.278487 102.973706 
L 76.599948 103.514936 
L 77.016721 103.499436 
L 77.499444 102.925811 
L 78.016027 101.820267 
L 78.534118 100.235525 
L 79.023525 98.248425 
L 79.819302 93.472675 
L 80.28 88.431513 
L 80.414779 84.139576 
L 80.344155 81.013298 
L 80.481146 81.918204 
L 81.076608 85.309585 
L 82.32347 90.792743 
L 84.282359 97.616122 
L 85.502852 101.227713 
L 86.848954 104.795669 
L 88.282203 108.186998 
L 89.755193 111.271961 
L 90.639506 112.163281 
L 91.473854 112.789312 
L 92.250229 113.167933 
L 92.960052 113.312665 
L 93.594107 113.233571 
L 94.142476 112.937946 
L 94.59451 112.430916 
L 94.938876 111.716061 
L 95.163763 110.796237 
L 95.257419 109.674839 
L 94.783204 107.55656 
L 93.677067 104.448949 
L 91.18428 98.427769 
L 88.397743 92.315049 
L 88.242503 91.651633 
L 88.702303 91.872306 
L 89.906666 93.055018 
L 99.033391 102.629421 
L 102.496526 105.83719 
L 104.71679 107.419805 
L 106.870195 108.794493 
L 108.930801 109.948773 
L 110.883915 110.883915 
L 112.720896 111.607809 
L 114.436138 112.131114 
L 116.02537 112.465276 
L 117.484698 112.62155 
L 118.810062 112.610561 
L 119.996937 112.442141 
L 121.040159 112.125326 
L 121.933834 111.668415 
L 122.671305 111.079086 
L 123.245184 110.364546 
L 123.647473 109.53173 
L 123.869839 108.587572 
L 123.90416 107.5394 
L 123.743547 106.395534 
L 123.384199 105.166221 
L 122.828688 103.865123 
L 122.091585 102.511614 
L 120.250434 99.774883 
L 118.656762 97.366435 
L 118.43253 96.474788 
L 118.873988 95.872983 
L 120.074723 95.555763 
L 121.964176 95.451799 
L 129.781969 95.414271 
L 132.516554 95.258591 
L 135.144837 94.980989 
L 137.623389 94.577313 
L 139.930004 94.051289 
L 142.054933 93.410667 
L 143.995397 92.665019 
L 145.752315 91.824536 
L 147.328409 90.899425 
L 148.727128 89.899617 
L 149.95205 88.834652 
L 151.006559 87.713661 
L 151.893681 86.545385 
L 152.615999 85.338226 
L 153.175629 84.100298 
L 153.574205 82.83949 
L 153.812888 81.563521 
L 153.892373 80.28 
L 153.892373 80.28 
" clip-path="url(#p099e9bd70e)" style="fill: none; stroke: #000000; stroke-width: 0.75; stroke-linecap: square"/>
   </g>
   <g id="line2d_12">
    <path d="M 153.872258 80.28 
L 153.776753 78.997109 
L 153.529325 77.722077 
L 153.131308 76.462025 
L 152.581648 75.224176 
L 151.877443 74.016035 
L 151.014244 72.845531 
L 149.986456 71.721123 
L 148.787752 70.651863 
L 147.411452 69.647423 
L 145.850915 68.718079 
L 144.100044 67.87464 
L 142.154094 67.128255 
L 140.011043 66.490002 
L 137.673905 65.970092 
L 135.154504 65.576421 
L 132.479487 65.312038 
L 126.901222 65.131847 
L 121.849297 65.150013 
L 120.002788 65.03185 
L 118.858354 64.693333 
L 118.465944 64.071028 
L 118.717679 63.166443 
L 120.303473 60.759248 
L 122.096677 58.045679 
L 122.806007 56.707449 
L 123.334399 55.422531 
L 123.669465 54.208979 
L 123.81084 53.078912 
L 123.764085 52.041105 
L 123.536826 51.102902 
L 123.136526 50.271538 
L 122.569525 49.554862 
L 121.841007 48.961535 
L 120.955533 48.50079 
L 119.917751 48.181982 
L 118.732918 48.014171 
L 117.406998 48.005993 
L 115.94627 48.165946 
L 114.356617 48.503041 
L 112.642825 49.027583 
L 110.808377 49.751623 
L 108.856214 50.688464 
L 106.79095 51.850486 
L 104.623026 53.244331 
L 102.37544 54.862104 
L 98.665636 58.368852 
L 88.365077 69.151846 
L 87.935107 69.347375 
L 88.121504 68.654492 
L 93.674149 56.116316 
L 94.830625 52.914254 
L 95.283892 50.833203 
L 95.185862 49.718455 
L 94.949048 48.822125 
L 94.589811 48.139637 
L 94.124312 47.664845 
L 93.56721 47.393 
L 92.931062 47.322857 
L 92.22627 47.457892 
L 91.461428 47.806776 
L 90.64384 48.383382 
L 89.780039 49.206773 
L 88.392367 51.988813 
L 86.994483 55.221208 
L 85.66922 58.665018 
L 84.453568 62.202289 
L 82.460257 69.063551 
L 81.145827 74.813383 
L 80.344783 79.539523 
L 80.370728 78.982535 
L 80.427924 76.044025 
L 80.28 71.519413 
L 79.800496 66.548807 
L 79.000691 61.985035 
L 77.973337 58.333566 
L 77.421441 56.998905 
L 76.882037 56.102237 
L 76.393671 55.742683 
L 76.000586 56.010239 
L 75.746653 56.957949 
L 75.666648 58.575885 
L 75.777414 60.777157 
L 76.072119 63.403112 
L 77.073818 69.098714 
L 78.282236 74.131514 
L 79.739315 78.871468 
L 80.126174 79.917608 
L 79.67609 78.98491 
L 78.133158 76.066586 
L 75.681041 71.983259 
L 72.913486 68.020063 
L 70.359764 65.004176 
L 68.260207 63.113957 
L 67.452906 62.625019 
L 66.879803 62.497338 
L 66.610008 62.783208 
L 66.702225 63.512845 
L 67.183397 64.672076 
L 68.035343 66.194133 
L 69.195234 67.969121 
L 72.054403 71.762145 
L 74.992788 75.174199 
L 78.34873 78.601172 
L 79.294445 79.481914 
L 78.930612 79.263163 
L 76.351905 77.630466 
L 73.943819 76.320715 
L 71.508476 75.215758 
L 69.494983 74.545505 
L 68.802109 74.431722 
L 68.388775 74.480262 
L 68.280407 74.684498 
L 68.470879 75.022241 
L 69.565495 75.951059 
L 72.540118 77.913681 
L 72.47011 78.04055 
L 72.01021 78.064116 
L 67.949586 77.65909 
L 63.130897 77.25615 
L 57.300239 77.050405 
L 54.307658 77.090997 
L 51.443747 77.249188 
L 48.837294 77.52912 
L 47.435028 77.983256 
L 46.76234 78.523414 
L 46.30394 79.09353 
L 46.050616 79.682524 
L 45.993096 80.28 
L 46.123353 80.876206 
L 46.436015 81.461858 
L 46.929735 82.027813 
L 47.608194 82.564635 
L 49.209693 82.9983 
L 51.686578 83.28529 
L 54.420669 83.455127 
L 60.270766 83.449151 
L 65.772442 83.099984 
L 72.544633 82.498081 
L 72.603719 82.626875 
L 71.892186 83.168156 
L 68.982741 85.075402 
L 68.111557 85.954238 
L 68.149064 86.196653 
L 68.554886 86.254244 
L 69.29968 86.11834 
L 71.481773 85.359659 
L 73.982514 84.215106 
L 76.341765 82.936373 
L 79.39901 80.993411 
L 79.087969 81.280233 
L 76.383739 83.913322 
L 73.716197 86.843803 
L 70.826731 90.41739 
L 68.246479 94.122982 
L 67.319574 95.725634 
L 66.758396 96.97779 
L 66.606609 97.781142 
L 66.852318 98.099135 
L 67.436804 97.957143 
L 68.278498 97.419921 
L 69.299955 96.558586 
L 70.445446 95.423885 
L 72.992521 92.408401 
L 75.703325 88.53654 
L 78.1246 84.510211 
L 80.140369 80.608949 
L 79.748099 81.665648 
L 78.842654 84.454357 
L 77.68155 88.779145 
L 76.551896 94.193473 
L 76.117437 96.975129 
L 75.830908 99.551135 
L 75.720792 101.729387 
L 75.793985 103.358546 
L 76.035555 104.351443 
L 76.413755 104.690509 
L 76.887934 104.415805 
L 77.416373 103.602367 
L 77.961798 102.336216 
L 78.493744 100.697001 
L 78.988351 98.751441 
L 79.794793 94.174521 
L 80.28 89.164188 
L 80.43092 84.60177 
L 80.345401 81.027538 
L 80.488162 81.975343 
L 81.12685 85.626798 
L 82.424477 91.31238 
L 83.330221 94.630163 
L 84.396525 98.11063 
L 85.6075 101.647435 
L 86.94122 105.140013 
L 88.36859 108.488265 
L 89.792293 111.39331 
L 90.683365 112.298264 
L 91.529308 112.950362 
L 92.318654 113.35593 
L 93.038938 113.51817 
L 93.677496 113.439966 
L 94.22225 113.125883 
L 94.662309 112.583194 
L 94.988236 111.821914 
L 95.191919 110.853965 
L 95.266129 109.691934 
L 94.770752 107.533142 
L 93.651407 104.402657 
L 91.156269 98.381152 
L 88.04002 91.362458 
L 88.435429 91.504985 
L 89.577714 92.618483 
L 98.501534 101.995578 
L 102.291278 105.601079 
L 104.552451 107.237288 
L 106.758564 108.674784 
L 108.87881 109.894934 
L 110.889766 110.889766 
L 112.772726 111.657861 
L 114.513699 112.203441 
L 116.104249 112.536299 
L 117.541955 112.671323 
L 118.829813 112.627134 
L 119.974343 112.423845 
L 120.98259 112.080349 
L 121.858669 111.611775 
L 122.600815 111.027872 
L 123.199931 110.332859 
L 123.640195 109.526821 
L 123.901606 108.608202 
L 123.963845 107.576696 
L 123.81066 106.435859 
L 123.434246 105.195116 
L 122.839677 103.871214 
L 122.05003 102.489519 
L 120.113576 99.708133 
L 118.506006 97.299315 
L 118.310898 96.423159 
L 118.797773 95.84219 
L 120.052159 95.547102 
L 121.995484 95.463194 
L 129.900149 95.450402 
L 132.625275 95.289766 
L 135.228488 95.003403 
L 137.673805 94.589883 
L 139.94749 94.055326 
L 142.047198 93.409023 
L 143.974848 92.661024 
L 145.732557 91.821052 
L 147.320879 90.898232 
L 148.738652 89.901236 
L 149.983767 88.838546 
L 151.054256 87.718674 
L 151.94924 86.550246 
L 152.669511 85.341968 
L 153.217635 84.102499 
L 153.597631 82.840308 
L 153.814348 81.563547 
L 153.87309 80.28 
L 153.87309 80.28 
" clip-path="url(#p099e9bd70e)" style="fill: none; stroke-dasharray: 2.775,1.2; stroke-dashoffset: 0; stroke: #ff0000; stroke-width: 0.75"/>
   </g>
   <g id="patch_3">
    <path d="M 157.55976 80.28 
C 157.55976 70.131715 155.560769 60.082109 151.677189 50.706316 
C 147.793608 41.330523 142.100964 32.810879 134.925042 25.634958 
C 127.749121 18.459036 119.229477 12.766392 109.853684 8.882811 
C 100.477891 4.999231 90.428285 3.00024 80.28 3.00024 
C 70.131715 3.00024 60.082109 4.999231 50.706316 8.882811 
C 41.330523 12.766392 32.810879 18.459036 25.634958 25.634958 
C 18.459036 32.810879 12.766392 41.330523 8.882811 50.706316 
C 4.999231 60.082109 3.00024 70.131715 3.00024 80.28 
C 3.00024 90.428285 4.999231 100.477891 8.882811 109.853684 
C 12.766392 119.229477 18.459036 127.749121 25.634958 134.925042 
C 32.810879 142.100964 41.330523 147.793608 50.706316 151.677189 
C 60.082109 155.560769 70.131715 157.55976 80.28 157.55976 
C 90.428285 157.55976 100.477891 155.560769 109.853684 151.677189 
C 119.229477 147.793608 127.749121 142.100964 134.925042 134.925042 
C 142.100964 127.749121 147.793608 119.229477 151.677189 109.853684 
C 155.560769 100.477891 157.55976 90.428285 157.55976 80.28 
" style="fill: none; stroke: #000000; stroke-width: 0.8; stroke-linejoin: miter; stroke-linecap: square"/>
   </g>
   <g id="legend_1">
    <g id="patch_4">
     <path d="M 73.727758 38.874597 
L 150.55976 38.874597 
Q 152.55976 38.874597 152.55976 36.874597 
L 152.55976 10.00024 
Q 152.55976 8.00024 150.55976 8.00024 
L 73.727758 8.00024 
Q 71.727758 8.00024 71.727758 10.00024 
L 71.727758 36.874597 
Q 71.727758 38.874597 73.727758 38.874597 
z
" style="fill: #ffffff; opacity: 0.8; stroke: #cccccc; stroke-linejoin: miter"/>
    </g>
    <g id="line2d_13">
     <path d="M 75.727758 15.50024 
L 85.727758 15.50024 
L 95.727758 15.50024 
" style="fill: none; stroke: #000000; stroke-width: 0.75; stroke-linecap: square"/>
    </g>
    <g id="text_3">
     <!-- Analytical -->
     <g transform="translate(103.727758 19.00024) scale(0.1 -0.1)">
      <defs>
       <path id="CMR17-41" d="M 2323 4441 
C 2291 4524 2278 4544 2214 4544 
C 2150 4544 2138 4524 2106 4441 
L 749 580 
C 627 236 371 166 147 166 
L 147 0 
C 262 12 518 12 640 12 
C 800 12 1056 12 1210 0 
L 1210 166 
C 909 179 864 382 864 459 
C 864 516 877 548 890 586 
L 1229 1536 
L 2906 1536 
L 3290 453 
C 3322 376 3322 363 3322 338 
C 3322 166 3046 166 2925 166 
L 2925 0 
C 3110 12 3443 12 3642 12 
C 3808 12 4128 12 4282 0 
L 4282 166 
C 3942 166 3827 166 3744 402 
L 2323 4441 
z
M 2067 3924 
L 2848 1702 
L 1286 1702 
L 2067 3924 
z
" transform="scale(0.015625)"/>
       <path id="CMR17-6e" d="M 2656 1954 
C 2656 2282 2592 2816 1837 2816 
C 1331 2816 1069 2424 973 2166 
L 966 2166 
L 966 2816 
L 211 2745 
L 211 2578 
C 589 2578 646 2540 646 2231 
L 646 443 
C 646 198 621 166 211 166 
L 211 0 
C 365 12 646 12 813 12 
C 979 12 1267 12 1421 0 
L 1421 166 
C 1011 166 986 192 986 443 
L 986 1678 
C 986 2269 1344 2713 1792 2713 
C 2266 2713 2317 2289 2317 1980 
L 2317 443 
C 2317 198 2291 166 1882 166 
L 1882 0 
C 2035 12 2317 12 2483 12 
C 2650 12 2938 12 3091 0 
L 3091 166 
C 2682 166 2656 192 2656 443 
L 2656 1954 
z
" transform="scale(0.015625)"/>
       <path id="CMR17-61" d="M 2304 1656 
C 2304 2048 2304 2275 2035 2534 
C 1798 2751 1523 2816 1306 2816 
C 800 2816 435 2408 435 1977 
C 435 1740 627 1728 666 1728 
C 749 1728 896 1779 896 1958 
C 896 2118 774 2188 666 2188 
C 640 2188 608 2182 589 2176 
C 723 2594 1069 2713 1293 2713 
C 1613 2713 1965 2421 1965 1875 
L 1965 1632 
C 1587 1619 1133 1568 774 1373 
C 371 1147 256 822 256 576 
C 256 77 832 -64 1171 -64 
C 1523 -64 1850 135 1990 505 
C 2003 219 2182 -39 2464 -39 
C 2598 -39 2938 51 2938 563 
L 2938 926 
L 2822 926 
L 2822 557 
C 2822 161 2650 109 2566 109 
C 2304 109 2304 446 2304 732 
L 2304 1656 
z
M 1965 887 
C 1965 323 1568 38 1216 38 
C 896 38 646 278 646 576 
C 646 771 730 1114 1101 1322 
C 1408 1497 1760 1523 1965 1536 
L 1965 887 
z
" transform="scale(0.015625)"/>
       <path id="CMR17-6c" d="M 979 4416 
L 218 4345 
L 218 4179 
C 595 4179 653 4141 653 3835 
L 653 439 
C 653 198 627 166 218 166 
L 218 0 
C 371 12 653 12 813 12 
C 979 12 1261 12 1414 0 
L 1414 166 
C 1005 166 979 191 979 439 
L 979 4416 
z
" transform="scale(0.015625)"/>
       <path id="CMR17-79" d="M 2496 2183 
C 2656 2579 2944 2585 3034 2585 
L 3034 2752 
C 2912 2745 2752 2739 2630 2739 
C 2496 2739 2285 2739 2157 2752 
L 2157 2585 
C 2400 2566 2406 2384 2406 2332 
C 2406 2268 2394 2235 2362 2158 
L 1664 409 
L 902 2300 
C 870 2378 870 2423 870 2430 
C 870 2572 1018 2585 1171 2585 
L 1171 2752 
C 1018 2739 742 2739 582 2739 
C 410 2739 205 2739 64 2752 
L 64 2585 
C 410 2585 448 2553 531 2345 
L 1485 -31 
C 1197 -795 1030 -1242 627 -1242 
C 557 -1242 397 -1223 282 -1106 
C 429 -1093 493 -1002 493 -892 
C 493 -782 416 -685 288 -685 
C 147 -685 77 -782 77 -899 
C 77 -1158 339 -1344 627 -1344 
C 998 -1344 1229 -983 1357 -659 
L 2496 2183 
z
" transform="scale(0.015625)"/>
       <path id="CMR17-74" d="M 966 2585 
L 1862 2585 
L 1862 2752 
L 966 2752 
L 966 3968 
L 851 3968 
C 838 3292 614 2700 70 2687 
L 70 2585 
L 627 2585 
L 627 778 
C 627 655 627 -64 1370 -64 
C 1747 -64 1965 308 1965 784 
L 1965 1151 
L 1850 1151 
L 1850 790 
C 1850 347 1677 51 1408 51 
C 1222 51 966 179 966 765 
L 966 2585 
z
" transform="scale(0.015625)"/>
       <path id="CMR17-69" d="M 992 3961 
C 992 4102 877 4224 730 4224 
C 589 4224 467 4108 467 3961 
C 467 3820 582 3699 730 3699 
C 870 3699 992 3814 992 3961 
z
M 243 2745 
L 243 2579 
C 602 2579 653 2540 653 2231 
L 653 443 
C 653 198 627 166 218 166 
L 218 0 
C 371 12 646 12 806 12 
C 960 12 1222 12 1370 0 
L 1370 166 
C 992 166 979 205 979 436 
L 979 2816 
L 243 2745 
z
" transform="scale(0.015625)"/>
       <path id="CMR17-63" d="M 2234 2240 
C 2112 2240 1933 2240 1933 2015 
C 1933 1836 2080 1785 2163 1785 
C 2208 1785 2394 1804 2394 2028 
C 2394 2476 1958 2816 1466 2816 
C 787 2816 211 2201 211 1379 
C 211 521 813 -64 1466 -64 
C 2259 -64 2458 676 2458 747 
C 2458 773 2451 792 2406 792 
C 2362 792 2355 786 2330 702 
C 2163 180 1798 51 1523 51 
C 1114 51 621 431 621 1385 
C 621 2358 1094 2700 1472 2700 
C 1722 2700 2093 2582 2234 2240 
z
" transform="scale(0.015625)"/>
      </defs>
      <use xlink:href="#CMR17-41" transform="scale(0.996264)"/>
      <use xlink:href="#CMR17-6e" transform="translate(69.07243 0) scale(0.996264)"/>
      <use xlink:href="#CMR17-61" transform="translate(119.9678 0) scale(0.996264)"/>
      <use xlink:href="#CMR17-6c" transform="translate(165.658277 0) scale(0.996264)"/>
      <use xlink:href="#CMR17-79" transform="translate(190.529335 0) scale(0.996264)"/>
      <use xlink:href="#CMR17-74" transform="translate(238.822251 0) scale(0.996264)"/>
      <use xlink:href="#CMR17-69" transform="translate(274.103019 0) scale(0.996264)"/>
      <use xlink:href="#CMR17-63" transform="translate(298.974077 0) scale(0.996264)"/>
      <use xlink:href="#CMR17-61" transform="translate(339.459738 0) scale(0.996264)"/>
      <use xlink:href="#CMR17-6c" transform="translate(385.150215 0) scale(0.996264)"/>
     </g>
    </g>
    <g id="line2d_14">
     <path d="M 75.727758 29.437418 
L 85.727758 29.437418 
L 95.727758 29.437418 
" style="fill: none; stroke-dasharray: 2.775,1.2; stroke-dashoffset: 0; stroke: #ff0000; stroke-width: 0.75"/>
    </g>
    <g id="text_4">
     <!-- LBM -->
     <g transform="translate(103.727758 32.937418) scale(0.1 -0.1)">
      <defs>
       <path id="CMR17-4c" d="M 3469 1612 
L 3354 1612 
C 3302 981 3219 166 2125 166 
L 1530 166 
C 1274 166 1261 198 1261 414 
L 1261 3892 
C 1261 4121 1274 4185 1760 4185 
L 1901 4185 
L 1901 4352 
C 1638 4339 1331 4339 1069 4339 
C 870 4339 512 4339 326 4352 
L 326 4185 
C 768 4185 838 4185 838 3898 
L 838 453 
C 838 166 768 166 326 166 
L 326 0 
L 3315 0 
L 3469 1612 
z
" transform="scale(0.015625)"/>
       <path id="CMR17-42" d="M 333 4352 
L 333 4185 
C 774 4185 845 4185 845 3897 
L 845 451 
C 845 166 774 166 333 166 
L 333 0 
L 2534 0 
C 3354 0 3885 578 3885 1155 
C 3885 1726 3360 2214 2675 2259 
C 3290 2380 3718 2790 3718 3276 
C 3718 3808 3194 4352 2368 4352 
L 333 4352 
z
M 1248 2304 
L 1248 3936 
C 1248 4153 1261 4185 1517 4185 
L 2336 4185 
C 2970 4185 3251 3673 3251 3276 
C 3251 2790 2861 2304 2170 2304 
L 1248 2304 
z
M 1517 166 
C 1261 166 1248 198 1248 413 
L 1248 2201 
L 2432 2201 
C 3091 2201 3411 1624 3411 1161 
C 3411 698 3046 166 2349 166 
L 1517 166 
z
" transform="scale(0.015625)"/>
       <path id="CMR17-4d" d="M 1338 4249 
C 1299 4345 1293 4352 1158 4352 
L 339 4352 
L 339 4185 
C 781 4185 851 4185 851 3898 
L 851 624 
C 851 465 851 166 339 166 
L 339 0 
C 486 12 755 12 915 12 
C 1075 12 1344 12 1491 0 
L 1491 166 
C 979 166 979 465 979 624 
L 979 4159 
L 986 4159 
L 2490 102 
C 2515 38 2528 0 2579 0 
C 2630 0 2643 38 2669 102 
L 4186 4191 
L 4192 4191 
L 4192 453 
C 4192 166 4122 166 3680 166 
L 3680 0 
C 3853 12 4198 12 4384 12 
C 4570 12 4922 12 5094 0 
L 5094 166 
C 4653 166 4582 166 4582 453 
L 4582 3898 
C 4582 4185 4653 4185 5094 4185 
L 5094 4352 
L 4282 4352 
C 4147 4352 4141 4345 4102 4249 
L 2720 516 
L 1338 4249 
z
" transform="scale(0.015625)"/>
      </defs>
      <use xlink:href="#CMR17-4c" transform="scale(0.996264)"/>
      <use xlink:href="#CMR17-42" transform="translate(57.381408 0) scale(0.996264)"/>
      <use xlink:href="#CMR17-4d" transform="translate(122.570162 0) scale(0.996264)"/>
     </g>
    </g>
   </g>
  </g>
 </g>
 <defs>
  <clipPath id="p099e9bd70e">
   <path d="M 157.55976 80.28 
C 157.55976 70.131715 155.560769 60.082109 151.677189 50.706316 
C 147.793608 41.330523 142.100964 32.810879 134.925042 25.634958 
C 127.749121 18.459036 119.229477 12.766392 109.853684 8.882811 
C 100.477891 4.999231 90.428285 3.00024 80.28 3.00024 
C 70.131715 3.00024 60.082109 4.999231 50.706316 8.882811 
C 41.330523 12.766392 32.810879 18.459036 25.634958 25.634958 
C 18.459036 32.810879 12.766392 41.330523 8.882811 50.706316 
C 4.999231 60.082109 3.00024 70.131715 3.00024 80.28 
C 3.00024 90.428285 4.999231 100.477891 8.882811 109.853684 
C 12.766392 119.229477 18.459036 127.749121 25.634958 134.925042 
C 32.810879 142.100964 41.330523 147.793608 50.706316 151.677189 
C 60.082109 155.560769 70.131715 157.55976 80.28 157.55976 
C 90.428285 157.55976 100.477891 155.560769 109.853684 151.677189 
C 119.229477 147.793608 127.749121 142.100964 134.925042 134.925042 
C 142.100964 127.749121 147.793608 119.229477 151.677189 109.853684 
C 155.560769 100.477891 157.55976 90.428285 157.55976 80.28 
M 80.28 80.28 
C 80.28 80.28 80.28 80.28 80.28 80.28 
C 80.28 80.28 80.28 80.28 80.28 80.28 
C 80.28 80.28 80.28 80.28 80.28 80.28 
C 80.28 80.28 80.28 80.28 80.28 80.28 
C 80.28 80.28 80.28 80.28 80.28 80.28 
C 80.28 80.28 80.28 80.28 80.28 80.28 
C 80.28 80.28 80.28 80.28 80.28 80.28 
C 80.28 80.28 80.28 80.28 80.28 80.28 
C 80.28 80.28 80.28 80.28 80.28 80.28 
C 80.28 80.28 80.28 80.28 80.28 80.28 
C 80.28 80.28 80.28 80.28 80.28 80.28 
C 80.28 80.28 80.28 80.28 80.28 80.28 
C 80.28 80.28 80.28 80.28 80.28 80.28 
C 80.28 80.28 80.28 80.28 80.28 80.28 
C 80.28 80.28 80.28 80.28 80.28 80.28 
C 80.28 80.28 80.28 80.28 80.28 80.28 
M 157.55976 80.28 
z
"/>
  </clipPath>
 </defs>
</svg>
