<?xml version="1.0" encoding="utf-8" standalone="no"?>
<!DOCTYPE svg PUBLIC "-//W3C//DTD SVG 1.1//EN"
  "http://www.w3.org/Graphics/SVG/1.1/DTD/svg11.dtd">
<svg xmlns:xlink="http://www.w3.org/1999/xlink" width="241.1316pt" height="165.834pt" viewBox="0 0 241.1316 165.834" xmlns="http://www.w3.org/2000/svg" version="1.1">
 <metadata>
  <rdf:RDF xmlns:dc="http://purl.org/dc/elements/1.1/" xmlns:cc="http://creativecommons.org/ns#" xmlns:rdf="http://www.w3.org/1999/02/22-rdf-syntax-ns#">
   <cc:Work>
    <dc:type rdf:resource="http://purl.org/dc/dcmitype/StillImage"/>
    <dc:date>2025-01-20T22:19:47.861128</dc:date>
    <dc:format>image/svg+xml</dc:format>
    <dc:creator>
     <cc:Agent>
      <dc:title>Matplotlib v3.6.3, https://matplotlib.org/</dc:title>
     </cc:Agent>
    </dc:creator>
   </cc:Work>
  </rdf:RDF>
 </metadata>
 <defs>
  <style type="text/css">*{stroke-linejoin: round; stroke-linecap: butt}</style>
 </defs>
 <g id="figure_1">
  <g id="patch_1">
   <path d="M 0 165.834 
L 241.1316 165.834 
L 241.1316 0 
L 0 0 
z
" style="fill: #ffffff"/>
  </g>
  <g id="axes_1">
   <g id="patch_2">
    <path d="M 35.511414 125.215683 
L 230.3316 125.215683 
L 230.3316 10.8 
L 35.511414 10.8 
z
" style="fill: #ffffff"/>
   </g>
   <g id="matplotlib.axis_1">
    <g id="xtick_1">
     <g id="line2d_1">
      <defs>
       <path id="m1e460cbfed" d="M 0 0 
L 0 3.5 
" style="stroke: #000000; stroke-width: 0.8"/>
      </defs>
      <g>
       <use xlink:href="#m1e460cbfed" x="44.366877" y="125.215683" style="stroke: #000000; stroke-width: 0.8"/>
      </g>
     </g>
     <g id="text_1">
      <!-- $\mathdefault{0}$ -->
      <g transform="translate(41.87621 139.134182) scale(0.1 -0.1)">
       <defs>
        <path id="CMR17-30" d="M 2688 2038 
C 2688 2430 2682 3099 2413 3613 
C 2176 4063 1798 4224 1466 4224 
C 1158 4224 768 4082 525 3620 
C 269 3137 243 2539 243 2038 
C 243 1671 250 1112 448 623 
C 723 -39 1216 -128 1466 -128 
C 1760 -128 2208 -7 2470 604 
C 2662 1048 2688 1568 2688 2038 
z
M 1466 -26 
C 1056 -26 813 328 723 816 
C 653 1196 653 1749 653 2109 
C 653 2604 653 3015 736 3407 
C 858 3954 1216 4121 1466 4121 
C 1728 4121 2067 3947 2189 3420 
C 2272 3054 2278 2623 2278 2109 
C 2278 1691 2278 1176 2202 797 
C 2067 96 1690 -26 1466 -26 
z
" transform="scale(0.015625)"/>
       </defs>
       <use xlink:href="#CMR17-30" transform="scale(0.996264)"/>
      </g>
     </g>
    </g>
    <g id="xtick_2">
     <g id="line2d_2">
      <g>
       <use xlink:href="#m1e460cbfed" x="103.403297" y="125.215683" style="stroke: #000000; stroke-width: 0.8"/>
      </g>
     </g>
     <g id="text_2">
      <!-- $\mathdefault{120}$ -->
      <g transform="translate(95.931294 139.134182) scale(0.1 -0.1)">
       <defs>
        <path id="CMR17-31" d="M 1702 4083 
C 1702 4217 1696 4224 1606 4224 
C 1357 3927 979 3833 621 3820 
C 602 3820 570 3820 563 3808 
C 557 3795 557 3782 557 3648 
C 755 3648 1088 3686 1344 3839 
L 1344 467 
C 1344 243 1331 166 781 166 
L 589 166 
L 589 0 
C 896 6 1216 12 1523 12 
C 1830 12 2150 6 2458 0 
L 2458 166 
L 2266 166 
C 1715 166 1702 236 1702 467 
L 1702 4083 
z
" transform="scale(0.015625)"/>
        <path id="CMR17-32" d="M 2669 990 
L 2554 990 
C 2490 537 2438 460 2413 422 
C 2381 371 1920 371 1830 371 
L 602 371 
C 832 620 1280 1073 1824 1596 
C 2214 1966 2669 2400 2669 3033 
C 2669 3788 2067 4224 1395 4224 
C 691 4224 262 3603 262 3027 
C 262 2777 448 2745 525 2745 
C 589 2745 781 2783 781 3007 
C 781 3206 614 3264 525 3264 
C 486 3264 448 3257 422 3244 
C 544 3788 915 4057 1306 4057 
C 1862 4057 2227 3616 2227 3033 
C 2227 2477 1901 1998 1536 1583 
L 262 147 
L 262 0 
L 2515 0 
L 2669 990 
z
" transform="scale(0.015625)"/>
       </defs>
       <use xlink:href="#CMR17-31" transform="scale(0.996264)"/>
       <use xlink:href="#CMR17-32" transform="translate(45.690477 0) scale(0.996264)"/>
       <use xlink:href="#CMR17-30" transform="translate(91.380954 0) scale(0.996264)"/>
      </g>
     </g>
    </g>
    <g id="xtick_3">
     <g id="line2d_3">
      <g>
       <use xlink:href="#m1e460cbfed" x="162.439717" y="125.215683" style="stroke: #000000; stroke-width: 0.8"/>
      </g>
     </g>
     <g id="text_3">
      <!-- $\mathdefault{240}$ -->
      <g transform="translate(154.967714 139.134182) scale(0.1 -0.1)">
       <defs>
        <path id="CMR17-34" d="M 2150 4147 
C 2150 4281 2144 4288 2029 4288 
L 128 1254 
L 128 1088 
L 1779 1088 
L 1779 460 
C 1779 230 1766 166 1318 166 
L 1197 166 
L 1197 0 
C 1402 12 1747 12 1965 12 
C 2182 12 2528 12 2733 0 
L 2733 166 
L 2611 166 
C 2163 166 2150 230 2150 460 
L 2150 1088 
L 2803 1088 
L 2803 1254 
L 2150 1254 
L 2150 4147 
z
M 1798 3723 
L 1798 1254 
L 256 1254 
L 1798 3723 
z
" transform="scale(0.015625)"/>
       </defs>
       <use xlink:href="#CMR17-32" transform="scale(0.996264)"/>
       <use xlink:href="#CMR17-34" transform="translate(45.690477 0) scale(0.996264)"/>
       <use xlink:href="#CMR17-30" transform="translate(91.380954 0) scale(0.996264)"/>
      </g>
     </g>
    </g>
    <g id="xtick_4">
     <g id="line2d_4">
      <g>
       <use xlink:href="#m1e460cbfed" x="221.476137" y="125.215683" style="stroke: #000000; stroke-width: 0.8"/>
      </g>
     </g>
     <g id="text_4">
      <!-- $\mathdefault{360}$ -->
      <g transform="translate(214.004134 139.134182) scale(0.1 -0.1)">
       <defs>
        <path id="CMR17-33" d="M 1414 2176 
C 1984 2176 2234 1673 2234 1094 
C 2234 322 1824 25 1453 25 
C 1114 25 563 193 390 691 
C 422 678 454 678 486 678 
C 640 678 755 780 755 947 
C 755 1132 614 1216 486 1216 
C 378 1216 211 1164 211 927 
C 211 335 787 -128 1466 -128 
C 2176 -128 2720 432 2720 1087 
C 2720 1718 2208 2176 1600 2246 
C 2086 2347 2554 2776 2554 3353 
C 2554 3856 2048 4224 1472 4224 
C 890 4224 378 3862 378 3347 
C 378 3123 544 3084 627 3084 
C 762 3084 877 3167 877 3334 
C 877 3500 762 3584 627 3584 
C 602 3584 570 3584 544 3571 
C 730 3999 1235 4076 1459 4076 
C 1683 4076 2106 3966 2106 3347 
C 2106 3167 2080 2851 1862 2574 
C 1670 2329 1453 2316 1242 2297 
C 1210 2297 1062 2284 1037 2284 
C 992 2278 966 2272 966 2227 
C 966 2182 973 2176 1101 2176 
L 1414 2176 
z
" transform="scale(0.015625)"/>
        <path id="CMR17-36" d="M 678 2198 
C 678 3712 1395 4076 1811 4076 
C 1946 4076 2272 4049 2400 3782 
C 2298 3782 2106 3782 2106 3558 
C 2106 3385 2246 3328 2336 3328 
C 2394 3328 2566 3353 2566 3571 
C 2566 3987 2246 4224 1805 4224 
C 1043 4224 243 3411 243 2011 
C 243 257 966 -128 1478 -128 
C 2099 -128 2688 431 2688 1295 
C 2688 2101 2170 2688 1517 2688 
C 1126 2688 838 2430 678 1979 
L 678 2198 
z
M 1478 25 
C 691 25 691 1212 691 1450 
C 691 1914 909 2585 1504 2585 
C 1613 2585 1926 2585 2138 2140 
C 2253 1889 2253 1624 2253 1302 
C 2253 954 2253 696 2118 438 
C 1978 173 1773 25 1478 25 
z
" transform="scale(0.015625)"/>
       </defs>
       <use xlink:href="#CMR17-33" transform="scale(0.996264)"/>
       <use xlink:href="#CMR17-36" transform="translate(45.690477 0) scale(0.996264)"/>
       <use xlink:href="#CMR17-30" transform="translate(91.380954 0) scale(0.996264)"/>
      </g>
     </g>
    </g>
    <g id="text_5">
     <!-- $\phi (^o)$ -->
     <g transform="translate(123.863791 152.54334) scale(0.1 -0.1)">
      <defs>
       <path id="CMMI12-1e" d="M 2752 4358 
C 2752 4416 2707 4416 2688 4416 
C 2630 4416 2624 4403 2598 4294 
L 2253 2924 
C 2234 2841 2227 2835 2221 2828 
C 2214 2816 2170 2809 2157 2809 
C 1107 2720 301 1863 301 1071 
C 301 387 832 -32 1498 -71 
C 1446 -266 1402 -467 1350 -662 
C 1261 -995 1210 -1204 1210 -1229 
C 1210 -1242 1210 -1280 1274 -1280 
C 1293 -1280 1318 -1280 1331 -1255 
C 1344 -1242 1382 -1089 1408 -1008 
L 1645 -71 
C 2739 -13 3571 875 3571 1673 
C 3571 2313 3085 2771 2374 2816 
L 2752 4358 
z
M 2336 2688 
C 2758 2662 3181 2428 3181 1806 
C 3181 1090 2675 140 1677 64 
L 2336 2688 
z
M 1530 57 
C 1216 76 691 241 691 938 
C 691 1737 1274 2624 2195 2681 
L 1530 57 
z
" transform="scale(0.015625)"/>
       <path id="CMR17-28" d="M 1958 -1562 
C 1958 -1556 1958 -1543 1939 -1524 
C 1645 -1223 858 -403 858 1596 
C 858 3595 1632 4408 1946 4729 
C 1946 4735 1958 4748 1958 4767 
C 1958 4787 1939 4800 1914 4800 
C 1843 4800 1299 4325 986 3620 
C 666 2909 576 2218 576 1603 
C 576 1141 621 360 1005 -467 
C 1312 -1133 1837 -1600 1914 -1600 
C 1946 -1600 1958 -1588 1958 -1562 
z
" transform="scale(0.015625)"/>
       <path id="CMMI12-6f" d="M 2918 1755 
C 2918 2362 2522 2816 1939 2816 
C 1094 2816 262 1896 262 996 
C 262 389 659 -64 1242 -64 
C 2093 -64 2918 855 2918 1755 
z
M 1248 64 
C 928 64 691 319 691 766 
C 691 1060 845 1711 1024 2030 
C 1312 2522 1670 2687 1933 2687 
C 2246 2687 2490 2432 2490 1985 
C 2490 1730 2355 1047 2112 657 
C 1850 230 1498 64 1248 64 
z
" transform="scale(0.015625)"/>
       <path id="CMR17-29" d="M 1683 1596 
C 1683 2057 1638 2839 1254 3665 
C 947 4332 422 4800 346 4800 
C 326 4800 301 4793 301 4761 
C 301 4748 307 4742 314 4729 
C 621 4408 1402 3595 1402 1603 
C 1402 -396 627 -1210 314 -1530 
C 307 -1543 301 -1549 301 -1562 
C 301 -1594 326 -1600 346 -1600 
C 416 -1600 960 -1127 1274 -422 
C 1594 289 1683 981 1683 1596 
z
" transform="scale(0.015625)"/>
      </defs>
      <use xlink:href="#CMMI12-1e" transform="scale(0.996264)"/>
      <use xlink:href="#CMR17-28" transform="translate(57.73418 0) scale(0.996264)"/>
      <use xlink:href="#CMMI12-6f" transform="translate(93.014948 36.153639) scale(0.697382)"/>
      <use xlink:href="#CMR17-29" transform="translate(126.339642 0) scale(0.996264)"/>
     </g>
    </g>
   </g>
   <g id="matplotlib.axis_2">
    <g id="ytick_1">
     <g id="line2d_5">
      <defs>
       <path id="mebdc00f768" d="M 0 0 
L -3.5 0 
" style="stroke: #000000; stroke-width: 0.8"/>
      </defs>
      <g>
       <use xlink:href="#mebdc00f768" x="35.511414" y="92.82067" style="stroke: #000000; stroke-width: 0.8"/>
      </g>
     </g>
     <g id="text_6">
      <!-- $\mathdefault{−10}$ -->
      <g transform="translate(10.8 96.279919) scale(0.1 -0.1)">
       <defs>
        <path id="CMSY10-0" d="M 4218 1472 
C 4326 1472 4442 1472 4442 1600 
C 4442 1728 4326 1728 4218 1728 
L 755 1728 
C 646 1728 531 1728 531 1600 
C 531 1472 646 1472 755 1472 
L 4218 1472 
z
" transform="scale(0.015625)"/>
       </defs>
       <use xlink:href="#CMSY10-0" transform="scale(0.996264)"/>
       <use xlink:href="#CMR17-31" transform="translate(77.487468 0) scale(0.996264)"/>
       <use xlink:href="#CMR17-30" transform="translate(123.177945 0) scale(0.996264)"/>
      </g>
     </g>
    </g>
    <g id="ytick_2">
     <g id="line2d_6">
      <g>
       <use xlink:href="#mebdc00f768" x="35.511414" y="59.368476" style="stroke: #000000; stroke-width: 0.8"/>
      </g>
     </g>
     <g id="text_7">
      <!-- $\mathdefault{0}$ -->
      <g transform="translate(23.530079 62.827725) scale(0.1 -0.1)">
       <use xlink:href="#CMR17-30" transform="scale(0.996264)"/>
      </g>
     </g>
    </g>
    <g id="ytick_3">
     <g id="line2d_7">
      <g>
       <use xlink:href="#mebdc00f768" x="35.511414" y="25.916282" style="stroke: #000000; stroke-width: 0.8"/>
      </g>
     </g>
     <g id="text_8">
      <!-- $\mathdefault{10}$ -->
      <g transform="translate(18.548744 29.375531) scale(0.1 -0.1)">
       <use xlink:href="#CMR17-31" transform="scale(0.996264)"/>
       <use xlink:href="#CMR17-30" transform="translate(45.690477 0) scale(0.996264)"/>
      </g>
     </g>
    </g>
   </g>
   <g id="line2d_8">
    <path d="M 44.366877 120.01497 
L 44.465271 119.914231 
L 44.662059 119.110705 
L 44.957241 116.430051 
L 45.350818 110.265834 
L 45.891985 97.662022 
L 46.777531 70.560962 
L 48.007456 33.731344 
L 48.597821 22.024669 
L 49.040594 17.193798 
L 49.335776 16.032132 
L 49.43417 16.015382 
L 49.581761 16.333653 
L 49.827746 17.757728 
L 50.172125 21.518055 
L 50.664095 29.977234 
L 51.402051 47.287833 
L 52.828764 81.032036 
L 53.369931 88.787828 
L 53.763507 91.597426 
L 53.960295 92.034107 
L 54.058689 92.006889 
L 54.206281 91.6606 
L 54.452266 90.283713 
L 54.796645 86.761938 
L 55.288615 78.91421 
L 56.02657 62.858728 
L 57.453284 31.377056 
L 57.994451 24.103927 
L 58.388027 21.474529 
L 58.584815 21.075013 
L 58.683209 21.108221 
L 58.8308 21.448509 
L 59.076785 22.778202 
L 59.421164 26.166284 
L 59.913134 33.72345 
L 60.65109 49.260488 
L 62.127 81.048813 
L 62.668167 88.153031 
L 63.061744 90.770361 
L 63.307729 91.220538 
L 63.45532 91.046574 
L 63.652108 90.302433 
L 63.94729 88.125737 
L 64.340866 83.406711 
L 64.93123 73.202286 
L 67.145096 31.117023 
L 67.587869 27.5691 
L 67.883051 26.729293 
L 68.030642 26.781226 
L 68.22743 27.337437 
L 68.522612 29.186392 
L 68.916189 33.405882 
L 69.457356 41.908226 
L 70.53969 63.596679 
L 71.425236 79.286157 
L 71.966404 85.288437 
L 72.310783 87.190465 
L 72.556768 87.560583 
L 72.704359 87.381946 
L 72.901147 86.681304 
L 73.196329 84.672669 
L 73.639102 79.697057 
L 74.229466 70.181797 
L 76.246544 34.971792 
L 76.689317 31.259583 
L 76.984499 30.168067 
L 77.13209 30.057581 
L 77.279681 30.239444 
L 77.476469 30.932647 
L 77.771651 32.908168 
L 78.214425 37.796372 
L 78.804789 47.157325 
L 80.871064 82.558336 
L 81.313837 86.018082 
L 81.609019 86.938705 
L 81.75661 86.964473 
L 81.904201 86.698988 
L 82.150186 85.617442 
L 82.494565 82.818318 
L 82.986535 76.519612 
L 83.724491 63.49281 
L 85.200401 36.883245 
L 85.741568 31.10598 
L 86.085947 29.274622 
L 86.331932 28.924378 
L 86.479523 29.104331 
L 86.676312 29.796201 
L 86.971494 31.773914 
L 87.36507 36.03041 
L 87.955434 45.223308 
L 90.1693 83.090139 
L 90.562876 85.922621 
L 90.858058 86.715713 
L 91.005649 86.667736 
L 91.202437 86.141172 
L 91.497619 84.37924 
L 91.891195 80.327958 
L 92.432362 72.081041 
L 93.367106 53.643347 
L 94.400243 34.593098 
L 94.94141 28.165097 
L 95.334986 25.755579 
L 95.580972 25.31792 
L 95.728563 25.458942 
L 95.925351 26.115557 
L 96.220533 28.077744 
L 96.614109 32.386307 
L 97.204473 41.8164 
L 99.56593 83.423186 
L 99.959506 86.019543 
L 100.205491 86.582459 
L 100.353082 86.518682 
L 100.54987 85.966632 
L 100.845052 84.16278 
L 101.238628 80.063768 
L 101.779796 71.803671 
L 102.812933 51.642742 
L 103.698479 36.030278 
L 104.239646 29.89622 
L 104.584026 27.876359 
L 104.830011 27.421304 
L 104.977602 27.55307 
L 105.17439 28.200186 
L 105.469572 30.157332 
L 105.863148 34.483321 
L 106.404315 43.102052 
L 107.437453 64.097677 
L 108.372196 81.287829 
L 108.913363 87.657662 
L 109.306939 89.973258 
L 109.503727 90.333131 
L 109.651318 90.247489 
L 109.848106 89.662129 
L 110.143288 87.802516 
L 110.536865 83.62725 
L 111.078032 75.283967 
L 112.209563 53.247447 
L 113.045912 39.285127 
L 113.537883 34.237254 
L 113.882262 32.560941 
L 114.07905 32.347394 
L 114.226641 32.549877 
L 114.423429 33.302179 
L 114.718611 35.439712 
L 115.112187 40.043576 
L 115.702551 50.035444 
L 117.965614 92.535199 
L 118.35919 95.507786 
L 118.605175 96.200919 
L 118.752766 96.167712 
L 118.900357 95.794088 
L 119.146342 94.418777 
L 119.490722 90.962128 
L 119.982692 83.222565 
L 120.67145 68.215988 
L 122.442543 27.615975 
L 122.934513 21.153688 
L 123.278892 18.785478 
L 123.524877 18.267837 
L 123.623271 18.339749 
L 123.820059 18.960366 
L 124.115241 21.058163 
L 124.508817 25.895394 
L 125.049984 35.761565 
L 125.984728 57.954555 
L 127.067062 82.299897 
L 127.608229 90.309226 
L 128.001805 93.533829 
L 128.247791 94.325339 
L 128.395382 94.338165 
L 128.542973 94.005689 
L 128.788958 92.699178 
L 129.133337 89.370891 
L 129.625307 81.968086 
L 130.363262 66.83971 
L 131.789976 37.271114 
L 132.331143 30.532084 
L 132.675522 28.348067 
L 132.921507 27.883057 
L 133.069098 28.050709 
L 133.265886 28.79245 
L 133.561068 30.984766 
L 133.954644 35.774128 
L 134.545009 46.215972 
L 136.808071 90.491778 
L 137.201648 93.594514 
L 137.447633 94.338165 
L 137.595224 94.325339 
L 137.742815 93.965619 
L 137.9888 92.601581 
L 138.333179 89.143654 
L 138.825149 81.393093 
L 139.513907 66.422606 
L 141.235803 27.436895 
L 141.727773 21.058163 
L 142.072152 18.745955 
L 142.318137 18.267837 
L 142.465728 18.45917 
L 142.662516 19.26934 
L 142.957699 21.643187 
L 143.351275 26.82107 
L 143.941639 38.154875 
L 145.07317 65.816293 
L 145.958717 85.007724 
L 146.499884 92.655923 
L 146.89346 95.593955 
L 147.139445 96.216554 
L 147.287036 96.136661 
L 147.483824 95.507786 
L 147.779006 93.483873 
L 148.172582 88.934677 
L 148.762946 78.920872 
L 151.026009 36.410711 
L 151.419585 33.302179 
L 151.714767 32.380292 
L 151.862359 32.385306 
L 152.00995 32.700049 
L 152.255935 33.899024 
L 152.600314 36.918747 
L 153.092284 43.589003 
L 153.879436 58.094473 
L 155.158559 81.616573 
L 155.699726 87.802516 
L 156.044105 89.858499 
L 156.29009 90.338446 
L 156.437681 90.220821 
L 156.634469 89.591353 
L 156.929651 87.657662 
L 157.323227 83.356772 
L 157.864395 74.76101 
L 158.897532 53.776079 
L 159.832275 36.559827 
L 160.373442 30.157332 
L 160.767019 27.809643 
L 161.013004 27.421304 
L 161.160595 27.593609 
L 161.357383 28.29181 
L 161.652565 30.311125 
L 162.046141 34.673336 
L 162.636505 44.099557 
L 164.850371 82.84144 
L 165.243947 85.7462 
L 165.539129 86.57345 
L 165.68672 86.536666 
L 165.883508 86.019543 
L 166.17869 84.261613 
L 166.572266 80.20135 
L 167.113434 71.92822 
L 168.097374 52.445508 
L 169.081314 34.447585 
L 169.622482 28.077744 
L 170.016058 25.720754 
L 170.262043 25.31792 
L 170.409634 25.47992 
L 170.606422 26.164022 
L 170.901604 28.165097 
L 171.29518 32.518076 
L 171.885544 41.991701 
L 174.197804 83.077892 
L 174.59138 85.927606 
L 174.886562 86.716849 
L 175.034153 86.665517 
L 175.230941 86.136212 
L 175.526123 84.380654 
L 175.9197 80.373912 
L 176.460867 72.291607 
L 177.494004 52.585251 
L 178.37955 37.353611 
L 178.920718 31.368412 
L 179.265097 29.386197 
L 179.511082 28.924378 
L 179.658673 29.037205 
L 179.855461 29.640627 
L 180.150643 31.490825 
L 180.544219 35.594202 
L 181.134583 44.614475 
L 183.446843 83.764625 
L 183.840419 86.361313 
L 184.086404 86.964473 
L 184.233995 86.938705 
L 184.430784 86.452458 
L 184.725966 84.776847 
L 185.119542 80.895391 
L 185.660709 72.995955 
L 186.644649 54.524576 
L 187.579393 38.46652 
L 188.12056 32.503473 
L 188.464939 30.52219 
L 188.710924 30.057581 
L 188.858515 30.168067 
L 189.055303 30.768192 
L 189.350485 32.614247 
L 189.744061 36.715707 
L 190.285228 44.885922 
L 191.41676 66.514834 
L 192.253109 80.355055 
L 192.745079 85.46611 
L 193.089458 87.255987 
L 193.286246 87.560583 
L 193.433838 87.438665 
L 193.630626 86.809647 
L 193.925808 84.889044 
L 194.319384 80.626838 
L 194.860551 72.121076 
L 195.893688 51.442773 
L 196.779235 35.449224 
L 197.320402 29.186392 
L 197.664781 27.146675 
L 197.910766 26.711607 
L 198.058357 26.869753 
L 198.255145 27.5691 
L 198.550327 29.640778 
L 198.943903 34.182866 
L 199.534268 44.138757 
L 201.895724 88.125737 
L 202.289301 90.746986 
L 202.535286 91.220538 
L 202.682877 91.06147 
L 202.879665 90.332119 
L 203.174847 88.153031 
L 203.568423 83.352534 
L 204.10959 73.785656 
L 205.09353 51.544224 
L 206.077471 31.158219 
L 206.618638 24.019635 
L 206.963017 21.638844 
L 207.209002 21.072195 
L 207.307396 21.116698 
L 207.454987 21.474529 
L 207.700972 22.83788 
L 208.045351 26.290544 
L 208.537322 33.993705 
L 209.275277 49.884622 
L 210.751187 82.40811 
L 211.292355 89.4613 
L 211.636734 91.6606 
L 211.833522 92.040944 
L 211.931916 91.986324 
L 212.079507 91.597426 
L 212.325492 90.138341 
L 212.669871 86.456818 
L 213.161841 78.238679 
L 213.899796 61.229899 
L 215.375707 26.207283 
L 215.916874 18.629183 
L 216.261253 16.333653 
L 216.458041 16.000713 
L 216.556435 16.109794 
L 216.753223 16.884283 
L 217.048406 19.429404 
L 217.441982 25.303882 
L 217.983149 37.458935 
L 218.819498 62.542629 
L 220.197015 103.912694 
L 220.787379 115.156444 
L 221.180955 119.110705 
L 221.42694 119.989779 
L 221.476137 120.01497 
L 221.476137 120.01497 
" clip-path="url(#p7f06b57617)" style="fill: none; stroke: #000000; stroke-linecap: square"/>
   </g>
   <g id="line2d_9">
    <path d="M 44.366877 114.304188 
L 44.465271 114.205398 
L 44.662059 113.483141 
L 44.957241 111.11084 
L 45.350818 105.663214 
L 45.891985 94.436974 
L 46.679137 72.637488 
L 47.761471 42.618957 
L 48.45023 28.682945 
L 48.9422 22.411568 
L 49.237382 20.607979 
L 49.43417 20.361296 
L 49.581761 20.602926 
L 49.827746 21.670829 
L 50.122928 24.160534 
L 50.516504 29.75766 
L 51.303657 44.354884 
L 52.828764 76.487406 
L 53.320734 82.903921 
L 53.71431 85.88879 
L 53.960295 86.570318 
L 54.107887 86.591515 
L 54.255478 86.249118 
L 54.55066 84.574043 
L 54.944236 81.288761 
L 55.387009 74.496352 
L 56.321752 57.463887 
L 57.896057 30.224361 
L 58.289633 26.984768 
L 58.535618 26.336156 
L 58.683209 26.394428 
L 58.879997 26.892882 
L 59.175179 28.37567 
L 59.519558 31.570984 
L 60.060726 39.132523 
L 60.847878 53.551438 
L 62.225394 78.376105 
L 62.766561 84.045733 
L 63.110941 85.799741 
L 63.307729 86.081475 
L 63.45532 85.965682 
L 63.652108 85.420403 
L 63.996487 83.474015 
L 64.340866 80.429491 
L 64.783639 73.938509 
L 65.767579 56.270279 
L 66.75152 40.117225 
L 67.292687 34.336897 
L 67.686263 32.115077 
L 67.932248 31.667786 
L 68.079839 31.73385 
L 68.276627 32.254168 
L 68.571809 33.859684 
L 68.965386 37.593349 
L 69.55575 45.657534 
L 71.818812 79.425048 
L 72.261586 81.920782 
L 72.507571 82.275079 
L 72.704359 82.25251 
L 72.85195 82.007321 
L 73.097935 80.995068 
L 73.393117 78.529881 
L 74.081875 70.213339 
L 76.492529 36.376351 
L 76.787711 35.04805 
L 77.082893 34.786904 
L 77.230484 34.836542 
L 77.378075 35.145373 
L 77.62406 36.305116 
L 78.066834 39.731622 
L 78.608001 46.39748 
L 79.591941 61.809294 
L 80.526684 75.072281 
L 81.117049 80.478592 
L 81.412231 81.811881 
L 81.609019 81.968929 
L 81.805807 81.774071 
L 82.150186 80.952651 
L 82.346974 80.007462 
L 82.642156 77.17705 
L 83.872082 60.479719 
L 85.102007 40.833545 
L 85.54478 37.027294 
L 86.282735 33.599566 
L 86.430326 33.599987 
L 86.627114 34.052677 
L 86.8731 35.232794 
L 87.266676 38.529323 
L 87.807843 45.315033 
L 88.791783 61.232373 
L 89.726527 75.156821 
L 90.267694 80.337468 
L 90.612073 81.983825 
L 90.858058 82.291183 
L 91.005649 82.079605 
L 91.202437 81.145109 
L 92.038786 75.005935 
L 92.579953 67.629655 
L 93.268712 54.834159 
L 93.760682 46.80485 
L 95.089001 30.899184 
L 95.43338 30.090405 
L 95.679366 29.888332 
L 95.826957 30.025444 
L 96.023745 30.728043 
L 96.318927 32.904102 
L 96.860094 38.904019 
L 97.499655 48.695683 
L 99.221551 76.325107 
L 99.713521 80.57587 
L 100.0579 82.102201 
L 100.303885 82.282753 
L 100.500673 82.23915 
L 100.648264 81.920077 
L 100.845052 80.681254 
L 101.484614 73.873467 
L 102.271766 61.264909 
L 103.009721 49.042849 
L 104.092055 34.786942 
L 104.436434 32.697525 
L 104.731617 32.112852 
L 104.928405 32.028384 
L 105.075996 32.244274 
L 105.321981 33.320553 
L 105.66636 35.79514 
L 106.15833 41.553475 
L 106.945482 54.334683 
L 108.322999 77.505236 
L 108.864166 83.303436 
L 109.257742 85.538802 
L 109.503727 86.004323 
L 109.651318 85.933336 
L 109.848106 85.434183 
L 110.143288 83.857185 
L 110.536865 80.319563 
L 111.078032 73.233604 
L 112.061972 56.777224 
L 112.996715 42.378031 
L 113.439489 38.747527 
L 113.833065 36.853284 
L 114.07905 36.509992 
L 114.226641 36.666033 
L 114.472626 37.540141 
L 114.767808 39.634114 
L 115.259778 44.9154 
L 115.800945 53.256177 
L 117.670432 84.960629 
L 118.113205 89.286467 
L 118.506781 91.154208 
L 118.703569 91.416209 
L 118.85116 91.275289 
L 119.047948 90.591873 
L 119.343131 88.395391 
L 119.835101 82.653976 
L 120.523859 70.454879 
L 122.048966 39.666373 
L 122.590134 31.476422 
L 123.180498 26.313548 
L 123.47568 25.486283 
L 123.623271 25.441574 
L 123.770862 25.70745 
L 124.016847 26.912558 
L 124.361226 29.888662 
L 124.754802 35.280898 
L 125.640349 51.182393 
L 126.919471 76.405628 
L 127.460638 84.096664 
L 127.903411 87.765026 
L 128.198594 88.839031 
L 128.346185 88.89945 
L 128.493776 88.649515 
L 128.739761 87.611869 
L 129.08414 84.951477 
L 129.57611 79.127234 
L 130.264868 68.21434 
L 131.494794 44.710411 
L 132.085158 36.980009 
L 132.527931 33.636442 
L 132.823113 32.737106 
L 132.970704 32.701687 
L 133.118295 32.943595 
L 133.36428 33.956278 
L 133.708659 36.606908 
L 134.151433 41.930052 
L 134.790994 52.591057 
L 136.414495 81.292412 
L 136.955662 86.776326 
L 137.300042 88.602217 
L 137.546027 88.981493 
L 137.693618 88.79335 
L 137.890406 88.050925 
L 138.234785 85.552226 
L 138.677558 80.326729 
L 139.317119 69.175051 
L 140.153469 52.09253 
L 140.940621 37.566998 
L 141.580182 28.824036 
L 141.973758 26.060233 
L 142.219743 25.440325 
L 142.367334 25.501792 
L 142.564122 25.943212 
L 142.810107 27.293985 
L 143.302078 32.107939 
L 143.646457 37.060144 
L 145.023973 64.055798 
L 145.958717 81.983327 
L 146.450687 87.953442 
L 146.844263 90.807333 
L 147.090248 91.360394 
L 147.237839 91.291288 
L 147.434627 90.763487 
L 147.729809 89.17786 
L 148.074188 86.000286 
L 148.664552 77.820914 
L 149.500902 63.21291 
L 150.68163 43.59983 
L 151.222797 38.39322 
L 151.567176 36.788152 
L 151.763964 36.537425 
L 151.911556 36.677802 
L 152.108344 37.238943 
L 152.403526 38.838984 
L 152.846299 42.499787 
L 153.239875 47.973174 
L 155.502938 82.296697 
L 155.945711 85.191282 
L 156.240893 85.893555 
L 156.388484 85.849795 
L 156.585272 85.395224 
L 156.831257 84.176904 
L 157.224833 80.802584 
L 157.766001 73.752271 
L 158.651547 58.589382 
L 159.684684 41.329491 
L 160.225851 35.194707 
L 160.619427 32.722918 
L 160.865413 32.00668 
L 161.013004 32.012047 
L 161.258989 32.308251 
L 161.455777 32.92009 
L 161.701762 34.43415 
L 162.095338 38.800265 
L 162.833293 49.235836 
L 163.522051 60.538784 
L 164.260007 72.635623 
L 164.751977 78.407401 
L 165.19475 82.035423 
L 165.391538 82.366386 
L 165.637523 82.325603 
L 165.785114 82.153579 
L 165.981902 81.471437 
L 166.326281 79.102616 
L 166.719858 75.108848 
L 167.408616 64.875224 
L 169.278102 35.316538 
L 169.81927 30.72369 
L 170.065255 29.973924 
L 170.262043 29.957641 
L 170.458831 30.250179 
L 170.80321 31.204914 
L 171.049195 32.998324 
L 171.491968 38.673135 
L 172.525105 54.048156 
L 173.459849 70.789908 
L 174.001016 77.013848 
L 174.788168 81.967468 
L 174.984956 82.318802 
L 175.132547 82.197861 
L 175.329335 81.651524 
L 175.624518 79.94112 
L 176.067291 75.651759 
L 176.706852 66.705532 
L 178.625536 37.947765 
L 179.068309 34.629918 
L 179.363491 33.65921 
L 179.511082 33.56204 
L 179.658673 33.839905 
L 179.953855 35.271456 
L 180.593416 39.371797 
L 181.085386 45.352371 
L 181.724948 56.03309 
L 182.315312 65.55008 
L 183.643631 80.829387 
L 183.98801 81.697605 
L 184.233995 81.956586 
L 184.381586 81.867169 
L 184.529178 81.469446 
L 184.775163 80.063326 
L 185.267133 75.50182 
L 185.857497 67.751939 
L 187.923772 38.273535 
L 188.415742 35.250441 
L 188.661727 34.757103 
L 188.858515 34.815081 
L 189.1045 35.159306 
L 189.301288 36.047956 
L 189.645667 39.272494 
L 190.186834 45.836525 
L 192.499094 79.130935 
L 192.843473 81.580113 
L 193.138655 82.303553 
L 193.335444 82.309052 
L 193.532232 82.064115 
L 193.72902 81.311906 
L 194.122596 78.577444 
L 194.614566 72.976915 
L 195.401718 60.638921 
L 196.779235 38.716514 
L 197.320402 33.509781 
L 197.664781 31.957218 
L 197.861569 31.704732 
L 198.00916 31.817387 
L 198.205948 32.372047 
L 198.50113 34.064657 
L 198.894706 37.812836 
L 199.435874 45.298898 
L 200.419814 62.820545 
L 201.452951 79.919473 
L 201.895724 83.824233 
L 202.289301 85.725738 
L 202.535286 86.029016 
L 202.682877 85.850733 
L 202.879665 85.130368 
L 203.174847 83.121415 
L 203.666817 77.552556 
L 204.257181 68.048376 
L 206.225062 32.62567 
L 206.717032 27.993632 
L 207.061411 26.576903 
L 207.258199 26.329728 
L 207.40579 26.501965 
L 207.602578 27.296886 
L 207.89776 29.792382 
L 208.438928 36.638177 
L 209.22608 51.539802 
L 210.013232 66.842725 
L 210.751187 79.365027 
L 211.144764 83.585412 
L 211.636734 86.37101 
L 211.833522 86.549537 
L 211.981113 86.302464 
L 212.227098 85.257006 
L 212.571477 82.228526 
L 213.01425 76.278 
L 213.752205 61.687836 
L 215.720086 24.0946 
L 216.113662 21.147969 
L 216.359647 20.455799 
L 216.507238 20.469801 
L 216.654829 20.890103 
L 216.900814 22.565464 
L 217.294391 27.381721 
L 217.835558 37.361229 
L 218.721104 58.960568 
L 220.147818 99.236177 
L 220.738182 109.524152 
L 221.131758 113.271026 
L 221.377743 114.227535 
L 221.476137 114.304188 
L 221.476137 114.304188 
" clip-path="url(#p7f06b57617)" style="fill: none; stroke-dasharray: 3.7,1.6; stroke-dashoffset: 0; stroke: #ff0000"/>
   </g>
   <g id="patch_3">
    <path d="M 35.511414 125.215683 
L 35.511414 10.8 
" style="fill: none; stroke: #000000; stroke-width: 0.8; stroke-linejoin: miter; stroke-linecap: square"/>
   </g>
   <g id="patch_4">
    <path d="M 230.3316 125.215683 
L 230.3316 10.8 
" style="fill: none; stroke: #000000; stroke-width: 0.8; stroke-linejoin: miter; stroke-linecap: square"/>
   </g>
   <g id="patch_5">
    <path d="M 35.511414 125.215683 
L 230.3316 125.215683 
" style="fill: none; stroke: #000000; stroke-width: 0.8; stroke-linejoin: miter; stroke-linecap: square"/>
   </g>
   <g id="patch_6">
    <path d="M 35.511414 10.8 
L 230.3316 10.8 
" style="fill: none; stroke: #000000; stroke-width: 0.8; stroke-linejoin: miter; stroke-linecap: square"/>
   </g>
  </g>
 </g>
 <defs>
  <clipPath id="p7f06b57617">
   <rect x="35.511414" y="10.8" width="194.820186" height="114.415683"/>
  </clipPath>
 </defs>
</svg>
