<?xml version="1.0" encoding="utf-8" standalone="no"?>
<!DOCTYPE svg PUBLIC "-//W3C//DTD SVG 1.1//EN"
  "http://www.w3.org/Graphics/SVG/1.1/DTD/svg11.dtd">
<svg xmlns:xlink="http://www.w3.org/1999/xlink" width="241.2pt" height="154.8pt" viewBox="0 0 241.2 154.8" xmlns="http://www.w3.org/2000/svg" version="1.1">
 <metadata>
  <rdf:RDF xmlns:dc="http://purl.org/dc/elements/1.1/" xmlns:cc="http://creativecommons.org/ns#" xmlns:rdf="http://www.w3.org/1999/02/22-rdf-syntax-ns#">
   <cc:Work>
    <dc:type rdf:resource="http://purl.org/dc/dcmitype/StillImage"/>
    <dc:date>2024-10-23T22:06:08.288414</dc:date>
    <dc:format>image/svg+xml</dc:format>
    <dc:creator>
     <cc:Agent>
      <dc:title>Matplotlib v3.6.3, https://matplotlib.org/</dc:title>
     </cc:Agent>
    </dc:creator>
   </cc:Work>
  </rdf:RDF>
 </metadata>
 <defs>
  <style type="text/css">*{stroke-linejoin: round; stroke-linecap: butt}</style>
 </defs>
 <g id="figure_1">
  <g id="patch_1">
   <path d="M 0 154.8 
L 241.2 154.8 
L 241.2 0 
L 0 0 
z
" style="fill: #ffffff"/>
  </g>
  <g id="axes_1">
   <g id="patch_2">
    <path d="M 39.668313 121.981443 
L 230.82024 121.981443 
L 230.82024 3.00024 
L 39.668313 3.00024 
z
" style="fill: #ffffff"/>
   </g>
   <g id="matplotlib.axis_1">
    <g id="xtick_1">
     <g id="line2d_1">
      <defs>
       <path id="mf339ada306" d="M 0 0 
L 0 3.5 
" style="stroke: #000000; stroke-width: 0.8"/>
      </defs>
      <g>
       <use xlink:href="#mf339ada306" x="48.357037" y="121.981443" style="stroke: #000000; stroke-width: 0.8"/>
      </g>
     </g>
     <g id="text_1">
      <!-- $\mathdefault{0}$ -->
      <g transform="translate(45.866369 135.899942) scale(0.1 -0.1)">
       <defs>
        <path id="CMR17-30" d="M 2688 2038 
C 2688 2430 2682 3099 2413 3613 
C 2176 4063 1798 4224 1466 4224 
C 1158 4224 768 4082 525 3620 
C 269 3137 243 2539 243 2038 
C 243 1671 250 1112 448 623 
C 723 -39 1216 -128 1466 -128 
C 1760 -128 2208 -7 2470 604 
C 2662 1048 2688 1568 2688 2038 
z
M 1466 -26 
C 1056 -26 813 328 723 816 
C 653 1196 653 1749 653 2109 
C 653 2604 653 3015 736 3407 
C 858 3954 1216 4121 1466 4121 
C 1728 4121 2067 3947 2189 3420 
C 2272 3054 2278 2623 2278 2109 
C 2278 1691 2278 1176 2202 797 
C 2067 96 1690 -26 1466 -26 
z
" transform="scale(0.015625)"/>
       </defs>
       <use xlink:href="#CMR17-30" transform="scale(0.996264)"/>
      </g>
     </g>
    </g>
    <g id="xtick_2">
     <g id="line2d_2">
      <g>
       <use xlink:href="#mf339ada306" x="93.949717" y="121.981443" style="stroke: #000000; stroke-width: 0.8"/>
      </g>
     </g>
     <g id="text_2">
      <!-- $\mathdefault{200}$ -->
      <g transform="translate(86.477714 135.899942) scale(0.1 -0.1)">
       <defs>
        <path id="CMR17-32" d="M 2669 990 
L 2554 990 
C 2490 537 2438 460 2413 422 
C 2381 371 1920 371 1830 371 
L 602 371 
C 832 620 1280 1073 1824 1596 
C 2214 1966 2669 2400 2669 3033 
C 2669 3788 2067 4224 1395 4224 
C 691 4224 262 3603 262 3027 
C 262 2777 448 2745 525 2745 
C 589 2745 781 2783 781 3007 
C 781 3206 614 3264 525 3264 
C 486 3264 448 3257 422 3244 
C 544 3788 915 4057 1306 4057 
C 1862 4057 2227 3616 2227 3033 
C 2227 2477 1901 1998 1536 1583 
L 262 147 
L 262 0 
L 2515 0 
L 2669 990 
z
" transform="scale(0.015625)"/>
       </defs>
       <use xlink:href="#CMR17-32" transform="scale(0.996264)"/>
       <use xlink:href="#CMR17-30" transform="translate(45.690477 0) scale(0.996264)"/>
       <use xlink:href="#CMR17-30" transform="translate(91.380954 0) scale(0.996264)"/>
      </g>
     </g>
    </g>
    <g id="xtick_3">
     <g id="line2d_3">
      <g>
       <use xlink:href="#mf339ada306" x="139.542396" y="121.981443" style="stroke: #000000; stroke-width: 0.8"/>
      </g>
     </g>
     <g id="text_3">
      <!-- $\mathdefault{400}$ -->
      <g transform="translate(132.070394 135.899942) scale(0.1 -0.1)">
       <defs>
        <path id="CMR17-34" d="M 2150 4147 
C 2150 4281 2144 4288 2029 4288 
L 128 1254 
L 128 1088 
L 1779 1088 
L 1779 460 
C 1779 230 1766 166 1318 166 
L 1197 166 
L 1197 0 
C 1402 12 1747 12 1965 12 
C 2182 12 2528 12 2733 0 
L 2733 166 
L 2611 166 
C 2163 166 2150 230 2150 460 
L 2150 1088 
L 2803 1088 
L 2803 1254 
L 2150 1254 
L 2150 4147 
z
M 1798 3723 
L 1798 1254 
L 256 1254 
L 1798 3723 
z
" transform="scale(0.015625)"/>
       </defs>
       <use xlink:href="#CMR17-34" transform="scale(0.996264)"/>
       <use xlink:href="#CMR17-30" transform="translate(45.690477 0) scale(0.996264)"/>
       <use xlink:href="#CMR17-30" transform="translate(91.380954 0) scale(0.996264)"/>
      </g>
     </g>
    </g>
    <g id="xtick_4">
     <g id="line2d_4">
      <g>
       <use xlink:href="#mf339ada306" x="185.135076" y="121.981443" style="stroke: #000000; stroke-width: 0.8"/>
      </g>
     </g>
     <g id="text_4">
      <!-- $\mathdefault{600}$ -->
      <g transform="translate(177.663073 135.899942) scale(0.1 -0.1)">
       <defs>
        <path id="CMR17-36" d="M 678 2198 
C 678 3712 1395 4076 1811 4076 
C 1946 4076 2272 4049 2400 3782 
C 2298 3782 2106 3782 2106 3558 
C 2106 3385 2246 3328 2336 3328 
C 2394 3328 2566 3353 2566 3571 
C 2566 3987 2246 4224 1805 4224 
C 1043 4224 243 3411 243 2011 
C 243 257 966 -128 1478 -128 
C 2099 -128 2688 431 2688 1295 
C 2688 2101 2170 2688 1517 2688 
C 1126 2688 838 2430 678 1979 
L 678 2198 
z
M 1478 25 
C 691 25 691 1212 691 1450 
C 691 1914 909 2585 1504 2585 
C 1613 2585 1926 2585 2138 2140 
C 2253 1889 2253 1624 2253 1302 
C 2253 954 2253 696 2118 438 
C 1978 173 1773 25 1478 25 
z
" transform="scale(0.015625)"/>
       </defs>
       <use xlink:href="#CMR17-36" transform="scale(0.996264)"/>
       <use xlink:href="#CMR17-30" transform="translate(45.690477 0) scale(0.996264)"/>
       <use xlink:href="#CMR17-30" transform="translate(91.380954 0) scale(0.996264)"/>
      </g>
     </g>
    </g>
    <g id="xtick_5">
     <g id="line2d_5">
      <g>
       <use xlink:href="#mf339ada306" x="230.727756" y="121.981443" style="stroke: #000000; stroke-width: 0.8"/>
      </g>
     </g>
     <g id="text_5">
      <!-- $\mathdefault{800}$ -->
      <g transform="translate(223.255753 135.899942) scale(0.1 -0.1)">
       <defs>
        <path id="CMR17-38" d="M 1741 2289 
C 2144 2494 2554 2803 2554 3298 
C 2554 3884 1990 4224 1472 4224 
C 890 4224 378 3800 378 3215 
C 378 3054 416 2777 666 2533 
C 730 2469 998 2276 1171 2154 
C 883 2006 211 1652 211 945 
C 211 282 838 -128 1459 -128 
C 2144 -128 2720 366 2720 1022 
C 2720 1607 2330 1877 2074 2051 
L 1741 2289 
z
M 902 2855 
C 851 2887 595 3086 595 3388 
C 595 3781 998 4076 1459 4076 
C 1965 4076 2336 3716 2336 3298 
C 2336 2700 1670 2359 1638 2359 
C 1632 2359 1626 2359 1574 2398 
L 902 2855 
z
M 2080 1536 
C 2176 1466 2483 1253 2483 861 
C 2483 385 2010 25 1472 25 
C 890 25 448 443 448 951 
C 448 1459 838 1884 1280 2083 
L 2080 1536 
z
" transform="scale(0.015625)"/>
       </defs>
       <use xlink:href="#CMR17-38" transform="scale(0.996264)"/>
       <use xlink:href="#CMR17-30" transform="translate(45.690477 0) scale(0.996264)"/>
       <use xlink:href="#CMR17-30" transform="translate(91.380954 0) scale(0.996264)"/>
      </g>
     </g>
    </g>
    <g id="text_6">
     <!-- $t/T$ -->
     <g transform="translate(128.043838 149.3091) scale(0.1 -0.1)">
      <defs>
       <path id="CMMI12-74" d="M 1286 2566 
L 1875 2566 
C 1997 2566 2061 2566 2061 2681 
C 2061 2752 2022 2752 1894 2752 
L 1331 2752 
L 1568 3664 
C 1594 3752 1594 3764 1594 3808 
C 1594 3910 1510 3968 1427 3968 
C 1376 3968 1229 3948 1178 3746 
L 928 2752 
L 326 2752 
C 198 2752 141 2752 141 2630 
C 141 2566 186 2566 307 2566 
L 877 2566 
L 454 881 
C 403 657 384 593 384 510 
C 384 210 595 -64 954 -64 
C 1600 -64 1946 868 1946 913 
C 1946 951 1920 970 1882 970 
C 1869 970 1843 970 1830 944 
C 1824 938 1818 932 1773 830 
C 1638 510 1344 64 973 64 
C 781 64 768 223 768 364 
C 768 370 768 491 787 568 
L 1286 2566 
z
" transform="scale(0.015625)"/>
       <path id="CMMI12-3d" d="M 2746 4563 
C 2746 4569 2784 4665 2784 4678 
C 2784 4755 2720 4800 2669 4800 
C 2637 4800 2579 4800 2528 4659 
L 384 -1364 
C 384 -1370 346 -1466 346 -1479 
C 346 -1556 410 -1600 461 -1600 
C 499 -1600 557 -1594 602 -1460 
L 2746 4563 
z
" transform="scale(0.015625)"/>
       <path id="CMMI12-54" d="M 2669 3886 
C 2707 4038 2720 4096 2816 4121 
C 2867 4134 3078 4134 3213 4134 
C 3853 4134 4154 4109 4154 3612 
C 4154 3516 4128 3274 4090 3038 
L 4083 2962 
C 4083 2937 4109 2898 4147 2898 
C 4211 2898 4211 2930 4230 3032 
L 4416 4159 
C 4429 4217 4429 4230 4429 4249 
C 4429 4319 4390 4319 4262 4319 
L 762 4319 
C 614 4319 608 4313 570 4198 
L 179 3051 
C 173 3038 154 2968 154 2962 
C 154 2930 179 2898 218 2898 
C 269 2898 282 2924 307 3007 
C 576 3777 710 4134 1562 4134 
L 1990 4134 
C 2144 4134 2208 4134 2208 4064 
C 2208 4045 2208 4032 2176 3917 
L 1318 497 
C 1254 249 1242 185 563 185 
C 403 185 358 185 358 64 
C 358 0 429 0 461 0 
C 621 0 787 12 947 12 
L 1946 12 
C 2106 12 2278 0 2438 0 
C 2509 0 2573 0 2573 121 
C 2573 185 2528 185 2362 185 
C 1786 185 1786 242 1786 338 
C 1786 344 1786 389 1811 491 
L 2669 3886 
z
" transform="scale(0.015625)"/>
      </defs>
      <use xlink:href="#CMMI12-74" transform="scale(0.996264)"/>
      <use xlink:href="#CMMI12-3d" transform="translate(35.22633 0) scale(0.996264)"/>
      <use xlink:href="#CMMI12-54" transform="translate(84.001249 0) scale(0.996264)"/>
     </g>
    </g>
   </g>
   <g id="matplotlib.axis_2">
    <g id="ytick_1">
     <g id="line2d_6">
      <defs>
       <path id="m8214b1c83c" d="M 0 0 
L -3.5 0 
" style="stroke: #000000; stroke-width: 0.8"/>
      </defs>
      <g>
       <use xlink:href="#m8214b1c83c" x="39.668313" y="119.685548" style="stroke: #000000; stroke-width: 0.8"/>
      </g>
     </g>
     <g id="text_7">
      <!-- $\mathdefault{0}$ -->
      <g transform="translate(27.686977 123.144797) scale(0.1 -0.1)">
       <use xlink:href="#CMR17-30" transform="scale(0.996264)"/>
      </g>
     </g>
    </g>
    <g id="ytick_2">
     <g id="line2d_7">
      <g>
       <use xlink:href="#m8214b1c83c" x="39.668313" y="90.501343" style="stroke: #000000; stroke-width: 0.8"/>
      </g>
     </g>
     <g id="text_8">
      <!-- $\mathdefault{10}$ -->
      <g transform="translate(22.705642 93.960593) scale(0.1 -0.1)">
       <defs>
        <path id="CMR17-31" d="M 1702 4083 
C 1702 4217 1696 4224 1606 4224 
C 1357 3927 979 3833 621 3820 
C 602 3820 570 3820 563 3808 
C 557 3795 557 3782 557 3648 
C 755 3648 1088 3686 1344 3839 
L 1344 467 
C 1344 243 1331 166 781 166 
L 589 166 
L 589 0 
C 896 6 1216 12 1523 12 
C 1830 12 2150 6 2458 0 
L 2458 166 
L 2266 166 
C 1715 166 1702 236 1702 467 
L 1702 4083 
z
" transform="scale(0.015625)"/>
       </defs>
       <use xlink:href="#CMR17-31" transform="scale(0.996264)"/>
       <use xlink:href="#CMR17-30" transform="translate(45.690477 0) scale(0.996264)"/>
      </g>
     </g>
    </g>
    <g id="ytick_3">
     <g id="line2d_8">
      <g>
       <use xlink:href="#m8214b1c83c" x="39.668313" y="61.317139" style="stroke: #000000; stroke-width: 0.8"/>
      </g>
     </g>
     <g id="text_9">
      <!-- $\mathdefault{20}$ -->
      <g transform="translate(22.705642 64.776388) scale(0.1 -0.1)">
       <use xlink:href="#CMR17-32" transform="scale(0.996264)"/>
       <use xlink:href="#CMR17-30" transform="translate(45.690477 0) scale(0.996264)"/>
      </g>
     </g>
    </g>
    <g id="ytick_4">
     <g id="line2d_9">
      <g>
       <use xlink:href="#m8214b1c83c" x="39.668313" y="32.132935" style="stroke: #000000; stroke-width: 0.8"/>
      </g>
     </g>
     <g id="text_10">
      <!-- $\mathdefault{30}$ -->
      <g transform="translate(22.705642 35.592184) scale(0.1 -0.1)">
       <defs>
        <path id="CMR17-33" d="M 1414 2176 
C 1984 2176 2234 1673 2234 1094 
C 2234 322 1824 25 1453 25 
C 1114 25 563 193 390 691 
C 422 678 454 678 486 678 
C 640 678 755 780 755 947 
C 755 1132 614 1216 486 1216 
C 378 1216 211 1164 211 927 
C 211 335 787 -128 1466 -128 
C 2176 -128 2720 432 2720 1087 
C 2720 1718 2208 2176 1600 2246 
C 2086 2347 2554 2776 2554 3353 
C 2554 3856 2048 4224 1472 4224 
C 890 4224 378 3862 378 3347 
C 378 3123 544 3084 627 3084 
C 762 3084 877 3167 877 3334 
C 877 3500 762 3584 627 3584 
C 602 3584 570 3584 544 3571 
C 730 3999 1235 4076 1459 4076 
C 1683 4076 2106 3966 2106 3347 
C 2106 3167 2080 2851 1862 2574 
C 1670 2329 1453 2316 1242 2297 
C 1210 2297 1062 2284 1037 2284 
C 992 2278 966 2272 966 2227 
C 966 2182 973 2176 1101 2176 
L 1414 2176 
z
" transform="scale(0.015625)"/>
       </defs>
       <use xlink:href="#CMR17-33" transform="scale(0.996264)"/>
       <use xlink:href="#CMR17-30" transform="translate(45.690477 0) scale(0.996264)"/>
      </g>
     </g>
    </g>
    <g id="text_11">
     <!-- $\frac{\left&lt; U \right&gt; / L}{\varepsilon_0 E_0^2 a^2}$ -->
     <g transform="translate(13.062482 75.482049) rotate(-90) scale(0.1 -0.1)">
      <defs>
       <path id="CMSY10-68" d="M 2099 4557 
C 2131 4627 2131 4640 2131 4672 
C 2131 4742 2074 4800 2003 4800 
C 1946 4800 1901 4768 1856 4653 
L 736 1715 
C 723 1677 704 1638 704 1600 
C 704 1580 704 1568 736 1491 
L 1856 -1447 
C 1882 -1517 1914 -1600 2003 -1600 
C 2074 -1600 2131 -1543 2131 -1472 
C 2131 -1453 2131 -1440 2099 -1370 
L 966 1600 
L 2099 4557 
z
" transform="scale(0.015625)"/>
       <path id="CMMI12-55" d="M 3238 1469 
C 3014 579 2272 57 1670 57 
C 1210 57 896 362 896 890 
C 896 916 896 1107 966 1386 
L 1594 3886 
C 1651 4102 1664 4166 2118 4166 
C 2234 4166 2298 4166 2298 4281 
C 2298 4352 2240 4352 2202 4352 
C 2086 4352 1952 4339 1830 4339 
L 1075 4339 
C 954 4339 819 4352 698 4352 
C 653 4352 576 4352 576 4230 
C 576 4166 621 4166 742 4166 
C 1126 4166 1126 4115 1126 4045 
C 1126 4007 1082 3822 1050 3714 
L 493 1488 
C 474 1418 435 1246 435 1075 
C 435 375 941 -128 1638 -128 
C 2285 -128 3002 381 3328 1189 
C 3373 1297 3430 1520 3469 1692 
C 3533 1921 3667 2480 3712 2646 
L 3955 3600 
C 4038 3931 4090 4140 4653 4166 
C 4704 4172 4730 4223 4730 4281 
C 4730 4352 4672 4352 4646 4352 
C 4557 4352 4442 4339 4352 4339 
L 4051 4339 
C 3654 4339 3450 4352 3443 4352 
C 3405 4352 3328 4352 3328 4230 
C 3328 4166 3379 4166 3424 4166 
C 3808 4153 3834 4007 3834 3892 
C 3834 3835 3834 3816 3808 3727 
L 3238 1469 
z
" transform="scale(0.015625)"/>
       <path id="CMSY10-69" d="M 1747 1491 
C 1779 1568 1779 1580 1779 1600 
C 1779 1619 1779 1632 1747 1709 
L 627 4653 
C 589 4761 550 4800 480 4800 
C 410 4800 352 4742 352 4672 
C 352 4653 352 4640 384 4569 
L 1517 1600 
L 384 -1357 
C 352 -1428 352 -1440 352 -1472 
C 352 -1543 410 -1600 480 -1600 
C 563 -1600 589 -1536 614 -1472 
L 1747 1491 
z
" transform="scale(0.015625)"/>
       <path id="CMMI12-4c" d="M 2349 3860 
C 2406 4102 2426 4166 2989 4166 
C 3162 4166 3206 4166 3206 4287 
C 3206 4352 3136 4352 3110 4352 
C 2982 4352 2835 4339 2707 4339 
L 1850 4339 
C 1728 4339 1587 4352 1466 4352 
C 1414 4352 1344 4352 1344 4230 
C 1344 4166 1402 4166 1498 4166 
C 1888 4166 1888 4115 1888 4045 
C 1888 4032 1888 3994 1862 3898 
L 998 472 
C 941 249 928 185 480 185 
C 358 185 294 185 294 70 
C 294 0 333 0 461 0 
L 3328 0 
C 3469 0 3475 6 3520 121 
L 4013 1478 
C 4026 1510 4038 1548 4038 1567 
C 4038 1605 4006 1631 3974 1631 
C 3968 1631 3936 1631 3923 1605 
C 3910 1599 3910 1586 3859 1465 
C 3654 905 3366 185 2285 185 
L 1670 185 
C 1581 185 1568 185 1530 191 
C 1459 198 1453 211 1453 262 
C 1453 306 1466 344 1478 402 
L 2349 3860 
z
" transform="scale(0.015625)"/>
       <path id="CMMI12-22" d="M 890 1427 
C 1094 1344 1312 1344 1434 1344 
C 1600 1344 1933 1344 1933 1554 
C 1933 1683 1811 1728 1485 1728 
C 1325 1728 1133 1708 909 1612 
C 710 1708 634 1853 634 1991 
C 634 2379 1261 2604 1830 2604 
C 1939 2604 2170 2604 2438 2410 
C 2477 2385 2496 2366 2541 2366 
C 2618 2366 2701 2448 2701 2523 
C 2701 2636 2330 2880 1888 2880 
C 1171 2880 493 2454 493 1991 
C 493 1759 646 1612 755 1508 
C 384 1288 166 953 166 649 
C 166 221 563 -128 1178 -128 
C 2022 -128 2362 426 2362 513 
C 2362 544 2336 568 2304 568 
C 2272 568 2259 550 2234 513 
C 2163 395 1997 147 1235 147 
C 838 147 314 246 314 686 
C 314 897 474 1213 890 1427 
z
M 1088 1517 
C 1261 1599 1427 1599 1472 1599 
C 1651 1599 1683 1581 1786 1545 
C 1677 1472 1664 1472 1434 1472 
C 1318 1472 1216 1472 1088 1517 
z
" transform="scale(0.015625)"/>
       <path id="CMMI12-45" d="M 4448 1489 
C 4454 1508 4474 1553 4474 1578 
C 4474 1611 4448 1643 4410 1643 
C 4384 1643 4371 1636 4352 1617 
C 4339 1611 4339 1598 4282 1469 
C 3904 570 3629 185 2605 185 
L 1670 185 
C 1581 185 1568 185 1530 192 
C 1459 198 1453 211 1453 262 
C 1453 307 1466 346 1478 403 
L 1920 2176 
L 2554 2176 
C 3053 2176 3091 2066 3091 1874 
C 3091 1810 3091 1752 3046 1559 
C 3034 1534 3027 1508 3027 1489 
C 3027 1444 3059 1424 3098 1424 
C 3155 1424 3162 1469 3187 1559 
L 3552 3036 
C 3552 3068 3526 3099 3488 3099 
C 3430 3099 3424 3074 3398 2986 
C 3270 2500 3142 2361 2573 2361 
L 1965 2361 
L 2362 3913 
C 2419 4134 2432 4153 2694 4153 
L 3610 4153 
C 4397 4153 4557 3945 4557 3465 
C 4557 3459 4557 3282 4531 3074 
C 4525 3049 4518 3011 4518 2998 
C 4518 2948 4550 2929 4589 2929 
C 4634 2929 4659 2954 4672 3068 
L 4806 4172 
C 4806 4191 4819 4255 4819 4268 
C 4819 4339 4762 4339 4646 4339 
L 1523 4339 
C 1402 4339 1338 4339 1338 4223 
C 1338 4153 1382 4153 1491 4153 
C 1888 4153 1888 4109 1888 4039 
C 1888 4008 1882 3983 1862 3913 
L 998 474 
C 941 249 928 185 480 185 
C 358 185 294 185 294 70 
C 294 0 333 0 461 0 
L 3674 0 
C 3814 0 3821 6 3866 108 
L 4448 1489 
z
" transform="scale(0.015625)"/>
       <path id="CMMI12-61" d="M 1926 759 
C 1894 651 1894 638 1805 517 
C 1664 338 1382 64 1082 64 
C 819 64 672 300 672 676 
C 672 1028 870 1743 992 2011 
C 1210 2458 1510 2687 1760 2687 
C 2182 2687 2266 2164 2266 2113 
C 2266 2107 2246 2024 2240 2011 
L 1926 759 
z
M 2336 2394 
C 2266 2560 2093 2816 1760 2816 
C 1037 2816 256 1883 256 938 
C 256 306 627 -64 1062 -64 
C 1414 -64 1715 210 1894 421 
C 1958 44 2259 -64 2451 -64 
C 2643 -64 2797 51 2912 280 
C 3014 496 3104 885 3104 910 
C 3104 942 3078 968 3040 968 
C 2982 968 2976 936 2950 840 
C 2854 465 2733 64 2470 64 
C 2285 64 2272 229 2272 356 
C 2272 503 2291 573 2349 821 
C 2394 980 2426 1120 2477 1305 
C 2714 2260 2771 2489 2771 2528 
C 2771 2617 2701 2688 2605 2688 
C 2400 2688 2349 2464 2336 2388 
L 2336 2394 
z
" transform="scale(0.015625)"/>
      </defs>
      <use xlink:href="#CMSY10-68" transform="translate(1.98137 48.318576) scale(0.697382)"/>
      <use xlink:href="#CMMI12-55" transform="translate(29.101867 48.318576) scale(0.697382)"/>
      <use xlink:href="#CMSY10-69" transform="translate(82.762775 48.318576) scale(0.697382)"/>
      <use xlink:href="#CMMI12-3d" transform="translate(109.883272 48.318576) scale(0.697382)"/>
      <use xlink:href="#CMMI12-4c" transform="translate(144.025563 48.318576) scale(0.697382)"/>
      <use xlink:href="#CMMI12-22" transform="translate(0 -37.201863) scale(0.697382)"/>
      <use xlink:href="#CMR17-30" transform="translate(31.954983 -47.662559) scale(0.498132)"/>
      <use xlink:href="#CMMI12-45" transform="translate(55.298353 -37.201863) scale(0.697382)"/>
      <use xlink:href="#CMR17-32" transform="translate(109.934258 -13.180964) scale(0.498132)"/>
      <use xlink:href="#CMR17-30" transform="translate(105.845982 -56.448915) scale(0.498132)"/>
      <use xlink:href="#CMMI12-61" transform="translate(133.277629 -37.201863) scale(0.697382)"/>
      <use xlink:href="#CMR17-32" transform="translate(169.122976 -17.05529) scale(0.498132)"/>
      <path d="M 0 22.914133 
L 192.466346 22.914133 
L 192.466346 26.899083 
L 0 26.899083 
L 0 22.914133 
z
"/>
     </g>
    </g>
   </g>
   <g id="line2d_10">
    <path d="M 48.357037 116.437071 
L 48.975992 102.16049 
L 49.322082 97.871306 
L 49.736561 94.561578 
L 49.932057 94.163566 
L 50.110973 93.776278 
L 50.238771 93.495213 
L 50.551703 92.980509 
L 50.915753 92.459319 
L 51.288093 91.780748 
L 51.319179 91.801048 
L 51.699809 92.18553 
L 52.021721 92.347692 
L 52.240704 92.431477 
L 52.567452 92.620742 
L 52.863113 92.628333 
L 53.06828 92.734029 
L 53.649932 92.967184 
L 54.074082 92.813087 
L 54.344185 92.808144 
L 55.891572 92.555491 
L 56.342664 92.628611 
L 57.246918 92.634962 
L 57.893506 92.740224 
L 58.846807 92.706099 
L 60.325806 92.788704 
L 60.7016 92.781334 
L 61.107789 92.734983 
L 61.537466 92.68069 
L 62.616493 92.572956 
L 65.295408 92.838064 
L 67.436192 92.594364 
L 68.200214 92.714269 
L 70.156555 92.800598 
L 71.004164 92.700279 
L 72.508032 92.696188 
L 73.030275 92.729304 
L 73.998774 92.79088 
L 74.603914 92.787285 
L 75.437707 92.752796 
L 76.99822 92.721517 
L 77.526681 92.724003 
L 78.048233 92.707833 
L 78.765973 92.727894 
L 79.384237 92.766332 
L 80.013554 92.789006 
L 80.553067 92.813229 
L 82.040356 92.721159 
L 83.540079 92.717197 
L 84.079592 92.755183 
L 214.749594 92.765864 
L 214.749594 92.765864 
" clip-path="url(#p4198488f8d)" style="fill: none; stroke: #000000; stroke-width: 0.75; stroke-linecap: square"/>
   </g>
   <g id="line2d_11">
    <path d="M 48.357037 116.505142 
L 48.986583 102.236654 
L 49.331704 97.999097 
L 49.860325 94.278122 
L 49.909023 94.297017 
L 50.15463 93.753835 
L 51.553465 91.789688 
L 51.756726 91.608251 
L 52.283936 91.215384 
L 52.652347 91.02397 
L 52.936772 90.909971 
L 53.212022 90.838195 
L 53.802751 90.646523 
L 54.051181 90.807277 
L 54.454175 90.88436 
L 54.692725 90.946397 
L 55.435194 91.06118 
L 55.720325 91.153924 
L 56.275765 91.160792 
L 57.925148 91.729995 
L 58.306263 91.858851 
L 59.417849 91.818554 
L 59.952116 91.805452 
L 60.432745 91.84964 
L 60.784924 91.866073 
L 61.095462 91.762212 
L 63.396975 91.316679 
L 64.840978 91.205657 
L 65.21433 91.147524 
L 66.154415 91.331019 
L 66.653393 91.412778 
L 66.940641 91.486607 
L 67.282233 91.547566 
L 67.67817 91.574879 
L 67.999295 91.628891 
L 69.356489 91.818335 
L 70.30716 91.844831 
L 70.885184 91.77637 
L 75.135326 91.344151 
L 75.630775 91.376717 
L 76.397946 91.408757 
L 77.040196 91.443551 
L 79.651542 91.765541 
L 83.284841 91.561394 
L 84.373842 91.478979 
L 85.783969 91.413132 
L 86.216605 91.422151 
L 86.860267 91.480881 
L 87.291491 91.516936 
L 88.145472 91.589264 
L 88.895704 91.655207 
L 89.403152 91.69505 
L 89.936714 91.732669 
L 90.462512 91.757799 
L 94.323774 91.547827 
L 95.055657 91.502068 
L 95.77413 91.485761 
L 96.763618 91.508639 
L 97.254127 91.517849 
L 98.005771 91.554267 
L 98.522394 91.604294 
L 99.021373 91.635528 
L 99.638921 91.678978 
L 101.653186 91.720473 
L 102.159222 91.719458 
L 102.802178 91.687477 
L 103.518533 91.637579 
L 104.290645 91.602339 
L 105.467161 91.543986 
L 106.060007 91.529361 
L 107.097488 91.521658 
L 109.00377 91.605384 
L 109.492868 91.630451 
L 110.220516 91.675171 
L 115.623884 91.571023 
L 117.165989 91.563975 
L 126.880194 91.577251 
L 127.511857 91.576903 
L 128.465351 91.585768 
L 128.978445 91.603312 
L 129.480953 91.610039 
L 129.994753 91.619906 
L 130.52408 91.635617 
L 131.282076 91.660099 
L 133.995052 91.653149 
L 134.643654 91.637968 
L 135.870986 91.605242 
L 136.505472 91.604223 
L 137.472376 91.584334 
L 138.292479 91.59127 
L 139.055416 91.596138 
L 139.576979 91.608981 
L 140.413315 91.629393 
L 140.93629 91.636201 
L 141.553132 91.643888 
L 142.067638 91.653509 
L 142.577203 91.657002 
L 143.100178 91.655579 
L 143.746663 91.650571 
L 146.561975 91.611681 
L 147.092714 91.605127 
L 148.180304 91.596639 
L 149.931317 91.618156 
L 150.546747 91.618746 
L 151.053489 91.626321 
L 151.582816 91.634968 
L 152.313287 91.644212 
L 152.840497 91.642041 
L 154.017719 91.648068 
L 154.53646 91.639094 
L 155.074256 91.642298 
L 157.782997 91.611302 
L 158.394899 91.606716 
L 158.924932 91.609356 
L 159.557301 91.608332 
L 160.486093 91.613027 
L 161.595562 91.629207 
L 162.18629 91.628854 
L 166.281162 91.622553 
L 173.723497 91.638355 
L 174.429972 91.64259 
L 175.665067 91.635602 
L 176.733602 91.62667 
L 177.322919 91.618546 
L 180.201045 91.619102 
L 180.715551 91.617994 
L 181.232173 91.621785 
L 181.830666 91.628147 
L 182.928842 91.628607 
L 183.460992 91.629411 
L 184.396136 91.633405 
L 185.168247 91.629948 
L 186.117507 91.632401 
L 186.641893 91.627288 
L 187.26791 91.627837 
L 187.893222 91.623321 
L 188.522768 91.623281 
L 189.245475 91.619236 
L 189.775508 91.623202 
L 190.497509 91.619066 
L 191.023307 91.622082 
L 191.640149 91.623827 
L 192.168065 91.627726 
L 193.018516 91.625772 
L 193.729226 91.628814 
L 194.512629 91.626936 
L 218.360565 91.631603 
L 218.360565 91.631603 
" clip-path="url(#p4198488f8d)" style="fill: none; stroke: #ff0000; stroke-width: 0.75; stroke-linecap: square"/>
   </g>
   <g id="line2d_12">
    <path d="M 48.357037 116.573207 
L 48.996921 102.326973 
L 49.345359 98.07998 
L 49.900839 94.23735 
L 49.930417 94.272777 
L 49.943402 94.267046 
L 49.968651 94.167032 
L 50.151888 93.767751 
L 50.215371 93.662942 
L 50.534953 93.04963 
L 51.05292 92.807112 
L 51.41795 92.726538 
L 51.637257 92.399588 
L 52.249007 91.407778 
L 52.870135 90.930304 
L 53.261135 90.656302 
L 54.17876 89.924814 
L 54.561825 89.547071 
L 54.748669 89.403137 
L 55.81346 88.597871 
L 56.089036 88.43599 
L 57.34572 87.194976 
L 57.822568 86.744995 
L 58.792133 85.940212 
L 59.324529 85.303424 
L 59.518586 85.088985 
L 60.144043 84.43404 
L 61.006841 83.595511 
L 61.89056 82.507134 
L 62.26569 82.051759 
L 62.699253 81.553245 
L 63.001521 81.279126 
L 64.169473 79.811964 
L 64.540274 79.33338 
L 65.317225 78.422675 
L 65.826536 77.833256 
L 65.993901 77.582854 
L 66.289677 77.197613 
L 66.653985 76.710772 
L 67.080334 76.153086 
L 67.333547 75.835052 
L 67.751239 75.346873 
L 67.899848 75.185057 
L 68.769139 73.973765 
L 68.943719 73.742545 
L 69.253201 73.34032 
L 70.654887 71.537577 
L 70.947777 71.134225 
L 71.112257 70.89461 
L 71.410918 70.502627 
L 71.780276 70.000419 
L 72.093365 69.601436 
L 72.361727 69.264007 
L 72.651731 68.915671 
L 72.796012 68.732615 
L 73.344278 67.966086 
L 73.597491 67.615792 
L 74.00869 67.04671 
L 74.159464 66.862858 
L 74.695466 66.180373 
L 74.833254 66.028735 
L 75.551772 65.05256 
L 75.839612 64.66574 
L 75.992549 64.460056 
L 76.309966 64.043184 
L 77.040026 63.095316 
L 77.402892 62.642379 
L 77.837898 62.07096 
L 78.199321 61.576888 
L 78.863734 60.708833 
L 79.224435 60.259932 
L 79.662327 59.738227 
L 80.048999 59.265526 
L 80.181737 59.104515 
L 80.689605 58.403032 
L 81.169338 57.795298 
L 81.349689 57.588035 
L 81.625986 57.245712 
L 81.794795 57.072943 
L 82.113655 56.698074 
L 82.382017 56.344141 
L 82.658314 55.992222 
L 82.796102 55.836161 
L 83.065186 55.472799 
L 83.340762 55.129912 
L 83.472057 54.985765 
L 83.624994 54.794072 
L 83.902013 54.453809 
L 84.074429 54.280366 
L 84.371647 53.931162 
L 84.456051 53.811405 
L 87.29333 50.4852 
L 87.690101 50.047733 
L 87.869009 49.801606 
L 88.945343 48.654639 
L 89.212262 48.344021 
L 89.47341 48.041208 
L 89.769185 47.734543 
L 90.054139 47.391905 
L 90.16235 47.264566 
L 90.337651 47.092287 
L 90.617555 46.764676 
L 90.791414 46.606582 
L 91.076368 46.289915 
L 91.227862 46.166935 
L 92.294818 45.003797 
L 92.56318 44.721292 
L 92.649027 44.613809 
L 93.272319 44.016558 
L 93.545009 43.718824 
L 93.80255 43.459925 
L 93.990837 43.289604 
L 94.237556 43.022402 
L 94.607636 42.649694 
L 94.705747 42.537381 
L 95.378095 41.861942 
L 95.758274 41.525077 
L 95.835464 41.428917 
L 96.330347 40.991384 
L 96.406094 40.89202 
L 97.025058 40.32761 
L 97.177996 40.160023 
L 97.383596 39.979653 
L 97.820766 39.568682 
L 97.967211 39.42966 
L 98.190124 39.235705 
L 98.472914 38.95369 
L 98.644608 38.83143 
L 98.936777 38.543125 
L 99.026231 38.44763 
L 99.867387 37.705649 
L 100.001568 37.593309 
L 100.535406 37.113136 
L 100.617646 37.025103 
L 101.017303 36.729881 
L 101.395319 36.378507 
L 101.587212 36.236613 
L 102.079209 35.776389 
L 102.267495 35.641966 
L 102.528643 35.407153 
L 102.719093 35.270699 
L 102.868424 35.136387 
L 103.060317 34.997586 
L 103.206762 34.870081 
L 103.405869 34.723088 
L 103.579006 34.540567 
L 104.072446 34.161764 
L 104.147472 34.071486 
L 104.537751 33.787116 
L 104.67626 33.678479 
L 104.973478 33.424244 
L 105.060047 33.34214 
L 105.562865 33.001848 
L 105.69921 32.901819 
L 106.01302 32.654233 
L 106.088768 32.561435 
L 110.575174 29.368286 
L 110.71729 29.267803 
L 110.921447 29.13617 
L 111.085206 28.984412 
L 111.272771 28.894717 
L 111.932855 28.436783 
L 112.010766 28.352925 
L 113.819324 27.207251 
L 114.00256 27.132277 
L 117.40614 25.128024 
L 117.541043 25.057603 
L 117.854132 24.871776 
L 117.934929 24.792452 
L 118.38292 24.538743 
L 118.760214 24.353414 
L 118.795563 24.35141 
L 118.844618 24.278597 
L 119.743487 23.814938 
L 119.923116 23.767569 
L 120.656062 23.337416 
L 120.911438 23.210308 
L 121.01532 23.146195 
L 121.210821 23.060434 
L 121.363758 22.973666 
L 121.378186 22.984934 
L 121.414256 22.98727 
L 121.466919 22.915427 
L 121.7865 22.77188 
L 121.934388 22.699889 
L 121.952423 22.714795 
L 121.984886 22.712089 
L 122.03827 22.641613 
L 122.251805 22.53908 
L 122.511511 22.430896 
L 122.553352 22.438219 
L 122.606736 22.366552 
L 122.911889 22.244061 
L 123.072041 22.144576 
L 123.085026 22.154615 
L 123.121818 22.159039 
L 123.17448 22.085691 
L 123.597944 21.9028 
L 123.754488 21.812624 
L 123.766752 21.822248 
L 123.804986 21.829673 
L 123.861256 21.758246 
L 124.066134 21.673261 
L 124.212579 21.609628 
L 124.231336 21.626132 
L 124.263077 21.623001 
L 124.319347 21.555111 
L 124.506912 21.494831 
L 124.66562 21.403362 
L 124.677163 21.412478 
L 124.716119 21.421011 
L 124.772388 21.349621 
L 124.976545 21.264802 
L 125.123711 21.198925 
L 125.141746 21.214588 
L 125.173488 21.212575 
L 125.229036 21.143004 
L 125.424537 21.068538 
L 125.576753 20.986989 
L 125.589738 20.99736 
L 125.627251 21.00412 
L 125.682077 20.931936 
L 125.90427 20.829551 
L 128.175247 19.86795 
L 128.43928 19.784775 
L 128.473908 19.791951 
L 128.535227 19.72383 
L 128.711971 19.68927 
L 128.879336 19.592981 
L 128.895207 19.607518 
L 128.929834 19.61474 
L 128.993318 19.549094 
L 129.158519 19.525312 
L 129.449966 19.372049 
L 129.610839 19.350429 
L 129.934749 19.218888 
L 130.074701 19.161286 
L 130.247838 19.057248 
L 130.26948 19.07751 
L 130.396447 19.03813 
L 130.558763 18.931257 
L 130.703043 18.876915 
L 130.721079 18.894269 
L 130.842996 18.85789 
L 130.978619 18.814363 
L 131.285937 18.681529 
L 131.394869 18.635518 
L 131.521836 18.607728 
L 131.651689 18.573566 
L 131.928707 18.426463 
L 132.072267 18.381966 
L 132.09463 18.403725 
L 132.228811 18.363504 
L 132.657325 18.187217 
L 132.779963 18.152168 
L 132.916308 18.106692 
L 133.209198 17.962812 
L 133.367907 17.949559 
L 133.792092 17.785869 
L 133.916895 17.758264 
L 134.051797 17.721479 
L 134.383642 17.609582 
L 134.555336 17.500945 
L 134.84534 17.453086 
L 135.737716 17.14221 
L 135.871897 17.111677 
L 136.419442 16.929701 
L 136.551459 16.901588 
L 137.967573 16.405964 
L 138.134939 16.401143 
L 138.277055 16.356259 
L 138.445142 16.273028 
L 138.45957 16.287565 
L 138.593751 16.273536 
L 138.743082 16.209571 
L 138.898905 16.140554 
L 138.90684 16.146955 
L 139.057613 16.141958 
L 145.43121 14.462139 
L 145.60074 14.373885 
L 145.778205 14.385993 
L 147.592534 13.967144 
L 147.746193 13.905164 
L 147.895524 13.857906 
L 147.901295 13.862533 
L 148.065775 13.868167 
L 148.243961 13.792731 
L 148.268489 13.82102 
L 148.408441 13.794976 
L 148.583742 13.718025 
L 148.606106 13.744162 
L 148.743172 13.728009 
L 149.166636 13.611669 
L 149.304424 13.607098 
L 149.567736 13.519628 
L 149.717788 13.470181 
L 149.723559 13.474771 
L 149.888039 13.481135 
L 150.065504 13.407352 
L 150.088589 13.434911 
L 150.22782 13.417225 
L 150.442798 13.378768 
L 150.612328 13.294808 
L 150.78835 13.312328 
L 153.577295 12.735617 
L 154.075063 12.68677 
L 154.213573 12.670054 
L 154.434322 12.632548 
L 155.908149 12.388195 
L 156.066136 12.323353 
L 156.210416 12.290123 
L 156.218352 12.297475 
L 156.376339 12.309583 
L 156.681493 12.229308 
L 156.825052 12.235671 
L 167.98083 10.776849 
L 168.138096 10.72283 
L 168.282377 10.694893 
L 168.288148 10.699815 
L 168.454071 10.721703 
L 168.457678 10.717852 
L 168.626486 10.65881 
L 168.639472 10.673854 
L 168.788081 10.689915 
L 169.226694 10.64044 
L 169.367367 10.628766 
L 169.370974 10.624546 
L 169.536897 10.570259 
L 169.545554 10.57931 
L 169.703541 10.601448 
L 169.925733 10.580871 
L 170.607459 10.512621 
L 173.679915 10.231298 
L 173.963427 10.155724 
L 174.230346 10.1716 
L 174.373184 10.176088 
L 174.594655 10.159778 
L 175.960271 10.045138 
L 192.361372 9.106625 
L 193.204692 9.028068 
L 193.345366 9.025288 
L 193.354744 9.037101 
L 193.508403 9.063847 
L 193.732759 9.05619 
L 194.168487 9.027902 
L 194.309882 9.028733 
L 194.313489 9.025141 
L 194.481576 8.977772 
L 194.492397 8.990323 
L 194.64822 9.017771 
L 194.861034 9.009292 
L 195.017578 8.969081 
L 195.16258 8.950333 
L 195.164744 8.952023 
L 195.339324 8.987349 
L 195.351588 8.970319 
L 195.503804 8.940192 
L 195.687762 8.968481 
L 195.704354 8.943942 
L 195.847192 8.93068 
L 195.850799 8.933949 
L 196.019607 8.969063 
L 196.028264 8.958626 
L 196.187694 8.917325 
L 196.19058 8.919625 
L 196.362995 8.954406 
L 196.374538 8.938946 
L 196.528918 8.904165 
L 196.529639 8.904663 
L 196.710711 8.935039 
L 196.725861 8.912421 
L 196.870863 8.892796 
L 196.873027 8.89444 
L 197.048328 8.927983 
L 197.061313 8.909512 
L 197.212087 8.879829 
L 197.398209 8.905393 
L 197.413358 8.883025 
L 197.555475 8.870852 
L 197.560524 8.875599 
L 197.727168 8.911839 
L 197.734383 8.903869 
L 197.896698 8.861672 
L 197.902469 8.867056 
L 198.069114 8.902807 
L 198.075606 8.895677 
L 198.239365 8.852778 
L 198.244415 8.857655 
L 198.410337 8.892657 
L 198.416108 8.886553 
L 198.58131 8.841622 
L 198.588524 8.849084 
L 198.75084 8.881806 
L 198.754447 8.878508 
L 198.925419 8.832285 
L 198.936962 8.846766 
L 199.089899 8.872921 
L 199.309927 8.868026 
L 200.837859 8.776641 
L 200.979254 8.778488 
L 200.990075 8.793265 
L 201.139405 8.815485 
L 201.440952 8.772928 
L 201.596775 8.801724 
L 201.804539 8.792166 
L 201.945213 8.785451 
L 201.952427 8.776114 
L 202.110414 8.738129 
L 202.112578 8.739791 
L 202.287879 8.775911 
L 202.300865 8.757699 
L 202.451638 8.730454 
L 202.636317 8.760285 
L 202.653631 8.735136 
L 202.795747 8.72543 
L 202.800076 8.729604 
L 202.96672 8.766279 
L 202.973934 8.758336 
L 203.136249 8.716074 
L 203.141299 8.720646 
L 203.308665 8.75696 
L 203.3166 8.747937 
L 203.478194 8.706626 
L 203.482523 8.710524 
L 203.65061 8.747059 
L 203.659267 8.736974 
L 203.819418 8.697197 
L 203.822304 8.69958 
L 203.994719 8.736337 
L 204.006262 8.720951 
L 204.15992 8.68786 
L 204.160642 8.68834 
L 204.343157 8.718947 
L 204.359749 8.694426 
L 204.503308 8.680268 
L 204.506194 8.682743 
L 204.677888 8.719981 
L 204.688709 8.705906 
L 204.843811 8.673018 
L 205.027768 8.703957 
L 205.044361 8.679686 
L 205.187199 8.668244 
L 205.190806 8.671541 
L 205.359614 8.70912 
L 205.368992 8.697834 
L 205.527701 8.659618 
L 205.529865 8.661308 
L 205.704445 8.697474 
L 205.71743 8.679428 
L 205.868925 8.650632 
L 206.053604 8.679049 
L 206.070196 8.654732 
L 206.212312 8.643696 
L 206.216641 8.647741 
L 206.384006 8.685302 
L 206.392663 8.675392 
L 206.553536 8.635809 
L 206.556422 8.638265 
L 206.728116 8.67481 
L 206.738215 8.661742 
L 206.894038 8.627109 
L 206.89476 8.627607 
L 207.076553 8.660098 
L 207.092424 8.636714 
L 207.236705 8.622269 
L 207.238869 8.624042 
L 207.412727 8.661843 
L 207.425713 8.644037 
L 207.576486 8.615712 
L 207.78425 8.615407 
L 207.924924 8.614391 
L 207.934302 8.626277 
L 208.088682 8.654778 
L 208.302217 8.649948 
L 208.460926 8.607788 
L 208.603764 8.595034 
L 208.607371 8.598202 
L 208.777622 8.635947 
L 208.787 8.624301 
L 208.944988 8.588052 
L 208.94643 8.58916 
L 209.122453 8.625271 
L 209.136881 8.604759 
L 209.28549 8.5801 
L 209.490368 8.583129 
L 209.631042 8.578428 
L 209.637535 8.585558 
L 209.79985 8.621078 
L 209.803457 8.617772 
L 209.973709 8.574669 
L 209.98453 8.588079 
L 210.139631 8.616996 
L 210.347395 8.609691 
L 210.48879 8.603373 
L 210.496004 8.593879 
L 210.65327 8.55811 
L 210.653992 8.558627 
L 210.833621 8.59254 
L 210.849492 8.569294 
L 210.995215 8.55171 
L 210.995937 8.552246 
L 211.174845 8.587341 
L 211.189994 8.565212 
L 211.336439 8.545328 
L 211.337161 8.545836 
L 211.51679 8.580479 
L 211.532661 8.557251 
L 211.678384 8.539325 
L 211.679106 8.539852 
L 211.858735 8.575177 
L 211.874606 8.552079 
L 212.019608 8.534966 
L 212.021051 8.53601 
L 212.199237 8.573044 
L 212.215108 8.550149 
L 212.361553 8.53105 
L 212.362274 8.531567 
L 212.542625 8.566053 
L 212.559217 8.541745 
L 212.703498 8.525481 
L 212.705662 8.527153 
L 212.880963 8.563993 
L 212.89467 8.544737 
L 213.044 8.518462 
L 213.250322 8.519598 
L 213.390995 8.516744 
L 213.398931 8.526165 
L 213.557639 8.558895 
L 213.559082 8.557787 
L 213.736547 8.515664 
L 213.75314 8.539067 
L 213.898863 8.553483 
L 214.083542 8.517077 
L 214.102299 8.543389 
L 214.243694 8.54664 
L 214.248022 8.54217 
L 214.413945 8.500721 
L 214.421159 8.508377 
L 214.583475 8.545051 
L 214.587803 8.541098 
L 214.757333 8.49867 
L 214.767433 8.510889 
L 214.923977 8.541708 
L 215.128856 8.532805 
L 215.269529 8.532814 
L 215.2753 8.526349 
L 215.438338 8.485648 
L 215.443387 8.490432 
L 215.610753 8.527744 
L 215.617967 8.519589 
L 215.779561 8.480181 
L 215.783168 8.483303 
L 215.953419 8.522295 
L 215.96424 8.508719 
L 216.120064 8.474686 
L 216.121506 8.47572 
L 216.301136 8.510196 
L 216.316285 8.488059 
L 216.462009 8.469902 
L 216.463451 8.470955 
L 216.641638 8.508137 
L 216.657509 8.485279 
L 216.803954 8.467353 
L 216.98719 8.500305 
L 217.003782 8.476173 
L 217.14662 8.464979 
L 217.150227 8.468184 
L 217.320478 8.506742 
L 217.330578 8.494145 
L 217.487122 8.459457 
L 217.487844 8.459955 
L 217.668916 8.49372 
L 217.684787 8.470428 
L 217.829068 8.454469 
L 217.831232 8.456132 
L 218.006533 8.493794 
L 218.020239 8.474686 
L 218.16957 8.449224 
L 218.377334 8.450553 
L 218.518008 8.450821 
L 218.526664 8.461756 
L 218.682488 8.492132 
L 218.888809 8.485307 
L 219.029482 8.484586 
L 219.036696 8.475914 
L 219.196127 8.439609 
L 219.199012 8.441974 
L 219.372149 8.481409 
L 219.385134 8.463945 
L 219.536629 8.436026 
L 219.744393 8.437116 
L 219.885067 8.437568 
L 219.894445 8.449611 
L 220.049547 8.478749 
L 220.254425 8.470281 
L 220.395099 8.471195 
L 220.40087 8.464813 
L 220.563907 8.42474 
L 220.568957 8.429478 
L 220.736322 8.468184 
L 220.744258 8.459179 
L 220.905131 8.421 
L 220.908738 8.424121 
L 221.07971 8.462578 
L 221.08981 8.449824 
L 221.245633 8.416253 
L 221.246354 8.416752 
L 221.428148 8.451985 
L 221.445462 8.42692 
L 221.589021 8.415699 
L 221.591185 8.417546 
L 221.764322 8.456954 
L 221.776586 8.440514 
L 221.928802 8.412051 
L 222.131516 8.418626 
L 222.131516 8.418626 
" clip-path="url(#p4198488f8d)" style="fill: none; stroke: #0000ff; stroke-width: 0.75; stroke-linecap: square"/>
   </g>
   <g id="patch_3">
    <path d="M 39.668313 121.981443 
L 39.668313 3.00024 
" style="fill: none; stroke: #000000; stroke-width: 0.8; stroke-linejoin: miter; stroke-linecap: square"/>
   </g>
   <g id="patch_4">
    <path d="M 230.82024 121.981443 
L 230.82024 3.00024 
" style="fill: none; stroke: #000000; stroke-width: 0.8; stroke-linejoin: miter; stroke-linecap: square"/>
   </g>
   <g id="patch_5">
    <path d="M 39.668313 121.981443 
L 230.82024 121.981443 
" style="fill: none; stroke: #000000; stroke-width: 0.8; stroke-linejoin: miter; stroke-linecap: square"/>
   </g>
   <g id="patch_6">
    <path d="M 39.668313 3.00024 
L 230.82024 3.00024 
" style="fill: none; stroke: #000000; stroke-width: 0.8; stroke-linejoin: miter; stroke-linecap: square"/>
   </g>
   <g id="legend_1">
    <g id="patch_7">
     <path d="M 144.766376 86.434802 
L 223.82024 86.434802 
Q 225.82024 86.434802 225.82024 84.434802 
L 225.82024 40.546881 
Q 225.82024 38.546881 223.82024 38.546881 
L 144.766376 38.546881 
Q 142.766376 38.546881 142.766376 40.546881 
L 142.766376 84.434802 
Q 142.766376 86.434802 144.766376 86.434802 
z
" style="fill: #ffffff; opacity: 0.8; stroke: #cccccc; stroke-linejoin: miter"/>
    </g>
    <g id="line2d_13">
     <path d="M 146.766376 46.518862 
L 156.766376 46.518862 
L 166.766376 46.518862 
" style="fill: none; stroke: #000000; stroke-width: 0.75; stroke-linecap: square"/>
    </g>
    <g id="text_12">
     <!-- $a/ \lambda = 0.91$ -->
     <g transform="translate(174.766376 50.018862) scale(0.1 -0.1)">
      <defs>
       <path id="CMMI12-15" d="M 1978 3963 
C 1818 4416 1312 4416 1229 4416 
C 1190 4416 1120 4416 1120 4351 
C 1120 4300 1158 4294 1190 4287 
C 1286 4275 1363 4262 1466 4078 
C 1530 3957 2189 2055 2189 2042 
C 2189 2036 2182 2029 2131 1978 
L 467 305 
C 390 229 339 178 339 95 
C 339 6 416 -71 518 -71 
C 544 -71 614 -58 653 -20 
C 755 76 1670 1190 2253 1877 
C 2419 1380 2624 795 2822 261 
C 2854 165 2886 76 2976 -7 
C 3040 -64 3053 -64 3232 -64 
L 3354 -64 
C 3379 -64 3424 -64 3424 -13 
C 3424 12 3418 19 3392 44 
C 3334 114 3290 229 3264 305 
L 1978 3963 
z
" transform="scale(0.015625)"/>
       <path id="CMR17-3d" d="M 4115 2048 
C 4211 2048 4307 2048 4307 2156 
C 4307 2272 4198 2272 4090 2272 
L 512 2272 
C 403 2272 294 2272 294 2156 
C 294 2048 390 2048 486 2048 
L 4115 2048 
z
M 4090 927 
C 4198 927 4307 927 4307 1043 
C 4307 1152 4211 1152 4115 1152 
L 486 1152 
C 390 1152 294 1152 294 1043 
C 294 927 403 927 512 927 
L 4090 927 
z
" transform="scale(0.015625)"/>
       <path id="CMMI12-3a" d="M 1178 307 
C 1178 492 1024 620 870 620 
C 685 620 557 467 557 313 
C 557 128 710 0 864 0 
C 1050 0 1178 153 1178 307 
z
" transform="scale(0.015625)"/>
       <path id="CMR17-39" d="M 2253 1871 
C 2253 448 1670 25 1190 25 
C 1043 25 685 43 538 281 
C 704 256 826 345 826 505 
C 826 678 685 736 595 736 
C 538 736 365 710 365 492 
C 365 68 742 -128 1203 -128 
C 1939 -128 2688 665 2688 2090 
C 2688 3857 1971 4224 1485 4224 
C 851 4224 243 3664 243 2800 
C 243 2000 762 1408 1414 1408 
C 1952 1408 2189 1910 2253 2122 
L 2253 1871 
z
M 1427 1510 
C 1254 1510 1011 1542 813 1929 
C 678 2181 678 2477 678 2793 
C 678 3174 678 3438 858 3722 
C 947 3857 1114 4076 1485 4076 
C 2240 4076 2240 2909 2240 2651 
C 2240 2193 2035 1510 1427 1510 
z
" transform="scale(0.015625)"/>
      </defs>
      <use xlink:href="#CMMI12-61" transform="scale(0.996264)"/>
      <use xlink:href="#CMMI12-3d" transform="translate(51.207858 0) scale(0.996264)"/>
      <use xlink:href="#CMMI12-15" transform="translate(99.982776 0) scale(0.996264)"/>
      <use xlink:href="#CMR17-3d" transform="translate(184.560857 0) scale(0.996264)"/>
      <use xlink:href="#CMR17-30" transform="translate(283.949654 0) scale(0.996264)"/>
      <use xlink:href="#CMMI12-3a" transform="translate(329.640131 0) scale(0.996264)"/>
      <use xlink:href="#CMR17-39" transform="translate(356.737308 0) scale(0.996264)"/>
      <use xlink:href="#CMR17-31" transform="translate(402.427785 0) scale(0.996264)"/>
     </g>
    </g>
    <g id="line2d_14">
     <path d="M 146.766376 61.481502 
L 156.766376 61.481502 
L 166.766376 61.481502 
" style="fill: none; stroke: #ff0000; stroke-width: 0.75; stroke-linecap: square"/>
    </g>
    <g id="text_13">
     <!-- $a/ \lambda = 0.93$ -->
     <g transform="translate(174.766376 64.981502) scale(0.1 -0.1)">
      <use xlink:href="#CMMI12-61" transform="scale(0.996264)"/>
      <use xlink:href="#CMMI12-3d" transform="translate(51.207858 0) scale(0.996264)"/>
      <use xlink:href="#CMMI12-15" transform="translate(99.982776 0) scale(0.996264)"/>
      <use xlink:href="#CMR17-3d" transform="translate(184.560857 0) scale(0.996264)"/>
      <use xlink:href="#CMR17-30" transform="translate(283.949654 0) scale(0.996264)"/>
      <use xlink:href="#CMMI12-3a" transform="translate(329.640131 0) scale(0.996264)"/>
      <use xlink:href="#CMR17-39" transform="translate(356.737308 0) scale(0.996264)"/>
      <use xlink:href="#CMR17-33" transform="translate(402.427785 0) scale(0.996264)"/>
     </g>
    </g>
    <g id="line2d_15">
     <path d="M 146.766376 76.444142 
L 156.766376 76.444142 
L 166.766376 76.444142 
" style="fill: none; stroke: #0000ff; stroke-width: 0.75; stroke-linecap: square"/>
    </g>
    <g id="text_14">
     <!-- $a/ \lambda = 0.95$ -->
     <g transform="translate(174.766376 79.944142) scale(0.1 -0.1)">
      <defs>
       <path id="CMR17-35" d="M 730 3750 
C 794 3724 1056 3641 1325 3641 
C 1920 3641 2246 3961 2432 4140 
C 2432 4191 2432 4224 2394 4224 
C 2387 4224 2374 4224 2323 4198 
C 2099 4102 1837 4032 1517 4032 
C 1325 4032 1037 4055 723 4191 
C 653 4224 640 4224 634 4224 
C 602 4224 595 4217 595 4090 
L 595 2231 
C 595 2113 595 2080 659 2080 
C 691 2080 704 2093 736 2139 
C 941 2435 1222 2560 1542 2560 
C 1766 2560 2246 2415 2246 1293 
C 2246 1087 2246 716 2054 422 
C 1894 159 1645 25 1370 25 
C 947 25 518 319 403 812 
C 429 806 480 793 506 793 
C 589 793 749 838 749 1036 
C 749 1209 627 1280 506 1280 
C 358 1280 262 1190 262 1011 
C 262 454 704 -128 1382 -128 
C 2042 -128 2669 441 2669 1267 
C 2669 2054 2170 2662 1549 2662 
C 1222 2662 947 2540 730 2304 
L 730 3750 
z
" transform="scale(0.015625)"/>
      </defs>
      <use xlink:href="#CMMI12-61" transform="scale(0.996264)"/>
      <use xlink:href="#CMMI12-3d" transform="translate(51.207858 0) scale(0.996264)"/>
      <use xlink:href="#CMMI12-15" transform="translate(99.982776 0) scale(0.996264)"/>
      <use xlink:href="#CMR17-3d" transform="translate(184.560857 0) scale(0.996264)"/>
      <use xlink:href="#CMR17-30" transform="translate(283.949654 0) scale(0.996264)"/>
      <use xlink:href="#CMMI12-3a" transform="translate(329.640131 0) scale(0.996264)"/>
      <use xlink:href="#CMR17-39" transform="translate(356.737308 0) scale(0.996264)"/>
      <use xlink:href="#CMR17-35" transform="translate(402.427785 0) scale(0.996264)"/>
     </g>
    </g>
   </g>
  </g>
 </g>
 <defs>
  <clipPath id="p4198488f8d">
   <rect x="39.668313" y="3.00024" width="191.151927" height="118.981203"/>
  </clipPath>
 </defs>
</svg>
