<?xml version="1.0" encoding="utf-8" standalone="no"?>
<!DOCTYPE svg PUBLIC "-//W3C//DTD SVG 1.1//EN"
  "http://www.w3.org/Graphics/SVG/1.1/DTD/svg11.dtd">
<svg xmlns:xlink="http://www.w3.org/1999/xlink" width="241.2pt" height="144pt" viewBox="0 0 241.2 144" xmlns="http://www.w3.org/2000/svg" version="1.1">
 <metadata>
  <rdf:RDF xmlns:dc="http://purl.org/dc/elements/1.1/" xmlns:cc="http://creativecommons.org/ns#" xmlns:rdf="http://www.w3.org/1999/02/22-rdf-syntax-ns#">
   <cc:Work>
    <dc:type rdf:resource="http://purl.org/dc/dcmitype/StillImage"/>
    <dc:date>2024-07-04T12:48:54.294058</dc:date>
    <dc:format>image/svg+xml</dc:format>
    <dc:creator>
     <cc:Agent>
      <dc:title>Matplotlib v3.8.0, https://matplotlib.org/</dc:title>
     </cc:Agent>
    </dc:creator>
   </cc:Work>
  </rdf:RDF>
 </metadata>
 <defs>
  <style type="text/css">*{stroke-linejoin: round; stroke-linecap: butt}</style>
 </defs>
 <g id="figure_1">
  <g id="patch_1">
   <path d="M 0 144 
L 241.2 144 
L 241.2 0 
L 0 0 
z
" style="fill: #ffffff"/>
  </g>
  <g id="axes_1">
   <g id="patch_2">
    <path d="M 39.204126 111.181443 
L 238.19976 111.181443 
L 238.19976 3.00024 
L 39.204126 3.00024 
z
" style="fill: #ffffff"/>
   </g>
   <g id="matplotlib.axis_1">
    <g id="xtick_1">
     <g id="line2d_1">
      <defs>
       <path id="mcbca774629" d="M 0 0 
L 0 3.5 
" style="stroke: #000000; stroke-width: 0.8"/>
      </defs>
      <g>
       <use xlink:href="#mcbca774629" x="78.400236" y="111.181443" style="stroke: #000000; stroke-width: 0.8"/>
      </g>
     </g>
     <g id="text_1">
      <!-- $\mathdefault{50}$ -->
      <g transform="translate(73.418901 125.099942) scale(0.1 -0.1)">
       <defs>
        <path id="CMR17-35" d="M 730 3692 
C 794 3666 1056 3584 1325 3584 
C 1920 3584 2246 3911 2432 4100 
C 2432 4157 2432 4192 2394 4192 
C 2387 4192 2374 4192 2323 4163 
C 2099 4058 1837 3973 1517 3973 
C 1325 3973 1037 3999 723 4139 
C 653 4171 640 4171 634 4171 
C 602 4171 595 4164 595 4037 
L 595 2203 
C 595 2089 595 2057 659 2057 
C 691 2057 704 2070 736 2114 
C 941 2401 1222 2522 1542 2522 
C 1766 2522 2246 2382 2246 1289 
C 2246 1085 2246 715 2054 421 
C 1894 159 1645 25 1370 25 
C 947 25 518 320 403 814 
C 429 807 480 795 506 795 
C 589 795 749 840 749 1038 
C 749 1210 627 1280 506 1280 
C 358 1280 262 1190 262 1011 
C 262 454 704 -128 1382 -128 
C 2042 -128 2669 440 2669 1264 
C 2669 2030 2170 2624 1549 2624 
C 1222 2624 947 2503 730 2274 
L 730 3692 
z
" transform="scale(0.015625)"/>
        <path id="CMR17-30" d="M 2688 2025 
C 2688 2416 2682 3080 2413 3591 
C 2176 4039 1798 4198 1466 4198 
C 1158 4198 768 4058 525 3597 
C 269 3118 243 2524 243 2025 
C 243 1661 250 1106 448 619 
C 723 -39 1216 -128 1466 -128 
C 1760 -128 2208 -7 2470 600 
C 2662 1042 2688 1559 2688 2025 
z
M 1466 -26 
C 1056 -26 813 325 723 812 
C 653 1188 653 1738 653 2096 
C 653 2588 653 2997 736 3387 
C 858 3929 1216 4096 1466 4096 
C 1728 4096 2067 3923 2189 3400 
C 2272 3036 2278 2607 2278 2096 
C 2278 1680 2278 1169 2202 792 
C 2067 95 1690 -26 1466 -26 
z
" transform="scale(0.015625)"/>
       </defs>
       <use xlink:href="#CMR17-35" transform="scale(0.996264)"/>
       <use xlink:href="#CMR17-30" transform="translate(45.690477 0) scale(0.996264)"/>
      </g>
     </g>
    </g>
    <g id="xtick_2">
     <g id="line2d_2">
      <g>
       <use xlink:href="#mcbca774629" x="138.701943" y="111.181443" style="stroke: #000000; stroke-width: 0.8"/>
      </g>
     </g>
     <g id="text_2">
      <!-- $\mathdefault{100}$ -->
      <g transform="translate(131.22994 125.099942) scale(0.1 -0.1)">
       <defs>
        <path id="CMR17-31" d="M 1702 4058 
C 1702 4192 1696 4192 1606 4192 
C 1357 3916 979 3827 621 3827 
C 602 3827 570 3827 563 3808 
C 557 3795 557 3782 557 3648 
C 755 3648 1088 3686 1344 3839 
L 1344 461 
C 1344 236 1331 160 781 160 
L 589 160 
L 589 0 
C 896 0 1216 0 1523 0 
C 1830 0 2150 0 2458 0 
L 2458 160 
L 2266 160 
C 1715 160 1702 230 1702 458 
L 1702 4058 
z
" transform="scale(0.015625)"/>
       </defs>
       <use xlink:href="#CMR17-31" transform="scale(0.996264)"/>
       <use xlink:href="#CMR17-30" transform="translate(45.690477 0) scale(0.996264)"/>
       <use xlink:href="#CMR17-30" transform="translate(91.380954 0) scale(0.996264)"/>
      </g>
     </g>
    </g>
    <g id="xtick_3">
     <g id="line2d_3">
      <g>
       <use xlink:href="#mcbca774629" x="199.00365" y="111.181443" style="stroke: #000000; stroke-width: 0.8"/>
      </g>
     </g>
     <g id="text_3">
      <!-- $\mathdefault{150}$ -->
      <g transform="translate(191.531647 125.099942) scale(0.1 -0.1)">
       <use xlink:href="#CMR17-31" transform="scale(0.996264)"/>
       <use xlink:href="#CMR17-35" transform="translate(45.690477 0) scale(0.996264)"/>
       <use xlink:href="#CMR17-30" transform="translate(91.380954 0) scale(0.996264)"/>
      </g>
     </g>
    </g>
    <g id="text_4">
     <!-- $a/ \Delta x$ -->
     <g transform="translate(126.580133 138.5091) scale(0.1 -0.1)">
      <defs>
       <path id="CMMI12-61" d="M 1926 760 
C 1894 651 1894 639 1805 517 
C 1664 338 1382 64 1082 64 
C 819 64 672 300 672 677 
C 672 1028 870 1743 992 2012 
C 1210 2459 1510 2689 1760 2689 
C 2182 2689 2266 2165 2266 2114 
C 2266 2108 2246 2024 2240 2012 
L 1926 760 
z
M 2336 2395 
C 2266 2561 2093 2816 1760 2816 
C 1037 2816 256 1884 256 939 
C 256 307 627 -64 1062 -64 
C 1414 -64 1715 211 1894 422 
C 1958 45 2259 -64 2451 -64 
C 2643 -64 2797 51 2912 281 
C 3014 498 3104 888 3104 913 
C 3104 945 3078 971 3040 971 
C 2982 971 2976 939 2950 843 
C 2854 466 2733 64 2470 64 
C 2285 64 2272 230 2272 358 
C 2272 505 2291 575 2349 824 
C 2394 984 2426 1124 2477 1309 
C 2714 2267 2771 2497 2771 2535 
C 2771 2625 2701 2695 2605 2695 
C 2400 2695 2349 2472 2336 2395 
z
" transform="scale(0.015625)"/>
       <path id="CMMI12-3d" d="M 2746 4562 
C 2746 4569 2784 4666 2784 4678 
C 2784 4755 2720 4800 2669 4800 
C 2637 4800 2579 4800 2528 4659 
L 384 -1363 
C 384 -1370 346 -1465 346 -1478 
C 346 -1555 410 -1600 461 -1600 
C 499 -1600 557 -1593 602 -1459 
L 2746 4562 
z
" transform="scale(0.015625)"/>
       <path id="CMR17-1" d="M 2598 4403 
C 2547 4512 2522 4512 2470 4512 
C 2394 4512 2387 4499 2342 4409 
L 269 109 
C 262 96 237 38 237 32 
C 237 6 243 0 358 0 
L 4576 0 
C 4691 0 4698 6 4698 32 
C 4698 38 4672 96 4666 109 
L 2598 4403 
z
M 2310 4038 
L 4083 358 
L 531 358 
L 2310 4038 
z
" transform="scale(0.015625)"/>
       <path id="CMMI12-78" d="M 3034 2606 
C 2829 2567 2752 2414 2752 2293 
C 2752 2139 2874 2088 2963 2088 
C 3155 2088 3290 2254 3290 2427 
C 3290 2695 2982 2816 2714 2816 
C 2323 2816 2106 2433 2048 2312 
C 1901 2816 1504 2816 1389 2816 
C 736 2816 390 1980 390 1839 
C 390 1814 416 1782 461 1782 
C 512 1782 525 1820 538 1846 
C 755 2555 1184 2689 1370 2689 
C 1658 2689 1715 2420 1715 2267 
C 1715 2127 1677 1980 1600 1673 
L 1382 798 
C 1286 415 1101 64 762 64 
C 730 64 570 64 435 147 
C 666 192 717 383 717 460 
C 717 588 621 664 499 664 
C 346 664 179 530 179 326 
C 179 57 480 -64 755 -64 
C 1062 -64 1280 179 1414 441 
C 1517 64 1837 -64 2074 -64 
C 2726 -64 3072 773 3072 913 
C 3072 945 3046 971 3008 971 
C 2950 971 2944 939 2925 888 
C 2752 326 2381 64 2093 64 
C 1869 64 1747 230 1747 492 
C 1747 632 1773 734 1875 1156 
L 2099 2024 
C 2195 2408 2413 2689 2707 2689 
C 2720 2689 2899 2689 3034 2606 
z
" transform="scale(0.015625)"/>
      </defs>
      <use xlink:href="#CMMI12-61" transform="scale(0.996264)"/>
      <use xlink:href="#CMMI12-3d" transform="translate(51.207858 0) scale(0.996264)"/>
      <use xlink:href="#CMR17-1" transform="translate(99.982776 0) scale(0.996264)"/>
      <use xlink:href="#CMMI12-78" transform="translate(176.902366 0) scale(0.996264)"/>
     </g>
    </g>
   </g>
   <g id="matplotlib.axis_2">
    <g id="ytick_1">
     <g id="line2d_4">
      <defs>
       <path id="m586e46747d" d="M 0 0 
L -3.5 0 
" style="stroke: #000000; stroke-width: 0.8"/>
      </defs>
      <g>
       <use xlink:href="#m586e46747d" x="39.204126" y="106.475912" style="stroke: #000000; stroke-width: 0.8"/>
      </g>
     </g>
     <g id="text_5">
      <!-- $\mathdefault{0}$ -->
      <g transform="translate(27.222791 109.935162) scale(0.1 -0.1)">
       <use xlink:href="#CMR17-30" transform="scale(0.996264)"/>
      </g>
     </g>
    </g>
    <g id="ytick_2">
     <g id="line2d_5">
      <g>
       <use xlink:href="#m586e46747d" x="39.204126" y="78.84175" style="stroke: #000000; stroke-width: 0.8"/>
      </g>
     </g>
     <g id="text_6">
      <!-- $\mathdefault{10}$ -->
      <g transform="translate(22.241456 82.300999) scale(0.1 -0.1)">
       <use xlink:href="#CMR17-31" transform="scale(0.996264)"/>
       <use xlink:href="#CMR17-30" transform="translate(45.690477 0) scale(0.996264)"/>
      </g>
     </g>
    </g>
    <g id="ytick_3">
     <g id="line2d_6">
      <g>
       <use xlink:href="#m586e46747d" x="39.204126" y="51.207587" style="stroke: #000000; stroke-width: 0.8"/>
      </g>
     </g>
     <g id="text_7">
      <!-- $\mathdefault{20}$ -->
      <g transform="translate(22.241456 54.666836) scale(0.1 -0.1)">
       <defs>
        <path id="CMR17-32" d="M 2669 989 
L 2554 989 
C 2490 536 2438 459 2413 420 
C 2381 369 1920 369 1830 369 
L 602 369 
C 832 619 1280 1072 1824 1597 
C 2214 1967 2669 2402 2669 3035 
C 2669 3790 2067 4224 1395 4224 
C 691 4224 262 3604 262 3030 
C 262 2780 448 2748 525 2748 
C 589 2748 781 2787 781 3010 
C 781 3207 614 3264 525 3264 
C 486 3264 448 3258 422 3245 
C 544 3790 915 4058 1306 4058 
C 1862 4058 2227 3617 2227 3035 
C 2227 2479 1901 2000 1536 1584 
L 262 146 
L 262 0 
L 2515 0 
L 2669 989 
z
" transform="scale(0.015625)"/>
       </defs>
       <use xlink:href="#CMR17-32" transform="scale(0.996264)"/>
       <use xlink:href="#CMR17-30" transform="translate(45.690477 0) scale(0.996264)"/>
      </g>
     </g>
    </g>
    <g id="ytick_4">
     <g id="line2d_7">
      <g>
       <use xlink:href="#m586e46747d" x="39.204126" y="23.573424" style="stroke: #000000; stroke-width: 0.8"/>
      </g>
     </g>
     <g id="text_8">
      <!-- $\mathdefault{30}$ -->
      <g transform="translate(22.241456 27.032673) scale(0.1 -0.1)">
       <defs>
        <path id="CMR17-33" d="M 1414 2157 
C 1984 2157 2234 1662 2234 1090 
C 2234 320 1824 25 1453 25 
C 1114 25 563 194 390 693 
C 422 680 454 680 486 680 
C 640 680 755 782 755 948 
C 755 1133 614 1216 486 1216 
C 378 1216 211 1165 211 926 
C 211 335 787 -128 1466 -128 
C 2176 -128 2720 430 2720 1085 
C 2720 1707 2208 2157 1600 2227 
C 2086 2328 2554 2756 2554 3329 
C 2554 3820 2048 4179 1472 4179 
C 890 4179 378 3829 378 3329 
C 378 3110 544 3072 627 3072 
C 762 3072 877 3155 877 3321 
C 877 3486 762 3569 627 3569 
C 602 3569 570 3569 544 3557 
C 730 3959 1235 4032 1459 4032 
C 1683 4032 2106 3925 2106 3320 
C 2106 3143 2080 2828 1862 2550 
C 1670 2304 1453 2304 1242 2284 
C 1210 2284 1062 2269 1037 2269 
C 992 2263 966 2257 966 2208 
C 966 2163 973 2157 1101 2157 
L 1414 2157 
z
" transform="scale(0.015625)"/>
       </defs>
       <use xlink:href="#CMR17-33" transform="scale(0.996264)"/>
       <use xlink:href="#CMR17-30" transform="translate(45.690477 0) scale(0.996264)"/>
      </g>
     </g>
    </g>
    <g id="text_9">
     <!-- $| \frac{\left&lt; F_{LBM} \right&gt;}{\left&lt; F_{exact} \right&gt;} - 1 | \times 100$ -->
     <g transform="translate(13.062482 97.800546) rotate(-90) scale(0.1 -0.1)">
      <defs>
       <path id="CMSY10-6a" d="M 1018 4570 
C 1018 4685 1018 4800 890 4800 
C 762 4800 762 4685 762 4570 
L 762 -1370 
C 762 -1485 762 -1600 890 -1600 
C 1018 -1600 1018 -1485 1018 -1370 
L 1018 4570 
z
" transform="scale(0.015625)"/>
       <path id="CMSY10-68" d="M 2099 4557 
C 2131 4627 2131 4640 2131 4672 
C 2131 4742 2074 4800 2003 4800 
C 1946 4800 1901 4768 1856 4653 
L 736 1715 
C 723 1677 704 1638 704 1600 
C 704 1581 704 1568 736 1491 
L 1856 -1446 
C 1882 -1517 1914 -1600 2003 -1600 
C 2074 -1600 2131 -1542 2131 -1472 
C 2131 -1453 2131 -1440 2099 -1370 
L 966 1600 
L 2099 4557 
z
" transform="scale(0.015625)"/>
       <path id="CMMI12-46" d="M 1901 2055 
L 2515 2055 
C 3002 2055 3040 1946 3040 1761 
C 3040 1678 3027 1589 2995 1448 
C 2982 1423 2976 1391 2976 1378 
C 2976 1333 3002 1308 3046 1308 
C 3098 1308 3104 1333 3130 1435 
L 3501 2935 
C 3501 2961 3482 2999 3437 2999 
C 3379 2999 3373 2974 3347 2863 
C 3213 2376 3085 2240 2528 2240 
L 1946 2240 
L 2362 3926 
C 2419 4154 2432 4154 2694 4154 
L 3552 4154 
C 4352 4154 4467 3918 4467 3464 
C 4467 3426 4467 3285 4448 3119 
C 4442 3094 4429 3011 4429 2985 
C 4429 2934 4461 2915 4499 2915 
C 4544 2915 4570 2941 4582 3055 
L 4717 4174 
C 4717 4195 4730 4263 4730 4277 
C 4730 4352 4672 4352 4557 4352 
L 1523 4352 
C 1402 4352 1338 4352 1338 4229 
C 1338 4154 1382 4154 1491 4154 
C 1888 4154 1888 4113 1888 4050 
C 1888 4018 1882 3992 1862 3922 
L 998 473 
C 941 249 928 185 480 185 
C 358 185 294 185 294 70 
C 294 0 352 0 390 0 
C 512 0 640 0 762 0 
L 1594 0 
C 1734 0 1888 0 2029 0 
C 2086 0 2163 0 2163 115 
C 2163 185 2125 185 1984 185 
C 1478 185 1466 229 1466 324 
C 1466 356 1478 406 1491 449 
L 1901 2055 
z
" transform="scale(0.015625)"/>
       <path id="CMMI12-4c" d="M 2349 3861 
C 2406 4103 2426 4167 2989 4167 
C 3162 4167 3206 4167 3206 4288 
C 3206 4352 3136 4352 3110 4352 
C 2982 4352 2835 4352 2707 4352 
L 1850 4352 
C 1728 4352 1587 4352 1466 4352 
C 1414 4352 1344 4352 1344 4231 
C 1344 4167 1402 4167 1498 4167 
C 1888 4167 1888 4116 1888 4046 
C 1888 4034 1888 3995 1862 3899 
L 998 472 
C 941 249 928 185 480 185 
C 358 185 294 185 294 70 
C 294 0 333 0 461 0 
L 3328 0 
C 3469 0 3475 6 3520 121 
L 4013 1478 
C 4026 1510 4038 1548 4038 1567 
C 4038 1605 4006 1631 3974 1631 
C 3968 1631 3936 1631 3923 1605 
C 3910 1599 3910 1586 3859 1465 
C 3654 905 3366 185 2285 185 
L 1670 185 
C 1581 185 1568 185 1530 192 
C 1459 198 1453 211 1453 262 
C 1453 307 1466 345 1478 401 
L 2349 3861 
z
" transform="scale(0.015625)"/>
       <path id="CMMI12-42" d="M 2342 3921 
C 2400 4160 2426 4160 2675 4160 
L 3507 4160 
C 4230 4160 4230 3544 4230 3485 
C 4230 2966 3712 2304 2867 2304 
L 1946 2304 
L 2342 3921 
z
M 3424 2275 
C 4122 2402 4755 2886 4755 3473 
C 4755 3970 4314 4352 3590 4352 
L 1536 4352 
C 1414 4352 1357 4352 1357 4226 
C 1357 4160 1414 4160 1510 4160 
C 1901 4160 1901 4112 1901 4044 
C 1901 4032 1901 3993 1875 3897 
L 1011 472 
C 954 249 941 185 493 185 
C 371 185 307 185 307 70 
C 307 0 346 0 474 0 
L 2669 0 
C 3648 0 4403 739 4403 1383 
C 4403 1906 3942 2224 3424 2275 
z
M 2515 185 
L 1651 185 
C 1562 185 1549 185 1510 192 
C 1440 198 1434 211 1434 261 
C 1434 305 1446 343 1459 399 
L 1907 2176 
L 3110 2176 
C 3866 2176 3866 1483 3866 1433 
C 3866 828 3309 185 2515 185 
z
" transform="scale(0.015625)"/>
       <path id="CMMI12-4d" d="M 5811 3886 
C 5869 4103 5882 4167 6336 4167 
C 6458 4167 6515 4167 6515 4288 
C 6515 4352 6470 4352 6349 4352 
L 5581 4352 
C 5421 4352 5414 4346 5344 4243 
L 3008 562 
L 2528 4211 
C 2509 4352 2502 4352 2336 4352 
L 1542 4352 
C 1421 4352 1363 4352 1363 4231 
C 1363 4167 1421 4167 1517 4167 
C 1907 4167 1907 4116 1907 4046 
C 1907 4034 1907 3995 1882 3899 
L 1062 634 
C 986 327 838 186 410 186 
C 390 186 314 186 314 73 
C 314 0 371 0 397 0 
C 525 0 851 0 979 0 
L 1286 0 
C 1376 0 1485 0 1574 0 
C 1619 0 1690 0 1690 122 
C 1690 180 1626 186 1600 186 
C 1389 186 1184 224 1184 454 
C 1184 518 1184 524 1210 613 
L 2093 4129 
L 2099 4129 
L 2630 172 
C 2650 19 2656 0 2714 0 
C 2784 0 2816 51 2848 109 
L 5421 4161 
L 5427 4161 
L 4499 473 
C 4442 250 4429 186 3981 186 
C 3859 186 3795 186 3795 70 
C 3795 0 3853 0 3891 0 
C 4000 0 4128 0 4237 0 
L 4992 0 
C 5101 0 5235 0 5344 0 
C 5395 0 5466 0 5466 122 
C 5466 186 5408 186 5312 186 
C 4922 186 4922 234 4922 294 
C 4922 301 4922 345 4934 396 
L 5811 3886 
z
" transform="scale(0.015625)"/>
       <path id="CMSY10-69" d="M 1747 1491 
C 1779 1568 1779 1581 1779 1600 
C 1779 1619 1779 1632 1747 1709 
L 627 4653 
C 589 4762 550 4800 480 4800 
C 410 4800 352 4742 352 4672 
C 352 4653 352 4640 384 4570 
L 1517 1600 
L 384 -1357 
C 352 -1427 352 -1440 352 -1472 
C 352 -1542 410 -1600 480 -1600 
C 563 -1600 589 -1536 614 -1472 
L 1747 1491 
z
" transform="scale(0.015625)"/>
       <path id="CMMI12-65" d="M 1146 1479 
C 1318 1479 1754 1479 2061 1595 
C 2547 1783 2592 2158 2592 2274 
C 2592 2558 2349 2816 1926 2816 
C 1254 2816 288 2210 288 1073 
C 288 402 672 -64 1254 -64 
C 2125 -64 2675 609 2675 692 
C 2675 730 2637 762 2611 762 
C 2592 762 2586 756 2528 699 
C 2118 159 1510 64 1267 64 
C 902 64 710 350 710 822 
C 710 911 710 1071 806 1479 
L 1146 1479 
z
M 838 1600 
C 1114 2592 1722 2689 1926 2689 
C 2208 2689 2400 2522 2400 2277 
C 2400 1600 1376 1600 1107 1600 
L 838 1600 
z
" transform="scale(0.015625)"/>
       <path id="CMMI12-63" d="M 2502 2431 
C 2381 2431 2323 2431 2234 2355 
C 2195 2323 2125 2227 2125 2125 
C 2125 1997 2221 1920 2342 1920 
C 2496 1920 2669 2044 2669 2292 
C 2669 2588 2374 2816 1933 2816 
C 1094 2816 256 1903 256 996 
C 256 441 602 -64 1254 -64 
C 2125 -64 2675 622 2675 706 
C 2675 744 2637 776 2611 776 
C 2592 776 2586 770 2528 713 
C 2118 162 1510 64 1267 64 
C 826 64 685 446 685 764 
C 685 988 794 1605 1024 2039 
C 1190 2338 1536 2682 1939 2682 
C 2022 2682 2374 2682 2502 2431 
z
" transform="scale(0.015625)"/>
       <path id="CMMI12-74" d="M 1286 2566 
L 1875 2566 
C 1997 2566 2061 2566 2061 2681 
C 2061 2752 2022 2752 1894 2752 
L 1331 2752 
L 1568 3692 
C 1594 3781 1594 3794 1594 3840 
C 1594 3943 1510 4000 1427 4000 
C 1376 4000 1229 3981 1178 3775 
L 928 2752 
L 326 2752 
C 198 2752 141 2752 141 2630 
C 141 2566 186 2566 307 2566 
L 877 2566 
L 454 881 
C 403 658 384 594 384 511 
C 384 211 595 -64 954 -64 
C 1600 -64 1946 868 1946 912 
C 1946 951 1920 970 1882 970 
C 1869 970 1843 970 1830 944 
C 1824 938 1818 931 1773 829 
C 1638 511 1344 64 973 64 
C 781 64 768 224 768 364 
C 768 370 768 492 787 568 
L 1286 2566 
z
" transform="scale(0.015625)"/>
       <path id="CMSY10-0" d="M 4218 1472 
C 4326 1472 4442 1472 4442 1600 
C 4442 1728 4326 1728 4218 1728 
L 755 1728 
C 646 1728 531 1728 531 1600 
C 531 1472 646 1472 755 1472 
L 4218 1472 
z
" transform="scale(0.015625)"/>
       <path id="CMSY10-2" d="M 2490 1785 
L 1210 3059 
C 1133 3136 1120 3148 1069 3148 
C 1005 3148 941 3091 941 3020 
C 941 2976 954 2963 1024 2892 
L 2304 1606 
L 1024 320 
C 954 249 941 236 941 192 
C 941 121 1005 64 1069 64 
C 1120 64 1133 76 1210 153 
L 2483 1427 
L 3808 102 
C 3821 96 3866 64 3904 64 
C 3981 64 4032 121 4032 192 
C 4032 204 4032 230 4013 262 
C 4006 275 2989 1280 2669 1606 
L 3840 2777 
C 3872 2816 3968 2899 4000 2937 
C 4006 2950 4032 2976 4032 3020 
C 4032 3091 3981 3148 3904 3148 
C 3853 3148 3827 3123 3757 3052 
L 2490 1785 
z
" transform="scale(0.015625)"/>
      </defs>
      <use xlink:href="#CMSY10-6a" transform="scale(0.996264)"/>
      <use xlink:href="#CMSY10-68" transform="translate(28.869599 48.318576) scale(0.697382)"/>
      <use xlink:href="#CMMI12-46" transform="translate(55.990095 48.318576) scale(0.697382)"/>
      <use xlink:href="#CMMI12-4c" transform="translate(100.19364 37.85788) scale(0.498132)"/>
      <use xlink:href="#CMMI12-42" transform="translate(133.37907 37.85788) scale(0.498132)"/>
      <use xlink:href="#CMMI12-4d" transform="translate(172.946832 37.85788) scale(0.498132)"/>
      <use xlink:href="#CMSY10-69" transform="translate(225.835004 48.318576) scale(0.697382)"/>
      <use xlink:href="#CMSY10-68" transform="translate(34.175355 -34.355253) scale(0.697382)"/>
      <use xlink:href="#CMMI12-46" transform="translate(61.295852 -34.355253) scale(0.697382)"/>
      <use xlink:href="#CMMI12-65" transform="translate(105.499397 -44.815949) scale(0.498132)"/>
      <use xlink:href="#CMMI12-78" transform="translate(128.10539 -44.815949) scale(0.498132)"/>
      <use xlink:href="#CMMI12-61" transform="translate(155.822419 -44.815949) scale(0.498132)"/>
      <use xlink:href="#CMMI12-63" transform="translate(181.426341 -44.815949) scale(0.498132)"/>
      <use xlink:href="#CMMI12-74" transform="translate(202.41795 -44.815949) scale(0.498132)"/>
      <use xlink:href="#CMSY10-69" transform="translate(220.529247 -34.355253) scale(0.697382)"/>
      <use xlink:href="#CMSY10-0" transform="translate(276.290221 0) scale(0.996264)"/>
      <use xlink:href="#CMR17-31" transform="translate(375.916896 0) scale(0.996264)"/>
      <use xlink:href="#CMSY10-6a" transform="translate(421.607373 0) scale(0.996264)"/>
      <use xlink:href="#CMSY10-2" transform="translate(471.420664 0) scale(0.996264)"/>
      <use xlink:href="#CMR17-31" transform="translate(571.047339 0) scale(0.996264)"/>
      <use xlink:href="#CMR17-30" transform="translate(616.737816 0) scale(0.996264)"/>
      <use xlink:href="#CMR17-30" transform="translate(662.428293 0) scale(0.996264)"/>
      <path d="M 28.869599 22.914133 
L 252.9555 22.914133 
L 252.9555 26.899083 
L 28.869599 26.899083 
L 28.869599 22.914133 
z
"/>
     </g>
    </g>
   </g>
   <g id="line2d_8">
    <path d="M 48.249382 95.462489 
L 54.279553 96.150828 
L 60.309724 102.134082 
L 66.339895 104.675641 
L 72.370065 104.940387 
L 78.400236 105.416929 
L 84.430407 104.569743 
L 90.460577 106.264116 
L 96.490748 106.158217 
L 102.520919 105.628726 
L 108.55109 104.940387 
L 114.58126 105.099234 
L 120.611431 103.987302 
L 126.641602 105.046285 
L 132.671772 105.205133 
L 138.701943 104.622692 
" clip-path="url(#pdf53fc5cea)" style="fill: none; stroke: #000000; stroke-width: 0.75; stroke-linecap: square"/>
    <defs>
     <path id="ma3da652068" d="M 0 1 
C 0.265203 1 0.51958 0.894634 0.707107 0.707107 
C 0.894634 0.51958 1 0.265203 1 0 
C 1 -0.265203 0.894634 -0.51958 0.707107 -0.707107 
C 0.51958 -0.894634 0.265203 -1 0 -1 
C -0.265203 -1 -0.51958 -0.894634 -0.707107 -0.707107 
C -0.894634 -0.51958 -1 -0.265203 -1 0 
C -1 0.265203 -0.894634 0.51958 -0.707107 0.707107 
C -0.51958 0.894634 -0.265203 1 0 1 
z
" style="stroke: #000000"/>
    </defs>
    <g clip-path="url(#pdf53fc5cea)">
     <use xlink:href="#ma3da652068" x="48.249382" y="95.462489" style="stroke: #000000"/>
     <use xlink:href="#ma3da652068" x="54.279553" y="96.150828" style="stroke: #000000"/>
     <use xlink:href="#ma3da652068" x="60.309724" y="102.134082" style="stroke: #000000"/>
     <use xlink:href="#ma3da652068" x="66.339895" y="104.675641" style="stroke: #000000"/>
     <use xlink:href="#ma3da652068" x="72.370065" y="104.940387" style="stroke: #000000"/>
     <use xlink:href="#ma3da652068" x="78.400236" y="105.416929" style="stroke: #000000"/>
     <use xlink:href="#ma3da652068" x="84.430407" y="104.569743" style="stroke: #000000"/>
     <use xlink:href="#ma3da652068" x="90.460577" y="106.264116" style="stroke: #000000"/>
     <use xlink:href="#ma3da652068" x="96.490748" y="106.158217" style="stroke: #000000"/>
     <use xlink:href="#ma3da652068" x="102.520919" y="105.628726" style="stroke: #000000"/>
     <use xlink:href="#ma3da652068" x="108.55109" y="104.940387" style="stroke: #000000"/>
     <use xlink:href="#ma3da652068" x="114.58126" y="105.099234" style="stroke: #000000"/>
     <use xlink:href="#ma3da652068" x="120.611431" y="103.987302" style="stroke: #000000"/>
     <use xlink:href="#ma3da652068" x="126.641602" y="105.046285" style="stroke: #000000"/>
     <use xlink:href="#ma3da652068" x="132.671772" y="105.205133" style="stroke: #000000"/>
     <use xlink:href="#ma3da652068" x="138.701943" y="104.622692" style="stroke: #000000"/>
    </g>
   </g>
   <g id="line2d_9">
    <path d="M 48.249382 99.710906 
L 54.279553 102.42581 
L 60.309724 104.339594 
L 66.339895 105.496767 
L 72.370065 100.289492 
L 78.400236 102.959889 
L 84.430407 104.740154 
L 90.460577 104.740154 
L 96.490748 105.58578 
L 102.520919 105.763806 
L 108.55109 102.870876 
L 114.58126 103.939035 
L 120.611431 104.695647 
L 126.641602 105.496767 
L 132.671772 104.206075 
L 138.701943 104.428608 
" clip-path="url(#pdf53fc5cea)" style="fill: none; stroke: #ff0000; stroke-width: 0.75; stroke-linecap: square"/>
    <defs>
     <path id="m9b10289d5d" d="M 0 1 
C 0.265203 1 0.51958 0.894634 0.707107 0.707107 
C 0.894634 0.51958 1 0.265203 1 0 
C 1 -0.265203 0.894634 -0.51958 0.707107 -0.707107 
C 0.51958 -0.894634 0.265203 -1 0 -1 
C -0.265203 -1 -0.51958 -0.894634 -0.707107 -0.707107 
C -0.894634 -0.51958 -1 -0.265203 -1 0 
C -1 0.265203 -0.894634 0.51958 -0.707107 0.707107 
C -0.51958 0.894634 -0.265203 1 0 1 
z
" style="stroke: #ff0000"/>
    </defs>
    <g clip-path="url(#pdf53fc5cea)">
     <use xlink:href="#m9b10289d5d" x="48.249382" y="99.710906" style="fill: #ff0000; stroke: #ff0000"/>
     <use xlink:href="#m9b10289d5d" x="54.279553" y="102.42581" style="fill: #ff0000; stroke: #ff0000"/>
     <use xlink:href="#m9b10289d5d" x="60.309724" y="104.339594" style="fill: #ff0000; stroke: #ff0000"/>
     <use xlink:href="#m9b10289d5d" x="66.339895" y="105.496767" style="fill: #ff0000; stroke: #ff0000"/>
     <use xlink:href="#m9b10289d5d" x="72.370065" y="100.289492" style="fill: #ff0000; stroke: #ff0000"/>
     <use xlink:href="#m9b10289d5d" x="78.400236" y="102.959889" style="fill: #ff0000; stroke: #ff0000"/>
     <use xlink:href="#m9b10289d5d" x="84.430407" y="104.740154" style="fill: #ff0000; stroke: #ff0000"/>
     <use xlink:href="#m9b10289d5d" x="90.460577" y="104.740154" style="fill: #ff0000; stroke: #ff0000"/>
     <use xlink:href="#m9b10289d5d" x="96.490748" y="105.58578" style="fill: #ff0000; stroke: #ff0000"/>
     <use xlink:href="#m9b10289d5d" x="102.520919" y="105.763806" style="fill: #ff0000; stroke: #ff0000"/>
     <use xlink:href="#m9b10289d5d" x="108.55109" y="102.870876" style="fill: #ff0000; stroke: #ff0000"/>
     <use xlink:href="#m9b10289d5d" x="114.58126" y="103.939035" style="fill: #ff0000; stroke: #ff0000"/>
     <use xlink:href="#m9b10289d5d" x="120.611431" y="104.695647" style="fill: #ff0000; stroke: #ff0000"/>
     <use xlink:href="#m9b10289d5d" x="126.641602" y="105.496767" style="fill: #ff0000; stroke: #ff0000"/>
     <use xlink:href="#m9b10289d5d" x="132.671772" y="104.206075" style="fill: #ff0000; stroke: #ff0000"/>
     <use xlink:href="#m9b10289d5d" x="138.701943" y="104.428608" style="fill: #ff0000; stroke: #ff0000"/>
    </g>
   </g>
   <g id="line2d_10">
    <path d="M 48.249382 102.215685 
L 54.279553 7.917567 
L 60.309724 33.975637 
L 66.339895 22.436727 
L 72.370065 105.654434 
L 78.400236 83.933007 
L 84.430407 54.913793 
L 90.460577 54.799168 
L 96.490748 58.352541 
L 102.520919 58.257021 
L 108.55109 106.112933 
L 114.58126 85.365819 
L 120.611431 90.88692 
L 126.641602 88.880984 
L 132.671772 100.821082 
L 138.701943 97.153084 
L 144.732114 102.941643 
L 150.762285 98.012771 
L 156.792455 99.560208 
L 162.822626 97.91725 
L 168.852797 94.19194 
L 174.882967 100.114228 
L 180.913138 101.910019 
L 186.943309 98.299333 
L 192.97348 103.667601 
L 199.00365 97.191292 
L 205.033821 101.069436 
L 211.063992 99.865874 
L 217.094162 100.458103 
L 223.124333 100.993019 
L 229.154504 99.426479 
" clip-path="url(#pdf53fc5cea)" style="fill: none; stroke: #0000ff; stroke-width: 0.75; stroke-linecap: square"/>
    <defs>
     <path id="m3c249b28e8" d="M 0 1 
C 0.265203 1 0.51958 0.894634 0.707107 0.707107 
C 0.894634 0.51958 1 0.265203 1 0 
C 1 -0.265203 0.894634 -0.51958 0.707107 -0.707107 
C 0.51958 -0.894634 0.265203 -1 0 -1 
C -0.265203 -1 -0.51958 -0.894634 -0.707107 -0.707107 
C -0.894634 -0.51958 -1 -0.265203 -1 0 
C -1 0.265203 -0.894634 0.51958 -0.707107 0.707107 
C -0.51958 0.894634 -0.265203 1 0 1 
z
" style="stroke: #0000ff"/>
    </defs>
    <g clip-path="url(#pdf53fc5cea)">
     <use xlink:href="#m3c249b28e8" x="48.249382" y="102.215685" style="fill: #0000ff; stroke: #0000ff"/>
     <use xlink:href="#m3c249b28e8" x="54.279553" y="7.917567" style="fill: #0000ff; stroke: #0000ff"/>
     <use xlink:href="#m3c249b28e8" x="60.309724" y="33.975637" style="fill: #0000ff; stroke: #0000ff"/>
     <use xlink:href="#m3c249b28e8" x="66.339895" y="22.436727" style="fill: #0000ff; stroke: #0000ff"/>
     <use xlink:href="#m3c249b28e8" x="72.370065" y="105.654434" style="fill: #0000ff; stroke: #0000ff"/>
     <use xlink:href="#m3c249b28e8" x="78.400236" y="83.933007" style="fill: #0000ff; stroke: #0000ff"/>
     <use xlink:href="#m3c249b28e8" x="84.430407" y="54.913793" style="fill: #0000ff; stroke: #0000ff"/>
     <use xlink:href="#m3c249b28e8" x="90.460577" y="54.799168" style="fill: #0000ff; stroke: #0000ff"/>
     <use xlink:href="#m3c249b28e8" x="96.490748" y="58.352541" style="fill: #0000ff; stroke: #0000ff"/>
     <use xlink:href="#m3c249b28e8" x="102.520919" y="58.257021" style="fill: #0000ff; stroke: #0000ff"/>
     <use xlink:href="#m3c249b28e8" x="108.55109" y="106.112933" style="fill: #0000ff; stroke: #0000ff"/>
     <use xlink:href="#m3c249b28e8" x="114.58126" y="85.365819" style="fill: #0000ff; stroke: #0000ff"/>
     <use xlink:href="#m3c249b28e8" x="120.611431" y="90.88692" style="fill: #0000ff; stroke: #0000ff"/>
     <use xlink:href="#m3c249b28e8" x="126.641602" y="88.880984" style="fill: #0000ff; stroke: #0000ff"/>
     <use xlink:href="#m3c249b28e8" x="132.671772" y="100.821082" style="fill: #0000ff; stroke: #0000ff"/>
     <use xlink:href="#m3c249b28e8" x="138.701943" y="97.153084" style="fill: #0000ff; stroke: #0000ff"/>
     <use xlink:href="#m3c249b28e8" x="144.732114" y="102.941643" style="fill: #0000ff; stroke: #0000ff"/>
     <use xlink:href="#m3c249b28e8" x="150.762285" y="98.012771" style="fill: #0000ff; stroke: #0000ff"/>
     <use xlink:href="#m3c249b28e8" x="156.792455" y="99.560208" style="fill: #0000ff; stroke: #0000ff"/>
     <use xlink:href="#m3c249b28e8" x="162.822626" y="97.91725" style="fill: #0000ff; stroke: #0000ff"/>
     <use xlink:href="#m3c249b28e8" x="168.852797" y="94.19194" style="fill: #0000ff; stroke: #0000ff"/>
     <use xlink:href="#m3c249b28e8" x="174.882967" y="100.114228" style="fill: #0000ff; stroke: #0000ff"/>
     <use xlink:href="#m3c249b28e8" x="180.913138" y="101.910019" style="fill: #0000ff; stroke: #0000ff"/>
     <use xlink:href="#m3c249b28e8" x="186.943309" y="98.299333" style="fill: #0000ff; stroke: #0000ff"/>
     <use xlink:href="#m3c249b28e8" x="192.97348" y="103.667601" style="fill: #0000ff; stroke: #0000ff"/>
     <use xlink:href="#m3c249b28e8" x="199.00365" y="97.191292" style="fill: #0000ff; stroke: #0000ff"/>
     <use xlink:href="#m3c249b28e8" x="205.033821" y="101.069436" style="fill: #0000ff; stroke: #0000ff"/>
     <use xlink:href="#m3c249b28e8" x="211.063992" y="99.865874" style="fill: #0000ff; stroke: #0000ff"/>
     <use xlink:href="#m3c249b28e8" x="217.094162" y="100.458103" style="fill: #0000ff; stroke: #0000ff"/>
     <use xlink:href="#m3c249b28e8" x="223.124333" y="100.993019" style="fill: #0000ff; stroke: #0000ff"/>
     <use xlink:href="#m3c249b28e8" x="229.154504" y="99.426479" style="fill: #0000ff; stroke: #0000ff"/>
    </g>
   </g>
   <g id="patch_3">
    <path d="M 39.204126 111.181443 
L 39.204126 3.00024 
" style="fill: none; stroke: #000000; stroke-width: 0.8; stroke-linejoin: miter; stroke-linecap: square"/>
   </g>
   <g id="patch_4">
    <path d="M 238.19976 111.181443 
L 238.19976 3.00024 
" style="fill: none; stroke: #000000; stroke-width: 0.8; stroke-linejoin: miter; stroke-linecap: square"/>
   </g>
   <g id="patch_5">
    <path d="M 39.204126 111.181443 
L 238.19976 111.181443 
" style="fill: none; stroke: #000000; stroke-width: 0.8; stroke-linejoin: miter; stroke-linecap: square"/>
   </g>
   <g id="patch_6">
    <path d="M 39.204126 3.00024 
L 238.19976 3.00024 
" style="fill: none; stroke: #000000; stroke-width: 0.8; stroke-linejoin: miter; stroke-linecap: square"/>
   </g>
   <g id="legend_1">
    <g id="patch_7">
     <path d="M 152.145896 55.88816 
L 231.19976 55.88816 
Q 233.19976 55.88816 233.19976 53.88816 
L 233.19976 10.00024 
Q 233.19976 8.00024 231.19976 8.00024 
L 152.145896 8.00024 
Q 150.145896 8.00024 150.145896 10.00024 
L 150.145896 53.88816 
Q 150.145896 55.88816 152.145896 55.88816 
z
" style="fill: #ffffff; opacity: 0.8; stroke: #cccccc; stroke-linejoin: miter"/>
    </g>
    <g id="line2d_11">
     <path d="M 154.145896 15.97222 
L 164.145896 15.97222 
L 174.145896 15.97222 
" style="fill: none; stroke: #000000; stroke-width: 0.75; stroke-linecap: square"/>
     <g>
      <use xlink:href="#ma3da652068" x="164.145896" y="15.97222" style="stroke: #000000"/>
     </g>
    </g>
    <g id="text_10">
     <!-- $a/ \lambda = 0.91$ -->
     <g transform="translate(182.145896 19.47222) scale(0.1 -0.1)">
      <defs>
       <path id="CMMI12-15" d="M 1978 3965 
C 1818 4416 1312 4416 1229 4416 
C 1190 4416 1120 4416 1120 4352 
C 1120 4302 1158 4295 1190 4289 
C 1286 4276 1363 4263 1466 4080 
C 1530 3959 2189 2059 2189 2046 
C 2189 2040 2182 2033 2131 1982 
L 467 311 
C 390 234 339 183 339 102 
C 339 12 416 -64 518 -64 
C 544 -64 614 -51 653 -13 
C 755 82 1670 1194 2253 1881 
C 2419 1383 2624 797 2822 261 
C 2854 166 2886 76 2976 -6 
C 3040 -64 3053 -64 3232 -64 
L 3354 -64 
C 3379 -64 3424 -64 3424 -13 
C 3424 13 3418 19 3392 45 
C 3334 115 3290 229 3264 306 
L 1978 3965 
z
" transform="scale(0.015625)"/>
       <path id="CMR17-3d" d="M 4115 2017 
C 4211 2017 4307 2017 4307 2125 
C 4307 2240 4198 2240 4090 2240 
L 512 2240 
C 403 2240 294 2240 294 2125 
C 294 2017 390 2017 486 2017 
L 4115 2017 
z
M 4090 896 
C 4198 896 4307 896 4307 1011 
C 4307 1119 4211 1119 4115 1119 
L 486 1119 
C 390 1119 294 1119 294 1011 
C 294 896 403 896 512 896 
L 4090 896 
z
" transform="scale(0.015625)"/>
       <path id="CMMI12-3a" d="M 1178 307 
C 1178 492 1024 619 870 619 
C 685 619 557 466 557 313 
C 557 128 710 0 864 0 
C 1050 0 1178 153 1178 307 
z
" transform="scale(0.015625)"/>
       <path id="CMR17-39" d="M 2253 1864 
C 2253 464 1670 31 1190 31 
C 1043 31 685 31 538 294 
C 704 268 826 357 826 518 
C 826 692 685 749 595 749 
C 538 749 365 723 365 506 
C 365 71 742 -128 1203 -128 
C 1939 -128 2688 674 2688 2073 
C 2688 3817 1971 4179 1485 4179 
C 851 4179 243 3628 243 2778 
C 243 1991 762 1408 1414 1408 
C 1952 1408 2189 1903 2253 2112 
L 2253 1864 
z
M 1427 1510 
C 1254 1510 1011 1542 813 1922 
C 678 2169 678 2461 678 2771 
C 678 3146 678 3405 858 3684 
C 947 3817 1114 4032 1485 4032 
C 2240 4032 2240 2885 2240 2632 
C 2240 2182 2035 1510 1427 1510 
z
" transform="scale(0.015625)"/>
      </defs>
      <use xlink:href="#CMMI12-61" transform="scale(0.996264)"/>
      <use xlink:href="#CMMI12-3d" transform="translate(51.207858 0) scale(0.996264)"/>
      <use xlink:href="#CMMI12-15" transform="translate(99.982776 0) scale(0.996264)"/>
      <use xlink:href="#CMR17-3d" transform="translate(184.560857 0) scale(0.996264)"/>
      <use xlink:href="#CMR17-30" transform="translate(283.949654 0) scale(0.996264)"/>
      <use xlink:href="#CMMI12-3a" transform="translate(329.640131 0) scale(0.996264)"/>
      <use xlink:href="#CMR17-39" transform="translate(356.737308 0) scale(0.996264)"/>
      <use xlink:href="#CMR17-31" transform="translate(402.427785 0) scale(0.996264)"/>
     </g>
    </g>
    <g id="line2d_12">
     <path d="M 154.145896 30.93486 
L 164.145896 30.93486 
L 174.145896 30.93486 
" style="fill: none; stroke: #ff0000; stroke-width: 0.75; stroke-linecap: square"/>
     <g>
      <use xlink:href="#m9b10289d5d" x="164.145896" y="30.93486" style="fill: #ff0000; stroke: #ff0000"/>
     </g>
    </g>
    <g id="text_11">
     <!-- $a/ \lambda = 0.93$ -->
     <g transform="translate(182.145896 34.43486) scale(0.1 -0.1)">
      <use xlink:href="#CMMI12-61" transform="scale(0.996264)"/>
      <use xlink:href="#CMMI12-3d" transform="translate(51.207858 0) scale(0.996264)"/>
      <use xlink:href="#CMMI12-15" transform="translate(99.982776 0) scale(0.996264)"/>
      <use xlink:href="#CMR17-3d" transform="translate(184.560857 0) scale(0.996264)"/>
      <use xlink:href="#CMR17-30" transform="translate(283.949654 0) scale(0.996264)"/>
      <use xlink:href="#CMMI12-3a" transform="translate(329.640131 0) scale(0.996264)"/>
      <use xlink:href="#CMR17-39" transform="translate(356.737308 0) scale(0.996264)"/>
      <use xlink:href="#CMR17-33" transform="translate(402.427785 0) scale(0.996264)"/>
     </g>
    </g>
    <g id="line2d_13">
     <path d="M 154.145896 45.8975 
L 164.145896 45.8975 
L 174.145896 45.8975 
" style="fill: none; stroke: #0000ff; stroke-width: 0.75; stroke-linecap: square"/>
     <g>
      <use xlink:href="#m3c249b28e8" x="164.145896" y="45.8975" style="fill: #0000ff; stroke: #0000ff"/>
     </g>
    </g>
    <g id="text_12">
     <!-- $a/ \lambda = 0.95$ -->
     <g transform="translate(182.145896 49.3975) scale(0.1 -0.1)">
      <use xlink:href="#CMMI12-61" transform="scale(0.996264)"/>
      <use xlink:href="#CMMI12-3d" transform="translate(51.207858 0) scale(0.996264)"/>
      <use xlink:href="#CMMI12-15" transform="translate(99.982776 0) scale(0.996264)"/>
      <use xlink:href="#CMR17-3d" transform="translate(184.560857 0) scale(0.996264)"/>
      <use xlink:href="#CMR17-30" transform="translate(283.949654 0) scale(0.996264)"/>
      <use xlink:href="#CMMI12-3a" transform="translate(329.640131 0) scale(0.996264)"/>
      <use xlink:href="#CMR17-39" transform="translate(356.737308 0) scale(0.996264)"/>
      <use xlink:href="#CMR17-35" transform="translate(402.427785 0) scale(0.996264)"/>
     </g>
    </g>
   </g>
  </g>
 </g>
 <defs>
  <clipPath id="pdf53fc5cea">
   <rect x="39.204126" y="3.00024" width="198.995634" height="108.181203"/>
  </clipPath>
 </defs>
</svg>
