<?xml version="1.0" encoding="utf-8" standalone="no"?>
<!DOCTYPE svg PUBLIC "-//W3C//DTD SVG 1.1//EN"
  "http://www.w3.org/Graphics/SVG/1.1/DTD/svg11.dtd">
<svg xmlns:xlink="http://www.w3.org/1999/xlink" width="241.2pt" height="144pt" viewBox="0 0 241.2 144" xmlns="http://www.w3.org/2000/svg" version="1.1">
 <metadata>
  <rdf:RDF xmlns:dc="http://purl.org/dc/elements/1.1/" xmlns:cc="http://creativecommons.org/ns#" xmlns:rdf="http://www.w3.org/1999/02/22-rdf-syntax-ns#">
   <cc:Work>
    <dc:type rdf:resource="http://purl.org/dc/dcmitype/StillImage"/>
    <dc:date>2024-04-02T18:57:01.518726</dc:date>
    <dc:format>image/svg+xml</dc:format>
    <dc:creator>
     <cc:Agent>
      <dc:title>Matplotlib v3.8.0, https://matplotlib.org/</dc:title>
     </cc:Agent>
    </dc:creator>
   </cc:Work>
  </rdf:RDF>
 </metadata>
 <defs>
  <style type="text/css">*{stroke-linejoin: round; stroke-linecap: butt}</style>
 </defs>
 <g id="figure_1">
  <g id="patch_1">
   <path d="M 0 144 
L 241.2 144 
L 241.2 0 
L 0 0 
z
" style="fill: #ffffff"/>
  </g>
  <g id="axes_1">
   <g id="patch_2">
    <path d="M 42.435721 111.181443 
L 238.19976 111.181443 
L 238.19976 3.00024 
L 42.435721 3.00024 
z
" style="fill: #ffffff"/>
   </g>
   <g id="matplotlib.axis_1">
    <g id="xtick_1">
     <g id="line2d_1">
      <defs>
       <path id="m54d45d35c3" d="M 0 0 
L 0 3.5 
" style="stroke: #000000; stroke-width: 0.8"/>
      </defs>
      <g>
       <use xlink:href="#m54d45d35c3" x="51.334087" y="111.181443" style="stroke: #000000; stroke-width: 0.8"/>
      </g>
     </g>
     <g id="text_1">
      <!-- $\mathdefault{0.90}$ -->
      <g transform="translate(42.478379 125.099942) scale(0.1 -0.1)">
       <defs>
        <path id="CMR17-30" d="M 2688 2025 
C 2688 2416 2682 3080 2413 3591 
C 2176 4039 1798 4198 1466 4198 
C 1158 4198 768 4058 525 3597 
C 269 3118 243 2524 243 2025 
C 243 1661 250 1106 448 619 
C 723 -39 1216 -128 1466 -128 
C 1760 -128 2208 -7 2470 600 
C 2662 1042 2688 1559 2688 2025 
z
M 1466 -26 
C 1056 -26 813 325 723 812 
C 653 1188 653 1738 653 2096 
C 653 2588 653 2997 736 3387 
C 858 3929 1216 4096 1466 4096 
C 1728 4096 2067 3923 2189 3400 
C 2272 3036 2278 2607 2278 2096 
C 2278 1680 2278 1169 2202 792 
C 2067 95 1690 -26 1466 -26 
z
" transform="scale(0.015625)"/>
        <path id="CMMI12-3a" d="M 1178 307 
C 1178 492 1024 619 870 619 
C 685 619 557 466 557 313 
C 557 128 710 0 864 0 
C 1050 0 1178 153 1178 307 
z
" transform="scale(0.015625)"/>
        <path id="CMR17-39" d="M 2253 1864 
C 2253 464 1670 31 1190 31 
C 1043 31 685 31 538 294 
C 704 268 826 357 826 518 
C 826 692 685 749 595 749 
C 538 749 365 723 365 506 
C 365 71 742 -128 1203 -128 
C 1939 -128 2688 674 2688 2073 
C 2688 3817 1971 4179 1485 4179 
C 851 4179 243 3628 243 2778 
C 243 1991 762 1408 1414 1408 
C 1952 1408 2189 1903 2253 2112 
L 2253 1864 
z
M 1427 1510 
C 1254 1510 1011 1542 813 1922 
C 678 2169 678 2461 678 2771 
C 678 3146 678 3405 858 3684 
C 947 3817 1114 4032 1485 4032 
C 2240 4032 2240 2885 2240 2632 
C 2240 2182 2035 1510 1427 1510 
z
" transform="scale(0.015625)"/>
       </defs>
       <use xlink:href="#CMR17-30" transform="scale(0.996264)"/>
       <use xlink:href="#CMMI12-3a" transform="translate(45.690477 0) scale(0.996264)"/>
       <use xlink:href="#CMR17-39" transform="translate(72.787654 0) scale(0.996264)"/>
       <use xlink:href="#CMR17-30" transform="translate(118.478131 0) scale(0.996264)"/>
      </g>
     </g>
    </g>
    <g id="xtick_2">
     <g id="line2d_2">
      <g>
       <use xlink:href="#m54d45d35c3" x="95.825914" y="111.181443" style="stroke: #000000; stroke-width: 0.8"/>
      </g>
     </g>
     <g id="text_2">
      <!-- $\mathdefault{0.95}$ -->
      <g transform="translate(86.970206 125.099942) scale(0.1 -0.1)">
       <defs>
        <path id="CMR17-35" d="M 730 3692 
C 794 3666 1056 3584 1325 3584 
C 1920 3584 2246 3911 2432 4100 
C 2432 4157 2432 4192 2394 4192 
C 2387 4192 2374 4192 2323 4163 
C 2099 4058 1837 3973 1517 3973 
C 1325 3973 1037 3999 723 4139 
C 653 4171 640 4171 634 4171 
C 602 4171 595 4164 595 4037 
L 595 2203 
C 595 2089 595 2057 659 2057 
C 691 2057 704 2070 736 2114 
C 941 2401 1222 2522 1542 2522 
C 1766 2522 2246 2382 2246 1289 
C 2246 1085 2246 715 2054 421 
C 1894 159 1645 25 1370 25 
C 947 25 518 320 403 814 
C 429 807 480 795 506 795 
C 589 795 749 840 749 1038 
C 749 1210 627 1280 506 1280 
C 358 1280 262 1190 262 1011 
C 262 454 704 -128 1382 -128 
C 2042 -128 2669 440 2669 1264 
C 2669 2030 2170 2624 1549 2624 
C 1222 2624 947 2503 730 2274 
L 730 3692 
z
" transform="scale(0.015625)"/>
       </defs>
       <use xlink:href="#CMR17-30" transform="scale(0.996264)"/>
       <use xlink:href="#CMMI12-3a" transform="translate(45.690477 0) scale(0.996264)"/>
       <use xlink:href="#CMR17-39" transform="translate(72.787654 0) scale(0.996264)"/>
       <use xlink:href="#CMR17-35" transform="translate(118.478131 0) scale(0.996264)"/>
      </g>
     </g>
    </g>
    <g id="xtick_3">
     <g id="line2d_3">
      <g>
       <use xlink:href="#m54d45d35c3" x="140.317741" y="111.181443" style="stroke: #000000; stroke-width: 0.8"/>
      </g>
     </g>
     <g id="text_3">
      <!-- $\mathdefault{1.00}$ -->
      <g transform="translate(131.462033 125.099942) scale(0.1 -0.1)">
       <defs>
        <path id="CMR17-31" d="M 1702 4058 
C 1702 4192 1696 4192 1606 4192 
C 1357 3916 979 3827 621 3827 
C 602 3827 570 3827 563 3808 
C 557 3795 557 3782 557 3648 
C 755 3648 1088 3686 1344 3839 
L 1344 461 
C 1344 236 1331 160 781 160 
L 589 160 
L 589 0 
C 896 0 1216 0 1523 0 
C 1830 0 2150 0 2458 0 
L 2458 160 
L 2266 160 
C 1715 160 1702 230 1702 458 
L 1702 4058 
z
" transform="scale(0.015625)"/>
       </defs>
       <use xlink:href="#CMR17-31" transform="scale(0.996264)"/>
       <use xlink:href="#CMMI12-3a" transform="translate(45.690477 0) scale(0.996264)"/>
       <use xlink:href="#CMR17-30" transform="translate(72.787654 0) scale(0.996264)"/>
       <use xlink:href="#CMR17-30" transform="translate(118.478131 0) scale(0.996264)"/>
      </g>
     </g>
    </g>
    <g id="xtick_4">
     <g id="line2d_4">
      <g>
       <use xlink:href="#m54d45d35c3" x="184.809568" y="111.181443" style="stroke: #000000; stroke-width: 0.8"/>
      </g>
     </g>
     <g id="text_4">
      <!-- $\mathdefault{1.05}$ -->
      <g transform="translate(175.95386 125.099942) scale(0.1 -0.1)">
       <use xlink:href="#CMR17-31" transform="scale(0.996264)"/>
       <use xlink:href="#CMMI12-3a" transform="translate(45.690477 0) scale(0.996264)"/>
       <use xlink:href="#CMR17-30" transform="translate(72.787654 0) scale(0.996264)"/>
       <use xlink:href="#CMR17-35" transform="translate(118.478131 0) scale(0.996264)"/>
      </g>
     </g>
    </g>
    <g id="xtick_5">
     <g id="line2d_5">
      <g>
       <use xlink:href="#m54d45d35c3" x="229.301395" y="111.181443" style="stroke: #000000; stroke-width: 0.8"/>
      </g>
     </g>
     <g id="text_5">
      <!-- $\mathdefault{1.10}$ -->
      <g transform="translate(220.445687 125.099942) scale(0.1 -0.1)">
       <use xlink:href="#CMR17-31" transform="scale(0.996264)"/>
       <use xlink:href="#CMMI12-3a" transform="translate(45.690477 0) scale(0.996264)"/>
       <use xlink:href="#CMR17-31" transform="translate(72.787654 0) scale(0.996264)"/>
       <use xlink:href="#CMR17-30" transform="translate(118.478131 0) scale(0.996264)"/>
      </g>
     </g>
    </g>
    <g id="text_6">
     <!-- $a / \lambda$ -->
     <g transform="translate(132.28822 138.5091) scale(0.1 -0.1)">
      <defs>
       <path id="CMMI12-61" d="M 1926 760 
C 1894 651 1894 639 1805 517 
C 1664 338 1382 64 1082 64 
C 819 64 672 300 672 677 
C 672 1028 870 1743 992 2012 
C 1210 2459 1510 2689 1760 2689 
C 2182 2689 2266 2165 2266 2114 
C 2266 2108 2246 2024 2240 2012 
L 1926 760 
z
M 2336 2395 
C 2266 2561 2093 2816 1760 2816 
C 1037 2816 256 1884 256 939 
C 256 307 627 -64 1062 -64 
C 1414 -64 1715 211 1894 422 
C 1958 45 2259 -64 2451 -64 
C 2643 -64 2797 51 2912 281 
C 3014 498 3104 888 3104 913 
C 3104 945 3078 971 3040 971 
C 2982 971 2976 939 2950 843 
C 2854 466 2733 64 2470 64 
C 2285 64 2272 230 2272 358 
C 2272 505 2291 575 2349 824 
C 2394 984 2426 1124 2477 1309 
C 2714 2267 2771 2497 2771 2535 
C 2771 2625 2701 2695 2605 2695 
C 2400 2695 2349 2472 2336 2395 
z
" transform="scale(0.015625)"/>
       <path id="CMMI12-3d" d="M 2746 4562 
C 2746 4569 2784 4666 2784 4678 
C 2784 4755 2720 4800 2669 4800 
C 2637 4800 2579 4800 2528 4659 
L 384 -1363 
C 384 -1370 346 -1465 346 -1478 
C 346 -1555 410 -1600 461 -1600 
C 499 -1600 557 -1593 602 -1459 
L 2746 4562 
z
" transform="scale(0.015625)"/>
       <path id="CMMI12-15" d="M 1978 3965 
C 1818 4416 1312 4416 1229 4416 
C 1190 4416 1120 4416 1120 4352 
C 1120 4302 1158 4295 1190 4289 
C 1286 4276 1363 4263 1466 4080 
C 1530 3959 2189 2059 2189 2046 
C 2189 2040 2182 2033 2131 1982 
L 467 311 
C 390 234 339 183 339 102 
C 339 12 416 -64 518 -64 
C 544 -64 614 -51 653 -13 
C 755 82 1670 1194 2253 1881 
C 2419 1383 2624 797 2822 261 
C 2854 166 2886 76 2976 -6 
C 3040 -64 3053 -64 3232 -64 
L 3354 -64 
C 3379 -64 3424 -64 3424 -13 
C 3424 13 3418 19 3392 45 
C 3334 115 3290 229 3264 306 
L 1978 3965 
z
" transform="scale(0.015625)"/>
      </defs>
      <use xlink:href="#CMMI12-61" transform="scale(0.996264)"/>
      <use xlink:href="#CMMI12-3d" transform="translate(51.207858 0) scale(0.996264)"/>
      <use xlink:href="#CMMI12-15" transform="translate(99.982776 0) scale(0.996264)"/>
     </g>
    </g>
   </g>
   <g id="matplotlib.axis_2">
    <g id="ytick_1">
     <g id="line2d_6">
      <defs>
       <path id="mf9c7c830a1" d="M 0 0 
L -3.5 0 
" style="stroke: #000000; stroke-width: 0.8"/>
      </defs>
      <g>
       <use xlink:href="#mf9c7c830a1" x="42.435721" y="101.732418" style="stroke: #000000; stroke-width: 0.8"/>
      </g>
     </g>
     <g id="text_7">
      <!-- $\mathdefault{0.5}$ -->
      <g transform="translate(22.705642 105.191667) scale(0.1 -0.1)">
       <use xlink:href="#CMR17-30" transform="scale(0.996264)"/>
       <use xlink:href="#CMMI12-3a" transform="translate(45.690477 0) scale(0.996264)"/>
       <use xlink:href="#CMR17-35" transform="translate(72.787654 0) scale(0.996264)"/>
      </g>
     </g>
    </g>
    <g id="ytick_2">
     <g id="line2d_7">
      <g>
       <use xlink:href="#mf9c7c830a1" x="42.435721" y="62.184217" style="stroke: #000000; stroke-width: 0.8"/>
      </g>
     </g>
     <g id="text_8">
      <!-- $\mathdefault{1.0}$ -->
      <g transform="translate(22.705642 65.643467) scale(0.1 -0.1)">
       <use xlink:href="#CMR17-31" transform="scale(0.996264)"/>
       <use xlink:href="#CMMI12-3a" transform="translate(45.690477 0) scale(0.996264)"/>
       <use xlink:href="#CMR17-30" transform="translate(72.787654 0) scale(0.996264)"/>
      </g>
     </g>
    </g>
    <g id="ytick_3">
     <g id="line2d_8">
      <g>
       <use xlink:href="#mf9c7c830a1" x="42.435721" y="22.636017" style="stroke: #000000; stroke-width: 0.8"/>
      </g>
     </g>
     <g id="text_9">
      <!-- $\mathdefault{1.5}$ -->
      <g transform="translate(22.705642 26.095266) scale(0.1 -0.1)">
       <use xlink:href="#CMR17-31" transform="scale(0.996264)"/>
       <use xlink:href="#CMMI12-3a" transform="translate(45.690477 0) scale(0.996264)"/>
       <use xlink:href="#CMR17-35" transform="translate(72.787654 0) scale(0.996264)"/>
      </g>
     </g>
    </g>
    <g id="text_10">
     <!-- $\frac{\left&lt; F_x \right&gt; /L}{\lambda \varepsilon_0 E_0^2}$ -->
     <g transform="translate(13.062482 69.835811) rotate(-90) scale(0.1 -0.1)">
      <defs>
       <path id="CMSY10-68" d="M 2099 4557 
C 2131 4627 2131 4640 2131 4672 
C 2131 4742 2074 4800 2003 4800 
C 1946 4800 1901 4768 1856 4653 
L 736 1715 
C 723 1677 704 1638 704 1600 
C 704 1581 704 1568 736 1491 
L 1856 -1446 
C 1882 -1517 1914 -1600 2003 -1600 
C 2074 -1600 2131 -1542 2131 -1472 
C 2131 -1453 2131 -1440 2099 -1370 
L 966 1600 
L 2099 4557 
z
" transform="scale(0.015625)"/>
       <path id="CMMI12-46" d="M 1901 2055 
L 2515 2055 
C 3002 2055 3040 1946 3040 1761 
C 3040 1678 3027 1589 2995 1448 
C 2982 1423 2976 1391 2976 1378 
C 2976 1333 3002 1308 3046 1308 
C 3098 1308 3104 1333 3130 1435 
L 3501 2935 
C 3501 2961 3482 2999 3437 2999 
C 3379 2999 3373 2974 3347 2863 
C 3213 2376 3085 2240 2528 2240 
L 1946 2240 
L 2362 3926 
C 2419 4154 2432 4154 2694 4154 
L 3552 4154 
C 4352 4154 4467 3918 4467 3464 
C 4467 3426 4467 3285 4448 3119 
C 4442 3094 4429 3011 4429 2985 
C 4429 2934 4461 2915 4499 2915 
C 4544 2915 4570 2941 4582 3055 
L 4717 4174 
C 4717 4195 4730 4263 4730 4277 
C 4730 4352 4672 4352 4557 4352 
L 1523 4352 
C 1402 4352 1338 4352 1338 4229 
C 1338 4154 1382 4154 1491 4154 
C 1888 4154 1888 4113 1888 4050 
C 1888 4018 1882 3992 1862 3922 
L 998 473 
C 941 249 928 185 480 185 
C 358 185 294 185 294 70 
C 294 0 352 0 390 0 
C 512 0 640 0 762 0 
L 1594 0 
C 1734 0 1888 0 2029 0 
C 2086 0 2163 0 2163 115 
C 2163 185 2125 185 1984 185 
C 1478 185 1466 229 1466 324 
C 1466 356 1478 406 1491 449 
L 1901 2055 
z
" transform="scale(0.015625)"/>
       <path id="CMMI12-78" d="M 3034 2606 
C 2829 2567 2752 2414 2752 2293 
C 2752 2139 2874 2088 2963 2088 
C 3155 2088 3290 2254 3290 2427 
C 3290 2695 2982 2816 2714 2816 
C 2323 2816 2106 2433 2048 2312 
C 1901 2816 1504 2816 1389 2816 
C 736 2816 390 1980 390 1839 
C 390 1814 416 1782 461 1782 
C 512 1782 525 1820 538 1846 
C 755 2555 1184 2689 1370 2689 
C 1658 2689 1715 2420 1715 2267 
C 1715 2127 1677 1980 1600 1673 
L 1382 798 
C 1286 415 1101 64 762 64 
C 730 64 570 64 435 147 
C 666 192 717 383 717 460 
C 717 588 621 664 499 664 
C 346 664 179 530 179 326 
C 179 57 480 -64 755 -64 
C 1062 -64 1280 179 1414 441 
C 1517 64 1837 -64 2074 -64 
C 2726 -64 3072 773 3072 913 
C 3072 945 3046 971 3008 971 
C 2950 971 2944 939 2925 888 
C 2752 326 2381 64 2093 64 
C 1869 64 1747 230 1747 492 
C 1747 632 1773 734 1875 1156 
L 2099 2024 
C 2195 2408 2413 2689 2707 2689 
C 2720 2689 2899 2689 3034 2606 
z
" transform="scale(0.015625)"/>
       <path id="CMSY10-69" d="M 1747 1491 
C 1779 1568 1779 1581 1779 1600 
C 1779 1619 1779 1632 1747 1709 
L 627 4653 
C 589 4762 550 4800 480 4800 
C 410 4800 352 4742 352 4672 
C 352 4653 352 4640 384 4570 
L 1517 1600 
L 384 -1357 
C 352 -1427 352 -1440 352 -1472 
C 352 -1542 410 -1600 480 -1600 
C 563 -1600 589 -1536 614 -1472 
L 1747 1491 
z
" transform="scale(0.015625)"/>
       <path id="CMMI12-4c" d="M 2349 3861 
C 2406 4103 2426 4167 2989 4167 
C 3162 4167 3206 4167 3206 4288 
C 3206 4352 3136 4352 3110 4352 
C 2982 4352 2835 4352 2707 4352 
L 1850 4352 
C 1728 4352 1587 4352 1466 4352 
C 1414 4352 1344 4352 1344 4231 
C 1344 4167 1402 4167 1498 4167 
C 1888 4167 1888 4116 1888 4046 
C 1888 4034 1888 3995 1862 3899 
L 998 472 
C 941 249 928 185 480 185 
C 358 185 294 185 294 70 
C 294 0 333 0 461 0 
L 3328 0 
C 3469 0 3475 6 3520 121 
L 4013 1478 
C 4026 1510 4038 1548 4038 1567 
C 4038 1605 4006 1631 3974 1631 
C 3968 1631 3936 1631 3923 1605 
C 3910 1599 3910 1586 3859 1465 
C 3654 905 3366 185 2285 185 
L 1670 185 
C 1581 185 1568 185 1530 192 
C 1459 198 1453 211 1453 262 
C 1453 307 1466 345 1478 401 
L 2349 3861 
z
" transform="scale(0.015625)"/>
       <path id="CMMI12-22" d="M 890 1427 
C 1094 1345 1312 1345 1434 1345 
C 1600 1345 1933 1345 1933 1550 
C 1933 1678 1811 1728 1485 1728 
C 1325 1728 1133 1709 909 1613 
C 710 1708 634 1852 634 1990 
C 634 2379 1261 2606 1830 2606 
C 1939 2606 2170 2606 2438 2411 
C 2477 2387 2496 2367 2541 2367 
C 2618 2367 2701 2449 2701 2526 
C 2701 2639 2330 2880 1888 2880 
C 1171 2880 493 2449 493 1972 
C 493 1734 646 1586 755 1509 
C 384 1301 166 961 166 652 
C 166 219 563 -128 1178 -128 
C 2022 -128 2362 424 2362 512 
C 2362 543 2336 568 2304 568 
C 2272 568 2259 549 2234 512 
C 2163 395 1997 146 1235 146 
C 838 146 314 245 314 686 
C 314 898 474 1214 890 1427 
z
M 1088 1518 
C 1261 1600 1427 1600 1472 1600 
C 1651 1600 1683 1583 1786 1545 
C 1677 1472 1664 1472 1434 1472 
C 1318 1472 1216 1472 1088 1518 
z
" transform="scale(0.015625)"/>
       <path id="CMMI12-45" d="M 4448 1489 
C 4454 1508 4474 1554 4474 1579 
C 4474 1611 4448 1643 4410 1643 
C 4384 1643 4371 1637 4352 1617 
C 4339 1611 4339 1598 4282 1469 
C 3904 570 3629 185 2605 185 
L 1670 185 
C 1581 185 1568 185 1530 192 
C 1459 198 1453 211 1453 262 
C 1453 307 1466 345 1478 403 
L 1920 2176 
L 2554 2176 
C 3053 2176 3091 2066 3091 1874 
C 3091 1810 3091 1752 3046 1560 
C 3034 1534 3027 1508 3027 1489 
C 3027 1444 3059 1425 3098 1425 
C 3155 1425 3162 1469 3187 1559 
L 3552 3042 
C 3552 3073 3526 3105 3488 3105 
C 3430 3105 3424 3080 3398 2990 
C 3270 2501 3142 2361 2573 2361 
L 1965 2361 
L 2362 3930 
C 2419 4154 2432 4154 2694 4154 
L 3610 4154 
C 4397 4154 4557 3943 4557 3458 
C 4557 3451 4557 3273 4531 3062 
C 4525 3036 4518 2998 4518 2985 
C 4518 2934 4550 2915 4589 2915 
C 4634 2915 4659 2941 4672 3055 
L 4806 4174 
C 4806 4195 4819 4263 4819 4277 
C 4819 4352 4762 4352 4646 4352 
L 1523 4352 
C 1402 4352 1338 4352 1338 4229 
C 1338 4154 1382 4154 1491 4154 
C 1888 4154 1888 4114 1888 4052 
C 1888 4020 1882 3994 1862 3924 
L 998 473 
C 941 249 928 185 480 185 
C 358 185 294 185 294 70 
C 294 0 333 0 461 0 
L 3674 0 
C 3814 0 3821 6 3866 110 
L 4448 1489 
z
" transform="scale(0.015625)"/>
       <path id="CMR17-32" d="M 2669 989 
L 2554 989 
C 2490 536 2438 459 2413 420 
C 2381 369 1920 369 1830 369 
L 602 369 
C 832 619 1280 1072 1824 1597 
C 2214 1967 2669 2402 2669 3035 
C 2669 3790 2067 4224 1395 4224 
C 691 4224 262 3604 262 3030 
C 262 2780 448 2748 525 2748 
C 589 2748 781 2787 781 3010 
C 781 3207 614 3264 525 3264 
C 486 3264 448 3258 422 3245 
C 544 3790 915 4058 1306 4058 
C 1862 4058 2227 3617 2227 3035 
C 2227 2479 1901 2000 1536 1584 
L 262 146 
L 262 0 
L 2515 0 
L 2669 989 
z
" transform="scale(0.015625)"/>
      </defs>
      <use xlink:href="#CMSY10-68" transform="translate(0 48.318576) scale(0.697382)"/>
      <use xlink:href="#CMMI12-46" transform="translate(27.120497 48.318576) scale(0.697382)"/>
      <use xlink:href="#CMMI12-78" transform="translate(71.324042 37.85788) scale(0.498132)"/>
      <use xlink:href="#CMSY10-69" transform="translate(99.539204 48.318576) scale(0.697382)"/>
      <use xlink:href="#CMMI12-3d" transform="translate(126.6597 48.318576) scale(0.697382)"/>
      <use xlink:href="#CMMI12-4c" transform="translate(160.801991 48.318576) scale(0.697382)"/>
      <use xlink:href="#CMMI12-15" transform="translate(17.075554 -37.201863) scale(0.697382)"/>
      <use xlink:href="#CMMI12-22" transform="translate(56.908222 -37.201863) scale(0.697382)"/>
      <use xlink:href="#CMR17-30" transform="translate(88.863205 -47.662559) scale(0.498132)"/>
      <use xlink:href="#CMMI12-45" transform="translate(112.206575 -37.201863) scale(0.697382)"/>
      <use xlink:href="#CMR17-32" transform="translate(166.84248 -13.180964) scale(0.498132)"/>
      <use xlink:href="#CMR17-30" transform="translate(162.754204 -56.448915) scale(0.498132)"/>
      <path d="M 0 22.914133 
L 207.261405 22.914133 
L 207.261405 26.899083 
L 0 26.899083 
L 0 22.914133 
z
"/>
     </g>
    </g>
   </g>
   <g id="line2d_9">
    <path d="M 51.334087 101.097504 
L 56.797683 101.614303 
L 63.071031 102.44037 
L 84.587278 105.480701 
L 89.952992 105.88165 
L 94.998366 106.036812 
L 99.910263 105.965849 
L 104.804364 105.672398 
L 109.751855 105.15228 
L 114.832822 104.393332 
L 120.145146 103.372789 
L 125.848998 102.046725 
L 132.327008 100.304842 
L 141.830463 97.48702 
L 150.399589 95.025382 
L 155.302588 93.847524 
L 159.351344 93.098806 
L 162.990776 92.648747 
L 166.434443 92.445539 
L 169.82472 92.468665 
L 173.286184 92.716467 
L 176.987904 93.208566 
L 181.196831 93.999556 
L 186.696021 95.276012 
L 202.090193 98.96672 
L 207.705062 100.011722 
L 212.972894 100.767706 
L 218.080556 101.277249 
L 223.054742 101.551519 
L 227.895453 101.597094 
L 229.301395 101.567503 
L 229.301395 101.567503 
" clip-path="url(#pf15440dfdb)" style="fill: none; stroke: #000000; stroke-linecap: square"/>
   </g>
   <g id="line2d_10">
    <path d="M 51.334087 97.634169 
L 53.985799 98.684783 
L 56.37946 99.39898 
L 58.61295 99.836716 
L 60.739659 100.02923 
L 62.80408 99.993378 
L 64.824009 99.735994 
L 66.826141 99.255889 
L 68.819375 98.548381 
L 70.821507 97.600652 
L 72.850334 96.39227 
L 74.932552 94.889086 
L 77.094854 93.048299 
L 79.399531 90.787519 
L 81.997854 87.915686 
L 85.388131 83.809343 
L 90.113163 77.736985 
L 91.501308 75.619984 
L 92.355551 73.918115 
L 93.005132 72.116502 
L 93.539034 69.949071 
L 94.001749 67.090558 
L 94.419972 63.028874 
L 94.8115 56.913092 
L 95.211926 46.846834 
L 96.012779 24.79522 
L 96.030576 24.81283 
L 96.101763 25.270196 
L 96.253035 28.110952 
L 96.635665 41.089478 
L 97.169567 56.15363 
L 97.614485 62.963061 
L 98.0772 66.877995 
L 98.56661 69.231468 
L 99.091614 70.720197 
L 99.670007 71.720269 
L 100.346283 72.450044 
L 101.200526 73.03426 
L 102.410704 73.57223 
L 104.457328 74.20743 
L 108.497186 75.198624 
L 113.622644 76.231291 
L 126.062559 78.620625 
L 130.609624 79.808342 
L 135.752879 81.39462 
L 145.176248 84.346861 
L 148.415253 85.086996 
L 151.164848 85.491655 
L 153.65639 85.636852 
L 155.99666 85.552051 
L 158.23015 85.249329 
L 160.383555 84.733854 
L 162.483569 84.002521 
L 164.54799 83.047182 
L 166.603512 81.848735 
L 168.676831 80.37928 
L 170.741252 78.642211 
L 172.49423 76.888992 
L 173.642119 75.444445 
L 174.380683 74.166355 
L 174.914585 72.7956 
L 175.341707 71.05689 
L 175.697641 68.621091 
L 176.009084 64.848938 
L 176.293832 58.44566 
L 176.57858 46.265795 
L 177.023498 23.801745 
L 177.06799 24.274775 
L 177.183668 28.83424 
L 177.868843 61.351918 
L 178.215879 66.511067 
L 178.58961 69.088314 
L 178.998935 70.474772 
L 179.452752 71.267057 
L 180.00445 71.781408 
L 180.8231 72.211575 
L 183.394728 73.429321 
L 184.765076 74.403918 
L 186.366782 75.832782 
L 188.911714 78.45255 
L 191.830378 81.363452 
L 193.663441 82.87658 
L 195.282944 83.932614 
L 196.822361 84.675461 
L 198.343981 85.164016 
L 199.892297 85.426835 
L 201.511799 85.474788 
L 203.264777 85.301366 
L 205.240215 84.876075 
L 207.562688 84.139813 
L 210.579234 82.934529 
L 223.820002 77.359318 
L 227.58401 76.185661 
L 229.301395 75.722289 
L 229.301395 75.722289 
" clip-path="url(#pf15440dfdb)" style="fill: none; stroke: #ff0000; stroke-linecap: square"/>
   </g>
   <g id="line2d_11">
    <path d="M 51.334087 84.379519 
L 55.863355 86.347767 
L 59.137953 87.52906 
L 62.127804 88.374003 
L 64.930789 88.939646 
L 67.413433 89.221268 
L 69.504549 89.241742 
L 71.257527 89.042027 
L 72.770249 88.648875 
L 74.113902 88.071131 
L 75.350775 87.295538 
L 76.516461 86.29873 
L 77.646553 85.034226 
L 78.767747 83.437382 
L 79.906738 81.414905 
L 81.081322 78.861999 
L 82.282601 75.70787 
L 83.056759 73.125772 
L 83.3771 71.298007 
L 83.555068 68.90562 
L 83.679645 64.008303 
L 83.786425 48.496495 
L 83.884307 21.048864 
L 83.937697 36.633957 
L 84.124563 65.145554 
L 84.320327 68.188125 
L 84.507193 68.536632 
L 84.658465 68.408861 
L 85.005501 67.72332 
L 86.838565 63.765013 
L 87.46145 63.008504 
L 87.95086 62.727864 
L 88.377982 62.727618 
L 88.805103 62.960688 
L 89.285615 63.49605 
L 89.872907 64.51443 
L 90.62037 66.297767 
L 91.697072 69.511456 
L 94.775906 78.993536 
L 95.932694 81.695802 
L 96.973803 83.589099 
L 97.952623 84.928046 
L 98.89585 85.855055 
L 99.82128 86.461795 
L 100.755608 86.813214 
L 101.734428 86.943649 
L 102.802232 86.856344 
L 104.003511 86.527939 
L 105.418352 85.90108 
L 107.171329 84.868318 
L 109.582787 83.167975 
L 119.175224 76.147648 
L 121.987108 74.500811 
L 124.629922 73.207784 
L 127.20155 72.195088 
L 129.764279 71.423815 
L 132.3715 70.871302 
L 135.085502 70.524672 
L 137.986369 70.38098 
L 141.207577 70.448676 
L 145.185146 70.767522 
L 151.31612 71.274747 
L 153.193675 71.184476 
L 154.386056 70.923974 
L 154.839873 70.630058 
L 155.026739 70.246234 
L 155.151316 69.427167 
L 155.240299 67.243396 
L 155.311486 58.385612 
L 155.373775 20.708463 
L 155.427165 52.87028 
L 155.578437 68.978895 
L 155.765303 70.091354 
L 155.978864 70.25379 
L 156.3259 70.183706 
L 157.037769 69.776218 
L 157.963199 68.991254 
L 158.879731 67.91943 
L 159.778466 66.519644 
L 160.677201 64.696807 
L 161.602631 62.294737 
L 162.590349 59.076316 
L 163.764933 54.427879 
L 165.793761 46.301512 
L 166.372154 44.898663 
L 166.772581 44.421003 
L 167.066227 44.374363 
L 167.333178 44.572125 
L 167.653519 45.119952 
L 168.062844 46.305837 
L 168.596746 48.601617 
L 169.344209 52.919457 
L 170.963711 64.020106 
L 172.360754 72.748965 
L 173.490847 78.445211 
L 174.567549 82.767107 
L 175.635353 86.161588 
L 176.712055 88.865283 
L 177.806554 91.029279 
L 178.91885 92.749868 
L 180.048942 94.10073 
L 181.20573 95.143566 
L 182.380314 95.907568 
L 183.581593 96.42558 
L 184.809568 96.714113 
L 186.082034 96.783786 
L 187.40789 96.631338 
L 188.804934 96.242752 
L 190.282062 95.596674 
L 191.865971 94.655 
L 193.574458 93.373141 
L 195.443114 91.684367 
L 197.525332 89.492968 
L 199.936789 86.618947 
L 202.962233 82.645205 
L 214.547905 67.058958 
L 216.950463 64.399984 
L 219.041579 62.407749 
L 220.936931 60.900582 
L 222.734401 59.74997 
L 224.514074 58.872917 
L 226.089085 58.097299 
L 226.195865 57.643812 
L 226.258154 56.31718 
L 226.302645 49.680431 
L 226.338239 7.917567 
L 226.400527 55.191977 
L 226.542901 57.875711 
L 226.729767 58.039963 
L 227.174685 57.988983 
L 229.301395 57.587032 
L 229.301395 57.587032 
" clip-path="url(#pf15440dfdb)" style="fill: none; stroke: #0000ff; stroke-linecap: square"/>
   </g>
   <g id="line2d_12">
    <defs>
     <path id="mf978d43541" d="M 0 1 
C 0.265203 1 0.51958 0.894634 0.707107 0.707107 
C 0.894634 0.51958 1 0.265203 1 0 
C 1 -0.265203 0.894634 -0.51958 0.707107 -0.707107 
C 0.51958 -0.894634 0.265203 -1 0 -1 
C -0.265203 -1 -0.51958 -0.894634 -0.707107 -0.707107 
C -0.894634 -0.51958 -1 -0.265203 -1 0 
C -1 0.265203 -0.894634 0.51958 -0.707107 0.707107 
C -0.51958 0.894634 -0.265203 1 0 1 
z
" style="stroke: #000000"/>
    </defs>
    <g clip-path="url(#pf15440dfdb)">
     <use xlink:href="#mf978d43541" x="51.334087" y="101.955944" style="stroke: #000000"/>
     <use xlink:href="#mf978d43541" x="60.232452" y="102.445959" style="stroke: #000000"/>
     <use xlink:href="#mf978d43541" x="69.130817" y="103.558844" style="stroke: #000000"/>
     <use xlink:href="#mf978d43541" x="78.029183" y="104.756001" style="stroke: #000000"/>
     <use xlink:href="#mf978d43541" x="86.927548" y="105.69186" style="stroke: #000000"/>
     <use xlink:href="#mf978d43541" x="95.825914" y="106.264116" style="stroke: #000000"/>
     <use xlink:href="#mf978d43541" x="104.724279" y="106.239172" style="stroke: #000000"/>
     <use xlink:href="#mf978d43541" x="113.622644" y="105.409368" style="stroke: #000000"/>
     <use xlink:href="#mf978d43541" x="122.52101" y="103.762437" style="stroke: #000000"/>
     <use xlink:href="#mf978d43541" x="131.419375" y="101.141704" style="stroke: #000000"/>
     <use xlink:href="#mf978d43541" x="140.317741" y="98.437518" style="stroke: #000000"/>
     <use xlink:href="#mf978d43541" x="149.216106" y="95.25155" style="stroke: #000000"/>
     <use xlink:href="#mf978d43541" x="158.114471" y="93.104381" style="stroke: #000000"/>
     <use xlink:href="#mf978d43541" x="167.012837" y="91.85135" style="stroke: #000000"/>
     <use xlink:href="#mf978d43541" x="175.911202" y="92.129973" style="stroke: #000000"/>
     <use xlink:href="#mf978d43541" x="184.809568" y="93.280252" style="stroke: #000000"/>
     <use xlink:href="#mf978d43541" x="193.707933" y="95.455993" style="stroke: #000000"/>
     <use xlink:href="#mf978d43541" x="202.606298" y="97.162981" style="stroke: #000000"/>
     <use xlink:href="#mf978d43541" x="211.504664" y="98.658562" style="stroke: #000000"/>
     <use xlink:href="#mf978d43541" x="220.403029" y="99.727325" style="stroke: #000000"/>
     <use xlink:href="#mf978d43541" x="229.301395" y="100.099441" style="stroke: #000000"/>
    </g>
   </g>
   <g id="line2d_13">
    <defs>
     <path id="m197afca72d" d="M 0 1 
C 0.265203 1 0.51958 0.894634 0.707107 0.707107 
C 0.894634 0.51958 1 0.265203 1 0 
C 1 -0.265203 0.894634 -0.51958 0.707107 -0.707107 
C 0.51958 -0.894634 0.265203 -1 0 -1 
C -0.265203 -1 -0.51958 -0.894634 -0.707107 -0.707107 
C -0.894634 -0.51958 -1 -0.265203 -1 0 
C -1 0.265203 -0.894634 0.51958 -0.707107 0.707107 
C -0.51958 0.894634 -0.265203 1 0 1 
z
" style="stroke: #ff0000"/>
    </defs>
    <g clip-path="url(#pf15440dfdb)">
     <use xlink:href="#m197afca72d" x="51.334087" y="97.047216" style="fill: #ff0000; stroke: #ff0000"/>
     <use xlink:href="#m197afca72d" x="60.232452" y="99.125729" style="fill: #ff0000; stroke: #ff0000"/>
     <use xlink:href="#m197afca72d" x="69.130817" y="97.610375" style="fill: #ff0000; stroke: #ff0000"/>
     <use xlink:href="#m197afca72d" x="78.029183" y="91.679165" style="fill: #ff0000; stroke: #ff0000"/>
     <use xlink:href="#m197afca72d" x="86.927548" y="81.824887" style="fill: #ff0000; stroke: #ff0000"/>
     <use xlink:href="#m197afca72d" x="95.825914" y="28.837746" style="fill: #ff0000; stroke: #ff0000"/>
     <use xlink:href="#m197afca72d" x="104.724279" y="75.838198" style="fill: #ff0000; stroke: #ff0000"/>
     <use xlink:href="#m197afca72d" x="113.622644" y="77.088424" style="fill: #ff0000; stroke: #ff0000"/>
     <use xlink:href="#m197afca72d" x="122.52101" y="78.210224" style="fill: #ff0000; stroke: #ff0000"/>
     <use xlink:href="#m197afca72d" x="131.419375" y="79.767781" style="fill: #ff0000; stroke: #ff0000"/>
     <use xlink:href="#m197afca72d" x="140.317741" y="82.112767" style="fill: #ff0000; stroke: #ff0000"/>
     <use xlink:href="#m197afca72d" x="149.216106" y="84.045792" style="fill: #ff0000; stroke: #ff0000"/>
     <use xlink:href="#m197afca72d" x="158.114471" y="83.674254" style="fill: #ff0000; stroke: #ff0000"/>
     <use xlink:href="#m197afca72d" x="167.012837" y="79.80007" style="fill: #ff0000; stroke: #ff0000"/>
     <use xlink:href="#m197afca72d" x="175.911202" y="65.238394" style="fill: #ff0000; stroke: #ff0000"/>
     <use xlink:href="#m197afca72d" x="184.809568" y="72.516268" style="fill: #ff0000; stroke: #ff0000"/>
     <use xlink:href="#m197afca72d" x="193.707933" y="81.693409" style="fill: #ff0000; stroke: #ff0000"/>
     <use xlink:href="#m197afca72d" x="202.606298" y="85.370415" style="fill: #ff0000; stroke: #ff0000"/>
     <use xlink:href="#m197afca72d" x="211.504664" y="82.89436" style="fill: #ff0000; stroke: #ff0000"/>
     <use xlink:href="#m197afca72d" x="220.403029" y="78.568104" style="fill: #ff0000; stroke: #ff0000"/>
     <use xlink:href="#m197afca72d" x="229.301395" y="75.091619" style="fill: #ff0000; stroke: #ff0000"/>
    </g>
   </g>
   <g id="line2d_14">
    <g clip-path="url(#pf15440dfdb)">
     <use xlink:href="#m197afca72d" x="176.979006" y="34.733021" style="fill: #ff0000; stroke: #ff0000"/>
    </g>
   </g>
   <g id="line2d_15">
    <defs>
     <path id="mef8ef5e72b" d="M 0 1 
C 0.265203 1 0.51958 0.894634 0.707107 0.707107 
C 0.894634 0.51958 1 0.265203 1 0 
C 1 -0.265203 0.894634 -0.51958 0.707107 -0.707107 
C 0.51958 -0.894634 0.265203 -1 0 -1 
C -0.265203 -1 -0.51958 -0.894634 -0.707107 -0.707107 
C -0.894634 -0.51958 -1 -0.265203 -1 0 
C -1 0.265203 -0.894634 0.51958 -0.707107 0.707107 
C -0.51958 0.894634 -0.265203 1 0 1 
z
" style="stroke: #0000ff"/>
    </defs>
    <g clip-path="url(#pf15440dfdb)">
     <use xlink:href="#mef8ef5e72b" x="51.334087" y="83.85271" style="fill: #0000ff; stroke: #0000ff"/>
     <use xlink:href="#mef8ef5e72b" x="60.232452" y="86.727211" style="fill: #0000ff; stroke: #0000ff"/>
     <use xlink:href="#mef8ef5e72b" x="69.130817" y="88.766065" style="fill: #0000ff; stroke: #0000ff"/>
     <use xlink:href="#mef8ef5e72b" x="78.029183" y="84.088599" style="fill: #0000ff; stroke: #0000ff"/>
     <use xlink:href="#mef8ef5e72b" x="86.927548" y="66.001744" style="fill: #0000ff; stroke: #0000ff"/>
     <use xlink:href="#mef8ef5e72b" x="95.825914" y="83.141683" style="fill: #0000ff; stroke: #0000ff"/>
     <use xlink:href="#mef8ef5e72b" x="104.724279" y="87.090418" style="fill: #0000ff; stroke: #0000ff"/>
     <use xlink:href="#mef8ef5e72b" x="113.622644" y="80.635425" style="fill: #0000ff; stroke: #0000ff"/>
     <use xlink:href="#mef8ef5e72b" x="122.52101" y="74.211361" style="fill: #0000ff; stroke: #0000ff"/>
     <use xlink:href="#mef8ef5e72b" x="131.419375" y="70.534677" style="fill: #0000ff; stroke: #0000ff"/>
     <use xlink:href="#mef8ef5e72b" x="140.317741" y="69.438071" style="fill: #0000ff; stroke: #0000ff"/>
     <use xlink:href="#mef8ef5e72b" x="149.216106" y="70.066244" style="fill: #0000ff; stroke: #0000ff"/>
     <use xlink:href="#mef8ef5e72b" x="158.114471" y="68.488406" style="fill: #0000ff; stroke: #0000ff"/>
     <use xlink:href="#mef8ef5e72b" x="167.012837" y="43.815114" style="fill: #0000ff; stroke: #0000ff"/>
     <use xlink:href="#mef8ef5e72b" x="175.911202" y="86.04705" style="fill: #0000ff; stroke: #0000ff"/>
     <use xlink:href="#mef8ef5e72b" x="184.809568" y="97.112429" style="fill: #0000ff; stroke: #0000ff"/>
     <use xlink:href="#mef8ef5e72b" x="193.707933" y="93.917191" style="fill: #0000ff; stroke: #0000ff"/>
     <use xlink:href="#mef8ef5e72b" x="202.606298" y="83.737772" style="fill: #0000ff; stroke: #0000ff"/>
     <use xlink:href="#mef8ef5e72b" x="211.504664" y="70.979742" style="fill: #0000ff; stroke: #0000ff"/>
     <use xlink:href="#mef8ef5e72b" x="220.403029" y="60.35178" style="fill: #0000ff; stroke: #0000ff"/>
     <use xlink:href="#mef8ef5e72b" x="229.301395" y="57.139319" style="fill: #0000ff; stroke: #0000ff"/>
    </g>
   </g>
   <g id="line2d_16">
    <g clip-path="url(#pf15440dfdb)">
     <use xlink:href="#mef8ef5e72b" x="83.81312" y="56.794035" style="fill: #0000ff; stroke: #0000ff"/>
    </g>
   </g>
   <g id="line2d_17">
    <g clip-path="url(#pf15440dfdb)">
     <use xlink:href="#mef8ef5e72b" x="155.355978" y="55.15674" style="fill: #0000ff; stroke: #0000ff"/>
    </g>
   </g>
   <g id="line2d_18">
    <g clip-path="url(#pf15440dfdb)">
     <use xlink:href="#mef8ef5e72b" x="226.27595" y="55.15674" style="fill: #0000ff; stroke: #0000ff"/>
    </g>
   </g>
   <g id="patch_3">
    <path d="M 42.435721 111.181443 
L 42.435721 3.00024 
" style="fill: none; stroke: #000000; stroke-width: 0.8; stroke-linejoin: miter; stroke-linecap: square"/>
   </g>
   <g id="patch_4">
    <path d="M 238.19976 111.181443 
L 238.19976 3.00024 
" style="fill: none; stroke: #000000; stroke-width: 0.8; stroke-linejoin: miter; stroke-linecap: square"/>
   </g>
   <g id="patch_5">
    <path d="M 42.435721 111.181443 
L 238.19976 111.181443 
" style="fill: none; stroke: #000000; stroke-width: 0.8; stroke-linejoin: miter; stroke-linecap: square"/>
   </g>
   <g id="patch_6">
    <path d="M 42.435721 3.00024 
L 238.19976 3.00024 
" style="fill: none; stroke: #000000; stroke-width: 0.8; stroke-linejoin: miter; stroke-linecap: square"/>
   </g>
  </g>
 </g>
 <defs>
  <clipPath id="pf15440dfdb">
   <rect x="42.435721" y="3.00024" width="195.764039" height="108.181203"/>
  </clipPath>
 </defs>
</svg>
