<?xml version="1.0" encoding="utf-8" standalone="no"?>
<!DOCTYPE svg PUBLIC "-//W3C//DTD SVG 1.1//EN"
  "http://www.w3.org/Graphics/SVG/1.1/DTD/svg11.dtd">
<svg xmlns:xlink="http://www.w3.org/1999/xlink" width="241.2pt" height="144pt" viewBox="0 0 241.2 144" xmlns="http://www.w3.org/2000/svg" version="1.1">
 <metadata>
  <rdf:RDF xmlns:dc="http://purl.org/dc/elements/1.1/" xmlns:cc="http://creativecommons.org/ns#" xmlns:rdf="http://www.w3.org/1999/02/22-rdf-syntax-ns#">
   <cc:Work>
    <dc:type rdf:resource="http://purl.org/dc/dcmitype/StillImage"/>
    <dc:date>2024-04-02T18:55:59.426891</dc:date>
    <dc:format>image/svg+xml</dc:format>
    <dc:creator>
     <cc:Agent>
      <dc:title>Matplotlib v3.6.3, https://matplotlib.org/</dc:title>
     </cc:Agent>
    </dc:creator>
   </cc:Work>
  </rdf:RDF>
 </metadata>
 <defs>
  <style type="text/css">*{stroke-linejoin: round; stroke-linecap: butt}</style>
 </defs>
 <g id="figure_1">
  <g id="patch_1">
   <path d="M 0 144 
L 241.2 144 
L 241.2 0 
L 0 0 
z
" style="fill: #ffffff"/>
  </g>
  <g id="axes_1">
   <g id="patch_2">
    <path d="M 42.435721 111.181443 
L 238.19976 111.181443 
L 238.19976 5.809684 
L 42.435721 5.809684 
z
" style="fill: #ffffff"/>
   </g>
   <g id="matplotlib.axis_1">
    <g id="xtick_1">
     <g id="line2d_1">
      <defs>
       <path id="ma268bbfaa4" d="M 0 0 
L 0 3.5 
" style="stroke: #000000; stroke-width: 0.8"/>
      </defs>
      <g>
       <use xlink:href="#ma268bbfaa4" x="51.334087" y="111.181443" style="stroke: #000000; stroke-width: 0.8"/>
      </g>
     </g>
     <g id="text_1">
      <!-- $\mathdefault{2.40}$ -->
      <g transform="translate(42.478379 125.099942) scale(0.1 -0.1)">
       <defs>
        <path id="CMR17-32" d="M 2669 989 
L 2554 989 
C 2490 536 2438 459 2413 420 
C 2381 369 1920 369 1830 369 
L 602 369 
C 832 619 1280 1072 1824 1597 
C 2214 1967 2669 2402 2669 3035 
C 2669 3790 2067 4224 1395 4224 
C 691 4224 262 3604 262 3030 
C 262 2780 448 2748 525 2748 
C 589 2748 781 2787 781 3010 
C 781 3207 614 3264 525 3264 
C 486 3264 448 3258 422 3245 
C 544 3790 915 4058 1306 4058 
C 1862 4058 2227 3617 2227 3035 
C 2227 2479 1901 2000 1536 1584 
L 262 146 
L 262 0 
L 2515 0 
L 2669 989 
z
" transform="scale(0.015625)"/>
        <path id="CMMI12-3a" d="M 1178 307 
C 1178 492 1024 619 870 619 
C 685 619 557 466 557 313 
C 557 128 710 0 864 0 
C 1050 0 1178 153 1178 307 
z
" transform="scale(0.015625)"/>
        <path id="CMR17-34" d="M 2150 4122 
C 2150 4256 2144 4256 2029 4256 
L 128 1254 
L 128 1088 
L 1779 1088 
L 1779 457 
C 1779 224 1766 160 1318 160 
L 1197 160 
L 1197 0 
C 1402 0 1747 0 1965 0 
C 2182 0 2528 0 2733 0 
L 2733 160 
L 2611 160 
C 2163 160 2150 224 2150 457 
L 2150 1088 
L 2803 1088 
L 2803 1254 
L 2150 1254 
L 2150 4122 
z
M 1798 3703 
L 1798 1254 
L 256 1254 
L 1798 3703 
z
" transform="scale(0.015625)"/>
        <path id="CMR17-30" d="M 2688 2025 
C 2688 2416 2682 3080 2413 3591 
C 2176 4039 1798 4198 1466 4198 
C 1158 4198 768 4058 525 3597 
C 269 3118 243 2524 243 2025 
C 243 1661 250 1106 448 619 
C 723 -39 1216 -128 1466 -128 
C 1760 -128 2208 -7 2470 600 
C 2662 1042 2688 1559 2688 2025 
z
M 1466 -26 
C 1056 -26 813 325 723 812 
C 653 1188 653 1738 653 2096 
C 653 2588 653 2997 736 3387 
C 858 3929 1216 4096 1466 4096 
C 1728 4096 2067 3923 2189 3400 
C 2272 3036 2278 2607 2278 2096 
C 2278 1680 2278 1169 2202 792 
C 2067 95 1690 -26 1466 -26 
z
" transform="scale(0.015625)"/>
       </defs>
       <use xlink:href="#CMR17-32" transform="scale(0.996264)"/>
       <use xlink:href="#CMMI12-3a" transform="translate(45.690477 0) scale(0.996264)"/>
       <use xlink:href="#CMR17-34" transform="translate(72.787654 0) scale(0.996264)"/>
       <use xlink:href="#CMR17-30" transform="translate(118.478131 0) scale(0.996264)"/>
      </g>
     </g>
    </g>
    <g id="xtick_2">
     <g id="line2d_2">
      <g>
       <use xlink:href="#ma268bbfaa4" x="95.825914" y="111.181443" style="stroke: #000000; stroke-width: 0.8"/>
      </g>
     </g>
     <g id="text_2">
      <!-- $\mathdefault{2.45}$ -->
      <g transform="translate(86.970206 125.099942) scale(0.1 -0.1)">
       <defs>
        <path id="CMR17-35" d="M 730 3692 
C 794 3666 1056 3584 1325 3584 
C 1920 3584 2246 3911 2432 4100 
C 2432 4157 2432 4192 2394 4192 
C 2387 4192 2374 4192 2323 4163 
C 2099 4058 1837 3973 1517 3973 
C 1325 3973 1037 3999 723 4139 
C 653 4171 640 4171 634 4171 
C 602 4171 595 4164 595 4037 
L 595 2203 
C 595 2089 595 2057 659 2057 
C 691 2057 704 2070 736 2114 
C 941 2401 1222 2522 1542 2522 
C 1766 2522 2246 2382 2246 1289 
C 2246 1085 2246 715 2054 421 
C 1894 159 1645 25 1370 25 
C 947 25 518 320 403 814 
C 429 807 480 795 506 795 
C 589 795 749 840 749 1038 
C 749 1210 627 1280 506 1280 
C 358 1280 262 1190 262 1011 
C 262 454 704 -128 1382 -128 
C 2042 -128 2669 440 2669 1264 
C 2669 2030 2170 2624 1549 2624 
C 1222 2624 947 2503 730 2274 
L 730 3692 
z
" transform="scale(0.015625)"/>
       </defs>
       <use xlink:href="#CMR17-32" transform="scale(0.996264)"/>
       <use xlink:href="#CMMI12-3a" transform="translate(45.690477 0) scale(0.996264)"/>
       <use xlink:href="#CMR17-34" transform="translate(72.787654 0) scale(0.996264)"/>
       <use xlink:href="#CMR17-35" transform="translate(118.478131 0) scale(0.996264)"/>
      </g>
     </g>
    </g>
    <g id="xtick_3">
     <g id="line2d_3">
      <g>
       <use xlink:href="#ma268bbfaa4" x="140.317741" y="111.181443" style="stroke: #000000; stroke-width: 0.8"/>
      </g>
     </g>
     <g id="text_3">
      <!-- $\mathdefault{2.50}$ -->
      <g transform="translate(131.462033 125.099942) scale(0.1 -0.1)">
       <use xlink:href="#CMR17-32" transform="scale(0.996264)"/>
       <use xlink:href="#CMMI12-3a" transform="translate(45.690477 0) scale(0.996264)"/>
       <use xlink:href="#CMR17-35" transform="translate(72.787654 0) scale(0.996264)"/>
       <use xlink:href="#CMR17-30" transform="translate(118.478131 0) scale(0.996264)"/>
      </g>
     </g>
    </g>
    <g id="xtick_4">
     <g id="line2d_4">
      <g>
       <use xlink:href="#ma268bbfaa4" x="184.809568" y="111.181443" style="stroke: #000000; stroke-width: 0.8"/>
      </g>
     </g>
     <g id="text_4">
      <!-- $\mathdefault{2.55}$ -->
      <g transform="translate(175.95386 125.099942) scale(0.1 -0.1)">
       <use xlink:href="#CMR17-32" transform="scale(0.996264)"/>
       <use xlink:href="#CMMI12-3a" transform="translate(45.690477 0) scale(0.996264)"/>
       <use xlink:href="#CMR17-35" transform="translate(72.787654 0) scale(0.996264)"/>
       <use xlink:href="#CMR17-35" transform="translate(118.478131 0) scale(0.996264)"/>
      </g>
     </g>
    </g>
    <g id="xtick_5">
     <g id="line2d_5">
      <g>
       <use xlink:href="#ma268bbfaa4" x="229.301395" y="111.181443" style="stroke: #000000; stroke-width: 0.8"/>
      </g>
     </g>
     <g id="text_5">
      <!-- $\mathdefault{2.60}$ -->
      <g transform="translate(220.445687 125.099942) scale(0.1 -0.1)">
       <defs>
        <path id="CMR17-36" d="M 678 2176 
C 678 3690 1395 4032 1811 4032 
C 1946 4032 2272 4009 2400 3776 
C 2298 3776 2106 3776 2106 3553 
C 2106 3381 2246 3323 2336 3323 
C 2394 3323 2566 3348 2566 3560 
C 2566 3954 2246 4179 1805 4179 
C 1043 4179 243 3390 243 1984 
C 243 253 966 -128 1478 -128 
C 2099 -128 2688 427 2688 1283 
C 2688 2081 2170 2662 1517 2662 
C 1126 2662 838 2407 678 1960 
L 678 2176 
z
M 1478 25 
C 691 25 691 1200 691 1436 
C 691 1896 909 2560 1504 2560 
C 1613 2560 1926 2560 2138 2120 
C 2253 1870 2253 1609 2253 1289 
C 2253 944 2253 690 2118 434 
C 1978 171 1773 25 1478 25 
z
" transform="scale(0.015625)"/>
       </defs>
       <use xlink:href="#CMR17-32" transform="scale(0.996264)"/>
       <use xlink:href="#CMMI12-3a" transform="translate(45.690477 0) scale(0.996264)"/>
       <use xlink:href="#CMR17-36" transform="translate(72.787654 0) scale(0.996264)"/>
       <use xlink:href="#CMR17-30" transform="translate(118.478131 0) scale(0.996264)"/>
      </g>
     </g>
    </g>
    <g id="text_6">
     <!-- $a / \lambda$ -->
     <g transform="translate(132.28822 138.5091) scale(0.1 -0.1)">
      <defs>
       <path id="CMMI12-61" d="M 1926 760 
C 1894 651 1894 639 1805 517 
C 1664 338 1382 64 1082 64 
C 819 64 672 300 672 677 
C 672 1028 870 1743 992 2012 
C 1210 2459 1510 2689 1760 2689 
C 2182 2689 2266 2165 2266 2114 
C 2266 2108 2246 2024 2240 2012 
L 1926 760 
z
M 2336 2395 
C 2266 2561 2093 2816 1760 2816 
C 1037 2816 256 1884 256 939 
C 256 307 627 -64 1062 -64 
C 1414 -64 1715 211 1894 422 
C 1958 45 2259 -64 2451 -64 
C 2643 -64 2797 51 2912 281 
C 3014 498 3104 888 3104 913 
C 3104 945 3078 971 3040 971 
C 2982 971 2976 939 2950 843 
C 2854 466 2733 64 2470 64 
C 2285 64 2272 230 2272 358 
C 2272 505 2291 575 2349 824 
C 2394 984 2426 1124 2477 1309 
C 2714 2267 2771 2497 2771 2535 
C 2771 2625 2701 2695 2605 2695 
C 2400 2695 2349 2472 2336 2395 
z
" transform="scale(0.015625)"/>
       <path id="CMMI12-3d" d="M 2746 4562 
C 2746 4569 2784 4666 2784 4678 
C 2784 4755 2720 4800 2669 4800 
C 2637 4800 2579 4800 2528 4659 
L 384 -1363 
C 384 -1370 346 -1465 346 -1478 
C 346 -1555 410 -1600 461 -1600 
C 499 -1600 557 -1593 602 -1459 
L 2746 4562 
z
" transform="scale(0.015625)"/>
       <path id="CMMI12-15" d="M 1978 3965 
C 1818 4416 1312 4416 1229 4416 
C 1190 4416 1120 4416 1120 4352 
C 1120 4302 1158 4295 1190 4289 
C 1286 4276 1363 4263 1466 4080 
C 1530 3959 2189 2059 2189 2046 
C 2189 2040 2182 2033 2131 1982 
L 467 311 
C 390 234 339 183 339 102 
C 339 12 416 -64 518 -64 
C 544 -64 614 -51 653 -13 
C 755 82 1670 1194 2253 1881 
C 2419 1383 2624 797 2822 261 
C 2854 166 2886 76 2976 -6 
C 3040 -64 3053 -64 3232 -64 
L 3354 -64 
C 3379 -64 3424 -64 3424 -13 
C 3424 13 3418 19 3392 45 
C 3334 115 3290 229 3264 306 
L 1978 3965 
z
" transform="scale(0.015625)"/>
      </defs>
      <use xlink:href="#CMMI12-61" transform="scale(0.996264)"/>
      <use xlink:href="#CMMI12-3d" transform="translate(51.207858 0) scale(0.996264)"/>
      <use xlink:href="#CMMI12-15" transform="translate(99.982776 0) scale(0.996264)"/>
     </g>
    </g>
   </g>
   <g id="matplotlib.axis_2">
    <g id="ytick_1">
     <g id="line2d_6">
      <defs>
       <path id="mbd28e65ff5" d="M 0 0 
L -3.5 0 
" style="stroke: #000000; stroke-width: 0.8"/>
      </defs>
      <g>
       <use xlink:href="#mbd28e65ff5" x="42.435721" y="95.244522" style="stroke: #000000; stroke-width: 0.8"/>
      </g>
     </g>
     <g id="text_7">
      <!-- $\mathdefault{1.0}$ -->
      <g transform="translate(22.705642 98.703771) scale(0.1 -0.1)">
       <defs>
        <path id="CMR17-31" d="M 1702 4058 
C 1702 4192 1696 4192 1606 4192 
C 1357 3916 979 3827 621 3827 
C 602 3827 570 3827 563 3808 
C 557 3795 557 3782 557 3648 
C 755 3648 1088 3686 1344 3839 
L 1344 461 
C 1344 236 1331 160 781 160 
L 589 160 
L 589 0 
C 896 0 1216 0 1523 0 
C 1830 0 2150 0 2458 0 
L 2458 160 
L 2266 160 
C 1715 160 1702 230 1702 458 
L 1702 4058 
z
" transform="scale(0.015625)"/>
       </defs>
       <use xlink:href="#CMR17-31" transform="scale(0.996264)"/>
       <use xlink:href="#CMMI12-3a" transform="translate(45.690477 0) scale(0.996264)"/>
       <use xlink:href="#CMR17-30" transform="translate(72.787654 0) scale(0.996264)"/>
      </g>
     </g>
    </g>
    <g id="ytick_2">
     <g id="line2d_7">
      <g>
       <use xlink:href="#mbd28e65ff5" x="42.435721" y="73.048211" style="stroke: #000000; stroke-width: 0.8"/>
      </g>
     </g>
     <g id="text_8">
      <!-- $\mathdefault{1.5}$ -->
      <g transform="translate(22.705642 76.507461) scale(0.1 -0.1)">
       <use xlink:href="#CMR17-31" transform="scale(0.996264)"/>
       <use xlink:href="#CMMI12-3a" transform="translate(45.690477 0) scale(0.996264)"/>
       <use xlink:href="#CMR17-35" transform="translate(72.787654 0) scale(0.996264)"/>
      </g>
     </g>
    </g>
    <g id="ytick_3">
     <g id="line2d_8">
      <g>
       <use xlink:href="#mbd28e65ff5" x="42.435721" y="50.851901" style="stroke: #000000; stroke-width: 0.8"/>
      </g>
     </g>
     <g id="text_9">
      <!-- $\mathdefault{2.0}$ -->
      <g transform="translate(22.705642 54.311151) scale(0.1 -0.1)">
       <use xlink:href="#CMR17-32" transform="scale(0.996264)"/>
       <use xlink:href="#CMMI12-3a" transform="translate(45.690477 0) scale(0.996264)"/>
       <use xlink:href="#CMR17-30" transform="translate(72.787654 0) scale(0.996264)"/>
      </g>
     </g>
    </g>
    <g id="ytick_4">
     <g id="line2d_9">
      <g>
       <use xlink:href="#mbd28e65ff5" x="42.435721" y="28.655591" style="stroke: #000000; stroke-width: 0.8"/>
      </g>
     </g>
     <g id="text_10">
      <!-- $\mathdefault{2.5}$ -->
      <g transform="translate(22.705642 32.11484) scale(0.1 -0.1)">
       <use xlink:href="#CMR17-32" transform="scale(0.996264)"/>
       <use xlink:href="#CMMI12-3a" transform="translate(45.690477 0) scale(0.996264)"/>
       <use xlink:href="#CMR17-35" transform="translate(72.787654 0) scale(0.996264)"/>
      </g>
     </g>
    </g>
    <g id="ytick_5">
     <g id="line2d_10">
      <g>
       <use xlink:href="#mbd28e65ff5" x="42.435721" y="6.459281" style="stroke: #000000; stroke-width: 0.8"/>
      </g>
     </g>
     <g id="text_11">
      <!-- $\mathdefault{3.0}$ -->
      <g transform="translate(22.705642 9.91853) scale(0.1 -0.1)">
       <defs>
        <path id="CMR17-33" d="M 1414 2157 
C 1984 2157 2234 1662 2234 1090 
C 2234 320 1824 25 1453 25 
C 1114 25 563 194 390 693 
C 422 680 454 680 486 680 
C 640 680 755 782 755 948 
C 755 1133 614 1216 486 1216 
C 378 1216 211 1165 211 926 
C 211 335 787 -128 1466 -128 
C 2176 -128 2720 430 2720 1085 
C 2720 1707 2208 2157 1600 2227 
C 2086 2328 2554 2756 2554 3329 
C 2554 3820 2048 4179 1472 4179 
C 890 4179 378 3829 378 3329 
C 378 3110 544 3072 627 3072 
C 762 3072 877 3155 877 3321 
C 877 3486 762 3569 627 3569 
C 602 3569 570 3569 544 3557 
C 730 3959 1235 4032 1459 4032 
C 1683 4032 2106 3925 2106 3320 
C 2106 3143 2080 2828 1862 2550 
C 1670 2304 1453 2304 1242 2284 
C 1210 2284 1062 2269 1037 2269 
C 992 2263 966 2257 966 2208 
C 966 2163 973 2157 1101 2157 
L 1414 2157 
z
" transform="scale(0.015625)"/>
       </defs>
       <use xlink:href="#CMR17-33" transform="scale(0.996264)"/>
       <use xlink:href="#CMMI12-3a" transform="translate(45.690477 0) scale(0.996264)"/>
       <use xlink:href="#CMR17-30" transform="translate(72.787654 0) scale(0.996264)"/>
      </g>
     </g>
    </g>
    <g id="text_12">
     <!-- $\frac{\left&lt; F_x \right&gt; /L}{\lambda \varepsilon_0 E_0^2}$ -->
     <g transform="translate(13.062482 71.240533) rotate(-90) scale(0.1 -0.1)">
      <defs>
       <path id="CMSY10-68" d="M 2099 4557 
C 2131 4627 2131 4640 2131 4672 
C 2131 4742 2074 4800 2003 4800 
C 1946 4800 1901 4768 1856 4653 
L 736 1715 
C 723 1677 704 1638 704 1600 
C 704 1581 704 1568 736 1491 
L 1856 -1446 
C 1882 -1517 1914 -1600 2003 -1600 
C 2074 -1600 2131 -1542 2131 -1472 
C 2131 -1453 2131 -1440 2099 -1370 
L 966 1600 
L 2099 4557 
z
" transform="scale(0.015625)"/>
       <path id="CMMI12-46" d="M 1901 2055 
L 2515 2055 
C 3002 2055 3040 1946 3040 1761 
C 3040 1678 3027 1589 2995 1448 
C 2982 1423 2976 1391 2976 1378 
C 2976 1333 3002 1308 3046 1308 
C 3098 1308 3104 1333 3130 1435 
L 3501 2935 
C 3501 2961 3482 2999 3437 2999 
C 3379 2999 3373 2974 3347 2863 
C 3213 2376 3085 2240 2528 2240 
L 1946 2240 
L 2362 3926 
C 2419 4154 2432 4154 2694 4154 
L 3552 4154 
C 4352 4154 4467 3918 4467 3464 
C 4467 3426 4467 3285 4448 3119 
C 4442 3094 4429 3011 4429 2985 
C 4429 2934 4461 2915 4499 2915 
C 4544 2915 4570 2941 4582 3055 
L 4717 4174 
C 4717 4195 4730 4263 4730 4277 
C 4730 4352 4672 4352 4557 4352 
L 1523 4352 
C 1402 4352 1338 4352 1338 4229 
C 1338 4154 1382 4154 1491 4154 
C 1888 4154 1888 4113 1888 4050 
C 1888 4018 1882 3992 1862 3922 
L 998 473 
C 941 249 928 185 480 185 
C 358 185 294 185 294 70 
C 294 0 352 0 390 0 
C 512 0 640 0 762 0 
L 1594 0 
C 1734 0 1888 0 2029 0 
C 2086 0 2163 0 2163 115 
C 2163 185 2125 185 1984 185 
C 1478 185 1466 229 1466 324 
C 1466 356 1478 406 1491 449 
L 1901 2055 
z
" transform="scale(0.015625)"/>
       <path id="CMMI12-78" d="M 3034 2606 
C 2829 2567 2752 2414 2752 2293 
C 2752 2139 2874 2088 2963 2088 
C 3155 2088 3290 2254 3290 2427 
C 3290 2695 2982 2816 2714 2816 
C 2323 2816 2106 2433 2048 2312 
C 1901 2816 1504 2816 1389 2816 
C 736 2816 390 1980 390 1839 
C 390 1814 416 1782 461 1782 
C 512 1782 525 1820 538 1846 
C 755 2555 1184 2689 1370 2689 
C 1658 2689 1715 2420 1715 2267 
C 1715 2127 1677 1980 1600 1673 
L 1382 798 
C 1286 415 1101 64 762 64 
C 730 64 570 64 435 147 
C 666 192 717 383 717 460 
C 717 588 621 664 499 664 
C 346 664 179 530 179 326 
C 179 57 480 -64 755 -64 
C 1062 -64 1280 179 1414 441 
C 1517 64 1837 -64 2074 -64 
C 2726 -64 3072 773 3072 913 
C 3072 945 3046 971 3008 971 
C 2950 971 2944 939 2925 888 
C 2752 326 2381 64 2093 64 
C 1869 64 1747 230 1747 492 
C 1747 632 1773 734 1875 1156 
L 2099 2024 
C 2195 2408 2413 2689 2707 2689 
C 2720 2689 2899 2689 3034 2606 
z
" transform="scale(0.015625)"/>
       <path id="CMSY10-69" d="M 1747 1491 
C 1779 1568 1779 1581 1779 1600 
C 1779 1619 1779 1632 1747 1709 
L 627 4653 
C 589 4762 550 4800 480 4800 
C 410 4800 352 4742 352 4672 
C 352 4653 352 4640 384 4570 
L 1517 1600 
L 384 -1357 
C 352 -1427 352 -1440 352 -1472 
C 352 -1542 410 -1600 480 -1600 
C 563 -1600 589 -1536 614 -1472 
L 1747 1491 
z
" transform="scale(0.015625)"/>
       <path id="CMMI12-4c" d="M 2349 3861 
C 2406 4103 2426 4167 2989 4167 
C 3162 4167 3206 4167 3206 4288 
C 3206 4352 3136 4352 3110 4352 
C 2982 4352 2835 4352 2707 4352 
L 1850 4352 
C 1728 4352 1587 4352 1466 4352 
C 1414 4352 1344 4352 1344 4231 
C 1344 4167 1402 4167 1498 4167 
C 1888 4167 1888 4116 1888 4046 
C 1888 4034 1888 3995 1862 3899 
L 998 472 
C 941 249 928 185 480 185 
C 358 185 294 185 294 70 
C 294 0 333 0 461 0 
L 3328 0 
C 3469 0 3475 6 3520 121 
L 4013 1478 
C 4026 1510 4038 1548 4038 1567 
C 4038 1605 4006 1631 3974 1631 
C 3968 1631 3936 1631 3923 1605 
C 3910 1599 3910 1586 3859 1465 
C 3654 905 3366 185 2285 185 
L 1670 185 
C 1581 185 1568 185 1530 192 
C 1459 198 1453 211 1453 262 
C 1453 307 1466 345 1478 401 
L 2349 3861 
z
" transform="scale(0.015625)"/>
       <path id="CMMI12-22" d="M 890 1427 
C 1094 1345 1312 1345 1434 1345 
C 1600 1345 1933 1345 1933 1550 
C 1933 1678 1811 1728 1485 1728 
C 1325 1728 1133 1709 909 1613 
C 710 1708 634 1852 634 1990 
C 634 2379 1261 2606 1830 2606 
C 1939 2606 2170 2606 2438 2411 
C 2477 2387 2496 2367 2541 2367 
C 2618 2367 2701 2449 2701 2526 
C 2701 2639 2330 2880 1888 2880 
C 1171 2880 493 2449 493 1972 
C 493 1734 646 1586 755 1509 
C 384 1301 166 961 166 652 
C 166 219 563 -128 1178 -128 
C 2022 -128 2362 424 2362 512 
C 2362 543 2336 568 2304 568 
C 2272 568 2259 549 2234 512 
C 2163 395 1997 146 1235 146 
C 838 146 314 245 314 686 
C 314 898 474 1214 890 1427 
z
M 1088 1518 
C 1261 1600 1427 1600 1472 1600 
C 1651 1600 1683 1583 1786 1545 
C 1677 1472 1664 1472 1434 1472 
C 1318 1472 1216 1472 1088 1518 
z
" transform="scale(0.015625)"/>
       <path id="CMMI12-45" d="M 4448 1489 
C 4454 1508 4474 1554 4474 1579 
C 4474 1611 4448 1643 4410 1643 
C 4384 1643 4371 1637 4352 1617 
C 4339 1611 4339 1598 4282 1469 
C 3904 570 3629 185 2605 185 
L 1670 185 
C 1581 185 1568 185 1530 192 
C 1459 198 1453 211 1453 262 
C 1453 307 1466 345 1478 403 
L 1920 2176 
L 2554 2176 
C 3053 2176 3091 2066 3091 1874 
C 3091 1810 3091 1752 3046 1560 
C 3034 1534 3027 1508 3027 1489 
C 3027 1444 3059 1425 3098 1425 
C 3155 1425 3162 1469 3187 1559 
L 3552 3042 
C 3552 3073 3526 3105 3488 3105 
C 3430 3105 3424 3080 3398 2990 
C 3270 2501 3142 2361 2573 2361 
L 1965 2361 
L 2362 3930 
C 2419 4154 2432 4154 2694 4154 
L 3610 4154 
C 4397 4154 4557 3943 4557 3458 
C 4557 3451 4557 3273 4531 3062 
C 4525 3036 4518 2998 4518 2985 
C 4518 2934 4550 2915 4589 2915 
C 4634 2915 4659 2941 4672 3055 
L 4806 4174 
C 4806 4195 4819 4263 4819 4277 
C 4819 4352 4762 4352 4646 4352 
L 1523 4352 
C 1402 4352 1338 4352 1338 4229 
C 1338 4154 1382 4154 1491 4154 
C 1888 4154 1888 4114 1888 4052 
C 1888 4020 1882 3994 1862 3924 
L 998 473 
C 941 249 928 185 480 185 
C 358 185 294 185 294 70 
C 294 0 333 0 461 0 
L 3674 0 
C 3814 0 3821 6 3866 110 
L 4448 1489 
z
" transform="scale(0.015625)"/>
      </defs>
      <use xlink:href="#CMSY10-68" transform="translate(0 48.318576) scale(0.697382)"/>
      <use xlink:href="#CMMI12-46" transform="translate(27.120497 48.318576) scale(0.697382)"/>
      <use xlink:href="#CMMI12-78" transform="translate(71.324042 37.85788) scale(0.498132)"/>
      <use xlink:href="#CMSY10-69" transform="translate(99.539204 48.318576) scale(0.697382)"/>
      <use xlink:href="#CMMI12-3d" transform="translate(126.6597 48.318576) scale(0.697382)"/>
      <use xlink:href="#CMMI12-4c" transform="translate(160.801991 48.318576) scale(0.697382)"/>
      <use xlink:href="#CMMI12-15" transform="translate(17.075554 -37.201863) scale(0.697382)"/>
      <use xlink:href="#CMMI12-22" transform="translate(56.908222 -37.201863) scale(0.697382)"/>
      <use xlink:href="#CMR17-30" transform="translate(88.863205 -47.662559) scale(0.498132)"/>
      <use xlink:href="#CMMI12-45" transform="translate(112.206575 -37.201863) scale(0.697382)"/>
      <use xlink:href="#CMR17-32" transform="translate(166.84248 -13.180964) scale(0.498132)"/>
      <use xlink:href="#CMR17-30" transform="translate(162.754204 -56.448915) scale(0.498132)"/>
      <path d="M 0 22.914133 
L 207.261405 22.914133 
L 207.261405 26.899083 
L 0 26.899083 
L 0 22.914133 
z
"/>
     </g>
    </g>
   </g>
   <g id="line2d_11">
    <path d="M 51.334087 101.560609 
L 52.909097 100.173996 
L 54.377328 98.583357 
L 55.783269 96.727083 
L 57.171414 94.517793 
L 58.621848 91.77716 
L 60.401521 87.898202 
L 62.812978 82.679441 
L 63.738408 81.207362 
L 64.441379 80.473211 
L 65.019773 80.169607 
L 65.526979 80.143507 
L 66.034186 80.343128 
L 66.603682 80.823157 
L 67.288856 81.717968 
L 68.178692 83.28151 
L 69.611329 86.320782 
L 72.085075 91.524491 
L 73.52661 94.019361 
L 74.88806 95.941415 
L 76.240611 97.474027 
L 77.646553 98.733813 
L 79.141478 99.774623 
L 80.778778 100.640877 
L 82.611841 101.355854 
L 84.73855 101.940978 
L 87.274584 102.400915 
L 90.433504 102.738227 
L 94.606838 102.947251 
L 100.880185 103.016937 
L 127.58418 103.106881 
L 141.57241 103.543975 
L 148.86907 103.65821 
L 152.908928 103.507894 
L 155.854287 103.184871 
L 158.185658 102.712601 
L 160.116604 102.099531 
L 161.7717 101.343385 
L 163.231032 100.432837 
L 164.54799 99.349577 
L 165.775964 98.050582 
L 166.959447 96.468433 
L 168.125132 94.529838 
L 169.33531 92.070985 
L 170.75015 88.655599 
L 173.330676 82.325656 
L 174.069241 81.147041 
L 174.620939 80.643587 
L 175.074756 80.510073 
L 175.492979 80.622459 
L 175.937897 80.986623 
L 176.480698 81.747063 
L 177.17477 83.141892 
L 178.189184 85.742773 
L 181.31251 94.039403 
L 182.576078 96.617382 
L 183.786256 98.596095 
L 185.005332 100.174125 
L 186.277798 101.461327 
L 187.630349 102.513432 
L 189.09858 103.372795 
L 190.735879 104.069918 
L 192.595637 104.614814 
L 194.740143 105.006383 
L 197.267279 105.235632 
L 200.283825 105.278867 
L 203.932155 105.101253 
L 208.443626 104.650261 
L 214.289852 103.830439 
L 223.330591 102.310737 
L 229.301395 101.269681 
L 229.301395 101.269681 
" clip-path="url(#p852a26057e)" style="fill: none; stroke: #000000; stroke-linecap: square"/>
   </g>
   <g id="line2d_12">
    <path d="M 51.334087 67.109531 
L 52.375195 69.649094 
L 53.594271 72.034705 
L 55.026908 74.348228 
L 56.682004 76.597603 
L 58.515067 78.715134 
L 60.472708 80.639145 
L 62.492637 82.316555 
L 64.539261 83.731147 
L 66.576987 84.873195 
L 68.588017 85.748226 
L 70.554556 86.364047 
L 72.485501 86.737065 
L 74.380853 86.878257 
L 76.267306 86.796731 
L 78.171557 86.491419 
L 80.129197 85.949586 
L 82.166923 85.151587 
L 84.347022 84.053954 
L 86.740683 82.592966 
L 89.481379 80.650563 
L 92.889453 77.946865 
L 97.943725 73.623041 
L 98.388643 73.063177 
L 98.477626 72.537562 
L 98.531017 70.702726 
L 98.56661 59.763471 
L 98.584407 44.882224 
L 98.664492 71.93697 
L 98.806866 72.749582 
L 98.975935 72.702296 
L 99.714499 72.106413 
L 116.087492 58.005497 
L 118.97946 55.034869 
L 122.120583 51.472308 
L 125.048146 47.847923 
L 126.27612 46.00001 
L 127.085871 44.381661 
L 127.726554 42.597461 
L 128.296049 40.31839 
L 128.829951 37.19716 
L 129.38165 32.529552 
L 130.582929 21.638877 
L 130.689709 21.556187 
L 130.725303 21.588341 
L 130.84988 21.935707 
L 131.063441 23.319315 
L 131.454969 27.630694 
L 132.522773 39.722969 
L 133.154556 44.193461 
L 133.821934 47.399195 
L 134.587193 50.008159 
L 135.512623 52.375493 
L 136.705004 54.800752 
L 138.25332 57.432884 
L 140.148672 60.212281 
L 142.275381 62.936061 
L 144.588956 65.536614 
L 147.133888 68.059405 
L 149.963569 70.548564 
L 153.104692 73.013956 
L 156.459375 75.365258 
L 159.822958 77.454694 
L 163.008572 79.17684 
L 165.945033 80.516996 
L 168.641238 81.508423 
L 171.141678 82.195467 
L 173.490847 82.613958 
L 175.733235 82.789788 
L 177.851046 82.736187 
L 178.295964 82.595952 
L 178.367151 82.249731 
L 178.402745 80.84154 
L 178.438338 57.210907 
L 178.500627 82.194701 
L 178.643 82.620465 
L 178.990037 82.620675 
L 180.734116 82.325942 
L 182.843029 81.756401 
L 184.969738 80.950724 
L 187.140939 79.888088 
L 189.374429 78.543983 
L 191.688004 76.887868 
L 194.081664 74.896943 
L 196.537613 72.56103 
L 198.975765 69.934094 
L 201.324934 67.076677 
L 203.549525 64.020357 
L 205.685133 60.704316 
L 207.785147 57.025722 
L 209.716092 53.20274 
L 211.041949 50.116381 
L 211.887294 47.593137 
L 212.501281 45.047229 
L 213.008488 41.938896 
L 213.462304 37.654784 
L 213.925019 30.927963 
L 214.663584 19.983802 
L 214.73477 19.869808 
L 214.779262 19.938167 
L 214.894941 20.599506 
L 215.126299 23.58235 
L 216.131814 38.174885 
L 216.621224 41.578999 
L 217.146227 43.765071 
L 217.769113 45.42257 
L 218.587763 46.950955 
L 219.975908 49.011516 
L 222.600925 52.486308 
L 224.629753 54.832554 
L 226.427223 56.576987 
L 228.206896 57.99715 
L 229.301395 58.737233 
L 229.301395 58.737233 
" clip-path="url(#p852a26057e)" style="fill: none; stroke: #ff0000; stroke-linecap: square"/>
   </g>
   <g id="line2d_13">
    <path d="M 51.334087 70.419766 
L 52.099346 70.415584 
L 52.695537 70.199175 
L 53.006979 69.878231 
L 53.158252 69.394124 
L 53.256134 68.202125 
L 53.32732 63.63402 
L 53.389609 41.823775 
L 53.442999 60.554244 
L 53.585373 68.754059 
L 53.754442 69.205045 
L 53.923511 69.132625 
L 54.279446 68.671576 
L 54.804449 67.614994 
L 55.356148 65.988109 
L 55.916745 63.596903 
L 56.48624 60.12951 
L 57.144719 54.607238 
L 58.123539 46.423424 
L 58.39049 45.701197 
L 58.515067 45.742318 
L 58.675238 46.150717 
L 58.933291 47.554106 
L 59.413802 51.6884 
L 60.410419 60.136921 
L 61.024407 63.449615 
L 61.611699 65.473927 
L 62.190092 66.718694 
L 62.768486 67.46681 
L 63.364677 67.888442 
L 64.005359 68.07322 
L 64.752822 68.051621 
L 65.68715 67.789003 
L 66.924023 67.193551 
L 68.721493 66.057508 
L 72.716859 63.186423 
L 76.205018 60.825305 
L 78.97241 59.219187 
L 81.606326 57.946197 
L 84.284734 56.899559 
L 87.123312 56.031458 
L 90.18435 55.3298 
L 93.378863 54.824851 
L 96.55558 54.546729 
L 99.87467 54.483961 
L 108.630661 54.468262 
L 110.499318 54.13331 
L 112.163312 53.610522 
L 113.791713 52.861652 
L 115.642573 51.75126 
L 118.650221 49.91921 
L 119.646838 49.598551 
L 120.456589 49.563677 
L 121.195153 49.754777 
L 121.924819 50.179687 
L 122.698977 50.898639 
L 123.579915 52.039979 
L 124.647719 53.81694 
L 126.16934 56.834577 
L 127.228245 58.835196 
L 127.246042 58.822747 
L 127.30833 58.561986 
L 127.361721 57.068462 
L 127.397314 49.574223 
L 127.424009 31.76103 
L 127.495196 58.092277 
L 127.646468 59.774474 
L 128.0202 60.690406 
L 129.426141 63.400165 
L 130.627421 65.292828 
L 131.490562 66.277567 
L 132.104549 66.678354 
L 132.558366 66.7327 
L 132.932097 66.55432 
L 133.288032 66.120062 
L 133.652865 65.295372 
L 134.035495 63.831558 
L 134.435921 61.337701 
L 134.871941 57.084967 
L 135.868558 46.555038 
L 135.948643 46.641085 
L 136.082119 47.321906 
L 136.322375 49.980491 
L 137.719418 68.072743 
L 138.262218 71.312565 
L 138.84951 73.530033 
L 139.490193 75.113845 
L 140.21096 76.319018 
L 141.02961 77.261928 
L 141.963938 78.000552 
L 143.013945 78.546378 
L 144.161834 78.892003 
L 145.389809 79.029545 
L 146.697869 78.950005 
L 148.077115 78.641005 
L 149.554244 78.077927 
L 151.147051 77.227583 
L 152.900029 76.03299 
L 154.875466 74.409121 
L 157.19794 72.199489 
L 160.161095 69.053125 
L 166.870463 61.477507 
L 170.625573 57.474466 
L 173.437457 54.790292 
L 175.857812 52.778432 
L 178.109098 51.192383 
L 180.38708 49.860985 
L 183.10998 48.541145 
L 188.084166 46.174928 
L 189.908331 45.016706 
L 191.483342 43.752779 
L 192.951572 42.286062 
L 194.446497 40.467768 
L 196.279561 37.85416 
L 198.450762 34.815344 
L 199.349497 33.934219 
L 200.025772 33.557785 
L 200.604166 33.477341 
L 201.022389 33.412169 
L 201.07578 32.971558 
L 201.111373 29.845325 
L 201.138068 10.599309 
L 201.209255 33.299337 
L 201.369426 33.742199 
L 202.472823 35.016012 
L 203.273676 36.445476 
L 204.350378 38.868574 
L 208.701679 49.17952 
L 209.591515 50.564047 
L 210.178807 51.119476 
L 210.561437 51.21797 
L 210.855083 51.067568 
L 211.130932 50.653575 
L 211.424579 49.765334 
L 211.727123 48.074245 
L 212.047464 44.860045 
L 212.403399 38.707194 
L 212.937301 29.646773 
L 212.963996 29.653278 
L 212.990691 29.730167 
L 213.097471 30.718425 
L 213.328829 35.592194 
L 213.978409 49.433724 
L 214.414429 54.040678 
L 214.894941 56.88855 
L 215.44664 58.871436 
L 216.122915 60.477312 
L 216.986057 61.946036 
L 218.142844 63.46246 
L 219.708957 65.136488 
L 221.746682 66.981626 
L 224.158139 68.863999 
L 226.685275 70.558382 
L 229.114529 71.924906 
L 229.301395 72.018883 
L 229.301395 72.018883 
" clip-path="url(#p852a26057e)" style="fill: none; stroke: #0000ff; stroke-linecap: square"/>
   </g>
   <g id="line2d_14">
    <defs>
     <path id="m3bfcd3d6e6" d="M 0 1 
C 0.265203 1 0.51958 0.894634 0.707107 0.707107 
C 0.894634 0.51958 1 0.265203 1 0 
C 1 -0.265203 0.894634 -0.51958 0.707107 -0.707107 
C 0.51958 -0.894634 0.265203 -1 0 -1 
C -0.265203 -1 -0.51958 -0.894634 -0.707107 -0.707107 
C -0.894634 -0.51958 -1 -0.265203 -1 0 
C -1 0.265203 -0.894634 0.51958 -0.707107 0.707107 
C -0.51958 0.894634 -0.265203 1 0 1 
z
" style="stroke: #000000"/>
    </defs>
    <g clip-path="url(#p852a26057e)">
     <use xlink:href="#m3bfcd3d6e6" x="51.334087" y="101.569389" style="stroke: #000000"/>
     <use xlink:href="#m3bfcd3d6e6" x="60.232452" y="88.449124" style="stroke: #000000"/>
     <use xlink:href="#m3bfcd3d6e6" x="69.130817" y="87.73183" style="stroke: #000000"/>
     <use xlink:href="#m3bfcd3d6e6" x="78.029183" y="101.455148" style="stroke: #000000"/>
     <use xlink:href="#m3bfcd3d6e6" x="86.927548" y="103.750548" style="stroke: #000000"/>
     <use xlink:href="#m3bfcd3d6e6" x="95.825914" y="103.797645" style="stroke: #000000"/>
     <use xlink:href="#m3bfcd3d6e6" x="104.724279" y="103.540967" style="stroke: #000000"/>
     <use xlink:href="#m3bfcd3d6e6" x="113.622644" y="103.326454" style="stroke: #000000"/>
     <use xlink:href="#m3bfcd3d6e6" x="122.52101" y="103.239087" style="stroke: #000000"/>
     <use xlink:href="#m3bfcd3d6e6" x="131.419375" y="103.365404" style="stroke: #000000"/>
     <use xlink:href="#m3bfcd3d6e6" x="140.317741" y="103.650719" style="stroke: #000000"/>
     <use xlink:href="#m3bfcd3d6e6" x="149.216106" y="103.778999" style="stroke: #000000"/>
     <use xlink:href="#m3bfcd3d6e6" x="158.114471" y="102.82659" style="stroke: #000000"/>
     <use xlink:href="#m3bfcd3d6e6" x="167.012837" y="96.784422" style="stroke: #000000"/>
     <use xlink:href="#m3bfcd3d6e6" x="175.911202" y="82.323217" style="stroke: #000000"/>
     <use xlink:href="#m3bfcd3d6e6" x="184.809568" y="102.784716" style="stroke: #000000"/>
     <use xlink:href="#m3bfcd3d6e6" x="193.707933" y="106.391818" style="stroke: #000000"/>
     <use xlink:href="#m3bfcd3d6e6" x="202.606298" y="105.991268" style="stroke: #000000"/>
     <use xlink:href="#m3bfcd3d6e6" x="211.504664" y="105.020119" style="stroke: #000000"/>
     <use xlink:href="#m3bfcd3d6e6" x="220.403029" y="103.263392" style="stroke: #000000"/>
     <use xlink:href="#m3bfcd3d6e6" x="229.301395" y="101.797393" style="stroke: #000000"/>
    </g>
   </g>
   <g id="line2d_15">
    <defs>
     <path id="m5781faa227" d="M 0 1 
C 0.265203 1 0.51958 0.894634 0.707107 0.707107 
C 0.894634 0.51958 1 0.265203 1 0 
C 1 -0.265203 0.894634 -0.51958 0.707107 -0.707107 
C 0.51958 -0.894634 0.265203 -1 0 -1 
C -0.265203 -1 -0.51958 -0.894634 -0.707107 -0.707107 
C -0.894634 -0.51958 -1 -0.265203 -1 0 
C -1 0.265203 -0.894634 0.51958 -0.707107 0.707107 
C -0.51958 0.894634 -0.265203 1 0 1 
z
" style="stroke: #ff0000"/>
    </defs>
    <g clip-path="url(#p852a26057e)">
     <use xlink:href="#m5781faa227" x="51.334087" y="64.338727" style="fill: #ff0000; stroke: #ff0000"/>
     <use xlink:href="#m5781faa227" x="60.232452" y="77.607317" style="fill: #ff0000; stroke: #ff0000"/>
     <use xlink:href="#m5781faa227" x="69.130817" y="83.882365" style="fill: #ff0000; stroke: #ff0000"/>
     <use xlink:href="#m5781faa227" x="78.029183" y="85.394193" style="fill: #ff0000; stroke: #ff0000"/>
     <use xlink:href="#m5781faa227" x="86.927548" y="82.390522" style="fill: #ff0000; stroke: #ff0000"/>
     <use xlink:href="#m5781faa227" x="95.825914" y="76.192702" style="fill: #ff0000; stroke: #ff0000"/>
     <use xlink:href="#m5781faa227" x="104.724279" y="68.863855" style="fill: #ff0000; stroke: #ff0000"/>
     <use xlink:href="#m5781faa227" x="113.622644" y="61.229884" style="fill: #ff0000; stroke: #ff0000"/>
     <use xlink:href="#m5781faa227" x="122.52101" y="51.29534" style="fill: #ff0000; stroke: #ff0000"/>
     <use xlink:href="#m5781faa227" x="131.419375" y="22.027146" style="fill: #ff0000; stroke: #ff0000"/>
     <use xlink:href="#m5781faa227" x="140.317741" y="57.970107" style="fill: #ff0000; stroke: #ff0000"/>
     <use xlink:href="#m5781faa227" x="149.216106" y="68.300794" style="fill: #ff0000; stroke: #ff0000"/>
     <use xlink:href="#m5781faa227" x="158.114471" y="75.236278" style="fill: #ff0000; stroke: #ff0000"/>
     <use xlink:href="#m5781faa227" x="167.012837" y="80.131435" style="fill: #ff0000; stroke: #ff0000"/>
     <use xlink:href="#m5781faa227" x="175.911202" y="82.639421" style="fill: #ff0000; stroke: #ff0000"/>
     <use xlink:href="#m5781faa227" x="184.809568" y="81.467795" style="fill: #ff0000; stroke: #ff0000"/>
     <use xlink:href="#m5781faa227" x="193.707933" y="76.316769" style="fill: #ff0000; stroke: #ff0000"/>
     <use xlink:href="#m5781faa227" x="202.606298" y="66.75176" style="fill: #ff0000; stroke: #ff0000"/>
     <use xlink:href="#m5781faa227" x="211.504664" y="50.396993" style="fill: #ff0000; stroke: #ff0000"/>
     <use xlink:href="#m5781faa227" x="220.403029" y="46.249843" style="fill: #ff0000; stroke: #ff0000"/>
     <use xlink:href="#m5781faa227" x="229.301395" y="56.904009" style="fill: #ff0000; stroke: #ff0000"/>
    </g>
   </g>
   <g id="line2d_16">
    <g clip-path="url(#p852a26057e)">
     <use xlink:href="#m5781faa227" x="98.584407" y="73.130959" style="fill: #ff0000; stroke: #ff0000"/>
    </g>
   </g>
   <g id="line2d_17">
    <g clip-path="url(#p852a26057e)">
     <use xlink:href="#m5781faa227" x="214.708075" y="33.966858" style="fill: #ff0000; stroke: #ff0000"/>
    </g>
   </g>
   <g id="line2d_18">
    <g clip-path="url(#p852a26057e)">
     <use xlink:href="#m5781faa227" x="178.42944" y="82.406176" style="fill: #ff0000; stroke: #ff0000"/>
    </g>
   </g>
   <g id="line2d_19">
    <g clip-path="url(#p852a26057e)">
     <use xlink:href="#m5781faa227" x="215.393249" y="23.787186" style="fill: #ff0000; stroke: #ff0000"/>
    </g>
   </g>
   <g id="line2d_20">
    <defs>
     <path id="m37a8b25ffa" d="M 0 1 
C 0.265203 1 0.51958 0.894634 0.707107 0.707107 
C 0.894634 0.51958 1 0.265203 1 0 
C 1 -0.265203 0.894634 -0.51958 0.707107 -0.707107 
C 0.51958 -0.894634 0.265203 -1 0 -1 
C -0.265203 -1 -0.51958 -0.894634 -0.707107 -0.707107 
C -0.894634 -0.51958 -1 -0.265203 -1 0 
C -1 0.265203 -0.894634 0.51958 -0.707107 0.707107 
C -0.51958 0.894634 -0.265203 1 0 1 
z
" style="stroke: #0000ff"/>
    </defs>
    <g clip-path="url(#p852a26057e)">
     <use xlink:href="#m37a8b25ffa" x="51.334087" y="69.705691" style="fill: #0000ff; stroke: #0000ff"/>
     <use xlink:href="#m37a8b25ffa" x="60.232452" y="52.130297" style="fill: #0000ff; stroke: #0000ff"/>
     <use xlink:href="#m37a8b25ffa" x="69.130817" y="65.56181" style="fill: #0000ff; stroke: #0000ff"/>
     <use xlink:href="#m37a8b25ffa" x="78.029183" y="60.04869" style="fill: #0000ff; stroke: #0000ff"/>
     <use xlink:href="#m37a8b25ffa" x="86.927548" y="56.527103" style="fill: #0000ff; stroke: #0000ff"/>
     <use xlink:href="#m37a8b25ffa" x="95.825914" y="54.845732" style="fill: #0000ff; stroke: #0000ff"/>
     <use xlink:href="#m37a8b25ffa" x="104.724279" y="54.158765" style="fill: #0000ff; stroke: #0000ff"/>
     <use xlink:href="#m37a8b25ffa" x="113.622644" y="52.238928" style="fill: #0000ff; stroke: #0000ff"/>
     <use xlink:href="#m37a8b25ffa" x="122.52101" y="48.950438" style="fill: #0000ff; stroke: #0000ff"/>
     <use xlink:href="#m37a8b25ffa" x="131.419375" y="65.436469" style="fill: #0000ff; stroke: #0000ff"/>
     <use xlink:href="#m37a8b25ffa" x="140.317741" y="74.098475" style="fill: #0000ff; stroke: #0000ff"/>
     <use xlink:href="#m37a8b25ffa" x="149.216106" y="78.610105" style="fill: #0000ff; stroke: #0000ff"/>
     <use xlink:href="#m37a8b25ffa" x="158.114471" y="72.805282" style="fill: #0000ff; stroke: #0000ff"/>
     <use xlink:href="#m37a8b25ffa" x="167.012837" y="63.064959" style="fill: #0000ff; stroke: #0000ff"/>
     <use xlink:href="#m37a8b25ffa" x="175.911202" y="53.77562" style="fill: #0000ff; stroke: #0000ff"/>
     <use xlink:href="#m37a8b25ffa" x="184.809568" y="47.999722" style="fill: #0000ff; stroke: #0000ff"/>
     <use xlink:href="#m37a8b25ffa" x="193.707933" y="41.267139" style="fill: #0000ff; stroke: #0000ff"/>
     <use xlink:href="#m37a8b25ffa" x="202.606298" y="32.560187" style="fill: #0000ff; stroke: #0000ff"/>
     <use xlink:href="#m37a8b25ffa" x="211.504664" y="51.790133" style="fill: #0000ff; stroke: #0000ff"/>
     <use xlink:href="#m37a8b25ffa" x="220.403029" y="64.577384" style="fill: #0000ff; stroke: #0000ff"/>
     <use xlink:href="#m37a8b25ffa" x="229.301395" y="71.580258" style="fill: #0000ff; stroke: #0000ff"/>
    </g>
   </g>
   <g id="line2d_21">
    <g clip-path="url(#p852a26057e)">
     <use xlink:href="#m37a8b25ffa" x="212.928402" y="44.557028" style="fill: #0000ff; stroke: #0000ff"/>
    </g>
   </g>
   <g id="line2d_22">
    <g clip-path="url(#p852a26057e)">
     <use xlink:href="#m37a8b25ffa" x="201.093576" y="33.605994" style="fill: #0000ff; stroke: #0000ff"/>
    </g>
   </g>
   <g id="line2d_23">
    <g clip-path="url(#p852a26057e)">
     <use xlink:href="#m37a8b25ffa" x="135.868558" y="57.332163" style="fill: #0000ff; stroke: #0000ff"/>
    </g>
   </g>
   <g id="line2d_24">
    <g clip-path="url(#p852a26057e)">
     <use xlink:href="#m37a8b25ffa" x="58.452779" y="51.797952" style="fill: #0000ff; stroke: #0000ff"/>
    </g>
   </g>
   <g id="patch_3">
    <path d="M 42.435721 111.181443 
L 42.435721 5.809684 
" style="fill: none; stroke: #000000; stroke-width: 0.8; stroke-linejoin: miter; stroke-linecap: square"/>
   </g>
   <g id="patch_4">
    <path d="M 238.19976 111.181443 
L 238.19976 5.809684 
" style="fill: none; stroke: #000000; stroke-width: 0.8; stroke-linejoin: miter; stroke-linecap: square"/>
   </g>
   <g id="patch_5">
    <path d="M 42.435721 111.181443 
L 238.19976 111.181443 
" style="fill: none; stroke: #000000; stroke-width: 0.8; stroke-linejoin: miter; stroke-linecap: square"/>
   </g>
   <g id="patch_6">
    <path d="M 42.435721 5.809684 
L 238.19976 5.809684 
" style="fill: none; stroke: #000000; stroke-width: 0.8; stroke-linejoin: miter; stroke-linecap: square"/>
   </g>
  </g>
 </g>
 <defs>
  <clipPath id="p852a26057e">
   <rect x="42.435721" y="5.809684" width="195.764039" height="105.371759"/>
  </clipPath>
 </defs>
</svg>
