<?xml version="1.0" encoding="utf-8" standalone="no"?>
<!DOCTYPE svg PUBLIC "-//W3C//DTD SVG 1.1//EN"
  "http://www.w3.org/Graphics/SVG/1.1/DTD/svg11.dtd">
<svg xmlns:xlink="http://www.w3.org/1999/xlink" width="241.2pt" height="144pt" viewBox="0 0 241.2 144" xmlns="http://www.w3.org/2000/svg" version="1.1">
 <metadata>
  <rdf:RDF xmlns:dc="http://purl.org/dc/elements/1.1/" xmlns:cc="http://creativecommons.org/ns#" xmlns:rdf="http://www.w3.org/1999/02/22-rdf-syntax-ns#">
   <cc:Work>
    <dc:type rdf:resource="http://purl.org/dc/dcmitype/StillImage"/>
    <dc:date>2025-01-20T21:51:41.203489</dc:date>
    <dc:format>image/svg+xml</dc:format>
    <dc:creator>
     <cc:Agent>
      <dc:title>Matplotlib v3.6.3, https://matplotlib.org/</dc:title>
     </cc:Agent>
    </dc:creator>
   </cc:Work>
  </rdf:RDF>
 </metadata>
 <defs>
  <style type="text/css">*{stroke-linejoin: round; stroke-linecap: butt}</style>
 </defs>
 <g id="figure_1">
  <g id="patch_1">
   <path d="M 0 144 
L 241.2 144 
L 241.2 0 
L 0 0 
z
" style="fill: #ffffff"/>
  </g>
  <g id="axes_1">
   <g id="patch_2">
    <path d="M 47.417056 111.181443 
L 237.999681 111.181443 
L 237.999681 3.00024 
L 47.417056 3.00024 
z
" style="fill: #ffffff"/>
   </g>
   <g id="matplotlib.axis_1">
    <g id="xtick_1">
     <g id="line2d_1">
      <defs>
       <path id="ma9c0887d8e" d="M 0 0 
L 0 3.5 
" style="stroke: #000000; stroke-width: 0.8"/>
      </defs>
      <g>
       <use xlink:href="#ma9c0887d8e" x="56.079903" y="111.181443" style="stroke: #000000; stroke-width: 0.8"/>
      </g>
     </g>
     <g id="text_1">
      <!-- $\mathdefault{0.90}$ -->
      <g transform="translate(47.224196 125.099942) scale(0.1 -0.1)">
       <defs>
        <path id="CMR17-30" d="M 2688 2038 
C 2688 2430 2682 3099 2413 3613 
C 2176 4063 1798 4224 1466 4224 
C 1158 4224 768 4082 525 3620 
C 269 3137 243 2539 243 2038 
C 243 1671 250 1112 448 623 
C 723 -39 1216 -128 1466 -128 
C 1760 -128 2208 -7 2470 604 
C 2662 1048 2688 1568 2688 2038 
z
M 1466 -26 
C 1056 -26 813 328 723 816 
C 653 1196 653 1749 653 2109 
C 653 2604 653 3015 736 3407 
C 858 3954 1216 4121 1466 4121 
C 1728 4121 2067 3947 2189 3420 
C 2272 3054 2278 2623 2278 2109 
C 2278 1691 2278 1176 2202 797 
C 2067 96 1690 -26 1466 -26 
z
" transform="scale(0.015625)"/>
        <path id="CMMI12-3a" d="M 1178 307 
C 1178 492 1024 620 870 620 
C 685 620 557 467 557 313 
C 557 128 710 0 864 0 
C 1050 0 1178 153 1178 307 
z
" transform="scale(0.015625)"/>
        <path id="CMR17-39" d="M 2253 1871 
C 2253 448 1670 25 1190 25 
C 1043 25 685 43 538 281 
C 704 256 826 345 826 505 
C 826 678 685 736 595 736 
C 538 736 365 710 365 492 
C 365 68 742 -128 1203 -128 
C 1939 -128 2688 665 2688 2090 
C 2688 3857 1971 4224 1485 4224 
C 851 4224 243 3664 243 2800 
C 243 2000 762 1408 1414 1408 
C 1952 1408 2189 1910 2253 2122 
L 2253 1871 
z
M 1427 1510 
C 1254 1510 1011 1542 813 1929 
C 678 2181 678 2477 678 2793 
C 678 3174 678 3438 858 3722 
C 947 3857 1114 4076 1485 4076 
C 2240 4076 2240 2909 2240 2651 
C 2240 2193 2035 1510 1427 1510 
z
" transform="scale(0.015625)"/>
       </defs>
       <use xlink:href="#CMR17-30" transform="scale(0.996264)"/>
       <use xlink:href="#CMMI12-3a" transform="translate(45.690477 0) scale(0.996264)"/>
       <use xlink:href="#CMR17-39" transform="translate(72.787654 0) scale(0.996264)"/>
       <use xlink:href="#CMR17-30" transform="translate(118.478131 0) scale(0.996264)"/>
      </g>
     </g>
    </g>
    <g id="xtick_2">
     <g id="line2d_2">
      <g>
       <use xlink:href="#ma9c0887d8e" x="99.394136" y="111.181443" style="stroke: #000000; stroke-width: 0.8"/>
      </g>
     </g>
     <g id="text_2">
      <!-- $\mathdefault{0.95}$ -->
      <g transform="translate(90.538429 125.099942) scale(0.1 -0.1)">
       <defs>
        <path id="CMR17-35" d="M 730 3750 
C 794 3724 1056 3641 1325 3641 
C 1920 3641 2246 3961 2432 4140 
C 2432 4191 2432 4224 2394 4224 
C 2387 4224 2374 4224 2323 4198 
C 2099 4102 1837 4032 1517 4032 
C 1325 4032 1037 4055 723 4191 
C 653 4224 640 4224 634 4224 
C 602 4224 595 4217 595 4090 
L 595 2231 
C 595 2113 595 2080 659 2080 
C 691 2080 704 2093 736 2139 
C 941 2435 1222 2560 1542 2560 
C 1766 2560 2246 2415 2246 1293 
C 2246 1087 2246 716 2054 422 
C 1894 159 1645 25 1370 25 
C 947 25 518 319 403 812 
C 429 806 480 793 506 793 
C 589 793 749 838 749 1036 
C 749 1209 627 1280 506 1280 
C 358 1280 262 1190 262 1011 
C 262 454 704 -128 1382 -128 
C 2042 -128 2669 441 2669 1267 
C 2669 2054 2170 2662 1549 2662 
C 1222 2662 947 2540 730 2304 
L 730 3750 
z
" transform="scale(0.015625)"/>
       </defs>
       <use xlink:href="#CMR17-30" transform="scale(0.996264)"/>
       <use xlink:href="#CMMI12-3a" transform="translate(45.690477 0) scale(0.996264)"/>
       <use xlink:href="#CMR17-39" transform="translate(72.787654 0) scale(0.996264)"/>
       <use xlink:href="#CMR17-35" transform="translate(118.478131 0) scale(0.996264)"/>
      </g>
     </g>
    </g>
    <g id="xtick_3">
     <g id="line2d_3">
      <g>
       <use xlink:href="#ma9c0887d8e" x="142.708369" y="111.181443" style="stroke: #000000; stroke-width: 0.8"/>
      </g>
     </g>
     <g id="text_3">
      <!-- $\mathdefault{1.00}$ -->
      <g transform="translate(133.852662 125.099942) scale(0.1 -0.1)">
       <defs>
        <path id="CMR17-31" d="M 1702 4083 
C 1702 4217 1696 4224 1606 4224 
C 1357 3927 979 3833 621 3820 
C 602 3820 570 3820 563 3808 
C 557 3795 557 3782 557 3648 
C 755 3648 1088 3686 1344 3839 
L 1344 467 
C 1344 243 1331 166 781 166 
L 589 166 
L 589 0 
C 896 6 1216 12 1523 12 
C 1830 12 2150 6 2458 0 
L 2458 166 
L 2266 166 
C 1715 166 1702 236 1702 467 
L 1702 4083 
z
" transform="scale(0.015625)"/>
       </defs>
       <use xlink:href="#CMR17-31" transform="scale(0.996264)"/>
       <use xlink:href="#CMMI12-3a" transform="translate(45.690477 0) scale(0.996264)"/>
       <use xlink:href="#CMR17-30" transform="translate(72.787654 0) scale(0.996264)"/>
       <use xlink:href="#CMR17-30" transform="translate(118.478131 0) scale(0.996264)"/>
      </g>
     </g>
    </g>
    <g id="xtick_4">
     <g id="line2d_4">
      <g>
       <use xlink:href="#ma9c0887d8e" x="186.022601" y="111.181443" style="stroke: #000000; stroke-width: 0.8"/>
      </g>
     </g>
     <g id="text_4">
      <!-- $\mathdefault{1.05}$ -->
      <g transform="translate(177.166894 125.099942) scale(0.1 -0.1)">
       <use xlink:href="#CMR17-31" transform="scale(0.996264)"/>
       <use xlink:href="#CMMI12-3a" transform="translate(45.690477 0) scale(0.996264)"/>
       <use xlink:href="#CMR17-30" transform="translate(72.787654 0) scale(0.996264)"/>
       <use xlink:href="#CMR17-35" transform="translate(118.478131 0) scale(0.996264)"/>
      </g>
     </g>
    </g>
    <g id="xtick_5">
     <g id="line2d_5">
      <g>
       <use xlink:href="#ma9c0887d8e" x="229.336834" y="111.181443" style="stroke: #000000; stroke-width: 0.8"/>
      </g>
     </g>
     <g id="text_5">
      <!-- $\mathdefault{1.10}$ -->
      <g transform="translate(220.481127 125.099942) scale(0.1 -0.1)">
       <use xlink:href="#CMR17-31" transform="scale(0.996264)"/>
       <use xlink:href="#CMMI12-3a" transform="translate(45.690477 0) scale(0.996264)"/>
       <use xlink:href="#CMR17-31" transform="translate(72.787654 0) scale(0.996264)"/>
       <use xlink:href="#CMR17-30" transform="translate(118.478131 0) scale(0.996264)"/>
      </g>
     </g>
    </g>
    <g id="text_6">
     <!-- $a / \lambda$ -->
     <g transform="translate(134.678848 138.5091) scale(0.1 -0.1)">
      <defs>
       <path id="CMMI12-61" d="M 1926 759 
C 1894 651 1894 638 1805 517 
C 1664 338 1382 64 1082 64 
C 819 64 672 300 672 676 
C 672 1028 870 1743 992 2011 
C 1210 2458 1510 2687 1760 2687 
C 2182 2687 2266 2164 2266 2113 
C 2266 2107 2246 2024 2240 2011 
L 1926 759 
z
M 2336 2394 
C 2266 2560 2093 2816 1760 2816 
C 1037 2816 256 1883 256 938 
C 256 306 627 -64 1062 -64 
C 1414 -64 1715 210 1894 421 
C 1958 44 2259 -64 2451 -64 
C 2643 -64 2797 51 2912 280 
C 3014 496 3104 885 3104 910 
C 3104 942 3078 968 3040 968 
C 2982 968 2976 936 2950 840 
C 2854 465 2733 64 2470 64 
C 2285 64 2272 229 2272 356 
C 2272 503 2291 573 2349 821 
C 2394 980 2426 1120 2477 1305 
C 2714 2260 2771 2489 2771 2528 
C 2771 2617 2701 2688 2605 2688 
C 2400 2688 2349 2464 2336 2388 
L 2336 2394 
z
" transform="scale(0.015625)"/>
       <path id="CMMI12-3d" d="M 2746 4563 
C 2746 4569 2784 4665 2784 4678 
C 2784 4755 2720 4800 2669 4800 
C 2637 4800 2579 4800 2528 4659 
L 384 -1364 
C 384 -1370 346 -1466 346 -1479 
C 346 -1556 410 -1600 461 -1600 
C 499 -1600 557 -1594 602 -1460 
L 2746 4563 
z
" transform="scale(0.015625)"/>
       <path id="CMMI12-15" d="M 1978 3963 
C 1818 4416 1312 4416 1229 4416 
C 1190 4416 1120 4416 1120 4351 
C 1120 4300 1158 4294 1190 4287 
C 1286 4275 1363 4262 1466 4078 
C 1530 3957 2189 2055 2189 2042 
C 2189 2036 2182 2029 2131 1978 
L 467 305 
C 390 229 339 178 339 95 
C 339 6 416 -71 518 -71 
C 544 -71 614 -58 653 -20 
C 755 76 1670 1190 2253 1877 
C 2419 1380 2624 795 2822 261 
C 2854 165 2886 76 2976 -7 
C 3040 -64 3053 -64 3232 -64 
L 3354 -64 
C 3379 -64 3424 -64 3424 -13 
C 3424 12 3418 19 3392 44 
C 3334 114 3290 229 3264 305 
L 1978 3963 
z
" transform="scale(0.015625)"/>
      </defs>
      <use xlink:href="#CMMI12-61" transform="scale(0.996264)"/>
      <use xlink:href="#CMMI12-3d" transform="translate(51.207858 0) scale(0.996264)"/>
      <use xlink:href="#CMMI12-15" transform="translate(99.982776 0) scale(0.996264)"/>
     </g>
    </g>
   </g>
   <g id="matplotlib.axis_2">
    <g id="ytick_1">
     <g id="line2d_6">
      <defs>
       <path id="m79d9447bff" d="M 0 0 
L -3.5 0 
" style="stroke: #000000; stroke-width: 0.8"/>
      </defs>
      <g>
       <use xlink:href="#m79d9447bff" x="47.417056" y="108.539621" style="stroke: #000000; stroke-width: 0.8"/>
      </g>
     </g>
     <g id="text_7">
      <!-- $\mathdefault{0.50}$ -->
      <g transform="translate(22.705642 111.99887) scale(0.1 -0.1)">
       <use xlink:href="#CMR17-30" transform="scale(0.996264)"/>
       <use xlink:href="#CMMI12-3a" transform="translate(45.690477 0) scale(0.996264)"/>
       <use xlink:href="#CMR17-35" transform="translate(72.787654 0) scale(0.996264)"/>
       <use xlink:href="#CMR17-30" transform="translate(118.478131 0) scale(0.996264)"/>
      </g>
     </g>
    </g>
    <g id="ytick_2">
     <g id="line2d_7">
      <g>
       <use xlink:href="#m79d9447bff" x="47.417056" y="81.960744" style="stroke: #000000; stroke-width: 0.8"/>
      </g>
     </g>
     <g id="text_8">
      <!-- $\mathdefault{0.75}$ -->
      <g transform="translate(22.705642 85.419993) scale(0.1 -0.1)">
       <defs>
        <path id="CMR17-37" d="M 2886 3955 
L 2886 4096 
L 1382 4096 
C 634 4096 621 4166 595 4288 
L 480 4288 
L 294 3104 
L 410 3104 
C 429 3226 474 3552 550 3673 
C 589 3724 1062 3724 1171 3724 
L 2579 3724 
L 1869 2670 
C 1395 1961 1069 1003 1069 166 
C 1069 89 1069 -128 1299 -128 
C 1530 -128 1530 89 1530 172 
L 1530 466 
C 1530 1514 1709 2204 2003 2644 
L 2886 3955 
z
" transform="scale(0.015625)"/>
       </defs>
       <use xlink:href="#CMR17-30" transform="scale(0.996264)"/>
       <use xlink:href="#CMMI12-3a" transform="translate(45.690477 0) scale(0.996264)"/>
       <use xlink:href="#CMR17-37" transform="translate(72.787654 0) scale(0.996264)"/>
       <use xlink:href="#CMR17-35" transform="translate(118.478131 0) scale(0.996264)"/>
      </g>
     </g>
    </g>
    <g id="ytick_3">
     <g id="line2d_8">
      <g>
       <use xlink:href="#m79d9447bff" x="47.417056" y="55.381867" style="stroke: #000000; stroke-width: 0.8"/>
      </g>
     </g>
     <g id="text_9">
      <!-- $\mathdefault{1.00}$ -->
      <g transform="translate(22.705642 58.841116) scale(0.1 -0.1)">
       <use xlink:href="#CMR17-31" transform="scale(0.996264)"/>
       <use xlink:href="#CMMI12-3a" transform="translate(45.690477 0) scale(0.996264)"/>
       <use xlink:href="#CMR17-30" transform="translate(72.787654 0) scale(0.996264)"/>
       <use xlink:href="#CMR17-30" transform="translate(118.478131 0) scale(0.996264)"/>
      </g>
     </g>
    </g>
    <g id="ytick_4">
     <g id="line2d_9">
      <g>
       <use xlink:href="#m79d9447bff" x="47.417056" y="28.80299" style="stroke: #000000; stroke-width: 0.8"/>
      </g>
     </g>
     <g id="text_10">
      <!-- $\mathdefault{1.25}$ -->
      <g transform="translate(22.705642 32.262239) scale(0.1 -0.1)">
       <defs>
        <path id="CMR17-32" d="M 2669 990 
L 2554 990 
C 2490 537 2438 460 2413 422 
C 2381 371 1920 371 1830 371 
L 602 371 
C 832 620 1280 1073 1824 1596 
C 2214 1966 2669 2400 2669 3033 
C 2669 3788 2067 4224 1395 4224 
C 691 4224 262 3603 262 3027 
C 262 2777 448 2745 525 2745 
C 589 2745 781 2783 781 3007 
C 781 3206 614 3264 525 3264 
C 486 3264 448 3257 422 3244 
C 544 3788 915 4057 1306 4057 
C 1862 4057 2227 3616 2227 3033 
C 2227 2477 1901 1998 1536 1583 
L 262 147 
L 262 0 
L 2515 0 
L 2669 990 
z
" transform="scale(0.015625)"/>
       </defs>
       <use xlink:href="#CMR17-31" transform="scale(0.996264)"/>
       <use xlink:href="#CMMI12-3a" transform="translate(45.690477 0) scale(0.996264)"/>
       <use xlink:href="#CMR17-32" transform="translate(72.787654 0) scale(0.996264)"/>
       <use xlink:href="#CMR17-35" transform="translate(118.478131 0) scale(0.996264)"/>
      </g>
     </g>
    </g>
    <g id="text_11">
     <!-- $\frac{\left&lt; F_x \right&gt; /L}{\lambda \varepsilon_0 E_0^2}$ -->
     <g transform="translate(13.062482 69.835811) rotate(-90) scale(0.1 -0.1)">
      <defs>
       <path id="CMSY10-68" d="M 2099 4557 
C 2131 4627 2131 4640 2131 4672 
C 2131 4742 2074 4800 2003 4800 
C 1946 4800 1901 4768 1856 4653 
L 736 1715 
C 723 1677 704 1638 704 1600 
C 704 1580 704 1568 736 1491 
L 1856 -1447 
C 1882 -1517 1914 -1600 2003 -1600 
C 2074 -1600 2131 -1543 2131 -1472 
C 2131 -1453 2131 -1440 2099 -1370 
L 966 1600 
L 2099 4557 
z
" transform="scale(0.015625)"/>
       <path id="CMMI12-46" d="M 1901 2054 
L 2515 2054 
C 3002 2054 3040 1947 3040 1764 
C 3040 1683 3027 1595 2995 1456 
C 2982 1431 2976 1399 2976 1387 
C 2976 1343 3002 1318 3046 1318 
C 3098 1318 3104 1343 3130 1444 
L 3501 2929 
C 3501 2955 3482 2993 3437 2993 
C 3379 2993 3373 2968 3347 2858 
C 3213 2375 3085 2240 2528 2240 
L 1946 2240 
L 2362 3908 
C 2419 4134 2432 4153 2694 4153 
L 3552 4153 
C 4352 4153 4467 3915 4467 3457 
C 4467 3419 4467 3277 4448 3109 
C 4442 3084 4429 3000 4429 2974 
C 4429 2922 4461 2903 4499 2903 
C 4544 2903 4570 2929 4582 3045 
L 4717 4172 
C 4717 4191 4730 4255 4730 4268 
C 4730 4339 4672 4339 4557 4339 
L 1523 4339 
C 1402 4339 1338 4339 1338 4223 
C 1338 4153 1382 4153 1491 4153 
C 1888 4153 1888 4108 1888 4037 
C 1888 4005 1882 3979 1862 3908 
L 998 468 
C 941 248 928 185 480 185 
C 358 185 294 185 294 70 
C 294 0 352 0 390 0 
C 512 0 640 12 762 12 
L 1594 12 
C 1734 12 1888 0 2029 0 
C 2086 0 2163 0 2163 115 
C 2163 185 2125 185 1984 185 
C 1478 185 1466 229 1466 324 
C 1466 355 1478 405 1491 449 
L 1901 2054 
z
" transform="scale(0.015625)"/>
       <path id="CMMI12-78" d="M 3034 2624 
C 2829 2585 2752 2431 2752 2310 
C 2752 2156 2874 2105 2963 2105 
C 3155 2105 3290 2271 3290 2444 
C 3290 2694 2982 2816 2714 2816 
C 2323 2816 2106 2451 2048 2329 
C 1901 2790 1504 2816 1389 2816 
C 736 2816 390 1993 390 1849 
C 390 1823 416 1790 461 1790 
C 512 1790 525 1829 538 1855 
C 755 2572 1184 2687 1370 2687 
C 1658 2687 1715 2438 1715 2284 
C 1715 2143 1677 1993 1600 1678 
L 1382 778 
C 1286 390 1101 64 762 64 
C 730 64 570 64 435 126 
C 666 166 717 358 717 435 
C 717 563 621 640 499 640 
C 346 640 179 505 179 300 
C 179 57 480 -64 755 -64 
C 1062 -64 1280 153 1414 415 
C 1517 64 1837 -64 2074 -64 
C 2726 -64 3072 751 3072 896 
C 3072 929 3046 955 3008 955 
C 2950 955 2944 922 2925 870 
C 2752 300 2381 64 2093 64 
C 1869 64 1747 204 1747 467 
C 1747 607 1773 712 1875 1146 
L 2099 2039 
C 2195 2425 2413 2687 2707 2687 
C 2720 2687 2899 2687 3034 2624 
z
" transform="scale(0.015625)"/>
       <path id="CMSY10-69" d="M 1747 1491 
C 1779 1568 1779 1580 1779 1600 
C 1779 1619 1779 1632 1747 1709 
L 627 4653 
C 589 4761 550 4800 480 4800 
C 410 4800 352 4742 352 4672 
C 352 4653 352 4640 384 4569 
L 1517 1600 
L 384 -1357 
C 352 -1428 352 -1440 352 -1472 
C 352 -1543 410 -1600 480 -1600 
C 563 -1600 589 -1536 614 -1472 
L 1747 1491 
z
" transform="scale(0.015625)"/>
       <path id="CMMI12-4c" d="M 2349 3860 
C 2406 4102 2426 4166 2989 4166 
C 3162 4166 3206 4166 3206 4287 
C 3206 4352 3136 4352 3110 4352 
C 2982 4352 2835 4339 2707 4339 
L 1850 4339 
C 1728 4339 1587 4352 1466 4352 
C 1414 4352 1344 4352 1344 4230 
C 1344 4166 1402 4166 1498 4166 
C 1888 4166 1888 4115 1888 4045 
C 1888 4032 1888 3994 1862 3898 
L 998 472 
C 941 249 928 185 480 185 
C 358 185 294 185 294 70 
C 294 0 333 0 461 0 
L 3328 0 
C 3469 0 3475 6 3520 121 
L 4013 1478 
C 4026 1510 4038 1548 4038 1567 
C 4038 1605 4006 1631 3974 1631 
C 3968 1631 3936 1631 3923 1605 
C 3910 1599 3910 1586 3859 1465 
C 3654 905 3366 185 2285 185 
L 1670 185 
C 1581 185 1568 185 1530 191 
C 1459 198 1453 211 1453 262 
C 1453 306 1466 344 1478 402 
L 2349 3860 
z
" transform="scale(0.015625)"/>
       <path id="CMMI12-22" d="M 890 1427 
C 1094 1344 1312 1344 1434 1344 
C 1600 1344 1933 1344 1933 1554 
C 1933 1683 1811 1728 1485 1728 
C 1325 1728 1133 1708 909 1612 
C 710 1708 634 1853 634 1991 
C 634 2379 1261 2604 1830 2604 
C 1939 2604 2170 2604 2438 2410 
C 2477 2385 2496 2366 2541 2366 
C 2618 2366 2701 2448 2701 2523 
C 2701 2636 2330 2880 1888 2880 
C 1171 2880 493 2454 493 1991 
C 493 1759 646 1612 755 1508 
C 384 1288 166 953 166 649 
C 166 221 563 -128 1178 -128 
C 2022 -128 2362 426 2362 513 
C 2362 544 2336 568 2304 568 
C 2272 568 2259 550 2234 513 
C 2163 395 1997 147 1235 147 
C 838 147 314 246 314 686 
C 314 897 474 1213 890 1427 
z
M 1088 1517 
C 1261 1599 1427 1599 1472 1599 
C 1651 1599 1683 1581 1786 1545 
C 1677 1472 1664 1472 1434 1472 
C 1318 1472 1216 1472 1088 1517 
z
" transform="scale(0.015625)"/>
       <path id="CMMI12-45" d="M 4448 1489 
C 4454 1508 4474 1553 4474 1578 
C 4474 1611 4448 1643 4410 1643 
C 4384 1643 4371 1636 4352 1617 
C 4339 1611 4339 1598 4282 1469 
C 3904 570 3629 185 2605 185 
L 1670 185 
C 1581 185 1568 185 1530 192 
C 1459 198 1453 211 1453 262 
C 1453 307 1466 346 1478 403 
L 1920 2176 
L 2554 2176 
C 3053 2176 3091 2066 3091 1874 
C 3091 1810 3091 1752 3046 1559 
C 3034 1534 3027 1508 3027 1489 
C 3027 1444 3059 1424 3098 1424 
C 3155 1424 3162 1469 3187 1559 
L 3552 3036 
C 3552 3068 3526 3099 3488 3099 
C 3430 3099 3424 3074 3398 2986 
C 3270 2500 3142 2361 2573 2361 
L 1965 2361 
L 2362 3913 
C 2419 4134 2432 4153 2694 4153 
L 3610 4153 
C 4397 4153 4557 3945 4557 3465 
C 4557 3459 4557 3282 4531 3074 
C 4525 3049 4518 3011 4518 2998 
C 4518 2948 4550 2929 4589 2929 
C 4634 2929 4659 2954 4672 3068 
L 4806 4172 
C 4806 4191 4819 4255 4819 4268 
C 4819 4339 4762 4339 4646 4339 
L 1523 4339 
C 1402 4339 1338 4339 1338 4223 
C 1338 4153 1382 4153 1491 4153 
C 1888 4153 1888 4109 1888 4039 
C 1888 4008 1882 3983 1862 3913 
L 998 474 
C 941 249 928 185 480 185 
C 358 185 294 185 294 70 
C 294 0 333 0 461 0 
L 3674 0 
C 3814 0 3821 6 3866 108 
L 4448 1489 
z
" transform="scale(0.015625)"/>
      </defs>
      <use xlink:href="#CMSY10-68" transform="translate(0 48.318576) scale(0.697382)"/>
      <use xlink:href="#CMMI12-46" transform="translate(27.120497 48.318576) scale(0.697382)"/>
      <use xlink:href="#CMMI12-78" transform="translate(71.324042 37.85788) scale(0.498132)"/>
      <use xlink:href="#CMSY10-69" transform="translate(99.539204 48.318576) scale(0.697382)"/>
      <use xlink:href="#CMMI12-3d" transform="translate(126.6597 48.318576) scale(0.697382)"/>
      <use xlink:href="#CMMI12-4c" transform="translate(160.801991 48.318576) scale(0.697382)"/>
      <use xlink:href="#CMMI12-15" transform="translate(17.075554 -37.201863) scale(0.697382)"/>
      <use xlink:href="#CMMI12-22" transform="translate(56.908222 -37.201863) scale(0.697382)"/>
      <use xlink:href="#CMR17-30" transform="translate(88.863205 -47.662559) scale(0.498132)"/>
      <use xlink:href="#CMMI12-45" transform="translate(112.206575 -37.201863) scale(0.697382)"/>
      <use xlink:href="#CMR17-32" transform="translate(166.84248 -13.180964) scale(0.498132)"/>
      <use xlink:href="#CMR17-30" transform="translate(162.754204 -56.448915) scale(0.498132)"/>
      <path d="M 0 22.914133 
L 207.261405 22.914133 
L 207.261405 26.899083 
L 0 26.899083 
L 0 22.914133 
z
"/>
     </g>
    </g>
   </g>
   <g id="line2d_10">
    <path d="M 56.079903 103.031059 
L 58.678757 104.451518 
L 60.411326 105.194558 
L 62.143896 105.75388 
L 63.876465 106.114557 
L 65.609034 106.264116 
L 67.341604 106.192278 
L 69.074173 105.890482 
L 70.806742 105.35132 
L 72.539311 104.568058 
L 74.271881 103.534396 
L 76.00445 102.244668 
L 77.737019 100.694587 
L 79.469589 98.882655 
L 81.202158 96.812231 
L 83.801012 93.248426 
L 86.399866 89.212685 
L 89.865005 83.355976 
L 93.330143 77.230891 
L 95.062713 73.727214 
L 95.928997 71.427501 
L 96.795282 68.019152 
L 97.661567 61.507086 
L 98.527851 44.736327 
L 99.394136 7.917567 
L 101.126705 56.293915 
L 101.99299 64.492734 
L 102.859274 67.617611 
L 103.725559 69.096622 
L 104.591844 69.939157 
L 106.324413 70.93832 
L 108.923267 71.951909 
L 113.25469 73.330248 
L 118.452398 74.691826 
L 126.24896 76.682465 
L 130.580383 78.068766 
L 134.911807 79.743292 
L 140.109515 82.040005 
L 146.173507 84.690094 
L 148.772361 85.632006 
L 151.371215 86.356562 
L 153.970069 86.797711 
L 155.702638 86.905291 
L 157.435208 86.845756 
L 159.167777 86.60522 
L 160.900346 86.170425 
L 162.632916 85.528098 
L 164.365485 84.664608 
L 166.098054 83.566269 
L 167.830624 82.220551 
L 169.563193 80.617717 
L 171.295762 78.749507 
L 173.028332 76.588116 
L 174.760901 73.945855 
L 175.627186 72.138413 
L 176.49347 69.160743 
L 177.359755 60.895351 
L 178.22604 14.977216 
L 179.092324 47.750392 
L 179.958609 64.60495 
L 180.824894 67.620192 
L 181.691178 68.56857 
L 184.290032 70.207197 
L 185.156317 70.957486 
L 186.888886 72.884105 
L 188.621455 75.229037 
L 192.086594 80.162751 
L 193.819163 82.309636 
L 195.551733 84.059614 
L 197.284302 85.359505 
L 199.016871 86.206034 
L 200.749441 86.628627 
L 202.48201 86.67534 
L 204.214579 86.402815 
L 205.947149 85.869735 
L 207.679718 85.132833 
L 210.278572 83.758768 
L 214.609995 81.114415 
L 219.807703 77.968275 
L 223.272842 76.130028 
L 226.73798 74.57162 
L 229.336834 73.578738 
L 229.336834 73.578738 
" clip-path="url(#p14849deea9)" style="fill: none; stroke: #ff0000; stroke-linecap: square"/>
   </g>
   <g id="line2d_11">
    <defs>
     <path id="mbca094a523" d="M 0 1 
C 0.265203 1 0.51958 0.894634 0.707107 0.707107 
C 0.894634 0.51958 1 0.265203 1 0 
C 1 -0.265203 0.894634 -0.51958 0.707107 -0.707107 
C 0.51958 -0.894634 0.265203 -1 0 -1 
C -0.265203 -1 -0.51958 -0.894634 -0.707107 -0.707107 
C -0.894634 -0.51958 -1 -0.265203 -1 0 
C -1 0.265203 -0.894634 0.51958 -0.707107 0.707107 
C -0.51958 0.894634 -0.265203 1 0 1 
z
" style="stroke: #ff0000"/>
    </defs>
    <g clip-path="url(#p14849deea9)">
     <use xlink:href="#mbca094a523" x="56.079903" y="102.291459" style="fill: #ff0000; stroke: #ff0000"/>
     <use xlink:href="#mbca094a523" x="64.74275" y="105.256598" style="fill: #ff0000; stroke: #ff0000"/>
     <use xlink:href="#mbca094a523" x="73.405596" y="102.933604" style="fill: #ff0000; stroke: #ff0000"/>
     <use xlink:href="#mbca094a523" x="82.068443" y="94.974825" style="fill: #ff0000; stroke: #ff0000"/>
     <use xlink:href="#mbca094a523" x="90.731289" y="81.579071" style="fill: #ff0000; stroke: #ff0000"/>
     <use xlink:href="#mbca094a523" x="99.394136" y="8.943253" style="fill: #ff0000; stroke: #ff0000"/>
     <use xlink:href="#mbca094a523" x="108.056982" y="73.900965" style="fill: #ff0000; stroke: #ff0000"/>
     <use xlink:href="#mbca094a523" x="116.719829" y="75.574371" style="fill: #ff0000; stroke: #ff0000"/>
     <use xlink:href="#mbca094a523" x="125.382676" y="76.949031" style="fill: #ff0000; stroke: #ff0000"/>
     <use xlink:href="#mbca094a523" x="134.045522" y="79.00092" style="fill: #ff0000; stroke: #ff0000"/>
     <use xlink:href="#mbca094a523" x="142.708369" y="82.054302" style="fill: #ff0000; stroke: #ff0000"/>
     <use xlink:href="#mbca094a523" x="151.371215" y="84.703684" style="fill: #ff0000; stroke: #ff0000"/>
     <use xlink:href="#mbca094a523" x="160.034062" y="84.495306" style="fill: #ff0000; stroke: #ff0000"/>
     <use xlink:href="#mbca094a523" x="168.696908" y="79.196541" style="fill: #ff0000; stroke: #ff0000"/>
     <use xlink:href="#mbca094a523" x="177.359755" y="57.975965" style="fill: #ff0000; stroke: #ff0000"/>
     <use xlink:href="#mbca094a523" x="186.022601" y="70.199059" style="fill: #ff0000; stroke: #ff0000"/>
     <use xlink:href="#mbca094a523" x="194.685448" y="81.591829" style="fill: #ff0000; stroke: #ff0000"/>
     <use xlink:href="#mbca094a523" x="203.348295" y="86.367522" style="fill: #ff0000; stroke: #ff0000"/>
     <use xlink:href="#mbca094a523" x="212.011141" y="82.910141" style="fill: #ff0000; stroke: #ff0000"/>
     <use xlink:href="#mbca094a523" x="220.673988" y="77.665597" style="fill: #ff0000; stroke: #ff0000"/>
     <use xlink:href="#mbca094a523" x="229.336834" y="72.972831" style="fill: #ff0000; stroke: #ff0000"/>
    </g>
   </g>
   <g id="patch_3">
    <path d="M 47.417056 111.181443 
L 47.417056 3.00024 
" style="fill: none; stroke: #000000; stroke-width: 0.8; stroke-linejoin: miter; stroke-linecap: square"/>
   </g>
   <g id="patch_4">
    <path d="M 237.999681 111.181443 
L 237.999681 3.00024 
" style="fill: none; stroke: #000000; stroke-width: 0.8; stroke-linejoin: miter; stroke-linecap: square"/>
   </g>
   <g id="patch_5">
    <path d="M 47.417056 111.181443 
L 237.999681 111.181443 
" style="fill: none; stroke: #000000; stroke-width: 0.8; stroke-linejoin: miter; stroke-linecap: square"/>
   </g>
   <g id="patch_6">
    <path d="M 47.417056 3.00024 
L 237.999681 3.00024 
" style="fill: none; stroke: #000000; stroke-width: 0.8; stroke-linejoin: miter; stroke-linecap: square"/>
   </g>
  </g>
 </g>
 <defs>
  <clipPath id="p14849deea9">
   <rect x="47.417056" y="3.00024" width="190.582624" height="108.181203"/>
  </clipPath>
 </defs>
</svg>
