<?xml version="1.0" encoding="utf-8" standalone="no"?>
<!DOCTYPE svg PUBLIC "-//W3C//DTD SVG 1.1//EN"
  "http://www.w3.org/Graphics/SVG/1.1/DTD/svg11.dtd">
<svg xmlns:xlink="http://www.w3.org/1999/xlink" width="241.2pt" height="154.8pt" viewBox="0 0 241.2 154.8" xmlns="http://www.w3.org/2000/svg" version="1.1">
 <metadata>
  <rdf:RDF xmlns:dc="http://purl.org/dc/elements/1.1/" xmlns:cc="http://creativecommons.org/ns#" xmlns:rdf="http://www.w3.org/1999/02/22-rdf-syntax-ns#">
   <cc:Work>
    <dc:type rdf:resource="http://purl.org/dc/dcmitype/StillImage"/>
    <dc:date>2024-09-23T12:11:50.673848</dc:date>
    <dc:format>image/svg+xml</dc:format>
    <dc:creator>
     <cc:Agent>
      <dc:title>Matplotlib v3.8.4, https://matplotlib.org/</dc:title>
     </cc:Agent>
    </dc:creator>
   </cc:Work>
  </rdf:RDF>
 </metadata>
 <defs>
  <style type="text/css">*{stroke-linejoin: round; stroke-linecap: butt}</style>
 </defs>
 <g id="figure_1">
  <g id="patch_1">
   <path d="M 0 154.8 
L 241.2 154.8 
L 241.2 0 
L 0 0 
z
" style="fill: #ffffff"/>
  </g>
  <g id="axes_1">
   <g id="patch_2">
    <path d="M 44.761092 121.981443 
L 238.19976 121.981443 
L 238.19976 17.966616 
L 44.761092 17.966616 
z
" style="fill: #ffffff"/>
   </g>
   <g id="matplotlib.axis_1">
    <g id="xtick_1">
     <g id="line2d_1">
      <defs>
       <path id="mbb6e3d6ec9" d="M 0 0 
L 0 3.5 
" style="stroke: #000000; stroke-width: 0.8"/>
      </defs>
      <g>
       <use xlink:href="#mbb6e3d6ec9" x="53.553759" y="121.981443" style="stroke: #000000; stroke-width: 0.8"/>
      </g>
     </g>
     <g id="text_1">
      <!-- $\mathdefault{0}$ -->
      <g transform="translate(51.063091 135.899942) scale(0.1 -0.1)">
       <defs>
        <path id="CMR17-30" d="M 2688 2025 
C 2688 2416 2682 3080 2413 3591 
C 2176 4039 1798 4198 1466 4198 
C 1158 4198 768 4058 525 3597 
C 269 3118 243 2524 243 2025 
C 243 1661 250 1106 448 619 
C 723 -39 1216 -128 1466 -128 
C 1760 -128 2208 -7 2470 600 
C 2662 1042 2688 1559 2688 2025 
z
M 1466 -26 
C 1056 -26 813 325 723 812 
C 653 1188 653 1738 653 2096 
C 653 2588 653 2997 736 3387 
C 858 3929 1216 4096 1466 4096 
C 1728 4096 2067 3923 2189 3400 
C 2272 3036 2278 2607 2278 2096 
C 2278 1680 2278 1169 2202 792 
C 2067 95 1690 -26 1466 -26 
z
" transform="scale(0.015625)"/>
       </defs>
       <use xlink:href="#CMR17-30" transform="scale(0.996264)"/>
      </g>
     </g>
    </g>
    <g id="xtick_2">
     <g id="line2d_2">
      <g>
       <use xlink:href="#mbb6e3d6ec9" x="82.862648" y="121.981443" style="stroke: #000000; stroke-width: 0.8"/>
      </g>
     </g>
     <g id="text_2">
      <!-- $\mathdefault{30}$ -->
      <g transform="translate(77.881313 135.899942) scale(0.1 -0.1)">
       <defs>
        <path id="CMR17-33" d="M 1414 2157 
C 1984 2157 2234 1662 2234 1090 
C 2234 320 1824 25 1453 25 
C 1114 25 563 194 390 693 
C 422 680 454 680 486 680 
C 640 680 755 782 755 948 
C 755 1133 614 1216 486 1216 
C 378 1216 211 1165 211 926 
C 211 335 787 -128 1466 -128 
C 2176 -128 2720 430 2720 1085 
C 2720 1707 2208 2157 1600 2227 
C 2086 2328 2554 2756 2554 3329 
C 2554 3820 2048 4179 1472 4179 
C 890 4179 378 3829 378 3329 
C 378 3110 544 3072 627 3072 
C 762 3072 877 3155 877 3321 
C 877 3486 762 3569 627 3569 
C 602 3569 570 3569 544 3557 
C 730 3959 1235 4032 1459 4032 
C 1683 4032 2106 3925 2106 3320 
C 2106 3143 2080 2828 1862 2550 
C 1670 2304 1453 2304 1242 2284 
C 1210 2284 1062 2269 1037 2269 
C 992 2263 966 2257 966 2208 
C 966 2163 973 2157 1101 2157 
L 1414 2157 
z
" transform="scale(0.015625)"/>
       </defs>
       <use xlink:href="#CMR17-33" transform="scale(0.996264)"/>
       <use xlink:href="#CMR17-30" transform="translate(45.690477 0) scale(0.996264)"/>
      </g>
     </g>
    </g>
    <g id="xtick_3">
     <g id="line2d_3">
      <g>
       <use xlink:href="#mbb6e3d6ec9" x="112.171537" y="121.981443" style="stroke: #000000; stroke-width: 0.8"/>
      </g>
     </g>
     <g id="text_3">
      <!-- $\mathdefault{60}$ -->
      <g transform="translate(107.190202 135.899942) scale(0.1 -0.1)">
       <defs>
        <path id="CMR17-36" d="M 678 2176 
C 678 3690 1395 4032 1811 4032 
C 1946 4032 2272 4009 2400 3776 
C 2298 3776 2106 3776 2106 3553 
C 2106 3381 2246 3323 2336 3323 
C 2394 3323 2566 3348 2566 3560 
C 2566 3954 2246 4179 1805 4179 
C 1043 4179 243 3390 243 1984 
C 243 253 966 -128 1478 -128 
C 2099 -128 2688 427 2688 1283 
C 2688 2081 2170 2662 1517 2662 
C 1126 2662 838 2407 678 1960 
L 678 2176 
z
M 1478 25 
C 691 25 691 1200 691 1436 
C 691 1896 909 2560 1504 2560 
C 1613 2560 1926 2560 2138 2120 
C 2253 1870 2253 1609 2253 1289 
C 2253 944 2253 690 2118 434 
C 1978 171 1773 25 1478 25 
z
" transform="scale(0.015625)"/>
       </defs>
       <use xlink:href="#CMR17-36" transform="scale(0.996264)"/>
       <use xlink:href="#CMR17-30" transform="translate(45.690477 0) scale(0.996264)"/>
      </g>
     </g>
    </g>
    <g id="xtick_4">
     <g id="line2d_4">
      <g>
       <use xlink:href="#mbb6e3d6ec9" x="141.480426" y="121.981443" style="stroke: #000000; stroke-width: 0.8"/>
      </g>
     </g>
     <g id="text_4">
      <!-- $\mathdefault{90}$ -->
      <g transform="translate(136.499091 135.899942) scale(0.1 -0.1)">
       <defs>
        <path id="CMR17-39" d="M 2253 1864 
C 2253 464 1670 31 1190 31 
C 1043 31 685 31 538 294 
C 704 268 826 357 826 518 
C 826 692 685 749 595 749 
C 538 749 365 723 365 506 
C 365 71 742 -128 1203 -128 
C 1939 -128 2688 674 2688 2073 
C 2688 3817 1971 4179 1485 4179 
C 851 4179 243 3628 243 2778 
C 243 1991 762 1408 1414 1408 
C 1952 1408 2189 1903 2253 2112 
L 2253 1864 
z
M 1427 1510 
C 1254 1510 1011 1542 813 1922 
C 678 2169 678 2461 678 2771 
C 678 3146 678 3405 858 3684 
C 947 3817 1114 4032 1485 4032 
C 2240 4032 2240 2885 2240 2632 
C 2240 2182 2035 1510 1427 1510 
z
" transform="scale(0.015625)"/>
       </defs>
       <use xlink:href="#CMR17-39" transform="scale(0.996264)"/>
       <use xlink:href="#CMR17-30" transform="translate(45.690477 0) scale(0.996264)"/>
      </g>
     </g>
    </g>
    <g id="xtick_5">
     <g id="line2d_5">
      <g>
       <use xlink:href="#mbb6e3d6ec9" x="170.789315" y="121.981443" style="stroke: #000000; stroke-width: 0.8"/>
      </g>
     </g>
     <g id="text_5">
      <!-- $\mathdefault{120}$ -->
      <g transform="translate(163.317312 135.899942) scale(0.1 -0.1)">
       <defs>
        <path id="CMR17-31" d="M 1702 4058 
C 1702 4192 1696 4192 1606 4192 
C 1357 3916 979 3827 621 3827 
C 602 3827 570 3827 563 3808 
C 557 3795 557 3782 557 3648 
C 755 3648 1088 3686 1344 3839 
L 1344 461 
C 1344 236 1331 160 781 160 
L 589 160 
L 589 0 
C 896 0 1216 0 1523 0 
C 1830 0 2150 0 2458 0 
L 2458 160 
L 2266 160 
C 1715 160 1702 230 1702 458 
L 1702 4058 
z
" transform="scale(0.015625)"/>
        <path id="CMR17-32" d="M 2669 989 
L 2554 989 
C 2490 536 2438 459 2413 420 
C 2381 369 1920 369 1830 369 
L 602 369 
C 832 619 1280 1072 1824 1597 
C 2214 1967 2669 2402 2669 3035 
C 2669 3790 2067 4224 1395 4224 
C 691 4224 262 3604 262 3030 
C 262 2780 448 2748 525 2748 
C 589 2748 781 2787 781 3010 
C 781 3207 614 3264 525 3264 
C 486 3264 448 3258 422 3245 
C 544 3790 915 4058 1306 4058 
C 1862 4058 2227 3617 2227 3035 
C 2227 2479 1901 2000 1536 1584 
L 262 146 
L 262 0 
L 2515 0 
L 2669 989 
z
" transform="scale(0.015625)"/>
       </defs>
       <use xlink:href="#CMR17-31" transform="scale(0.996264)"/>
       <use xlink:href="#CMR17-32" transform="translate(45.690477 0) scale(0.996264)"/>
       <use xlink:href="#CMR17-30" transform="translate(91.380954 0) scale(0.996264)"/>
      </g>
     </g>
    </g>
    <g id="xtick_6">
     <g id="line2d_6">
      <g>
       <use xlink:href="#mbb6e3d6ec9" x="200.098204" y="121.981443" style="stroke: #000000; stroke-width: 0.8"/>
      </g>
     </g>
     <g id="text_6">
      <!-- $\mathdefault{150}$ -->
      <g transform="translate(192.626201 135.899942) scale(0.1 -0.1)">
       <defs>
        <path id="CMR17-35" d="M 730 3692 
C 794 3666 1056 3584 1325 3584 
C 1920 3584 2246 3911 2432 4100 
C 2432 4157 2432 4192 2394 4192 
C 2387 4192 2374 4192 2323 4163 
C 2099 4058 1837 3973 1517 3973 
C 1325 3973 1037 3999 723 4139 
C 653 4171 640 4171 634 4171 
C 602 4171 595 4164 595 4037 
L 595 2203 
C 595 2089 595 2057 659 2057 
C 691 2057 704 2070 736 2114 
C 941 2401 1222 2522 1542 2522 
C 1766 2522 2246 2382 2246 1289 
C 2246 1085 2246 715 2054 421 
C 1894 159 1645 25 1370 25 
C 947 25 518 320 403 814 
C 429 807 480 795 506 795 
C 589 795 749 840 749 1038 
C 749 1210 627 1280 506 1280 
C 358 1280 262 1190 262 1011 
C 262 454 704 -128 1382 -128 
C 2042 -128 2669 440 2669 1264 
C 2669 2030 2170 2624 1549 2624 
C 1222 2624 947 2503 730 2274 
L 730 3692 
z
" transform="scale(0.015625)"/>
       </defs>
       <use xlink:href="#CMR17-31" transform="scale(0.996264)"/>
       <use xlink:href="#CMR17-35" transform="translate(45.690477 0) scale(0.996264)"/>
       <use xlink:href="#CMR17-30" transform="translate(91.380954 0) scale(0.996264)"/>
      </g>
     </g>
    </g>
    <g id="xtick_7">
     <g id="line2d_7">
      <g>
       <use xlink:href="#mbb6e3d6ec9" x="229.407093" y="121.981443" style="stroke: #000000; stroke-width: 0.8"/>
      </g>
     </g>
     <g id="text_7">
      <!-- $\mathdefault{180}$ -->
      <g transform="translate(221.93509 135.899942) scale(0.1 -0.1)">
       <defs>
        <path id="CMR17-38" d="M 1741 2264 
C 2144 2467 2554 2773 2554 3263 
C 2554 3841 1990 4179 1472 4179 
C 890 4179 378 3759 378 3180 
C 378 3021 416 2747 666 2505 
C 730 2442 998 2251 1171 2130 
C 883 1983 211 1634 211 934 
C 211 279 838 -128 1459 -128 
C 2144 -128 2720 362 2720 1010 
C 2720 1590 2330 1857 2074 2029 
L 1741 2264 
z
M 902 2822 
C 851 2854 595 3051 595 3351 
C 595 3739 998 4032 1459 4032 
C 1965 4032 2336 3676 2336 3262 
C 2336 2669 1670 2331 1638 2331 
C 1632 2331 1626 2331 1574 2370 
L 902 2822 
z
M 2080 1519 
C 2176 1449 2483 1240 2483 851 
C 2483 381 2010 25 1472 25 
C 890 25 448 438 448 940 
C 448 1443 838 1862 1280 2060 
L 2080 1519 
z
" transform="scale(0.015625)"/>
       </defs>
       <use xlink:href="#CMR17-31" transform="scale(0.996264)"/>
       <use xlink:href="#CMR17-38" transform="translate(45.690477 0) scale(0.996264)"/>
       <use xlink:href="#CMR17-30" transform="translate(91.380954 0) scale(0.996264)"/>
      </g>
     </g>
    </g>
    <g id="text_8">
     <!-- $\theta (^o)$ -->
     <g transform="translate(132.913925 149.3091) scale(0.1 -0.1)">
      <defs>
       <path id="CMMI12-12" d="M 2835 3200 
C 2835 3850 2630 4480 2106 4480 
C 1210 4480 256 2615 256 1216 
C 256 923 320 -64 992 -64 
C 1862 -64 2835 1756 2835 3200 
z
M 896 2304 
C 992 2679 1126 3214 1382 3665 
C 1594 4047 1818 4352 2099 4352 
C 2310 4352 2451 4174 2451 3564 
C 2451 3334 2432 3017 2246 2304 
L 896 2304 
z
M 2202 2113 
C 2042 1490 1907 1088 1677 687 
C 1491 363 1267 64 998 64 
C 800 64 640 217 640 846 
C 640 1260 742 1693 845 2113 
L 2202 2113 
z
" transform="scale(0.015625)"/>
       <path id="CMR17-28" d="M 1958 -1561 
C 1958 -1555 1958 -1542 1939 -1523 
C 1645 -1224 858 -407 858 1581 
C 858 3569 1632 4379 1946 4697 
C 1946 4704 1958 4717 1958 4736 
C 1958 4755 1939 4768 1914 4768 
C 1843 4768 1299 4296 986 3594 
C 666 2887 576 2199 576 1588 
C 576 1128 621 351 1005 -471 
C 1312 -1135 1837 -1600 1914 -1600 
C 1946 -1600 1958 -1587 1958 -1561 
z
" transform="scale(0.015625)"/>
       <path id="CMMI12-6f" d="M 2918 1756 
C 2918 2363 2522 2816 1939 2816 
C 1094 2816 262 1897 262 996 
C 262 390 659 -64 1242 -64 
C 2093 -64 2918 856 2918 1756 
z
M 1248 64 
C 928 64 691 319 691 766 
C 691 1060 845 1712 1024 2031 
C 1312 2523 1670 2689 1933 2689 
C 2246 2689 2490 2433 2490 1986 
C 2490 1731 2355 1047 2112 658 
C 1850 230 1498 64 1248 64 
z
" transform="scale(0.015625)"/>
       <path id="CMR17-29" d="M 1683 1581 
C 1683 2040 1638 2817 1254 3639 
C 947 4303 422 4768 346 4768 
C 326 4768 301 4761 301 4729 
C 301 4717 307 4710 314 4697 
C 621 4378 1402 3568 1402 1584 
C 1402 -407 627 -1217 314 -1537 
C 307 -1549 301 -1556 301 -1568 
C 301 -1600 326 -1600 346 -1600 
C 416 -1600 960 -1128 1274 -426 
C 1594 281 1683 969 1683 1581 
z
" transform="scale(0.015625)"/>
      </defs>
      <use xlink:href="#CMMI12-12" transform="scale(0.996264)"/>
      <use xlink:href="#CMR17-28" transform="translate(48.169508 0) scale(0.996264)"/>
      <use xlink:href="#CMMI12-6f" transform="translate(83.450276 36.153639) scale(0.697382)"/>
      <use xlink:href="#CMR17-29" transform="translate(116.774969 0) scale(0.996264)"/>
     </g>
    </g>
   </g>
   <g id="matplotlib.axis_2">
    <g id="ytick_1">
     <g id="line2d_8">
      <defs>
       <path id="mffb738a1a4" d="M 0 0 
L -3.5 0 
" style="stroke: #000000; stroke-width: 0.8"/>
      </defs>
      <g>
       <use xlink:href="#mffb738a1a4" x="44.761092" y="109.315167" style="stroke: #000000; stroke-width: 0.8"/>
      </g>
     </g>
     <g id="text_9">
      <!-- $\mathdefault{10^{-1}}$ -->
      <g transform="translate(17.600519 112.774417) scale(0.1 -0.1)">
       <defs>
        <path id="CMSY10-0" d="M 4218 1472 
C 4326 1472 4442 1472 4442 1600 
C 4442 1728 4326 1728 4218 1728 
L 755 1728 
C 646 1728 531 1728 531 1600 
C 531 1472 646 1472 755 1472 
L 4218 1472 
z
" transform="scale(0.015625)"/>
       </defs>
       <use xlink:href="#CMR17-31" transform="scale(0.996264)"/>
       <use xlink:href="#CMR17-30" transform="translate(45.690477 0) scale(0.996264)"/>
       <use xlink:href="#CMSY10-0" transform="translate(91.380954 36.153639) scale(0.697382)"/>
       <use xlink:href="#CMR17-31" transform="translate(145.621947 36.153639) scale(0.697382)"/>
      </g>
     </g>
    </g>
    <g id="ytick_2">
     <g id="line2d_9">
      <g>
       <use xlink:href="#mffb738a1a4" x="44.761092" y="75.321228" style="stroke: #000000; stroke-width: 0.8"/>
      </g>
     </g>
     <g id="text_10">
      <!-- $\mathdefault{10^{0}}$ -->
      <g transform="translate(23.827184 78.780477) scale(0.1 -0.1)">
       <use xlink:href="#CMR17-31" transform="scale(0.996264)"/>
       <use xlink:href="#CMR17-30" transform="translate(45.690477 0) scale(0.996264)"/>
       <use xlink:href="#CMR17-30" transform="translate(91.380954 36.153639) scale(0.697382)"/>
      </g>
     </g>
    </g>
    <g id="ytick_3">
     <g id="line2d_10">
      <g>
       <use xlink:href="#mffb738a1a4" x="44.761092" y="41.327288" style="stroke: #000000; stroke-width: 0.8"/>
      </g>
     </g>
     <g id="text_11">
      <!-- $\mathdefault{10^{1}}$ -->
      <g transform="translate(23.827184 44.786537) scale(0.1 -0.1)">
       <use xlink:href="#CMR17-31" transform="scale(0.996264)"/>
       <use xlink:href="#CMR17-30" transform="translate(45.690477 0) scale(0.996264)"/>
       <use xlink:href="#CMR17-31" transform="translate(91.380954 36.153639) scale(0.697382)"/>
      </g>
     </g>
    </g>
    <g id="ytick_4">
     <g id="line2d_11">
      <defs>
       <path id="mabc912bc87" d="M 0 0 
L -2 0 
" style="stroke: #000000; stroke-width: 0.6"/>
      </defs>
      <g>
       <use xlink:href="#mabc912bc87" x="44.761092" y="119.548363" style="stroke: #000000; stroke-width: 0.6"/>
      </g>
     </g>
    </g>
    <g id="ytick_5">
     <g id="line2d_12">
      <g>
       <use xlink:href="#mabc912bc87" x="44.761092" y="116.856681" style="stroke: #000000; stroke-width: 0.6"/>
      </g>
     </g>
    </g>
    <g id="ytick_6">
     <g id="line2d_13">
      <g>
       <use xlink:href="#mabc912bc87" x="44.761092" y="114.580895" style="stroke: #000000; stroke-width: 0.6"/>
      </g>
     </g>
    </g>
    <g id="ytick_7">
     <g id="line2d_14">
      <g>
       <use xlink:href="#mabc912bc87" x="44.761092" y="112.609521" style="stroke: #000000; stroke-width: 0.6"/>
      </g>
     </g>
    </g>
    <g id="ytick_8">
     <g id="line2d_15">
      <g>
       <use xlink:href="#mabc912bc87" x="44.761092" y="110.870645" style="stroke: #000000; stroke-width: 0.6"/>
      </g>
     </g>
    </g>
    <g id="ytick_9">
     <g id="line2d_16">
      <g>
       <use xlink:href="#mabc912bc87" x="44.761092" y="99.081972" style="stroke: #000000; stroke-width: 0.6"/>
      </g>
     </g>
    </g>
    <g id="ytick_10">
     <g id="line2d_17">
      <g>
       <use xlink:href="#mabc912bc87" x="44.761092" y="93.095936" style="stroke: #000000; stroke-width: 0.6"/>
      </g>
     </g>
    </g>
    <g id="ytick_11">
     <g id="line2d_18">
      <g>
       <use xlink:href="#mabc912bc87" x="44.761092" y="88.848776" style="stroke: #000000; stroke-width: 0.6"/>
      </g>
     </g>
    </g>
    <g id="ytick_12">
     <g id="line2d_19">
      <g>
       <use xlink:href="#mabc912bc87" x="44.761092" y="85.554423" style="stroke: #000000; stroke-width: 0.6"/>
      </g>
     </g>
    </g>
    <g id="ytick_13">
     <g id="line2d_20">
      <g>
       <use xlink:href="#mabc912bc87" x="44.761092" y="82.862741" style="stroke: #000000; stroke-width: 0.6"/>
      </g>
     </g>
    </g>
    <g id="ytick_14">
     <g id="line2d_21">
      <g>
       <use xlink:href="#mabc912bc87" x="44.761092" y="80.586955" style="stroke: #000000; stroke-width: 0.6"/>
      </g>
     </g>
    </g>
    <g id="ytick_15">
     <g id="line2d_22">
      <g>
       <use xlink:href="#mabc912bc87" x="44.761092" y="78.615581" style="stroke: #000000; stroke-width: 0.6"/>
      </g>
     </g>
    </g>
    <g id="ytick_16">
     <g id="line2d_23">
      <g>
       <use xlink:href="#mabc912bc87" x="44.761092" y="76.876705" style="stroke: #000000; stroke-width: 0.6"/>
      </g>
     </g>
    </g>
    <g id="ytick_17">
     <g id="line2d_24">
      <g>
       <use xlink:href="#mabc912bc87" x="44.761092" y="65.088032" style="stroke: #000000; stroke-width: 0.6"/>
      </g>
     </g>
    </g>
    <g id="ytick_18">
     <g id="line2d_25">
      <g>
       <use xlink:href="#mabc912bc87" x="44.761092" y="59.101996" style="stroke: #000000; stroke-width: 0.6"/>
      </g>
     </g>
    </g>
    <g id="ytick_19">
     <g id="line2d_26">
      <g>
       <use xlink:href="#mabc912bc87" x="44.761092" y="54.854836" style="stroke: #000000; stroke-width: 0.6"/>
      </g>
     </g>
    </g>
    <g id="ytick_20">
     <g id="line2d_27">
      <g>
       <use xlink:href="#mabc912bc87" x="44.761092" y="51.560483" style="stroke: #000000; stroke-width: 0.6"/>
      </g>
     </g>
    </g>
    <g id="ytick_21">
     <g id="line2d_28">
      <g>
       <use xlink:href="#mabc912bc87" x="44.761092" y="48.868801" style="stroke: #000000; stroke-width: 0.6"/>
      </g>
     </g>
    </g>
    <g id="ytick_22">
     <g id="line2d_29">
      <g>
       <use xlink:href="#mabc912bc87" x="44.761092" y="46.593015" style="stroke: #000000; stroke-width: 0.6"/>
      </g>
     </g>
    </g>
    <g id="ytick_23">
     <g id="line2d_30">
      <g>
       <use xlink:href="#mabc912bc87" x="44.761092" y="44.621641" style="stroke: #000000; stroke-width: 0.6"/>
      </g>
     </g>
    </g>
    <g id="ytick_24">
     <g id="line2d_31">
      <g>
       <use xlink:href="#mabc912bc87" x="44.761092" y="42.882765" style="stroke: #000000; stroke-width: 0.6"/>
      </g>
     </g>
    </g>
    <g id="ytick_25">
     <g id="line2d_32">
      <g>
       <use xlink:href="#mabc912bc87" x="44.761092" y="31.094092" style="stroke: #000000; stroke-width: 0.6"/>
      </g>
     </g>
    </g>
    <g id="ytick_26">
     <g id="line2d_33">
      <g>
       <use xlink:href="#mabc912bc87" x="44.761092" y="25.108056" style="stroke: #000000; stroke-width: 0.6"/>
      </g>
     </g>
    </g>
    <g id="ytick_27">
     <g id="line2d_34">
      <g>
       <use xlink:href="#mabc912bc87" x="44.761092" y="20.860896" style="stroke: #000000; stroke-width: 0.6"/>
      </g>
     </g>
    </g>
    <g id="text_12">
     <!-- $\sigma/(\pi a^2)$ -->
     <g transform="translate(11.109859 87.250141) rotate(-90) scale(0.1 -0.1)">
      <defs>
       <path id="CMMI12-1b" d="M 3251 2408 
C 3334 2408 3546 2408 3546 2612 
C 3546 2752 3424 2752 3309 2752 
L 1894 2752 
C 934 2752 243 1686 243 932 
C 243 390 595 -64 1171 -64 
C 1926 -64 2752 747 2752 1705 
C 2752 1954 2694 2196 2541 2408 
L 3251 2408 
z
M 1178 64 
C 851 64 614 313 614 754 
C 614 1137 845 2408 1786 2408 
C 2061 2408 2368 2274 2368 1781 
C 2368 1558 2266 1021 2042 652 
C 1811 275 1466 64 1178 64 
z
" transform="scale(0.015625)"/>
       <path id="CMMI12-3d" d="M 2746 4562 
C 2746 4569 2784 4666 2784 4678 
C 2784 4755 2720 4800 2669 4800 
C 2637 4800 2579 4800 2528 4659 
L 384 -1363 
C 384 -1370 346 -1465 346 -1478 
C 346 -1555 410 -1600 461 -1600 
C 499 -1600 557 -1593 602 -1459 
L 2746 4562 
z
" transform="scale(0.015625)"/>
       <path id="CMMI12-19" d="M 1658 2408 
L 2381 2408 
C 2208 1692 2099 1226 2099 716 
C 2099 626 2099 -64 2362 -64 
C 2496 -64 2611 57 2611 166 
C 2611 197 2611 210 2566 306 
C 2394 747 2394 1296 2394 1341 
C 2394 1379 2394 1832 2528 2408 
L 3245 2408 
C 3328 2408 3539 2408 3539 2612 
C 3539 2752 3418 2752 3302 2752 
L 1197 2752 
C 1050 2752 832 2752 538 2440 
C 371 2254 166 1916 166 1878 
C 166 1840 198 1827 237 1827 
C 282 1827 288 1846 320 1884 
C 653 2408 986 2408 1146 2408 
L 1510 2408 
C 1370 1929 1210 1373 685 256 
C 634 154 634 140 634 102 
C 634 -32 749 -64 806 -64 
C 992 -64 1043 102 1120 370 
C 1222 696 1222 709 1286 964 
L 1658 2408 
z
" transform="scale(0.015625)"/>
       <path id="CMMI12-61" d="M 1926 760 
C 1894 651 1894 639 1805 517 
C 1664 338 1382 64 1082 64 
C 819 64 672 300 672 677 
C 672 1028 870 1743 992 2012 
C 1210 2459 1510 2689 1760 2689 
C 2182 2689 2266 2165 2266 2114 
C 2266 2108 2246 2024 2240 2012 
L 1926 760 
z
M 2336 2395 
C 2266 2561 2093 2816 1760 2816 
C 1037 2816 256 1884 256 939 
C 256 307 627 -64 1062 -64 
C 1414 -64 1715 211 1894 422 
C 1958 45 2259 -64 2451 -64 
C 2643 -64 2797 51 2912 281 
C 3014 498 3104 888 3104 913 
C 3104 945 3078 971 3040 971 
C 2982 971 2976 939 2950 843 
C 2854 466 2733 64 2470 64 
C 2285 64 2272 230 2272 358 
C 2272 505 2291 575 2349 824 
C 2394 984 2426 1124 2477 1309 
C 2714 2267 2771 2497 2771 2535 
C 2771 2625 2701 2695 2605 2695 
C 2400 2695 2349 2472 2336 2395 
z
" transform="scale(0.015625)"/>
      </defs>
      <use xlink:href="#CMMI12-1b" transform="scale(0.996264)"/>
      <use xlink:href="#CMMI12-3d" transform="translate(59.020054 0) scale(0.996264)"/>
      <use xlink:href="#CMR17-28" transform="translate(107.794972 0) scale(0.996264)"/>
      <use xlink:href="#CMMI12-19" transform="translate(143.07574 0) scale(0.996264)"/>
      <use xlink:href="#CMMI12-61" transform="translate(201.986341 0) scale(0.996264)"/>
      <use xlink:href="#CMR17-32" transform="translate(253.194199 36.153639) scale(0.697382)"/>
      <use xlink:href="#CMR17-29" transform="translate(285.675512 0) scale(0.996264)"/>
     </g>
    </g>
   </g>
   <g id="line2d_35">
    <path d="M 53.553759 22.766274 
L 56.484648 22.865876 
L 59.415537 23.165162 
L 62.346426 23.665585 
L 65.277315 24.369602 
L 68.208203 25.280727 
L 71.139092 26.403613 
L 74.069981 27.744166 
L 77.00087 29.309693 
L 79.931759 31.109107 
L 82.862648 33.153189 
L 85.793537 35.454937 
L 88.724426 38.030028 
L 91.655315 40.897432 
L 94.586204 44.080237 
L 97.517093 47.606763 
L 100.447981 51.512081 
L 103.37887 55.840071 
L 106.309759 60.646197 
L 109.240648 66.001042 
L 112.171537 71.994123 
L 115.102426 78.735287 
L 117.056352 83.704204 
L 119.987241 91.931758 
L 122.91813 100.971647 
L 125.849019 109.921572 
L 126.825982 112.474437 
L 127.802945 114.582765 
L 128.779908 116.116292 
L 129.756871 117.002282 
L 130.733833 117.253497 
L 131.710796 116.963098 
L 132.687759 116.27033 
L 134.641685 114.236782 
L 137.572574 110.976 
L 139.5265 109.178146 
L 141.480426 107.797027 
L 143.434352 106.829301 
L 145.388278 106.241354 
L 147.342204 105.989525 
L 149.29613 106.026999 
L 151.250056 106.305095 
L 153.203982 106.772277 
L 156.134871 107.703182 
L 161.019685 109.318455 
L 162.973611 109.776524 
L 164.927537 110.025731 
L 166.881463 110.018499 
L 168.835389 109.73222 
L 170.789315 109.172117 
L 172.743241 108.367915 
L 175.67413 106.807 
L 179.581982 104.337667 
L 187.397686 99.253199 
L 191.305538 96.973495 
L 195.213389 94.947431 
L 199.121241 93.180789 
L 203.029093 91.664123 
L 206.936945 90.383583 
L 210.844797 89.325984 
L 214.752649 88.480751 
L 218.660501 87.840265 
L 222.568353 87.39951 
L 226.476204 87.155501 
L 229.407093 87.100679 
L 229.407093 87.100679 
" clip-path="url(#pba7371100b)" style="fill: none; stroke: #000000; stroke-width: 0.75; stroke-linecap: square"/>
   </g>
   <g id="line2d_36">
    <path d="M 53.553759 22.694563 
L 56.484648 22.793112 
L 59.415537 23.08096 
L 62.346426 23.598586 
L 65.277315 24.306206 
L 68.208203 25.225509 
L 72.116055 26.779291 
L 75.046944 28.206661 
L 77.977833 29.833424 
L 81.885685 32.395585 
L 84.816574 34.57989 
L 87.747463 37.008773 
L 90.678352 39.734304 
L 93.609241 42.73117 
L 96.54013 46.069329 
L 99.471018 49.789601 
L 102.401907 53.95301 
L 105.332796 58.635258 
L 108.263685 63.90551 
L 110.217611 67.809335 
L 112.171537 72.074137 
L 114.125463 76.71912 
L 116.079389 81.821125 
L 118.033315 87.373237 
L 120.964204 96.535216 
L 124.872056 109.112659 
L 125.849019 111.813759 
L 126.825982 114.024254 
L 127.802945 115.639297 
L 128.779908 116.615853 
L 129.756871 116.939772 
L 130.733833 116.726501 
L 131.710796 116.157969 
L 133.664722 114.396936 
L 136.595611 111.616876 
L 138.549537 110.139908 
L 140.503463 109.041868 
L 142.457389 108.314982 
L 144.411315 107.913884 
L 146.365241 107.776794 
L 148.319167 107.856123 
L 151.250056 108.29193 
L 154.180945 108.937714 
L 159.06576 110.005201 
L 161.996648 110.350077 
L 163.950574 110.367798 
L 165.9045 110.169737 
L 167.858426 109.754713 
L 169.812352 109.112889 
L 171.766278 108.252562 
L 174.697167 106.656376 
L 178.605019 104.134555 
L 187.397686 98.233036 
L 191.305538 95.967437 
L 195.213389 94.004194 
L 199.121241 92.372551 
L 203.029093 91.037694 
L 207.913908 89.710198 
L 211.82176 88.864012 
L 214.752649 88.33279 
L 218.660501 87.756149 
L 224.522278 87.215829 
L 228.43013 87.074776 
L 229.407093 87.069275 
L 229.407093 87.069275 
" clip-path="url(#pba7371100b)" style="fill: none; stroke-dasharray: 2.775,1.2; stroke-dashoffset: 0; stroke: #ff0000; stroke-width: 0.75"/>
   </g>
   <g id="patch_3">
    <path d="M 44.761092 121.981443 
L 44.761092 17.966616 
" style="fill: none; stroke: #000000; stroke-width: 0.8; stroke-linejoin: miter; stroke-linecap: square"/>
   </g>
   <g id="patch_4">
    <path d="M 238.19976 121.981443 
L 238.19976 17.966616 
" style="fill: none; stroke: #000000; stroke-width: 0.8; stroke-linejoin: miter; stroke-linecap: square"/>
   </g>
   <g id="patch_5">
    <path d="M 44.761092 121.981443 
L 238.19976 121.981443 
" style="fill: none; stroke: #000000; stroke-width: 0.8; stroke-linejoin: miter; stroke-linecap: square"/>
   </g>
   <g id="patch_6">
    <path d="M 44.761092 17.966616 
L 238.19976 17.966616 
" style="fill: none; stroke: #000000; stroke-width: 0.8; stroke-linejoin: miter; stroke-linecap: square"/>
   </g>
   <g id="text_13">
    <!-- $a/ \lambda = 0.5, \varepsilon_r = 2, \phi = 0^o$ -->
    <g transform="translate(79.344836 11.966616) scale(0.12 -0.12)">
     <defs>
      <path id="CMMI12-15" d="M 1978 3965 
C 1818 4416 1312 4416 1229 4416 
C 1190 4416 1120 4416 1120 4352 
C 1120 4302 1158 4295 1190 4289 
C 1286 4276 1363 4263 1466 4080 
C 1530 3959 2189 2059 2189 2046 
C 2189 2040 2182 2033 2131 1982 
L 467 311 
C 390 234 339 183 339 102 
C 339 12 416 -64 518 -64 
C 544 -64 614 -51 653 -13 
C 755 82 1670 1194 2253 1881 
C 2419 1383 2624 797 2822 261 
C 2854 166 2886 76 2976 -6 
C 3040 -64 3053 -64 3232 -64 
L 3354 -64 
C 3379 -64 3424 -64 3424 -13 
C 3424 13 3418 19 3392 45 
C 3334 115 3290 229 3264 306 
L 1978 3965 
z
" transform="scale(0.015625)"/>
      <path id="CMR17-3d" d="M 4115 2017 
C 4211 2017 4307 2017 4307 2125 
C 4307 2240 4198 2240 4090 2240 
L 512 2240 
C 403 2240 294 2240 294 2125 
C 294 2017 390 2017 486 2017 
L 4115 2017 
z
M 4090 896 
C 4198 896 4307 896 4307 1011 
C 4307 1119 4211 1119 4115 1119 
L 486 1119 
C 390 1119 294 1119 294 1011 
C 294 896 403 896 512 896 
L 4090 896 
z
" transform="scale(0.015625)"/>
      <path id="CMMI12-3a" d="M 1178 307 
C 1178 492 1024 619 870 619 
C 685 619 557 466 557 313 
C 557 128 710 0 864 0 
C 1050 0 1178 153 1178 307 
z
" transform="scale(0.015625)"/>
      <path id="CMMI12-3b" d="M 1248 -31 
C 1248 343 1126 619 864 619 
C 659 619 557 453 557 313 
C 557 172 653 0 870 0 
C 954 0 1024 26 1082 83 
C 1094 96 1101 96 1107 96 
C 1120 96 1120 5 1120 -27 
C 1120 -240 1082 -659 710 -1080 
C 640 -1157 640 -1170 640 -1183 
C 640 -1216 672 -1248 704 -1248 
C 755 -1248 1248 -771 1248 -31 
z
" transform="scale(0.015625)"/>
      <path id="CMMI12-22" d="M 890 1427 
C 1094 1345 1312 1345 1434 1345 
C 1600 1345 1933 1345 1933 1550 
C 1933 1678 1811 1728 1485 1728 
C 1325 1728 1133 1709 909 1613 
C 710 1708 634 1852 634 1990 
C 634 2379 1261 2606 1830 2606 
C 1939 2606 2170 2606 2438 2411 
C 2477 2387 2496 2367 2541 2367 
C 2618 2367 2701 2449 2701 2526 
C 2701 2639 2330 2880 1888 2880 
C 1171 2880 493 2449 493 1972 
C 493 1734 646 1586 755 1509 
C 384 1301 166 961 166 652 
C 166 219 563 -128 1178 -128 
C 2022 -128 2362 424 2362 512 
C 2362 543 2336 568 2304 568 
C 2272 568 2259 549 2234 512 
C 2163 395 1997 146 1235 146 
C 838 146 314 245 314 686 
C 314 898 474 1214 890 1427 
z
M 1088 1518 
C 1261 1600 1427 1600 1472 1600 
C 1651 1600 1683 1583 1786 1545 
C 1677 1472 1664 1472 1434 1472 
C 1318 1472 1216 1472 1088 1518 
z
" transform="scale(0.015625)"/>
      <path id="CMMI12-72" d="M 2490 2612 
C 2291 2574 2189 2433 2189 2293 
C 2189 2139 2310 2088 2400 2088 
C 2579 2088 2726 2242 2726 2433 
C 2726 2638 2528 2816 2208 2816 
C 1952 2816 1658 2701 1389 2312 
C 1344 2650 1088 2816 832 2816 
C 582 2816 454 2625 378 2484 
C 269 2254 173 1871 173 1839 
C 173 1814 198 1782 243 1782 
C 294 1782 301 1788 339 1935 
C 435 2318 557 2689 813 2689 
C 966 2689 1011 2580 1011 2395 
C 1011 2254 947 2005 902 1807 
L 723 1118 
C 698 996 627 709 595 594 
C 550 428 480 128 480 96 
C 480 6 550 -64 646 -64 
C 717 -64 838 -19 877 109 
C 896 160 1133 1124 1171 1271 
C 1203 1411 1242 1546 1274 1686 
C 1299 1775 1325 1878 1344 1961 
C 1363 2018 1536 2331 1696 2472 
C 1773 2542 1939 2689 2202 2689 
C 2304 2689 2406 2670 2490 2612 
z
" transform="scale(0.015625)"/>
      <path id="CMMI12-1e" d="M 2752 4390 
C 2752 4448 2707 4448 2688 4448 
C 2630 4448 2624 4435 2598 4326 
L 2253 2939 
C 2234 2856 2227 2849 2221 2843 
C 2214 2830 2170 2824 2157 2824 
C 1107 2734 301 1864 301 1057 
C 301 361 832 -64 1498 -64 
C 1446 -261 1402 -463 1350 -659 
C 1261 -995 1210 -1204 1210 -1229 
C 1210 -1241 1210 -1280 1274 -1280 
C 1293 -1280 1318 -1280 1331 -1254 
C 1344 -1241 1382 -1089 1408 -1008 
L 1645 -64 
C 2739 -64 3571 854 3571 1680 
C 3571 2343 3085 2816 2374 2816 
L 2752 4390 
z
M 2336 2701 
C 2758 2701 3181 2463 3181 1828 
C 3181 1097 2675 128 1677 50 
L 2336 2701 
z
M 1530 50 
C 1216 50 691 220 691 938 
C 691 1761 1274 2676 2195 2676 
L 1530 50 
z
" transform="scale(0.015625)"/>
     </defs>
     <use xlink:href="#CMMI12-61" transform="scale(0.996264)"/>
     <use xlink:href="#CMMI12-3d" transform="translate(51.207858 0) scale(0.996264)"/>
     <use xlink:href="#CMMI12-15" transform="translate(99.982776 0) scale(0.996264)"/>
     <use xlink:href="#CMR17-3d" transform="translate(184.560857 0) scale(0.996264)"/>
     <use xlink:href="#CMR17-30" transform="translate(283.949654 0) scale(0.996264)"/>
     <use xlink:href="#CMMI12-3a" transform="translate(329.640131 0) scale(0.996264)"/>
     <use xlink:href="#CMR17-35" transform="translate(356.737308 0) scale(0.996264)"/>
     <use xlink:href="#CMMI12-3b" transform="translate(402.427785 0) scale(0.996264)"/>
     <use xlink:href="#CMMI12-22" transform="translate(446.129368 0) scale(0.996264)"/>
     <use xlink:href="#CMMI12-72" transform="translate(491.77956 -14.943915) scale(0.697382)"/>
     <use xlink:href="#CMR17-3d" transform="translate(552.62097 0) scale(0.996264)"/>
     <use xlink:href="#CMR17-32" transform="translate(652.009767 0) scale(0.996264)"/>
     <use xlink:href="#CMMI12-3b" transform="translate(697.700244 0) scale(0.996264)"/>
     <use xlink:href="#CMMI12-1e" transform="translate(741.401826 0) scale(0.996264)"/>
     <use xlink:href="#CMR17-3d" transform="translate(826.810015 0) scale(0.996264)"/>
     <use xlink:href="#CMR17-30" transform="translate(926.198813 0) scale(0.996264)"/>
     <use xlink:href="#CMMI12-6f" transform="translate(971.88929 36.153639) scale(0.697382)"/>
    </g>
   </g>
   <g id="legend_1">
    <g id="patch_7">
     <path d="M 154.367758 53.840973 
L 231.19976 53.840973 
Q 233.19976 53.840973 233.19976 51.840973 
L 233.19976 24.966616 
Q 233.19976 22.966616 231.19976 22.966616 
L 154.367758 22.966616 
Q 152.367758 22.966616 152.367758 24.966616 
L 152.367758 51.840973 
Q 152.367758 53.840973 154.367758 53.840973 
z
" style="fill: #ffffff; opacity: 0.8; stroke: #cccccc; stroke-linejoin: miter"/>
    </g>
    <g id="line2d_37">
     <path d="M 156.367758 30.466616 
L 166.367758 30.466616 
L 176.367758 30.466616 
" style="fill: none; stroke: #000000; stroke-width: 0.75; stroke-linecap: square"/>
    </g>
    <g id="text_14">
     <!-- Analytical -->
     <g transform="translate(184.367758 33.966616) scale(0.1 -0.1)">
      <defs>
       <path id="CMR17-41" d="M 2323 4378 
C 2291 4461 2278 4480 2214 4480 
C 2150 4480 2138 4461 2106 4378 
L 749 566 
C 627 223 371 153 147 153 
L 147 -13 
C 262 0 518 0 640 0 
C 800 0 1056 0 1210 -13 
L 1210 153 
C 909 153 864 361 864 439 
C 864 497 877 530 890 569 
L 1229 1536 
L 2906 1536 
L 3290 442 
C 3322 365 3322 352 3322 327 
C 3322 153 3046 153 2925 153 
L 2925 0 
C 3110 0 3443 0 3642 0 
C 3808 0 4128 0 4282 -13 
L 4282 153 
C 3942 153 3827 153 3744 387 
L 2323 4378 
z
M 2067 3893 
L 2848 1702 
L 1286 1702 
L 2067 3893 
z
" transform="scale(0.015625)"/>
       <path id="CMR17-6e" d="M 2656 1933 
C 2656 2259 2592 2790 1837 2790 
C 1331 2790 1069 2400 973 2144 
L 966 2144 
L 966 2790 
L 211 2720 
L 211 2554 
C 589 2554 646 2515 646 2208 
L 646 428 
C 646 184 621 153 211 153 
L 211 -13 
C 365 0 646 0 813 0 
C 979 0 1267 0 1421 -13 
L 1421 153 
C 1011 153 986 178 986 428 
L 986 1658 
C 986 2247 1344 2688 1792 2688 
C 2266 2688 2317 2266 2317 1958 
L 2317 428 
C 2317 184 2291 153 1882 153 
L 1882 -13 
C 2035 0 2317 0 2483 0 
C 2650 0 2938 0 3091 -13 
L 3091 153 
C 2682 153 2656 178 2656 428 
L 2656 1933 
z
" transform="scale(0.015625)"/>
       <path id="CMR17-61" d="M 2304 1653 
C 2304 2072 2304 2294 2035 2543 
C 1798 2752 1523 2816 1306 2816 
C 800 2816 435 2407 435 1971 
C 435 1728 627 1728 666 1728 
C 749 1728 896 1778 896 1954 
C 896 2112 774 2181 666 2181 
C 640 2181 608 2174 589 2168 
C 723 2592 1069 2714 1293 2714 
C 1613 2714 1965 2429 1965 1885 
L 1965 1600 
C 1587 1600 1133 1549 774 1357 
C 371 1133 256 813 256 570 
C 256 77 832 -64 1171 -64 
C 1523 -64 1850 139 1990 511 
C 2003 233 2182 -18 2464 -18 
C 2598 -18 2938 70 2938 567 
L 2938 920 
L 2822 920 
L 2822 562 
C 2822 178 2650 128 2566 128 
C 2304 128 2304 458 2304 738 
L 2304 1653 
z
M 1965 870 
C 1965 317 1568 38 1216 38 
C 896 38 646 275 646 570 
C 646 761 730 1100 1101 1305 
C 1408 1478 1760 1504 1965 1504 
L 1965 870 
z
" transform="scale(0.015625)"/>
       <path id="CMR17-6c" d="M 979 4396 
L 218 4326 
L 218 4160 
C 595 4160 653 4122 653 3817 
L 653 426 
C 653 184 627 153 218 153 
L 218 -13 
C 371 0 653 0 813 0 
C 979 0 1261 0 1414 -13 
L 1414 153 
C 1005 153 979 178 979 426 
L 979 4396 
z
" transform="scale(0.015625)"/>
       <path id="CMR17-79" d="M 2496 2197 
C 2656 2586 2944 2586 3034 2586 
L 3034 2752 
C 2912 2752 2752 2752 2630 2752 
C 2496 2752 2285 2752 2157 2758 
L 2157 2592 
C 2400 2573 2406 2394 2406 2343 
C 2406 2280 2394 2248 2362 2171 
L 1664 449 
L 902 2306 
C 870 2382 870 2426 870 2433 
C 870 2573 1018 2586 1171 2586 
L 1171 2758 
C 1018 2752 742 2752 582 2752 
C 410 2752 205 2752 64 2758 
L 64 2586 
C 410 2586 448 2554 531 2350 
L 1485 15 
C 1197 -738 1030 -1178 627 -1178 
C 557 -1178 397 -1159 282 -1044 
C 429 -1031 493 -942 493 -833 
C 493 -725 416 -629 288 -629 
C 147 -629 77 -725 77 -840 
C 77 -1095 339 -1280 627 -1280 
C 998 -1280 1229 -922 1357 -604 
L 2496 2197 
z
" transform="scale(0.015625)"/>
       <path id="CMR17-74" d="M 966 2560 
L 1862 2560 
L 1862 2725 
L 966 2725 
L 966 3904 
L 851 3904 
C 838 3245 614 2668 70 2668 
L 70 2560 
L 627 2560 
L 627 771 
C 627 650 627 -64 1370 -64 
C 1747 -64 1965 306 1965 777 
L 1965 1140 
L 1850 1140 
L 1850 783 
C 1850 344 1677 51 1408 51 
C 1222 51 966 178 966 758 
L 966 2560 
z
" transform="scale(0.015625)"/>
       <path id="CMR17-69" d="M 992 3909 
C 992 4049 877 4170 730 4170 
C 589 4170 467 4056 467 3909 
C 467 3769 582 3648 730 3648 
C 870 3648 992 3763 992 3909 
z
M 243 2706 
L 243 2541 
C 602 2541 653 2502 653 2197 
L 653 427 
C 653 184 627 153 218 153 
L 218 -13 
C 371 0 646 0 806 0 
C 960 0 1222 0 1370 -13 
L 1370 153 
C 992 153 979 191 979 420 
L 979 2776 
L 243 2706 
z
" transform="scale(0.015625)"/>
       <path id="CMR17-63" d="M 2234 2240 
C 2112 2240 1933 2240 1933 2017 
C 1933 1838 2080 1787 2163 1787 
C 2208 1787 2394 1807 2394 2024 
C 2394 2467 1958 2803 1466 2803 
C 787 2803 211 2178 211 1363 
C 211 516 813 -64 1466 -64 
C 2259 -64 2458 677 2458 748 
C 2458 774 2451 793 2406 793 
C 2362 793 2355 787 2330 703 
C 2163 180 1798 51 1523 51 
C 1114 51 621 427 621 1369 
C 621 2338 1094 2688 1472 2688 
C 1722 2688 2093 2573 2234 2240 
z
" transform="scale(0.015625)"/>
      </defs>
      <use xlink:href="#CMR17-41" transform="scale(0.996264)"/>
      <use xlink:href="#CMR17-6e" transform="translate(69.07243 0) scale(0.996264)"/>
      <use xlink:href="#CMR17-61" transform="translate(119.9678 0) scale(0.996264)"/>
      <use xlink:href="#CMR17-6c" transform="translate(165.658277 0) scale(0.996264)"/>
      <use xlink:href="#CMR17-79" transform="translate(190.529335 0) scale(0.996264)"/>
      <use xlink:href="#CMR17-74" transform="translate(238.822251 0) scale(0.996264)"/>
      <use xlink:href="#CMR17-69" transform="translate(274.103019 0) scale(0.996264)"/>
      <use xlink:href="#CMR17-63" transform="translate(298.974077 0) scale(0.996264)"/>
      <use xlink:href="#CMR17-61" transform="translate(339.459738 0) scale(0.996264)"/>
      <use xlink:href="#CMR17-6c" transform="translate(385.150215 0) scale(0.996264)"/>
     </g>
    </g>
    <g id="line2d_38">
     <path d="M 156.367758 44.403794 
L 166.367758 44.403794 
L 176.367758 44.403794 
" style="fill: none; stroke-dasharray: 2.775,1.2; stroke-dashoffset: 0; stroke: #ff0000; stroke-width: 0.75"/>
    </g>
    <g id="text_15">
     <!-- LBM -->
     <g transform="translate(184.367758 47.903794) scale(0.1 -0.1)">
      <defs>
       <path id="CMR17-4c" d="M 3469 1615 
L 3354 1615 
C 3302 983 3219 166 2125 166 
L 1530 166 
C 1274 166 1261 197 1261 414 
L 1261 3898 
C 1261 4129 1274 4192 1760 4192 
L 1901 4192 
L 1901 4352 
C 1638 4352 1331 4352 1069 4352 
C 870 4352 512 4352 326 4352 
L 326 4192 
C 768 4192 838 4192 838 3905 
L 838 452 
C 838 166 768 166 326 166 
L 326 0 
L 3315 0 
L 3469 1615 
z
" transform="scale(0.015625)"/>
       <path id="CMR17-42" d="M 333 4352 
L 333 4186 
C 774 4186 845 4186 845 3900 
L 845 452 
C 845 166 774 166 333 166 
L 333 0 
L 2534 0 
C 3354 0 3885 583 3885 1164 
C 3885 1741 3360 2233 2675 2233 
C 3290 2356 3718 2771 3718 3264 
C 3718 3802 3194 4352 2368 4352 
L 333 4352 
z
M 1248 2304 
L 1248 3937 
C 1248 4155 1261 4186 1517 4186 
L 2336 4186 
C 2970 4186 3251 3674 3251 3277 
C 3251 2791 2861 2304 2170 2304 
L 1248 2304 
z
M 1517 166 
C 1261 166 1248 197 1248 413 
L 1248 2202 
L 2432 2202 
C 3091 2202 3411 1625 3411 1162 
C 3411 699 3046 166 2349 166 
L 1517 166 
z
" transform="scale(0.015625)"/>
       <path id="CMR17-4d" d="M 1338 4224 
C 1299 4320 1293 4320 1158 4320 
L 339 4320 
L 339 4160 
C 781 4160 851 4160 851 3875 
L 851 610 
C 851 451 851 153 339 153 
L 339 -13 
C 486 0 755 0 915 0 
C 1075 0 1344 0 1491 -13 
L 1491 153 
C 979 153 979 451 979 610 
L 979 4135 
L 986 4135 
L 2490 89 
C 2515 25 2528 -13 2579 -13 
C 2630 -13 2643 25 2669 89 
L 4186 4166 
L 4192 4166 
L 4192 438 
C 4192 153 4122 153 3680 153 
L 3680 -13 
C 3853 0 4198 0 4384 0 
C 4570 0 4922 0 5094 -13 
L 5094 153 
C 4653 153 4582 153 4582 438 
L 4582 3875 
C 4582 4160 4653 4160 5094 4160 
L 5094 4320 
L 4282 4320 
C 4147 4320 4141 4314 4102 4218 
L 2720 502 
L 1338 4224 
z
" transform="scale(0.015625)"/>
      </defs>
      <use xlink:href="#CMR17-4c" transform="scale(0.996264)"/>
      <use xlink:href="#CMR17-42" transform="translate(57.381408 0) scale(0.996264)"/>
      <use xlink:href="#CMR17-4d" transform="translate(122.570162 0) scale(0.996264)"/>
     </g>
    </g>
   </g>
  </g>
 </g>
 <defs>
  <clipPath id="pba7371100b">
   <rect x="44.761092" y="17.966616" width="193.438668" height="104.014827"/>
  </clipPath>
 </defs>
</svg>
