<?xml version="1.0" encoding="utf-8" standalone="no"?>
<!DOCTYPE svg PUBLIC "-//W3C//DTD SVG 1.1//EN"
  "http://www.w3.org/Graphics/SVG/1.1/DTD/svg11.dtd">
<svg xmlns:xlink="http://www.w3.org/1999/xlink" width="241.2pt" height="162pt" viewBox="0 0 241.2 162" xmlns="http://www.w3.org/2000/svg" version="1.1">
 <metadata>
  <rdf:RDF xmlns:dc="http://purl.org/dc/elements/1.1/" xmlns:cc="http://creativecommons.org/ns#" xmlns:rdf="http://www.w3.org/1999/02/22-rdf-syntax-ns#">
   <cc:Work>
    <dc:type rdf:resource="http://purl.org/dc/dcmitype/StillImage"/>
    <dc:date>2024-09-24T20:54:27.967983</dc:date>
    <dc:format>image/svg+xml</dc:format>
    <dc:creator>
     <cc:Agent>
      <dc:title>Matplotlib v3.8.4, https://matplotlib.org/</dc:title>
     </cc:Agent>
    </dc:creator>
   </cc:Work>
  </rdf:RDF>
 </metadata>
 <defs>
  <style type="text/css">*{stroke-linejoin: round; stroke-linecap: butt}</style>
 </defs>
 <g id="figure_1">
  <g id="patch_1">
   <path d="M 0 162 
L 241.2 162 
L 241.2 0 
L 0 0 
z
" style="fill: #ffffff"/>
  </g>
  <g id="axes_1">
   <g id="patch_2">
    <path d="M 39.668313 129.181443 
L 238.19976 129.181443 
L 238.19976 3.00024 
L 39.668313 3.00024 
z
" style="fill: #ffffff"/>
   </g>
   <g id="matplotlib.axis_1">
    <g id="xtick_1">
     <g id="line2d_1">
      <defs>
       <path id="me04b62019d" d="M 0 0 
L 0 3.5 
" style="stroke: #000000; stroke-width: 0.8"/>
      </defs>
      <g>
       <use xlink:href="#me04b62019d" x="48.692469" y="129.181443" style="stroke: #000000; stroke-width: 0.8"/>
      </g>
     </g>
     <g id="text_1">
      <!-- $\mathdefault{0}$ -->
      <g transform="translate(46.201802 143.099942) scale(0.1 -0.1)">
       <defs>
        <path id="CMR17-30" d="M 2688 2025 
C 2688 2416 2682 3080 2413 3591 
C 2176 4039 1798 4198 1466 4198 
C 1158 4198 768 4058 525 3597 
C 269 3118 243 2524 243 2025 
C 243 1661 250 1106 448 619 
C 723 -39 1216 -128 1466 -128 
C 1760 -128 2208 -7 2470 600 
C 2662 1042 2688 1559 2688 2025 
z
M 1466 -26 
C 1056 -26 813 325 723 812 
C 653 1188 653 1738 653 2096 
C 653 2588 653 2997 736 3387 
C 858 3929 1216 4096 1466 4096 
C 1728 4096 2067 3923 2189 3400 
C 2272 3036 2278 2607 2278 2096 
C 2278 1680 2278 1169 2202 792 
C 2067 95 1690 -26 1466 -26 
z
" transform="scale(0.015625)"/>
       </defs>
       <use xlink:href="#CMR17-30" transform="scale(0.996264)"/>
      </g>
     </g>
    </g>
    <g id="xtick_2">
     <g id="line2d_2">
      <g>
       <use xlink:href="#me04b62019d" x="82.301992" y="129.181443" style="stroke: #000000; stroke-width: 0.8"/>
      </g>
     </g>
     <g id="text_2">
      <!-- $\mathdefault{5000}$ -->
      <g transform="translate(72.339321 143.099942) scale(0.1 -0.1)">
       <defs>
        <path id="CMR17-35" d="M 730 3692 
C 794 3666 1056 3584 1325 3584 
C 1920 3584 2246 3911 2432 4100 
C 2432 4157 2432 4192 2394 4192 
C 2387 4192 2374 4192 2323 4163 
C 2099 4058 1837 3973 1517 3973 
C 1325 3973 1037 3999 723 4139 
C 653 4171 640 4171 634 4171 
C 602 4171 595 4164 595 4037 
L 595 2203 
C 595 2089 595 2057 659 2057 
C 691 2057 704 2070 736 2114 
C 941 2401 1222 2522 1542 2522 
C 1766 2522 2246 2382 2246 1289 
C 2246 1085 2246 715 2054 421 
C 1894 159 1645 25 1370 25 
C 947 25 518 320 403 814 
C 429 807 480 795 506 795 
C 589 795 749 840 749 1038 
C 749 1210 627 1280 506 1280 
C 358 1280 262 1190 262 1011 
C 262 454 704 -128 1382 -128 
C 2042 -128 2669 440 2669 1264 
C 2669 2030 2170 2624 1549 2624 
C 1222 2624 947 2503 730 2274 
L 730 3692 
z
" transform="scale(0.015625)"/>
       </defs>
       <use xlink:href="#CMR17-35" transform="scale(0.996264)"/>
       <use xlink:href="#CMR17-30" transform="translate(45.690477 0) scale(0.996264)"/>
       <use xlink:href="#CMR17-30" transform="translate(91.380954 0) scale(0.996264)"/>
       <use xlink:href="#CMR17-30" transform="translate(137.071431 0) scale(0.996264)"/>
      </g>
     </g>
    </g>
    <g id="xtick_3">
     <g id="line2d_3">
      <g>
       <use xlink:href="#me04b62019d" x="115.911514" y="129.181443" style="stroke: #000000; stroke-width: 0.8"/>
      </g>
     </g>
     <g id="text_3">
      <!-- $\mathdefault{10000}$ -->
      <g transform="translate(103.458176 143.099942) scale(0.1 -0.1)">
       <defs>
        <path id="CMR17-31" d="M 1702 4058 
C 1702 4192 1696 4192 1606 4192 
C 1357 3916 979 3827 621 3827 
C 602 3827 570 3827 563 3808 
C 557 3795 557 3782 557 3648 
C 755 3648 1088 3686 1344 3839 
L 1344 461 
C 1344 236 1331 160 781 160 
L 589 160 
L 589 0 
C 896 0 1216 0 1523 0 
C 1830 0 2150 0 2458 0 
L 2458 160 
L 2266 160 
C 1715 160 1702 230 1702 458 
L 1702 4058 
z
" transform="scale(0.015625)"/>
       </defs>
       <use xlink:href="#CMR17-31" transform="scale(0.996264)"/>
       <use xlink:href="#CMR17-30" transform="translate(45.690477 0) scale(0.996264)"/>
       <use xlink:href="#CMR17-30" transform="translate(91.380954 0) scale(0.996264)"/>
       <use xlink:href="#CMR17-30" transform="translate(137.071431 0) scale(0.996264)"/>
       <use xlink:href="#CMR17-30" transform="translate(182.761908 0) scale(0.996264)"/>
      </g>
     </g>
    </g>
    <g id="xtick_4">
     <g id="line2d_4">
      <g>
       <use xlink:href="#me04b62019d" x="149.521036" y="129.181443" style="stroke: #000000; stroke-width: 0.8"/>
      </g>
     </g>
     <g id="text_4">
      <!-- $\mathdefault{15000}$ -->
      <g transform="translate(137.067698 143.099942) scale(0.1 -0.1)">
       <use xlink:href="#CMR17-31" transform="scale(0.996264)"/>
       <use xlink:href="#CMR17-35" transform="translate(45.690477 0) scale(0.996264)"/>
       <use xlink:href="#CMR17-30" transform="translate(91.380954 0) scale(0.996264)"/>
       <use xlink:href="#CMR17-30" transform="translate(137.071431 0) scale(0.996264)"/>
       <use xlink:href="#CMR17-30" transform="translate(182.761908 0) scale(0.996264)"/>
      </g>
     </g>
    </g>
    <g id="xtick_5">
     <g id="line2d_5">
      <g>
       <use xlink:href="#me04b62019d" x="183.130558" y="129.181443" style="stroke: #000000; stroke-width: 0.8"/>
      </g>
     </g>
     <g id="text_5">
      <!-- $\mathdefault{20000}$ -->
      <g transform="translate(170.67722 143.099942) scale(0.1 -0.1)">
       <defs>
        <path id="CMR17-32" d="M 2669 989 
L 2554 989 
C 2490 536 2438 459 2413 420 
C 2381 369 1920 369 1830 369 
L 602 369 
C 832 619 1280 1072 1824 1597 
C 2214 1967 2669 2402 2669 3035 
C 2669 3790 2067 4224 1395 4224 
C 691 4224 262 3604 262 3030 
C 262 2780 448 2748 525 2748 
C 589 2748 781 2787 781 3010 
C 781 3207 614 3264 525 3264 
C 486 3264 448 3258 422 3245 
C 544 3790 915 4058 1306 4058 
C 1862 4058 2227 3617 2227 3035 
C 2227 2479 1901 2000 1536 1584 
L 262 146 
L 262 0 
L 2515 0 
L 2669 989 
z
" transform="scale(0.015625)"/>
       </defs>
       <use xlink:href="#CMR17-32" transform="scale(0.996264)"/>
       <use xlink:href="#CMR17-30" transform="translate(45.690477 0) scale(0.996264)"/>
       <use xlink:href="#CMR17-30" transform="translate(91.380954 0) scale(0.996264)"/>
       <use xlink:href="#CMR17-30" transform="translate(137.071431 0) scale(0.996264)"/>
       <use xlink:href="#CMR17-30" transform="translate(182.761908 0) scale(0.996264)"/>
      </g>
     </g>
    </g>
    <g id="xtick_6">
     <g id="line2d_6">
      <g>
       <use xlink:href="#me04b62019d" x="216.74008" y="129.181443" style="stroke: #000000; stroke-width: 0.8"/>
      </g>
     </g>
     <g id="text_6">
      <!-- $\mathdefault{25000}$ -->
      <g transform="translate(204.286742 143.099942) scale(0.1 -0.1)">
       <use xlink:href="#CMR17-32" transform="scale(0.996264)"/>
       <use xlink:href="#CMR17-35" transform="translate(45.690477 0) scale(0.996264)"/>
       <use xlink:href="#CMR17-30" transform="translate(91.380954 0) scale(0.996264)"/>
       <use xlink:href="#CMR17-30" transform="translate(137.071431 0) scale(0.996264)"/>
       <use xlink:href="#CMR17-30" transform="translate(182.761908 0) scale(0.996264)"/>
      </g>
     </g>
    </g>
    <g id="text_7">
     <!-- $t / \Delta t$ -->
     <g transform="translate(128.694633 156.5091) scale(0.1 -0.1)">
      <defs>
       <path id="CMMI12-74" d="M 1286 2566 
L 1875 2566 
C 1997 2566 2061 2566 2061 2681 
C 2061 2752 2022 2752 1894 2752 
L 1331 2752 
L 1568 3692 
C 1594 3781 1594 3794 1594 3840 
C 1594 3943 1510 4000 1427 4000 
C 1376 4000 1229 3981 1178 3775 
L 928 2752 
L 326 2752 
C 198 2752 141 2752 141 2630 
C 141 2566 186 2566 307 2566 
L 877 2566 
L 454 881 
C 403 658 384 594 384 511 
C 384 211 595 -64 954 -64 
C 1600 -64 1946 868 1946 912 
C 1946 951 1920 970 1882 970 
C 1869 970 1843 970 1830 944 
C 1824 938 1818 931 1773 829 
C 1638 511 1344 64 973 64 
C 781 64 768 224 768 364 
C 768 370 768 492 787 568 
L 1286 2566 
z
" transform="scale(0.015625)"/>
       <path id="CMMI12-3d" d="M 2746 4562 
C 2746 4569 2784 4666 2784 4678 
C 2784 4755 2720 4800 2669 4800 
C 2637 4800 2579 4800 2528 4659 
L 384 -1363 
C 384 -1370 346 -1465 346 -1478 
C 346 -1555 410 -1600 461 -1600 
C 499 -1600 557 -1593 602 -1459 
L 2746 4562 
z
" transform="scale(0.015625)"/>
       <path id="CMR17-1" d="M 2598 4403 
C 2547 4512 2522 4512 2470 4512 
C 2394 4512 2387 4499 2342 4409 
L 269 109 
C 262 96 237 38 237 32 
C 237 6 243 0 358 0 
L 4576 0 
C 4691 0 4698 6 4698 32 
C 4698 38 4672 96 4666 109 
L 2598 4403 
z
M 2310 4038 
L 4083 358 
L 531 358 
L 2310 4038 
z
" transform="scale(0.015625)"/>
      </defs>
      <use xlink:href="#CMMI12-74" transform="scale(0.996264)"/>
      <use xlink:href="#CMMI12-3d" transform="translate(35.22633 0) scale(0.996264)"/>
      <use xlink:href="#CMR17-1" transform="translate(84.001249 0) scale(0.996264)"/>
      <use xlink:href="#CMMI12-74" transform="translate(160.920839 0) scale(0.996264)"/>
     </g>
    </g>
   </g>
   <g id="matplotlib.axis_2">
    <g id="ytick_1">
     <g id="line2d_7">
      <defs>
       <path id="m41947152b2" d="M 0 0 
L -3.5 0 
" style="stroke: #000000; stroke-width: 0.8"/>
      </defs>
      <g>
       <use xlink:href="#m41947152b2" x="39.668313" y="126.308498" style="stroke: #000000; stroke-width: 0.8"/>
      </g>
     </g>
     <g id="text_8">
      <!-- $\mathdefault{0}$ -->
      <g transform="translate(27.686977 129.767747) scale(0.1 -0.1)">
       <use xlink:href="#CMR17-30" transform="scale(0.996264)"/>
      </g>
     </g>
    </g>
    <g id="ytick_2">
     <g id="line2d_8">
      <g>
       <use xlink:href="#m41947152b2" x="39.668313" y="103.984095" style="stroke: #000000; stroke-width: 0.8"/>
      </g>
     </g>
     <g id="text_9">
      <!-- $\mathdefault{10}$ -->
      <g transform="translate(22.705642 107.443344) scale(0.1 -0.1)">
       <use xlink:href="#CMR17-31" transform="scale(0.996264)"/>
       <use xlink:href="#CMR17-30" transform="translate(45.690477 0) scale(0.996264)"/>
      </g>
     </g>
    </g>
    <g id="ytick_3">
     <g id="line2d_9">
      <g>
       <use xlink:href="#m41947152b2" x="39.668313" y="81.659692" style="stroke: #000000; stroke-width: 0.8"/>
      </g>
     </g>
     <g id="text_10">
      <!-- $\mathdefault{20}$ -->
      <g transform="translate(22.705642 85.118941) scale(0.1 -0.1)">
       <use xlink:href="#CMR17-32" transform="scale(0.996264)"/>
       <use xlink:href="#CMR17-30" transform="translate(45.690477 0) scale(0.996264)"/>
      </g>
     </g>
    </g>
    <g id="ytick_4">
     <g id="line2d_10">
      <g>
       <use xlink:href="#m41947152b2" x="39.668313" y="59.335289" style="stroke: #000000; stroke-width: 0.8"/>
      </g>
     </g>
     <g id="text_11">
      <!-- $\mathdefault{30}$ -->
      <g transform="translate(22.705642 62.794538) scale(0.1 -0.1)">
       <defs>
        <path id="CMR17-33" d="M 1414 2157 
C 1984 2157 2234 1662 2234 1090 
C 2234 320 1824 25 1453 25 
C 1114 25 563 194 390 693 
C 422 680 454 680 486 680 
C 640 680 755 782 755 948 
C 755 1133 614 1216 486 1216 
C 378 1216 211 1165 211 926 
C 211 335 787 -128 1466 -128 
C 2176 -128 2720 430 2720 1085 
C 2720 1707 2208 2157 1600 2227 
C 2086 2328 2554 2756 2554 3329 
C 2554 3820 2048 4179 1472 4179 
C 890 4179 378 3829 378 3329 
C 378 3110 544 3072 627 3072 
C 762 3072 877 3155 877 3321 
C 877 3486 762 3569 627 3569 
C 602 3569 570 3569 544 3557 
C 730 3959 1235 4032 1459 4032 
C 1683 4032 2106 3925 2106 3320 
C 2106 3143 2080 2828 1862 2550 
C 1670 2304 1453 2304 1242 2284 
C 1210 2284 1062 2269 1037 2269 
C 992 2263 966 2257 966 2208 
C 966 2163 973 2157 1101 2157 
L 1414 2157 
z
" transform="scale(0.015625)"/>
       </defs>
       <use xlink:href="#CMR17-33" transform="scale(0.996264)"/>
       <use xlink:href="#CMR17-30" transform="translate(45.690477 0) scale(0.996264)"/>
      </g>
     </g>
    </g>
    <g id="ytick_5">
     <g id="line2d_11">
      <g>
       <use xlink:href="#m41947152b2" x="39.668313" y="37.010886" style="stroke: #000000; stroke-width: 0.8"/>
      </g>
     </g>
     <g id="text_12">
      <!-- $\mathdefault{40}$ -->
      <g transform="translate(22.705642 40.470135) scale(0.1 -0.1)">
       <defs>
        <path id="CMR17-34" d="M 2150 4122 
C 2150 4256 2144 4256 2029 4256 
L 128 1254 
L 128 1088 
L 1779 1088 
L 1779 457 
C 1779 224 1766 160 1318 160 
L 1197 160 
L 1197 0 
C 1402 0 1747 0 1965 0 
C 2182 0 2528 0 2733 0 
L 2733 160 
L 2611 160 
C 2163 160 2150 224 2150 457 
L 2150 1088 
L 2803 1088 
L 2803 1254 
L 2150 1254 
L 2150 4122 
z
M 1798 3703 
L 1798 1254 
L 256 1254 
L 1798 3703 
z
" transform="scale(0.015625)"/>
       </defs>
       <use xlink:href="#CMR17-34" transform="scale(0.996264)"/>
       <use xlink:href="#CMR17-30" transform="translate(45.690477 0) scale(0.996264)"/>
      </g>
     </g>
    </g>
    <g id="ytick_6">
     <g id="line2d_12">
      <g>
       <use xlink:href="#m41947152b2" x="39.668313" y="14.686483" style="stroke: #000000; stroke-width: 0.8"/>
      </g>
     </g>
     <g id="text_13">
      <!-- $\mathdefault{50}$ -->
      <g transform="translate(22.705642 18.145732) scale(0.1 -0.1)">
       <use xlink:href="#CMR17-35" transform="scale(0.996264)"/>
       <use xlink:href="#CMR17-30" transform="translate(45.690477 0) scale(0.996264)"/>
      </g>
     </g>
    </g>
    <g id="text_14">
     <!-- $\frac{\left&lt; U \right&gt; / L}{\varepsilon_0 E_0^2 a^2}$ -->
     <g transform="translate(13.062482 79.082049) rotate(-90) scale(0.1 -0.1)">
      <defs>
       <path id="CMSY10-68" d="M 2099 4557 
C 2131 4627 2131 4640 2131 4672 
C 2131 4742 2074 4800 2003 4800 
C 1946 4800 1901 4768 1856 4653 
L 736 1715 
C 723 1677 704 1638 704 1600 
C 704 1581 704 1568 736 1491 
L 1856 -1446 
C 1882 -1517 1914 -1600 2003 -1600 
C 2074 -1600 2131 -1542 2131 -1472 
C 2131 -1453 2131 -1440 2099 -1370 
L 966 1600 
L 2099 4557 
z
" transform="scale(0.015625)"/>
       <path id="CMMI12-55" d="M 3238 1474 
C 3014 581 2272 57 1670 57 
C 1210 57 896 363 896 891 
C 896 916 896 1107 966 1387 
L 1594 3887 
C 1651 4103 1664 4167 2118 4167 
C 2234 4167 2298 4167 2298 4282 
C 2298 4352 2240 4352 2202 4352 
C 2086 4352 1952 4352 1830 4352 
L 1075 4352 
C 954 4352 819 4352 698 4352 
C 653 4352 576 4352 576 4231 
C 576 4167 621 4167 742 4167 
C 1126 4167 1126 4116 1126 4046 
C 1126 4008 1082 3824 1050 3715 
L 493 1488 
C 474 1418 435 1246 435 1075 
C 435 374 941 -128 1638 -128 
C 2285 -128 3002 384 3328 1197 
C 3373 1305 3430 1530 3469 1702 
C 3533 1933 3667 2496 3712 2662 
L 3955 3623 
C 4038 3956 4090 4167 4653 4167 
C 4704 4173 4730 4224 4730 4282 
C 4730 4352 4672 4352 4646 4352 
C 4557 4352 4442 4352 4352 4352 
L 4051 4352 
C 3654 4352 3450 4352 3443 4352 
C 3405 4352 3328 4352 3328 4231 
C 3328 4167 3379 4167 3424 4167 
C 3808 4167 3834 4020 3834 3905 
C 3834 3848 3834 3828 3808 3739 
L 3238 1474 
z
" transform="scale(0.015625)"/>
       <path id="CMSY10-69" d="M 1747 1491 
C 1779 1568 1779 1581 1779 1600 
C 1779 1619 1779 1632 1747 1709 
L 627 4653 
C 589 4762 550 4800 480 4800 
C 410 4800 352 4742 352 4672 
C 352 4653 352 4640 384 4570 
L 1517 1600 
L 384 -1357 
C 352 -1427 352 -1440 352 -1472 
C 352 -1542 410 -1600 480 -1600 
C 563 -1600 589 -1536 614 -1472 
L 1747 1491 
z
" transform="scale(0.015625)"/>
       <path id="CMMI12-4c" d="M 2349 3861 
C 2406 4103 2426 4167 2989 4167 
C 3162 4167 3206 4167 3206 4288 
C 3206 4352 3136 4352 3110 4352 
C 2982 4352 2835 4352 2707 4352 
L 1850 4352 
C 1728 4352 1587 4352 1466 4352 
C 1414 4352 1344 4352 1344 4231 
C 1344 4167 1402 4167 1498 4167 
C 1888 4167 1888 4116 1888 4046 
C 1888 4034 1888 3995 1862 3899 
L 998 472 
C 941 249 928 185 480 185 
C 358 185 294 185 294 70 
C 294 0 333 0 461 0 
L 3328 0 
C 3469 0 3475 6 3520 121 
L 4013 1478 
C 4026 1510 4038 1548 4038 1567 
C 4038 1605 4006 1631 3974 1631 
C 3968 1631 3936 1631 3923 1605 
C 3910 1599 3910 1586 3859 1465 
C 3654 905 3366 185 2285 185 
L 1670 185 
C 1581 185 1568 185 1530 192 
C 1459 198 1453 211 1453 262 
C 1453 307 1466 345 1478 401 
L 2349 3861 
z
" transform="scale(0.015625)"/>
       <path id="CMMI12-22" d="M 890 1427 
C 1094 1345 1312 1345 1434 1345 
C 1600 1345 1933 1345 1933 1550 
C 1933 1678 1811 1728 1485 1728 
C 1325 1728 1133 1709 909 1613 
C 710 1708 634 1852 634 1990 
C 634 2379 1261 2606 1830 2606 
C 1939 2606 2170 2606 2438 2411 
C 2477 2387 2496 2367 2541 2367 
C 2618 2367 2701 2449 2701 2526 
C 2701 2639 2330 2880 1888 2880 
C 1171 2880 493 2449 493 1972 
C 493 1734 646 1586 755 1509 
C 384 1301 166 961 166 652 
C 166 219 563 -128 1178 -128 
C 2022 -128 2362 424 2362 512 
C 2362 543 2336 568 2304 568 
C 2272 568 2259 549 2234 512 
C 2163 395 1997 146 1235 146 
C 838 146 314 245 314 686 
C 314 898 474 1214 890 1427 
z
M 1088 1518 
C 1261 1600 1427 1600 1472 1600 
C 1651 1600 1683 1583 1786 1545 
C 1677 1472 1664 1472 1434 1472 
C 1318 1472 1216 1472 1088 1518 
z
" transform="scale(0.015625)"/>
       <path id="CMMI12-45" d="M 4448 1489 
C 4454 1508 4474 1554 4474 1579 
C 4474 1611 4448 1643 4410 1643 
C 4384 1643 4371 1637 4352 1617 
C 4339 1611 4339 1598 4282 1469 
C 3904 570 3629 185 2605 185 
L 1670 185 
C 1581 185 1568 185 1530 192 
C 1459 198 1453 211 1453 262 
C 1453 307 1466 345 1478 403 
L 1920 2176 
L 2554 2176 
C 3053 2176 3091 2066 3091 1874 
C 3091 1810 3091 1752 3046 1560 
C 3034 1534 3027 1508 3027 1489 
C 3027 1444 3059 1425 3098 1425 
C 3155 1425 3162 1469 3187 1559 
L 3552 3042 
C 3552 3073 3526 3105 3488 3105 
C 3430 3105 3424 3080 3398 2990 
C 3270 2501 3142 2361 2573 2361 
L 1965 2361 
L 2362 3930 
C 2419 4154 2432 4154 2694 4154 
L 3610 4154 
C 4397 4154 4557 3943 4557 3458 
C 4557 3451 4557 3273 4531 3062 
C 4525 3036 4518 2998 4518 2985 
C 4518 2934 4550 2915 4589 2915 
C 4634 2915 4659 2941 4672 3055 
L 4806 4174 
C 4806 4195 4819 4263 4819 4277 
C 4819 4352 4762 4352 4646 4352 
L 1523 4352 
C 1402 4352 1338 4352 1338 4229 
C 1338 4154 1382 4154 1491 4154 
C 1888 4154 1888 4114 1888 4052 
C 1888 4020 1882 3994 1862 3924 
L 998 473 
C 941 249 928 185 480 185 
C 358 185 294 185 294 70 
C 294 0 333 0 461 0 
L 3674 0 
C 3814 0 3821 6 3866 110 
L 4448 1489 
z
" transform="scale(0.015625)"/>
       <path id="CMMI12-61" d="M 1926 760 
C 1894 651 1894 639 1805 517 
C 1664 338 1382 64 1082 64 
C 819 64 672 300 672 677 
C 672 1028 870 1743 992 2012 
C 1210 2459 1510 2689 1760 2689 
C 2182 2689 2266 2165 2266 2114 
C 2266 2108 2246 2024 2240 2012 
L 1926 760 
z
M 2336 2395 
C 2266 2561 2093 2816 1760 2816 
C 1037 2816 256 1884 256 939 
C 256 307 627 -64 1062 -64 
C 1414 -64 1715 211 1894 422 
C 1958 45 2259 -64 2451 -64 
C 2643 -64 2797 51 2912 281 
C 3014 498 3104 888 3104 913 
C 3104 945 3078 971 3040 971 
C 2982 971 2976 939 2950 843 
C 2854 466 2733 64 2470 64 
C 2285 64 2272 230 2272 358 
C 2272 505 2291 575 2349 824 
C 2394 984 2426 1124 2477 1309 
C 2714 2267 2771 2497 2771 2535 
C 2771 2625 2701 2695 2605 2695 
C 2400 2695 2349 2472 2336 2395 
z
" transform="scale(0.015625)"/>
      </defs>
      <use xlink:href="#CMSY10-68" transform="translate(1.98137 48.318576) scale(0.697382)"/>
      <use xlink:href="#CMMI12-55" transform="translate(29.101867 48.318576) scale(0.697382)"/>
      <use xlink:href="#CMSY10-69" transform="translate(82.762775 48.318576) scale(0.697382)"/>
      <use xlink:href="#CMMI12-3d" transform="translate(109.883272 48.318576) scale(0.697382)"/>
      <use xlink:href="#CMMI12-4c" transform="translate(144.025563 48.318576) scale(0.697382)"/>
      <use xlink:href="#CMMI12-22" transform="translate(0 -37.201863) scale(0.697382)"/>
      <use xlink:href="#CMR17-30" transform="translate(31.954983 -47.662559) scale(0.498132)"/>
      <use xlink:href="#CMMI12-45" transform="translate(55.298353 -37.201863) scale(0.697382)"/>
      <use xlink:href="#CMR17-32" transform="translate(109.934258 -13.180964) scale(0.498132)"/>
      <use xlink:href="#CMR17-30" transform="translate(105.845982 -56.448915) scale(0.498132)"/>
      <use xlink:href="#CMMI12-61" transform="translate(133.277629 -37.201863) scale(0.697382)"/>
      <use xlink:href="#CMR17-32" transform="translate(169.122976 -17.05529) scale(0.498132)"/>
      <path d="M 0 22.914133 
L 192.466346 22.914133 
L 192.466346 26.899083 
L 0 26.899083 
L 0 22.914133 
z
"/>
     </g>
    </g>
   </g>
   <g id="line2d_13">
    <path d="M 48.692469 122.965734 
L 50.480496 37.163882 
L 50.574603 34.70284 
L 50.641822 34.914029 
L 50.661987 34.986955 
L 50.709041 34.658935 
L 50.951029 33.686782 
L 51.582888 32.473972 
L 52.201304 31.53337 
L 52.497067 31.360282 
L 52.786109 31.23839 
L 54.480029 30.026026 
L 54.83629 30.120087 
L 55.367321 30.278292 
L 57.262898 30.473407 
L 58.358568 30.554966 
L 65.356071 30.510615 
L 66.740783 30.546632 
L 66.740783 30.546632 
" clip-path="url(#pef19c4e5f2)" style="fill: none; stroke: #1f77b4; stroke-linecap: square"/>
   </g>
   <g id="line2d_14">
    <path d="M 48.692469 123.200894 
L 51.771102 42.753838 
L 52.678559 22.252595 
L 52.7525 22.065628 
L 53.216311 20.192239 
L 54.083437 17.984355 
L 54.816124 16.713724 
L 55.232882 16.136081 
L 55.884907 15.513974 
L 56.718423 15.08981 
L 60.240701 15.27101 
L 61.732964 15.217245 
L 66.290415 15.484208 
L 67.513802 15.441233 
L 69.853025 15.422816 
L 72.125028 15.562715 
L 84.789096 15.646246 
L 84.789096 15.646246 
" clip-path="url(#pef19c4e5f2)" style="fill: none; stroke: #ff7f0e; stroke-linecap: square"/>
   </g>
   <g id="line2d_15">
    <path d="M 48.692469 123.295325 
L 52.624784 53.452946 
L 54.72874 19.590961 
L 54.883343 19.144032 
L 55.105166 18.489955 
L 55.548812 17.193541 
L 56.10673 15.870778 
L 56.67137 14.997867 
L 57.303229 14.37791 
L 58.183798 13.746046 
L 60.536465 13.364878 
L 61.32965 13.258603 
L 62.270716 13.0471 
L 63.077345 12.94314 
L 65.127526 12.764765 
L 66.566013 12.687759 
L 67.910394 12.831959 
L 70.545381 13.151831 
L 74.497861 13.202874 
L 81.085327 13.037784 
L 89.985128 12.929965 
L 100.538518 12.991978 
L 102.83741 13.001734 
L 102.83741 13.001734 
" clip-path="url(#pef19c4e5f2)" style="fill: none; stroke: #2ca02c; stroke-linecap: square"/>
   </g>
   <g id="line2d_16">
    <path d="M 48.692469 123.346472 
L 53.478465 58.998562 
L 56.731867 18.714386 
L 57.451111 17.108843 
L 58.062804 15.71294 
L 58.768604 14.570954 
L 59.622286 13.71265 
L 60.334808 13.287161 
L 61.4372 12.815674 
L 62.727806 12.823953 
L 64.300732 12.80035 
L 67.036547 12.290679 
L 67.937282 12.155523 
L 70.646209 11.838121 
L 72.575396 11.689664 
L 74.504582 11.740452 
L 78.188186 11.909769 
L 82.873353 11.972184 
L 86.012483 12.045506 
L 90.408608 12.040948 
L 102.400486 11.778613 
L 120.885723 11.570438 
L 120.885723 11.570438 
" clip-path="url(#pef19c4e5f2)" style="fill: none; stroke: #d62728; stroke-linecap: square"/>
   </g>
   <g id="line2d_17">
    <path d="M 48.692469 123.378538 
L 54.311982 62.610904 
L 58.728273 18.366973 
L 59.810499 16.374922 
L 60.193648 15.690188 
L 60.704513 14.827097 
L 61.571638 13.859825 
L 62.418598 13.215691 
L 63.426884 12.73789 
L 64.549442 12.34117 
L 66.51896 12.416537 
L 67.970891 12.484642 
L 69.201 12.417371 
L 71.358731 11.999458 
L 73.005598 11.70549 
L 80.587906 11.011231 
L 84.688268 10.972773 
L 89.924631 10.805727 
L 102.97857 10.925862 
L 128.85118 10.356501 
L 138.934036 10.03884 
L 138.934036 10.03884 
" clip-path="url(#pef19c4e5f2)" style="fill: none; stroke: #9467bd; stroke-linecap: square"/>
   </g>
   <g id="line2d_18">
    <path d="M 48.692469 123.400512 
L 55.132054 65.160594 
L 60.717956 18.183904 
L 61.181768 17.473932 
L 61.880846 16.384791 
L 62.391711 15.611085 
L 64.199903 13.561925 
L 65.194745 12.954619 
L 66.666842 12.412494 
L 67.836453 12.11077 
L 68.88507 12.135506 
L 72.125028 12.223632 
L 73.704676 12.113044 
L 75.27088 11.873677 
L 77.74454 11.479968 
L 81.481919 11.055391 
L 89.971685 10.731274 
L 93.346081 10.655067 
L 98.508503 10.554194 
L 109.660143 10.671742 
L 133.717839 10.560671 
L 156.98235 10.089034 
L 156.98235 10.089034 
" clip-path="url(#pef19c4e5f2)" style="fill: none; stroke: #8c564b; stroke-linecap: square"/>
   </g>
   <g id="line2d_19">
    <path d="M 48.692469 123.416497 
L 55.952126 66.995792 
L 62.70764 18.09103 
L 63.151286 17.45319 
L 64.078909 16.251794 
L 64.643549 15.50448 
L 65.006531 15.016511 
L 66.283693 13.740917 
L 67.654962 12.936675 
L 69.301828 12.386483 
L 70.868032 11.986163 
L 72.615727 11.995578 
L 76.265721 12.073074 
L 78.994815 11.838765 
L 88.452534 10.790712 
L 95.416427 10.542344 
L 100.538518 10.431265 
L 104.242288 10.327171 
L 123.265277 10.438251 
L 133.280915 10.456561 
L 164.719262 10.142545 
L 175.030663 9.977574 
L 175.030663 9.977574 
" clip-path="url(#pef19c4e5f2)" style="fill: none; stroke: #e377c2; stroke-linecap: square"/>
   </g>
   <g id="line2d_20">
    <path d="M 48.692469 123.42867 
L 56.765477 68.423327 
L 63.937749 21.486182 
L 64.448613 18.762227 
L 64.791431 17.893871 
L 66.135811 16.341105 
L 66.62651 15.77721 
L 67.944004 14.312694 
L 69.053118 13.499394 
L 70.639487 12.7349 
L 71.842708 12.390528 
L 73.913055 11.879392 
L 74.719683 11.858114 
L 81.199599 11.971219 
L 82.617921 11.84204 
L 91.82693 10.799101 
L 95.04 10.618848 
L 101.257762 10.353659 
L 110.406274 10.04478 
L 114.567133 9.957808 
L 124.455054 9.975132 
L 129.046115 9.927228 
L 143.773808 9.943622 
L 155.328761 9.904787 
L 172.819157 9.718111 
L 193.078977 9.387227 
L 193.078977 9.387227 
" clip-path="url(#pef19c4e5f2)" style="fill: none; stroke: #7f7f7f; stroke-linecap: square"/>
   </g>
   <g id="line2d_21">
    <path d="M 48.692469 123.438227 
L 57.572105 69.575259 
L 65.38968 24.125836 
L 66.350912 18.9537 
L 66.754227 17.897869 
L 67.339032 17.265109 
L 67.863341 16.734897 
L 68.488478 16.094278 
L 69.147225 15.397638 
L 69.73203 14.814774 
L 71.224293 13.625915 
L 72.790497 12.881789 
L 74.020605 12.496935 
L 78.161298 11.817057 
L 85.165523 11.897494 
L 87.672793 11.679721 
L 97.984195 10.695059 
L 107.294032 10.301161 
L 123.446769 9.872557 
L 150.374718 9.820069 
L 159.80555 9.766294 
L 211.12729 9.101237 
L 211.12729 9.101237 
" clip-path="url(#pef19c4e5f2)" style="fill: none; stroke: #bcbd22; stroke-linecap: square"/>
   </g>
   <g id="line2d_22">
    <path d="M 48.692469 123.445934 
L 58.378734 70.499872 
L 67.177707 24.485764 
L 68.246489 19.157956 
L 68.696857 17.95412 
L 69.073284 17.570081 
L 71.546944 15.271828 
L 72.219135 14.645004 
L 73.213977 13.885066 
L 74.222262 13.350516 
L 76.238834 12.596159 
L 78.725938 12.06091 
L 80.924001 11.760259 
L 88.069386 11.87078 
L 91.15474 11.705356 
L 100.518353 10.801143 
L 106.487404 10.489286 
L 109.72064 10.356754 
L 113.928552 10.19773 
L 134.954669 9.703587 
L 146.106308 9.592485 
L 171.320172 9.480253 
L 187.029263 9.369152 
L 211.994416 9.036995 
L 229.175603 8.735749 
L 229.175603 8.735749 
" clip-path="url(#pef19c4e5f2)" style="fill: none; stroke: #17becf; stroke-linecap: square"/>
   </g>
   <g id="patch_3">
    <path d="M 39.668313 129.181443 
L 39.668313 3.00024 
" style="fill: none; stroke: #000000; stroke-width: 0.8; stroke-linejoin: miter; stroke-linecap: square"/>
   </g>
   <g id="patch_4">
    <path d="M 238.19976 129.181443 
L 238.19976 3.00024 
" style="fill: none; stroke: #000000; stroke-width: 0.8; stroke-linejoin: miter; stroke-linecap: square"/>
   </g>
   <g id="patch_5">
    <path d="M 39.668313 129.181443 
L 238.19976 129.181443 
" style="fill: none; stroke: #000000; stroke-width: 0.8; stroke-linejoin: miter; stroke-linecap: square"/>
   </g>
   <g id="patch_6">
    <path d="M 39.668313 3.00024 
L 238.19976 3.00024 
" style="fill: none; stroke: #000000; stroke-width: 0.8; stroke-linejoin: miter; stroke-linecap: square"/>
   </g>
   <g id="legend_1">
    <g id="patch_7">
     <path d="M 55.129512 124.181443 
L 231.19976 124.181443 
Q 233.19976 124.181443 233.19976 122.181443 
L 233.19976 48.368243 
Q 233.19976 46.368243 231.19976 46.368243 
L 55.129512 46.368243 
Q 53.129512 46.368243 53.129512 48.368243 
L 53.129512 122.181443 
Q 53.129512 124.181443 55.129512 124.181443 
z
" style="fill: #ffffff; opacity: 0.8; stroke: #cccccc; stroke-linejoin: miter"/>
    </g>
    <g id="line2d_23">
     <path d="M 57.129512 54.340223 
L 67.129512 54.340223 
L 77.129512 54.340223 
" style="fill: none; stroke: #1f77b4; stroke-linecap: square"/>
    </g>
    <g id="text_15">
     <!-- $\lambda / \Delta x = 5$ -->
     <g transform="translate(85.129512 57.840223) scale(0.1 -0.1)">
      <defs>
       <path id="CMMI12-15" d="M 1978 3965 
C 1818 4416 1312 4416 1229 4416 
C 1190 4416 1120 4416 1120 4352 
C 1120 4302 1158 4295 1190 4289 
C 1286 4276 1363 4263 1466 4080 
C 1530 3959 2189 2059 2189 2046 
C 2189 2040 2182 2033 2131 1982 
L 467 311 
C 390 234 339 183 339 102 
C 339 12 416 -64 518 -64 
C 544 -64 614 -51 653 -13 
C 755 82 1670 1194 2253 1881 
C 2419 1383 2624 797 2822 261 
C 2854 166 2886 76 2976 -6 
C 3040 -64 3053 -64 3232 -64 
L 3354 -64 
C 3379 -64 3424 -64 3424 -13 
C 3424 13 3418 19 3392 45 
C 3334 115 3290 229 3264 306 
L 1978 3965 
z
" transform="scale(0.015625)"/>
       <path id="CMMI12-78" d="M 3034 2606 
C 2829 2567 2752 2414 2752 2293 
C 2752 2139 2874 2088 2963 2088 
C 3155 2088 3290 2254 3290 2427 
C 3290 2695 2982 2816 2714 2816 
C 2323 2816 2106 2433 2048 2312 
C 1901 2816 1504 2816 1389 2816 
C 736 2816 390 1980 390 1839 
C 390 1814 416 1782 461 1782 
C 512 1782 525 1820 538 1846 
C 755 2555 1184 2689 1370 2689 
C 1658 2689 1715 2420 1715 2267 
C 1715 2127 1677 1980 1600 1673 
L 1382 798 
C 1286 415 1101 64 762 64 
C 730 64 570 64 435 147 
C 666 192 717 383 717 460 
C 717 588 621 664 499 664 
C 346 664 179 530 179 326 
C 179 57 480 -64 755 -64 
C 1062 -64 1280 179 1414 441 
C 1517 64 1837 -64 2074 -64 
C 2726 -64 3072 773 3072 913 
C 3072 945 3046 971 3008 971 
C 2950 971 2944 939 2925 888 
C 2752 326 2381 64 2093 64 
C 1869 64 1747 230 1747 492 
C 1747 632 1773 734 1875 1156 
L 2099 2024 
C 2195 2408 2413 2689 2707 2689 
C 2720 2689 2899 2689 3034 2606 
z
" transform="scale(0.015625)"/>
       <path id="CMR17-3d" d="M 4115 2017 
C 4211 2017 4307 2017 4307 2125 
C 4307 2240 4198 2240 4090 2240 
L 512 2240 
C 403 2240 294 2240 294 2125 
C 294 2017 390 2017 486 2017 
L 4115 2017 
z
M 4090 896 
C 4198 896 4307 896 4307 1011 
C 4307 1119 4211 1119 4115 1119 
L 486 1119 
C 390 1119 294 1119 294 1011 
C 294 896 403 896 512 896 
L 4090 896 
z
" transform="scale(0.015625)"/>
      </defs>
      <use xlink:href="#CMMI12-15" transform="scale(0.996264)"/>
      <use xlink:href="#CMMI12-3d" transform="translate(56.904072 0) scale(0.996264)"/>
      <use xlink:href="#CMR17-1" transform="translate(105.678991 0) scale(0.996264)"/>
      <use xlink:href="#CMMI12-78" transform="translate(182.598581 0) scale(0.996264)"/>
      <use xlink:href="#CMR17-3d" transform="translate(265.706649 0) scale(0.996264)"/>
      <use xlink:href="#CMR17-35" transform="translate(365.095446 0) scale(0.996264)"/>
     </g>
    </g>
    <g id="line2d_24">
     <path d="M 57.129512 69.302863 
L 67.129512 69.302863 
L 77.129512 69.302863 
" style="fill: none; stroke: #ff7f0e; stroke-linecap: square"/>
    </g>
    <g id="text_16">
     <!-- $\lambda / \Delta x = 10$ -->
     <g transform="translate(85.129512 72.802863) scale(0.1 -0.1)">
      <use xlink:href="#CMMI12-15" transform="scale(0.996264)"/>
      <use xlink:href="#CMMI12-3d" transform="translate(56.904072 0) scale(0.996264)"/>
      <use xlink:href="#CMR17-1" transform="translate(105.678991 0) scale(0.996264)"/>
      <use xlink:href="#CMMI12-78" transform="translate(182.598581 0) scale(0.996264)"/>
      <use xlink:href="#CMR17-3d" transform="translate(265.706649 0) scale(0.996264)"/>
      <use xlink:href="#CMR17-31" transform="translate(365.095446 0) scale(0.996264)"/>
      <use xlink:href="#CMR17-30" transform="translate(410.785923 0) scale(0.996264)"/>
     </g>
    </g>
    <g id="line2d_25">
     <path d="M 57.129512 84.265503 
L 67.129512 84.265503 
L 77.129512 84.265503 
" style="fill: none; stroke: #2ca02c; stroke-linecap: square"/>
    </g>
    <g id="text_17">
     <!-- $\lambda / \Delta x = 15$ -->
     <g transform="translate(85.129512 87.765503) scale(0.1 -0.1)">
      <use xlink:href="#CMMI12-15" transform="scale(0.996264)"/>
      <use xlink:href="#CMMI12-3d" transform="translate(56.904072 0) scale(0.996264)"/>
      <use xlink:href="#CMR17-1" transform="translate(105.678991 0) scale(0.996264)"/>
      <use xlink:href="#CMMI12-78" transform="translate(182.598581 0) scale(0.996264)"/>
      <use xlink:href="#CMR17-3d" transform="translate(265.706649 0) scale(0.996264)"/>
      <use xlink:href="#CMR17-31" transform="translate(365.095446 0) scale(0.996264)"/>
      <use xlink:href="#CMR17-35" transform="translate(410.785923 0) scale(0.996264)"/>
     </g>
    </g>
    <g id="line2d_26">
     <path d="M 57.129512 99.228143 
L 67.129512 99.228143 
L 77.129512 99.228143 
" style="fill: none; stroke: #d62728; stroke-linecap: square"/>
    </g>
    <g id="text_18">
     <!-- $\lambda / \Delta x = 20$ -->
     <g transform="translate(85.129512 102.728143) scale(0.1 -0.1)">
      <use xlink:href="#CMMI12-15" transform="scale(0.996264)"/>
      <use xlink:href="#CMMI12-3d" transform="translate(56.904072 0) scale(0.996264)"/>
      <use xlink:href="#CMR17-1" transform="translate(105.678991 0) scale(0.996264)"/>
      <use xlink:href="#CMMI12-78" transform="translate(182.598581 0) scale(0.996264)"/>
      <use xlink:href="#CMR17-3d" transform="translate(265.706649 0) scale(0.996264)"/>
      <use xlink:href="#CMR17-32" transform="translate(365.095446 0) scale(0.996264)"/>
      <use xlink:href="#CMR17-30" transform="translate(410.785923 0) scale(0.996264)"/>
     </g>
    </g>
    <g id="line2d_27">
     <path d="M 57.129512 114.190783 
L 67.129512 114.190783 
L 77.129512 114.190783 
" style="fill: none; stroke: #9467bd; stroke-linecap: square"/>
    </g>
    <g id="text_19">
     <!-- $\lambda / \Delta x = 25$ -->
     <g transform="translate(85.129512 117.690783) scale(0.1 -0.1)">
      <use xlink:href="#CMMI12-15" transform="scale(0.996264)"/>
      <use xlink:href="#CMMI12-3d" transform="translate(56.904072 0) scale(0.996264)"/>
      <use xlink:href="#CMR17-1" transform="translate(105.678991 0) scale(0.996264)"/>
      <use xlink:href="#CMMI12-78" transform="translate(182.598581 0) scale(0.996264)"/>
      <use xlink:href="#CMR17-3d" transform="translate(265.706649 0) scale(0.996264)"/>
      <use xlink:href="#CMR17-32" transform="translate(365.095446 0) scale(0.996264)"/>
      <use xlink:href="#CMR17-35" transform="translate(410.785923 0) scale(0.996264)"/>
     </g>
    </g>
    <g id="line2d_28">
     <path d="M 153.164636 54.340223 
L 163.164636 54.340223 
L 173.164636 54.340223 
" style="fill: none; stroke: #8c564b; stroke-linecap: square"/>
    </g>
    <g id="text_20">
     <!-- $\lambda / \Delta x = 30$ -->
     <g transform="translate(181.164636 57.840223) scale(0.1 -0.1)">
      <use xlink:href="#CMMI12-15" transform="scale(0.996264)"/>
      <use xlink:href="#CMMI12-3d" transform="translate(56.904072 0) scale(0.996264)"/>
      <use xlink:href="#CMR17-1" transform="translate(105.678991 0) scale(0.996264)"/>
      <use xlink:href="#CMMI12-78" transform="translate(182.598581 0) scale(0.996264)"/>
      <use xlink:href="#CMR17-3d" transform="translate(265.706649 0) scale(0.996264)"/>
      <use xlink:href="#CMR17-33" transform="translate(365.095446 0) scale(0.996264)"/>
      <use xlink:href="#CMR17-30" transform="translate(410.785923 0) scale(0.996264)"/>
     </g>
    </g>
    <g id="line2d_29">
     <path d="M 153.164636 69.302863 
L 163.164636 69.302863 
L 173.164636 69.302863 
" style="fill: none; stroke: #e377c2; stroke-linecap: square"/>
    </g>
    <g id="text_21">
     <!-- $\lambda / \Delta x = 35$ -->
     <g transform="translate(181.164636 72.802863) scale(0.1 -0.1)">
      <use xlink:href="#CMMI12-15" transform="scale(0.996264)"/>
      <use xlink:href="#CMMI12-3d" transform="translate(56.904072 0) scale(0.996264)"/>
      <use xlink:href="#CMR17-1" transform="translate(105.678991 0) scale(0.996264)"/>
      <use xlink:href="#CMMI12-78" transform="translate(182.598581 0) scale(0.996264)"/>
      <use xlink:href="#CMR17-3d" transform="translate(265.706649 0) scale(0.996264)"/>
      <use xlink:href="#CMR17-33" transform="translate(365.095446 0) scale(0.996264)"/>
      <use xlink:href="#CMR17-35" transform="translate(410.785923 0) scale(0.996264)"/>
     </g>
    </g>
    <g id="line2d_30">
     <path d="M 153.164636 84.265503 
L 163.164636 84.265503 
L 173.164636 84.265503 
" style="fill: none; stroke: #7f7f7f; stroke-linecap: square"/>
    </g>
    <g id="text_22">
     <!-- $\lambda / \Delta x = 40$ -->
     <g transform="translate(181.164636 87.765503) scale(0.1 -0.1)">
      <use xlink:href="#CMMI12-15" transform="scale(0.996264)"/>
      <use xlink:href="#CMMI12-3d" transform="translate(56.904072 0) scale(0.996264)"/>
      <use xlink:href="#CMR17-1" transform="translate(105.678991 0) scale(0.996264)"/>
      <use xlink:href="#CMMI12-78" transform="translate(182.598581 0) scale(0.996264)"/>
      <use xlink:href="#CMR17-3d" transform="translate(265.706649 0) scale(0.996264)"/>
      <use xlink:href="#CMR17-34" transform="translate(365.095446 0) scale(0.996264)"/>
      <use xlink:href="#CMR17-30" transform="translate(410.785923 0) scale(0.996264)"/>
     </g>
    </g>
    <g id="line2d_31">
     <path d="M 153.164636 99.228143 
L 163.164636 99.228143 
L 173.164636 99.228143 
" style="fill: none; stroke: #bcbd22; stroke-linecap: square"/>
    </g>
    <g id="text_23">
     <!-- $\lambda / \Delta x = 45$ -->
     <g transform="translate(181.164636 102.728143) scale(0.1 -0.1)">
      <use xlink:href="#CMMI12-15" transform="scale(0.996264)"/>
      <use xlink:href="#CMMI12-3d" transform="translate(56.904072 0) scale(0.996264)"/>
      <use xlink:href="#CMR17-1" transform="translate(105.678991 0) scale(0.996264)"/>
      <use xlink:href="#CMMI12-78" transform="translate(182.598581 0) scale(0.996264)"/>
      <use xlink:href="#CMR17-3d" transform="translate(265.706649 0) scale(0.996264)"/>
      <use xlink:href="#CMR17-34" transform="translate(365.095446 0) scale(0.996264)"/>
      <use xlink:href="#CMR17-35" transform="translate(410.785923 0) scale(0.996264)"/>
     </g>
    </g>
    <g id="line2d_32">
     <path d="M 153.164636 114.190783 
L 163.164636 114.190783 
L 173.164636 114.190783 
" style="fill: none; stroke: #17becf; stroke-linecap: square"/>
    </g>
    <g id="text_24">
     <!-- $\lambda / \Delta x = 50$ -->
     <g transform="translate(181.164636 117.690783) scale(0.1 -0.1)">
      <use xlink:href="#CMMI12-15" transform="scale(0.996264)"/>
      <use xlink:href="#CMMI12-3d" transform="translate(56.904072 0) scale(0.996264)"/>
      <use xlink:href="#CMR17-1" transform="translate(105.678991 0) scale(0.996264)"/>
      <use xlink:href="#CMMI12-78" transform="translate(182.598581 0) scale(0.996264)"/>
      <use xlink:href="#CMR17-3d" transform="translate(265.706649 0) scale(0.996264)"/>
      <use xlink:href="#CMR17-35" transform="translate(365.095446 0) scale(0.996264)"/>
      <use xlink:href="#CMR17-30" transform="translate(410.785923 0) scale(0.996264)"/>
     </g>
    </g>
   </g>
  </g>
 </g>
 <defs>
  <clipPath id="pef19c4e5f2">
   <rect x="39.668313" y="3.00024" width="198.531447" height="126.181203"/>
  </clipPath>
 </defs>
</svg>
