<?xml version="1.0" encoding="utf-8" standalone="no"?>
<!DOCTYPE svg PUBLIC "-//W3C//DTD SVG 1.1//EN"
  "http://www.w3.org/Graphics/SVG/1.1/DTD/svg11.dtd">
<svg xmlns:xlink="http://www.w3.org/1999/xlink" width="160.56pt" height="108pt" viewBox="0 0 160.56 108" xmlns="http://www.w3.org/2000/svg" version="1.1">
 <metadata>
  <rdf:RDF xmlns:dc="http://purl.org/dc/elements/1.1/" xmlns:cc="http://creativecommons.org/ns#" xmlns:rdf="http://www.w3.org/1999/02/22-rdf-syntax-ns#">
   <cc:Work>
    <dc:type rdf:resource="http://purl.org/dc/dcmitype/StillImage"/>
    <dc:date>2025-01-10T17:49:39.886251</dc:date>
    <dc:format>image/svg+xml</dc:format>
    <dc:creator>
     <cc:Agent>
      <dc:title>Matplotlib v3.6.3, https://matplotlib.org/</dc:title>
     </cc:Agent>
    </dc:creator>
   </cc:Work>
  </rdf:RDF>
 </metadata>
 <defs>
  <style type="text/css">*{stroke-linejoin: round; stroke-linecap: butt}</style>
 </defs>
 <g id="figure_1">
  <g id="patch_1">
   <path d="M 0 108 
L 160.56 108 
L 160.56 0 
L 0 0 
z
" style="fill: #ffffff"/>
  </g>
  <g id="axes_1">
   <g id="patch_2">
    <path d="M 30.160813 75.181443 
L 155.796077 75.181443 
L 155.796077 3.00024 
L 30.160813 3.00024 
z
" style="fill: #ffffff"/>
   </g>
   <g id="matplotlib.axis_1">
    <g id="xtick_1">
     <g id="line2d_1">
      <defs>
       <path id="m504cb5af54" d="M 0 0 
L 0 3.5 
" style="stroke: #000000; stroke-width: 0.8"/>
      </defs>
      <g>
       <use xlink:href="#m504cb5af54" x="35.871507" y="75.181443" style="stroke: #000000; stroke-width: 0.8"/>
      </g>
     </g>
     <g id="text_1">
      <!-- $\mathdefault{0}$ -->
      <g transform="translate(33.38084 89.099942) scale(0.1 -0.1)">
       <defs>
        <path id="CMR17-30" d="M 2688 2038 
C 2688 2430 2682 3099 2413 3613 
C 2176 4063 1798 4224 1466 4224 
C 1158 4224 768 4082 525 3620 
C 269 3137 243 2539 243 2038 
C 243 1671 250 1112 448 623 
C 723 -39 1216 -128 1466 -128 
C 1760 -128 2208 -7 2470 604 
C 2662 1048 2688 1568 2688 2038 
z
M 1466 -26 
C 1056 -26 813 328 723 816 
C 653 1196 653 1749 653 2109 
C 653 2604 653 3015 736 3407 
C 858 3954 1216 4121 1466 4121 
C 1728 4121 2067 3947 2189 3420 
C 2272 3054 2278 2623 2278 2109 
C 2278 1691 2278 1176 2202 797 
C 2067 96 1690 -26 1466 -26 
z
" transform="scale(0.015625)"/>
       </defs>
       <use xlink:href="#CMR17-30" transform="scale(0.996264)"/>
      </g>
     </g>
    </g>
    <g id="xtick_2">
     <g id="line2d_2">
      <g>
       <use xlink:href="#m504cb5af54" x="73.942799" y="75.181443" style="stroke: #000000; stroke-width: 0.8"/>
      </g>
     </g>
     <g id="text_2">
      <!-- $\mathdefault{120}$ -->
      <g transform="translate(66.470796 89.099942) scale(0.1 -0.1)">
       <defs>
        <path id="CMR17-31" d="M 1702 4083 
C 1702 4217 1696 4224 1606 4224 
C 1357 3927 979 3833 621 3820 
C 602 3820 570 3820 563 3808 
C 557 3795 557 3782 557 3648 
C 755 3648 1088 3686 1344 3839 
L 1344 467 
C 1344 243 1331 166 781 166 
L 589 166 
L 589 0 
C 896 6 1216 12 1523 12 
C 1830 12 2150 6 2458 0 
L 2458 166 
L 2266 166 
C 1715 166 1702 236 1702 467 
L 1702 4083 
z
" transform="scale(0.015625)"/>
        <path id="CMR17-32" d="M 2669 990 
L 2554 990 
C 2490 537 2438 460 2413 422 
C 2381 371 1920 371 1830 371 
L 602 371 
C 832 620 1280 1073 1824 1596 
C 2214 1966 2669 2400 2669 3033 
C 2669 3788 2067 4224 1395 4224 
C 691 4224 262 3603 262 3027 
C 262 2777 448 2745 525 2745 
C 589 2745 781 2783 781 3007 
C 781 3206 614 3264 525 3264 
C 486 3264 448 3257 422 3244 
C 544 3788 915 4057 1306 4057 
C 1862 4057 2227 3616 2227 3033 
C 2227 2477 1901 1998 1536 1583 
L 262 147 
L 262 0 
L 2515 0 
L 2669 990 
z
" transform="scale(0.015625)"/>
       </defs>
       <use xlink:href="#CMR17-31" transform="scale(0.996264)"/>
       <use xlink:href="#CMR17-32" transform="translate(45.690477 0) scale(0.996264)"/>
       <use xlink:href="#CMR17-30" transform="translate(91.380954 0) scale(0.996264)"/>
      </g>
     </g>
    </g>
    <g id="xtick_3">
     <g id="line2d_3">
      <g>
       <use xlink:href="#m504cb5af54" x="112.014091" y="75.181443" style="stroke: #000000; stroke-width: 0.8"/>
      </g>
     </g>
     <g id="text_3">
      <!-- $\mathdefault{240}$ -->
      <g transform="translate(104.542088 89.099942) scale(0.1 -0.1)">
       <defs>
        <path id="CMR17-34" d="M 2150 4147 
C 2150 4281 2144 4288 2029 4288 
L 128 1254 
L 128 1088 
L 1779 1088 
L 1779 460 
C 1779 230 1766 166 1318 166 
L 1197 166 
L 1197 0 
C 1402 12 1747 12 1965 12 
C 2182 12 2528 12 2733 0 
L 2733 166 
L 2611 166 
C 2163 166 2150 230 2150 460 
L 2150 1088 
L 2803 1088 
L 2803 1254 
L 2150 1254 
L 2150 4147 
z
M 1798 3723 
L 1798 1254 
L 256 1254 
L 1798 3723 
z
" transform="scale(0.015625)"/>
       </defs>
       <use xlink:href="#CMR17-32" transform="scale(0.996264)"/>
       <use xlink:href="#CMR17-34" transform="translate(45.690477 0) scale(0.996264)"/>
       <use xlink:href="#CMR17-30" transform="translate(91.380954 0) scale(0.996264)"/>
      </g>
     </g>
    </g>
    <g id="xtick_4">
     <g id="line2d_4">
      <g>
       <use xlink:href="#m504cb5af54" x="150.085383" y="75.181443" style="stroke: #000000; stroke-width: 0.8"/>
      </g>
     </g>
     <g id="text_4">
      <!-- $\mathdefault{360}$ -->
      <g transform="translate(142.61338 89.099942) scale(0.1 -0.1)">
       <defs>
        <path id="CMR17-33" d="M 1414 2176 
C 1984 2176 2234 1673 2234 1094 
C 2234 322 1824 25 1453 25 
C 1114 25 563 193 390 691 
C 422 678 454 678 486 678 
C 640 678 755 780 755 947 
C 755 1132 614 1216 486 1216 
C 378 1216 211 1164 211 927 
C 211 335 787 -128 1466 -128 
C 2176 -128 2720 432 2720 1087 
C 2720 1718 2208 2176 1600 2246 
C 2086 2347 2554 2776 2554 3353 
C 2554 3856 2048 4224 1472 4224 
C 890 4224 378 3862 378 3347 
C 378 3123 544 3084 627 3084 
C 762 3084 877 3167 877 3334 
C 877 3500 762 3584 627 3584 
C 602 3584 570 3584 544 3571 
C 730 3999 1235 4076 1459 4076 
C 1683 4076 2106 3966 2106 3347 
C 2106 3167 2080 2851 1862 2574 
C 1670 2329 1453 2316 1242 2297 
C 1210 2297 1062 2284 1037 2284 
C 992 2278 966 2272 966 2227 
C 966 2182 973 2176 1101 2176 
L 1414 2176 
z
" transform="scale(0.015625)"/>
        <path id="CMR17-36" d="M 678 2198 
C 678 3712 1395 4076 1811 4076 
C 1946 4076 2272 4049 2400 3782 
C 2298 3782 2106 3782 2106 3558 
C 2106 3385 2246 3328 2336 3328 
C 2394 3328 2566 3353 2566 3571 
C 2566 3987 2246 4224 1805 4224 
C 1043 4224 243 3411 243 2011 
C 243 257 966 -128 1478 -128 
C 2099 -128 2688 431 2688 1295 
C 2688 2101 2170 2688 1517 2688 
C 1126 2688 838 2430 678 1979 
L 678 2198 
z
M 1478 25 
C 691 25 691 1212 691 1450 
C 691 1914 909 2585 1504 2585 
C 1613 2585 1926 2585 2138 2140 
C 2253 1889 2253 1624 2253 1302 
C 2253 954 2253 696 2118 438 
C 1978 173 1773 25 1478 25 
z
" transform="scale(0.015625)"/>
       </defs>
       <use xlink:href="#CMR17-33" transform="scale(0.996264)"/>
       <use xlink:href="#CMR17-36" transform="translate(45.690477 0) scale(0.996264)"/>
       <use xlink:href="#CMR17-30" transform="translate(91.380954 0) scale(0.996264)"/>
      </g>
     </g>
    </g>
    <g id="text_5">
     <!-- $\phi (^o)$ -->
     <g transform="translate(83.920729 102.5091) scale(0.1 -0.1)">
      <defs>
       <path id="CMMI12-1e" d="M 2752 4358 
C 2752 4416 2707 4416 2688 4416 
C 2630 4416 2624 4403 2598 4294 
L 2253 2924 
C 2234 2841 2227 2835 2221 2828 
C 2214 2816 2170 2809 2157 2809 
C 1107 2720 301 1863 301 1071 
C 301 387 832 -32 1498 -71 
C 1446 -266 1402 -467 1350 -662 
C 1261 -995 1210 -1204 1210 -1229 
C 1210 -1242 1210 -1280 1274 -1280 
C 1293 -1280 1318 -1280 1331 -1255 
C 1344 -1242 1382 -1089 1408 -1008 
L 1645 -71 
C 2739 -13 3571 875 3571 1673 
C 3571 2313 3085 2771 2374 2816 
L 2752 4358 
z
M 2336 2688 
C 2758 2662 3181 2428 3181 1806 
C 3181 1090 2675 140 1677 64 
L 2336 2688 
z
M 1530 57 
C 1216 76 691 241 691 938 
C 691 1737 1274 2624 2195 2681 
L 1530 57 
z
" transform="scale(0.015625)"/>
       <path id="CMR17-28" d="M 1958 -1562 
C 1958 -1556 1958 -1543 1939 -1524 
C 1645 -1223 858 -403 858 1596 
C 858 3595 1632 4408 1946 4729 
C 1946 4735 1958 4748 1958 4767 
C 1958 4787 1939 4800 1914 4800 
C 1843 4800 1299 4325 986 3620 
C 666 2909 576 2218 576 1603 
C 576 1141 621 360 1005 -467 
C 1312 -1133 1837 -1600 1914 -1600 
C 1946 -1600 1958 -1588 1958 -1562 
z
" transform="scale(0.015625)"/>
       <path id="CMMI12-6f" d="M 2918 1755 
C 2918 2362 2522 2816 1939 2816 
C 1094 2816 262 1896 262 996 
C 262 389 659 -64 1242 -64 
C 2093 -64 2918 855 2918 1755 
z
M 1248 64 
C 928 64 691 319 691 766 
C 691 1060 845 1711 1024 2030 
C 1312 2522 1670 2687 1933 2687 
C 2246 2687 2490 2432 2490 1985 
C 2490 1730 2355 1047 2112 657 
C 1850 230 1498 64 1248 64 
z
" transform="scale(0.015625)"/>
       <path id="CMR17-29" d="M 1683 1596 
C 1683 2057 1638 2839 1254 3665 
C 947 4332 422 4800 346 4800 
C 326 4800 301 4793 301 4761 
C 301 4748 307 4742 314 4729 
C 621 4408 1402 3595 1402 1603 
C 1402 -396 627 -1210 314 -1530 
C 307 -1543 301 -1549 301 -1562 
C 301 -1594 326 -1600 346 -1600 
C 416 -1600 960 -1127 1274 -422 
C 1594 289 1683 981 1683 1596 
z
" transform="scale(0.015625)"/>
      </defs>
      <use xlink:href="#CMMI12-1e" transform="scale(0.996264)"/>
      <use xlink:href="#CMR17-28" transform="translate(57.73418 0) scale(0.996264)"/>
      <use xlink:href="#CMMI12-6f" transform="translate(93.014948 36.153639) scale(0.697382)"/>
      <use xlink:href="#CMR17-29" transform="translate(126.339642 0) scale(0.996264)"/>
     </g>
    </g>
   </g>
   <g id="matplotlib.axis_2">
    <g id="ytick_1">
     <g id="line2d_5">
      <defs>
       <path id="ma569e94b86" d="M 0 0 
L -3.5 0 
" style="stroke: #000000; stroke-width: 0.8"/>
      </defs>
      <g>
       <use xlink:href="#ma569e94b86" x="30.160813" y="58.140782" style="stroke: #000000; stroke-width: 0.8"/>
      </g>
     </g>
     <g id="text_6">
      <!-- $\mathdefault{10^{-2}}$ -->
      <g transform="translate(3.00024 61.600031) scale(0.1 -0.1)">
       <defs>
        <path id="CMSY10-0" d="M 4218 1472 
C 4326 1472 4442 1472 4442 1600 
C 4442 1728 4326 1728 4218 1728 
L 755 1728 
C 646 1728 531 1728 531 1600 
C 531 1472 646 1472 755 1472 
L 4218 1472 
z
" transform="scale(0.015625)"/>
       </defs>
       <use xlink:href="#CMR17-31" transform="scale(0.996264)"/>
       <use xlink:href="#CMR17-30" transform="translate(45.690477 0) scale(0.996264)"/>
       <use xlink:href="#CMSY10-0" transform="translate(91.380954 36.153639) scale(0.697382)"/>
       <use xlink:href="#CMR17-32" transform="translate(145.621947 36.153639) scale(0.697382)"/>
      </g>
     </g>
    </g>
    <g id="ytick_2">
     <g id="line2d_6">
      <g>
       <use xlink:href="#ma569e94b86" x="30.160813" y="28.257606" style="stroke: #000000; stroke-width: 0.8"/>
      </g>
     </g>
     <g id="text_7">
      <!-- $\mathdefault{10^{0}}$ -->
      <g transform="translate(9.226905 31.716855) scale(0.1 -0.1)">
       <use xlink:href="#CMR17-31" transform="scale(0.996264)"/>
       <use xlink:href="#CMR17-30" transform="translate(45.690477 0) scale(0.996264)"/>
       <use xlink:href="#CMR17-30" transform="translate(91.380954 36.153639) scale(0.697382)"/>
      </g>
     </g>
    </g>
   </g>
   <g id="line2d_7">
    <path d="M 35.871507 11.435681 
L 36.506029 11.179331 
L 37.14055 11.139452 
L 38.092333 11.391286 
L 39.361376 12.080609 
L 41.582201 13.595821 
L 42.533983 14.426882 
L 43.485766 15.59137 
L 44.120287 16.660614 
L 44.754809 18.045058 
L 45.38933 19.815695 
L 46.341112 23.313344 
L 47.610156 28.72479 
L 47.927416 29.543868 
L 48.244677 29.797483 
L 48.561938 29.449934 
L 49.196459 27.556537 
L 50.465502 23.298961 
L 51.100024 21.834957 
L 51.734546 20.864374 
L 52.369067 20.343869 
L 53.003589 20.229261 
L 53.63811 20.47987 
L 54.272632 21.052548 
L 55.224414 22.37993 
L 56.810718 24.778273 
L 57.445239 25.22407 
L 57.7625 25.256369 
L 58.397022 24.962747 
L 59.348804 23.961832 
L 60.617847 22.548175 
L 61.569629 21.858197 
L 62.204151 21.620457 
L 63.155933 21.560513 
L 64.424976 21.843838 
L 66.01128 22.210573 
L 66.963062 22.161392 
L 67.914845 21.857606 
L 69.501148 21.030068 
L 71.087452 20.247312 
L 72.356495 19.833773 
L 73.942799 19.571851 
L 76.163625 19.465933 
L 78.067189 19.556889 
L 79.336232 19.809802 
L 80.605275 20.317714 
L 81.557058 20.913998 
L 82.50884 21.728052 
L 83.460622 22.79007 
L 84.412404 24.135972 
L 85.364187 25.812865 
L 86.315969 27.881772 
L 87.267751 30.405313 
L 89.488577 37.088062 
L 89.805837 37.589606 
L 90.123098 37.759445 
L 90.440359 37.565014 
L 90.75762 37.033512 
L 91.392141 35.271374 
L 93.612967 28.16405 
L 94.564749 25.833621 
L 95.516531 23.963714 
L 96.468314 22.50012 
L 97.420096 21.403021 
L 98.371878 20.649468 
L 99.32366 20.231533 
L 99.958182 20.141638 
L 100.592704 20.208254 
L 101.227225 20.439474 
L 101.861747 20.84697 
L 102.496268 21.446931 
L 103.13079 22.26159 
L 104.082572 23.956713 
L 105.034354 26.37208 
L 105.668876 28.523412 
L 106.303397 31.285996 
L 106.937919 34.956796 
L 107.57244 40.185015 
L 107.889701 43.862567 
L 108.206962 48.923872 
L 108.524223 56.964028 
L 108.841483 71.900479 
L 109.476005 51.030965 
L 110.110527 42.395397 
L 110.745048 37.707792 
L 111.37957 34.695349 
L 112.014091 32.633357 
L 112.648613 31.185186 
L 113.283134 30.152624 
L 114.234916 29.087961 
L 115.50396 28.083957 
L 117.090263 27.101841 
L 117.724785 26.886509 
L 118.359306 26.879503 
L 118.993828 27.169576 
L 119.62835 27.857652 
L 120.262871 29.068393 
L 120.897393 30.973699 
L 121.531914 33.826705 
L 122.166436 37.92333 
L 122.800957 42.515893 
L 123.118218 43.26414 
L 123.435479 41.885666 
L 124.704522 31.59985 
L 125.339043 28.034244 
L 125.973565 25.433572 
L 126.608086 23.570735 
L 127.242608 22.307648 
L 127.877129 21.564704 
L 128.511651 21.301178 
L 128.828912 21.344666 
L 129.463433 21.787863 
L 130.097955 22.734559 
L 130.732476 24.249065 
L 131.366998 26.437047 
L 132.001519 29.431561 
L 133.270562 36.306791 
L 133.587823 36.405027 
L 133.905084 35.237021 
L 135.808649 24.30871 
L 136.44317 22.009026 
L 137.077692 20.312535 
L 137.712213 19.124917 
L 138.346735 18.391223 
L 138.981256 18.088246 
L 139.298517 18.098725 
L 139.933039 18.460508 
L 140.56756 19.325904 
L 141.202082 20.801794 
L 141.836603 23.092121 
L 142.471125 26.620565 
L 143.105646 32.466909 
L 143.422907 37.22761 
L 143.740168 44.988107 
L 144.057429 57.02761 
L 144.69195 37.035521 
L 145.326472 28.031341 
L 145.960993 22.797626 
L 146.595515 19.229213 
L 147.230036 16.642269 
L 147.864558 14.728887 
L 148.499079 13.32291 
L 149.133601 12.322609 
L 149.768122 11.658544 
L 150.085383 11.435681 
L 150.085383 11.435681 
" clip-path="url(#p63ed4bbf6e)" style="fill: none; stroke: #000000; stroke-width: 0.75; stroke-linecap: square"/>
   </g>
   <g id="line2d_8">
    <path d="M 35.871507 11.543549 
L 36.506029 11.238526 
L 37.14055 11.143283 
L 38.092333 11.307158 
L 39.044115 11.726959 
L 40.630419 12.732094 
L 42.216723 14.01508 
L 43.168505 15.089763 
L 43.803026 16.062363 
L 44.437548 17.318944 
L 45.072069 18.925541 
L 46.023852 22.134704 
L 47.927416 29.702668 
L 48.244677 29.937878 
L 48.561938 29.571882 
L 49.196459 27.654554 
L 50.465502 23.358954 
L 51.100024 21.873962 
L 51.734546 20.884023 
L 52.369067 20.349185 
L 53.003589 20.231055 
L 53.63811 20.490724 
L 54.272632 21.074215 
L 55.224414 22.381168 
L 56.810718 24.746033 
L 57.445239 25.255434 
L 57.7625 25.320211 
L 58.079761 25.248506 
L 58.714282 24.755064 
L 61.252368 21.973946 
L 61.88689 21.67765 
L 62.521412 21.571505 
L 63.473194 21.655281 
L 66.645802 22.235277 
L 67.280323 22.067728 
L 68.866627 21.259027 
L 72.039235 19.757043 
L 74.577321 19.265529 
L 77.115407 19.161322 
L 78.38445 19.274572 
L 79.970754 19.670637 
L 80.922536 20.10778 
L 81.874318 20.777456 
L 83.143361 21.955233 
L 84.095144 23.12913 
L 85.046926 24.608175 
L 85.998708 26.444845 
L 86.950491 28.810188 
L 87.902273 31.82149 
L 89.488577 37.355459 
L 89.805837 38.103715 
L 90.123098 38.517017 
L 90.440359 38.522734 
L 90.75762 38.117353 
L 91.392141 36.389652 
L 93.612967 28.991339 
L 94.88201 25.868261 
L 95.833792 23.99226 
L 96.785574 22.575057 
L 97.737357 21.591463 
L 98.689139 20.892963 
L 99.640921 20.471478 
L 100.275443 20.415395 
L 100.909964 20.545435 
L 101.861747 20.990496 
L 102.813529 21.741469 
L 103.44805 22.544699 
L 104.082572 23.657167 
L 105.034354 25.842114 
L 105.986137 28.721297 
L 106.620658 31.366608 
L 107.25518 34.970954 
L 107.889701 39.948104 
L 108.524223 47.181443 
L 109.158744 56.710628 
L 109.476005 55.572296 
L 110.110527 46.207713 
L 110.745048 40.245362 
L 111.37957 36.618765 
L 112.014091 34.221051 
L 112.965873 31.628917 
L 113.917656 29.680603 
L 114.869438 28.380821 
L 116.773003 26.504167 
L 117.407524 26.018183 
L 118.042046 25.788352 
L 118.676567 25.910532 
L 119.311089 26.441892 
L 119.94561 27.442616 
L 120.580132 29.02872 
L 121.214653 31.432749 
L 121.849175 35.102472 
L 122.483696 40.805029 
L 123.118218 46.820216 
L 123.435479 45.368261 
L 124.387261 34.597723 
L 125.021783 29.874012 
L 125.656304 26.602456 
L 126.290826 24.285571 
L 126.925347 22.664568 
L 127.559869 21.611328 
L 128.19439 21.070199 
L 128.511651 20.984473 
L 128.828912 21.020173 
L 129.463433 21.454304 
L 130.097955 22.383837 
L 130.732476 23.867042 
L 131.366998 26.046726 
L 132.001519 29.169832 
L 132.636041 33.489632 
L 133.270562 38.118172 
L 133.587823 38.905704 
L 133.905084 37.75076 
L 135.491388 26.507927 
L 136.125909 23.596108 
L 136.760431 21.472106 
L 137.394952 19.959167 
L 138.029474 18.942251 
L 138.663995 18.372586 
L 139.298517 18.253157 
L 139.615778 18.369404 
L 140.250299 18.970813 
L 140.884821 20.104112 
L 141.519342 21.888294 
L 142.153864 24.613434 
L 142.788385 28.940586 
L 143.105646 32.170413 
L 143.422907 36.724502 
L 143.740168 43.850132 
L 144.057429 53.921499 
L 145.009211 32.249449 
L 145.643732 25.547625 
L 146.278254 21.208982 
L 146.912775 18.109022 
L 147.547297 15.823611 
L 148.181818 14.141653 
L 148.81634 12.928553 
L 149.450862 12.085533 
L 150.085383 11.535544 
L 150.085383 11.535544 
" clip-path="url(#p63ed4bbf6e)" style="fill: none; stroke-dasharray: 2.775,1.2; stroke-dashoffset: 0; stroke: #000000; stroke-width: 0.75"/>
   </g>
   <g id="line2d_9">
    <path d="M 35.871507 6.328061 
L 36.506029 6.298373 
L 37.14055 6.526137 
L 37.775072 7.016554 
L 38.409593 7.778883 
L 39.044115 8.826453 
L 39.995897 10.970823 
L 40.947679 13.859216 
L 41.899462 17.504497 
L 43.485766 24.103231 
L 44.120287 25.709913 
L 44.437548 26.07866 
L 44.754809 26.192041 
L 45.38933 25.953161 
L 46.341112 25.436473 
L 46.975634 25.370117 
L 47.927416 25.657825 
L 48.561938 25.813074 
L 48.879199 25.767671 
L 49.196459 25.594385 
L 49.830981 24.811144 
L 50.465502 23.540293 
L 52.369067 19.338777 
L 53.003589 18.381794 
L 53.63811 17.763092 
L 54.272632 17.508719 
L 54.907153 17.642463 
L 55.541675 18.195894 
L 56.176196 19.216561 
L 56.810718 20.776592 
L 57.445239 22.980099 
L 58.079761 25.947048 
L 59.348804 32.82214 
L 59.666065 33.183571 
L 59.983325 32.37175 
L 60.935108 27.030705 
L 61.569629 23.857352 
L 62.204151 21.47037 
L 62.838672 19.763635 
L 63.473194 18.624638 
L 64.107715 17.973258 
L 64.742237 17.757109 
L 65.376758 17.943029 
L 66.01128 18.509118 
L 66.645802 19.435278 
L 67.597584 21.413716 
L 69.183888 25.040676 
L 69.501148 25.447269 
L 69.818409 25.635327 
L 70.13567 25.592148 
L 70.452931 25.337452 
L 71.087452 24.383297 
L 72.673756 21.564837 
L 73.308278 20.771504 
L 73.942799 20.244636 
L 74.577321 19.975098 
L 75.211842 19.939006 
L 75.846364 20.10372 
L 76.798146 20.636553 
L 79.336232 22.370306 
L 79.970754 22.538195 
L 80.605275 22.523704 
L 81.557058 22.190929 
L 82.826101 21.382843 
L 85.046926 19.917847 
L 86.315969 19.386615 
L 87.585012 19.150313 
L 88.854055 19.193154 
L 90.123098 19.482315 
L 91.392141 19.994269 
L 92.661184 20.720455 
L 94.247488 21.893805 
L 96.151053 23.341522 
L 97.102835 23.748322 
L 97.737357 23.771555 
L 98.371878 23.557232 
L 99.0064 23.113946 
L 99.958182 22.127178 
L 102.496268 19.202377 
L 103.44805 18.477619 
L 104.082572 18.186494 
L 104.717093 18.070112 
L 105.351615 18.144272 
L 105.986137 18.42404 
L 106.620658 18.923968 
L 107.25518 19.656895 
L 108.206962 21.205032 
L 109.476005 23.958116 
L 110.427787 25.951132 
L 111.062309 26.673699 
L 111.37957 26.734299 
L 111.69683 26.583159 
L 112.331352 25.761485 
L 114.869438 21.368473 
L 115.50396 20.801654 
L 116.138481 20.519392 
L 116.773003 20.512586 
L 117.407524 20.762887 
L 118.042046 21.241565 
L 118.993828 22.286449 
L 120.897393 24.547358 
L 121.531914 25.00238 
L 122.166436 25.23577 
L 123.118218 25.294625 
L 124.704522 25.300285 
L 127.877129 25.623296 
L 129.146173 25.192324 
L 130.097955 24.889764 
L 130.732476 24.848393 
L 131.366998 25.006636 
L 132.001519 25.396949 
L 132.636041 26.017068 
L 134.539606 28.295559 
L 134.856866 28.462342 
L 135.174127 28.488753 
L 135.491388 28.365424 
L 136.125909 27.721417 
L 138.346735 24.648047 
L 138.981256 24.330812 
L 139.615778 24.418433 
L 140.250299 24.920634 
L 141.202082 26.24991 
L 141.836603 26.997632 
L 142.153864 27.055218 
L 142.471125 26.764361 
L 142.788385 26.082887 
L 143.422907 23.758731 
L 145.643732 14.205636 
L 146.595515 11.26124 
L 147.547297 9.062203 
L 148.499079 7.531296 
L 149.133601 6.853902 
L 149.768122 6.438926 
L 150.085383 6.328061 
L 150.085383 6.328061 
" clip-path="url(#p63ed4bbf6e)" style="fill: none; stroke: #ff0000; stroke-width: 0.75; stroke-linecap: square"/>
   </g>
   <g id="line2d_10">
    <path d="M 35.871507 6.511028 
L 36.506029 6.44385 
L 37.14055 6.62686 
L 37.775072 7.068517 
L 38.409593 7.782355 
L 39.044115 8.78309 
L 39.995897 10.856332 
L 40.947679 13.661283 
L 41.899462 17.210274 
L 43.803026 24.962745 
L 44.437548 26.304747 
L 44.754809 26.560896 
L 45.072069 26.603108 
L 45.706591 26.344458 
L 46.658373 25.89697 
L 47.292895 25.806813 
L 48.561938 25.838313 
L 48.879199 25.722319 
L 49.51372 25.116069 
L 50.148242 23.991062 
L 52.686328 18.58902 
L 53.320849 17.811191 
L 53.955371 17.379894 
L 54.589892 17.309479 
L 55.224414 17.623542 
L 55.858935 18.36801 
L 56.493457 19.613803 
L 57.127979 21.456256 
L 57.7625 24.013026 
L 58.714282 29.281006 
L 59.348804 32.579998 
L 59.666065 33.051209 
L 59.983325 32.339977 
L 60.617847 28.930904 
L 61.569629 23.914087 
L 62.204151 21.52673 
L 62.838672 19.812563 
L 63.473194 18.652269 
L 64.107715 17.966871 
L 64.742237 17.714585 
L 65.376758 17.875889 
L 66.01128 18.433743 
L 66.645802 19.354693 
L 67.597584 21.274526 
L 69.183888 24.787224 
L 69.501148 25.221733 
L 69.818409 25.445361 
L 70.13567 25.430561 
L 70.452931 25.188488 
L 71.087452 24.228665 
L 72.673756 21.494692 
L 73.625538 20.416783 
L 74.26006 19.998557 
L 74.894581 19.846035 
L 75.529103 19.935702 
L 76.480885 20.368227 
L 77.749928 21.229262 
L 79.018971 22.158313 
L 79.653493 22.423265 
L 80.288014 22.479254 
L 81.239797 22.26698 
L 82.191579 21.814676 
L 85.998708 19.546685 
L 86.950491 19.312163 
L 87.902273 19.274258 
L 89.171316 19.458674 
L 90.75762 19.893127 
L 92.026663 20.507296 
L 93.612967 21.661557 
L 95.833792 23.273784 
L 96.785574 23.794577 
L 97.420096 23.924759 
L 98.054617 23.778153 
L 98.689139 23.350463 
L 99.640921 22.36784 
L 102.813529 18.742123 
L 103.765311 18.122901 
L 104.399833 17.934039 
L 105.034354 17.911174 
L 105.668876 18.069861 
L 106.303397 18.450278 
L 106.937919 19.079187 
L 107.889701 20.469843 
L 108.841483 22.348489 
L 110.427787 25.840055 
L 111.062309 26.55518 
L 111.37957 26.611363 
L 111.69683 26.459582 
L 112.331352 25.629599 
L 114.552177 21.489527 
L 115.186699 20.823539 
L 115.82122 20.430785 
L 116.455742 20.278747 
L 117.090263 20.370396 
L 117.724785 20.723053 
L 118.359306 21.323979 
L 119.94561 23.366773 
L 120.897393 24.436305 
L 121.849175 25.119605 
L 122.483696 25.319634 
L 123.435479 25.320883 
L 124.704522 25.296707 
L 125.656304 25.543402 
L 126.925347 25.901611 
L 127.877129 25.868356 
L 128.828912 25.543285 
L 130.415216 24.889501 
L 131.049737 24.894737 
L 131.684259 25.128754 
L 132.636041 25.82427 
L 133.587823 26.873514 
L 134.856866 28.385714 
L 135.174127 28.553432 
L 135.491388 28.566238 
L 135.808649 28.424666 
L 136.44317 27.785924 
L 138.346735 25.329876 
L 138.981256 24.970804 
L 139.615778 25.030276 
L 140.250299 25.476485 
L 141.836603 27.126367 
L 142.153864 27.130043 
L 142.471125 26.821759 
L 142.788385 26.149948 
L 143.422907 23.872379 
L 145.643732 14.507676 
L 146.595515 11.554314 
L 147.547297 9.312301 
L 148.499079 7.754255 
L 149.133601 7.065208 
L 149.768122 6.632791 
L 150.085383 6.506769 
L 150.085383 6.506769 
" clip-path="url(#p63ed4bbf6e)" style="fill: none; stroke-dasharray: 2.775,1.2; stroke-dashoffset: 0; stroke: #ff0000; stroke-width: 0.75"/>
   </g>
   <g id="patch_3">
    <path d="M 30.160813 75.181443 
L 30.160813 3.00024 
" style="fill: none; stroke: #000000; stroke-width: 0.8; stroke-linejoin: miter; stroke-linecap: square"/>
   </g>
   <g id="patch_4">
    <path d="M 155.796077 75.181443 
L 155.796077 3.00024 
" style="fill: none; stroke: #000000; stroke-width: 0.8; stroke-linejoin: miter; stroke-linecap: square"/>
   </g>
   <g id="patch_5">
    <path d="M 30.160813 75.181443 
L 155.796077 75.181443 
" style="fill: none; stroke: #000000; stroke-width: 0.8; stroke-linejoin: miter; stroke-linecap: square"/>
   </g>
   <g id="patch_6">
    <path d="M 30.160813 3.00024 
L 155.796077 3.00024 
" style="fill: none; stroke: #000000; stroke-width: 0.8; stroke-linejoin: miter; stroke-linecap: square"/>
   </g>
   <g id="legend_1">
    <g id="patch_7">
     <path d="M 37.160813 70.181443 
L 98.744818 70.181443 
Q 100.744818 70.181443 100.744818 68.181443 
L 100.744818 41.307087 
Q 100.744818 39.307087 98.744818 39.307087 
L 37.160813 39.307087 
Q 35.160813 39.307087 35.160813 41.307087 
L 35.160813 68.181443 
Q 35.160813 70.181443 37.160813 70.181443 
z
" style="fill: #ffffff; opacity: 0.8; stroke: #cccccc; stroke-linejoin: miter"/>
    </g>
    <g id="line2d_11">
     <defs>
      <path id="m3ba015210c" d="M 0 2.5 
C 0.663008 2.5 1.29895 2.236584 1.767767 1.767767 
C 2.236584 1.29895 2.5 0.663008 2.5 0 
C 2.5 -0.663008 2.236584 -1.29895 1.767767 -1.767767 
C 1.29895 -2.236584 0.663008 -2.5 0 -2.5 
C -0.663008 -2.5 -1.29895 -2.236584 -1.767767 -1.767767 
C -2.236584 -1.29895 -2.5 -0.663008 -2.5 0 
C -2.5 0.663008 -2.236584 1.29895 -1.767767 1.767767 
C -1.29895 2.236584 -0.663008 2.5 0 2.5 
z
" style="stroke: #000000"/>
     </defs>
     <g>
      <use xlink:href="#m3ba015210c" x="49.160813" y="46.807087" style="stroke: #000000"/>
     </g>
    </g>
    <g id="text_8">
     <!-- $\phi_0 = 0^o$ -->
     <g transform="translate(59.160813 50.307087) scale(0.1 -0.1)">
      <defs>
       <path id="CMR17-3d" d="M 4115 2048 
C 4211 2048 4307 2048 4307 2156 
C 4307 2272 4198 2272 4090 2272 
L 512 2272 
C 403 2272 294 2272 294 2156 
C 294 2048 390 2048 486 2048 
L 4115 2048 
z
M 4090 927 
C 4198 927 4307 927 4307 1043 
C 4307 1152 4211 1152 4115 1152 
L 486 1152 
C 390 1152 294 1152 294 1043 
C 294 927 403 927 512 927 
L 4090 927 
z
" transform="scale(0.015625)"/>
      </defs>
      <use xlink:href="#CMMI12-1e" transform="scale(0.996264)"/>
      <use xlink:href="#CMR17-30" transform="translate(57.73418 -14.943915) scale(0.697382)"/>
      <use xlink:href="#CMR17-3d" transform="translate(117.889503 0) scale(0.996264)"/>
      <use xlink:href="#CMR17-30" transform="translate(217.2783 0) scale(0.996264)"/>
      <use xlink:href="#CMMI12-6f" transform="translate(262.968777 36.153639) scale(0.697382)"/>
     </g>
    </g>
    <g id="line2d_12">
     <defs>
      <path id="m132d098b0a" d="M 0 2.5 
C 0.663008 2.5 1.29895 2.236584 1.767767 1.767767 
C 2.236584 1.29895 2.5 0.663008 2.5 0 
C 2.5 -0.663008 2.236584 -1.29895 1.767767 -1.767767 
C 1.29895 -2.236584 0.663008 -2.5 0 -2.5 
C -0.663008 -2.5 -1.29895 -2.236584 -1.767767 -1.767767 
C -2.236584 -1.29895 -2.5 -0.663008 -2.5 0 
C -2.5 0.663008 -2.236584 1.29895 -1.767767 1.767767 
C -1.29895 2.236584 -0.663008 2.5 0 2.5 
z
" style="stroke: #ff0000"/>
     </defs>
     <g>
      <use xlink:href="#m132d098b0a" x="49.160813" y="60.744265" style="fill: #ff0000; stroke: #ff0000"/>
     </g>
    </g>
    <g id="text_9">
     <!-- $\phi_0 = 45^o$ -->
     <g transform="translate(59.160813 64.244265) scale(0.1 -0.1)">
      <defs>
       <path id="CMR17-35" d="M 730 3750 
C 794 3724 1056 3641 1325 3641 
C 1920 3641 2246 3961 2432 4140 
C 2432 4191 2432 4224 2394 4224 
C 2387 4224 2374 4224 2323 4198 
C 2099 4102 1837 4032 1517 4032 
C 1325 4032 1037 4055 723 4191 
C 653 4224 640 4224 634 4224 
C 602 4224 595 4217 595 4090 
L 595 2231 
C 595 2113 595 2080 659 2080 
C 691 2080 704 2093 736 2139 
C 941 2435 1222 2560 1542 2560 
C 1766 2560 2246 2415 2246 1293 
C 2246 1087 2246 716 2054 422 
C 1894 159 1645 25 1370 25 
C 947 25 518 319 403 812 
C 429 806 480 793 506 793 
C 589 793 749 838 749 1036 
C 749 1209 627 1280 506 1280 
C 358 1280 262 1190 262 1011 
C 262 454 704 -128 1382 -128 
C 2042 -128 2669 441 2669 1267 
C 2669 2054 2170 2662 1549 2662 
C 1222 2662 947 2540 730 2304 
L 730 3750 
z
" transform="scale(0.015625)"/>
      </defs>
      <use xlink:href="#CMMI12-1e" transform="scale(0.996264)"/>
      <use xlink:href="#CMR17-30" transform="translate(57.73418 -14.943915) scale(0.697382)"/>
      <use xlink:href="#CMR17-3d" transform="translate(117.889503 0) scale(0.996264)"/>
      <use xlink:href="#CMR17-34" transform="translate(217.2783 0) scale(0.996264)"/>
      <use xlink:href="#CMR17-35" transform="translate(262.968777 0) scale(0.996264)"/>
      <use xlink:href="#CMMI12-6f" transform="translate(308.659254 36.153639) scale(0.697382)"/>
     </g>
    </g>
   </g>
  </g>
 </g>
 <defs>
  <clipPath id="p63ed4bbf6e">
   <rect x="30.160813" y="3.00024" width="125.635263" height="72.181203"/>
  </clipPath>
 </defs>
</svg>
